G04*
G04 #@! TF.GenerationSoftware,Altium Limited,Altium Designer,21.3.2 (30)*
G04*
G04 Layer_Color=65535*
%FSLAX24Y24*%
%MOIN*%
G70*
G04*
G04 #@! TF.SameCoordinates,4918C4AF-473F-441A-9CD2-E68DF055B6D3*
G04*
G04*
G04 #@! TF.FilePolarity,Positive*
G04*
G01*
G75*
%ADD10C,0.0070*%
%ADD11C,0.0098*%
%ADD12C,0.0050*%
%ADD13C,0.0079*%
%ADD14C,0.0100*%
%ADD15C,0.0040*%
%ADD16C,0.0080*%
%ADD17C,0.0120*%
%ADD18C,0.0250*%
%ADD19R,0.0300X0.0197*%
G36*
X53067Y8309D02*
X53447D01*
X53447Y8229D01*
X53267Y8049D01*
X53067Y8309D01*
D02*
G37*
G36*
X10780Y50186D02*
X10400D01*
X10400Y50266D01*
X10580Y50446D01*
X10780Y50186D01*
D02*
G37*
G36*
X14700Y53150D02*
X14950Y53400D01*
X14800D01*
Y53650D01*
X14600D01*
Y53400D01*
X14450D01*
X14700Y53150D01*
D02*
G37*
G36*
X62701Y8309D02*
X63081D01*
X63081Y8229D01*
X62901Y8049D01*
X62701Y8309D01*
D02*
G37*
G36*
X66252Y22180D02*
X66448Y22376D01*
X66252Y22573D01*
Y22180D01*
D02*
G37*
G36*
X66202Y30830D02*
X66398Y31026D01*
X66202Y31223D01*
Y30830D01*
D02*
G37*
D10*
X13302Y53546D02*
G03*
X13248Y53600I398J454D01*
G01*
X15764Y52480D02*
G03*
X15764Y52480I-64J0D01*
G01*
X13744Y52470D02*
G03*
X13744Y52470I-64J0D01*
G01*
X15310Y53539D02*
G03*
X15248Y53600I390J461D01*
G01*
X50112Y47031D02*
G03*
X50112Y47031I-178J0D01*
G01*
X51622Y47021D02*
G03*
X51622Y47021I-178J0D01*
G01*
X50729Y44707D02*
G03*
X50729Y44707I-178J0D01*
G01*
X51141Y42755D02*
G03*
X49981Y42765I-585J-575D01*
G01*
X58000Y47168D02*
G03*
X58000Y47168I-178J0D01*
G01*
X59510Y47158D02*
G03*
X59510Y47158I-178J0D01*
G01*
X58617Y44844D02*
G03*
X58617Y44844I-178J0D01*
G01*
X59029Y42892D02*
G03*
X57869Y42902I-585J-575D01*
G01*
X65700Y47218D02*
G03*
X65700Y47218I-178J0D01*
G01*
X67210Y47208D02*
G03*
X67210Y47208I-178J0D01*
G01*
X66317Y44894D02*
G03*
X66317Y44894I-178J0D01*
G01*
X66729Y42942D02*
G03*
X65569Y42952I-585J-575D01*
G01*
X68430Y21634D02*
Y21814D01*
X68970Y21634D02*
Y21814D01*
X12700Y52000D02*
Y52150D01*
X12800D01*
X12700Y52000D02*
X16700D01*
X12700Y53600D02*
Y54790D01*
Y55000D02*
X16700D01*
X13275Y53575D02*
X14120Y54420D01*
X14680Y53280D02*
Y54790D01*
X16760Y52200D02*
Y52450D01*
X16700Y52000D02*
Y53500D01*
X12800Y52180D02*
Y52490D01*
X12700D02*
X12800D01*
X12700D02*
Y55000D01*
X16700Y53500D02*
Y55000D01*
X12700Y53000D02*
X16700D01*
X15270Y53570D02*
X16120Y54420D01*
X68531Y30562D02*
Y30742D01*
X69071Y30562D02*
Y30742D01*
X29412Y24619D02*
X29592D01*
X29412Y24079D02*
X29592D01*
X20469Y19658D02*
Y19838D01*
X19929Y19658D02*
Y19838D01*
X40019Y21958D02*
Y22138D01*
X39479Y21958D02*
Y22138D01*
X59770Y6438D02*
Y6618D01*
X59230Y6438D02*
Y6618D01*
X50162Y46939D02*
X50552Y46549D01*
X51444Y47199D02*
X51714Y47469D01*
X52374D01*
X49614D02*
X49874Y47209D01*
X48854Y47469D02*
X49614D01*
X50561Y42462D02*
Y44505D01*
X50551Y44905D02*
Y46549D01*
X51151Y42745D02*
X52281D01*
X48831Y42755D02*
X49971D01*
X47462Y41479D02*
Y49113D01*
X53668Y41479D02*
Y49113D01*
X47462Y41479D02*
X53668D01*
X47462Y49113D02*
X53668D01*
X58050Y47076D02*
X58440Y46686D01*
X59332Y47336D02*
X59602Y47606D01*
X60262D01*
X57502D02*
X57762Y47346D01*
X56742Y47606D02*
X57502D01*
X58449Y42600D02*
Y44642D01*
X58439Y45042D02*
Y46686D01*
X59039Y42882D02*
X60169D01*
X56719Y42892D02*
X57859D01*
X55350Y41616D02*
Y49250D01*
X61556Y41616D02*
Y49250D01*
X55350Y41616D02*
X61556D01*
X55350Y49250D02*
X61556D01*
X65750Y47126D02*
X66140Y46736D01*
X67032Y47386D02*
X67302Y47656D01*
X67962D01*
X65202D02*
X65462Y47396D01*
X64442Y47656D02*
X65202D01*
X66149Y42650D02*
Y44692D01*
X66139Y45092D02*
Y46736D01*
X66739Y42932D02*
X67869D01*
X64419Y42942D02*
X65559D01*
X63050Y41666D02*
Y49300D01*
X69256Y41666D02*
Y49300D01*
X63050Y41666D02*
X69256D01*
X63050Y49300D02*
X69256D01*
X44679Y38508D02*
Y38688D01*
X45219Y38508D02*
Y38688D01*
X64036Y14480D02*
X64216D01*
X64036Y15020D02*
X64216D01*
X31171Y50512D02*
Y50692D01*
X30631Y50512D02*
Y50692D01*
X23330Y32286D02*
Y32466D01*
X23870Y32286D02*
Y32466D01*
X22530Y39286D02*
Y39466D01*
X23070Y39286D02*
Y39466D01*
X19512Y37279D02*
X19692D01*
X19512Y37819D02*
X19692D01*
D11*
X22318Y42592D02*
G03*
X22318Y42592I-49J0D01*
G01*
X64199Y11549D02*
G03*
X64199Y11549I-49J0D01*
G01*
X58950Y33600D02*
G03*
X58950Y33600I-49J0D01*
G01*
X65650Y33250D02*
G03*
X65650Y33250I-49J0D01*
G01*
X52500Y33850D02*
G03*
X52500Y33850I-49J0D01*
G01*
D12*
X56400Y6889D02*
G03*
X58400Y6889I1000J249D01*
G01*
X24550Y51700D02*
G03*
X24550Y51700I-1500J0D01*
G01*
X66248Y19195D02*
X68019D01*
Y23093D01*
X66248D02*
X68019D01*
X66248Y19195D02*
Y23093D01*
X62899Y8029D02*
X63128Y8324D01*
X62681Y8319D02*
X62899Y8029D01*
X53264D02*
X53494Y8324D01*
X53047Y8319D02*
X53264Y8029D01*
X66198Y27845D02*
X67969D01*
Y31743D01*
X66198D02*
X67969D01*
X66198Y27845D02*
Y31743D01*
X10582Y50466D02*
X10800Y50176D01*
X10353Y50171D02*
X10582Y50466D01*
X56400Y6889D02*
X58400D01*
X55900Y7889D02*
X58900D01*
Y6889D02*
Y7889D01*
X58400Y6889D02*
X58900D01*
X55900D02*
X56400D01*
X55900D02*
Y7889D01*
X6758Y6128D02*
Y23450D01*
X12270D01*
Y6128D02*
Y23450D01*
X6758Y6128D02*
X12270D01*
X23050Y51875D02*
Y52275D01*
X22850Y52075D02*
X23250D01*
X10457Y40774D02*
X12157D01*
X10457D02*
Y42024D01*
X12157D01*
Y40774D02*
Y42024D01*
X10457Y41924D02*
Y42024D01*
X10607D01*
X10597D02*
X10617D01*
X10457Y41884D02*
Y41894D01*
X34350Y51796D02*
X40650D01*
X34350Y45104D02*
X40650D01*
D13*
X8002Y5879D02*
G03*
X8002Y5879I-39J0D01*
G01*
X33769Y51206D02*
G03*
X33769Y51206I-39J0D01*
G01*
X68351Y21036D02*
X69051D01*
X68351Y22416D02*
X69051D01*
X68351Y21036D02*
Y21565D01*
Y21870D02*
Y22416D01*
X69051Y21870D02*
Y22416D01*
Y21036D02*
Y21565D01*
X19631Y42001D02*
X22269D01*
X19631Y40899D02*
X22269D01*
Y42001D01*
X19631Y40899D02*
Y42001D01*
X59921Y8339D02*
X63971D01*
Y5839D02*
Y8339D01*
X59921Y5839D02*
Y8339D01*
Y5839D02*
X63971D01*
X50287Y8339D02*
X54337D01*
Y5839D02*
Y8339D01*
X50287Y5839D02*
Y8339D01*
Y5839D02*
X54337D01*
X68450Y30811D02*
Y31340D01*
Y29960D02*
Y30506D01*
X69150Y29960D02*
Y30506D01*
Y30811D02*
Y31340D01*
X68450Y29960D02*
X69150D01*
X68450Y31340D02*
X69150D01*
X59593Y39267D02*
Y40291D01*
X59770Y40468D02*
X61030D01*
X59593Y36334D02*
X61207D01*
Y37397D01*
X59593Y36334D02*
Y37397D01*
X59591Y40291D02*
X59770Y40468D01*
X61030D02*
X61207Y40291D01*
Y39267D02*
Y40291D01*
X50169Y33835D02*
Y34505D01*
X48831Y33835D02*
X48988Y33639D01*
X50012Y33639D02*
X50169Y33835D01*
X48831Y33835D02*
Y34505D01*
X48988Y33639D02*
X50012D01*
X48831Y35843D02*
X50169D01*
Y35095D02*
Y35843D01*
X48831Y35095D02*
Y35843D01*
X47819Y33945D02*
Y34614D01*
X46481Y33945D02*
X46638Y33748D01*
X47662Y33748D02*
X47819Y33945D01*
X46481Y33945D02*
Y34614D01*
X46638Y33748D02*
X47662D01*
X46481Y35953D02*
X47819D01*
Y35205D02*
Y35953D01*
X46481Y35205D02*
Y35953D01*
X29661Y24700D02*
X30190D01*
X28810D02*
X29356D01*
X28810Y24000D02*
X29356D01*
X29661D02*
X30190D01*
X28810D02*
Y24700D01*
X30190Y24000D02*
Y24700D01*
X20550Y19060D02*
Y19589D01*
Y19894D02*
Y20440D01*
X19850Y19894D02*
Y20440D01*
Y19060D02*
Y19589D01*
Y20440D02*
X20550D01*
X19850Y19060D02*
X20550D01*
X63307Y39285D02*
Y40309D01*
X63130Y40486D02*
X63307Y40309D01*
X61691D02*
X61870Y40486D01*
X61693Y36352D02*
Y37415D01*
X63307Y36352D02*
Y37415D01*
X61693Y36352D02*
X63307D01*
X61870Y40486D02*
X63130D01*
X61693Y39285D02*
Y40309D01*
X40100Y21360D02*
Y21889D01*
Y22194D02*
Y22740D01*
X39400Y22194D02*
Y22740D01*
Y21360D02*
Y21889D01*
Y22740D02*
X40100D01*
X39400Y21360D02*
X40100D01*
X59851Y5839D02*
Y6369D01*
Y6674D02*
Y7219D01*
X59151Y6674D02*
Y7219D01*
Y5839D02*
Y6369D01*
Y7219D02*
X59851D01*
X59151Y5839D02*
X59851D01*
X28060Y14850D02*
X28650D01*
Y16950D01*
X27850D02*
X28650D01*
X27850Y14850D02*
Y16950D01*
Y14850D02*
X28060D01*
X65445Y37719D02*
X66115D01*
Y36381D02*
X66311Y36538D01*
X66115Y37719D02*
X66311Y37562D01*
X65445Y36381D02*
X66115D01*
X66311Y36538D02*
Y37562D01*
X64107Y36381D02*
Y37719D01*
X64855D01*
X64107Y36381D02*
X64855D01*
X13660Y47537D02*
Y48501D01*
X12440Y47537D02*
Y48501D01*
Y45568D02*
Y46592D01*
X13660Y45568D02*
Y46592D01*
X12617Y48678D02*
X13483D01*
X12440Y48501D02*
X12617Y48678D01*
X13483D02*
X13660Y48501D01*
X12440Y45568D02*
X13660D01*
X29450Y26850D02*
X40700D01*
X41450D01*
Y27850D01*
X29450D02*
X41450D01*
X29450Y26850D02*
Y27850D01*
X30300Y39250D02*
X41550D01*
X29550D02*
X30300D01*
X29550Y38250D02*
Y39250D01*
Y38250D02*
X41550D01*
Y39250D01*
X42100Y33200D02*
X43100D01*
Y28200D02*
Y33200D01*
X42100Y28200D02*
Y33200D01*
Y28200D02*
X43100D01*
X44600Y37910D02*
X45300D01*
X44600Y39290D02*
X45300D01*
X44600Y37910D02*
Y38439D01*
Y38744D02*
Y39290D01*
X45300Y38744D02*
Y39290D01*
Y37910D02*
Y38439D01*
X64814Y14401D02*
Y15101D01*
X63434Y14401D02*
Y15101D01*
X64285Y14401D02*
X64814D01*
X63434D02*
X63980D01*
X63434Y15101D02*
X63980D01*
X64285D02*
X64814D01*
X30550Y51290D02*
X31250D01*
X30550Y49910D02*
X31250D01*
Y50761D02*
Y51290D01*
Y49910D02*
Y50456D01*
X30550Y49910D02*
Y50456D01*
Y50761D02*
Y51290D01*
X23251Y31688D02*
X23951D01*
X23251Y33068D02*
X23951D01*
X23251Y31688D02*
Y32217D01*
Y32522D02*
Y33068D01*
X23951Y32522D02*
Y33068D01*
Y31688D02*
Y32217D01*
X22451Y38688D02*
X23151D01*
X22451Y40068D02*
X23151D01*
X22451Y38688D02*
Y39217D01*
Y39522D02*
Y40068D01*
X23151Y39522D02*
Y40068D01*
Y38688D02*
Y39217D01*
X20290Y37200D02*
Y37900D01*
X18910Y37200D02*
Y37900D01*
X19761Y37200D02*
X20290D01*
X18910D02*
X19456D01*
X18910Y37900D02*
X19456D01*
X19761D02*
X20290D01*
X55995Y34619D02*
X56743D01*
X55995Y33281D02*
X56743D01*
Y34619D01*
X54539Y33438D02*
Y34462D01*
X54735Y34619D02*
X55405D01*
X54539Y33438D02*
X54735Y33281D01*
X54539Y34462D02*
X54735Y34619D01*
Y33281D02*
X55405D01*
X54281Y37786D02*
Y38534D01*
X55619Y37786D02*
Y38534D01*
X54281D02*
X55619D01*
X54438Y36329D02*
X55462D01*
X54281Y36526D02*
Y37195D01*
X55462Y36329D02*
X55619Y36526D01*
X54281Y36526D02*
X54438Y36329D01*
X55619Y36526D02*
Y37195D01*
X66857Y36131D02*
X67605D01*
X66857Y37469D02*
X67605D01*
X66857Y36131D02*
Y37469D01*
X69061Y36288D02*
Y37312D01*
X68195Y36131D02*
X68865D01*
X68865Y37469D02*
X69061Y37312D01*
X68865Y36131D02*
X69061Y36288D01*
X68195Y37469D02*
X68865D01*
X51893Y38717D02*
Y39741D01*
X52070Y39918D02*
X53330D01*
X51893Y35784D02*
X53507D01*
Y36847D01*
X51893Y35784D02*
Y36847D01*
X51891Y39741D02*
X52070Y39918D01*
X53330D02*
X53507Y39741D01*
Y38717D02*
Y39741D01*
X22860Y6108D02*
X23942D01*
X22319Y7045D02*
X22860Y6108D01*
X22319Y7045D02*
X22860Y7982D01*
X23942D01*
X24483Y7045D01*
X23942Y6108D02*
X24483Y7045D01*
X22860Y18707D02*
X23942D01*
X22319Y19644D02*
X22860Y18707D01*
X22319Y19644D02*
X22860Y20581D01*
X23942D01*
X24483Y19644D01*
X23942Y18707D02*
X24483Y19644D01*
X32309Y18707D02*
X33391D01*
X31768Y19644D02*
X32309Y18707D01*
X31768Y19644D02*
X32309Y20581D01*
X33391D01*
X33932Y19644D01*
X33391Y18707D02*
X33932Y19644D01*
X32309Y6113D02*
X33391D01*
X31768Y7050D02*
X32309Y6113D01*
X31768Y7050D02*
X32309Y7987D01*
X33391D01*
X33932Y7050D01*
X33391Y6113D02*
X33932Y7050D01*
X42650Y44500D02*
X43650D01*
X42650D02*
Y52500D01*
X43650D01*
Y44500D02*
Y52500D01*
X31900Y44500D02*
Y52500D01*
Y44500D02*
X32900D01*
Y52500D01*
X31900D02*
X32900D01*
X38960Y6058D02*
X40042D01*
X38419Y6995D02*
X38960Y6058D01*
X38419Y6995D02*
X38960Y7932D01*
X40042D01*
X40583Y6995D01*
X40042Y6058D02*
X40583Y6995D01*
X40042Y18657D02*
X40583Y19594D01*
X40042Y20531D02*
X40583Y19594D01*
X38960Y20531D02*
X40042D01*
X38419Y19594D02*
X38960Y20531D01*
X38419Y19594D02*
X38960Y18657D01*
X40042D01*
X49491Y6058D02*
X50032Y6995D01*
X49491Y7932D02*
X50032Y6995D01*
X48409Y7932D02*
X49491D01*
X47868Y6995D02*
X48409Y7932D01*
X47868Y6995D02*
X48409Y6058D01*
X49491D01*
Y18657D02*
X50032Y19594D01*
X49491Y20531D02*
X50032Y19594D01*
X48409Y20531D02*
X49491D01*
X47868Y19594D02*
X48409Y20531D01*
X47868Y19594D02*
X48409Y18657D01*
X49491D01*
D14*
X16800Y20650D02*
G03*
X17300Y20650I250J0D01*
G01*
X63210Y5856D02*
Y6092D01*
X60690D02*
X63210D01*
X60690Y5856D02*
Y6092D01*
X53576Y5856D02*
Y6092D01*
X51056D02*
X53576D01*
X51056Y5856D02*
Y6092D01*
X62600Y56850D02*
X68605D01*
X62600Y52050D02*
X68605D01*
X62600Y52100D02*
Y56850D01*
X68605Y52050D02*
Y56850D01*
X61255Y51900D02*
Y56700D01*
X55250Y51950D02*
Y56700D01*
Y51900D02*
X61255D01*
X55250Y56700D02*
X61255D01*
X47400Y57000D02*
X53405D01*
X47400Y52200D02*
X53405D01*
X47400Y52250D02*
Y57000D01*
X53405Y52200D02*
Y57000D01*
X28093Y15782D02*
X28447D01*
X28093Y16018D02*
X28447D01*
X6770Y56386D02*
X6810D01*
X6811Y56387D01*
X11100D01*
X7550Y50190D02*
X8350D01*
X10150D02*
X11100D01*
Y55840D01*
X7550D02*
X11100D01*
X6770Y55836D02*
X7570D01*
X6770Y50186D02*
Y55836D01*
Y50186D02*
X7570D01*
Y50736D01*
Y52586D02*
Y55786D01*
X11100Y55840D02*
Y56387D01*
X6770Y55836D02*
Y56360D01*
X10350Y55859D02*
Y56326D01*
X10345Y55864D02*
X10581Y56100D01*
X10148Y56061D02*
X10350Y55859D01*
X8230Y55912D02*
Y56316D01*
Y55912D02*
X8388Y56070D01*
X8073Y56070D02*
X8230Y55912D01*
X48194Y47692D02*
X48237Y47649D01*
X56082Y47829D02*
X56125Y47786D01*
X63782Y47879D02*
X63825Y47836D01*
X16550Y20650D02*
X16800D01*
X17300D02*
X17550D01*
Y18650D02*
Y20650D01*
X16550Y18650D02*
X17550D01*
X16550D02*
Y20650D01*
X20600Y5850D02*
Y9300D01*
X13000D02*
X20600D01*
X13000Y5850D02*
Y9300D01*
Y5850D02*
X20600D01*
X18250Y50200D02*
X18550Y49900D01*
Y47650D02*
Y49900D01*
X18250Y47350D02*
X18550Y47650D01*
X16850Y47350D02*
X18250D01*
X16550Y47650D02*
X16850Y47350D01*
X16550Y47650D02*
Y49900D01*
X16850Y50200D01*
X18250D01*
X13450Y40000D02*
Y41850D01*
Y40000D02*
X13900Y39550D01*
X16150D01*
X16650Y40050D01*
Y41800D01*
X16200Y42250D02*
X16650Y41800D01*
X13850Y42250D02*
X16200D01*
X13450Y41850D02*
X13850Y42250D01*
X52560Y35070D02*
Y35470D01*
X52460Y35570D01*
X52260D01*
X52160Y35470D01*
Y35070D01*
X52260Y34970D01*
X52460D01*
X52360Y35170D02*
X52560Y34970D01*
X52460D02*
X52560Y35070D01*
X53060Y34970D02*
Y35570D01*
X52760Y35270D01*
X53160D01*
X65710Y34470D02*
Y34870D01*
X65610Y34970D01*
X65410D01*
X65310Y34870D01*
Y34470D01*
X65410Y34370D01*
X65610D01*
X65510Y34570D02*
X65710Y34370D01*
X65610D02*
X65710Y34470D01*
X65910Y34870D02*
X66010Y34970D01*
X66210D01*
X66310Y34870D01*
Y34770D01*
X66210Y34670D01*
X66110D01*
X66210D01*
X66310Y34570D01*
Y34470D01*
X66210Y34370D01*
X66010D01*
X65910Y34470D01*
X59010Y34820D02*
Y35220D01*
X58910Y35320D01*
X58710D01*
X58610Y35220D01*
Y34820D01*
X58710Y34720D01*
X58910D01*
X58810Y34920D02*
X59010Y34720D01*
X58910D02*
X59010Y34820D01*
X59610Y34720D02*
X59210D01*
X59610Y35120D01*
Y35220D01*
X59510Y35320D01*
X59310D01*
X59210Y35220D01*
X63930Y12340D02*
Y12740D01*
X63830Y12840D01*
X63630D01*
X63530Y12740D01*
Y12340D01*
X63630Y12240D01*
X63830D01*
X63730Y12440D02*
X63930Y12240D01*
X63830D02*
X63930Y12340D01*
X64130Y12240D02*
X64330D01*
X64230D01*
Y12840D01*
X64130Y12740D01*
X12770Y55940D02*
Y55340D01*
Y55540D01*
X13170Y55940D01*
X12870Y55640D01*
X13170Y55340D01*
X13770Y55940D02*
X13370D01*
Y55640D01*
X13570D01*
X13370D01*
Y55340D01*
X13970D02*
X14170D01*
X14070D01*
Y55940D01*
X13970Y55840D01*
X60380Y9281D02*
X60180D01*
X60280D01*
Y8781D01*
X60180Y8681D01*
X60080D01*
X59980Y8781D01*
X60680Y9181D02*
Y9081D01*
X60580D01*
X60780D01*
X60680D01*
Y8781D01*
X60780Y8681D01*
X61080Y9081D02*
Y8681D01*
Y8881D01*
X61180Y8981D01*
X61280Y9081D01*
X61380D01*
X66670Y32670D02*
X66470D01*
X66570D01*
Y32170D01*
X66470Y32070D01*
X66370D01*
X66270Y32170D01*
X66870Y32070D02*
X67170D01*
X67270Y32170D01*
X67170Y32270D01*
X66970D01*
X66870Y32370D01*
X66970Y32470D01*
X67270D01*
X67869D02*
X67570D01*
X67470Y32370D01*
Y32170D01*
X67570Y32070D01*
X67869D01*
X68469Y32670D02*
Y32070D01*
X68169D01*
X68069Y32170D01*
Y32370D01*
X68169Y32470D01*
X68469D01*
X50750Y9281D02*
X50550D01*
X50650D01*
Y8781D01*
X50550Y8681D01*
X50450D01*
X50350Y8781D01*
X50950Y9081D02*
Y8681D01*
Y8881D01*
X51050Y8981D01*
X51150Y9081D01*
X51250D01*
X51850Y8681D02*
X51650D01*
X51550Y8781D01*
Y8981D01*
X51650Y9081D01*
X51850D01*
X51949Y8981D01*
Y8881D01*
X51550D01*
X52149Y9081D02*
X52349Y8681D01*
X52549Y9081D01*
X66720Y24020D02*
X66520D01*
X66620D01*
Y23520D01*
X66520Y23420D01*
X66420D01*
X66320Y23520D01*
X67020Y23820D02*
X67220D01*
X67320Y23720D01*
Y23420D01*
X67020D01*
X66920Y23520D01*
X67020Y23620D01*
X67320D01*
X67520Y23420D02*
X67820D01*
X67919Y23520D01*
X67820Y23620D01*
X67620D01*
X67520Y23720D01*
X67620Y23820D01*
X67919D01*
X19610Y43480D02*
Y43880D01*
X19810Y44080D01*
X20010Y43880D01*
Y43480D01*
Y43780D01*
X19610D01*
X20210Y43480D02*
Y44080D01*
X20410Y43880D01*
X20610Y44080D01*
Y43480D01*
X21209Y43980D02*
X21110Y44080D01*
X20910D01*
X20810Y43980D01*
Y43880D01*
X20910Y43780D01*
X21110D01*
X21209Y43680D01*
Y43580D01*
X21110Y43480D01*
X20910D01*
X20810Y43580D01*
X21409Y43480D02*
X21609D01*
X21509D01*
Y44080D01*
X21409Y43980D01*
X6750Y24360D02*
Y23943D01*
X6833Y23860D01*
X7000D01*
X7083Y23943D01*
Y24360D01*
X7583Y23860D02*
X7250D01*
X7583Y24193D01*
Y24277D01*
X7500Y24360D01*
X7333D01*
X7250Y24277D01*
X7750Y23860D02*
Y24360D01*
X7916Y24193D01*
X8083Y24360D01*
Y23860D01*
X8250Y24360D02*
Y23860D01*
X8499D01*
X8583Y23943D01*
Y24027D01*
Y24110D01*
X8499Y24193D01*
X8250D01*
X40190Y26260D02*
Y26760D01*
X40440D01*
X40523Y26677D01*
Y26510D01*
X40440Y26427D01*
X40190D01*
X40357D02*
X40523Y26260D01*
X40690Y26760D02*
Y26260D01*
X41023D01*
X41523Y26760D02*
X41190D01*
Y26260D01*
X41523D01*
X41190Y26510D02*
X41356D01*
X41690Y26760D02*
Y26260D01*
X41939D01*
X42023Y26343D01*
Y26677D01*
X41939Y26760D01*
X41690D01*
X42560Y26420D02*
Y25920D01*
X42893D01*
X43393Y26420D02*
X43060D01*
Y25920D01*
X43393D01*
X43060Y26170D02*
X43226D01*
X43560Y26420D02*
Y25920D01*
X43810D01*
X43893Y26003D01*
Y26337D01*
X43810Y26420D01*
X43560D01*
X10530Y42850D02*
Y42433D01*
X10613Y42350D01*
X10780D01*
X10863Y42433D01*
Y42850D01*
X11030Y42350D02*
Y42683D01*
X11280D01*
X11363Y42600D01*
Y42350D01*
X11530D02*
X11696D01*
X11613D01*
Y42850D01*
X11530Y42767D01*
X33750Y52700D02*
Y52283D01*
X33833Y52200D01*
X34000D01*
X34083Y52283D01*
Y52700D01*
X34250Y52200D02*
X34416D01*
X34333D01*
Y52700D01*
X34250D01*
X34666Y52533D02*
Y52200D01*
Y52367D01*
X34750Y52450D01*
X34833Y52533D01*
X34916D01*
X15610Y21500D02*
Y21083D01*
X15693Y21000D01*
X15860D01*
X15943Y21083D01*
Y21500D01*
X16110Y21000D02*
X16276D01*
X16193D01*
Y21500D01*
X16110Y21417D01*
X16526Y21000D02*
Y21500D01*
X16693Y21333D01*
X16860Y21500D01*
Y21000D01*
X17026Y21500D02*
Y21000D01*
X17276D01*
X17359Y21083D01*
Y21167D01*
Y21250D01*
X17276Y21333D01*
X17026D01*
X23984Y29750D02*
X24317D01*
X24150D01*
Y29250D01*
X24483D02*
Y29583D01*
X24733D01*
X24817Y29500D01*
Y29250D01*
X25233D02*
Y29750D01*
X24983Y29500D01*
X25316D01*
X21490Y37790D02*
X21823D01*
X21657D01*
Y37290D01*
X21990D02*
Y37623D01*
X22240D01*
X22323Y37540D01*
Y37290D01*
X22490Y37707D02*
X22573Y37790D01*
X22740D01*
X22823Y37707D01*
Y37623D01*
X22740Y37540D01*
X22656D01*
X22740D01*
X22823Y37457D01*
Y37373D01*
X22740Y37290D01*
X22573D01*
X22490Y37373D01*
X12490Y32740D02*
X12823D01*
X12657D01*
Y32240D01*
X12990D02*
Y32573D01*
X13240D01*
X13323Y32490D01*
Y32240D01*
X13823D02*
X13490D01*
X13823Y32573D01*
Y32657D01*
X13740Y32740D01*
X13573D01*
X13490Y32657D01*
X23040Y46840D02*
X23373D01*
X23207D01*
Y46340D01*
X23540D02*
Y46673D01*
X23790D01*
X23873Y46590D01*
Y46340D01*
X24040D02*
X24206D01*
X24123D01*
Y46840D01*
X24040Y46757D01*
X45440Y29760D02*
Y30260D01*
X45690D01*
X45773Y30177D01*
Y30010D01*
X45690Y29927D01*
X45440D01*
X45607D02*
X45773Y29760D01*
X45940D02*
X46190D01*
X46273Y29843D01*
X46190Y29927D01*
X46023D01*
X45940Y30010D01*
X46023Y30093D01*
X46273D01*
X46773Y30260D02*
Y29760D01*
X46523D01*
X46440Y29843D01*
Y30010D01*
X46523Y30093D01*
X46773D01*
X47023D02*
X47189D01*
X47273Y30010D01*
Y29760D01*
X47023D01*
X46940Y29843D01*
X47023Y29927D01*
X47273D01*
X45390Y27810D02*
Y28310D01*
X45640D01*
X45723Y28227D01*
Y28060D01*
X45640Y27977D01*
X45390D01*
X45557D02*
X45723Y27810D01*
X45890D02*
X46140D01*
X46223Y27893D01*
X46140Y27977D01*
X45973D01*
X45890Y28060D01*
X45973Y28143D01*
X46223D01*
X46723D02*
X46473D01*
X46390Y28060D01*
Y27893D01*
X46473Y27810D01*
X46723D01*
X46890D02*
X47056D01*
X46973D01*
Y28310D01*
X46890D01*
X56440Y10410D02*
Y10910D01*
X56690D01*
X56773Y10827D01*
Y10660D01*
X56690Y10577D01*
X56440D01*
X56607D02*
X56773Y10410D01*
X56940Y10743D02*
Y10410D01*
Y10577D01*
X57023Y10660D01*
X57106Y10743D01*
X57190D01*
X57690Y10410D02*
X57523D01*
X57440Y10493D01*
Y10660D01*
X57523Y10743D01*
X57690D01*
X57773Y10660D01*
Y10577D01*
X57440D01*
X57940Y10743D02*
X58106Y10410D01*
X58273Y10743D01*
X62490Y10110D02*
Y10610D01*
X62740D01*
X62823Y10527D01*
Y10360D01*
X62740Y10277D01*
X62490D01*
X62657D02*
X62823Y10110D01*
X62990Y10443D02*
Y10110D01*
Y10277D01*
X63073Y10360D01*
X63156Y10443D01*
X63240D01*
X63740Y10110D02*
X63573D01*
X63490Y10193D01*
Y10360D01*
X63573Y10443D01*
X63740D01*
X63823Y10360D01*
Y10277D01*
X63490D01*
X64323Y10110D02*
X63990D01*
X64323Y10443D01*
Y10527D01*
X64239Y10610D01*
X64073D01*
X63990Y10527D01*
X60140Y10960D02*
Y11460D01*
X60390D01*
X60473Y11377D01*
Y11210D01*
X60390Y11127D01*
X60140D01*
X60307D02*
X60473Y10960D01*
X60640Y11293D02*
Y10960D01*
Y11127D01*
X60723Y11210D01*
X60806Y11293D01*
X60890D01*
X61390Y10960D02*
X61223D01*
X61140Y11043D01*
Y11210D01*
X61223Y11293D01*
X61390D01*
X61473Y11210D01*
Y11127D01*
X61140D01*
X61640Y10960D02*
X61806D01*
X61723D01*
Y11460D01*
X61640Y11377D01*
X8740Y39060D02*
Y39560D01*
X8990D01*
X9073Y39477D01*
Y39310D01*
X8990Y39227D01*
X8740D01*
X8907D02*
X9073Y39060D01*
X9240D02*
Y39393D01*
X9490D01*
X9573Y39310D01*
Y39060D01*
X10073Y39560D02*
X9740D01*
Y39310D01*
X9906Y39393D01*
X9990D01*
X10073Y39310D01*
Y39143D01*
X9990Y39060D01*
X9823D01*
X9740Y39143D01*
X6750Y42560D02*
Y43060D01*
X7000D01*
X7083Y42977D01*
Y42810D01*
X7000Y42727D01*
X6750D01*
X6917D02*
X7083Y42560D01*
X7250D02*
Y42893D01*
X7500D01*
X7583Y42810D01*
Y42560D01*
X8000D02*
Y43060D01*
X7750Y42810D01*
X8083D01*
X8640Y42510D02*
Y43010D01*
X8890D01*
X8973Y42927D01*
Y42760D01*
X8890Y42677D01*
X8640D01*
X8807D02*
X8973Y42510D01*
X9140D02*
Y42843D01*
X9390D01*
X9473Y42760D01*
Y42510D01*
X9640Y42927D02*
X9723Y43010D01*
X9890D01*
X9973Y42927D01*
Y42843D01*
X9890Y42760D01*
X9806D01*
X9890D01*
X9973Y42677D01*
Y42593D01*
X9890Y42510D01*
X9723D01*
X9640Y42593D01*
X15290Y38460D02*
Y38960D01*
X15540D01*
X15623Y38877D01*
Y38710D01*
X15540Y38627D01*
X15290D01*
X15457D02*
X15623Y38460D01*
X15790D02*
Y38793D01*
X16040D01*
X16123Y38710D01*
Y38460D01*
X16623D02*
X16290D01*
X16623Y38793D01*
Y38877D01*
X16540Y38960D01*
X16373D01*
X16290Y38877D01*
X10690Y39010D02*
Y39510D01*
X10940D01*
X11023Y39427D01*
Y39260D01*
X10940Y39177D01*
X10690D01*
X10857D02*
X11023Y39010D01*
X11190D02*
Y39343D01*
X11440D01*
X11523Y39260D01*
Y39010D01*
X11690D02*
X11856D01*
X11773D01*
Y39510D01*
X11690Y39427D01*
X17634Y25400D02*
Y25900D01*
X17884D01*
X17967Y25817D01*
Y25650D01*
X17884Y25567D01*
X17634D01*
X17800D02*
X17967Y25400D01*
X18134Y25900D02*
Y25400D01*
X18467D01*
X18633D02*
Y25733D01*
X18883D01*
X18967Y25650D01*
Y25400D01*
X19133D02*
Y25900D01*
X19300Y25733D01*
X19466Y25900D01*
Y25400D01*
X19633Y25900D02*
Y25400D01*
X19883D01*
X19966Y25483D01*
Y25567D01*
Y25650D01*
X19883Y25733D01*
X19633D01*
X26740Y49960D02*
Y50460D01*
X26990D01*
X27073Y50377D01*
Y50210D01*
X26990Y50127D01*
X26740D01*
X26907D02*
X27073Y49960D01*
X27240D02*
X27406D01*
X27323D01*
Y50460D01*
X27240D01*
X27656Y49960D02*
Y50293D01*
X27906D01*
X27990Y50210D01*
Y49960D01*
X28156Y50460D02*
Y49960D01*
X28489D01*
X28656Y50293D02*
Y49960D01*
Y50127D01*
X28739Y50210D01*
X28823Y50293D01*
X28906D01*
X24640Y38690D02*
Y39190D01*
X24890D01*
X24973Y39107D01*
Y38940D01*
X24890Y38857D01*
X24640D01*
X24807D02*
X24973Y38690D01*
X25140D02*
X25306D01*
X25223D01*
Y39190D01*
X25140D01*
X25556Y38690D02*
Y39023D01*
X25806D01*
X25890Y38940D01*
Y38690D01*
X26056Y38607D02*
X26389D01*
X26889Y39190D02*
X26556D01*
Y38940D01*
X26723Y39023D01*
X26806D01*
X26889Y38940D01*
Y38773D01*
X26806Y38690D01*
X26639D01*
X26556Y38773D01*
X27056Y39190D02*
Y38857D01*
X27222Y38690D01*
X27389Y38857D01*
Y39190D01*
X47530Y49450D02*
Y49950D01*
X47780D01*
X47863Y49867D01*
Y49700D01*
X47780Y49617D01*
X47530D01*
X47697D02*
X47863Y49450D01*
X48030Y49950D02*
Y49450D01*
X48363D01*
X48530Y49867D02*
X48613Y49950D01*
X48780D01*
X48863Y49867D01*
Y49783D01*
X48780Y49700D01*
X48696D01*
X48780D01*
X48863Y49617D01*
Y49533D01*
X48780Y49450D01*
X48613D01*
X48530Y49533D01*
X55410Y49580D02*
Y50080D01*
X55660D01*
X55743Y49997D01*
Y49830D01*
X55660Y49747D01*
X55410D01*
X55577D02*
X55743Y49580D01*
X55910Y50080D02*
Y49580D01*
X56243D01*
X56743D02*
X56410D01*
X56743Y49913D01*
Y49997D01*
X56660Y50080D01*
X56493D01*
X56410Y49997D01*
X63110Y49640D02*
Y50140D01*
X63360D01*
X63443Y50057D01*
Y49890D01*
X63360Y49807D01*
X63110D01*
X63277D02*
X63443Y49640D01*
X63610Y50140D02*
Y49640D01*
X63943D01*
X64110D02*
X64276D01*
X64193D01*
Y50140D01*
X64110Y50057D01*
X16940Y35310D02*
Y35810D01*
X17190D01*
X17273Y35727D01*
Y35560D01*
X17190Y35477D01*
X16940D01*
X17107D02*
X17273Y35310D01*
X17690D02*
X17523D01*
X17440Y35393D01*
Y35560D01*
X17523Y35643D01*
X17690D01*
X17773Y35560D01*
Y35477D01*
X17440D01*
X17940Y35310D02*
Y35643D01*
X18190D01*
X18273Y35560D01*
Y35310D01*
X18773D02*
X18440D01*
X18773Y35643D01*
Y35727D01*
X18689Y35810D01*
X18523D01*
X18440Y35727D01*
X20490Y34710D02*
Y35210D01*
X20740D01*
X20823Y35127D01*
Y34960D01*
X20740Y34877D01*
X20490D01*
X20657D02*
X20823Y34710D01*
X21240D02*
X21073D01*
X20990Y34793D01*
Y34960D01*
X21073Y35043D01*
X21240D01*
X21323Y34960D01*
Y34877D01*
X20990D01*
X21490Y34710D02*
Y35043D01*
X21740D01*
X21823Y34960D01*
Y34710D01*
X21990D02*
X22156D01*
X22073D01*
Y35210D01*
X21990Y35127D01*
X19334Y31500D02*
Y32000D01*
X19584D01*
X19667Y31917D01*
Y31750D01*
X19584Y31667D01*
X19334D01*
X19500D02*
X19667Y31500D01*
X20083D02*
X19917D01*
X19834Y31583D01*
Y31750D01*
X19917Y31833D01*
X20083D01*
X20167Y31750D01*
Y31667D01*
X19834D01*
X20667Y32000D02*
X20333D01*
Y31750D01*
X20500Y31833D01*
X20583D01*
X20667Y31750D01*
Y31583D01*
X20583Y31500D01*
X20417D01*
X20333Y31583D01*
X20833Y31500D02*
Y32000D01*
X21000Y31833D01*
X21166Y32000D01*
Y31500D01*
X21333Y32000D02*
Y31500D01*
X21583D01*
X21666Y31583D01*
Y31667D01*
Y31750D01*
X21583Y31833D01*
X21333D01*
X14234Y29750D02*
Y30250D01*
X14484D01*
X14567Y30167D01*
Y30000D01*
X14484Y29917D01*
X14234D01*
X14400D02*
X14567Y29750D01*
X14983D02*
X14817D01*
X14734Y29833D01*
Y30000D01*
X14817Y30083D01*
X14983D01*
X15067Y30000D01*
Y29917D01*
X14734D01*
X15483Y29750D02*
Y30250D01*
X15233Y30000D01*
X15567D01*
X15733Y29750D02*
Y30250D01*
X15900Y30083D01*
X16066Y30250D01*
Y29750D01*
X16233Y30250D02*
Y29750D01*
X16483D01*
X16566Y29833D01*
Y29917D01*
Y30000D01*
X16483Y30083D01*
X16233D01*
X16684Y31500D02*
Y32000D01*
X16934D01*
X17017Y31917D01*
Y31750D01*
X16934Y31667D01*
X16684D01*
X16850D02*
X17017Y31500D01*
X17433D02*
X17267D01*
X17184Y31583D01*
Y31750D01*
X17267Y31833D01*
X17433D01*
X17517Y31750D01*
Y31667D01*
X17184D01*
X17683Y31917D02*
X17767Y32000D01*
X17933D01*
X18017Y31917D01*
Y31833D01*
X17933Y31750D01*
X17850D01*
X17933D01*
X18017Y31667D01*
Y31583D01*
X17933Y31500D01*
X17767D01*
X17683Y31583D01*
X18183Y31500D02*
Y32000D01*
X18350Y31833D01*
X18516Y32000D01*
Y31500D01*
X18683Y32000D02*
Y31500D01*
X18933D01*
X19016Y31583D01*
Y31667D01*
Y31750D01*
X18933Y31833D01*
X18683D01*
X12340Y28810D02*
Y29310D01*
X12590D01*
X12673Y29227D01*
Y29060D01*
X12590Y28977D01*
X12340D01*
X12507D02*
X12673Y28810D01*
X13090D02*
X12923D01*
X12840Y28893D01*
Y29060D01*
X12923Y29143D01*
X13090D01*
X13173Y29060D01*
Y28977D01*
X12840D01*
X13673Y28810D02*
X13340D01*
X13673Y29143D01*
Y29227D01*
X13590Y29310D01*
X13423D01*
X13340Y29227D01*
X13840Y28810D02*
Y29310D01*
X14006Y29143D01*
X14173Y29310D01*
Y28810D01*
X14339Y29310D02*
Y28810D01*
X14589D01*
X14673Y28893D01*
Y28977D01*
Y29060D01*
X14589Y29143D01*
X14339D01*
X25940Y46860D02*
Y47360D01*
X26190D01*
X26273Y47277D01*
Y47110D01*
X26190Y47027D01*
X25940D01*
X26107D02*
X26273Y46860D01*
X26690D02*
X26523D01*
X26440Y46943D01*
Y47110D01*
X26523Y47193D01*
X26690D01*
X26773Y47110D01*
Y47027D01*
X26440D01*
X27273Y46860D02*
X26940D01*
X27273Y47193D01*
Y47277D01*
X27190Y47360D01*
X27023D01*
X26940Y47277D01*
X27440Y47360D02*
Y46860D01*
X27773D01*
X27939Y47193D02*
Y46860D01*
Y47027D01*
X28023Y47110D01*
X28106Y47193D01*
X28189D01*
X18175Y22600D02*
Y23100D01*
X18425D01*
X18509Y23017D01*
Y22850D01*
X18425Y22767D01*
X18175D01*
X18342D02*
X18509Y22600D01*
X18925D02*
X18759D01*
X18675Y22683D01*
Y22850D01*
X18759Y22933D01*
X18925D01*
X19008Y22850D01*
Y22767D01*
X18675D01*
X19175Y22600D02*
X19342D01*
X19258D01*
Y23100D01*
X19175Y23017D01*
X19592Y22600D02*
Y23100D01*
X19758Y22933D01*
X19925Y23100D01*
Y22600D01*
X20091Y23100D02*
Y22600D01*
X20341D01*
X20425Y22683D01*
Y22767D01*
Y22850D01*
X20341Y22933D01*
X20091D01*
X25840Y43660D02*
Y44160D01*
X26090D01*
X26173Y44077D01*
Y43910D01*
X26090Y43827D01*
X25840D01*
X26007D02*
X26173Y43660D01*
X26590D02*
X26423D01*
X26340Y43743D01*
Y43910D01*
X26423Y43993D01*
X26590D01*
X26673Y43910D01*
Y43827D01*
X26340D01*
X26840Y43660D02*
X27006D01*
X26923D01*
Y44160D01*
X26840Y44077D01*
X27256Y44160D02*
Y43660D01*
X27589D01*
X27756Y43993D02*
Y43660D01*
Y43827D01*
X27839Y43910D01*
X27923Y43993D01*
X28006D01*
X18634Y17400D02*
Y17900D01*
X18884D01*
X18967Y17817D01*
Y17650D01*
X18884Y17567D01*
X18634D01*
X18800D02*
X18967Y17400D01*
X19467Y17900D02*
X19300Y17817D01*
X19134Y17650D01*
Y17483D01*
X19217Y17400D01*
X19383D01*
X19467Y17483D01*
Y17567D01*
X19383Y17650D01*
X19134D01*
X19633Y17400D02*
Y17900D01*
X19800Y17733D01*
X19967Y17900D01*
Y17400D01*
X20133Y17900D02*
Y17400D01*
X20383D01*
X20466Y17483D01*
Y17567D01*
Y17650D01*
X20383Y17733D01*
X20133D01*
X20966Y17400D02*
X20633D01*
X20966Y17733D01*
Y17817D01*
X20883Y17900D01*
X20716D01*
X20633Y17817D01*
X21684Y17300D02*
Y17800D01*
X21934D01*
X22017Y17717D01*
Y17550D01*
X21934Y17467D01*
X21684D01*
X21850D02*
X22017Y17300D01*
X22517Y17800D02*
X22184D01*
Y17550D01*
X22350Y17633D01*
X22433D01*
X22517Y17550D01*
Y17383D01*
X22433Y17300D01*
X22267D01*
X22184Y17383D01*
X22683Y17300D02*
Y17800D01*
X22850Y17633D01*
X23017Y17800D01*
Y17300D01*
X23183Y17800D02*
Y17300D01*
X23433D01*
X23516Y17383D01*
Y17467D01*
Y17550D01*
X23433Y17633D01*
X23183D01*
X24016Y17300D02*
X23683D01*
X24016Y17633D01*
Y17717D01*
X23933Y17800D01*
X23766D01*
X23683Y17717D01*
X15734Y17400D02*
Y17900D01*
X15984D01*
X16067Y17817D01*
Y17650D01*
X15984Y17567D01*
X15734D01*
X15900D02*
X16067Y17400D01*
X16483D02*
Y17900D01*
X16234Y17650D01*
X16567D01*
X16733Y17400D02*
Y17900D01*
X16900Y17733D01*
X17067Y17900D01*
Y17400D01*
X17233Y17900D02*
Y17400D01*
X17483D01*
X17566Y17483D01*
Y17567D01*
Y17650D01*
X17483Y17733D01*
X17233D01*
X18066Y17400D02*
X17733D01*
X18066Y17733D01*
Y17817D01*
X17983Y17900D01*
X17816D01*
X17733Y17817D01*
X48775Y40400D02*
Y40900D01*
X49025D01*
X49109Y40817D01*
Y40650D01*
X49025Y40567D01*
X48775D01*
X48942D02*
X49109Y40400D01*
X49275Y40817D02*
X49359Y40900D01*
X49525D01*
X49608Y40817D01*
Y40733D01*
X49525Y40650D01*
X49442D01*
X49525D01*
X49608Y40567D01*
Y40483D01*
X49525Y40400D01*
X49359D01*
X49275Y40483D01*
X49775Y40733D02*
Y40400D01*
Y40567D01*
X49858Y40650D01*
X49942Y40733D01*
X50025D01*
X50275Y40400D02*
X50441D01*
X50358D01*
Y40900D01*
X50275D01*
X50691Y40817D02*
X50775Y40900D01*
X50941D01*
X51025Y40817D01*
Y40733D01*
X50941Y40650D01*
X50858D01*
X50941D01*
X51025Y40567D01*
Y40483D01*
X50941Y40400D01*
X50775D01*
X50691Y40483D01*
X56340Y37760D02*
Y38260D01*
X56590D01*
X56673Y38177D01*
Y38010D01*
X56590Y37927D01*
X56340D01*
X56507D02*
X56673Y37760D01*
X56840Y38177D02*
X56923Y38260D01*
X57090D01*
X57173Y38177D01*
Y38093D01*
X57090Y38010D01*
X57006D01*
X57090D01*
X57173Y37927D01*
Y37843D01*
X57090Y37760D01*
X56923D01*
X56840Y37843D01*
X57340Y38093D02*
Y37760D01*
Y37927D01*
X57423Y38010D01*
X57506Y38093D01*
X57590D01*
X57840Y37760D02*
X58006D01*
X57923D01*
Y38260D01*
X57840D01*
X58589Y37760D02*
X58256D01*
X58589Y38093D01*
Y38177D01*
X58506Y38260D01*
X58339D01*
X58256Y38177D01*
X64759Y40800D02*
Y41300D01*
X65009D01*
X65092Y41217D01*
Y41050D01*
X65009Y40967D01*
X64759D01*
X64925D02*
X65092Y40800D01*
X65259Y41217D02*
X65342Y41300D01*
X65508D01*
X65592Y41217D01*
Y41133D01*
X65508Y41050D01*
X65425D01*
X65508D01*
X65592Y40967D01*
Y40883D01*
X65508Y40800D01*
X65342D01*
X65259Y40883D01*
X65758Y41133D02*
Y40800D01*
Y40967D01*
X65842Y41050D01*
X65925Y41133D01*
X66008D01*
X66258Y40800D02*
X66425D01*
X66341D01*
Y41300D01*
X66258D01*
X66675Y40800D02*
X66841D01*
X66758D01*
Y41300D01*
X66675Y41217D01*
X11140Y25960D02*
Y26460D01*
X11390D01*
X11473Y26377D01*
Y26210D01*
X11390Y26127D01*
X11140D01*
X11307D02*
X11473Y25960D01*
X11640Y26377D02*
X11723Y26460D01*
X11890D01*
X11973Y26377D01*
Y26293D01*
X11890Y26210D01*
X11806D01*
X11890D01*
X11973Y26127D01*
Y26043D01*
X11890Y25960D01*
X11723D01*
X11640Y26043D01*
X12140Y25960D02*
Y26460D01*
X12306Y26293D01*
X12473Y26460D01*
Y25960D01*
X12640Y26460D02*
Y25960D01*
X12889D01*
X12973Y26043D01*
Y26127D01*
Y26210D01*
X12889Y26293D01*
X12640D01*
X13473Y25960D02*
X13139D01*
X13473Y26293D01*
Y26377D01*
X13389Y26460D01*
X13223D01*
X13139Y26377D01*
X46775Y39750D02*
Y40250D01*
X47025D01*
X47109Y40167D01*
Y40000D01*
X47025Y39917D01*
X46775D01*
X46942D02*
X47109Y39750D01*
X47608D02*
X47275D01*
X47608Y40083D01*
Y40167D01*
X47525Y40250D01*
X47359D01*
X47275Y40167D01*
X47775Y40083D02*
Y39750D01*
Y39917D01*
X47858Y40000D01*
X47942Y40083D01*
X48025D01*
X48275Y39750D02*
X48441D01*
X48358D01*
Y40250D01*
X48275D01*
X48691Y40167D02*
X48775Y40250D01*
X48941D01*
X49025Y40167D01*
Y40083D01*
X48941Y40000D01*
X48858D01*
X48941D01*
X49025Y39917D01*
Y39833D01*
X48941Y39750D01*
X48775D01*
X48691Y39833D01*
X56890Y40660D02*
Y41160D01*
X57140D01*
X57223Y41077D01*
Y40910D01*
X57140Y40827D01*
X56890D01*
X57057D02*
X57223Y40660D01*
X57723D02*
X57390D01*
X57723Y40993D01*
Y41077D01*
X57640Y41160D01*
X57473D01*
X57390Y41077D01*
X57890Y40993D02*
Y40660D01*
Y40827D01*
X57973Y40910D01*
X58056Y40993D01*
X58140D01*
X58390Y40660D02*
X58556D01*
X58473D01*
Y41160D01*
X58390D01*
X59139Y40660D02*
X58806D01*
X59139Y40993D01*
Y41077D01*
X59056Y41160D01*
X58889D01*
X58806Y41077D01*
X61290Y34060D02*
Y34560D01*
X61540D01*
X61623Y34477D01*
Y34310D01*
X61540Y34227D01*
X61290D01*
X61457D02*
X61623Y34060D01*
X62123D02*
X61790D01*
X62123Y34393D01*
Y34477D01*
X62040Y34560D01*
X61873D01*
X61790Y34477D01*
X62290Y34393D02*
Y34060D01*
Y34227D01*
X62373Y34310D01*
X62456Y34393D01*
X62540D01*
X62790Y34060D02*
X62956D01*
X62873D01*
Y34560D01*
X62790D01*
X63206Y34060D02*
X63373D01*
X63289D01*
Y34560D01*
X63206Y34477D01*
X8240Y25760D02*
Y26260D01*
X8490D01*
X8573Y26177D01*
Y26010D01*
X8490Y25927D01*
X8240D01*
X8407D02*
X8573Y25760D01*
X9073D02*
X8740D01*
X9073Y26093D01*
Y26177D01*
X8990Y26260D01*
X8823D01*
X8740Y26177D01*
X9240Y25760D02*
Y26260D01*
X9406Y26093D01*
X9573Y26260D01*
Y25760D01*
X9740Y26260D02*
Y25760D01*
X9989D01*
X10073Y25843D01*
Y25927D01*
Y26010D01*
X9989Y26093D01*
X9740D01*
X10573Y25760D02*
X10239D01*
X10573Y26093D01*
Y26177D01*
X10489Y26260D01*
X10323D01*
X10239Y26177D01*
X46390Y33160D02*
Y33660D01*
X46640D01*
X46723Y33577D01*
Y33410D01*
X46640Y33327D01*
X46390D01*
X46557D02*
X46723Y33160D01*
X46890D02*
X47056D01*
X46973D01*
Y33660D01*
X46890Y33577D01*
X47306Y33493D02*
Y33160D01*
Y33327D01*
X47390Y33410D01*
X47473Y33493D01*
X47556D01*
X47806Y33160D02*
X47973D01*
X47890D01*
Y33660D01*
X47806D01*
X48223Y33577D02*
X48306Y33660D01*
X48473D01*
X48556Y33577D01*
Y33493D01*
X48473Y33410D01*
X48389D01*
X48473D01*
X48556Y33327D01*
Y33243D01*
X48473Y33160D01*
X48306D01*
X48223Y33243D01*
X56590Y32360D02*
Y32860D01*
X56840D01*
X56923Y32777D01*
Y32610D01*
X56840Y32527D01*
X56590D01*
X56757D02*
X56923Y32360D01*
X57090D02*
X57256D01*
X57173D01*
Y32860D01*
X57090Y32777D01*
X57506Y32693D02*
Y32360D01*
Y32527D01*
X57590Y32610D01*
X57673Y32693D01*
X57756D01*
X58006Y32360D02*
X58173D01*
X58090D01*
Y32860D01*
X58006D01*
X58756Y32360D02*
X58423D01*
X58756Y32693D01*
Y32777D01*
X58673Y32860D01*
X58506D01*
X58423Y32777D01*
X60340Y31160D02*
Y31660D01*
X60590D01*
X60673Y31577D01*
Y31410D01*
X60590Y31327D01*
X60340D01*
X60507D02*
X60673Y31160D01*
X60840D02*
X61006D01*
X60923D01*
Y31660D01*
X60840Y31577D01*
X61256Y31493D02*
Y31160D01*
Y31327D01*
X61340Y31410D01*
X61423Y31493D01*
X61506D01*
X61756Y31160D02*
X61923D01*
X61840D01*
Y31660D01*
X61756D01*
X62173Y31160D02*
X62339D01*
X62256D01*
Y31660D01*
X62173Y31577D01*
X12690Y23560D02*
Y24060D01*
X12940D01*
X13023Y23977D01*
Y23810D01*
X12940Y23727D01*
X12690D01*
X12857D02*
X13023Y23560D01*
X13190D02*
X13356D01*
X13273D01*
Y24060D01*
X13190Y23977D01*
X13606Y23560D02*
Y24060D01*
X13773Y23893D01*
X13940Y24060D01*
Y23560D01*
X14106Y24060D02*
Y23560D01*
X14356D01*
X14439Y23643D01*
Y23727D01*
Y23810D01*
X14356Y23893D01*
X14106D01*
X14939Y23560D02*
X14606D01*
X14939Y23893D01*
Y23977D01*
X14856Y24060D01*
X14689D01*
X14606Y23977D01*
X13050Y9650D02*
Y10150D01*
X13300D01*
X13383Y10067D01*
Y9900D01*
X13300Y9817D01*
X13050D01*
X13633Y10067D02*
Y9983D01*
X13550D01*
X13716D01*
X13633D01*
Y9733D01*
X13716Y9650D01*
X13966Y9983D02*
Y9650D01*
Y9817D01*
X14050Y9900D01*
X14133Y9983D01*
X14216D01*
X14466Y9650D02*
X14633D01*
X14550D01*
Y10150D01*
X14466Y10067D01*
X45825Y51700D02*
Y52200D01*
X46075D01*
X46159Y52117D01*
Y51950D01*
X46075Y51867D01*
X45825D01*
X46325Y52033D02*
Y51700D01*
Y51867D01*
X46408Y51950D01*
X46492Y52033D01*
X46575D01*
X46825Y51700D02*
X46992D01*
X46908D01*
Y52200D01*
X46825D01*
X47241Y52117D02*
X47325Y52200D01*
X47491D01*
X47575Y52117D01*
Y52033D01*
X47491Y51950D01*
X47408D01*
X47491D01*
X47575Y51867D01*
Y51783D01*
X47491Y51700D01*
X47325D01*
X47241Y51783D01*
X53375Y51500D02*
Y52000D01*
X53625D01*
X53709Y51917D01*
Y51750D01*
X53625Y51667D01*
X53375D01*
X53875Y51833D02*
Y51500D01*
Y51667D01*
X53958Y51750D01*
X54042Y51833D01*
X54125D01*
X54375Y51500D02*
X54542D01*
X54458D01*
Y52000D01*
X54375D01*
X55125Y51500D02*
X54791D01*
X55125Y51833D01*
Y51917D01*
X55041Y52000D01*
X54875D01*
X54791Y51917D01*
X61759Y51150D02*
Y51650D01*
X62009D01*
X62092Y51567D01*
Y51400D01*
X62009Y51317D01*
X61759D01*
X62258Y51483D02*
Y51150D01*
Y51317D01*
X62342Y51400D01*
X62425Y51483D01*
X62508D01*
X62758Y51150D02*
X62925D01*
X62842D01*
Y51650D01*
X62758D01*
X63175Y51150D02*
X63341D01*
X63258D01*
Y51650D01*
X63175Y51567D01*
X42160Y33540D02*
Y34040D01*
X42410D01*
X42493Y33957D01*
Y33790D01*
X42410Y33707D01*
X42160D01*
X42910Y33540D02*
Y34040D01*
X42660Y33790D01*
X42993D01*
X29510Y28190D02*
Y28690D01*
X29760D01*
X29843Y28607D01*
Y28440D01*
X29760Y28357D01*
X29510D01*
X30343Y28190D02*
X30010D01*
X30343Y28523D01*
Y28607D01*
X30260Y28690D01*
X30093D01*
X30010Y28607D01*
X29610Y39590D02*
Y40090D01*
X29860D01*
X29943Y40007D01*
Y39840D01*
X29860Y39757D01*
X29610D01*
X30110Y39590D02*
X30276D01*
X30193D01*
Y40090D01*
X30110Y40007D01*
X68230Y8170D02*
Y7670D01*
X68563D01*
X68813Y8087D02*
Y8003D01*
X68730D01*
X68896D01*
X68813D01*
Y7753D01*
X68896Y7670D01*
X69146Y8003D02*
Y7670D01*
Y7837D01*
X69230Y7920D01*
X69313Y8003D01*
X69396D01*
X69646Y8087D02*
X69730Y8170D01*
X69896D01*
X69979Y8087D01*
Y8003D01*
X69896Y7920D01*
X69813D01*
X69896D01*
X69979Y7837D01*
Y7753D01*
X69896Y7670D01*
X69730D01*
X69646Y7753D01*
X65990Y8170D02*
Y7670D01*
X66323D01*
X66573Y8087D02*
Y8003D01*
X66490D01*
X66656D01*
X66573D01*
Y7753D01*
X66656Y7670D01*
X66906Y8003D02*
Y7670D01*
Y7837D01*
X66990Y7920D01*
X67073Y8003D01*
X67156D01*
X67739Y7670D02*
X67406D01*
X67739Y8003D01*
Y8087D01*
X67656Y8170D01*
X67490D01*
X67406Y8087D01*
X64130Y8175D02*
Y7675D01*
X64463D01*
X64713Y8091D02*
Y8008D01*
X64630D01*
X64796D01*
X64713D01*
Y7758D01*
X64796Y7675D01*
X65046Y8008D02*
Y7675D01*
Y7841D01*
X65130Y7925D01*
X65213Y8008D01*
X65296D01*
X65546Y7675D02*
X65713D01*
X65630D01*
Y8175D01*
X65546Y8091D01*
X14834Y26400D02*
Y25900D01*
X15167D01*
X15333D02*
Y26233D01*
X15583D01*
X15667Y26150D01*
Y25900D01*
X15833D02*
Y26400D01*
X16000Y26233D01*
X16167Y26400D01*
Y25900D01*
X16333Y26400D02*
Y25900D01*
X16583D01*
X16666Y25983D01*
Y26067D01*
Y26150D01*
X16583Y26233D01*
X16333D01*
X24010Y49870D02*
Y49370D01*
X24343D01*
X24510D02*
Y49703D01*
X24760D01*
X24843Y49620D01*
Y49370D01*
X25010Y49870D02*
Y49370D01*
X25343D01*
X25510Y49703D02*
Y49370D01*
Y49537D01*
X25593Y49620D01*
X25676Y49703D01*
X25759D01*
X27060Y39000D02*
Y38500D01*
X27393D01*
X27560D02*
Y38833D01*
X27810D01*
X27893Y38750D01*
Y38500D01*
X28060Y38417D02*
X28393D01*
X28893Y39000D02*
X28560D01*
Y38750D01*
X28726Y38833D01*
X28809D01*
X28893Y38750D01*
Y38583D01*
X28809Y38500D01*
X28643D01*
X28560Y38583D01*
X29059Y39000D02*
Y38667D01*
X29226Y38500D01*
X29393Y38667D01*
Y39000D01*
X13360Y43100D02*
Y42600D01*
X13693D01*
X13860D02*
Y42933D01*
X14110D01*
X14193Y42850D01*
Y42600D01*
X14360D02*
X14526D01*
X14443D01*
Y43100D01*
X14360Y43017D01*
X16600Y51050D02*
Y50550D01*
X16933D01*
X17100Y51050D02*
Y50550D01*
X17350D01*
X17433Y50633D01*
Y50717D01*
Y50800D01*
X17350Y50883D01*
X17100D01*
X17600D02*
X17766Y50550D01*
X17933Y50883D01*
X18100Y50550D02*
X18266D01*
X18183D01*
Y51050D01*
X18100Y50967D01*
X56303Y8798D02*
X56137D01*
X56220D01*
Y8382D01*
X56137Y8299D01*
X56053D01*
X55970Y8382D01*
X56470Y8632D02*
Y8299D01*
Y8465D01*
X56553Y8549D01*
X56636Y8632D01*
X56720D01*
X57220Y8299D02*
X57053D01*
X56970Y8382D01*
Y8549D01*
X57053Y8632D01*
X57220D01*
X57303Y8549D01*
Y8465D01*
X56970D01*
X11767Y54250D02*
X11600D01*
X11683D01*
Y53833D01*
X11600Y53750D01*
X11517D01*
X11433Y53833D01*
X11933Y53750D02*
Y54083D01*
X12183D01*
X12267Y54000D01*
Y53750D01*
X42225Y24250D02*
Y23750D01*
Y24000D01*
X42559D01*
Y24250D01*
Y23750D01*
X42808Y24167D02*
Y24083D01*
X42725D01*
X42892D01*
X42808D01*
Y23833D01*
X42892Y23750D01*
X43475Y24250D02*
Y23750D01*
X43225D01*
X43142Y23833D01*
Y24000D01*
X43225Y24083D01*
X43475D01*
X43641Y23750D02*
X43891D01*
X43975Y23833D01*
X43891Y23917D01*
X43725D01*
X43641Y24000D01*
X43725Y24083D01*
X43975D01*
X26750Y24900D02*
Y24400D01*
Y24650D01*
X27083D01*
Y24900D01*
Y24400D01*
X27250Y24233D02*
Y24733D01*
X27500D01*
X27583Y24650D01*
Y24483D01*
X27500Y24400D01*
X27250D01*
X27750Y24900D02*
Y24400D01*
Y24650D01*
X27833Y24733D01*
X28000D01*
X28083Y24650D01*
Y24400D01*
X9873Y49820D02*
X9540D01*
Y49570D01*
X9707D01*
X9540D01*
Y49320D01*
X10040Y49820D02*
Y49320D01*
X10290D01*
X10373Y49403D01*
Y49487D01*
Y49570D01*
X10290Y49653D01*
X10040D01*
X10540D02*
X10706Y49320D01*
X10873Y49653D01*
X10140Y37060D02*
Y36560D01*
X10390D01*
X10473Y36643D01*
Y36977D01*
X10390Y37060D01*
X10140D01*
X10640Y36560D02*
Y36893D01*
X10890D01*
X10973Y36810D01*
Y36560D01*
X25740Y17960D02*
Y17460D01*
X25990D01*
X26073Y17543D01*
Y17877D01*
X25990Y17960D01*
X25740D01*
X26240Y17460D02*
Y17793D01*
X26490D01*
X26573Y17710D01*
Y17460D01*
X26740D02*
X26906D01*
X26823D01*
Y17960D01*
X26740Y17877D01*
X7140Y49260D02*
Y48760D01*
X7390D01*
X7473Y48843D01*
Y49177D01*
X7390Y49260D01*
X7140D01*
X7640D02*
Y48760D01*
X7890D01*
X7973Y48843D01*
Y48927D01*
Y49010D01*
X7890Y49093D01*
X7640D01*
X8140D02*
X8306Y48760D01*
X8473Y49093D01*
X8973Y48760D02*
X8640D01*
X8973Y49093D01*
Y49177D01*
X8889Y49260D01*
X8723D01*
X8640Y49177D01*
X12500Y49520D02*
Y49020D01*
X12750D01*
X12833Y49103D01*
Y49437D01*
X12750Y49520D01*
X12500D01*
X13000D02*
Y49020D01*
X13250D01*
X13333Y49103D01*
Y49187D01*
Y49270D01*
X13250Y49353D01*
X13000D01*
X13500D02*
X13666Y49020D01*
X13833Y49353D01*
X14000Y49020D02*
X14166D01*
X14083D01*
Y49520D01*
X14000Y49437D01*
X51950Y40760D02*
Y40260D01*
X52200D01*
X52283Y40343D01*
Y40677D01*
X52200Y40760D01*
X51950D01*
X52450Y40677D02*
X52533Y40760D01*
X52700D01*
X52783Y40677D01*
Y40593D01*
X52700Y40510D01*
X52616D01*
X52700D01*
X52783Y40427D01*
Y40343D01*
X52700Y40260D01*
X52533D01*
X52450Y40343D01*
X52950Y40593D02*
Y40260D01*
Y40427D01*
X53033Y40510D01*
X53116Y40593D01*
X53200D01*
X53450Y40260D02*
X53616D01*
X53533D01*
Y40760D01*
X53450D01*
X53866Y40677D02*
X53949Y40760D01*
X54116D01*
X54199Y40677D01*
Y40593D01*
X54116Y40510D01*
X54033D01*
X54116D01*
X54199Y40427D01*
Y40343D01*
X54116Y40260D01*
X53949D01*
X53866Y40343D01*
X59175Y41350D02*
Y40850D01*
X59425D01*
X59509Y40933D01*
Y41267D01*
X59425Y41350D01*
X59175D01*
X59675Y41267D02*
X59759Y41350D01*
X59925D01*
X60008Y41267D01*
Y41183D01*
X59925Y41100D01*
X59842D01*
X59925D01*
X60008Y41017D01*
Y40933D01*
X59925Y40850D01*
X59759D01*
X59675Y40933D01*
X60175Y41183D02*
Y40850D01*
Y41017D01*
X60258Y41100D01*
X60342Y41183D01*
X60425D01*
X60675Y40850D02*
X60841D01*
X60758D01*
Y41350D01*
X60675D01*
X61425Y40850D02*
X61091D01*
X61425Y41183D01*
Y41267D01*
X61341Y41350D01*
X61175D01*
X61091Y41267D01*
X61959Y41450D02*
Y40950D01*
X62209D01*
X62292Y41033D01*
Y41367D01*
X62209Y41450D01*
X61959D01*
X62459Y41367D02*
X62542Y41450D01*
X62708D01*
X62792Y41367D01*
Y41283D01*
X62708Y41200D01*
X62625D01*
X62708D01*
X62792Y41117D01*
Y41033D01*
X62708Y40950D01*
X62542D01*
X62459Y41033D01*
X62958Y41283D02*
Y40950D01*
Y41117D01*
X63042Y41200D01*
X63125Y41283D01*
X63208D01*
X63458Y40950D02*
X63625D01*
X63541D01*
Y41450D01*
X63458D01*
X63875Y40950D02*
X64041D01*
X63958D01*
Y41450D01*
X63875Y41367D01*
X48525Y36700D02*
Y36200D01*
X48775D01*
X48859Y36283D01*
Y36617D01*
X48775Y36700D01*
X48525D01*
X49358Y36200D02*
X49025D01*
X49358Y36533D01*
Y36617D01*
X49275Y36700D01*
X49109D01*
X49025Y36617D01*
X49525Y36533D02*
Y36200D01*
Y36367D01*
X49608Y36450D01*
X49692Y36533D01*
X49775D01*
X50025Y36200D02*
X50191D01*
X50108D01*
Y36700D01*
X50025D01*
X50441Y36617D02*
X50525Y36700D01*
X50691D01*
X50775Y36617D01*
Y36533D01*
X50691Y36450D01*
X50608D01*
X50691D01*
X50775Y36367D01*
Y36283D01*
X50691Y36200D01*
X50525D01*
X50441Y36283D01*
X54600Y35460D02*
Y34960D01*
X54850D01*
X54933Y35043D01*
Y35377D01*
X54850Y35460D01*
X54600D01*
X55433Y34960D02*
X55100D01*
X55433Y35293D01*
Y35377D01*
X55350Y35460D01*
X55183D01*
X55100Y35377D01*
X55600Y35293D02*
Y34960D01*
Y35127D01*
X55683Y35210D01*
X55766Y35293D01*
X55850D01*
X56100Y34960D02*
X56266D01*
X56183D01*
Y35460D01*
X56100D01*
X56849Y34960D02*
X56516D01*
X56849Y35293D01*
Y35377D01*
X56766Y35460D01*
X56599D01*
X56516Y35377D01*
X66920Y38310D02*
Y37810D01*
X67170D01*
X67253Y37893D01*
Y38227D01*
X67170Y38310D01*
X66920D01*
X67753Y37810D02*
X67420D01*
X67753Y38143D01*
Y38227D01*
X67670Y38310D01*
X67503D01*
X67420Y38227D01*
X67920Y38143D02*
Y37810D01*
Y37977D01*
X68003Y38060D01*
X68086Y38143D01*
X68170D01*
X68420Y37810D02*
X68586D01*
X68503D01*
Y38310D01*
X68420D01*
X68836Y37810D02*
X69003D01*
X68919D01*
Y38310D01*
X68836Y38227D01*
X45367Y36750D02*
Y36250D01*
X45617D01*
X45700Y36333D01*
Y36667D01*
X45617Y36750D01*
X45367D01*
X45867Y36250D02*
X46033D01*
X45950D01*
Y36750D01*
X45867Y36667D01*
X46283Y36583D02*
Y36250D01*
Y36417D01*
X46367Y36500D01*
X46450Y36583D01*
X46533D01*
X46783Y36250D02*
X46950D01*
X46867D01*
Y36750D01*
X46783D01*
X47200Y36667D02*
X47283Y36750D01*
X47450D01*
X47533Y36667D01*
Y36583D01*
X47450Y36500D01*
X47366D01*
X47450D01*
X47533Y36417D01*
Y36333D01*
X47450Y36250D01*
X47283D01*
X47200Y36333D01*
X54340Y39370D02*
Y38870D01*
X54590D01*
X54673Y38953D01*
Y39287D01*
X54590Y39370D01*
X54340D01*
X54840Y38870D02*
X55006D01*
X54923D01*
Y39370D01*
X54840Y39287D01*
X55256Y39203D02*
Y38870D01*
Y39037D01*
X55340Y39120D01*
X55423Y39203D01*
X55506D01*
X55756Y38870D02*
X55923D01*
X55840D01*
Y39370D01*
X55756D01*
X56506Y38870D02*
X56173D01*
X56506Y39203D01*
Y39287D01*
X56423Y39370D01*
X56256D01*
X56173Y39287D01*
X64170Y38560D02*
Y38060D01*
X64420D01*
X64503Y38143D01*
Y38477D01*
X64420Y38560D01*
X64170D01*
X64670Y38060D02*
X64836D01*
X64753D01*
Y38560D01*
X64670Y38477D01*
X65086Y38393D02*
Y38060D01*
Y38227D01*
X65170Y38310D01*
X65253Y38393D01*
X65336D01*
X65586Y38060D02*
X65753D01*
X65670D01*
Y38560D01*
X65586D01*
X66003Y38060D02*
X66169D01*
X66086D01*
Y38560D01*
X66003Y38477D01*
X63823Y15857D02*
X63740Y15940D01*
X63573D01*
X63490Y15857D01*
Y15523D01*
X63573Y15440D01*
X63740D01*
X63823Y15523D01*
X63990Y15440D02*
Y15773D01*
X64240D01*
X64323Y15690D01*
Y15440D01*
X64490Y15940D02*
X64823D01*
X64656D01*
Y15440D01*
X64990Y15773D02*
Y15440D01*
Y15607D01*
X65073Y15690D01*
X65156Y15773D01*
X65239D01*
X38517Y23967D02*
X38434Y24050D01*
X38267D01*
X38184Y23967D01*
Y23633D01*
X38267Y23550D01*
X38434D01*
X38517Y23633D01*
X38684Y23550D02*
Y23883D01*
X38933D01*
X39017Y23800D01*
Y23550D01*
X39183Y24050D02*
X39517D01*
X39350D01*
Y23550D01*
X39683Y24050D02*
Y23550D01*
X39933D01*
X40016Y23633D01*
Y23967D01*
X39933Y24050D01*
X39683D01*
X40516Y23967D02*
X40433Y24050D01*
X40266D01*
X40183Y23967D01*
Y23883D01*
X40266Y23800D01*
X40433D01*
X40516Y23717D01*
Y23633D01*
X40433Y23550D01*
X40266D01*
X40183Y23633D01*
X67867Y29217D02*
X67784Y29300D01*
X67617D01*
X67534Y29217D01*
Y28883D01*
X67617Y28800D01*
X67784D01*
X67867Y28883D01*
X68034Y28800D02*
Y29133D01*
X68283D01*
X68367Y29050D01*
Y28800D01*
X68867Y29217D02*
X68783Y29300D01*
X68617D01*
X68533Y29217D01*
Y29133D01*
X68617Y29050D01*
X68783D01*
X68867Y28967D01*
Y28883D01*
X68783Y28800D01*
X68617D01*
X68533Y28883D01*
X69366Y29217D02*
X69283Y29300D01*
X69117D01*
X69033Y29217D01*
Y28883D01*
X69117Y28800D01*
X69283D01*
X69366Y28883D01*
X69533Y29300D02*
Y28800D01*
X69783D01*
X69866Y28883D01*
Y29217D01*
X69783Y29300D01*
X69533D01*
X44993Y40047D02*
X44910Y40130D01*
X44743D01*
X44660Y40047D01*
Y39713D01*
X44743Y39630D01*
X44910D01*
X44993Y39713D01*
X45160Y39630D02*
Y39963D01*
X45410D01*
X45493Y39880D01*
Y39630D01*
X45660D02*
Y40130D01*
X45910D01*
X45993Y40047D01*
Y39880D01*
X45910Y39797D01*
X45660D01*
X45826D02*
X45993Y39630D01*
X46160D02*
X46326D01*
X46243D01*
Y40130D01*
X46160D01*
X58867Y8467D02*
X58784Y8550D01*
X58617D01*
X58534Y8467D01*
Y8133D01*
X58617Y8050D01*
X58784D01*
X58867Y8133D01*
X59033Y8050D02*
Y8383D01*
X59283D01*
X59367Y8300D01*
Y8050D01*
X59533D02*
Y8550D01*
X59783D01*
X59867Y8467D01*
Y8300D01*
X59783Y8217D01*
X59533D01*
X59700D02*
X59867Y8050D01*
X60283D02*
X60116D01*
X60033Y8133D01*
Y8300D01*
X60116Y8383D01*
X60283D01*
X60366Y8300D01*
Y8217D01*
X60033D01*
X29217Y25867D02*
X29134Y25950D01*
X28967D01*
X28884Y25867D01*
Y25533D01*
X28967Y25450D01*
X29134D01*
X29217Y25533D01*
X29383Y25450D02*
Y25783D01*
X29633D01*
X29717Y25700D01*
Y25450D01*
X29883D02*
Y25950D01*
X30133D01*
X30217Y25867D01*
Y25700D01*
X30133Y25617D01*
X29883D01*
X30383Y25950D02*
Y25450D01*
Y25700D01*
X30716D01*
Y25950D01*
Y25450D01*
X28243Y17707D02*
X28160Y17790D01*
X27993D01*
X27910Y17707D01*
Y17373D01*
X27993Y17290D01*
X28160D01*
X28243Y17373D01*
X28410Y17290D02*
Y17623D01*
X28660D01*
X28743Y17540D01*
Y17290D01*
X28910D02*
Y17790D01*
X29076Y17623D01*
X29243Y17790D01*
Y17290D01*
X29410Y17790D02*
Y17290D01*
X29659D01*
X29743Y17373D01*
Y17457D01*
Y17540D01*
X29659Y17623D01*
X29410D01*
X19150Y21217D02*
X19067Y21300D01*
X18900D01*
X18817Y21217D01*
Y20883D01*
X18900Y20800D01*
X19067D01*
X19150Y20883D01*
X19317Y20800D02*
Y21133D01*
X19567D01*
X19650Y21050D01*
Y20800D01*
X19817D02*
Y21300D01*
X19983Y21133D01*
X20150Y21300D01*
Y20800D01*
X20317Y21300D02*
Y20800D01*
X20566D01*
X20650Y20883D01*
Y20967D01*
Y21050D01*
X20566Y21133D01*
X20317D01*
X20816Y20800D02*
X20983D01*
X20900D01*
Y21300D01*
X20816Y21217D01*
X30943Y52047D02*
X30860Y52130D01*
X30693D01*
X30610Y52047D01*
Y51713D01*
X30693Y51630D01*
X30860D01*
X30943Y51713D01*
X31110Y51630D02*
Y51963D01*
X31360D01*
X31443Y51880D01*
Y51630D01*
X31610Y52130D02*
Y51630D01*
X31943D01*
X32110Y51963D02*
Y51630D01*
Y51797D01*
X32193Y51880D01*
X32276Y51963D01*
X32359D01*
X68168Y20142D02*
X68085Y20226D01*
X67918D01*
X67835Y20142D01*
Y19809D01*
X67918Y19726D01*
X68085D01*
X68168Y19809D01*
X68335Y19726D02*
Y20059D01*
X68585D01*
X68668Y19976D01*
Y19726D01*
X68835D02*
Y20059D01*
X69001Y20226D01*
X69168Y20059D01*
Y19726D01*
Y19976D01*
X68835D01*
X69334Y19726D02*
X69584D01*
X69668Y19809D01*
X69584Y19892D01*
X69418D01*
X69334Y19976D01*
X69418Y20059D01*
X69668D01*
X23643Y33827D02*
X23560Y33910D01*
X23393D01*
X23310Y33827D01*
Y33493D01*
X23393Y33410D01*
X23560D01*
X23643Y33493D01*
X23810Y33410D02*
Y33743D01*
X24060D01*
X24143Y33660D01*
Y33410D01*
X24310D02*
Y33743D01*
X24476Y33910D01*
X24643Y33743D01*
Y33410D01*
Y33660D01*
X24310D01*
X24810Y33743D02*
Y33410D01*
Y33577D01*
X24893Y33660D01*
X24976Y33743D01*
X25059D01*
X14723Y36027D02*
X14640Y36110D01*
X14473D01*
X14390Y36027D01*
Y35693D01*
X14473Y35610D01*
X14640D01*
X14723Y35693D01*
X14890Y35610D02*
Y35943D01*
X15140D01*
X15223Y35860D01*
Y35610D01*
X15640D02*
Y36110D01*
X15390Y35860D01*
X15723D01*
X12423Y36827D02*
X12340Y36910D01*
X12173D01*
X12090Y36827D01*
Y36493D01*
X12173Y36410D01*
X12340D01*
X12423Y36493D01*
X12590Y36410D02*
Y36743D01*
X12840D01*
X12923Y36660D01*
Y36410D01*
X13090Y36827D02*
X13173Y36910D01*
X13340D01*
X13423Y36827D01*
Y36743D01*
X13340Y36660D01*
X13256D01*
X13340D01*
X13423Y36577D01*
Y36493D01*
X13340Y36410D01*
X13173D01*
X13090Y36493D01*
X7083Y39627D02*
X7000Y39710D01*
X6833D01*
X6750Y39627D01*
Y39293D01*
X6833Y39210D01*
X7000D01*
X7083Y39293D01*
X7250Y39210D02*
Y39543D01*
X7500D01*
X7583Y39460D01*
Y39210D01*
X8083D02*
X7750D01*
X8083Y39543D01*
Y39627D01*
X8000Y39710D01*
X7833D01*
X7750Y39627D01*
X10773Y45127D02*
X10690Y45210D01*
X10523D01*
X10440Y45127D01*
Y44793D01*
X10523Y44710D01*
X10690D01*
X10773Y44793D01*
X10940Y44710D02*
Y45043D01*
X11190D01*
X11273Y44960D01*
Y44710D01*
X11440D02*
X11606D01*
X11523D01*
Y45210D01*
X11440Y45127D01*
X22843Y40827D02*
X22760Y40910D01*
X22593D01*
X22510Y40827D01*
Y40493D01*
X22593Y40410D01*
X22760D01*
X22843Y40493D01*
X23010Y40910D02*
Y40410D01*
Y40660D01*
X23093Y40743D01*
X23260D01*
X23343Y40660D01*
Y40410D01*
X23593Y40743D02*
X23760D01*
X23843Y40660D01*
Y40410D01*
X23593D01*
X23510Y40493D01*
X23593Y40577D01*
X23843D01*
X24343Y40410D02*
X24010D01*
X24343Y40743D01*
Y40827D01*
X24259Y40910D01*
X24093D01*
X24010Y40827D01*
X19303Y38657D02*
X19220Y38740D01*
X19053D01*
X18970Y38657D01*
Y38323D01*
X19053Y38240D01*
X19220D01*
X19303Y38323D01*
X19470Y38740D02*
Y38240D01*
Y38490D01*
X19553Y38573D01*
X19720D01*
X19803Y38490D01*
Y38240D01*
X20053Y38573D02*
X20220D01*
X20303Y38490D01*
Y38240D01*
X20053D01*
X19970Y38323D01*
X20053Y38407D01*
X20303D01*
X20470Y38240D02*
X20636D01*
X20553D01*
Y38740D01*
X20470Y38657D01*
X21963Y53937D02*
X21880Y54020D01*
X21713D01*
X21630Y53937D01*
Y53603D01*
X21713Y53520D01*
X21880D01*
X21963Y53603D01*
X22130Y54020D02*
Y53520D01*
X22380D01*
X22463Y53603D01*
Y53687D01*
Y53770D01*
X22380Y53853D01*
X22130D01*
X22630D02*
X22796Y53520D01*
X22963Y53853D01*
X23130Y53937D02*
X23213Y54020D01*
X23379D01*
X23463Y53937D01*
Y53853D01*
X23379Y53770D01*
X23296D01*
X23379D01*
X23463Y53687D01*
Y53603D01*
X23379Y53520D01*
X23213D01*
X23130Y53603D01*
X19573Y51627D02*
X19490Y51710D01*
X19323D01*
X19240Y51627D01*
Y51293D01*
X19323Y51210D01*
X19490D01*
X19573Y51293D01*
X19740Y51710D02*
Y51210D01*
X19990D01*
X20073Y51293D01*
Y51377D01*
Y51460D01*
X19990Y51543D01*
X19740D01*
X20240D02*
X20406Y51210D01*
X20573Y51543D01*
X21073Y51210D02*
X20740D01*
X21073Y51543D01*
Y51627D01*
X20989Y51710D01*
X20823D01*
X20740Y51627D01*
X14973Y49677D02*
X14890Y49760D01*
X14723D01*
X14640Y49677D01*
Y49343D01*
X14723Y49260D01*
X14890D01*
X14973Y49343D01*
X15140Y49760D02*
Y49260D01*
X15390D01*
X15473Y49343D01*
Y49427D01*
Y49510D01*
X15390Y49593D01*
X15140D01*
X15640D02*
X15806Y49260D01*
X15973Y49593D01*
X16140Y49260D02*
X16306D01*
X16223D01*
Y49760D01*
X16140Y49677D01*
X29000Y36600D02*
Y36933D01*
X29167Y37100D01*
X29333Y36933D01*
Y36600D01*
Y36850D01*
X29000D01*
X29500Y36600D02*
Y37100D01*
X29750D01*
X29833Y37017D01*
Y36850D01*
X29750Y36767D01*
X29500D01*
X29666D02*
X29833Y36600D01*
X30000Y37100D02*
Y36600D01*
X30250D01*
X30333Y36683D01*
Y37017D01*
X30250Y37100D01*
X30000D01*
X30500D02*
Y36683D01*
X30583Y36600D01*
X30749D01*
X30833Y36683D01*
Y37100D01*
X30999D02*
X31166D01*
X31083D01*
Y36600D01*
X30999D01*
X31166D01*
X31416D02*
Y37100D01*
X31749Y36600D01*
Y37100D01*
X32166D02*
X31999D01*
X31916Y37017D01*
Y36683D01*
X31999Y36600D01*
X32166D01*
X32249Y36683D01*
Y37017D01*
X32166Y37100D01*
X32416Y36517D02*
X32749D01*
X32915Y36600D02*
Y37100D01*
X33082Y36933D01*
X33249Y37100D01*
Y36600D01*
X33415Y37100D02*
X33582D01*
X33499D01*
Y36600D01*
X33415D01*
X33582D01*
X33832D02*
Y37100D01*
X34165Y36600D01*
Y37100D01*
X34332D02*
X34498D01*
X34415D01*
Y36600D01*
X34332D01*
X34498D01*
X34748Y36517D02*
X35081D01*
X35248Y36600D02*
Y37100D01*
X35498D01*
X35581Y37017D01*
Y36850D01*
X35498Y36767D01*
X35248D01*
X35748Y36600D02*
Y37100D01*
X35998D01*
X36081Y37017D01*
Y36850D01*
X35998Y36767D01*
X35748D01*
X35914D02*
X36081Y36600D01*
X36498Y37100D02*
X36331D01*
X36248Y37017D01*
Y36683D01*
X36331Y36600D01*
X36498D01*
X36581Y36683D01*
Y37017D01*
X36498Y37100D01*
X22643Y8890D02*
X22477D01*
X22560D01*
Y8473D01*
X22477Y8390D01*
X22393D01*
X22310Y8473D01*
X22810Y8807D02*
X22893Y8890D01*
X23060D01*
X23143Y8807D01*
Y8723D01*
X23060Y8640D01*
X23143Y8557D01*
Y8473D01*
X23060Y8390D01*
X22893D01*
X22810Y8473D01*
Y8557D01*
X22893Y8640D01*
X22810Y8723D01*
Y8807D01*
X22893Y8640D02*
X23060D01*
X22643Y21490D02*
X22477D01*
X22560D01*
Y21073D01*
X22477Y20990D01*
X22393D01*
X22310Y21073D01*
X23143Y21490D02*
X22976Y21407D01*
X22810Y21240D01*
Y21073D01*
X22893Y20990D01*
X23060D01*
X23143Y21073D01*
Y21157D01*
X23060Y21240D01*
X22810D01*
X32093Y21490D02*
X31927D01*
X32010D01*
Y21073D01*
X31927Y20990D01*
X31843D01*
X31760Y21073D01*
X32510Y20990D02*
Y21490D01*
X32260Y21240D01*
X32593D01*
X32093Y8900D02*
X31927D01*
X32010D01*
Y8483D01*
X31927Y8400D01*
X31843D01*
X31760Y8483D01*
X32260Y8400D02*
X32426D01*
X32343D01*
Y8900D01*
X32260Y8817D01*
X42125Y53050D02*
Y53550D01*
X42375D01*
X42459Y53467D01*
Y53300D01*
X42375Y53217D01*
X42125D01*
X42625Y53383D02*
Y53133D01*
X42709Y53050D01*
X42958D01*
Y53383D01*
X43125Y53050D02*
X43292D01*
X43208D01*
Y53550D01*
X43125D01*
X43542Y53383D02*
Y53050D01*
Y53217D01*
X43625Y53300D01*
X43708Y53383D01*
X43791D01*
X44375Y53050D02*
X44041D01*
X44375Y53383D01*
Y53467D01*
X44291Y53550D01*
X44125D01*
X44041Y53467D01*
X31209Y53400D02*
Y53900D01*
X31459D01*
X31542Y53817D01*
Y53650D01*
X31459Y53567D01*
X31209D01*
X31709Y53733D02*
Y53483D01*
X31792Y53400D01*
X32042D01*
Y53733D01*
X32208Y53400D02*
X32375D01*
X32292D01*
Y53900D01*
X32208D01*
X32625Y53733D02*
Y53400D01*
Y53567D01*
X32708Y53650D01*
X32791Y53733D01*
X32875D01*
X33125Y53400D02*
X33291D01*
X33208D01*
Y53900D01*
X33125Y53817D01*
X38743Y8840D02*
X38577D01*
X38660D01*
Y8423D01*
X38577Y8340D01*
X38493D01*
X38410Y8423D01*
X38910Y8840D02*
X39243D01*
Y8757D01*
X38910Y8423D01*
Y8340D01*
X38743Y21440D02*
X38577D01*
X38660D01*
Y21023D01*
X38577Y20940D01*
X38493D01*
X38410Y21023D01*
X39243Y21440D02*
X38910D01*
Y21190D01*
X39076Y21273D01*
X39160D01*
X39243Y21190D01*
Y21023D01*
X39160Y20940D01*
X38993D01*
X38910Y21023D01*
X48193Y8840D02*
X48027D01*
X48110D01*
Y8423D01*
X48027Y8340D01*
X47943D01*
X47860Y8423D01*
X48360Y8757D02*
X48443Y8840D01*
X48610D01*
X48693Y8757D01*
Y8673D01*
X48610Y8590D01*
X48526D01*
X48610D01*
X48693Y8507D01*
Y8423D01*
X48610Y8340D01*
X48443D01*
X48360Y8423D01*
X48193Y21440D02*
X48027D01*
X48110D01*
Y21023D01*
X48027Y20940D01*
X47943D01*
X47860Y21023D01*
X48693Y20940D02*
X48360D01*
X48693Y21273D01*
Y21357D01*
X48610Y21440D01*
X48443D01*
X48360Y21357D01*
D15*
X65491Y6575D02*
G03*
X65491Y6575I-591J0D01*
G01*
X67341D02*
G03*
X67341Y6575I-591J0D01*
G01*
X69591D02*
G03*
X69591Y6575I-591J0D01*
G01*
X15750Y28050D02*
X15800D01*
X15750Y27150D02*
Y28050D01*
Y27150D02*
X15800D01*
X16400Y28050D02*
X16450D01*
Y27150D02*
Y28050D01*
X16400Y27150D02*
X16450D01*
X42750Y24900D02*
Y24950D01*
Y24900D02*
X43650D01*
Y24950D01*
X42750Y25550D02*
Y25600D01*
X43650D01*
Y25550D02*
Y25600D01*
X64700Y6075D02*
Y7075D01*
Y6075D02*
X65100Y6575D01*
Y6075D02*
Y6575D01*
X64700Y7075D02*
X65100Y6575D01*
Y7075D01*
X66550Y6075D02*
Y7075D01*
Y6075D02*
X66950Y6575D01*
Y6075D02*
Y6575D01*
X66550Y7075D02*
X66950Y6575D01*
Y7075D01*
X68800Y6075D02*
Y7075D01*
Y6075D02*
X69200Y6575D01*
Y6075D02*
Y6575D01*
X68800Y7075D02*
X69200Y6575D01*
Y7075D01*
X24200Y48350D02*
Y48400D01*
Y48350D02*
X25100D01*
Y48400D01*
X24200Y49000D02*
Y49050D01*
X25100D01*
Y49000D02*
Y49050D01*
X28150Y38050D02*
Y38100D01*
X27250D02*
X28150D01*
X27250Y38050D02*
Y38100D01*
X28150Y37400D02*
Y37450D01*
X27250Y37400D02*
X28150D01*
X27250D02*
Y37450D01*
D16*
X63700Y10600D02*
X64700D01*
Y11000D01*
X63700Y11900D02*
X64700D01*
Y11500D02*
Y11900D01*
X59850Y33150D02*
Y34150D01*
X59450D02*
X59850D01*
X58550Y33150D02*
Y34150D01*
X58950D01*
X66550Y32800D02*
Y33800D01*
X66150D02*
X66550D01*
X65250Y32800D02*
Y33800D01*
X65650D01*
X53400Y33400D02*
Y34400D01*
X53000D02*
X53400D01*
X52100Y33400D02*
Y34400D01*
X52500D01*
D17*
X65000Y39450D02*
X65750D01*
X65000Y40350D02*
X65750D01*
X63850D02*
X64600D01*
X63850Y39450D02*
X64600D01*
X65750D02*
Y40350D01*
X63850Y39450D02*
Y40350D01*
X47000Y37500D02*
Y38250D01*
X47900Y37500D02*
Y38250D01*
Y38650D02*
Y39400D01*
X47000Y38650D02*
Y39400D01*
Y37500D02*
X47900D01*
X47000Y39400D02*
X47900D01*
X22950Y16200D02*
Y16950D01*
X22050Y16200D02*
Y16950D01*
Y15050D02*
Y15800D01*
X22950Y15050D02*
Y15800D01*
X22050Y16950D02*
X22950D01*
X22050Y15050D02*
X22950D01*
X20350Y16250D02*
Y17000D01*
X19450Y16250D02*
Y17000D01*
Y15100D02*
Y15850D01*
X20350Y15100D02*
Y15850D01*
X19450Y17000D02*
X20350D01*
X19450Y15100D02*
X20350D01*
X17650Y16300D02*
Y17050D01*
X16750Y16300D02*
Y17050D01*
Y15150D02*
Y15900D01*
X17650Y15150D02*
Y15900D01*
X16750Y17050D02*
X17650D01*
X16750Y15150D02*
X17650D01*
X19400Y24000D02*
X20150D01*
X19400Y24900D02*
X20150D01*
X18250D02*
X19000D01*
X18250Y24000D02*
X19000D01*
X20150D02*
Y24900D01*
X18250Y24000D02*
Y24900D01*
X18150Y25950D02*
Y26700D01*
X19050Y25950D02*
Y26700D01*
Y27100D02*
Y27850D01*
X18150Y27100D02*
Y27850D01*
Y25950D02*
X19050D01*
X18150Y27850D02*
X19050D01*
X20200Y30300D02*
Y31050D01*
X19200Y30300D02*
Y31050D01*
Y28700D02*
Y29450D01*
X20200Y28700D02*
Y29450D01*
X19200Y31050D02*
X20200D01*
X19200Y28700D02*
X20200D01*
X16200Y31750D02*
Y32500D01*
X15300Y31750D02*
Y32500D01*
Y30600D02*
Y31350D01*
X16200Y30600D02*
Y31350D01*
X15300Y32500D02*
X16200D01*
X15300Y30600D02*
X16200D01*
X16850Y29250D02*
Y30000D01*
X17750Y29250D02*
Y30000D01*
Y30400D02*
Y31150D01*
X16850Y30400D02*
Y31150D01*
Y29250D02*
X17750D01*
X16850Y31150D02*
X17750D01*
X48850Y37500D02*
Y38250D01*
X49750Y37500D02*
Y38250D01*
Y38650D02*
Y39400D01*
X48850Y38650D02*
Y39400D01*
Y37500D02*
X49750D01*
X48850Y39400D02*
X49750D01*
X63600Y8850D02*
X64350D01*
X63600Y9750D02*
X64350D01*
X62450D02*
X63200D01*
X62450Y8850D02*
X63200D01*
X64350D02*
Y9750D01*
X62450Y8850D02*
Y9750D01*
X61250Y31800D02*
Y32550D01*
X62150Y31800D02*
Y32550D01*
Y32950D02*
Y33700D01*
X61250Y32950D02*
Y33700D01*
Y31800D02*
X62150D01*
X61250Y33700D02*
X62150D01*
X56850Y40300D02*
X57600D01*
X56850Y39400D02*
X57600D01*
X58000D02*
X58750D01*
X58000Y40300D02*
X58750D01*
X56850Y39400D02*
Y40300D01*
X58750Y39400D02*
Y40300D01*
X45350Y27450D02*
X46100D01*
X45350Y26550D02*
X46100D01*
X46500D02*
X47250D01*
X46500Y27450D02*
X47250D01*
X45350Y26550D02*
Y27450D01*
X47250Y26550D02*
Y27450D01*
X45400Y29400D02*
X46150D01*
X45400Y28500D02*
X46150D01*
X46550D02*
X47300D01*
X46550Y29400D02*
X47300D01*
X45400Y28500D02*
Y29400D01*
X47300Y28500D02*
Y29400D01*
X40150Y25000D02*
Y25900D01*
X42050Y25000D02*
Y25900D01*
X40150Y25000D02*
X40900D01*
X40150Y25900D02*
X40900D01*
X41300D02*
X42050D01*
X41300Y25000D02*
X42050D01*
X24150Y45150D02*
Y45600D01*
X23000Y45150D02*
Y45600D01*
X23950D02*
X24150D01*
X23550Y44700D02*
X23600D01*
X23000Y45600D02*
X23200D01*
X8200Y24500D02*
Y25400D01*
X10100Y24500D02*
Y25400D01*
X8200Y24500D02*
X8950D01*
X8200Y25400D02*
X8950D01*
X9350D02*
X10100D01*
X9350Y24500D02*
X10100D01*
X12650Y22300D02*
Y23200D01*
X14550Y22300D02*
Y23200D01*
X12650Y22300D02*
X13400D01*
X12650Y23200D02*
X13400D01*
X13800D02*
X14550D01*
X13800Y22300D02*
X14550D01*
X11100Y23700D02*
X12000D01*
X11100Y25600D02*
X12000D01*
Y23700D02*
Y24450D01*
X11100Y23700D02*
Y24450D01*
Y24850D02*
Y25600D01*
X12000Y24850D02*
Y25600D01*
X25800Y43300D02*
X26700D01*
X25800Y41400D02*
X26700D01*
X25800Y42550D02*
Y43300D01*
X26700Y42550D02*
Y43300D01*
Y41400D02*
Y42150D01*
X25800Y41400D02*
Y42150D01*
X26900Y16150D02*
Y17100D01*
X25700Y16150D02*
Y17100D01*
Y14500D02*
Y15450D01*
X26900Y14500D02*
Y15450D01*
X25700Y17100D02*
X26900D01*
X25700Y14500D02*
X26900D01*
X19200Y50850D02*
X20200D01*
X19200Y48500D02*
X20200D01*
X19200Y50100D02*
Y50850D01*
X20200Y50100D02*
Y50850D01*
Y48500D02*
Y49250D01*
X19200Y48500D02*
Y49250D01*
X14600Y47000D02*
X15500D01*
X14600Y48900D02*
X15500D01*
Y47000D02*
Y47750D01*
X14600Y47000D02*
Y47750D01*
Y48150D02*
Y48900D01*
X15500Y48150D02*
Y48900D01*
X25900Y46500D02*
X26800D01*
X25900Y44600D02*
X26800D01*
X25900Y45750D02*
Y46500D01*
X26800Y45750D02*
Y46500D01*
Y44600D02*
Y45350D01*
X25900Y44600D02*
Y45350D01*
X9500Y48800D02*
X11700D01*
X9500Y45600D02*
X11700D01*
X9500Y48250D02*
Y48800D01*
X11700Y48250D02*
Y48800D01*
Y45600D02*
Y46150D01*
X9500Y45600D02*
Y46150D01*
X13600Y31050D02*
Y31500D01*
X12450Y31050D02*
Y31500D01*
X13400D02*
X13600D01*
X13000Y30600D02*
X13050D01*
X12450Y31500D02*
X12650D01*
X8300Y47450D02*
Y48400D01*
X7100Y47450D02*
Y48400D01*
Y45800D02*
Y46750D01*
X8300Y45800D02*
Y46750D01*
X7100Y48400D02*
X8300D01*
X7100Y45800D02*
X8300D01*
X12300Y27550D02*
Y28450D01*
X14200Y27550D02*
Y28450D01*
X12300Y27550D02*
X13050D01*
X12300Y28450D02*
X13050D01*
X13450D02*
X14200D01*
X13450Y27550D02*
X14200D01*
X10100Y33600D02*
Y34550D01*
X11300Y33600D02*
Y34550D01*
Y35250D02*
Y36200D01*
X10100Y35250D02*
Y36200D01*
Y33600D02*
X11300D01*
X10100Y36200D02*
X11300D01*
X12300Y43450D02*
Y44350D01*
X10400Y43450D02*
Y44350D01*
X11550D02*
X12300D01*
X11550Y43450D02*
X12300D01*
X10400D02*
X11150D01*
X10400Y44350D02*
X11150D01*
X14350Y32900D02*
X15350D01*
X14350Y35250D02*
X15350D01*
Y32900D02*
Y33650D01*
X14350Y32900D02*
Y33650D01*
Y34500D02*
Y35250D01*
X15350Y34500D02*
Y35250D01*
X12050Y33700D02*
X13050D01*
X12050Y36050D02*
X13050D01*
Y33700D02*
Y34450D01*
X12050Y33700D02*
Y34450D01*
Y35300D02*
Y36050D01*
X13050Y35300D02*
Y36050D01*
X15250Y36200D02*
X16150D01*
X15250Y38100D02*
X16150D01*
Y36200D02*
Y36950D01*
X15250Y36200D02*
Y36950D01*
Y37350D02*
Y38100D01*
X16150Y37350D02*
Y38100D01*
X6710Y38850D02*
X7710D01*
X6710Y36500D02*
X7710D01*
X6710Y38100D02*
Y38850D01*
X7710Y38100D02*
Y38850D01*
Y36500D02*
Y37250D01*
X6710Y36500D02*
Y37250D01*
X8700Y38700D02*
X9600D01*
X8700Y36800D02*
X9600D01*
X8700Y37950D02*
Y38700D01*
X9600Y37950D02*
Y38700D01*
Y36800D02*
Y37550D01*
X8700Y36800D02*
Y37550D01*
X12550Y37750D02*
Y38650D01*
X10650Y37750D02*
Y38650D01*
X11800D02*
X12550D01*
X11800Y37750D02*
X12550D01*
X10650D02*
X11400D01*
X10650Y38650D02*
X11400D01*
X6710Y40300D02*
X7610D01*
X6710Y42200D02*
X7610D01*
Y40300D02*
Y41050D01*
X6710Y40300D02*
Y41050D01*
Y41450D02*
Y42200D01*
X7610Y41450D02*
Y42200D01*
X8600Y40250D02*
X9500D01*
X8600Y42150D02*
X9500D01*
Y40250D02*
Y41000D01*
X8600Y40250D02*
Y41000D01*
Y41400D02*
Y42150D01*
X9500Y41400D02*
Y42150D01*
X22600Y36100D02*
Y36550D01*
X21450Y36100D02*
Y36550D01*
X22400D02*
X22600D01*
X22000Y35650D02*
X22050D01*
X21450Y36550D02*
X21650D01*
X20450Y32450D02*
X21350D01*
X20450Y34350D02*
X21350D01*
Y32450D02*
Y33200D01*
X20450Y32450D02*
Y33200D01*
Y33600D02*
Y34350D01*
X21350Y33600D02*
Y34350D01*
X16900Y34950D02*
X17800D01*
X16900Y33050D02*
X17800D01*
X16900Y34200D02*
Y34950D01*
X17800Y34200D02*
Y34950D01*
Y33050D02*
Y33800D01*
X16900Y33050D02*
Y33800D01*
X58200Y36500D02*
Y37400D01*
X56300Y36500D02*
Y37400D01*
X57450D02*
X58200D01*
X57450Y36500D02*
X58200D01*
X56300D02*
X57050D01*
X56300Y37400D02*
X57050D01*
X62000Y9700D02*
Y10600D01*
X60100Y9700D02*
Y10600D01*
X61250D02*
X62000D01*
X61250Y9700D02*
X62000D01*
X60100D02*
X60850D01*
X60100Y10600D02*
X60850D01*
X58450Y31100D02*
Y32000D01*
X56550Y31100D02*
Y32000D01*
X57700D02*
X58450D01*
X57700Y31100D02*
X58450D01*
X56550D02*
X57300D01*
X56550Y32000D02*
X57300D01*
X26700Y47700D02*
X27600D01*
X26700Y49600D02*
X27600D01*
Y47700D02*
Y48450D01*
X26700Y47700D02*
Y48450D01*
Y48850D02*
Y49600D01*
X27600Y48850D02*
Y49600D01*
X24600Y37350D02*
Y38250D01*
X26500Y37350D02*
Y38250D01*
X24600Y37350D02*
X25350D01*
X24600Y38250D02*
X25350D01*
X25750D02*
X26500D01*
X25750Y37350D02*
X26500D01*
X58300Y9150D02*
Y10050D01*
X56400Y9150D02*
Y10050D01*
X57550D02*
X58300D01*
X57550Y9150D02*
X58300D01*
X56400D02*
X57150D01*
X56400Y10050D02*
X57150D01*
X62200Y29900D02*
Y30800D01*
X60300Y29900D02*
Y30800D01*
X61450D02*
X62200D01*
X61450Y29900D02*
X62200D01*
X60300D02*
X61050D01*
X60300Y30800D02*
X61050D01*
X48250Y31900D02*
Y32800D01*
X46350Y31900D02*
Y32800D01*
X47500D02*
X48250D01*
X47500Y31900D02*
X48250D01*
X46350D02*
X47100D01*
X46350Y32800D02*
X47100D01*
D18*
X41374Y21060D02*
X45326D01*
Y23312D01*
X41374D02*
X45326D01*
X41374Y21060D02*
Y23312D01*
X26774Y21560D02*
Y23812D01*
X33726D01*
Y21560D02*
Y23812D01*
X26774Y21560D02*
X33726D01*
D19*
X11306Y41912D02*
D03*
M02*
