G04*
G04 #@! TF.GenerationSoftware,Altium Limited,Altium Designer,21.3.2 (30)*
G04*
G04 Layer_Physical_Order=2*
G04 Layer_Color=16711680*
%FSLAX24Y24*%
%MOIN*%
G70*
G04*
G04 #@! TF.SameCoordinates,4918C4AF-473F-441A-9CD2-E68DF055B6D3*
G04*
G04*
G04 #@! TF.FilePolarity,Positive*
G04*
G01*
G75*
%ADD101C,0.1299*%
%ADD105C,0.0200*%
%ADD106C,0.0400*%
%ADD107C,0.0270*%
%ADD108C,0.1100*%
%ADD109C,0.0476*%
%ADD110R,0.0476X0.0476*%
%ADD111O,0.0472X0.0984*%
%ADD112R,0.0472X0.0984*%
%ADD113R,0.0787X0.0984*%
%ADD114C,0.0630*%
%ADD115R,0.0630X0.0630*%
%ADD116O,0.1870X0.0925*%
%ADD117O,0.0925X0.1870*%
%ADD118C,0.1200*%
%ADD119C,0.0760*%
%ADD120C,0.0602*%
%ADD121R,0.0602X0.0602*%
%ADD122C,0.0690*%
%ADD123C,0.0787*%
%ADD124C,0.0591*%
%ADD125R,0.0591X0.0591*%
%ADD126R,0.0591X0.0591*%
%ADD127C,0.0650*%
%ADD128P,0.0704X8X22.5*%
%ADD129C,0.0500*%
%ADD130C,0.0300*%
G36*
X70016Y54902D02*
X70016Y5753D01*
X60250D01*
X60246Y5803D01*
X60283Y5808D01*
X60356Y5838D01*
X60418Y5886D01*
X60821Y6289D01*
X60851D01*
X60878Y6278D01*
X60916Y6273D01*
Y6861D01*
Y7450D01*
X60878Y7445D01*
X60796Y7411D01*
X60726Y7357D01*
X60672Y7287D01*
X60638Y7205D01*
X60627Y7117D01*
Y6885D01*
X60618Y6884D01*
X60545Y6854D01*
X60482Y6806D01*
X60079Y6403D01*
X59026D01*
X58985Y6426D01*
X58900Y6449D01*
Y6100D01*
X58800D01*
Y6449D01*
X58774Y6442D01*
X58358Y6859D01*
X58379Y6909D01*
X58463D01*
X58585Y6941D01*
X58695Y7004D01*
X58784Y7094D01*
X58847Y7203D01*
X58880Y7325D01*
Y7452D01*
X58847Y7574D01*
X58784Y7683D01*
X58695Y7773D01*
X58585Y7836D01*
X58463Y7869D01*
X58337D01*
X58215Y7836D01*
X58105Y7773D01*
X58016Y7683D01*
X57953Y7574D01*
X57926Y7474D01*
X57874D01*
X57847Y7574D01*
X57784Y7683D01*
X57695Y7773D01*
X57585Y7836D01*
X57463Y7869D01*
X57450D01*
Y7389D01*
Y6909D01*
X57452D01*
X58456Y5905D01*
X58518Y5857D01*
X58591Y5827D01*
X58622Y5823D01*
X58639Y5803D01*
X58616Y5753D01*
X18508D01*
X18499Y5803D01*
X18529Y5816D01*
X18592Y5864D01*
X19655Y6927D01*
X19660Y6925D01*
X19786Y6900D01*
X19800D01*
Y7500D01*
X19200D01*
Y7486D01*
X19225Y7360D01*
X19227Y7355D01*
X18252Y6380D01*
X11348D01*
X11329Y6426D01*
X11335Y6432D01*
X11388Y6524D01*
X11415Y6626D01*
Y6732D01*
X11388Y6834D01*
X11335Y6925D01*
X11261Y7000D01*
X11169Y7053D01*
X11067Y7080D01*
X10961D01*
X10859Y7053D01*
X10768Y7000D01*
X10693Y6925D01*
X10640Y6834D01*
X10613Y6732D01*
Y6626D01*
X10640Y6524D01*
X10693Y6432D01*
X10699Y6426D01*
X10680Y6380D01*
X10348D01*
X10329Y6426D01*
X10335Y6432D01*
X10388Y6524D01*
X10415Y6626D01*
Y6732D01*
X10403Y6779D01*
X11720Y8096D01*
X13414D01*
X13427Y8046D01*
X13345Y7964D01*
X13274Y7858D01*
X13225Y7740D01*
X13200Y7614D01*
Y7486D01*
X13225Y7360D01*
X13274Y7242D01*
X13345Y7136D01*
X13436Y7045D01*
X13542Y6974D01*
X13660Y6925D01*
X13786Y6900D01*
X13914D01*
X14040Y6925D01*
X14158Y6974D01*
X14264Y7045D01*
X14355Y7136D01*
X14426Y7242D01*
X14475Y7360D01*
X14500Y7486D01*
Y7614D01*
X14493Y7649D01*
X14537Y7672D01*
X14804Y7406D01*
X14870Y7362D01*
X14948Y7346D01*
X15231D01*
X15274Y7242D01*
X15345Y7136D01*
X15436Y7045D01*
X15542Y6974D01*
X15660Y6925D01*
X15786Y6900D01*
X15914D01*
X16040Y6925D01*
X16158Y6974D01*
X16264Y7045D01*
X16355Y7136D01*
X16426Y7242D01*
X16475Y7360D01*
X16500Y7486D01*
Y7614D01*
X16475Y7740D01*
X16426Y7858D01*
X16355Y7964D01*
X16264Y8055D01*
X16158Y8126D01*
X16040Y8175D01*
X15914Y8200D01*
X15786D01*
X15660Y8175D01*
X15542Y8126D01*
X15436Y8055D01*
X15345Y7964D01*
X15274Y7858D01*
X15231Y7754D01*
X15032D01*
X14342Y8444D01*
X14276Y8488D01*
X14198Y8504D01*
X11635D01*
X11557Y8488D01*
X11491Y8444D01*
X10114Y7067D01*
X10067Y7080D01*
X9961D01*
X9859Y7053D01*
X9768Y7000D01*
X9693Y6925D01*
X9640Y6834D01*
X9613Y6732D01*
Y6626D01*
X9640Y6524D01*
X9693Y6432D01*
X9699Y6426D01*
X9680Y6380D01*
X9348D01*
X9329Y6426D01*
X9335Y6432D01*
X9388Y6524D01*
X9415Y6626D01*
Y6732D01*
X9388Y6834D01*
X9335Y6925D01*
X9261Y7000D01*
X9169Y7053D01*
X9067Y7080D01*
X8961D01*
X8859Y7053D01*
X8768Y7000D01*
X8693Y6925D01*
X8640Y6834D01*
X8613Y6732D01*
Y6723D01*
X8567Y6704D01*
X8479Y6792D01*
X8416Y6840D01*
X8415Y6840D01*
Y7080D01*
X8064D01*
Y6679D01*
Y6278D01*
X8096D01*
X8115Y6275D01*
X8115Y6275D01*
X8140D01*
X8551Y5864D01*
X8614Y5816D01*
X8644Y5803D01*
X8634Y5753D01*
X6753D01*
X6753Y51115D01*
X6803Y51119D01*
X6812Y51051D01*
X6869Y50914D01*
X6959Y50796D01*
X7076Y50706D01*
X7213Y50649D01*
X7360Y50630D01*
X7507Y50649D01*
X7644Y50706D01*
X7761Y50796D01*
X7851Y50914D01*
X7908Y51051D01*
X7927Y51198D01*
Y52142D01*
X7908Y52289D01*
X7851Y52426D01*
X7761Y52544D01*
X7644Y52634D01*
X7507Y52691D01*
X7360Y52710D01*
X7213Y52691D01*
X7076Y52634D01*
X6959Y52544D01*
X6869Y52426D01*
X6812Y52289D01*
X6803Y52221D01*
X6753Y52225D01*
Y55012D01*
X24432D01*
X70016Y54902D01*
D02*
G37*
%LPC*%
G36*
X13764Y54650D02*
X13750D01*
Y54050D01*
X14350D01*
Y54064D01*
X14325Y54190D01*
X14276Y54308D01*
X14205Y54414D01*
X14114Y54505D01*
X14008Y54576D01*
X13890Y54625D01*
X13764Y54650D01*
D02*
G37*
G36*
X13650D02*
X13636D01*
X13510Y54625D01*
X13392Y54576D01*
X13286Y54505D01*
X13195Y54414D01*
X13124Y54308D01*
X13075Y54190D01*
X13050Y54064D01*
Y54050D01*
X13650D01*
Y54650D01*
D02*
G37*
G36*
X15764D02*
X15636D01*
X15510Y54625D01*
X15392Y54576D01*
X15286Y54505D01*
X15195Y54414D01*
X15124Y54308D01*
X15075Y54190D01*
X15050Y54064D01*
Y53936D01*
X15075Y53810D01*
X15124Y53692D01*
X15195Y53586D01*
X15286Y53495D01*
X15392Y53424D01*
X15510Y53375D01*
X15636Y53350D01*
X15764D01*
X15890Y53375D01*
X16008Y53424D01*
X16114Y53495D01*
X16205Y53586D01*
X16276Y53692D01*
X16325Y53810D01*
X16350Y53936D01*
Y54064D01*
X16325Y54190D01*
X16276Y54308D01*
X16205Y54414D01*
X16114Y54505D01*
X16008Y54576D01*
X15890Y54625D01*
X15764Y54650D01*
D02*
G37*
G36*
X14350Y53950D02*
X13750D01*
Y53350D01*
X13764D01*
X13890Y53375D01*
X14008Y53424D01*
X14114Y53495D01*
X14205Y53586D01*
X14276Y53692D01*
X14325Y53810D01*
X14350Y53936D01*
Y53950D01*
D02*
G37*
G36*
X13650D02*
X13050D01*
Y53936D01*
X13075Y53810D01*
X13124Y53692D01*
X13195Y53586D01*
X13286Y53495D01*
X13392Y53424D01*
X13510Y53375D01*
X13636Y53350D01*
X13650D01*
Y53950D01*
D02*
G37*
G36*
X9722Y53517D02*
X9300D01*
Y53000D01*
X10283D01*
X10271Y53097D01*
X10214Y53234D01*
X10124Y53351D01*
X10006Y53441D01*
X9869Y53498D01*
X9722Y53517D01*
D02*
G37*
G36*
X9200D02*
X8778D01*
X8631Y53498D01*
X8494Y53441D01*
X8376Y53351D01*
X8286Y53234D01*
X8229Y53097D01*
X8217Y53000D01*
X9200D01*
Y53517D01*
D02*
G37*
G36*
X23109Y52895D02*
X23100D01*
Y52500D01*
X23495D01*
Y52509D01*
X23465Y52622D01*
X23406Y52723D01*
X23323Y52806D01*
X23222Y52865D01*
X23109Y52895D01*
D02*
G37*
G36*
X23000D02*
X22991D01*
X22878Y52865D01*
X22777Y52806D01*
X22694Y52723D01*
X22635Y52622D01*
X22605Y52509D01*
Y52500D01*
X23000D01*
Y52895D01*
D02*
G37*
G36*
X52899Y53592D02*
X51911D01*
Y52408D01*
X52899D01*
Y53592D01*
D02*
G37*
G36*
X50894D02*
X49906D01*
Y52408D01*
X50894D01*
Y53592D01*
D02*
G37*
G36*
X48894D02*
X47906D01*
Y52408D01*
X48894D01*
Y53592D01*
D02*
G37*
G36*
X10283Y52900D02*
X9300D01*
Y52383D01*
X9722D01*
X9869Y52402D01*
X10006Y52459D01*
X10124Y52549D01*
X10214Y52666D01*
X10271Y52803D01*
X10283Y52900D01*
D02*
G37*
G36*
X9200D02*
X8217D01*
X8229Y52803D01*
X8286Y52666D01*
X8376Y52549D01*
X8494Y52459D01*
X8631Y52402D01*
X8778Y52383D01*
X9200D01*
Y52900D01*
D02*
G37*
G36*
X68099Y53442D02*
X67111D01*
Y52258D01*
X68099D01*
Y53442D01*
D02*
G37*
G36*
X66094D02*
X65106D01*
Y52258D01*
X66094D01*
Y53442D01*
D02*
G37*
G36*
X64094D02*
X63106D01*
Y52258D01*
X64094D01*
Y53442D01*
D02*
G37*
G36*
X60749Y53292D02*
X59761D01*
Y52108D01*
X60749D01*
Y53292D01*
D02*
G37*
G36*
X58744D02*
X57756D01*
Y52108D01*
X58744D01*
Y53292D01*
D02*
G37*
G36*
X56744D02*
X55756D01*
Y52108D01*
X56744D01*
Y53292D01*
D02*
G37*
G36*
X32452Y52395D02*
X32450D01*
Y52050D01*
X32795D01*
Y52052D01*
X32768Y52153D01*
X32716Y52243D01*
X32643Y52316D01*
X32553Y52368D01*
X32452Y52395D01*
D02*
G37*
G36*
X43545D02*
X43200D01*
Y52050D01*
X43545D01*
Y52395D01*
D02*
G37*
G36*
X43100D02*
X42755D01*
Y52050D01*
X43100D01*
Y52395D01*
D02*
G37*
G36*
X32350D02*
X32348D01*
X32247Y52368D01*
X32157Y52316D01*
X32084Y52243D01*
X32032Y52153D01*
X32005Y52052D01*
Y52050D01*
X32350D01*
Y52395D01*
D02*
G37*
G36*
X23495Y52400D02*
X23100D01*
Y52005D01*
X23109D01*
X23222Y52035D01*
X23323Y52094D01*
X23406Y52177D01*
X23465Y52278D01*
X23495Y52391D01*
Y52400D01*
D02*
G37*
G36*
X23000D02*
X22605D01*
Y52391D01*
X22635Y52278D01*
X22694Y52177D01*
X22777Y52094D01*
X22878Y52035D01*
X22991Y52005D01*
X23000D01*
Y52400D01*
D02*
G37*
G36*
X43545Y51950D02*
X43200D01*
Y51605D01*
X43545D01*
Y51950D01*
D02*
G37*
G36*
X43100D02*
X42755D01*
Y51605D01*
X43100D01*
Y51950D01*
D02*
G37*
G36*
X32795D02*
X32450D01*
Y51605D01*
X32452D01*
X32553Y51632D01*
X32643Y51684D01*
X32716Y51757D01*
X32768Y51847D01*
X32795Y51948D01*
Y51950D01*
D02*
G37*
G36*
X32350D02*
X32005D01*
Y51948D01*
X32032Y51847D01*
X32084Y51757D01*
X32157Y51684D01*
X32247Y51632D01*
X32348Y51605D01*
X32350D01*
Y51950D01*
D02*
G37*
G36*
X32452Y51395D02*
X32450D01*
Y51050D01*
X32795D01*
Y51052D01*
X32768Y51153D01*
X32716Y51243D01*
X32643Y51316D01*
X32553Y51368D01*
X32452Y51395D01*
D02*
G37*
G36*
X32350D02*
X32348D01*
X32247Y51368D01*
X32157Y51316D01*
X32084Y51243D01*
X32032Y51153D01*
X32005Y51052D01*
Y51050D01*
X32350D01*
Y51395D01*
D02*
G37*
G36*
X43202D02*
X43098D01*
X42997Y51368D01*
X42907Y51316D01*
X42834Y51243D01*
X42782Y51153D01*
X42755Y51052D01*
Y50948D01*
X42782Y50847D01*
X42834Y50757D01*
X42907Y50684D01*
X42997Y50632D01*
X43098Y50605D01*
X43202D01*
X43303Y50632D01*
X43393Y50684D01*
X43466Y50757D01*
X43518Y50847D01*
X43545Y50948D01*
Y51052D01*
X43518Y51153D01*
X43466Y51243D01*
X43393Y51316D01*
X43303Y51368D01*
X43202Y51395D01*
D02*
G37*
G36*
X32795Y50950D02*
X32450D01*
Y50605D01*
X32452D01*
X32553Y50632D01*
X32643Y50684D01*
X32716Y50757D01*
X32768Y50847D01*
X32795Y50948D01*
Y50950D01*
D02*
G37*
G36*
X32350D02*
X32005D01*
Y50948D01*
X32032Y50847D01*
X32084Y50757D01*
X32157Y50684D01*
X32247Y50632D01*
X32348Y50605D01*
X32350D01*
Y50950D01*
D02*
G37*
G36*
X23109Y51395D02*
X22991D01*
X22878Y51365D01*
X22777Y51306D01*
X22694Y51223D01*
X22635Y51122D01*
X22605Y51009D01*
Y50891D01*
X22635Y50778D01*
X22694Y50677D01*
X22777Y50594D01*
X22878Y50535D01*
X22991Y50505D01*
X23109D01*
X23222Y50535D01*
X23323Y50594D01*
X23406Y50677D01*
X23465Y50778D01*
X23495Y50891D01*
Y51009D01*
X23465Y51122D01*
X23406Y51223D01*
X23323Y51306D01*
X23222Y51365D01*
X23109Y51395D01*
D02*
G37*
G36*
X9722Y51057D02*
X8778D01*
X8631Y51038D01*
X8494Y50981D01*
X8376Y50891D01*
X8286Y50774D01*
X8229Y50637D01*
X8210Y50490D01*
X8229Y50343D01*
X8286Y50206D01*
X8376Y50089D01*
X8494Y49999D01*
X8631Y49942D01*
X8778Y49923D01*
X9722D01*
X9869Y49942D01*
X10006Y49999D01*
X10124Y50089D01*
X10214Y50206D01*
X10271Y50343D01*
X10290Y50490D01*
X10271Y50637D01*
X10214Y50774D01*
X10124Y50891D01*
X10006Y50981D01*
X9869Y51038D01*
X9722Y51057D01*
D02*
G37*
G36*
X43202Y50395D02*
X43098D01*
X42997Y50368D01*
X42907Y50316D01*
X42834Y50243D01*
X42782Y50153D01*
X42755Y50052D01*
Y49948D01*
X42782Y49847D01*
X42834Y49757D01*
X42907Y49684D01*
X42997Y49632D01*
X43098Y49605D01*
X43202D01*
X43303Y49632D01*
X43393Y49684D01*
X43466Y49757D01*
X43518Y49847D01*
X43545Y49948D01*
Y50052D01*
X43518Y50153D01*
X43466Y50243D01*
X43393Y50316D01*
X43303Y50368D01*
X43202Y50395D01*
D02*
G37*
G36*
X32452D02*
X32348D01*
X32247Y50368D01*
X32157Y50316D01*
X32084Y50243D01*
X32032Y50153D01*
X32005Y50052D01*
Y49948D01*
X32032Y49847D01*
X32084Y49757D01*
X32157Y49684D01*
X32247Y49632D01*
X32348Y49605D01*
X32452D01*
X32553Y49632D01*
X32643Y49684D01*
X32716Y49757D01*
X32768Y49847D01*
X32795Y49948D01*
Y50052D01*
X32768Y50153D01*
X32716Y50243D01*
X32643Y50316D01*
X32553Y50368D01*
X32452Y50395D01*
D02*
G37*
G36*
X43202Y49395D02*
X43098D01*
X42997Y49368D01*
X42907Y49316D01*
X42834Y49243D01*
X42782Y49153D01*
X42755Y49052D01*
Y48948D01*
X42782Y48847D01*
X42834Y48757D01*
X42907Y48684D01*
X42997Y48632D01*
X43098Y48605D01*
X43202D01*
X43303Y48632D01*
X43393Y48684D01*
X43466Y48757D01*
X43518Y48847D01*
X43545Y48948D01*
Y49052D01*
X43518Y49153D01*
X43466Y49243D01*
X43393Y49316D01*
X43303Y49368D01*
X43202Y49395D01*
D02*
G37*
G36*
X32452D02*
X32348D01*
X32247Y49368D01*
X32157Y49316D01*
X32084Y49243D01*
X32032Y49153D01*
X32005Y49052D01*
Y48948D01*
X32032Y48847D01*
X32084Y48757D01*
X32157Y48684D01*
X32247Y48632D01*
X32348Y48605D01*
X32452D01*
X32553Y48632D01*
X32643Y48684D01*
X32716Y48757D01*
X32768Y48847D01*
X32795Y48948D01*
Y49052D01*
X32768Y49153D01*
X32716Y49243D01*
X32643Y49316D01*
X32553Y49368D01*
X32452Y49395D01*
D02*
G37*
G36*
X43202Y48395D02*
X43098D01*
X42997Y48368D01*
X42907Y48316D01*
X42834Y48243D01*
X42782Y48153D01*
X42755Y48052D01*
Y47948D01*
X42782Y47847D01*
X42834Y47757D01*
X42907Y47684D01*
X42997Y47632D01*
X43098Y47605D01*
X43202D01*
X43303Y47632D01*
X43393Y47684D01*
X43466Y47757D01*
X43518Y47847D01*
X43545Y47948D01*
Y48052D01*
X43518Y48153D01*
X43466Y48243D01*
X43393Y48316D01*
X43303Y48368D01*
X43202Y48395D01*
D02*
G37*
G36*
X32452D02*
X32348D01*
X32247Y48368D01*
X32157Y48316D01*
X32084Y48243D01*
X32032Y48153D01*
X32005Y48052D01*
Y47948D01*
X32032Y47847D01*
X32084Y47757D01*
X32157Y47684D01*
X32247Y47632D01*
X32348Y47605D01*
X32452D01*
X32553Y47632D01*
X32643Y47684D01*
X32716Y47757D01*
X32768Y47847D01*
X32795Y47948D01*
Y48052D01*
X32768Y48153D01*
X32716Y48243D01*
X32643Y48316D01*
X32553Y48368D01*
X32452Y48395D01*
D02*
G37*
G36*
X68657Y48591D02*
X68519D01*
X68384Y48564D01*
X68256Y48511D01*
X68142Y48434D01*
X68044Y48337D01*
X67967Y48222D01*
X67915Y48095D01*
X67888Y47959D01*
Y47822D01*
X67915Y47686D01*
X67967Y47559D01*
X68044Y47444D01*
X68142Y47347D01*
X68256Y47270D01*
X68384Y47217D01*
X68519Y47191D01*
X68657D01*
X68792Y47217D01*
X68919Y47270D01*
X69034Y47347D01*
X69132Y47444D01*
X69208Y47559D01*
X69261Y47686D01*
X69288Y47822D01*
Y47959D01*
X69261Y48095D01*
X69208Y48222D01*
X69132Y48337D01*
X69034Y48434D01*
X68919Y48511D01*
X68792Y48564D01*
X68657Y48591D01*
D02*
G37*
G36*
X63857D02*
X63719D01*
X63584Y48564D01*
X63456Y48511D01*
X63342Y48434D01*
X63244Y48337D01*
X63167Y48222D01*
X63115Y48095D01*
X63088Y47959D01*
Y47822D01*
X63115Y47686D01*
X63167Y47559D01*
X63244Y47444D01*
X63342Y47347D01*
X63456Y47270D01*
X63584Y47217D01*
X63719Y47191D01*
X63857D01*
X63992Y47217D01*
X64119Y47270D01*
X64234Y47347D01*
X64332Y47444D01*
X64408Y47559D01*
X64461Y47686D01*
X64488Y47822D01*
Y47959D01*
X64461Y48095D01*
X64408Y48222D01*
X64332Y48337D01*
X64234Y48434D01*
X64119Y48511D01*
X63992Y48564D01*
X63857Y48591D01*
D02*
G37*
G36*
X60957Y48541D02*
X60819D01*
X60684Y48514D01*
X60556Y48461D01*
X60442Y48384D01*
X60344Y48287D01*
X60267Y48172D01*
X60215Y48045D01*
X60188Y47909D01*
Y47772D01*
X60215Y47636D01*
X60267Y47509D01*
X60344Y47394D01*
X60442Y47297D01*
X60556Y47220D01*
X60684Y47167D01*
X60819Y47141D01*
X60957D01*
X61092Y47167D01*
X61219Y47220D01*
X61334Y47297D01*
X61432Y47394D01*
X61508Y47509D01*
X61561Y47636D01*
X61588Y47772D01*
Y47909D01*
X61561Y48045D01*
X61508Y48172D01*
X61432Y48287D01*
X61334Y48384D01*
X61219Y48461D01*
X61092Y48514D01*
X60957Y48541D01*
D02*
G37*
G36*
X56157D02*
X56019D01*
X55884Y48514D01*
X55756Y48461D01*
X55642Y48384D01*
X55544Y48287D01*
X55467Y48172D01*
X55415Y48045D01*
X55388Y47909D01*
Y47772D01*
X55415Y47636D01*
X55467Y47509D01*
X55544Y47394D01*
X55642Y47297D01*
X55756Y47220D01*
X55884Y47167D01*
X56019Y47141D01*
X56157D01*
X56292Y47167D01*
X56419Y47220D01*
X56534Y47297D01*
X56632Y47394D01*
X56708Y47509D01*
X56761Y47636D01*
X56788Y47772D01*
Y47909D01*
X56761Y48045D01*
X56708Y48172D01*
X56632Y48287D01*
X56534Y48384D01*
X56419Y48461D01*
X56292Y48514D01*
X56157Y48541D01*
D02*
G37*
G36*
X53069Y48403D02*
X52931D01*
X52796Y48376D01*
X52668Y48323D01*
X52554Y48247D01*
X52456Y48149D01*
X52380Y48035D01*
X52327Y47907D01*
X52300Y47772D01*
Y47634D01*
X52327Y47499D01*
X52380Y47372D01*
X52456Y47257D01*
X52554Y47159D01*
X52668Y47083D01*
X52796Y47030D01*
X52931Y47003D01*
X53069D01*
X53204Y47030D01*
X53332Y47083D01*
X53446Y47159D01*
X53544Y47257D01*
X53620Y47372D01*
X53673Y47499D01*
X53700Y47634D01*
Y47772D01*
X53673Y47907D01*
X53620Y48035D01*
X53544Y48149D01*
X53446Y48247D01*
X53332Y48323D01*
X53204Y48376D01*
X53069Y48403D01*
D02*
G37*
G36*
X48269D02*
X48131D01*
X47996Y48376D01*
X47868Y48323D01*
X47754Y48247D01*
X47656Y48149D01*
X47580Y48035D01*
X47527Y47907D01*
X47500Y47772D01*
Y47634D01*
X47527Y47499D01*
X47580Y47372D01*
X47656Y47257D01*
X47754Y47159D01*
X47868Y47083D01*
X47996Y47030D01*
X48131Y47003D01*
X48269D01*
X48404Y47030D01*
X48532Y47083D01*
X48646Y47159D01*
X48744Y47257D01*
X48820Y47372D01*
X48873Y47499D01*
X48900Y47634D01*
Y47772D01*
X48873Y47907D01*
X48820Y48035D01*
X48744Y48149D01*
X48646Y48247D01*
X48532Y48323D01*
X48404Y48376D01*
X48269Y48403D01*
D02*
G37*
G36*
X43202Y47395D02*
X43098D01*
X42997Y47368D01*
X42907Y47316D01*
X42834Y47243D01*
X42782Y47153D01*
X42755Y47052D01*
Y46948D01*
X42782Y46847D01*
X42834Y46757D01*
X42907Y46684D01*
X42997Y46632D01*
X43098Y46605D01*
X43202D01*
X43303Y46632D01*
X43393Y46684D01*
X43466Y46757D01*
X43518Y46847D01*
X43545Y46948D01*
Y47052D01*
X43518Y47153D01*
X43466Y47243D01*
X43393Y47316D01*
X43303Y47368D01*
X43202Y47395D01*
D02*
G37*
G36*
X32452D02*
X32348D01*
X32247Y47368D01*
X32157Y47316D01*
X32084Y47243D01*
X32032Y47153D01*
X32005Y47052D01*
Y46948D01*
X32032Y46847D01*
X32084Y46757D01*
X32157Y46684D01*
X32247Y46632D01*
X32348Y46605D01*
X32452D01*
X32553Y46632D01*
X32643Y46684D01*
X32716Y46757D01*
X32768Y46847D01*
X32795Y46948D01*
Y47052D01*
X32768Y47153D01*
X32716Y47243D01*
X32643Y47316D01*
X32553Y47368D01*
X32452Y47395D01*
D02*
G37*
G36*
X43202Y46395D02*
X43098D01*
X42997Y46368D01*
X42907Y46316D01*
X42834Y46243D01*
X42782Y46153D01*
X42755Y46052D01*
Y45948D01*
X42782Y45847D01*
X42834Y45757D01*
X42907Y45684D01*
X42997Y45632D01*
X43098Y45605D01*
X43202D01*
X43303Y45632D01*
X43393Y45684D01*
X43466Y45757D01*
X43518Y45847D01*
X43545Y45948D01*
Y46052D01*
X43518Y46153D01*
X43466Y46243D01*
X43393Y46316D01*
X43303Y46368D01*
X43202Y46395D01*
D02*
G37*
G36*
X32452D02*
X32348D01*
X32247Y46368D01*
X32157Y46316D01*
X32084Y46243D01*
X32032Y46153D01*
X32005Y46052D01*
Y45948D01*
X32032Y45847D01*
X32084Y45757D01*
X32157Y45684D01*
X32247Y45632D01*
X32348Y45605D01*
X32452D01*
X32553Y45632D01*
X32643Y45684D01*
X32716Y45757D01*
X32768Y45847D01*
X32795Y45948D01*
Y46052D01*
X32768Y46153D01*
X32716Y46243D01*
X32643Y46316D01*
X32553Y46368D01*
X32452Y46395D01*
D02*
G37*
G36*
X14173Y45535D02*
Y45236D01*
X14472D01*
X14449Y45321D01*
X14403Y45401D01*
X14338Y45466D01*
X14258Y45512D01*
X14173Y45535D01*
D02*
G37*
G36*
X14073D02*
X13988Y45512D01*
X13908Y45466D01*
X13843Y45401D01*
X13797Y45321D01*
X13774Y45236D01*
X14073D01*
Y45535D01*
D02*
G37*
G36*
X43202Y45395D02*
X43200D01*
Y45050D01*
X43545D01*
Y45052D01*
X43518Y45153D01*
X43466Y45243D01*
X43393Y45316D01*
X43303Y45368D01*
X43202Y45395D01*
D02*
G37*
G36*
X43100D02*
X43098D01*
X42997Y45368D01*
X42907Y45316D01*
X42834Y45243D01*
X42782Y45153D01*
X42755Y45052D01*
Y45050D01*
X43100D01*
Y45395D01*
D02*
G37*
G36*
X14472Y45136D02*
X14173D01*
Y44837D01*
X14258Y44860D01*
X14338Y44906D01*
X14403Y44971D01*
X14449Y45051D01*
X14472Y45136D01*
D02*
G37*
G36*
X14073D02*
X13774D01*
X13797Y45051D01*
X13843Y44971D01*
X13908Y44906D01*
X13988Y44860D01*
X14073Y44837D01*
Y45136D01*
D02*
G37*
G36*
X43545Y44950D02*
X43200D01*
Y44605D01*
X43202D01*
X43303Y44632D01*
X43393Y44684D01*
X43466Y44757D01*
X43518Y44847D01*
X43545Y44948D01*
Y44950D01*
D02*
G37*
G36*
X43100D02*
X42755D01*
Y44948D01*
X42782Y44847D01*
X42834Y44757D01*
X42907Y44684D01*
X42997Y44632D01*
X43098Y44605D01*
X43100D01*
Y44950D01*
D02*
G37*
G36*
X32795Y45395D02*
X32005D01*
Y44605D01*
X32795D01*
Y45395D01*
D02*
G37*
G36*
X68581Y43787D02*
X68443D01*
X68308Y43760D01*
X68181Y43708D01*
X68066Y43631D01*
X67968Y43534D01*
X67892Y43419D01*
X67839Y43292D01*
X67812Y43156D01*
Y43018D01*
X67839Y42883D01*
X67892Y42756D01*
X67968Y42641D01*
X68066Y42544D01*
X68181Y42467D01*
X68308Y42414D01*
X68443Y42387D01*
X68581D01*
X68716Y42414D01*
X68844Y42467D01*
X68958Y42544D01*
X69056Y42641D01*
X69133Y42756D01*
X69185Y42883D01*
X69212Y43018D01*
Y43156D01*
X69185Y43292D01*
X69133Y43419D01*
X69056Y43534D01*
X68958Y43631D01*
X68844Y43708D01*
X68716Y43760D01*
X68581Y43787D01*
D02*
G37*
G36*
X63857D02*
X63719D01*
X63584Y43760D01*
X63456Y43708D01*
X63342Y43631D01*
X63244Y43534D01*
X63167Y43419D01*
X63115Y43292D01*
X63088Y43156D01*
Y43018D01*
X63115Y42883D01*
X63167Y42756D01*
X63244Y42641D01*
X63342Y42544D01*
X63456Y42467D01*
X63584Y42414D01*
X63719Y42387D01*
X63857D01*
X63992Y42414D01*
X64119Y42467D01*
X64234Y42544D01*
X64332Y42641D01*
X64408Y42756D01*
X64461Y42883D01*
X64488Y43018D01*
Y43156D01*
X64461Y43292D01*
X64408Y43419D01*
X64332Y43534D01*
X64234Y43631D01*
X64119Y43708D01*
X63992Y43760D01*
X63857Y43787D01*
D02*
G37*
G36*
X60881Y43737D02*
X60743D01*
X60608Y43710D01*
X60481Y43658D01*
X60366Y43581D01*
X60268Y43484D01*
X60192Y43369D01*
X60139Y43242D01*
X60112Y43106D01*
Y42968D01*
X60139Y42833D01*
X60192Y42706D01*
X60268Y42591D01*
X60366Y42494D01*
X60481Y42417D01*
X60608Y42364D01*
X60743Y42337D01*
X60881D01*
X61016Y42364D01*
X61144Y42417D01*
X61258Y42494D01*
X61356Y42591D01*
X61433Y42706D01*
X61485Y42833D01*
X61512Y42968D01*
Y43106D01*
X61485Y43242D01*
X61433Y43369D01*
X61356Y43484D01*
X61258Y43581D01*
X61144Y43658D01*
X61016Y43710D01*
X60881Y43737D01*
D02*
G37*
G36*
X56157D02*
X56019D01*
X55884Y43710D01*
X55756Y43658D01*
X55642Y43581D01*
X55544Y43484D01*
X55467Y43369D01*
X55415Y43242D01*
X55388Y43106D01*
Y42968D01*
X55415Y42833D01*
X55467Y42706D01*
X55544Y42591D01*
X55642Y42494D01*
X55756Y42417D01*
X55884Y42364D01*
X56019Y42337D01*
X56157D01*
X56292Y42364D01*
X56419Y42417D01*
X56534Y42494D01*
X56632Y42591D01*
X56708Y42706D01*
X56761Y42833D01*
X56788Y42968D01*
Y43106D01*
X56761Y43242D01*
X56708Y43369D01*
X56632Y43484D01*
X56534Y43581D01*
X56419Y43658D01*
X56292Y43710D01*
X56157Y43737D01*
D02*
G37*
G36*
X52993Y43600D02*
X52855D01*
X52720Y43573D01*
X52593Y43520D01*
X52478Y43444D01*
X52381Y43346D01*
X52304Y43232D01*
X52251Y43104D01*
X52224Y42969D01*
Y42831D01*
X52251Y42696D01*
X52304Y42568D01*
X52381Y42454D01*
X52478Y42356D01*
X52593Y42280D01*
X52720Y42227D01*
X52855Y42200D01*
X52993D01*
X53129Y42227D01*
X53256Y42280D01*
X53371Y42356D01*
X53468Y42454D01*
X53545Y42568D01*
X53598Y42696D01*
X53624Y42831D01*
Y42969D01*
X53598Y43104D01*
X53545Y43232D01*
X53468Y43346D01*
X53371Y43444D01*
X53256Y43520D01*
X53129Y43573D01*
X52993Y43600D01*
D02*
G37*
G36*
X48269D02*
X48131D01*
X47996Y43573D01*
X47868Y43520D01*
X47754Y43444D01*
X47656Y43346D01*
X47580Y43232D01*
X47527Y43104D01*
X47500Y42969D01*
Y42831D01*
X47527Y42696D01*
X47580Y42568D01*
X47656Y42454D01*
X47754Y42356D01*
X47868Y42280D01*
X47996Y42227D01*
X48131Y42200D01*
X48269D01*
X48404Y42227D01*
X48532Y42280D01*
X48646Y42356D01*
X48744Y42454D01*
X48820Y42568D01*
X48873Y42696D01*
X48900Y42831D01*
Y42969D01*
X48873Y43104D01*
X48820Y43232D01*
X48744Y43346D01*
X48646Y43444D01*
X48532Y43520D01*
X48404Y43573D01*
X48269Y43600D01*
D02*
G37*
G36*
X66219Y43000D02*
X66081D01*
X65946Y42973D01*
X65818Y42920D01*
X65704Y42844D01*
X65606Y42746D01*
X65530Y42632D01*
X65477Y42504D01*
X65450Y42369D01*
Y42231D01*
X65477Y42096D01*
X65530Y41968D01*
X65606Y41854D01*
X65704Y41756D01*
X65818Y41680D01*
X65946Y41627D01*
X66081Y41600D01*
X66219D01*
X66354Y41627D01*
X66482Y41680D01*
X66596Y41756D01*
X66694Y41854D01*
X66770Y41968D01*
X66823Y42096D01*
X66850Y42231D01*
Y42369D01*
X66823Y42504D01*
X66770Y42632D01*
X66694Y42746D01*
X66596Y42844D01*
X66482Y42920D01*
X66354Y42973D01*
X66219Y43000D01*
D02*
G37*
G36*
X58519Y42950D02*
X58381D01*
X58246Y42923D01*
X58118Y42870D01*
X58004Y42794D01*
X57906Y42696D01*
X57830Y42582D01*
X57777Y42454D01*
X57750Y42319D01*
Y42181D01*
X57777Y42046D01*
X57830Y41918D01*
X57906Y41804D01*
X58004Y41706D01*
X58118Y41630D01*
X58246Y41577D01*
X58381Y41550D01*
X58519D01*
X58654Y41577D01*
X58782Y41630D01*
X58896Y41706D01*
X58994Y41804D01*
X59070Y41918D01*
X59123Y42046D01*
X59150Y42181D01*
Y42319D01*
X59123Y42454D01*
X59070Y42582D01*
X58994Y42696D01*
X58896Y42794D01*
X58782Y42870D01*
X58654Y42923D01*
X58519Y42950D01*
D02*
G37*
G36*
X50631Y42813D02*
X50493D01*
X50358Y42786D01*
X50231Y42733D01*
X50116Y42656D01*
X50018Y42559D01*
X49942Y42444D01*
X49889Y42317D01*
X49862Y42182D01*
Y42044D01*
X49889Y41908D01*
X49942Y41781D01*
X50018Y41666D01*
X50116Y41569D01*
X50231Y41492D01*
X50358Y41439D01*
X50493Y41413D01*
X50631D01*
X50766Y41439D01*
X50894Y41492D01*
X51008Y41569D01*
X51106Y41666D01*
X51183Y41781D01*
X51235Y41908D01*
X51262Y42044D01*
Y42182D01*
X51235Y42317D01*
X51183Y42444D01*
X51106Y42559D01*
X51008Y42656D01*
X50894Y42733D01*
X50766Y42786D01*
X50631Y42813D01*
D02*
G37*
G36*
X24796Y45100D02*
X24704D01*
X24615Y45076D01*
X24535Y45030D01*
X24470Y44965D01*
X24424Y44885D01*
X24412Y44840D01*
X22736Y43164D01*
X22688Y43101D01*
X22658Y43028D01*
X22647Y42950D01*
Y40676D01*
X22624Y40635D01*
X22600Y40546D01*
Y40454D01*
X22624Y40365D01*
X22670Y40285D01*
X22735Y40220D01*
X22815Y40174D01*
X22904Y40150D01*
X22996D01*
X23085Y40174D01*
X23165Y40220D01*
X23230Y40285D01*
X23276Y40365D01*
X23300Y40454D01*
Y40546D01*
X23276Y40635D01*
X23253Y40676D01*
Y42825D01*
X24840Y44412D01*
X24885Y44424D01*
X24965Y44470D01*
X25030Y44535D01*
X25076Y44615D01*
X25100Y44704D01*
Y44796D01*
X25076Y44885D01*
X25030Y44965D01*
X24965Y45030D01*
X24885Y45076D01*
X24796Y45100D01*
D02*
G37*
G36*
X31102Y39145D02*
X31100D01*
Y38800D01*
X31445D01*
Y38802D01*
X31418Y38903D01*
X31366Y38993D01*
X31293Y39066D01*
X31203Y39118D01*
X31102Y39145D01*
D02*
G37*
G36*
X31000D02*
X30998D01*
X30897Y39118D01*
X30807Y39066D01*
X30734Y38993D01*
X30682Y38903D01*
X30655Y38802D01*
Y38800D01*
X31000D01*
Y39145D01*
D02*
G37*
G36*
X43200Y39853D02*
X26450D01*
X26372Y39842D01*
X26299Y39812D01*
X26236Y39764D01*
X25697Y39225D01*
X25649Y39162D01*
X25618Y39089D01*
X25608Y39011D01*
Y38965D01*
X25423Y38780D01*
X25415Y38778D01*
X25335Y38732D01*
X25270Y38667D01*
X25224Y38587D01*
X25200Y38498D01*
Y38406D01*
X25224Y38317D01*
X25270Y38237D01*
X25335Y38172D01*
X25415Y38126D01*
X25504Y38102D01*
X25596D01*
X25685Y38126D01*
X25765Y38172D01*
X25830Y38237D01*
X25876Y38317D01*
X25898Y38399D01*
X26125Y38626D01*
X26173Y38688D01*
X26203Y38761D01*
X26213Y38840D01*
Y38885D01*
X26575Y39247D01*
X43075D01*
X43436Y38886D01*
X43499Y38838D01*
X43572Y38808D01*
X43650Y38797D01*
X43974D01*
X44015Y38774D01*
X44104Y38750D01*
X44196D01*
X44285Y38774D01*
X44365Y38820D01*
X44430Y38885D01*
X44476Y38965D01*
X44500Y39054D01*
Y39146D01*
X44476Y39235D01*
X44430Y39315D01*
X44365Y39380D01*
X44285Y39426D01*
X44196Y39450D01*
X44104D01*
X44015Y39426D01*
X43974Y39403D01*
X43775D01*
X43414Y39764D01*
X43351Y39812D01*
X43278Y39842D01*
X43200Y39853D01*
D02*
G37*
G36*
X41102Y39145D02*
X40998D01*
X40897Y39118D01*
X40807Y39066D01*
X40734Y38993D01*
X40682Y38903D01*
X40655Y38802D01*
Y38698D01*
X40682Y38597D01*
X40734Y38507D01*
X40807Y38434D01*
X40897Y38382D01*
X40998Y38355D01*
X41102D01*
X41203Y38382D01*
X41293Y38434D01*
X41366Y38507D01*
X41418Y38597D01*
X41445Y38698D01*
Y38802D01*
X41418Y38903D01*
X41366Y38993D01*
X41293Y39066D01*
X41203Y39118D01*
X41102Y39145D01*
D02*
G37*
G36*
X40102D02*
X39998D01*
X39897Y39118D01*
X39807Y39066D01*
X39734Y38993D01*
X39682Y38903D01*
X39655Y38802D01*
Y38698D01*
X39682Y38597D01*
X39734Y38507D01*
X39807Y38434D01*
X39897Y38382D01*
X39998Y38355D01*
X40102D01*
X40203Y38382D01*
X40293Y38434D01*
X40366Y38507D01*
X40418Y38597D01*
X40445Y38698D01*
Y38802D01*
X40418Y38903D01*
X40366Y38993D01*
X40293Y39066D01*
X40203Y39118D01*
X40102Y39145D01*
D02*
G37*
G36*
X39102D02*
X38998D01*
X38897Y39118D01*
X38807Y39066D01*
X38734Y38993D01*
X38682Y38903D01*
X38655Y38802D01*
Y38698D01*
X38682Y38597D01*
X38734Y38507D01*
X38807Y38434D01*
X38897Y38382D01*
X38998Y38355D01*
X39102D01*
X39203Y38382D01*
X39293Y38434D01*
X39366Y38507D01*
X39418Y38597D01*
X39445Y38698D01*
Y38802D01*
X39418Y38903D01*
X39366Y38993D01*
X39293Y39066D01*
X39203Y39118D01*
X39102Y39145D01*
D02*
G37*
G36*
X38102D02*
X37998D01*
X37897Y39118D01*
X37807Y39066D01*
X37734Y38993D01*
X37682Y38903D01*
X37655Y38802D01*
Y38698D01*
X37682Y38597D01*
X37734Y38507D01*
X37807Y38434D01*
X37897Y38382D01*
X37998Y38355D01*
X38102D01*
X38203Y38382D01*
X38293Y38434D01*
X38366Y38507D01*
X38418Y38597D01*
X38445Y38698D01*
Y38802D01*
X38418Y38903D01*
X38366Y38993D01*
X38293Y39066D01*
X38203Y39118D01*
X38102Y39145D01*
D02*
G37*
G36*
X37102D02*
X36998D01*
X36897Y39118D01*
X36807Y39066D01*
X36734Y38993D01*
X36682Y38903D01*
X36655Y38802D01*
Y38698D01*
X36682Y38597D01*
X36734Y38507D01*
X36807Y38434D01*
X36897Y38382D01*
X36998Y38355D01*
X37102D01*
X37203Y38382D01*
X37293Y38434D01*
X37366Y38507D01*
X37418Y38597D01*
X37445Y38698D01*
Y38802D01*
X37418Y38903D01*
X37366Y38993D01*
X37293Y39066D01*
X37203Y39118D01*
X37102Y39145D01*
D02*
G37*
G36*
X36102D02*
X35998D01*
X35897Y39118D01*
X35807Y39066D01*
X35734Y38993D01*
X35682Y38903D01*
X35655Y38802D01*
Y38698D01*
X35682Y38597D01*
X35734Y38507D01*
X35807Y38434D01*
X35897Y38382D01*
X35998Y38355D01*
X36102D01*
X36203Y38382D01*
X36293Y38434D01*
X36366Y38507D01*
X36418Y38597D01*
X36445Y38698D01*
Y38802D01*
X36418Y38903D01*
X36366Y38993D01*
X36293Y39066D01*
X36203Y39118D01*
X36102Y39145D01*
D02*
G37*
G36*
X35102D02*
X34998D01*
X34897Y39118D01*
X34807Y39066D01*
X34734Y38993D01*
X34682Y38903D01*
X34655Y38802D01*
Y38698D01*
X34682Y38597D01*
X34734Y38507D01*
X34807Y38434D01*
X34897Y38382D01*
X34998Y38355D01*
X35102D01*
X35203Y38382D01*
X35293Y38434D01*
X35366Y38507D01*
X35418Y38597D01*
X35445Y38698D01*
Y38802D01*
X35418Y38903D01*
X35366Y38993D01*
X35293Y39066D01*
X35203Y39118D01*
X35102Y39145D01*
D02*
G37*
G36*
X34102D02*
X33998D01*
X33897Y39118D01*
X33807Y39066D01*
X33734Y38993D01*
X33682Y38903D01*
X33655Y38802D01*
Y38698D01*
X33682Y38597D01*
X33734Y38507D01*
X33807Y38434D01*
X33897Y38382D01*
X33998Y38355D01*
X34102D01*
X34203Y38382D01*
X34293Y38434D01*
X34366Y38507D01*
X34418Y38597D01*
X34445Y38698D01*
Y38802D01*
X34418Y38903D01*
X34366Y38993D01*
X34293Y39066D01*
X34203Y39118D01*
X34102Y39145D01*
D02*
G37*
G36*
X33102D02*
X32998D01*
X32897Y39118D01*
X32807Y39066D01*
X32734Y38993D01*
X32682Y38903D01*
X32655Y38802D01*
Y38698D01*
X32682Y38597D01*
X32734Y38507D01*
X32807Y38434D01*
X32897Y38382D01*
X32998Y38355D01*
X33102D01*
X33203Y38382D01*
X33293Y38434D01*
X33366Y38507D01*
X33418Y38597D01*
X33445Y38698D01*
Y38802D01*
X33418Y38903D01*
X33366Y38993D01*
X33293Y39066D01*
X33203Y39118D01*
X33102Y39145D01*
D02*
G37*
G36*
X32102D02*
X31998D01*
X31897Y39118D01*
X31807Y39066D01*
X31734Y38993D01*
X31682Y38903D01*
X31655Y38802D01*
Y38698D01*
X31682Y38597D01*
X31734Y38507D01*
X31807Y38434D01*
X31897Y38382D01*
X31998Y38355D01*
X32102D01*
X32203Y38382D01*
X32293Y38434D01*
X32366Y38507D01*
X32418Y38597D01*
X32445Y38698D01*
Y38802D01*
X32418Y38903D01*
X32366Y38993D01*
X32293Y39066D01*
X32203Y39118D01*
X32102Y39145D01*
D02*
G37*
G36*
X31445Y38700D02*
X31100D01*
Y38355D01*
X31102D01*
X31203Y38382D01*
X31293Y38434D01*
X31366Y38507D01*
X31418Y38597D01*
X31445Y38698D01*
Y38700D01*
D02*
G37*
G36*
X31000D02*
X30655D01*
Y38698D01*
X30682Y38597D01*
X30734Y38507D01*
X30807Y38434D01*
X30897Y38382D01*
X30998Y38355D01*
X31000D01*
Y38700D01*
D02*
G37*
G36*
X30445Y39145D02*
X29655D01*
Y38355D01*
X30445D01*
Y39145D01*
D02*
G37*
G36*
X51196Y39500D02*
X51104D01*
X51015Y39476D01*
X50935Y39430D01*
X50870Y39365D01*
X50824Y39285D01*
X50800Y39196D01*
Y39104D01*
X50824Y39015D01*
X50870Y38935D01*
X50935Y38870D01*
X51015Y38824D01*
X51060Y38812D01*
X51836Y38036D01*
X51899Y37988D01*
X51972Y37958D01*
X52050Y37947D01*
X52324D01*
X52365Y37924D01*
X52454Y37900D01*
X52546D01*
X52635Y37924D01*
X52715Y37970D01*
X52780Y38035D01*
X52826Y38115D01*
X52850Y38204D01*
Y38296D01*
X52826Y38385D01*
X52780Y38465D01*
X52715Y38530D01*
X52635Y38576D01*
X52546Y38600D01*
X52454D01*
X52365Y38576D01*
X52324Y38553D01*
X52175D01*
X51488Y39240D01*
X51476Y39285D01*
X51430Y39365D01*
X51365Y39430D01*
X51285Y39476D01*
X51196Y39500D01*
D02*
G37*
G36*
X11450Y37949D02*
Y37650D01*
X11749D01*
X11726Y37735D01*
X11680Y37815D01*
X11615Y37880D01*
X11535Y37926D01*
X11450Y37949D01*
D02*
G37*
G36*
X11350D02*
X11265Y37926D01*
X11185Y37880D01*
X11120Y37815D01*
X11074Y37735D01*
X11051Y37650D01*
X11350D01*
Y37949D01*
D02*
G37*
G36*
X69000Y37849D02*
Y37550D01*
X69299D01*
X69276Y37635D01*
X69230Y37715D01*
X69165Y37780D01*
X69085Y37826D01*
X69000Y37849D01*
D02*
G37*
G36*
X68900D02*
X68815Y37826D01*
X68735Y37780D01*
X68670Y37715D01*
X68624Y37635D01*
X68601Y37550D01*
X68900D01*
Y37849D01*
D02*
G37*
G36*
X11749Y37550D02*
X11450D01*
Y37251D01*
X11535Y37274D01*
X11615Y37320D01*
X11680Y37385D01*
X11726Y37465D01*
X11749Y37550D01*
D02*
G37*
G36*
X11350D02*
X11051D01*
X11074Y37465D01*
X11120Y37385D01*
X11185Y37320D01*
X11265Y37274D01*
X11350Y37251D01*
Y37550D01*
D02*
G37*
G36*
X33129Y37153D02*
X33129Y37153D01*
X25163D01*
X25163Y37153D01*
X25071Y37134D01*
X24994Y37082D01*
X24994Y37082D01*
X22641Y34730D01*
X22626Y34739D01*
X22600Y34760D01*
Y34846D01*
X22576Y34935D01*
X22530Y35015D01*
X22465Y35080D01*
X22385Y35126D01*
X22296Y35150D01*
X22204D01*
X22115Y35126D01*
X22074Y35103D01*
X21675D01*
X21188Y35590D01*
X21176Y35635D01*
X21130Y35715D01*
X21065Y35780D01*
X20985Y35826D01*
X20896Y35850D01*
X20804D01*
X20715Y35826D01*
X20635Y35780D01*
X20570Y35715D01*
X20524Y35635D01*
X20500Y35546D01*
Y35454D01*
X20524Y35365D01*
X20570Y35285D01*
X20635Y35220D01*
X20715Y35174D01*
X20760Y35162D01*
X21336Y34586D01*
X21336Y34586D01*
X21399Y34538D01*
X21472Y34508D01*
X21550Y34497D01*
X22074D01*
X22115Y34474D01*
X22204Y34450D01*
X22290D01*
X22311Y34424D01*
X22320Y34409D01*
X21983Y34072D01*
X21958Y34062D01*
X21888Y33992D01*
X21850Y33900D01*
Y33800D01*
X21888Y33708D01*
X21958Y33638D01*
X22050Y33600D01*
X22150D01*
X22242Y33638D01*
X22312Y33708D01*
X22322Y33733D01*
X25262Y36673D01*
X29244D01*
X29263Y36627D01*
X28429Y35793D01*
X28381Y35731D01*
X28351Y35658D01*
X28340Y35579D01*
Y34021D01*
X28351Y33942D01*
X28381Y33869D01*
X28429Y33807D01*
X28844Y33392D01*
X28843Y33389D01*
Y33259D01*
X28877Y33133D01*
X28942Y33020D01*
X29033Y32929D01*
X29146Y32864D01*
X29172Y32857D01*
Y32806D01*
X29146Y32799D01*
X29033Y32734D01*
X28942Y32643D01*
X28877Y32530D01*
X28843Y32404D01*
Y32274D01*
X28877Y32149D01*
X28942Y32036D01*
X29033Y31944D01*
X29146Y31879D01*
X29172Y31872D01*
Y31822D01*
X29146Y31815D01*
X29033Y31750D01*
X28942Y31658D01*
X28877Y31546D01*
X28843Y31420D01*
Y31290D01*
X28877Y31165D01*
X28942Y31052D01*
X29033Y30960D01*
X29146Y30895D01*
X29172Y30888D01*
Y30838D01*
X29146Y30831D01*
X29033Y30766D01*
X28942Y30674D01*
X28877Y30561D01*
X28843Y30436D01*
Y30306D01*
X28877Y30180D01*
X28942Y30068D01*
X29033Y29976D01*
X29146Y29911D01*
X29272Y29877D01*
X29402D01*
X29527Y29911D01*
X29640Y29976D01*
X29732Y30068D01*
X29797Y30180D01*
X29830Y30306D01*
Y30436D01*
X29797Y30561D01*
X29732Y30674D01*
X29640Y30766D01*
X29527Y30831D01*
X29501Y30838D01*
Y30888D01*
X29527Y30895D01*
X29640Y30960D01*
X29732Y31052D01*
X29797Y31165D01*
X29830Y31290D01*
Y31420D01*
X29797Y31546D01*
X29732Y31658D01*
X29640Y31750D01*
X29527Y31815D01*
X29501Y31822D01*
Y31872D01*
X29527Y31879D01*
X29640Y31944D01*
X29732Y32036D01*
X29797Y32149D01*
X29830Y32274D01*
Y32404D01*
X29797Y32530D01*
X29732Y32643D01*
X29640Y32734D01*
X29527Y32799D01*
X29501Y32806D01*
Y32857D01*
X29527Y32864D01*
X29640Y32929D01*
X29732Y33020D01*
X29797Y33133D01*
X29830Y33259D01*
Y33389D01*
X29797Y33514D01*
X29732Y33627D01*
X29640Y33719D01*
X29527Y33784D01*
X29501Y33791D01*
Y33841D01*
X29527Y33848D01*
X29640Y33913D01*
X29732Y34005D01*
X29797Y34117D01*
X29830Y34243D01*
Y34258D01*
X29337D01*
Y34358D01*
X29830D01*
Y34373D01*
X29797Y34498D01*
X29732Y34611D01*
X29640Y34703D01*
X29527Y34768D01*
X29501Y34775D01*
Y34825D01*
X29527Y34832D01*
X29640Y34897D01*
X29732Y34989D01*
X29797Y35102D01*
X29830Y35227D01*
Y35242D01*
X29337D01*
Y35342D01*
X29830D01*
Y35357D01*
X29797Y35483D01*
X29732Y35595D01*
X29640Y35687D01*
X29527Y35752D01*
X29402Y35786D01*
X29343D01*
X29323Y35832D01*
X29667Y36175D01*
X29948D01*
X29968Y36129D01*
X29926Y36087D01*
X29861Y35975D01*
X29827Y35849D01*
Y35719D01*
X29861Y35594D01*
X29926Y35481D01*
X30018Y35389D01*
X30130Y35324D01*
X30256Y35291D01*
X30386D01*
X30511Y35324D01*
X30624Y35389D01*
X30716Y35481D01*
X30781Y35594D01*
X30788Y35620D01*
X30838D01*
X30845Y35594D01*
X30910Y35481D01*
X31002Y35389D01*
X31115Y35324D01*
X31240Y35291D01*
X31255D01*
Y35784D01*
X31355D01*
Y35291D01*
X31370D01*
X31496Y35324D01*
X31608Y35389D01*
X31700Y35481D01*
X31765Y35594D01*
X31772Y35620D01*
X31822D01*
X31829Y35594D01*
X31894Y35481D01*
X31986Y35389D01*
X32099Y35324D01*
X32224Y35291D01*
X32354D01*
X32480Y35324D01*
X32593Y35389D01*
X32684Y35481D01*
X32749Y35594D01*
X32757Y35620D01*
X32806D01*
X32814Y35594D01*
X32879Y35481D01*
X32970Y35389D01*
X33083Y35324D01*
X33209Y35291D01*
X33339D01*
X33464Y35324D01*
X33577Y35389D01*
X33669Y35481D01*
X33734Y35594D01*
X33741Y35620D01*
X33791D01*
X33798Y35594D01*
X33863Y35481D01*
X33955Y35389D01*
X34067Y35324D01*
X34193Y35291D01*
X34323D01*
X34448Y35324D01*
X34561Y35389D01*
X34653Y35481D01*
X34718Y35594D01*
X34725Y35620D01*
X34775D01*
X34782Y35594D01*
X34847Y35481D01*
X34939Y35389D01*
X35052Y35324D01*
X35177Y35291D01*
X35307D01*
X35433Y35324D01*
X35545Y35389D01*
X35637Y35481D01*
X35702Y35594D01*
X35709Y35620D01*
X35759D01*
X35766Y35594D01*
X35831Y35481D01*
X35923Y35389D01*
X36036Y35324D01*
X36161Y35291D01*
X36291D01*
X36417Y35324D01*
X36530Y35389D01*
X36621Y35481D01*
X36686Y35594D01*
X36693Y35620D01*
X36744D01*
X36751Y35594D01*
X36816Y35481D01*
X36907Y35389D01*
X37020Y35324D01*
X37146Y35291D01*
X37276D01*
X37401Y35324D01*
X37514Y35389D01*
X37606Y35481D01*
X37671Y35594D01*
X37678Y35620D01*
X37728D01*
X37735Y35594D01*
X37800Y35481D01*
X37892Y35389D01*
X38004Y35324D01*
X38130Y35291D01*
X38260D01*
X38385Y35324D01*
X38498Y35389D01*
X38590Y35481D01*
X38655Y35594D01*
X38662Y35620D01*
X38712D01*
X38719Y35594D01*
X38784Y35481D01*
X38876Y35389D01*
X38989Y35324D01*
X39114Y35291D01*
X39244D01*
X39370Y35324D01*
X39482Y35389D01*
X39574Y35481D01*
X39639Y35594D01*
X39646Y35620D01*
X39696D01*
X39703Y35594D01*
X39768Y35481D01*
X39860Y35389D01*
X39973Y35324D01*
X40098Y35291D01*
X40228D01*
X40354Y35324D01*
X40467Y35389D01*
X40558Y35481D01*
X40623Y35594D01*
X40631Y35620D01*
X40681D01*
X40688Y35594D01*
X40753Y35481D01*
X40844Y35389D01*
X40957Y35324D01*
X40983Y35317D01*
Y35267D01*
X40957Y35260D01*
X40844Y35195D01*
X40753Y35103D01*
X40688Y34991D01*
X40654Y34865D01*
Y34735D01*
X40688Y34609D01*
X40753Y34497D01*
X40844Y34405D01*
X40957Y34340D01*
X40983Y34333D01*
Y34283D01*
X40957Y34276D01*
X40844Y34211D01*
X40753Y34119D01*
X40688Y34006D01*
X40654Y33881D01*
Y33751D01*
X40688Y33625D01*
X40753Y33513D01*
X40844Y33421D01*
X40957Y33356D01*
X40983Y33349D01*
Y33299D01*
X40957Y33292D01*
X40844Y33227D01*
X40753Y33135D01*
X40688Y33022D01*
X40654Y32896D01*
Y32882D01*
X41148D01*
Y32831D01*
D01*
Y32882D01*
X41641D01*
Y32896D01*
X41608Y33022D01*
X41543Y33135D01*
X41451Y33227D01*
X41338Y33292D01*
X41312Y33299D01*
Y33349D01*
X41338Y33356D01*
X41451Y33421D01*
X41543Y33513D01*
X41608Y33625D01*
X41641Y33751D01*
Y33881D01*
X41608Y34006D01*
X41543Y34119D01*
X41451Y34211D01*
X41338Y34276D01*
X41312Y34283D01*
Y34333D01*
X41338Y34340D01*
X41451Y34405D01*
X41543Y34497D01*
X41608Y34609D01*
X41641Y34735D01*
Y34865D01*
X41608Y34991D01*
X41543Y35103D01*
X41451Y35195D01*
X41338Y35260D01*
X41312Y35267D01*
Y35317D01*
X41338Y35324D01*
X41451Y35389D01*
X41543Y35481D01*
X41608Y35594D01*
X41641Y35719D01*
Y35849D01*
X41608Y35975D01*
X41543Y36087D01*
X41451Y36179D01*
X41338Y36244D01*
X41213Y36278D01*
X41083D01*
X40957Y36244D01*
X40844Y36179D01*
X40753Y36087D01*
X40688Y35975D01*
X40681Y35948D01*
X40631D01*
X40623Y35975D01*
X40558Y36087D01*
X40467Y36179D01*
X40354Y36244D01*
X40228Y36278D01*
X40098D01*
X39973Y36244D01*
X39860Y36179D01*
X39768Y36087D01*
X39703Y35975D01*
X39696Y35948D01*
X39646D01*
X39639Y35975D01*
X39574Y36087D01*
X39482Y36179D01*
X39370Y36244D01*
X39244Y36278D01*
X39114D01*
X38989Y36244D01*
X38876Y36179D01*
X38784Y36087D01*
X38719Y35975D01*
X38712Y35948D01*
X38662D01*
X38655Y35975D01*
X38590Y36087D01*
X38498Y36179D01*
X38385Y36244D01*
X38260Y36278D01*
X38130D01*
X38004Y36244D01*
X37892Y36179D01*
X37800Y36087D01*
X37735Y35975D01*
X37728Y35948D01*
X37678D01*
X37671Y35975D01*
X37606Y36087D01*
X37514Y36179D01*
X37401Y36244D01*
X37276Y36278D01*
X37146D01*
X37020Y36244D01*
X36907Y36179D01*
X36816Y36087D01*
X36751Y35975D01*
X36744Y35948D01*
X36693D01*
X36686Y35975D01*
X36621Y36087D01*
X36530Y36179D01*
X36417Y36244D01*
X36291Y36278D01*
X36161D01*
X36036Y36244D01*
X35923Y36179D01*
X35831Y36087D01*
X35766Y35975D01*
X35759Y35948D01*
X35709D01*
X35702Y35975D01*
X35637Y36087D01*
X35545Y36179D01*
X35433Y36244D01*
X35307Y36278D01*
X35177D01*
X35052Y36244D01*
X34939Y36179D01*
X34847Y36087D01*
X34782Y35975D01*
X34775Y35948D01*
X34725D01*
X34718Y35975D01*
X34653Y36087D01*
X34561Y36179D01*
X34448Y36244D01*
X34323Y36278D01*
X34193D01*
X34122Y36259D01*
X33299Y37082D01*
X33221Y37134D01*
X33129Y37153D01*
D02*
G37*
G36*
X69299Y37450D02*
X69000D01*
Y37151D01*
X69085Y37174D01*
X69165Y37220D01*
X69230Y37285D01*
X69276Y37365D01*
X69299Y37450D01*
D02*
G37*
G36*
X68900D02*
X68601D01*
X68624Y37365D01*
X68670Y37285D01*
X68735Y37220D01*
X68815Y37174D01*
X68900Y37151D01*
Y37450D01*
D02*
G37*
G36*
X20550Y37349D02*
Y37050D01*
X20849D01*
X20826Y37135D01*
X20780Y37215D01*
X20715Y37280D01*
X20635Y37326D01*
X20550Y37349D01*
D02*
G37*
G36*
X20450D02*
X20365Y37326D01*
X20285Y37280D01*
X20220Y37215D01*
X20174Y37135D01*
X20151Y37050D01*
X20450D01*
Y37349D01*
D02*
G37*
G36*
X20849Y36950D02*
X20550D01*
Y36651D01*
X20635Y36674D01*
X20715Y36720D01*
X20780Y36785D01*
X20826Y36865D01*
X20849Y36950D01*
D02*
G37*
G36*
X20450D02*
X20151D01*
X20174Y36865D01*
X20220Y36785D01*
X20285Y36720D01*
X20365Y36674D01*
X20450Y36651D01*
Y36950D01*
D02*
G37*
G36*
X66200Y36249D02*
Y35950D01*
X66499D01*
X66476Y36035D01*
X66430Y36115D01*
X66365Y36180D01*
X66285Y36226D01*
X66200Y36249D01*
D02*
G37*
G36*
X66100D02*
X66015Y36226D01*
X65935Y36180D01*
X65870Y36115D01*
X65824Y36035D01*
X65801Y35950D01*
X66100D01*
Y36249D01*
D02*
G37*
G36*
X11550Y39100D02*
X11450D01*
X11358Y39062D01*
X11288Y38992D01*
X11250Y38900D01*
Y38888D01*
X9606Y37244D01*
X9562Y37178D01*
X9546Y37100D01*
Y35800D01*
X9538Y35792D01*
X9500Y35700D01*
Y35600D01*
X9538Y35508D01*
X9608Y35438D01*
X9700Y35400D01*
X9800D01*
X9892Y35438D01*
X9962Y35508D01*
X10000Y35600D01*
Y35700D01*
X9962Y35792D01*
X9954Y35800D01*
Y37016D01*
X11538Y38600D01*
X11550D01*
X11642Y38638D01*
X11712Y38708D01*
X11750Y38800D01*
Y38900D01*
X11712Y38992D01*
X11642Y39062D01*
X11550Y39100D01*
D02*
G37*
G36*
X34815Y35294D02*
X34685D01*
X34559Y35260D01*
X34447Y35195D01*
X34355Y35103D01*
X34290Y34991D01*
X34283Y34964D01*
X34233D01*
X34226Y34991D01*
X34161Y35103D01*
X34069Y35195D01*
X33956Y35260D01*
X33831Y35294D01*
X33701D01*
X33575Y35260D01*
X33463Y35195D01*
X33371Y35103D01*
X33306Y34991D01*
X33272Y34865D01*
Y34735D01*
X33306Y34609D01*
X33371Y34497D01*
X33463Y34405D01*
X33575Y34340D01*
X33701Y34306D01*
X33831D01*
X33941Y34336D01*
X34215Y34062D01*
X34281Y34018D01*
X34359Y34002D01*
X37575D01*
X41159Y30419D01*
X41140Y30372D01*
X41083D01*
X40957Y30339D01*
X40844Y30274D01*
X40753Y30182D01*
X40688Y30069D01*
X40681Y30043D01*
X40631D01*
X40623Y30069D01*
X40558Y30182D01*
X40467Y30274D01*
X40354Y30339D01*
X40228Y30372D01*
X40098D01*
X39973Y30339D01*
X39860Y30274D01*
X39768Y30182D01*
X39703Y30069D01*
X39696Y30043D01*
X39646D01*
X39639Y30069D01*
X39574Y30182D01*
X39482Y30274D01*
X39370Y30339D01*
X39244Y30372D01*
X39114D01*
X38989Y30339D01*
X38876Y30274D01*
X38784Y30182D01*
X38719Y30069D01*
X38712Y30043D01*
X38662D01*
X38655Y30069D01*
X38590Y30182D01*
X38498Y30274D01*
X38385Y30339D01*
X38260Y30372D01*
X38130D01*
X38004Y30339D01*
X37892Y30274D01*
X37800Y30182D01*
X37735Y30069D01*
X37728Y30043D01*
X37678D01*
X37671Y30069D01*
X37606Y30182D01*
X37514Y30274D01*
X37401Y30339D01*
X37276Y30372D01*
X37146D01*
X37020Y30339D01*
X36907Y30274D01*
X36816Y30182D01*
X36751Y30069D01*
X36744Y30043D01*
X36693D01*
X36686Y30069D01*
X36621Y30182D01*
X36530Y30274D01*
X36417Y30339D01*
X36291Y30372D01*
X36161D01*
X36036Y30339D01*
X35923Y30274D01*
X35831Y30182D01*
X35766Y30069D01*
X35759Y30043D01*
X35709D01*
X35702Y30069D01*
X35637Y30182D01*
X35545Y30274D01*
X35433Y30339D01*
X35307Y30372D01*
X35177D01*
X35052Y30339D01*
X34939Y30274D01*
X34847Y30182D01*
X34782Y30069D01*
X34775Y30043D01*
X34725D01*
X34718Y30069D01*
X34653Y30182D01*
X34561Y30274D01*
X34448Y30339D01*
X34323Y30372D01*
X34193D01*
X34067Y30339D01*
X33955Y30274D01*
X33863Y30182D01*
X33798Y30069D01*
X33791Y30043D01*
X33741D01*
X33734Y30069D01*
X33669Y30182D01*
X33577Y30274D01*
X33464Y30339D01*
X33339Y30372D01*
X33324D01*
Y29879D01*
Y29385D01*
X33339D01*
X33464Y29419D01*
X33577Y29484D01*
X33669Y29576D01*
X33734Y29688D01*
X33741Y29715D01*
X33791D01*
X33798Y29688D01*
X33863Y29576D01*
X33955Y29484D01*
X34067Y29419D01*
X34193Y29385D01*
X34323D01*
X34448Y29419D01*
X34561Y29484D01*
X34653Y29576D01*
X34718Y29688D01*
X34725Y29715D01*
X34775D01*
X34782Y29688D01*
X34847Y29576D01*
X34939Y29484D01*
X35052Y29419D01*
X35177Y29385D01*
X35307D01*
X35433Y29419D01*
X35545Y29484D01*
X35637Y29576D01*
X35702Y29688D01*
X35709Y29715D01*
X35759D01*
X35766Y29688D01*
X35831Y29576D01*
X35923Y29484D01*
X36036Y29419D01*
X36161Y29385D01*
X36291D01*
X36417Y29419D01*
X36530Y29484D01*
X36621Y29576D01*
X36686Y29688D01*
X36693Y29715D01*
X36744D01*
X36751Y29688D01*
X36816Y29576D01*
X36907Y29484D01*
X37020Y29419D01*
X37146Y29385D01*
X37276D01*
X37401Y29419D01*
X37514Y29484D01*
X37606Y29576D01*
X37671Y29688D01*
X37678Y29715D01*
X37728D01*
X37735Y29688D01*
X37800Y29576D01*
X37892Y29484D01*
X38004Y29419D01*
X38130Y29385D01*
X38260D01*
X38385Y29419D01*
X38498Y29484D01*
X38590Y29576D01*
X38655Y29688D01*
X38662Y29715D01*
X38712D01*
X38719Y29688D01*
X38784Y29576D01*
X38876Y29484D01*
X38989Y29419D01*
X39114Y29385D01*
X39244D01*
X39370Y29419D01*
X39482Y29484D01*
X39574Y29576D01*
X39639Y29688D01*
X39646Y29715D01*
X39696D01*
X39703Y29688D01*
X39768Y29576D01*
X39860Y29484D01*
X39973Y29419D01*
X40098Y29385D01*
X40228D01*
X40354Y29419D01*
X40467Y29484D01*
X40558Y29576D01*
X40623Y29688D01*
X40631Y29715D01*
X40681D01*
X40688Y29688D01*
X40753Y29576D01*
X40844Y29484D01*
X40957Y29419D01*
X41083Y29385D01*
X41213D01*
X41338Y29419D01*
X41451Y29484D01*
X41543Y29576D01*
X41608Y29688D01*
X41641Y29814D01*
Y29871D01*
X41688Y29890D01*
X41755Y29822D01*
Y29341D01*
X41771Y29263D01*
X41815Y29196D01*
X42216Y28795D01*
X42205Y28752D01*
Y28648D01*
X42232Y28547D01*
X42284Y28457D01*
X42357Y28384D01*
X42447Y28332D01*
X42548Y28305D01*
X42652D01*
X42753Y28332D01*
X42843Y28384D01*
X42916Y28457D01*
X42968Y28547D01*
X42995Y28648D01*
Y28752D01*
X42968Y28853D01*
X42916Y28943D01*
X42843Y29016D01*
X42753Y29068D01*
X42652Y29095D01*
X42548D01*
X42505Y29084D01*
X42163Y29425D01*
Y29609D01*
X42213Y29616D01*
X42232Y29547D01*
X42284Y29457D01*
X42357Y29384D01*
X42447Y29332D01*
X42548Y29305D01*
X42652D01*
X42753Y29332D01*
X42843Y29384D01*
X42916Y29457D01*
X42968Y29547D01*
X42995Y29648D01*
Y29752D01*
X42968Y29853D01*
X42916Y29943D01*
X42843Y30016D01*
X42753Y30068D01*
X42652Y30095D01*
X42548D01*
X42505Y30084D01*
X37644Y34944D01*
X37578Y34988D01*
X37500Y35004D01*
X35202D01*
X35145Y35103D01*
X35053Y35195D01*
X34941Y35260D01*
X34815Y35294D01*
D02*
G37*
G36*
X50750Y34549D02*
Y34250D01*
X51049D01*
X51026Y34335D01*
X50980Y34415D01*
X50915Y34480D01*
X50835Y34526D01*
X50750Y34549D01*
D02*
G37*
G36*
X50650D02*
X50565Y34526D01*
X50485Y34480D01*
X50420Y34415D01*
X50374Y34335D01*
X50351Y34250D01*
X50650D01*
Y34549D01*
D02*
G37*
G36*
X51049Y34150D02*
X50750D01*
Y33851D01*
X50835Y33874D01*
X50915Y33920D01*
X50980Y33985D01*
X51026Y34065D01*
X51049Y34150D01*
D02*
G37*
G36*
X50650D02*
X50351D01*
X50374Y34065D01*
X50420Y33985D01*
X50485Y33920D01*
X50565Y33874D01*
X50650Y33851D01*
Y34150D01*
D02*
G37*
G36*
X60300Y32799D02*
Y32500D01*
X60599D01*
X60576Y32585D01*
X60530Y32665D01*
X60465Y32730D01*
X60385Y32776D01*
X60300Y32799D01*
D02*
G37*
G36*
X60200D02*
X60115Y32776D01*
X60035Y32730D01*
X59970Y32665D01*
X59924Y32585D01*
X59901Y32500D01*
X60200D01*
Y32799D01*
D02*
G37*
G36*
X14700Y32749D02*
Y32450D01*
X14999D01*
X14976Y32535D01*
X14930Y32615D01*
X14865Y32680D01*
X14785Y32726D01*
X14700Y32749D01*
D02*
G37*
G36*
X14600D02*
X14515Y32726D01*
X14435Y32680D01*
X14370Y32615D01*
X14324Y32535D01*
X14301Y32450D01*
X14600D01*
Y32749D01*
D02*
G37*
G36*
X53600Y32699D02*
Y32400D01*
X53899D01*
X53876Y32485D01*
X53830Y32565D01*
X53765Y32630D01*
X53685Y32676D01*
X53600Y32699D01*
D02*
G37*
G36*
X53500D02*
X53415Y32676D01*
X53335Y32630D01*
X53270Y32565D01*
X53224Y32485D01*
X53201Y32400D01*
X53500D01*
Y32699D01*
D02*
G37*
G36*
X41641Y32782D02*
X41198D01*
Y32338D01*
X41213D01*
X41338Y32371D01*
X41451Y32436D01*
X41543Y32528D01*
X41608Y32641D01*
X41641Y32766D01*
Y32782D01*
D02*
G37*
G36*
X41098D02*
X40654D01*
Y32766D01*
X40688Y32641D01*
X40753Y32528D01*
X40844Y32436D01*
X40957Y32371D01*
X41083Y32338D01*
X41098D01*
Y32782D01*
D02*
G37*
G36*
X42995Y33095D02*
X42205D01*
Y32305D01*
X42995D01*
Y33095D01*
D02*
G37*
G36*
X17496Y43300D02*
X17404D01*
X17315Y43276D01*
X17235Y43230D01*
X17170Y43165D01*
X17164Y43154D01*
X13700D01*
X13622Y43138D01*
X13556Y43094D01*
X13010Y42548D01*
X12966Y42482D01*
X12950Y42404D01*
Y42222D01*
X12551Y41822D01*
X12539D01*
X12448Y41784D01*
X12377Y41714D01*
X12339Y41622D01*
Y41523D01*
X12377Y41431D01*
X12448Y41361D01*
X12539Y41322D01*
X12639D01*
X12731Y41361D01*
X12801Y41431D01*
X12839Y41523D01*
Y41534D01*
X13298Y41993D01*
X13343Y42059D01*
X13358Y42137D01*
Y42320D01*
X13784Y42746D01*
X17147D01*
Y38525D01*
X16560Y37938D01*
X16515Y37926D01*
X16435Y37880D01*
X16370Y37815D01*
X16324Y37735D01*
X16300Y37646D01*
Y37554D01*
X16324Y37465D01*
X16347Y37424D01*
Y32885D01*
X16315Y32876D01*
X16235Y32830D01*
X16170Y32765D01*
X16124Y32685D01*
X16100Y32596D01*
Y32504D01*
X16124Y32415D01*
X16170Y32335D01*
X16235Y32270D01*
X16315Y32224D01*
X16404Y32200D01*
X16496D01*
X16585Y32224D01*
X16665Y32270D01*
X16730Y32335D01*
X16776Y32415D01*
X16788Y32460D01*
X16864Y32536D01*
X16912Y32599D01*
X16942Y32672D01*
X16953Y32750D01*
X16953Y32750D01*
Y37424D01*
X16976Y37465D01*
X16988Y37510D01*
X17664Y38186D01*
X17712Y38249D01*
X17742Y38322D01*
X17753Y38400D01*
Y42774D01*
X17776Y42815D01*
X17800Y42904D01*
Y42996D01*
X17776Y43085D01*
X17730Y43165D01*
X17665Y43230D01*
X17585Y43276D01*
X17496Y43300D01*
D02*
G37*
G36*
X60599Y32400D02*
X60300D01*
Y32101D01*
X60385Y32124D01*
X60465Y32170D01*
X60530Y32235D01*
X60576Y32315D01*
X60599Y32400D01*
D02*
G37*
G36*
X60200D02*
X59901D01*
X59924Y32315D01*
X59970Y32235D01*
X60035Y32170D01*
X60115Y32124D01*
X60200Y32101D01*
Y32400D01*
D02*
G37*
G36*
X14999Y32350D02*
X14700D01*
Y32051D01*
X14785Y32074D01*
X14865Y32120D01*
X14930Y32185D01*
X14976Y32265D01*
X14999Y32350D01*
D02*
G37*
G36*
X14600D02*
X14301D01*
X14324Y32265D01*
X14370Y32185D01*
X14435Y32120D01*
X14515Y32074D01*
X14600Y32051D01*
Y32350D01*
D02*
G37*
G36*
X53899Y32300D02*
X53600D01*
Y32001D01*
X53685Y32024D01*
X53765Y32070D01*
X53830Y32135D01*
X53876Y32215D01*
X53899Y32300D01*
D02*
G37*
G36*
X53500D02*
X53201D01*
X53224Y32215D01*
X53270Y32135D01*
X53335Y32070D01*
X53415Y32024D01*
X53500Y32001D01*
Y32300D01*
D02*
G37*
G36*
X42652Y32095D02*
X42548D01*
X42447Y32068D01*
X42357Y32016D01*
X42284Y31943D01*
X42232Y31853D01*
X42205Y31752D01*
Y31648D01*
X42232Y31547D01*
X42284Y31457D01*
X42357Y31384D01*
X42447Y31332D01*
X42548Y31305D01*
X42652D01*
X42753Y31332D01*
X42843Y31384D01*
X42916Y31457D01*
X42968Y31547D01*
X42995Y31648D01*
Y31752D01*
X42968Y31853D01*
X42916Y31943D01*
X42843Y32016D01*
X42753Y32068D01*
X42652Y32095D01*
D02*
G37*
G36*
X24600Y31499D02*
Y31200D01*
X24899D01*
X24876Y31285D01*
X24830Y31365D01*
X24765Y31430D01*
X24685Y31476D01*
X24600Y31499D01*
D02*
G37*
G36*
X24500D02*
X24415Y31476D01*
X24335Y31430D01*
X24270Y31365D01*
X24224Y31285D01*
X24201Y31200D01*
X24500D01*
Y31499D01*
D02*
G37*
G36*
X24899Y31100D02*
X24600D01*
Y30801D01*
X24685Y30824D01*
X24765Y30870D01*
X24830Y30935D01*
X24876Y31015D01*
X24899Y31100D01*
D02*
G37*
G36*
X24500D02*
X24201D01*
X24224Y31015D01*
X24270Y30935D01*
X24335Y30870D01*
X24415Y30824D01*
X24500Y30801D01*
Y31100D01*
D02*
G37*
G36*
X42652Y31095D02*
X42650D01*
Y30750D01*
X42995D01*
Y30752D01*
X42968Y30853D01*
X42916Y30943D01*
X42843Y31016D01*
X42753Y31068D01*
X42652Y31095D01*
D02*
G37*
G36*
X42550D02*
X42548D01*
X42447Y31068D01*
X42357Y31016D01*
X42284Y30943D01*
X42232Y30853D01*
X42205Y30752D01*
Y30750D01*
X42550D01*
Y31095D01*
D02*
G37*
G36*
X67638Y30925D02*
X67350D01*
Y30637D01*
X67638D01*
Y30925D01*
D02*
G37*
G36*
X66499Y35850D02*
X65801D01*
X65824Y35765D01*
X65847Y35724D01*
Y32125D01*
X65858Y32046D01*
X65888Y31974D01*
X65936Y31911D01*
X66962Y30885D01*
Y30637D01*
X67250D01*
Y30975D01*
X67300D01*
Y31025D01*
X67638D01*
Y31313D01*
X67390D01*
X66453Y32250D01*
Y35724D01*
X66476Y35765D01*
X66499Y35850D01*
D02*
G37*
G36*
X32850Y35300D02*
X32750D01*
X32658Y35262D01*
X32588Y35192D01*
X32550Y35100D01*
Y35000D01*
X32588Y34908D01*
X32596Y34900D01*
Y30474D01*
X32465Y30343D01*
X32354Y30372D01*
X32224D01*
X32099Y30339D01*
X31986Y30274D01*
X31894Y30182D01*
X31829Y30069D01*
X31822Y30043D01*
X31772D01*
X31765Y30069D01*
X31700Y30182D01*
X31608Y30274D01*
X31496Y30339D01*
X31370Y30372D01*
X31240D01*
X31115Y30339D01*
X31002Y30274D01*
X30910Y30182D01*
X30845Y30069D01*
X30838Y30043D01*
X30788D01*
X30781Y30069D01*
X30716Y30182D01*
X30624Y30274D01*
X30511Y30339D01*
X30386Y30372D01*
X30256D01*
X30130Y30339D01*
X30018Y30274D01*
X29926Y30182D01*
X29861Y30069D01*
X29827Y29944D01*
Y29814D01*
X29861Y29688D01*
X29926Y29576D01*
X30018Y29484D01*
X30130Y29419D01*
X30256Y29385D01*
X30386D01*
X30511Y29419D01*
X30624Y29484D01*
X30716Y29576D01*
X30781Y29688D01*
X30788Y29715D01*
X30838D01*
X30845Y29688D01*
X30910Y29576D01*
X31002Y29484D01*
X31115Y29419D01*
X31240Y29385D01*
X31370D01*
X31496Y29419D01*
X31608Y29484D01*
X31700Y29576D01*
X31765Y29688D01*
X31772Y29715D01*
X31822D01*
X31829Y29688D01*
X31894Y29576D01*
X31986Y29484D01*
X32099Y29419D01*
X32224Y29385D01*
X32354D01*
X32480Y29419D01*
X32593Y29484D01*
X32684Y29576D01*
X32749Y29688D01*
X32757Y29715D01*
X32806D01*
X32814Y29688D01*
X32879Y29576D01*
X32970Y29484D01*
X33083Y29419D01*
X33209Y29385D01*
X33224D01*
Y29879D01*
Y30372D01*
X33209D01*
X33083Y30339D01*
X33040Y30314D01*
X32995Y30346D01*
X33004Y30389D01*
Y34900D01*
X33012Y34908D01*
X33050Y35000D01*
Y35100D01*
X33012Y35192D01*
X32942Y35262D01*
X32850Y35300D01*
D02*
G37*
G36*
X42995Y30650D02*
X42650D01*
Y30305D01*
X42652D01*
X42753Y30332D01*
X42843Y30384D01*
X42916Y30457D01*
X42968Y30547D01*
X42995Y30648D01*
Y30650D01*
D02*
G37*
G36*
X42550D02*
X42205D01*
Y30648D01*
X42232Y30547D01*
X42284Y30457D01*
X42357Y30384D01*
X42447Y30332D01*
X42548Y30305D01*
X42550D01*
Y30650D01*
D02*
G37*
G36*
X67344Y30525D02*
X67256D01*
X67170Y30502D01*
X67093Y30458D01*
X67030Y30395D01*
X66985Y30318D01*
X66962Y30232D01*
Y30143D01*
X66985Y30057D01*
X67030Y29980D01*
X67093Y29917D01*
X67170Y29873D01*
X67256Y29850D01*
X67344D01*
X67430Y29873D01*
X67507Y29917D01*
X67570Y29980D01*
X67615Y30057D01*
X67638Y30143D01*
Y30232D01*
X67615Y30318D01*
X67570Y30395D01*
X67507Y30458D01*
X67430Y30502D01*
X67344Y30525D01*
D02*
G37*
G36*
Y29738D02*
X67256D01*
X67170Y29715D01*
X67093Y29670D01*
X67030Y29607D01*
X66985Y29530D01*
X66963Y29448D01*
X66958Y29446D01*
X66912Y29442D01*
X66842Y29512D01*
X66750Y29550D01*
X66650D01*
X66558Y29512D01*
X66488Y29442D01*
X66450Y29350D01*
Y29250D01*
X66488Y29158D01*
X66558Y29088D01*
X66623Y29061D01*
X66976Y28709D01*
X66962Y28657D01*
Y28568D01*
X66985Y28482D01*
X67030Y28405D01*
X67093Y28342D01*
X67170Y28298D01*
X67256Y28275D01*
X67344D01*
X67430Y28298D01*
X67507Y28342D01*
X67570Y28405D01*
X67615Y28482D01*
X67638Y28568D01*
Y28657D01*
X67615Y28743D01*
X67570Y28820D01*
X67507Y28883D01*
X67430Y28927D01*
X67344Y28950D01*
X67311D01*
X67245Y29017D01*
X67270Y29062D01*
X67344D01*
X67430Y29085D01*
X67507Y29130D01*
X67570Y29193D01*
X67615Y29270D01*
X67638Y29356D01*
Y29444D01*
X67615Y29530D01*
X67570Y29607D01*
X67507Y29670D01*
X67430Y29715D01*
X67344Y29738D01*
D02*
G37*
G36*
X16900Y28749D02*
Y28450D01*
X17199D01*
X17176Y28535D01*
X17130Y28615D01*
X17065Y28680D01*
X16985Y28726D01*
X16900Y28749D01*
D02*
G37*
G36*
X16800D02*
X16715Y28726D01*
X16635Y28680D01*
X16570Y28615D01*
X16524Y28535D01*
X16501Y28450D01*
X16800D01*
Y28749D01*
D02*
G37*
G36*
X17199Y28350D02*
X16900D01*
Y28051D01*
X16985Y28074D01*
X17065Y28120D01*
X17130Y28185D01*
X17176Y28265D01*
X17199Y28350D01*
D02*
G37*
G36*
X16800D02*
X16501D01*
X16524Y28265D01*
X16570Y28185D01*
X16635Y28120D01*
X16715Y28074D01*
X16800Y28051D01*
Y28350D01*
D02*
G37*
G36*
X41345Y27745D02*
X40555D01*
Y26955D01*
X41345D01*
Y27745D01*
D02*
G37*
G36*
X40002D02*
X39898D01*
X39797Y27718D01*
X39707Y27666D01*
X39634Y27593D01*
X39582Y27503D01*
X39555Y27402D01*
Y27298D01*
X39582Y27197D01*
X39634Y27107D01*
X39707Y27034D01*
X39797Y26982D01*
X39898Y26955D01*
X40002D01*
X40103Y26982D01*
X40193Y27034D01*
X40266Y27107D01*
X40318Y27197D01*
X40345Y27298D01*
Y27402D01*
X40318Y27503D01*
X40266Y27593D01*
X40193Y27666D01*
X40103Y27718D01*
X40002Y27745D01*
D02*
G37*
G36*
X37650Y28854D02*
X29450D01*
X29372Y28838D01*
X29306Y28794D01*
X25216Y24704D01*
X20750D01*
X20742Y24712D01*
X20650Y24750D01*
X20550D01*
X20458Y24712D01*
X20388Y24642D01*
X20350Y24550D01*
Y24450D01*
X20388Y24358D01*
X20458Y24288D01*
X20550Y24250D01*
X20650D01*
X20742Y24288D01*
X20750Y24296D01*
X25206D01*
X25225Y24250D01*
X23029Y22054D01*
X17900D01*
X17892Y22062D01*
X17800Y22100D01*
X17700D01*
X17608Y22062D01*
X17538Y21992D01*
X17500Y21900D01*
Y21800D01*
X17538Y21708D01*
X17608Y21638D01*
X17700Y21600D01*
X17800D01*
X17892Y21638D01*
X17900Y21646D01*
X23114D01*
X23192Y21662D01*
X23258Y21706D01*
X23603Y22051D01*
X23656Y22033D01*
X23674Y21965D01*
X23720Y21885D01*
X23785Y21820D01*
X23865Y21774D01*
X23910Y21762D01*
X24897Y20775D01*
Y17126D01*
X24874Y17085D01*
X24850Y16996D01*
Y16904D01*
X24874Y16815D01*
X24920Y16735D01*
X24985Y16670D01*
X25065Y16624D01*
X25154Y16600D01*
X25246D01*
X25335Y16624D01*
X25415Y16670D01*
X25480Y16735D01*
X25526Y16815D01*
X25550Y16904D01*
Y16996D01*
X25526Y17085D01*
X25503Y17126D01*
Y20900D01*
X25492Y20978D01*
X25462Y21051D01*
X25414Y21114D01*
X24338Y22190D01*
X24326Y22235D01*
X24280Y22315D01*
X24215Y22380D01*
X24135Y22426D01*
X24067Y22444D01*
X24049Y22497D01*
X27601Y26049D01*
X27650Y26027D01*
Y25954D01*
X27674Y25865D01*
X27720Y25785D01*
X27785Y25720D01*
X27865Y25674D01*
X27910Y25662D01*
X28736Y24836D01*
X28799Y24788D01*
X28872Y24758D01*
X28950Y24747D01*
X29174D01*
X29215Y24724D01*
X29304Y24700D01*
X29396D01*
X29485Y24724D01*
X29526Y24747D01*
X37275D01*
X39012Y23010D01*
X39024Y22965D01*
X39070Y22885D01*
X39135Y22820D01*
X39215Y22774D01*
X39304Y22750D01*
X39396D01*
X39485Y22774D01*
X39565Y22820D01*
X39630Y22885D01*
X39676Y22965D01*
X39700Y23054D01*
Y23146D01*
X39676Y23235D01*
X39630Y23315D01*
X39565Y23380D01*
X39485Y23426D01*
X39440Y23438D01*
X37614Y25264D01*
X37551Y25312D01*
X37478Y25342D01*
X37400Y25353D01*
X29526D01*
X29485Y25376D01*
X29396Y25400D01*
X29304D01*
X29215Y25376D01*
X29174Y25353D01*
X29075D01*
X28338Y26090D01*
X28326Y26135D01*
X28280Y26215D01*
X28215Y26280D01*
X28135Y26326D01*
X28046Y26350D01*
X27973D01*
X27951Y26399D01*
X29193Y27641D01*
X29617D01*
X29636Y27595D01*
X29634Y27593D01*
X29582Y27503D01*
X29555Y27402D01*
Y27298D01*
X29582Y27197D01*
X29634Y27107D01*
X29707Y27034D01*
X29797Y26982D01*
X29898Y26955D01*
X30002D01*
X30103Y26982D01*
X30193Y27034D01*
X30266Y27107D01*
X30318Y27197D01*
X30345Y27298D01*
Y27402D01*
X30318Y27503D01*
X30266Y27593D01*
X30264Y27595D01*
X30283Y27641D01*
X30617D01*
X30636Y27595D01*
X30634Y27593D01*
X30582Y27503D01*
X30555Y27402D01*
Y27298D01*
X30582Y27197D01*
X30634Y27107D01*
X30707Y27034D01*
X30797Y26982D01*
X30898Y26955D01*
X31002D01*
X31103Y26982D01*
X31193Y27034D01*
X31266Y27107D01*
X31318Y27197D01*
X31345Y27298D01*
Y27402D01*
X31318Y27503D01*
X31266Y27593D01*
X31264Y27595D01*
X31283Y27641D01*
X31617D01*
X31636Y27595D01*
X31634Y27593D01*
X31582Y27503D01*
X31555Y27402D01*
Y27298D01*
X31582Y27197D01*
X31634Y27107D01*
X31707Y27034D01*
X31797Y26982D01*
X31898Y26955D01*
X32002D01*
X32103Y26982D01*
X32193Y27034D01*
X32266Y27107D01*
X32318Y27197D01*
X32345Y27298D01*
Y27402D01*
X32318Y27503D01*
X32266Y27593D01*
X32264Y27595D01*
X32283Y27641D01*
X32617D01*
X32636Y27595D01*
X32634Y27593D01*
X32582Y27503D01*
X32555Y27402D01*
Y27400D01*
X32950D01*
X33345D01*
Y27402D01*
X33318Y27503D01*
X33266Y27593D01*
X33264Y27595D01*
X33283Y27641D01*
X33370D01*
X33566Y27445D01*
X33555Y27402D01*
Y27298D01*
X33582Y27197D01*
X33634Y27107D01*
X33707Y27034D01*
X33797Y26982D01*
X33898Y26955D01*
X34002D01*
X34103Y26982D01*
X34193Y27034D01*
X34266Y27107D01*
X34318Y27197D01*
X34345Y27298D01*
Y27402D01*
X34318Y27503D01*
X34266Y27593D01*
X34193Y27666D01*
X34103Y27718D01*
X34002Y27745D01*
X33898D01*
X33855Y27734D01*
X33599Y27989D01*
X33533Y28034D01*
X33455Y28049D01*
X29203D01*
X29184Y28095D01*
X29534Y28446D01*
X37566D01*
X38566Y27445D01*
X38555Y27402D01*
Y27298D01*
X38582Y27197D01*
X38634Y27107D01*
X38707Y27034D01*
X38797Y26982D01*
X38898Y26955D01*
X39002D01*
X39103Y26982D01*
X39193Y27034D01*
X39266Y27107D01*
X39318Y27197D01*
X39345Y27298D01*
Y27402D01*
X39318Y27503D01*
X39266Y27593D01*
X39193Y27666D01*
X39103Y27718D01*
X39002Y27745D01*
X38898D01*
X38855Y27734D01*
X37794Y28794D01*
X37728Y28838D01*
X37650Y28854D01*
D02*
G37*
G36*
X36002Y27745D02*
X35898D01*
X35797Y27718D01*
X35707Y27666D01*
X35634Y27593D01*
X35582Y27503D01*
X35555Y27402D01*
Y27298D01*
X35582Y27197D01*
X35634Y27107D01*
X35707Y27034D01*
X35797Y26982D01*
X35898Y26955D01*
X36002D01*
X36103Y26982D01*
X36193Y27034D01*
X36266Y27107D01*
X36318Y27197D01*
X36345Y27298D01*
Y27402D01*
X36318Y27503D01*
X36266Y27593D01*
X36193Y27666D01*
X36103Y27718D01*
X36002Y27745D01*
D02*
G37*
G36*
X35002D02*
X34898D01*
X34797Y27718D01*
X34707Y27666D01*
X34634Y27593D01*
X34582Y27503D01*
X34555Y27402D01*
Y27298D01*
X34582Y27197D01*
X34634Y27107D01*
X34707Y27034D01*
X34797Y26982D01*
X34898Y26955D01*
X35002D01*
X35103Y26982D01*
X35193Y27034D01*
X35266Y27107D01*
X35318Y27197D01*
X35345Y27298D01*
Y27402D01*
X35318Y27503D01*
X35266Y27593D01*
X35193Y27666D01*
X35103Y27718D01*
X35002Y27745D01*
D02*
G37*
G36*
X33345Y27300D02*
X33000D01*
Y26955D01*
X33002D01*
X33103Y26982D01*
X33193Y27034D01*
X33266Y27107D01*
X33318Y27197D01*
X33345Y27298D01*
Y27300D01*
D02*
G37*
G36*
X32900D02*
X32555D01*
Y27298D01*
X32582Y27197D01*
X32634Y27107D01*
X32707Y27034D01*
X32797Y26982D01*
X32898Y26955D01*
X32900D01*
Y27300D01*
D02*
G37*
G36*
X26746Y33600D02*
X26654D01*
X26565Y33576D01*
X26485Y33530D01*
X26420Y33465D01*
X26374Y33385D01*
X26350Y33296D01*
Y33204D01*
X26374Y33115D01*
X26397Y33074D01*
Y27750D01*
X26408Y27672D01*
X26438Y27599D01*
X26486Y27536D01*
X26812Y27210D01*
X26824Y27165D01*
X26870Y27085D01*
X26935Y27020D01*
X27015Y26974D01*
X27104Y26950D01*
X27196D01*
X27285Y26974D01*
X27365Y27020D01*
X27430Y27085D01*
X27476Y27165D01*
X27500Y27254D01*
Y27346D01*
X27476Y27435D01*
X27430Y27515D01*
X27365Y27580D01*
X27285Y27626D01*
X27240Y27638D01*
X27003Y27875D01*
Y33074D01*
X27026Y33115D01*
X27050Y33204D01*
Y33296D01*
X27026Y33385D01*
X26980Y33465D01*
X26915Y33530D01*
X26835Y33576D01*
X26746Y33600D01*
D02*
G37*
G36*
X47496Y28850D02*
X47404D01*
X47315Y28826D01*
X47235Y28780D01*
X47170Y28715D01*
X47124Y28635D01*
X47100Y28546D01*
Y28454D01*
X47124Y28365D01*
X47170Y28285D01*
X47197Y28258D01*
Y26726D01*
X47174Y26685D01*
X47150Y26596D01*
Y26504D01*
X47174Y26415D01*
X47220Y26335D01*
X47285Y26270D01*
X47365Y26224D01*
X47454Y26200D01*
X47546D01*
X47635Y26224D01*
X47715Y26270D01*
X47780Y26335D01*
X47826Y26415D01*
X47850Y26504D01*
Y26596D01*
X47826Y26685D01*
X47803Y26726D01*
Y28450D01*
X47803Y28450D01*
X47800Y28470D01*
Y28546D01*
X47776Y28635D01*
X47730Y28715D01*
X47665Y28780D01*
X47585Y28826D01*
X47496Y28850D01*
D02*
G37*
G36*
X44550Y25549D02*
Y25250D01*
X44849D01*
X44826Y25335D01*
X44780Y25415D01*
X44715Y25480D01*
X44635Y25526D01*
X44550Y25549D01*
D02*
G37*
G36*
X44450D02*
X44365Y25526D01*
X44285Y25480D01*
X44220Y25415D01*
X44174Y25335D01*
X44151Y25250D01*
X44450D01*
Y25549D01*
D02*
G37*
G36*
X38002Y27745D02*
X37898D01*
X37797Y27718D01*
X37707Y27666D01*
X37634Y27593D01*
X37582Y27503D01*
X37555Y27402D01*
Y27298D01*
X37582Y27197D01*
X37634Y27107D01*
X37707Y27034D01*
X37797Y26982D01*
X37898Y26955D01*
X38002D01*
X38045Y26966D01*
X40108Y24904D01*
X40089Y24858D01*
X39731D01*
X37334Y27255D01*
X37345Y27298D01*
Y27402D01*
X37318Y27503D01*
X37266Y27593D01*
X37193Y27666D01*
X37103Y27718D01*
X37002Y27745D01*
X36898D01*
X36797Y27718D01*
X36707Y27666D01*
X36634Y27593D01*
X36582Y27503D01*
X36555Y27402D01*
Y27298D01*
X36582Y27197D01*
X36634Y27107D01*
X36707Y27034D01*
X36797Y26982D01*
X36898Y26955D01*
X37002D01*
X37045Y26966D01*
X39502Y24510D01*
X39568Y24465D01*
X39646Y24450D01*
X39646Y24450D01*
X40138D01*
X41142Y23445D01*
X41209Y23401D01*
X41287Y23385D01*
X42557D01*
X42582Y23335D01*
X42546Y23274D01*
X42524Y23189D01*
X42873D01*
Y23089D01*
X42524D01*
X42546Y23004D01*
X42570Y22963D01*
Y22598D01*
X42337Y22365D01*
X41935D01*
Y22000D01*
X42350D01*
Y21950D01*
X42400D01*
Y21535D01*
X42765D01*
Y21937D01*
X42902Y22074D01*
X42947Y22048D01*
X42935Y22005D01*
Y21895D01*
X42963Y21790D01*
X43018Y21695D01*
X43095Y21618D01*
X43190Y21563D01*
X43295Y21535D01*
X43405D01*
X43510Y21563D01*
X43605Y21618D01*
X43682Y21695D01*
X43737Y21790D01*
X43765Y21895D01*
Y22005D01*
X43737Y22110D01*
X43682Y22205D01*
X43605Y22282D01*
X43510Y22337D01*
X43405Y22365D01*
X43295D01*
X43196Y22338D01*
X43179Y22350D01*
X43157Y22375D01*
X43165Y22394D01*
X43175Y22473D01*
Y22963D01*
X43199Y23004D01*
X43217Y23072D01*
X43269Y23090D01*
X43459Y22900D01*
Y22637D01*
X43475Y22559D01*
X43519Y22492D01*
X43950Y22061D01*
X43935Y22005D01*
Y21895D01*
X43963Y21790D01*
X44018Y21695D01*
X44095Y21618D01*
X44190Y21563D01*
X44295Y21535D01*
X44405D01*
X44510Y21563D01*
X44605Y21618D01*
X44682Y21695D01*
X44737Y21790D01*
X44765Y21895D01*
Y22005D01*
X44757Y22034D01*
X44802Y22060D01*
X46038Y20823D01*
Y19999D01*
X46054Y19921D01*
X46098Y19855D01*
X55847Y10106D01*
X55913Y10062D01*
X55991Y10046D01*
X59550D01*
X59558Y10038D01*
X59650Y10000D01*
X59750D01*
X59842Y10038D01*
X59912Y10108D01*
X59950Y10200D01*
Y10300D01*
X59912Y10392D01*
X59842Y10462D01*
X59750Y10500D01*
X59650D01*
X59558Y10462D01*
X59550Y10454D01*
X56076D01*
X48021Y18509D01*
X48040Y18555D01*
X50033D01*
X50072Y18562D01*
X50105Y18585D01*
X50127Y18618D01*
X50135Y18657D01*
Y20531D01*
X50127Y20570D01*
X50105Y20603D01*
X50072Y20625D01*
X50033Y20633D01*
X47867D01*
X47828Y20625D01*
X47795Y20603D01*
X47773Y20570D01*
X47765Y20531D01*
Y18830D01*
X47719Y18810D01*
X46446Y20083D01*
Y20908D01*
X46446Y20908D01*
X46431Y20986D01*
X46386Y21052D01*
X42432Y25007D01*
X42365Y25051D01*
X42287Y25067D01*
X40522D01*
X38334Y27255D01*
X38345Y27298D01*
Y27402D01*
X38318Y27503D01*
X38266Y27593D01*
X38193Y27666D01*
X38103Y27718D01*
X38002Y27745D01*
D02*
G37*
G36*
X13850Y24400D02*
X13750D01*
X13658Y24362D01*
X13650Y24354D01*
X12350D01*
X12272Y24338D01*
X12214Y24300D01*
X12200D01*
X12108Y24262D01*
X12038Y24192D01*
X12000Y24100D01*
Y24000D01*
X12038Y23908D01*
X12108Y23838D01*
X12200Y23800D01*
X12300D01*
X12392Y23838D01*
X12462Y23908D01*
X12478Y23946D01*
X13650D01*
X13658Y23938D01*
X13750Y23900D01*
X13850D01*
X13942Y23938D01*
X14012Y24008D01*
X14050Y24100D01*
Y24200D01*
X14012Y24292D01*
X13942Y24362D01*
X13850Y24400D01*
D02*
G37*
G36*
X44849Y25150D02*
X44151D01*
X44174Y25065D01*
X44197Y25024D01*
Y24175D01*
X44160Y24138D01*
X44115Y24126D01*
X44035Y24080D01*
X43970Y24015D01*
X43924Y23935D01*
X43901Y23850D01*
X44250D01*
Y23800D01*
X44300D01*
Y23451D01*
X44385Y23474D01*
X44465Y23520D01*
X44530Y23585D01*
X44576Y23665D01*
X44588Y23710D01*
X44714Y23836D01*
X44714Y23836D01*
X44762Y23899D01*
X44792Y23972D01*
X44803Y24050D01*
Y25024D01*
X44826Y25065D01*
X44849Y25150D01*
D02*
G37*
G36*
X44200Y23750D02*
X43901D01*
X43924Y23665D01*
X43970Y23585D01*
X44035Y23520D01*
X44115Y23474D01*
X44200Y23451D01*
Y23750D01*
D02*
G37*
G36*
X11067Y23308D02*
X10961D01*
X10859Y23281D01*
X10768Y23228D01*
X10693Y23153D01*
X10640Y23062D01*
X10613Y22960D01*
Y22854D01*
X10640Y22752D01*
X10693Y22661D01*
X10768Y22586D01*
X10859Y22533D01*
X10961Y22506D01*
X11067D01*
X11169Y22533D01*
X11261Y22586D01*
X11335Y22661D01*
X11388Y22752D01*
X11415Y22854D01*
Y22960D01*
X11388Y23062D01*
X11335Y23153D01*
X11261Y23228D01*
X11169Y23281D01*
X11067Y23308D01*
D02*
G37*
G36*
X10067D02*
X9961D01*
X9859Y23281D01*
X9768Y23228D01*
X9693Y23153D01*
X9640Y23062D01*
X9613Y22960D01*
Y22854D01*
X9640Y22752D01*
X9693Y22661D01*
X9768Y22586D01*
X9859Y22533D01*
X9961Y22506D01*
X10067D01*
X10169Y22533D01*
X10261Y22586D01*
X10335Y22661D01*
X10388Y22752D01*
X10415Y22854D01*
Y22960D01*
X10388Y23062D01*
X10335Y23153D01*
X10261Y23228D01*
X10169Y23281D01*
X10067Y23308D01*
D02*
G37*
G36*
X9067D02*
X8961D01*
X8859Y23281D01*
X8768Y23228D01*
X8693Y23153D01*
X8640Y23062D01*
X8613Y22960D01*
Y22854D01*
X8640Y22752D01*
X8693Y22661D01*
X8768Y22586D01*
X8859Y22533D01*
X8961Y22506D01*
X9067D01*
X9169Y22533D01*
X9261Y22586D01*
X9335Y22661D01*
X9388Y22752D01*
X9415Y22854D01*
Y22960D01*
X9388Y23062D01*
X9335Y23153D01*
X9261Y23228D01*
X9169Y23281D01*
X9067Y23308D01*
D02*
G37*
G36*
X8067D02*
X7961D01*
X7859Y23281D01*
X7768Y23228D01*
X7693Y23153D01*
X7640Y23062D01*
X7613Y22960D01*
Y22854D01*
X7640Y22752D01*
X7693Y22661D01*
X7768Y22586D01*
X7859Y22533D01*
X7961Y22506D01*
X8067D01*
X8169Y22533D01*
X8261Y22586D01*
X8335Y22661D01*
X8388Y22752D01*
X8415Y22854D01*
Y22960D01*
X8388Y23062D01*
X8335Y23153D01*
X8261Y23228D01*
X8169Y23281D01*
X8067Y23308D01*
D02*
G37*
G36*
X29805Y22865D02*
X29800D01*
Y22500D01*
X30165D01*
Y22505D01*
X30137Y22610D01*
X30082Y22705D01*
X30005Y22782D01*
X29910Y22837D01*
X29805Y22865D01*
D02*
G37*
G36*
X29700D02*
X29695D01*
X29590Y22837D01*
X29495Y22782D01*
X29418Y22705D01*
X29363Y22610D01*
X29335Y22505D01*
Y22500D01*
X29700D01*
Y22865D01*
D02*
G37*
G36*
X28805D02*
X28800D01*
Y22500D01*
X29165D01*
Y22505D01*
X29137Y22610D01*
X29082Y22705D01*
X29005Y22782D01*
X28910Y22837D01*
X28805Y22865D01*
D02*
G37*
G36*
X28700D02*
X28695D01*
X28590Y22837D01*
X28495Y22782D01*
X28418Y22705D01*
X28363Y22610D01*
X28335Y22505D01*
Y22500D01*
X28700D01*
Y22865D01*
D02*
G37*
G36*
X32805D02*
X32695D01*
X32590Y22837D01*
X32495Y22782D01*
X32418Y22705D01*
X32363Y22610D01*
X32335Y22505D01*
Y22395D01*
X32363Y22290D01*
X32418Y22195D01*
X32495Y22118D01*
X32590Y22063D01*
X32695Y22035D01*
X32805D01*
X32910Y22063D01*
X33005Y22118D01*
X33082Y22195D01*
X33137Y22290D01*
X33165Y22395D01*
Y22505D01*
X33137Y22610D01*
X33082Y22705D01*
X33005Y22782D01*
X32910Y22837D01*
X32805Y22865D01*
D02*
G37*
G36*
X31805D02*
X31695D01*
X31590Y22837D01*
X31495Y22782D01*
X31418Y22705D01*
X31363Y22610D01*
X31335Y22505D01*
Y22395D01*
X31363Y22290D01*
X31418Y22195D01*
X31495Y22118D01*
X31590Y22063D01*
X31695Y22035D01*
X31805D01*
X31910Y22063D01*
X32005Y22118D01*
X32082Y22195D01*
X32137Y22290D01*
X32165Y22395D01*
Y22505D01*
X32137Y22610D01*
X32082Y22705D01*
X32005Y22782D01*
X31910Y22837D01*
X31805Y22865D01*
D02*
G37*
G36*
X30805D02*
X30695D01*
X30590Y22837D01*
X30495Y22782D01*
X30418Y22705D01*
X30363Y22610D01*
X30335Y22505D01*
Y22395D01*
X30363Y22290D01*
X30418Y22195D01*
X30495Y22118D01*
X30590Y22063D01*
X30695Y22035D01*
X30805D01*
X30910Y22063D01*
X31005Y22118D01*
X31082Y22195D01*
X31137Y22290D01*
X31165Y22395D01*
Y22505D01*
X31137Y22610D01*
X31082Y22705D01*
X31005Y22782D01*
X30910Y22837D01*
X30805Y22865D01*
D02*
G37*
G36*
X30165Y22400D02*
X29800D01*
Y22035D01*
X29805D01*
X29910Y22063D01*
X30005Y22118D01*
X30082Y22195D01*
X30137Y22290D01*
X30165Y22395D01*
Y22400D01*
D02*
G37*
G36*
X29700D02*
X29335D01*
Y22395D01*
X29363Y22290D01*
X29418Y22195D01*
X29495Y22118D01*
X29590Y22063D01*
X29695Y22035D01*
X29700D01*
Y22400D01*
D02*
G37*
G36*
X29165D02*
X28800D01*
Y22035D01*
X28805D01*
X28910Y22063D01*
X29005Y22118D01*
X29082Y22195D01*
X29137Y22290D01*
X29165Y22395D01*
Y22400D01*
D02*
G37*
G36*
X28700D02*
X28335D01*
Y22395D01*
X28363Y22290D01*
X28418Y22195D01*
X28495Y22118D01*
X28590Y22063D01*
X28695Y22035D01*
X28700D01*
Y22400D01*
D02*
G37*
G36*
X28165Y22865D02*
X27335D01*
Y22035D01*
X28165D01*
Y22865D01*
D02*
G37*
G36*
X67688Y22663D02*
X67012D01*
Y21987D01*
X67688D01*
Y22663D01*
D02*
G37*
G36*
X67400Y21874D02*
Y21587D01*
X67686D01*
X67665Y21668D01*
X67620Y21745D01*
X67557Y21808D01*
X67480Y21852D01*
X67400Y21874D01*
D02*
G37*
G36*
X67300D02*
X67220Y21852D01*
X67143Y21808D01*
X67080Y21745D01*
X67035Y21668D01*
X67014Y21587D01*
X67300D01*
Y21874D01*
D02*
G37*
G36*
X42300Y21900D02*
X41935D01*
Y21535D01*
X42300D01*
Y21900D01*
D02*
G37*
G36*
X67686Y21487D02*
X67400D01*
Y21201D01*
X67480Y21223D01*
X67557Y21267D01*
X67620Y21330D01*
X67665Y21407D01*
X67686Y21487D01*
D02*
G37*
G36*
X67300D02*
X67014D01*
X67035Y21407D01*
X67080Y21330D01*
X67143Y21267D01*
X67220Y21223D01*
X67300Y21201D01*
Y21487D01*
D02*
G37*
G36*
X68850Y20849D02*
Y20550D01*
X69149D01*
X69126Y20635D01*
X69080Y20715D01*
X69015Y20780D01*
X68935Y20826D01*
X68850Y20849D01*
D02*
G37*
G36*
X68750D02*
X68665Y20826D01*
X68585Y20780D01*
X68520Y20715D01*
X68474Y20635D01*
X68451Y20550D01*
X68750D01*
Y20849D01*
D02*
G37*
G36*
X42900Y20799D02*
Y20500D01*
X43199D01*
X43176Y20585D01*
X43130Y20665D01*
X43065Y20730D01*
X42985Y20776D01*
X42900Y20799D01*
D02*
G37*
G36*
X42800D02*
X42715Y20776D01*
X42635Y20730D01*
X42570Y20665D01*
X42524Y20585D01*
X42501Y20500D01*
X42800D01*
Y20799D01*
D02*
G37*
G36*
X14796Y22500D02*
X14704D01*
X14615Y22476D01*
X14535Y22430D01*
X14470Y22365D01*
X14424Y22285D01*
X14400Y22196D01*
Y22104D01*
X14424Y22015D01*
X14470Y21935D01*
X14535Y21870D01*
X14615Y21824D01*
X14660Y21812D01*
X15886Y20586D01*
X15949Y20538D01*
X16022Y20508D01*
X16100Y20497D01*
X16329D01*
X16348Y20451D01*
X16338Y20442D01*
X16300Y20350D01*
Y20250D01*
X16338Y20158D01*
X16408Y20088D01*
X16500Y20050D01*
X16529D01*
X16733Y19846D01*
X16799Y19802D01*
X16877Y19787D01*
X17029D01*
X17056Y19760D01*
X17148Y19722D01*
X17248D01*
X17340Y19760D01*
X17410Y19830D01*
X17448Y19922D01*
Y20021D01*
X17410Y20113D01*
X17340Y20183D01*
X17248Y20222D01*
X17148D01*
X17083Y20195D01*
X16961D01*
X16796Y20361D01*
X16762Y20442D01*
X16752Y20451D01*
X16771Y20497D01*
X18174D01*
X18215Y20474D01*
X18304Y20450D01*
X18396D01*
X18485Y20474D01*
X18565Y20520D01*
X18630Y20585D01*
X18676Y20665D01*
X18700Y20754D01*
Y20846D01*
X18676Y20935D01*
X18630Y21015D01*
X18565Y21080D01*
X18485Y21126D01*
X18396Y21150D01*
X18304D01*
X18215Y21126D01*
X18174Y21103D01*
X16225D01*
X15088Y22240D01*
X15076Y22285D01*
X15030Y22365D01*
X14965Y22430D01*
X14885Y22476D01*
X14796Y22500D01*
D02*
G37*
G36*
X67394Y21088D02*
X67306D01*
X67220Y21065D01*
X67143Y21020D01*
X67080Y20957D01*
X67035Y20880D01*
X67012Y20794D01*
Y20706D01*
X67035Y20620D01*
X67080Y20543D01*
X67143Y20480D01*
X67220Y20435D01*
X67306Y20412D01*
X67394D01*
X67480Y20435D01*
X67557Y20480D01*
X67620Y20543D01*
X67665Y20620D01*
X67688Y20706D01*
Y20794D01*
X67665Y20880D01*
X67620Y20957D01*
X67557Y21020D01*
X67480Y21065D01*
X67394Y21088D01*
D02*
G37*
G36*
X69149Y20450D02*
X68850D01*
Y20151D01*
X68935Y20174D01*
X69015Y20220D01*
X69080Y20285D01*
X69126Y20365D01*
X69149Y20450D01*
D02*
G37*
G36*
X68750D02*
X68451D01*
X68474Y20365D01*
X68520Y20285D01*
X68585Y20220D01*
X68665Y20174D01*
X68750Y20151D01*
Y20450D01*
D02*
G37*
G36*
X43199Y20400D02*
X42900D01*
Y20101D01*
X42985Y20124D01*
X43065Y20170D01*
X43130Y20235D01*
X43176Y20315D01*
X43199Y20400D01*
D02*
G37*
G36*
X42800D02*
X42501D01*
X42524Y20315D01*
X42570Y20235D01*
X42635Y20170D01*
X42715Y20124D01*
X42800Y20101D01*
Y20400D01*
D02*
G37*
G36*
X67394Y20300D02*
X67306D01*
X67220Y20277D01*
X67143Y20233D01*
X67080Y20170D01*
X67035Y20093D01*
X67012Y20007D01*
Y19918D01*
X67035Y19832D01*
X67080Y19755D01*
X67143Y19692D01*
X67220Y19648D01*
X67306Y19625D01*
X67394D01*
X67480Y19648D01*
X67557Y19692D01*
X67620Y19755D01*
X67665Y19832D01*
X67688Y19918D01*
Y20007D01*
X67665Y20093D01*
X67620Y20170D01*
X67557Y20233D01*
X67480Y20277D01*
X67394Y20300D01*
D02*
G37*
G36*
X20300Y18949D02*
Y18650D01*
X20599D01*
X20576Y18735D01*
X20530Y18815D01*
X20465Y18880D01*
X20385Y18926D01*
X20300Y18949D01*
D02*
G37*
G36*
X33933Y20683D02*
X31767D01*
X31728Y20675D01*
X31695Y20653D01*
X31673Y20620D01*
X31665Y20581D01*
Y18707D01*
X31673Y18668D01*
X31695Y18635D01*
X31728Y18612D01*
X31767Y18605D01*
X33933D01*
X33972Y18612D01*
X34005Y18635D01*
X34027Y18668D01*
X34035Y18707D01*
Y20581D01*
X34027Y20620D01*
X34005Y20653D01*
X33972Y20675D01*
X33933Y20683D01*
D02*
G37*
G36*
X24484D02*
X22318D01*
X22279Y20675D01*
X22246Y20653D01*
X22224Y20620D01*
X22217Y20581D01*
Y18707D01*
X22224Y18668D01*
X22246Y18635D01*
X22279Y18612D01*
X22318Y18605D01*
X24484D01*
X24523Y18612D01*
X24556Y18635D01*
X24578Y18668D01*
X24586Y18707D01*
Y20581D01*
X24578Y20620D01*
X24556Y20653D01*
X24523Y20675D01*
X24484Y20683D01*
D02*
G37*
G36*
X20200Y18949D02*
X20115Y18926D01*
X20035Y18880D01*
X19970Y18815D01*
X19924Y18735D01*
X19922Y18727D01*
X19798Y18603D01*
X18276D01*
X18235Y18626D01*
X18150Y18649D01*
Y18300D01*
Y17951D01*
X18235Y17974D01*
X18276Y17997D01*
X19923D01*
X20001Y18008D01*
X20074Y18038D01*
X20137Y18086D01*
X20303Y18252D01*
X20385Y18274D01*
X20465Y18320D01*
X20530Y18385D01*
X20576Y18465D01*
X20599Y18550D01*
X20250D01*
Y18600D01*
X20200D01*
Y18949D01*
D02*
G37*
G36*
X40584Y20633D02*
X38419D01*
X38379Y20625D01*
X38346Y20603D01*
X38324Y20570D01*
X38317Y20531D01*
Y18657D01*
X38324Y18618D01*
X38346Y18585D01*
X38379Y18562D01*
X38419Y18555D01*
X40584D01*
X40623Y18562D01*
X40656Y18585D01*
X40678Y18618D01*
X40686Y18657D01*
Y20531D01*
X40678Y20570D01*
X40656Y20603D01*
X40623Y20625D01*
X40584Y20633D01*
D02*
G37*
G36*
X18050Y18649D02*
X17965Y18626D01*
X17885Y18580D01*
X17820Y18515D01*
X17774Y18435D01*
X17751Y18350D01*
X18050D01*
Y18649D01*
D02*
G37*
G36*
Y18250D02*
X17751D01*
X17774Y18165D01*
X17820Y18085D01*
X17885Y18020D01*
X17965Y17974D01*
X18050Y17951D01*
Y18250D01*
D02*
G37*
G36*
X65550Y12699D02*
Y12400D01*
X65849D01*
X65826Y12485D01*
X65780Y12565D01*
X65715Y12630D01*
X65635Y12676D01*
X65550Y12699D01*
D02*
G37*
G36*
X65450D02*
X65365Y12676D01*
X65285Y12630D01*
X65220Y12565D01*
X65174Y12485D01*
X65151Y12400D01*
X65450D01*
Y12699D01*
D02*
G37*
G36*
X65849Y12300D02*
X65550D01*
Y12001D01*
X65635Y12024D01*
X65715Y12070D01*
X65780Y12135D01*
X65826Y12215D01*
X65849Y12300D01*
D02*
G37*
G36*
X65450D02*
X65151D01*
X65174Y12215D01*
X65220Y12135D01*
X65285Y12070D01*
X65365Y12024D01*
X65450Y12001D01*
Y12300D01*
D02*
G37*
G36*
X63196Y12800D02*
X63104D01*
X63015Y12776D01*
X62935Y12730D01*
X62870Y12665D01*
X62824Y12585D01*
X62800Y12496D01*
Y12404D01*
X62824Y12315D01*
X62847Y12274D01*
Y11376D01*
X62824Y11335D01*
X62800Y11246D01*
Y11154D01*
X62824Y11065D01*
X62870Y10985D01*
X62935Y10920D01*
X63015Y10874D01*
X63104Y10850D01*
X63196D01*
X63285Y10874D01*
X63365Y10920D01*
X63430Y10985D01*
X63476Y11065D01*
X63500Y11154D01*
Y11246D01*
X63476Y11335D01*
X63453Y11376D01*
Y12274D01*
X63476Y12315D01*
X63500Y12404D01*
Y12496D01*
X63476Y12585D01*
X63430Y12665D01*
X63365Y12730D01*
X63285Y12776D01*
X63196Y12800D01*
D02*
G37*
G36*
X64850Y10399D02*
Y10100D01*
X65149D01*
X65126Y10185D01*
X65080Y10265D01*
X65015Y10330D01*
X64935Y10376D01*
X64850Y10399D01*
D02*
G37*
G36*
X64750D02*
X64665Y10376D01*
X64585Y10330D01*
X64520Y10265D01*
X64474Y10185D01*
X64451Y10100D01*
X64750D01*
Y10399D01*
D02*
G37*
G36*
X65149Y10000D02*
X64850D01*
Y9701D01*
X64935Y9724D01*
X65015Y9770D01*
X65080Y9835D01*
X65126Y9915D01*
X65149Y10000D01*
D02*
G37*
G36*
X64750D02*
X64451D01*
X64474Y9915D01*
X64520Y9835D01*
X64585Y9770D01*
X64665Y9724D01*
X64750Y9701D01*
Y10000D01*
D02*
G37*
G36*
X61500Y8199D02*
Y7900D01*
X61799D01*
X61776Y7985D01*
X61730Y8065D01*
X61665Y8130D01*
X61585Y8176D01*
X61500Y8199D01*
D02*
G37*
G36*
X61400D02*
X61315Y8176D01*
X61235Y8130D01*
X61170Y8065D01*
X61124Y7985D01*
X61101Y7900D01*
X61400D01*
Y8199D01*
D02*
G37*
G36*
X19914Y8200D02*
X19900D01*
Y7600D01*
X20500D01*
Y7614D01*
X20475Y7740D01*
X20426Y7858D01*
X20355Y7964D01*
X20264Y8055D01*
X20158Y8126D01*
X20040Y8175D01*
X19914Y8200D01*
D02*
G37*
G36*
X19800D02*
X19786D01*
X19660Y8175D01*
X19542Y8126D01*
X19436Y8055D01*
X19345Y7964D01*
X19274Y7858D01*
X19225Y7740D01*
X19200Y7614D01*
Y7600D01*
X19800D01*
Y8200D01*
D02*
G37*
G36*
X61799Y7800D02*
X61500D01*
Y7501D01*
X61585Y7524D01*
X61665Y7570D01*
X61730Y7635D01*
X61776Y7715D01*
X61799Y7800D01*
D02*
G37*
G36*
X61400D02*
X61101D01*
X61124Y7715D01*
X61170Y7635D01*
X61235Y7570D01*
X61315Y7524D01*
X61400Y7501D01*
Y7800D01*
D02*
G37*
G36*
X57350Y7869D02*
X57337D01*
X57215Y7836D01*
X57105Y7773D01*
X57016Y7683D01*
X56953Y7574D01*
X56926Y7474D01*
X56874D01*
X56847Y7574D01*
X56784Y7683D01*
X56695Y7773D01*
X56585Y7836D01*
X56463Y7869D01*
X56337D01*
X56215Y7836D01*
X56105Y7773D01*
X56016Y7683D01*
X55953Y7574D01*
X55920Y7452D01*
Y7325D01*
X55953Y7203D01*
X56016Y7094D01*
X56105Y7004D01*
X56215Y6941D01*
X56337Y6909D01*
X56463D01*
X56585Y6941D01*
X56695Y7004D01*
X56784Y7094D01*
X56847Y7203D01*
X56874Y7303D01*
X56926D01*
X56953Y7203D01*
X57016Y7094D01*
X57105Y7004D01*
X57215Y6941D01*
X57337Y6909D01*
X57350D01*
Y7389D01*
Y7869D01*
D02*
G37*
G36*
X61016Y7450D02*
Y6911D01*
X61305D01*
Y7117D01*
X61293Y7205D01*
X61259Y7287D01*
X61206Y7357D01*
X61135Y7411D01*
X61054Y7445D01*
X61016Y7450D01*
D02*
G37*
G36*
X51382D02*
Y6911D01*
X51671D01*
Y7117D01*
X51659Y7205D01*
X51625Y7287D01*
X51571Y7357D01*
X51501Y7411D01*
X51419Y7445D01*
X51382Y7450D01*
D02*
G37*
G36*
X51281D02*
X51244Y7445D01*
X51162Y7411D01*
X51092Y7357D01*
X51038Y7287D01*
X51004Y7205D01*
X50992Y7117D01*
Y6911D01*
X51281D01*
Y7450D01*
D02*
G37*
G36*
X20500Y7500D02*
X19900D01*
Y6900D01*
X19914D01*
X20040Y6925D01*
X20158Y6974D01*
X20264Y7045D01*
X20355Y7136D01*
X20426Y7242D01*
X20475Y7360D01*
X20500Y7486D01*
Y7500D01*
D02*
G37*
G36*
X17914Y8200D02*
X17786D01*
X17660Y8175D01*
X17542Y8126D01*
X17436Y8055D01*
X17345Y7964D01*
X17274Y7858D01*
X17225Y7740D01*
X17200Y7614D01*
Y7486D01*
X17225Y7360D01*
X17274Y7242D01*
X17345Y7136D01*
X17436Y7045D01*
X17542Y6974D01*
X17660Y6925D01*
X17786Y6900D01*
X17914D01*
X18040Y6925D01*
X18158Y6974D01*
X18264Y7045D01*
X18355Y7136D01*
X18426Y7242D01*
X18475Y7360D01*
X18500Y7486D01*
Y7614D01*
X18475Y7740D01*
X18426Y7858D01*
X18355Y7964D01*
X18264Y8055D01*
X18158Y8126D01*
X18040Y8175D01*
X17914Y8200D01*
D02*
G37*
G36*
X66462Y7000D02*
X66038D01*
X65825Y6787D01*
X65775Y6775D01*
X65740Y6836D01*
X65661Y6915D01*
X65564Y6971D01*
X65456Y7000D01*
X65344D01*
X65236Y6971D01*
X65139Y6915D01*
X65060Y6836D01*
X65004Y6739D01*
X64975Y6631D01*
Y6519D01*
X65004Y6411D01*
X65060Y6314D01*
X65139Y6235D01*
X65236Y6179D01*
X65344Y6150D01*
X65456D01*
X65564Y6179D01*
X65661Y6235D01*
X65740Y6314D01*
X65775Y6374D01*
X65825Y6362D01*
X66038Y6150D01*
X66462D01*
X66675Y6362D01*
Y6787D01*
X66462Y7000D01*
D02*
G37*
G36*
X7964Y7080D02*
X7613D01*
Y6729D01*
X7964D01*
Y7080D01*
D02*
G37*
G36*
Y6629D02*
X7613D01*
Y6278D01*
X7964D01*
Y6629D01*
D02*
G37*
G36*
X61305Y6811D02*
X61016D01*
Y6273D01*
X61054Y6278D01*
X61135Y6312D01*
X61206Y6366D01*
X61259Y6436D01*
X61293Y6518D01*
X61305Y6606D01*
Y6811D01*
D02*
G37*
G36*
X51671D02*
X51382D01*
Y6273D01*
X51419Y6278D01*
X51501Y6312D01*
X51571Y6366D01*
X51625Y6436D01*
X51659Y6518D01*
X51671Y6606D01*
Y6811D01*
D02*
G37*
G36*
X51281D02*
X50992D01*
Y6606D01*
X51004Y6518D01*
X51038Y6436D01*
X51092Y6366D01*
X51162Y6312D01*
X51244Y6278D01*
X51281Y6273D01*
Y6811D01*
D02*
G37*
G36*
X63270Y7454D02*
X62598D01*
Y6269D01*
X63270D01*
Y7454D01*
D02*
G37*
G36*
X53636D02*
X52964D01*
Y6269D01*
X53636D01*
Y7454D01*
D02*
G37*
G36*
X61950Y7456D02*
X61862Y7445D01*
X61780Y7411D01*
X61710Y7357D01*
X61656Y7287D01*
X61622Y7205D01*
X61611Y7117D01*
Y6606D01*
X61622Y6518D01*
X61656Y6436D01*
X61710Y6366D01*
X61780Y6312D01*
X61862Y6278D01*
X61950Y6266D01*
X62038Y6278D01*
X62120Y6312D01*
X62190Y6366D01*
X62244Y6436D01*
X62278Y6518D01*
X62289Y6606D01*
Y7117D01*
X62278Y7205D01*
X62244Y7287D01*
X62190Y7357D01*
X62120Y7411D01*
X62038Y7445D01*
X61950Y7456D01*
D02*
G37*
G36*
X52316D02*
X52228Y7445D01*
X52146Y7411D01*
X52076Y7357D01*
X52022Y7287D01*
X51988Y7205D01*
X51977Y7117D01*
Y6606D01*
X51988Y6518D01*
X52022Y6436D01*
X52076Y6366D01*
X52146Y6312D01*
X52228Y6278D01*
X52316Y6266D01*
X52404Y6278D01*
X52485Y6312D01*
X52556Y6366D01*
X52609Y6436D01*
X52643Y6518D01*
X52655Y6606D01*
Y7117D01*
X52643Y7205D01*
X52609Y7287D01*
X52556Y7357D01*
X52485Y7411D01*
X52404Y7445D01*
X52316Y7456D01*
D02*
G37*
G36*
X69556Y7000D02*
X69444D01*
X69336Y6971D01*
X69239Y6915D01*
X69160Y6836D01*
X69104Y6739D01*
X69075Y6631D01*
Y6519D01*
X69104Y6411D01*
X69160Y6314D01*
X69239Y6235D01*
X69336Y6179D01*
X69444Y6150D01*
X69556D01*
X69664Y6179D01*
X69761Y6235D01*
X69840Y6314D01*
X69896Y6411D01*
X69925Y6519D01*
Y6631D01*
X69896Y6739D01*
X69840Y6836D01*
X69761Y6915D01*
X69664Y6971D01*
X69556Y7000D01*
D02*
G37*
G36*
X68713D02*
X68288D01*
X68075Y6787D01*
Y6362D01*
X68288Y6150D01*
X68713D01*
X68925Y6362D01*
Y6787D01*
X68713Y7000D01*
D02*
G37*
G36*
X67306D02*
X67194D01*
X67086Y6971D01*
X66989Y6915D01*
X66910Y6836D01*
X66854Y6739D01*
X66825Y6631D01*
Y6519D01*
X66854Y6411D01*
X66910Y6314D01*
X66989Y6235D01*
X67086Y6179D01*
X67194Y6150D01*
X67306D01*
X67414Y6179D01*
X67511Y6235D01*
X67590Y6314D01*
X67646Y6411D01*
X67675Y6519D01*
Y6631D01*
X67646Y6739D01*
X67590Y6836D01*
X67511Y6915D01*
X67414Y6971D01*
X67306Y7000D01*
D02*
G37*
G36*
X64612D02*
X64187D01*
X63975Y6787D01*
Y6362D01*
X64187Y6150D01*
X64612D01*
X64825Y6362D01*
Y6787D01*
X64612Y7000D01*
D02*
G37*
G36*
X33933Y8089D02*
X31767D01*
X31728Y8081D01*
X31695Y8059D01*
X31673Y8026D01*
X31665Y7987D01*
Y6113D01*
X31673Y6074D01*
X31695Y6041D01*
X31728Y6019D01*
X31767Y6011D01*
X33933D01*
X33972Y6019D01*
X34005Y6041D01*
X34027Y6074D01*
X34035Y6113D01*
Y7987D01*
X34027Y8026D01*
X34005Y8059D01*
X33972Y8081D01*
X33933Y8089D01*
D02*
G37*
G36*
X24484Y8084D02*
X22318D01*
X22279Y8076D01*
X22246Y8054D01*
X22224Y8021D01*
X22217Y7982D01*
Y6108D01*
X22224Y6069D01*
X22246Y6036D01*
X22279Y6014D01*
X22318Y6006D01*
X24484D01*
X24523Y6014D01*
X24556Y6036D01*
X24578Y6069D01*
X24586Y6108D01*
Y7982D01*
X24578Y8021D01*
X24556Y8054D01*
X24523Y8076D01*
X24484Y8084D01*
D02*
G37*
G36*
X50033Y8034D02*
X47867D01*
X47828Y8026D01*
X47795Y8004D01*
X47773Y7971D01*
X47765Y7932D01*
Y6058D01*
X47773Y6019D01*
X47795Y5986D01*
X47828Y5964D01*
X47867Y5956D01*
X50033D01*
X50072Y5964D01*
X50105Y5986D01*
X50127Y6019D01*
X50135Y6058D01*
Y7932D01*
X50127Y7971D01*
X50105Y8004D01*
X50072Y8026D01*
X50033Y8034D01*
D02*
G37*
G36*
X40584D02*
X38419D01*
X38379Y8026D01*
X38346Y8004D01*
X38324Y7971D01*
X38317Y7932D01*
Y6058D01*
X38324Y6019D01*
X38346Y5986D01*
X38379Y5964D01*
X38419Y5956D01*
X40584D01*
X40623Y5964D01*
X40656Y5986D01*
X40678Y6019D01*
X40686Y6058D01*
Y7932D01*
X40678Y7971D01*
X40656Y8004D01*
X40623Y8026D01*
X40584Y8034D01*
D02*
G37*
%LPD*%
G36*
X37555Y34456D02*
X37536Y34410D01*
X35124D01*
X35105Y34456D01*
X35145Y34497D01*
X35202Y34596D01*
X37416D01*
X37555Y34456D01*
D02*
G37*
G36*
X43019Y23843D02*
X42998Y23793D01*
X41371D01*
X40552Y24613D01*
X40571Y24659D01*
X42203D01*
X43019Y23843D01*
D02*
G37*
D101*
X23401Y7045D02*
D03*
Y19644D02*
D03*
X32850D02*
D03*
Y7050D02*
D03*
X48950Y6995D02*
D03*
X39501D02*
D03*
Y19594D02*
D03*
X48950D02*
D03*
D105*
X14198Y8300D02*
X14948Y7550D01*
X11635Y8300D02*
X14198D01*
X10014Y6679D02*
X11635Y8300D01*
X14948Y7550D02*
X15850D01*
X41287Y23589D02*
X43059D01*
X43663Y22985D01*
X40222Y24654D02*
X41287Y23589D01*
X43663Y22637D02*
Y22985D01*
Y22637D02*
X44350Y21950D01*
X40437Y24863D02*
X42287D01*
X46242Y20908D01*
Y19999D02*
Y20908D01*
X37950Y27350D02*
X40437Y24863D01*
X67300Y28613D02*
Y28673D01*
X66700Y29273D02*
Y29300D01*
Y29273D02*
X67300Y28673D01*
X9750Y37100D02*
X11500Y38850D01*
X9750Y35650D02*
Y37100D01*
X12589Y41572D02*
X13154Y42137D01*
Y42404D01*
X32800Y30389D02*
Y35050D01*
X13154Y42404D02*
X13700Y42950D01*
X32289Y29879D02*
X32800Y30389D01*
X13700Y42950D02*
X17450D01*
X25300Y24500D02*
X29450Y28650D01*
X37650D01*
X23114Y21850D02*
X29109Y27845D01*
X33455D01*
X20600Y24500D02*
X25300D01*
X17750Y21850D02*
X23114D01*
X16877Y19991D02*
X17179D01*
X16568Y20300D02*
X16877Y19991D01*
X16550Y20300D02*
X16568D01*
X34359Y34206D02*
X37660D01*
X41959Y29907D01*
Y29341D02*
Y29907D01*
Y29341D02*
X42600Y28700D01*
X33766Y34800D02*
X34359Y34206D01*
X37500Y34800D02*
X42600Y29700D01*
X34750Y34800D02*
X37500D01*
X46242Y19999D02*
X55991Y10250D01*
X59700D01*
X39646Y24654D02*
X40222D01*
X36950Y27350D02*
X39646Y24654D01*
X37650Y28650D02*
X38950Y27350D01*
X33455Y27845D02*
X33950Y27350D01*
X12350Y24150D02*
X13800D01*
X12250Y24050D02*
X12350Y24150D01*
X17179Y19991D02*
X17198Y19972D01*
D106*
X8765Y6078D02*
X18378D01*
X8265Y6578D02*
X8765Y6078D01*
X8014Y6679D02*
X8115Y6578D01*
X8265D01*
X18378Y6078D02*
X19850Y7550D01*
X42350Y21950D02*
X42873Y22473D01*
Y23139D01*
X44500Y24050D02*
Y25200D01*
X44250Y23800D02*
X44500Y24050D01*
X57400Y7389D02*
X58669Y6119D01*
X58831D01*
X58850Y6100D01*
X60696Y6592D02*
X60932D01*
X58850Y6100D02*
X60204D01*
X60966Y6625D02*
Y6861D01*
X60932Y6592D02*
X60966Y6625D01*
X60204Y6100D02*
X60696Y6592D01*
X66150Y32125D02*
X67300Y30975D01*
X66150Y32125D02*
Y35900D01*
X20223Y18600D02*
X20250D01*
X18100Y18300D02*
X19923D01*
X20223Y18600D01*
X43200Y39550D02*
X43650Y39100D01*
X26450Y39550D02*
X43200D01*
X43650Y39100D02*
X44150D01*
X63150Y11200D02*
Y12450D01*
X22950Y40500D02*
Y42950D01*
X24750Y44750D01*
X25911Y39011D02*
X26450Y39550D01*
X25550Y38479D02*
X25911Y38840D01*
Y39011D01*
X25550Y38452D02*
Y38479D01*
X28643Y34021D02*
X29337Y33327D01*
X28643Y34021D02*
Y35579D01*
X33270Y35784D02*
X33274D01*
X29541Y36478D02*
X32577D01*
X29337Y33324D02*
Y33327D01*
X32577Y36478D02*
X33270Y35784D01*
X28643Y35579D02*
X29541Y36478D01*
X17450Y38400D02*
Y42950D01*
X16650Y37600D02*
X17450Y38400D01*
X47500Y26550D02*
Y28450D01*
X47450Y28500D02*
X47500Y28450D01*
X56088Y43037D02*
X56200Y43150D01*
X52050Y38250D02*
X52500D01*
X51150Y39150D02*
X52050Y38250D01*
X29350Y25050D02*
X37400D01*
X39350Y23100D01*
X21550Y34800D02*
X22250D01*
X20850Y35500D02*
X21550Y34800D01*
X28000Y26000D02*
X28950Y25050D01*
X29350D01*
X26700Y27750D02*
Y33250D01*
Y27750D02*
X27150Y27300D01*
X14750Y22150D02*
X16100Y20800D01*
X18350D01*
X24000Y22100D02*
X25200Y20900D01*
Y16950D02*
Y20900D01*
X16450Y32550D02*
X16650Y32750D01*
Y37600D01*
D107*
X22100Y33850D02*
X25163Y36913D01*
X33129D01*
X34258Y35784D01*
D108*
X13700Y54000D02*
D03*
X15700D02*
D03*
X13850Y7550D02*
D03*
X15850D02*
D03*
X17850D02*
D03*
X19850D02*
D03*
D109*
X67350Y19963D02*
D03*
Y20750D02*
D03*
Y21537D02*
D03*
X67300Y28613D02*
D03*
Y29400D02*
D03*
Y30187D02*
D03*
D110*
X67350Y22325D02*
D03*
X67300Y30975D02*
D03*
D111*
X60966Y6861D02*
D03*
X61950D02*
D03*
X51332D02*
D03*
X52316D02*
D03*
D112*
X62934D02*
D03*
X53300D02*
D03*
D113*
X67605Y52850D02*
D03*
X63600D02*
D03*
X65600D02*
D03*
X58250Y52700D02*
D03*
X56250D02*
D03*
X60255D02*
D03*
X52405Y53000D02*
D03*
X48400D02*
D03*
X50400D02*
D03*
D114*
X43350Y21950D02*
D03*
X44350D02*
D03*
X29750Y22450D02*
D03*
X28750D02*
D03*
X30750D02*
D03*
X31750D02*
D03*
X32750D02*
D03*
D115*
X42350Y21950D02*
D03*
X27750Y22450D02*
D03*
D116*
X9250Y50490D02*
D03*
Y52950D02*
D03*
D117*
X7360Y51670D02*
D03*
D118*
X52924Y42900D02*
D03*
X48200D02*
D03*
X53000Y47703D02*
D03*
X48200D02*
D03*
X50562Y42113D02*
D03*
X60812Y43037D02*
D03*
X56088D02*
D03*
X60888Y47841D02*
D03*
X56088D02*
D03*
X58450Y42250D02*
D03*
X68512Y43087D02*
D03*
X63788D02*
D03*
X68588Y47891D02*
D03*
X63788D02*
D03*
X66150Y42300D02*
D03*
D119*
X58400Y7389D02*
D03*
X57400D02*
D03*
X56400D02*
D03*
D120*
X9014Y6679D02*
D03*
X10014D02*
D03*
X11014D02*
D03*
X9014Y22907D02*
D03*
X10014D02*
D03*
X11014D02*
D03*
X8014D02*
D03*
D121*
Y6679D02*
D03*
D122*
X23050Y52450D02*
D03*
Y50950D02*
D03*
D123*
X30321Y35784D02*
D03*
Y29879D02*
D03*
X31305D02*
D03*
X32289D02*
D03*
X33274D02*
D03*
X34258D02*
D03*
X35242D02*
D03*
X36226D02*
D03*
X37211D02*
D03*
X38195D02*
D03*
X39179D02*
D03*
X40163D02*
D03*
X41148D02*
D03*
Y35784D02*
D03*
X40163D02*
D03*
X39179D02*
D03*
X38195D02*
D03*
X37211D02*
D03*
X36226D02*
D03*
X35242D02*
D03*
X34258D02*
D03*
X33274D02*
D03*
X32289D02*
D03*
X31305D02*
D03*
X41148Y34800D02*
D03*
Y33816D02*
D03*
Y32831D02*
D03*
X33766Y34800D02*
D03*
X34750D02*
D03*
X29337Y30371D02*
D03*
Y31355D02*
D03*
Y32339D02*
D03*
Y33324D02*
D03*
Y34308D02*
D03*
Y35292D02*
D03*
D124*
X29950Y27350D02*
D03*
X30950D02*
D03*
X31950D02*
D03*
X32950D02*
D03*
X33950D02*
D03*
X34950D02*
D03*
X35950D02*
D03*
X36950D02*
D03*
X37950D02*
D03*
X38950D02*
D03*
X39950D02*
D03*
X41050Y38750D02*
D03*
X40050D02*
D03*
X39050D02*
D03*
X38050D02*
D03*
X37050D02*
D03*
X36050D02*
D03*
X35050D02*
D03*
X34050D02*
D03*
X33050D02*
D03*
X32050D02*
D03*
X31050D02*
D03*
X42600Y28700D02*
D03*
Y29700D02*
D03*
Y30700D02*
D03*
Y31700D02*
D03*
X43150Y51000D02*
D03*
Y50000D02*
D03*
Y49000D02*
D03*
Y48000D02*
D03*
Y47000D02*
D03*
Y46000D02*
D03*
Y45000D02*
D03*
X32400Y52000D02*
D03*
Y51000D02*
D03*
Y50000D02*
D03*
Y49000D02*
D03*
Y48000D02*
D03*
Y47000D02*
D03*
Y46000D02*
D03*
D125*
X40950Y27350D02*
D03*
X30050Y38750D02*
D03*
D126*
X42600Y32700D02*
D03*
X43150Y52000D02*
D03*
X32400Y45000D02*
D03*
D127*
X65400Y6575D02*
D03*
X67250D02*
D03*
X69500D02*
D03*
D128*
X64400D02*
D03*
X66250D02*
D03*
X68500D02*
D03*
D129*
X42873Y23139D02*
D03*
X39350Y23100D02*
D03*
X44250Y23800D02*
D03*
X42850Y20450D02*
D03*
X68950Y37500D02*
D03*
X20500Y37000D02*
D03*
X11400Y37600D02*
D03*
X20250Y18600D02*
D03*
X60250Y32450D02*
D03*
X14123Y45186D02*
D03*
X68800Y20500D02*
D03*
X64800Y10050D02*
D03*
X58850Y6100D02*
D03*
X61450Y7850D02*
D03*
X63150Y11200D02*
D03*
X44500Y25200D02*
D03*
X18100Y18300D02*
D03*
X63150Y12450D02*
D03*
X65500Y12350D02*
D03*
X66150Y35900D02*
D03*
X53550Y32350D02*
D03*
X50700Y34200D02*
D03*
X22950Y40500D02*
D03*
X24750Y44750D02*
D03*
X24550Y31150D02*
D03*
X16850Y28400D02*
D03*
X14650Y32400D02*
D03*
X25550Y38452D02*
D03*
X17450Y42950D02*
D03*
X47450Y28500D02*
D03*
X47500Y26550D02*
D03*
X52500Y38250D02*
D03*
X51150Y39150D02*
D03*
X44150Y39100D02*
D03*
X22250Y34800D02*
D03*
X29350Y25050D02*
D03*
X28000Y26000D02*
D03*
X27150Y27300D02*
D03*
X26700Y33250D02*
D03*
X14750Y22150D02*
D03*
X18350Y20800D02*
D03*
X20850Y35500D02*
D03*
X25200Y16950D02*
D03*
X24000Y22100D02*
D03*
X16450Y32550D02*
D03*
X16650Y37600D02*
D03*
D130*
X66700Y29300D02*
D03*
X9750Y35650D02*
D03*
X11500Y38850D02*
D03*
X12589Y41572D02*
D03*
X32800Y35050D02*
D03*
X22100Y33850D02*
D03*
X17750Y21850D02*
D03*
X16550Y20300D02*
D03*
X59700Y10250D02*
D03*
X20600Y24500D02*
D03*
X12250Y24050D02*
D03*
X13800Y24150D02*
D03*
X17198Y19972D02*
D03*
M02*
