G04*
G04 #@! TF.GenerationSoftware,Altium Limited,Altium Designer,21.3.2 (30)*
G04*
G04 Layer_Color=32768*
%FSLAX24Y24*%
%MOIN*%
G70*
G04*
G04 #@! TF.SameCoordinates,4918C4AF-473F-441A-9CD2-E68DF055B6D3*
G04*
G04*
G04 #@! TF.FilePolarity,Positive*
G04*
G01*
G75*
%ADD131C,0.0039*%
%ADD132C,0.0020*%
D131*
X19533Y43163D02*
X22367D01*
X19533Y39737D02*
X22367D01*
Y43163D01*
X19533Y39737D02*
Y43163D01*
X20950Y41253D02*
Y41647D01*
X20753Y41450D02*
X21147D01*
D132*
X6660Y6029D02*
Y23549D01*
Y6029D02*
X12369D01*
Y23549D01*
X6660D02*
X12369D01*
X33858Y51895D02*
X41142D01*
Y45005D02*
Y51895D01*
X33858Y45005D02*
X41142D01*
X33858D02*
Y51895D01*
X22220Y6010D02*
Y8081D01*
Y6010D02*
X24582D01*
Y8081D01*
X22220D02*
X24582D01*
X22220Y18608D02*
Y20679D01*
Y18608D02*
X24582D01*
Y20679D01*
X22220D02*
X24582D01*
X31669Y18608D02*
Y20679D01*
Y18608D02*
X34031D01*
Y20679D01*
X31669D02*
X34031D01*
X31669Y6015D02*
Y8085D01*
Y6015D02*
X34031D01*
Y8085D01*
X31669D02*
X34031D01*
X38320Y5960D02*
Y8031D01*
Y5960D02*
X40682D01*
Y8031D01*
X38320D02*
X40682D01*
X38320Y20629D02*
X40682D01*
Y18558D02*
Y20629D01*
X38320Y18558D02*
X40682D01*
X38320D02*
Y20629D01*
X47769Y8031D02*
X50131D01*
Y5960D02*
Y8031D01*
X47769Y5960D02*
X50131D01*
X47769D02*
Y8031D01*
Y20629D02*
X50131D01*
Y18558D02*
Y20629D01*
X47769Y18558D02*
X50131D01*
X47769D02*
Y20629D01*
M02*
