G04*
G04 #@! TF.GenerationSoftware,Altium Limited,Altium Designer,21.3.2 (30)*
G04*
G04 Layer_Color=255*
%FSLAX24Y24*%
%MOIN*%
G70*
G04*
G04 #@! TF.SameCoordinates,4918C4AF-473F-441A-9CD2-E68DF055B6D3*
G04*
G04*
G04 #@! TF.FilePolarity,Positive*
G04*
G01*
G75*
%ADD101C,0.1299*%
%ADD108C,0.1100*%
%ADD109C,0.0476*%
%ADD110R,0.0476X0.0476*%
%ADD111O,0.0472X0.0984*%
%ADD112R,0.0472X0.0984*%
%ADD113R,0.0787X0.0984*%
%ADD114C,0.0630*%
%ADD115R,0.0630X0.0630*%
%ADD116O,0.1870X0.0925*%
%ADD117O,0.0925X0.1870*%
%ADD118C,0.1200*%
%ADD119C,0.0760*%
%ADD120C,0.0602*%
%ADD121R,0.0602X0.0602*%
%ADD122C,0.0690*%
%ADD123C,0.0787*%
%ADD124C,0.0591*%
%ADD125R,0.0591X0.0591*%
%ADD126R,0.0591X0.0591*%
%ADD127C,0.0650*%
%ADD128P,0.0704X8X22.5*%
D101*
X23401Y7045D02*
D03*
Y19644D02*
D03*
X32850D02*
D03*
Y7050D02*
D03*
X48950Y6995D02*
D03*
X39501D02*
D03*
Y19594D02*
D03*
X48950D02*
D03*
D108*
X13700Y54000D02*
D03*
X15700D02*
D03*
X13850Y7550D02*
D03*
X15850D02*
D03*
X17850D02*
D03*
X19850D02*
D03*
D109*
X67350Y19963D02*
D03*
Y20750D02*
D03*
Y21537D02*
D03*
X67300Y28613D02*
D03*
Y29400D02*
D03*
Y30187D02*
D03*
D110*
X67350Y22325D02*
D03*
X67300Y30975D02*
D03*
D111*
X60966Y6861D02*
D03*
X61950D02*
D03*
X51332D02*
D03*
X52316D02*
D03*
D112*
X62934D02*
D03*
X53300D02*
D03*
D113*
X67605Y52850D02*
D03*
X63600D02*
D03*
X65600D02*
D03*
X58250Y52700D02*
D03*
X56250D02*
D03*
X60255D02*
D03*
X52405Y53000D02*
D03*
X48400D02*
D03*
X50400D02*
D03*
D114*
X43350Y21950D02*
D03*
X44350D02*
D03*
X29750Y22450D02*
D03*
X28750D02*
D03*
X30750D02*
D03*
X31750D02*
D03*
X32750D02*
D03*
D115*
X42350Y21950D02*
D03*
X27750Y22450D02*
D03*
D116*
X9250Y50490D02*
D03*
Y52950D02*
D03*
D117*
X7360Y51670D02*
D03*
D118*
X52924Y42900D02*
D03*
X48200D02*
D03*
X53000Y47703D02*
D03*
X48200D02*
D03*
X50562Y42113D02*
D03*
X60812Y43037D02*
D03*
X56088D02*
D03*
X60888Y47841D02*
D03*
X56088D02*
D03*
X58450Y42250D02*
D03*
X68512Y43087D02*
D03*
X63788D02*
D03*
X68588Y47891D02*
D03*
X63788D02*
D03*
X66150Y42300D02*
D03*
D119*
X58400Y7389D02*
D03*
X57400D02*
D03*
X56400D02*
D03*
D120*
X9014Y6679D02*
D03*
X10014D02*
D03*
X11014D02*
D03*
X9014Y22907D02*
D03*
X10014D02*
D03*
X11014D02*
D03*
X8014D02*
D03*
D121*
Y6679D02*
D03*
D122*
X23050Y52450D02*
D03*
Y50950D02*
D03*
D123*
X30321Y35784D02*
D03*
Y29879D02*
D03*
X31305D02*
D03*
X32289D02*
D03*
X33274D02*
D03*
X34258D02*
D03*
X35242D02*
D03*
X36226D02*
D03*
X37211D02*
D03*
X38195D02*
D03*
X39179D02*
D03*
X40163D02*
D03*
X41148D02*
D03*
Y35784D02*
D03*
X40163D02*
D03*
X39179D02*
D03*
X38195D02*
D03*
X37211D02*
D03*
X36226D02*
D03*
X35242D02*
D03*
X34258D02*
D03*
X33274D02*
D03*
X32289D02*
D03*
X31305D02*
D03*
X41148Y34800D02*
D03*
Y33816D02*
D03*
Y32831D02*
D03*
X33766Y34800D02*
D03*
X34750D02*
D03*
X29337Y30371D02*
D03*
Y31355D02*
D03*
Y32339D02*
D03*
Y33324D02*
D03*
Y34308D02*
D03*
Y35292D02*
D03*
D124*
X29950Y27350D02*
D03*
X30950D02*
D03*
X31950D02*
D03*
X32950D02*
D03*
X33950D02*
D03*
X34950D02*
D03*
X35950D02*
D03*
X36950D02*
D03*
X37950D02*
D03*
X38950D02*
D03*
X39950D02*
D03*
X41050Y38750D02*
D03*
X40050D02*
D03*
X39050D02*
D03*
X38050D02*
D03*
X37050D02*
D03*
X36050D02*
D03*
X35050D02*
D03*
X34050D02*
D03*
X33050D02*
D03*
X32050D02*
D03*
X31050D02*
D03*
X42600Y28700D02*
D03*
Y29700D02*
D03*
Y30700D02*
D03*
Y31700D02*
D03*
X43150Y51000D02*
D03*
Y50000D02*
D03*
Y49000D02*
D03*
Y48000D02*
D03*
Y47000D02*
D03*
Y46000D02*
D03*
Y45000D02*
D03*
X32400Y52000D02*
D03*
Y51000D02*
D03*
Y50000D02*
D03*
Y49000D02*
D03*
Y48000D02*
D03*
Y47000D02*
D03*
Y46000D02*
D03*
D125*
X40950Y27350D02*
D03*
X30050Y38750D02*
D03*
D126*
X42600Y32700D02*
D03*
X43150Y52000D02*
D03*
X32400Y45000D02*
D03*
D127*
X65400Y6575D02*
D03*
X67250D02*
D03*
X69500D02*
D03*
D128*
X64400D02*
D03*
X66250D02*
D03*
X68500D02*
D03*
M02*
