G04*
G04 #@! TF.GenerationSoftware,Altium Limited,Altium Designer,21.3.2 (30)*
G04*
G04 Layer_Physical_Order=1*
G04 Layer_Color=255*
%FSLAX24Y24*%
%MOIN*%
G70*
G04*
G04 #@! TF.SameCoordinates,4918C4AF-473F-441A-9CD2-E68DF055B6D3*
G04*
G04*
G04 #@! TF.FilePolarity,Positive*
G04*
G01*
G75*
%ADD14C,0.0100*%
%ADD20R,0.0551X0.0472*%
%ADD21R,0.0394X0.0945*%
%ADD22R,0.1299X0.0945*%
%ADD23R,0.0472X0.0335*%
%ADD24R,0.0335X0.0472*%
%ADD25R,0.0540X0.0500*%
%ADD26R,0.1299X0.0945*%
%ADD27R,0.1024X0.0591*%
%ADD28R,0.0500X0.0540*%
%ADD29R,0.0472X0.0551*%
%ADD30R,0.0550X0.0500*%
%ADD31O,0.0360X0.1000*%
%ADD32R,0.2600X0.3000*%
%ADD33R,0.0360X0.1000*%
%ADD34R,0.0600X0.0600*%
%ADD35R,0.0669X0.0669*%
%ADD36R,0.0591X0.1024*%
%ADD37R,0.0500X0.0550*%
%ADD38R,0.0360X0.0500*%
%ADD39O,0.0800X0.0240*%
%ADD40R,0.0800X0.0900*%
%ADD41R,0.0906X0.0906*%
%ADD42R,0.0600X0.0850*%
%ADD43R,0.1400X0.0900*%
%ADD44R,0.1200X0.0750*%
%ADD45R,0.1300X0.2000*%
%ADD46O,0.0400X0.0200*%
G04:AMPARAMS|DCode=47|XSize=20mil|YSize=40mil|CornerRadius=0mil|HoleSize=0mil|Usage=FLASHONLY|Rotation=90.000|XOffset=0mil|YOffset=0mil|HoleType=Round|Shape=Octagon|*
%AMOCTAGOND47*
4,1,8,-0.0200,-0.0050,-0.0200,0.0050,-0.0150,0.0100,0.0150,0.0100,0.0200,0.0050,0.0200,-0.0050,0.0150,-0.0100,-0.0150,-0.0100,-0.0200,-0.0050,0.0*
%
%ADD47OCTAGOND47*%

%ADD48R,0.1102X0.0433*%
%ADD49R,0.1024X0.0433*%
%ADD101C,0.1299*%
%ADD105C,0.0200*%
%ADD106C,0.0400*%
%ADD107C,0.0270*%
%ADD108C,0.1100*%
%ADD109C,0.0476*%
%ADD110R,0.0476X0.0476*%
%ADD111O,0.0472X0.0984*%
%ADD112R,0.0472X0.0984*%
%ADD113R,0.0787X0.0984*%
%ADD114C,0.0630*%
%ADD115R,0.0630X0.0630*%
%ADD116O,0.1870X0.0925*%
%ADD117O,0.0925X0.1870*%
%ADD118C,0.1200*%
%ADD119C,0.0760*%
%ADD120C,0.0602*%
%ADD121R,0.0602X0.0602*%
%ADD122C,0.0690*%
%ADD123C,0.0787*%
%ADD124C,0.0591*%
%ADD125R,0.0591X0.0591*%
%ADD126R,0.0591X0.0591*%
%ADD127C,0.0650*%
%ADD128P,0.0704X8X22.5*%
%ADD129C,0.0500*%
%ADD130C,0.0300*%
G36*
X70016Y43324D02*
X69966Y43314D01*
X69962Y43324D01*
X69914Y43386D01*
X69914Y43386D01*
X69028Y44272D01*
X68965Y44320D01*
X68892Y44351D01*
X68814Y44361D01*
X68210D01*
X68132Y44351D01*
X68059Y44320D01*
X67996Y44272D01*
X67117Y43393D01*
X67069Y43330D01*
X67039Y43257D01*
X67029Y43179D01*
Y42334D01*
X66892Y42197D01*
X66848Y42221D01*
X66850Y42231D01*
Y42369D01*
X66823Y42504D01*
X66770Y42632D01*
X66694Y42746D01*
X66596Y42844D01*
X66482Y42920D01*
X66354Y42973D01*
X66354Y42973D01*
Y52202D01*
X66338Y52280D01*
X66294Y52346D01*
X66294Y52346D01*
X66094Y52546D01*
Y53442D01*
X65106D01*
Y52258D01*
X65805D01*
X65946Y52117D01*
Y42973D01*
X65946Y42973D01*
X65818Y42920D01*
X65704Y42844D01*
X65606Y42746D01*
X65530Y42632D01*
X65477Y42504D01*
X65450Y42369D01*
Y42231D01*
X65477Y42096D01*
X65530Y41968D01*
X65606Y41854D01*
X65704Y41756D01*
X65713Y41750D01*
X65698Y41703D01*
X65601D01*
X64449Y42854D01*
X64461Y42883D01*
X64488Y43018D01*
Y43156D01*
X64461Y43292D01*
X64408Y43419D01*
X64332Y43534D01*
X64234Y43631D01*
X64119Y43708D01*
X63992Y43760D01*
X63857Y43787D01*
X63719D01*
X63584Y43760D01*
X63456Y43708D01*
X63342Y43631D01*
X63244Y43534D01*
X63167Y43419D01*
X63155Y43390D01*
X62556D01*
X61794Y44151D01*
X61732Y44199D01*
X61659Y44230D01*
X61580Y44240D01*
X60439D01*
X60361Y44230D01*
X60288Y44199D01*
X60225Y44151D01*
X60225Y44151D01*
X59417Y43343D01*
X59369Y43280D01*
X59339Y43207D01*
X59329Y43129D01*
Y42284D01*
X59192Y42147D01*
X59148Y42171D01*
X59150Y42181D01*
Y42319D01*
X59123Y42454D01*
X59070Y42582D01*
X58994Y42696D01*
X58896Y42794D01*
X58782Y42870D01*
X58654Y42923D01*
X58654Y42923D01*
Y52108D01*
X58744D01*
Y53292D01*
X57756D01*
Y52108D01*
X58246D01*
Y42923D01*
X58246Y42923D01*
X58118Y42870D01*
X58004Y42794D01*
X57906Y42696D01*
X57830Y42582D01*
X57777Y42454D01*
X57750Y42319D01*
Y42181D01*
X57777Y42046D01*
X57830Y41918D01*
X57906Y41804D01*
X58004Y41706D01*
X58118Y41630D01*
X58246Y41577D01*
X58381Y41550D01*
X58519D01*
X58529Y41552D01*
X58553Y41508D01*
X58299Y41254D01*
X56749Y42804D01*
X56761Y42833D01*
X56788Y42968D01*
Y43106D01*
X56761Y43242D01*
X56708Y43369D01*
X56632Y43484D01*
X56534Y43581D01*
X56419Y43658D01*
X56292Y43710D01*
X56157Y43737D01*
X56019D01*
X55884Y43710D01*
X55756Y43658D01*
X55737Y43645D01*
X55367Y44014D01*
X55305Y44062D01*
X55232Y44092D01*
X55153Y44103D01*
X52552D01*
X52473Y44092D01*
X52400Y44062D01*
X52338Y44014D01*
X51529Y43206D01*
X51481Y43143D01*
X51451Y43070D01*
X51441Y42992D01*
Y42146D01*
X51304Y42010D01*
X51260Y42033D01*
X51262Y42044D01*
Y42182D01*
X51235Y42317D01*
X51183Y42444D01*
X51106Y42559D01*
X51008Y42656D01*
X50894Y42733D01*
X50766Y42786D01*
X50766Y42786D01*
Y52408D01*
X50894D01*
Y53592D01*
X49906D01*
Y52408D01*
X50358D01*
Y42786D01*
X50358Y42786D01*
X50231Y42733D01*
X50116Y42656D01*
X50018Y42559D01*
X49942Y42444D01*
X49889Y42317D01*
X49862Y42182D01*
Y42044D01*
X49889Y41908D01*
X49942Y41781D01*
X50018Y41666D01*
X50116Y41569D01*
X50125Y41563D01*
X50110Y41515D01*
X50013D01*
X48861Y42667D01*
X48873Y42696D01*
X48900Y42831D01*
Y42969D01*
X48873Y43104D01*
X48820Y43232D01*
X48744Y43346D01*
X48646Y43444D01*
X48532Y43520D01*
X48404Y43573D01*
X48269Y43600D01*
X48131D01*
X47996Y43573D01*
X47868Y43520D01*
X47754Y43444D01*
X47656Y43346D01*
X47580Y43232D01*
X47527Y43104D01*
X47500Y42969D01*
Y42831D01*
X47527Y42696D01*
X47580Y42568D01*
X47603Y42534D01*
X47236Y42167D01*
X47188Y42104D01*
X47158Y42031D01*
X47147Y41953D01*
Y39403D01*
X44326D01*
X44285Y39426D01*
X44196Y39450D01*
X44104D01*
X44015Y39426D01*
X43935Y39380D01*
X43870Y39315D01*
X43824Y39235D01*
X43800Y39146D01*
Y39054D01*
X43824Y38965D01*
X43870Y38885D01*
X43935Y38820D01*
X44015Y38774D01*
X44104Y38750D01*
X44196D01*
X44285Y38774D01*
X44326Y38797D01*
X44573D01*
Y38636D01*
X45324D01*
Y38797D01*
X47100D01*
Y38530D01*
X47800D01*
Y38597D01*
X48950D01*
Y38530D01*
X49650D01*
Y38597D01*
X50900D01*
X50978Y38608D01*
X51051Y38638D01*
X51114Y38686D01*
X51240Y38812D01*
X51285Y38824D01*
X51365Y38870D01*
X51430Y38935D01*
X51476Y39015D01*
X51500Y39104D01*
Y39196D01*
X51476Y39285D01*
X51430Y39365D01*
X51365Y39430D01*
X51285Y39476D01*
X51196Y39500D01*
X51104D01*
X51015Y39476D01*
X50935Y39430D01*
X50870Y39365D01*
X50824Y39285D01*
X50812Y39240D01*
X50775Y39203D01*
X49650D01*
Y39270D01*
X48950D01*
Y39203D01*
X47800D01*
Y39270D01*
X47753D01*
Y41828D01*
X48126Y42201D01*
X48131Y42200D01*
X48269D01*
X48404Y42227D01*
X48433Y42239D01*
X49673Y40999D01*
X49736Y40951D01*
X49809Y40920D01*
X49887Y40910D01*
X49887Y40910D01*
X50935D01*
X51013Y40920D01*
X51086Y40951D01*
X51149Y40999D01*
X51957Y41807D01*
X51957Y41807D01*
X52005Y41870D01*
X52036Y41943D01*
X52046Y42021D01*
Y42866D01*
X52182Y43003D01*
X52226Y42979D01*
X52224Y42969D01*
Y42831D01*
X52251Y42696D01*
X52304Y42568D01*
X52381Y42454D01*
X52478Y42356D01*
X52593Y42280D01*
X52720Y42227D01*
X52720Y42227D01*
Y41234D01*
X51706Y40219D01*
X51662Y40153D01*
X51646Y40075D01*
Y37086D01*
X51662Y37008D01*
X51706Y36942D01*
X51950Y36698D01*
Y35841D01*
X52496D01*
Y34728D01*
X52485D01*
Y34056D01*
X53019D01*
Y34728D01*
X52904D01*
Y35841D01*
X53450D01*
Y36986D01*
X52239D01*
X52054Y37171D01*
Y38578D01*
X52197D01*
Y38426D01*
X52174Y38385D01*
X52150Y38296D01*
Y38204D01*
X52174Y38115D01*
X52220Y38035D01*
X52285Y37970D01*
X52365Y37924D01*
X52454Y37900D01*
X52546D01*
X52635Y37924D01*
X52715Y37970D01*
X52780Y38035D01*
X52826Y38115D01*
X52850Y38204D01*
Y38296D01*
X52826Y38385D01*
X52803Y38426D01*
Y38578D01*
X53450D01*
Y39722D01*
X52054D01*
Y39991D01*
X53069Y41005D01*
X53113Y41071D01*
X53128Y41149D01*
Y42227D01*
X53129Y42227D01*
X53256Y42280D01*
X53371Y42356D01*
X53468Y42454D01*
X53545Y42568D01*
X53598Y42696D01*
X53624Y42831D01*
Y42969D01*
X53598Y43104D01*
X53545Y43232D01*
X53468Y43346D01*
X53371Y43444D01*
X53362Y43450D01*
X53376Y43497D01*
X55028D01*
X55393Y43132D01*
X55388Y43106D01*
Y42968D01*
X55415Y42833D01*
X55467Y42706D01*
X55544Y42591D01*
X55642Y42494D01*
X55756Y42417D01*
X55884Y42364D01*
X56019Y42337D01*
X56157D01*
X56292Y42364D01*
X56321Y42376D01*
X57947Y40750D01*
Y40200D01*
X57880D01*
Y39500D01*
X57947D01*
Y37605D01*
X57642Y37300D01*
X57330D01*
Y36600D01*
X58070D01*
Y36872D01*
X58464Y37266D01*
X58512Y37329D01*
X58542Y37402D01*
X58553Y37480D01*
Y39497D01*
X59650D01*
Y39128D01*
X60912D01*
X60953Y39078D01*
X60946Y39046D01*
Y37621D01*
X60861Y37536D01*
X59650D01*
Y36391D01*
X60196D01*
Y35481D01*
X59193Y34478D01*
X58935D01*
Y33806D01*
X59469D01*
Y34178D01*
X60544Y35253D01*
X60588Y35319D01*
X60604Y35397D01*
Y36391D01*
X61150D01*
Y37248D01*
X61202Y37300D01*
X61248Y37281D01*
Y35543D01*
X61258Y35464D01*
X61288Y35391D01*
X61336Y35329D01*
X61397Y35268D01*
Y33570D01*
X61350D01*
Y32830D01*
X61856D01*
X61875Y32784D01*
X61762Y32670D01*
X61350D01*
Y31930D01*
X62050D01*
Y32382D01*
X64704Y35035D01*
X64704Y35035D01*
X64748Y35101D01*
X64763Y35179D01*
X64763Y35179D01*
Y36438D01*
X64955D01*
Y37391D01*
X65001Y37410D01*
X65041Y37370D01*
Y34619D01*
X65057Y34541D01*
X65101Y34475D01*
X65635Y33941D01*
Y33456D01*
X66169D01*
Y33792D01*
X66181Y33800D01*
X66225Y33866D01*
X66241Y33944D01*
Y34353D01*
X67949Y36061D01*
X67949Y36061D01*
X67993Y36127D01*
X68009Y36205D01*
X68009Y36205D01*
Y37920D01*
X68656Y38568D01*
X68701Y38634D01*
X68716Y38712D01*
Y42414D01*
X68716Y42414D01*
X68844Y42467D01*
X68958Y42544D01*
X69056Y42641D01*
X69133Y42756D01*
X69185Y42883D01*
X69212Y43018D01*
Y43156D01*
X69210Y43167D01*
X69254Y43190D01*
X69397Y43047D01*
Y30580D01*
X69177D01*
Y30614D01*
X68426D01*
Y30490D01*
X67451D01*
X67430Y30502D01*
X67344Y30525D01*
X67256D01*
X67170Y30502D01*
X67093Y30458D01*
X67030Y30395D01*
X66985Y30318D01*
X66962Y30232D01*
Y30143D01*
X66985Y30057D01*
X67030Y29980D01*
X67093Y29917D01*
X67170Y29873D01*
X67256Y29850D01*
X67344D01*
X67430Y29873D01*
X67451Y29885D01*
X68672D01*
X68750Y29895D01*
X68823Y29925D01*
X68844Y29941D01*
X69177D01*
Y29975D01*
X69397D01*
X69397Y29975D01*
Y22401D01*
X69076D01*
Y22434D01*
X68752D01*
X68648Y22539D01*
X68585Y22587D01*
X68512Y22617D01*
X68434Y22627D01*
X67688D01*
Y22663D01*
X67116D01*
Y22901D01*
X67744Y23529D01*
X67744Y23529D01*
X67788Y23595D01*
X67804Y23674D01*
Y25312D01*
X67882Y25390D01*
X67926Y25457D01*
X67942Y25535D01*
Y28962D01*
X67926Y29040D01*
X67882Y29106D01*
X67637Y29352D01*
X67638Y29356D01*
Y29444D01*
X67615Y29530D01*
X67570Y29607D01*
X67507Y29670D01*
X67430Y29715D01*
X67344Y29738D01*
X67256D01*
X67170Y29715D01*
X67093Y29670D01*
X67030Y29607D01*
X66985Y29530D01*
X66963Y29448D01*
X66958Y29446D01*
X66912Y29442D01*
X66897Y29456D01*
X66888Y29501D01*
X66844Y29567D01*
X66844Y29567D01*
X66727Y29684D01*
X66661Y29729D01*
X66583Y29744D01*
X64340D01*
X64262Y29729D01*
X64196Y29684D01*
X64196Y29684D01*
X63916Y29404D01*
X48184D01*
X47794Y29794D01*
X47728Y29838D01*
X47650Y29854D01*
X46620D01*
X46542Y29838D01*
X46476Y29794D01*
X46476Y29794D01*
X45982Y29300D01*
X45818D01*
X45274Y29844D01*
X45208Y29888D01*
X45130Y29904D01*
X42939D01*
X42916Y29943D01*
X42895Y29964D01*
X42903Y30027D01*
X42940Y30051D01*
X43035Y30146D01*
X60430D01*
Y30000D01*
X61170D01*
Y30700D01*
X60430D01*
Y30554D01*
X43011D01*
X42981Y30594D01*
X42995Y30648D01*
Y30650D01*
X42600D01*
Y30750D01*
X42995D01*
Y30752D01*
X42968Y30853D01*
X42916Y30943D01*
X42843Y31016D01*
X42753Y31068D01*
X42652Y31095D01*
X42633D01*
X42448Y31280D01*
X42474Y31325D01*
X42548Y31305D01*
X42652D01*
X42753Y31332D01*
X42798Y31358D01*
X42856Y31346D01*
X56680D01*
Y31200D01*
X57420D01*
Y31900D01*
X56680D01*
Y31754D01*
X42995D01*
X42968Y31853D01*
X42916Y31943D01*
X42843Y32016D01*
X42753Y32068D01*
X42652Y32095D01*
X42548D01*
X42505Y32084D01*
X42330Y32259D01*
X42349Y32305D01*
X42707D01*
X42806Y32206D01*
X42872Y32162D01*
X42950Y32146D01*
X46480D01*
Y32000D01*
X47220D01*
Y32700D01*
X46480D01*
Y32554D01*
X43034D01*
X42995Y32593D01*
Y33095D01*
X42804D01*
Y33348D01*
X42788Y33426D01*
X42744Y33492D01*
X42744Y33492D01*
X41612Y34624D01*
X41641Y34735D01*
Y34865D01*
X41608Y34991D01*
X41543Y35103D01*
X41451Y35195D01*
X41338Y35260D01*
X41312Y35267D01*
Y35317D01*
X41338Y35324D01*
X41451Y35389D01*
X41543Y35481D01*
X41608Y35594D01*
X41641Y35719D01*
Y35849D01*
X41608Y35975D01*
X41543Y36087D01*
X41451Y36179D01*
X41338Y36244D01*
X41303Y36254D01*
Y38444D01*
X41366Y38507D01*
X41418Y38597D01*
X41445Y38698D01*
Y38802D01*
X41434Y38845D01*
X46294Y43706D01*
X46338Y43772D01*
X46354Y43850D01*
Y50650D01*
X46338Y50728D01*
X46294Y50794D01*
X45944Y51144D01*
X45878Y51188D01*
X45800Y51204D01*
X43489D01*
X43466Y51243D01*
X43393Y51316D01*
X43303Y51368D01*
X43202Y51395D01*
X43098D01*
X43024Y51375D01*
X42998Y51420D01*
X43183Y51605D01*
X43545D01*
Y51950D01*
X43150D01*
Y52000D01*
X43100D01*
Y52395D01*
X42755D01*
Y52033D01*
X42231Y51508D01*
X41143D01*
Y51522D01*
X40581D01*
Y51206D01*
Y50889D01*
X41143D01*
Y50903D01*
X42356D01*
X42434Y50914D01*
X42507Y50944D01*
X42570Y50992D01*
X42730Y51152D01*
X42775Y51126D01*
X42755Y51052D01*
Y50948D01*
X42766Y50905D01*
X42484Y50622D01*
X41143D01*
Y50735D01*
X39920D01*
Y50102D01*
X41143D01*
Y50215D01*
X42568D01*
X42647Y50230D01*
X42713Y50274D01*
X43055Y50616D01*
X43098Y50605D01*
X43202D01*
X43303Y50632D01*
X43393Y50684D01*
X43466Y50757D01*
X43489Y50796D01*
X45716D01*
X45946Y50566D01*
Y43934D01*
X41145Y39134D01*
X41102Y39145D01*
X40998D01*
X40897Y39118D01*
X40807Y39066D01*
X40734Y38993D01*
X40682Y38903D01*
X40655Y38802D01*
Y38698D01*
X40682Y38597D01*
X40734Y38507D01*
X40807Y38434D01*
X40895Y38383D01*
Y36208D01*
X40844Y36179D01*
X40753Y36087D01*
X40688Y35975D01*
X40681Y35948D01*
X40631D01*
X40623Y35975D01*
X40558Y36087D01*
X40467Y36179D01*
X40354Y36244D01*
X40311Y36256D01*
Y38452D01*
X40366Y38507D01*
X40418Y38597D01*
X40445Y38698D01*
Y38802D01*
X40434Y38845D01*
X45594Y44006D01*
X45638Y44072D01*
X45654Y44150D01*
Y49833D01*
X45638Y49911D01*
X45594Y49977D01*
X45427Y50144D01*
X45361Y50188D01*
X45283Y50204D01*
X43489D01*
X43466Y50243D01*
X43393Y50316D01*
X43303Y50368D01*
X43202Y50395D01*
X43098D01*
X42997Y50368D01*
X42907Y50316D01*
X42834Y50243D01*
X42782Y50153D01*
X42755Y50052D01*
Y49997D01*
X42593Y49835D01*
X41143D01*
Y49948D01*
X39920D01*
Y49315D01*
X41143D01*
Y49427D01*
X42677D01*
X42755Y49443D01*
X42821Y49487D01*
X42977Y49643D01*
X42997Y49632D01*
X43098Y49605D01*
X43202D01*
X43303Y49632D01*
X43393Y49684D01*
X43466Y49757D01*
X43489Y49796D01*
X45198D01*
X45246Y49748D01*
Y44234D01*
X40145Y39134D01*
X40102Y39145D01*
X39998D01*
X39897Y39118D01*
X39807Y39066D01*
X39734Y38993D01*
X39682Y38903D01*
X39655Y38802D01*
Y38698D01*
X39682Y38597D01*
X39734Y38507D01*
X39807Y38434D01*
X39897Y38382D01*
X39903Y38380D01*
Y36204D01*
X39860Y36179D01*
X39768Y36087D01*
X39703Y35975D01*
X39696Y35948D01*
X39646D01*
X39639Y35975D01*
X39574Y36087D01*
X39482Y36179D01*
X39370Y36244D01*
X39318Y36258D01*
Y38459D01*
X39366Y38507D01*
X39418Y38597D01*
X39445Y38698D01*
Y38802D01*
X39434Y38845D01*
X44844Y44256D01*
X44888Y44322D01*
X44904Y44400D01*
X44904Y44400D01*
Y48833D01*
X44888Y48911D01*
X44844Y48977D01*
X44677Y49144D01*
X44611Y49188D01*
X44533Y49204D01*
X43489D01*
X43466Y49243D01*
X43393Y49316D01*
X43303Y49368D01*
X43202Y49395D01*
X43098D01*
X42997Y49368D01*
X42907Y49316D01*
X42834Y49243D01*
X42782Y49153D01*
X42755Y49052D01*
Y49048D01*
X41143D01*
Y49160D01*
X39920D01*
Y48527D01*
X41143D01*
Y48640D01*
X42888D01*
X42959Y48654D01*
X42997Y48632D01*
X43098Y48605D01*
X43202D01*
X43303Y48632D01*
X43393Y48684D01*
X43466Y48757D01*
X43489Y48796D01*
X44448D01*
X44496Y48748D01*
Y44484D01*
X39145Y39134D01*
X39102Y39145D01*
X38998D01*
X38897Y39118D01*
X38807Y39066D01*
X38734Y38993D01*
X38682Y38903D01*
X38655Y38802D01*
Y38698D01*
X38682Y38597D01*
X38734Y38507D01*
X38807Y38434D01*
X38897Y38382D01*
X38911Y38378D01*
Y36199D01*
X38876Y36179D01*
X38784Y36087D01*
X38719Y35975D01*
X38712Y35948D01*
X38662D01*
X38655Y35975D01*
X38590Y36087D01*
X38498Y36179D01*
X38385Y36244D01*
X38326Y36260D01*
Y38467D01*
X38366Y38507D01*
X38418Y38597D01*
X38445Y38698D01*
Y38802D01*
X38434Y38845D01*
X44144Y44556D01*
X44188Y44622D01*
X44204Y44700D01*
Y47850D01*
X44188Y47928D01*
X44144Y47994D01*
X43894Y48244D01*
X43828Y48288D01*
X43750Y48304D01*
X43672Y48288D01*
X43657Y48279D01*
X43430D01*
X43393Y48316D01*
X43303Y48368D01*
X43202Y48395D01*
X43098D01*
X42997Y48368D01*
X42907Y48316D01*
X42834Y48243D01*
X42828Y48232D01*
X41143D01*
Y48373D01*
X39920D01*
Y47740D01*
X41143D01*
Y47824D01*
X42795D01*
X42834Y47757D01*
X42907Y47684D01*
X42997Y47632D01*
X43098Y47605D01*
X43202D01*
X43303Y47632D01*
X43393Y47684D01*
X43466Y47757D01*
X43518Y47847D01*
X43525Y47871D01*
X43691D01*
X43796Y47766D01*
Y44784D01*
X38145Y39134D01*
X38102Y39145D01*
X37998D01*
X37897Y39118D01*
X37807Y39066D01*
X37734Y38993D01*
X37682Y38903D01*
X37655Y38802D01*
Y38698D01*
X37682Y38597D01*
X37734Y38507D01*
X37807Y38434D01*
X37897Y38382D01*
X37919Y38376D01*
Y36195D01*
X37892Y36179D01*
X37800Y36087D01*
X37735Y35975D01*
X37728Y35948D01*
X37678D01*
X37671Y35975D01*
X37606Y36087D01*
X37514Y36179D01*
X37401Y36244D01*
X37329Y36264D01*
Y38470D01*
X37366Y38507D01*
X37418Y38597D01*
X37445Y38698D01*
Y38802D01*
X37418Y38903D01*
X37366Y38993D01*
X37293Y39066D01*
X37203Y39118D01*
X37102Y39145D01*
X36998D01*
X36955Y39134D01*
X36554Y39534D01*
Y39750D01*
X36538Y39828D01*
X36494Y39894D01*
X31704Y44684D01*
Y47616D01*
X31884Y47796D01*
X32061D01*
X32084Y47757D01*
X32157Y47684D01*
X32247Y47632D01*
X32348Y47605D01*
X32452D01*
X32553Y47632D01*
X32643Y47684D01*
X32716Y47757D01*
X32755Y47824D01*
X33857D01*
Y47740D01*
X34861D01*
X34880Y47736D01*
X34900Y47740D01*
X35080D01*
Y47920D01*
X35084Y47940D01*
X35080Y47959D01*
Y48373D01*
X33857D01*
Y48232D01*
X32722D01*
X32716Y48243D01*
X32643Y48316D01*
X32553Y48368D01*
X32452Y48395D01*
X32348D01*
X32247Y48368D01*
X32157Y48316D01*
X32084Y48243D01*
X32061Y48204D01*
X31800D01*
X31722Y48188D01*
X31656Y48144D01*
X31356Y47844D01*
X31312Y47778D01*
X31296Y47700D01*
Y44663D01*
X31246Y44642D01*
X31204Y44684D01*
Y48366D01*
X31634Y48796D01*
X32061D01*
X32084Y48757D01*
X32157Y48684D01*
X32247Y48632D01*
X32348Y48605D01*
X32452D01*
X32553Y48632D01*
X32591Y48654D01*
X32662Y48640D01*
X33857D01*
Y48527D01*
X35080D01*
Y49160D01*
X33857D01*
Y49048D01*
X32795D01*
Y49052D01*
X32768Y49153D01*
X32716Y49243D01*
X32643Y49316D01*
X32553Y49368D01*
X32452Y49395D01*
X32348D01*
X32247Y49368D01*
X32157Y49316D01*
X32084Y49243D01*
X32061Y49204D01*
X31550D01*
X31472Y49188D01*
X31406Y49144D01*
X31406Y49144D01*
X30856Y48594D01*
X30812Y48528D01*
X30796Y48450D01*
Y44600D01*
X30812Y44522D01*
X30856Y44456D01*
X35846Y39466D01*
Y39089D01*
X35807Y39066D01*
X35734Y38993D01*
X35682Y38903D01*
X35655Y38802D01*
Y38698D01*
X35682Y38597D01*
X35734Y38507D01*
X35807Y38434D01*
X35897Y38382D01*
X35921Y38375D01*
Y36177D01*
X35831Y36087D01*
X35766Y35975D01*
X35759Y35948D01*
X35709D01*
X35702Y35975D01*
X35637Y36087D01*
X35545Y36179D01*
X35433Y36244D01*
X35307Y36278D01*
X35254D01*
Y38411D01*
X35293Y38434D01*
X35366Y38507D01*
X35418Y38597D01*
X35445Y38698D01*
Y38802D01*
X35418Y38903D01*
X35366Y38993D01*
X35293Y39066D01*
X35203Y39118D01*
X35102Y39145D01*
X34998D01*
X34955Y39134D01*
X32044Y42044D01*
X31978Y42088D01*
X31900Y42104D01*
X26600D01*
Y42270D01*
X25900D01*
Y41530D01*
X26600D01*
Y41696D01*
X31816D01*
X34666Y38845D01*
X34655Y38802D01*
Y38698D01*
X34682Y38597D01*
X34734Y38507D01*
X34807Y38434D01*
X34846Y38411D01*
Y36135D01*
X34854Y36095D01*
X34847Y36087D01*
X34782Y35975D01*
X34775Y35948D01*
X34725D01*
X34718Y35975D01*
X34653Y36087D01*
X34561Y36179D01*
X34448Y36244D01*
X34323Y36278D01*
X34254D01*
Y38411D01*
X34293Y38434D01*
X34366Y38507D01*
X34418Y38597D01*
X34445Y38698D01*
Y38802D01*
X34418Y38903D01*
X34366Y38993D01*
X34293Y39066D01*
X34203Y39118D01*
X34102Y39145D01*
X33998D01*
X33897Y39118D01*
X33807Y39066D01*
X33734Y38993D01*
X33682Y38903D01*
X33655Y38802D01*
Y38698D01*
X33682Y38597D01*
X33734Y38507D01*
X33807Y38434D01*
X33846Y38411D01*
Y36151D01*
X33860Y36082D01*
X33798Y35975D01*
X33791Y35948D01*
X33741D01*
X33734Y35975D01*
X33669Y36087D01*
X33577Y36179D01*
X33464Y36244D01*
X33339Y36278D01*
X33254D01*
Y38411D01*
X33293Y38434D01*
X33366Y38507D01*
X33418Y38597D01*
X33445Y38698D01*
Y38802D01*
X33418Y38903D01*
X33366Y38993D01*
X33293Y39066D01*
X33203Y39118D01*
X33102Y39145D01*
X32998D01*
X32897Y39118D01*
X32807Y39066D01*
X32734Y38993D01*
X32682Y38903D01*
X32655Y38802D01*
Y38698D01*
X32682Y38597D01*
X32734Y38507D01*
X32807Y38434D01*
X32846Y38411D01*
Y36167D01*
X32862Y36089D01*
X32871Y36075D01*
X32814Y35975D01*
X32806Y35948D01*
X32757D01*
X32749Y35975D01*
X32684Y36087D01*
X32593Y36179D01*
X32480Y36244D01*
X32354Y36278D01*
X32254D01*
Y38411D01*
X32293Y38434D01*
X32366Y38507D01*
X32418Y38597D01*
X32445Y38698D01*
Y38802D01*
X32418Y38903D01*
X32366Y38993D01*
X32293Y39066D01*
X32203Y39118D01*
X32102Y39145D01*
X31998D01*
X31897Y39118D01*
X31807Y39066D01*
X31734Y38993D01*
X31682Y38903D01*
X31655Y38802D01*
Y38698D01*
X31682Y38597D01*
X31734Y38507D01*
X31807Y38434D01*
X31846Y38411D01*
Y36183D01*
X31862Y36105D01*
X31884Y36070D01*
X31829Y35975D01*
X31822Y35948D01*
X31772D01*
X31765Y35975D01*
X31700Y36087D01*
X31608Y36179D01*
X31496Y36244D01*
X31370Y36278D01*
X31355D01*
Y35784D01*
Y35291D01*
X31370D01*
X31371Y35291D01*
X32971Y33690D01*
Y30274D01*
X32970Y30274D01*
X32879Y30182D01*
X32814Y30069D01*
X32806Y30043D01*
X32757D01*
X32749Y30069D01*
X32684Y30182D01*
X32593Y30274D01*
X32480Y30339D01*
X32354Y30372D01*
X32224D01*
X32099Y30339D01*
X31986Y30274D01*
X31894Y30182D01*
X31829Y30069D01*
X31822Y30043D01*
X31772D01*
X31765Y30069D01*
X31700Y30182D01*
X31608Y30274D01*
X31496Y30339D01*
X31397Y30365D01*
Y30483D01*
X31381Y30561D01*
X31337Y30627D01*
X29801Y32164D01*
X29830Y32274D01*
Y32404D01*
X29797Y32530D01*
X29732Y32643D01*
X29640Y32734D01*
X29527Y32799D01*
X29501Y32806D01*
Y32857D01*
X29527Y32864D01*
X29640Y32929D01*
X29732Y33020D01*
X29797Y33133D01*
X29830Y33259D01*
Y33389D01*
X29797Y33514D01*
X29732Y33627D01*
X29640Y33719D01*
X29527Y33784D01*
X29501Y33791D01*
Y33841D01*
X29527Y33848D01*
X29640Y33913D01*
X29732Y34005D01*
X29797Y34117D01*
X29830Y34243D01*
Y34258D01*
X28843D01*
Y34243D01*
X28877Y34117D01*
X28942Y34005D01*
X29033Y33913D01*
X29146Y33848D01*
X29172Y33841D01*
Y33791D01*
X29146Y33784D01*
X29033Y33719D01*
X28942Y33627D01*
X28877Y33514D01*
X28843Y33389D01*
Y33363D01*
X28483Y33003D01*
X27014D01*
X26990Y33053D01*
X27026Y33115D01*
X27050Y33204D01*
Y33296D01*
X27026Y33385D01*
X26980Y33465D01*
X26915Y33530D01*
X26835Y33576D01*
X26790Y33588D01*
X25403Y34975D01*
Y37450D01*
X25470D01*
Y37830D01*
X25473Y37850D01*
X25473Y37850D01*
Y37920D01*
X25584Y38031D01*
X25630Y38012D01*
Y37450D01*
X26370D01*
Y37571D01*
X26900D01*
Y37375D01*
X27600D01*
Y37856D01*
X27646Y37875D01*
X27800Y37721D01*
Y37375D01*
X28072D01*
X29034Y36413D01*
Y35687D01*
X29033Y35687D01*
X28942Y35595D01*
X28877Y35483D01*
X28843Y35357D01*
Y35342D01*
X29830D01*
Y35357D01*
X29797Y35483D01*
X29732Y35595D01*
X29640Y35687D01*
X29639Y35687D01*
Y36538D01*
X29639Y36538D01*
X29629Y36617D01*
X29599Y36690D01*
X29551Y36752D01*
X29551Y36752D01*
X28500Y37803D01*
Y38125D01*
X28252D01*
X27161Y39216D01*
X27099Y39264D01*
X27026Y39294D01*
X26947Y39305D01*
X23176D01*
Y39338D01*
X22850D01*
Y39002D01*
Y38666D01*
X23176D01*
Y38699D01*
X25236D01*
X25260Y38649D01*
X25224Y38587D01*
X25202Y38505D01*
X24956Y38259D01*
X24908Y38196D01*
X24889Y38150D01*
X24730D01*
Y37878D01*
X23855Y37003D01*
X22330D01*
Y37050D01*
X22150D01*
X22130Y37054D01*
X22110Y37050D01*
X21770D01*
Y36808D01*
X21758Y36778D01*
X21747Y36700D01*
X21758Y36622D01*
X21770Y36592D01*
Y36350D01*
X22330D01*
Y36397D01*
X23980D01*
X24058Y36408D01*
X24131Y36438D01*
X24194Y36486D01*
X24751Y37043D01*
X24797Y37024D01*
Y34850D01*
X24808Y34772D01*
X24838Y34699D01*
X24886Y34636D01*
X26362Y33160D01*
X26374Y33115D01*
X26410Y33053D01*
X26386Y33003D01*
X25440D01*
X25428Y33012D01*
X25355Y33042D01*
X25277Y33053D01*
X23976D01*
Y33086D01*
X23903D01*
Y33450D01*
X23892Y33528D01*
X23862Y33601D01*
X23814Y33664D01*
X22662Y34816D01*
X22692Y34856D01*
X22722Y34929D01*
X22733Y35007D01*
Y35598D01*
X22742Y35622D01*
X22753Y35700D01*
X22742Y35778D01*
X22730Y35808D01*
Y36050D01*
X22170D01*
Y35834D01*
X22168Y35831D01*
X22138Y35758D01*
X22127Y35680D01*
Y35129D01*
X22115Y35126D01*
X22035Y35080D01*
X21970Y35015D01*
X21924Y34935D01*
X21900Y34846D01*
Y34754D01*
X21924Y34665D01*
X21970Y34585D01*
X22035Y34520D01*
X22115Y34474D01*
X22160Y34462D01*
X23297Y33325D01*
Y33086D01*
X23224D01*
Y32414D01*
X23976D01*
Y32447D01*
X25163D01*
X25175Y32438D01*
X25248Y32408D01*
X25327Y32397D01*
X25327Y32397D01*
X28608D01*
X28686Y32408D01*
X28759Y32438D01*
X28811Y32477D01*
X28851Y32454D01*
X28855Y32450D01*
X28843Y32404D01*
Y32274D01*
X28877Y32149D01*
X28942Y32036D01*
X29033Y31944D01*
X29146Y31879D01*
X29172Y31872D01*
Y31822D01*
X29146Y31815D01*
X29033Y31750D01*
X28942Y31658D01*
X28877Y31546D01*
X28843Y31420D01*
Y31290D01*
X28877Y31165D01*
X28942Y31052D01*
X29033Y30960D01*
X29146Y30895D01*
X29172Y30888D01*
Y30838D01*
X29146Y30831D01*
X29033Y30766D01*
X28942Y30674D01*
X28877Y30561D01*
X28843Y30436D01*
Y30306D01*
X28877Y30180D01*
X28942Y30068D01*
X29033Y29976D01*
X29146Y29911D01*
X29272Y29877D01*
X29402D01*
X29527Y29911D01*
X29640Y29976D01*
X29732Y30068D01*
X29797Y30180D01*
X29830Y30306D01*
Y30436D01*
X29806Y30527D01*
X29851Y30553D01*
X30005Y30399D01*
Y30261D01*
X29926Y30182D01*
X29861Y30069D01*
X29827Y29944D01*
Y29814D01*
X29861Y29688D01*
X29926Y29576D01*
X30018Y29484D01*
X30117Y29426D01*
Y27905D01*
X29957Y27745D01*
X29898D01*
X29797Y27718D01*
X29707Y27666D01*
X29634Y27593D01*
X29582Y27503D01*
X29555Y27402D01*
Y27298D01*
X29566Y27255D01*
X28860Y26549D01*
X28816Y26482D01*
X28812Y26464D01*
X28397Y26049D01*
X28344Y26067D01*
X28326Y26135D01*
X28303Y26176D01*
Y26450D01*
X28303Y26450D01*
X28292Y26528D01*
X28262Y26601D01*
X28214Y26664D01*
X28214Y26664D01*
X27488Y27390D01*
X27476Y27435D01*
X27430Y27515D01*
X27365Y27580D01*
X27285Y27626D01*
X27196Y27650D01*
X27104D01*
X27015Y27626D01*
X26935Y27580D01*
X26870Y27515D01*
X26824Y27435D01*
X26800Y27346D01*
Y27254D01*
X26824Y27165D01*
X26870Y27085D01*
X26935Y27020D01*
X27015Y26974D01*
X27060Y26962D01*
X27697Y26325D01*
Y26176D01*
X27674Y26135D01*
X27650Y26046D01*
Y25954D01*
X27674Y25865D01*
X27720Y25785D01*
X27785Y25720D01*
X27865Y25674D01*
X27933Y25656D01*
X27951Y25603D01*
X24399Y22051D01*
X24350Y22073D01*
Y22146D01*
X24326Y22235D01*
X24280Y22315D01*
X24215Y22380D01*
X24135Y22426D01*
X24090Y22438D01*
X22753Y23775D01*
Y26000D01*
X23850D01*
Y29200D01*
X23121D01*
X23105Y29250D01*
X23114Y29256D01*
X23358Y29500D01*
X23630D01*
Y30700D01*
X23070D01*
Y29788D01*
X22886Y29604D01*
X21825D01*
X21801Y29654D01*
X21823Y29707D01*
X21832Y29780D01*
Y29998D01*
X21842Y30022D01*
X21853Y30100D01*
Y30380D01*
X21842Y30458D01*
X21812Y30531D01*
X21801Y30546D01*
X21795Y30561D01*
X21750Y30620D01*
X21700Y30658D01*
X21594Y30764D01*
X21531Y30812D01*
X21458Y30842D01*
X21380Y30853D01*
X20100D01*
Y30950D01*
X19728D01*
X18464Y32214D01*
X18401Y32262D01*
X18328Y32292D01*
X18250Y32303D01*
X16764D01*
X16740Y32353D01*
X16776Y32415D01*
X16800Y32504D01*
Y32596D01*
X16776Y32685D01*
X16730Y32765D01*
X16665Y32830D01*
X16585Y32876D01*
X16496Y32900D01*
X16404D01*
X16315Y32876D01*
X16235Y32830D01*
X16235Y32830D01*
X16183Y32823D01*
X16110Y32793D01*
X16047Y32745D01*
X15672Y32370D01*
X15400D01*
Y31630D01*
X16100D01*
Y31697D01*
X18125D01*
X19300Y30522D01*
Y30150D01*
X20100D01*
Y30247D01*
X21247D01*
Y30100D01*
X21258Y30022D01*
X21268Y29998D01*
Y29780D01*
X21277Y29707D01*
X21299Y29654D01*
X21275Y29604D01*
X21167D01*
X21089Y29588D01*
X21023Y29544D01*
X20883Y29404D01*
X20100D01*
Y29600D01*
X19300D01*
Y29404D01*
X18814D01*
X17650Y30568D01*
Y31020D01*
X17238D01*
X17014Y31244D01*
X16948Y31288D01*
X16870Y31304D01*
X16100D01*
Y31470D01*
X15400D01*
Y30912D01*
X15354Y30893D01*
X14427Y31819D01*
X14349Y31871D01*
X14258Y31890D01*
X14258Y31890D01*
X13330D01*
Y32000D01*
X12770D01*
Y31300D01*
X13330D01*
Y31410D01*
X14158D01*
X15988Y29581D01*
X15988Y29581D01*
X16066Y29529D01*
X16157Y29510D01*
X16158Y29510D01*
X16950D01*
Y29380D01*
X17650D01*
Y29926D01*
X17696Y29945D01*
X18586Y29056D01*
X18652Y29012D01*
X18730Y28996D01*
X19300D01*
Y28800D01*
X20100D01*
Y28996D01*
X20967D01*
X21000Y29003D01*
X21050Y28962D01*
Y27653D01*
X18950D01*
Y27720D01*
X18250D01*
Y27174D01*
X18204Y27155D01*
X18064Y27294D01*
X17998Y27338D01*
X17920Y27354D01*
X16475D01*
Y27500D01*
X15725D01*
Y26800D01*
X16475D01*
Y26946D01*
X17836D01*
X18250Y26532D01*
Y26080D01*
X18950D01*
Y26820D01*
X18538D01*
X18425Y26934D01*
X18444Y26980D01*
X18950D01*
Y27047D01*
X21050D01*
Y26000D01*
X22147D01*
Y23650D01*
X22158Y23572D01*
X22188Y23499D01*
X22236Y23436D01*
X23662Y22010D01*
X23674Y21965D01*
X23709Y21904D01*
X23685Y21854D01*
X18139D01*
X18061Y21838D01*
X18050Y21831D01*
X18009Y21848D01*
X18000Y21858D01*
Y21900D01*
X17962Y21992D01*
X17892Y22062D01*
X17800Y22100D01*
X17700D01*
X17608Y22062D01*
X17600Y22054D01*
X16184D01*
X14050Y24188D01*
Y24200D01*
X14012Y24292D01*
X13942Y24362D01*
X13850Y24400D01*
X13750D01*
X13658Y24362D01*
X13588Y24292D01*
X13550Y24200D01*
Y24193D01*
X13504Y24174D01*
X12434Y25244D01*
X12371Y25292D01*
X12298Y25322D01*
X12220Y25333D01*
X11900D01*
Y25470D01*
X11200D01*
Y25253D01*
X9970D01*
Y25300D01*
X9230D01*
Y24600D01*
X9970D01*
Y24647D01*
X11420D01*
X11498Y24658D01*
X11571Y24688D01*
X11623Y24727D01*
X12095D01*
X13692Y23130D01*
X13680Y23100D01*
X13680D01*
Y22594D01*
X13634Y22575D01*
X13520Y22688D01*
Y23100D01*
X13028D01*
X12973Y23111D01*
X11360D01*
X11335Y23153D01*
X11261Y23228D01*
X11169Y23281D01*
X11067Y23308D01*
X11016D01*
X11001Y23358D01*
X11048Y23390D01*
X11488Y23830D01*
X11900D01*
Y23865D01*
X12081D01*
X12108Y23838D01*
X12200Y23800D01*
X12300D01*
X12392Y23838D01*
X12462Y23908D01*
X12500Y24000D01*
Y24100D01*
X12462Y24192D01*
X12392Y24262D01*
X12300Y24300D01*
X12200D01*
X12135Y24273D01*
X11900D01*
Y24570D01*
X11200D01*
Y24118D01*
X10820Y23738D01*
X10641D01*
X10563Y23723D01*
X10497Y23678D01*
X10114Y23296D01*
X10067Y23308D01*
X9961D01*
X9859Y23281D01*
X9768Y23228D01*
X9693Y23153D01*
X9669Y23111D01*
X9360D01*
X9335Y23153D01*
X9261Y23228D01*
X9169Y23281D01*
X9067Y23308D01*
X8961D01*
X8859Y23281D01*
X8768Y23228D01*
X8693Y23153D01*
X8640Y23062D01*
X8613Y22960D01*
Y22854D01*
X8640Y22752D01*
X8693Y22661D01*
X8768Y22586D01*
X8859Y22533D01*
X8961Y22506D01*
X9067D01*
X9169Y22533D01*
X9261Y22586D01*
X9335Y22661D01*
X9360Y22703D01*
X9669D01*
X9693Y22661D01*
X9768Y22586D01*
X9859Y22533D01*
X9961Y22506D01*
X10067D01*
X10114Y22519D01*
X12877Y19756D01*
X12943Y19712D01*
X13021Y19696D01*
X15579D01*
X15584Y19693D01*
X15670Y19676D01*
X15746D01*
Y19624D01*
X15670D01*
X15584Y19607D01*
X15511Y19559D01*
X15463Y19486D01*
X15446Y19400D01*
X15463Y19314D01*
X15511Y19241D01*
X15584Y19193D01*
X15670Y19176D01*
X16093D01*
X16120Y19126D01*
X16119Y19124D01*
X15670D01*
X15584Y19107D01*
X15579Y19104D01*
X12106D01*
X8403Y22807D01*
X8415Y22854D01*
Y22960D01*
X8403Y23007D01*
X8844Y23449D01*
X8844Y23449D01*
X8888Y23515D01*
X8904Y23593D01*
Y24600D01*
X9070D01*
Y25300D01*
X8330D01*
Y24600D01*
X8496D01*
Y23677D01*
X8114Y23296D01*
X8067Y23308D01*
X7961D01*
X7859Y23281D01*
X7768Y23228D01*
X7693Y23153D01*
X7640Y23062D01*
X7613Y22960D01*
Y22854D01*
X7640Y22752D01*
X7693Y22661D01*
X7768Y22586D01*
X7859Y22533D01*
X7961Y22506D01*
X8067D01*
X8114Y22519D01*
X11877Y18756D01*
X11943Y18712D01*
X12021Y18696D01*
X15579D01*
X15584Y18693D01*
X15670Y18676D01*
X16230D01*
X16316Y18693D01*
X16389Y18741D01*
X16437Y18814D01*
X16438Y18820D01*
X16992Y19374D01*
X17036Y19440D01*
X17052Y19518D01*
Y19707D01*
X17102Y19741D01*
X17148Y19722D01*
X17248D01*
X17296Y19742D01*
X17346Y19708D01*
Y19260D01*
X17056Y18970D01*
X17012Y18904D01*
X16996Y18826D01*
Y16920D01*
X16850D01*
Y16468D01*
X10870Y10488D01*
X10826Y10422D01*
X10810Y10344D01*
Y7024D01*
X10768Y7000D01*
X10693Y6925D01*
X10640Y6834D01*
X10613Y6732D01*
Y6626D01*
X10640Y6524D01*
X10693Y6432D01*
X10698Y6428D01*
X10679Y6381D01*
X10350D01*
X10330Y6428D01*
X10335Y6432D01*
X10388Y6524D01*
X10415Y6626D01*
Y6732D01*
X10388Y6834D01*
X10335Y6925D01*
X10261Y7000D01*
X10169Y7053D01*
X10067Y7080D01*
X9961D01*
X9859Y7053D01*
X9768Y7000D01*
X9693Y6925D01*
X9640Y6834D01*
X9613Y6732D01*
Y6626D01*
X9640Y6524D01*
X9693Y6432D01*
X9698Y6428D01*
X9679Y6381D01*
X9600D01*
X9403Y6579D01*
X9415Y6626D01*
Y6732D01*
X9388Y6834D01*
X9335Y6925D01*
X9261Y7000D01*
X9169Y7053D01*
X9067Y7080D01*
X8961D01*
X8859Y7053D01*
X8768Y7000D01*
X8693Y6925D01*
X8640Y6834D01*
X8613Y6732D01*
Y6626D01*
X8640Y6524D01*
X8693Y6432D01*
X8768Y6358D01*
X8859Y6305D01*
X8961Y6278D01*
X9067D01*
X9114Y6290D01*
X9371Y6033D01*
X9437Y5989D01*
X9515Y5974D01*
X12478D01*
X12556Y5989D01*
X12622Y6033D01*
X13556Y6968D01*
X13660Y6925D01*
X13786Y6900D01*
X13914D01*
X14040Y6925D01*
X14158Y6974D01*
X14264Y7045D01*
X14355Y7136D01*
X14426Y7242D01*
X14475Y7360D01*
X14500Y7486D01*
Y7614D01*
X14475Y7740D01*
X14432Y7844D01*
X17344Y10756D01*
X17344Y10756D01*
X17388Y10822D01*
X17404Y10900D01*
Y15280D01*
X17550D01*
Y15421D01*
X19550D01*
Y15230D01*
X20250D01*
Y15796D01*
X20296Y15815D01*
X20646Y15466D01*
Y12634D01*
X16144Y8132D01*
X16040Y8175D01*
X15914Y8200D01*
X15786D01*
X15660Y8175D01*
X15542Y8126D01*
X15436Y8055D01*
X15345Y7964D01*
X15274Y7858D01*
X15225Y7740D01*
X15200Y7614D01*
Y7486D01*
X15225Y7360D01*
X15274Y7242D01*
X15345Y7136D01*
X15436Y7045D01*
X15542Y6974D01*
X15660Y6925D01*
X15786Y6900D01*
X15914D01*
X16040Y6925D01*
X16158Y6974D01*
X16264Y7045D01*
X16355Y7136D01*
X16426Y7242D01*
X16475Y7360D01*
X16500Y7486D01*
Y7614D01*
X16475Y7740D01*
X16432Y7844D01*
X20994Y12406D01*
X21038Y12472D01*
X21054Y12550D01*
Y15346D01*
X22150D01*
Y15180D01*
X22850D01*
Y15920D01*
X22150D01*
Y15754D01*
X20934D01*
X20250Y16438D01*
Y16870D01*
X20104D01*
Y17550D01*
X20088Y17628D01*
X20044Y17694D01*
X20003Y17736D01*
Y18286D01*
X20053Y18310D01*
X20115Y18274D01*
X20200Y18251D01*
Y18600D01*
X20300D01*
Y18251D01*
X20385Y18274D01*
X20465Y18320D01*
X20530Y18385D01*
X20576Y18465D01*
X20591Y18522D01*
X20647Y18537D01*
X22147Y17037D01*
Y16500D01*
D01*
X22500D01*
Y16450D01*
X22550D01*
Y16080D01*
X22850D01*
Y16097D01*
X24945D01*
X25556Y15486D01*
X25556Y15486D01*
X25619Y15438D01*
X25692Y15408D01*
X25770Y15397D01*
X25800D01*
Y15253D01*
X25250D01*
X25172Y15242D01*
X25099Y15212D01*
X25036Y15164D01*
X25036Y15164D01*
X18045Y8173D01*
X18040Y8175D01*
X17914Y8200D01*
X17786D01*
X17660Y8175D01*
X17542Y8126D01*
X17436Y8055D01*
X17345Y7964D01*
X17274Y7858D01*
X17225Y7740D01*
X17200Y7614D01*
Y7486D01*
X17225Y7360D01*
X17274Y7242D01*
X17345Y7136D01*
X17436Y7045D01*
X17542Y6974D01*
X17660Y6925D01*
X17786Y6900D01*
X17914D01*
X18040Y6925D01*
X18158Y6974D01*
X18264Y7045D01*
X18355Y7136D01*
X18426Y7242D01*
X18475Y7360D01*
X18500Y7486D01*
Y7614D01*
X18475Y7740D01*
X18473Y7745D01*
X25375Y14647D01*
X25800D01*
Y14400D01*
X26800D01*
Y15231D01*
X26846Y15250D01*
X27060Y15036D01*
X27123Y14988D01*
X27196Y14958D01*
X27274Y14947D01*
X27815D01*
Y14815D01*
X28200D01*
Y15250D01*
Y15685D01*
X27815D01*
Y15553D01*
X27400D01*
X27038Y15914D01*
X26976Y15962D01*
X26903Y15992D01*
X26824Y16003D01*
X25895D01*
X25848Y16050D01*
X25869Y16100D01*
X26800D01*
Y16546D01*
X27815D01*
Y16115D01*
X28582D01*
Y16010D01*
X28300Y15728D01*
Y15300D01*
X28728D01*
X29099Y15671D01*
X29147Y15733D01*
X29177Y15806D01*
X29187Y15885D01*
Y19172D01*
X29177Y19250D01*
X29147Y19323D01*
X29099Y19386D01*
X29053Y19432D01*
Y22147D01*
X29466D01*
X29495Y22118D01*
X29590Y22063D01*
X29695Y22035D01*
X29700D01*
Y22450D01*
X29750D01*
Y22500D01*
X30165D01*
Y22505D01*
X30137Y22610D01*
X30082Y22705D01*
X30053Y22734D01*
Y23973D01*
X30212D01*
Y24296D01*
X31471Y25555D01*
X31534Y25564D01*
X31607Y25594D01*
X31670Y25642D01*
X32983Y26955D01*
X33002D01*
X33103Y26982D01*
X33193Y27034D01*
X33266Y27107D01*
X33318Y27197D01*
X33345Y27298D01*
Y27300D01*
X32950D01*
Y27400D01*
X33345D01*
Y27402D01*
X33318Y27503D01*
X33266Y27593D01*
X33253Y27606D01*
Y29325D01*
X33313Y29385D01*
X33339D01*
X33464Y29419D01*
X33577Y29484D01*
X33669Y29576D01*
X33734Y29688D01*
X33741Y29715D01*
X33791D01*
X33798Y29688D01*
X33863Y29576D01*
X33955Y29484D01*
X34054Y29426D01*
Y27848D01*
X33951Y27745D01*
X33898D01*
X33797Y27718D01*
X33707Y27666D01*
X33634Y27593D01*
X33582Y27503D01*
X33555Y27402D01*
Y27298D01*
X33582Y27197D01*
X33634Y27107D01*
X33707Y27034D01*
X33797Y26982D01*
X33898Y26955D01*
X34002D01*
X34103Y26982D01*
X34193Y27034D01*
X34266Y27107D01*
X34318Y27197D01*
X34345Y27298D01*
Y27402D01*
X34318Y27503D01*
X34306Y27524D01*
X34402Y27619D01*
X34446Y27686D01*
X34462Y27764D01*
X34462Y27764D01*
Y29426D01*
X34561Y29484D01*
X34653Y29576D01*
X34718Y29688D01*
X34725Y29715D01*
X34775D01*
X34782Y29688D01*
X34847Y29576D01*
X34939Y29484D01*
X35038Y29426D01*
Y27832D01*
X34951Y27745D01*
X34898D01*
X34797Y27718D01*
X34707Y27666D01*
X34634Y27593D01*
X34582Y27503D01*
X34555Y27402D01*
Y27298D01*
X34582Y27197D01*
X34634Y27107D01*
X34707Y27034D01*
X34746Y27011D01*
Y26734D01*
X30861Y22850D01*
X30805Y22865D01*
X30695D01*
X30590Y22837D01*
X30495Y22782D01*
X30418Y22705D01*
X30363Y22610D01*
X30335Y22505D01*
Y22395D01*
X30363Y22290D01*
X30418Y22195D01*
X30495Y22118D01*
X30590Y22063D01*
X30695Y22035D01*
X30805D01*
X30910Y22063D01*
X31005Y22118D01*
X31082Y22195D01*
X31137Y22290D01*
X31165Y22395D01*
Y22505D01*
X31150Y22561D01*
X35094Y26506D01*
X35138Y26572D01*
X35154Y26650D01*
Y27011D01*
X35193Y27034D01*
X35266Y27107D01*
X35318Y27197D01*
X35345Y27298D01*
Y27402D01*
X35318Y27503D01*
X35306Y27524D01*
X35386Y27604D01*
X35386Y27604D01*
X35431Y27670D01*
X35446Y27748D01*
X35446Y27748D01*
Y29426D01*
X35545Y29484D01*
X35637Y29576D01*
X35702Y29688D01*
X35709Y29715D01*
X35759D01*
X35766Y29688D01*
X35831Y29576D01*
X35923Y29484D01*
X36022Y29426D01*
Y27817D01*
X35951Y27745D01*
X35898D01*
X35797Y27718D01*
X35707Y27666D01*
X35634Y27593D01*
X35582Y27503D01*
X35555Y27402D01*
Y27298D01*
X35582Y27197D01*
X35634Y27107D01*
X35707Y27034D01*
X35797Y26982D01*
X35898Y26955D01*
X36002D01*
X36045Y26966D01*
X38596Y24416D01*
Y21500D01*
X38612Y21422D01*
X38656Y21356D01*
X39070Y20942D01*
X39070Y20942D01*
X39136Y20898D01*
X39214Y20882D01*
X40227D01*
X40430Y20679D01*
X40411Y20633D01*
X38419D01*
X38379Y20625D01*
X38346Y20603D01*
X38324Y20570D01*
X38317Y20531D01*
Y18657D01*
X38324Y18618D01*
X38346Y18585D01*
X38379Y18562D01*
X38419Y18555D01*
X40584D01*
X40623Y18562D01*
X40656Y18585D01*
X40678Y18618D01*
X40686Y18657D01*
Y20358D01*
X40732Y20377D01*
X51496Y9613D01*
Y8700D01*
X51512Y8622D01*
X51556Y8556D01*
X52686Y7426D01*
X52738Y7391D01*
X52964Y7165D01*
Y6628D01*
X52918Y6609D01*
X52721Y6806D01*
X52658Y6854D01*
X52655Y6855D01*
Y7117D01*
X52643Y7205D01*
X52609Y7287D01*
X52556Y7357D01*
X52485Y7411D01*
X52404Y7445D01*
X52316Y7456D01*
X52228Y7445D01*
X52146Y7411D01*
X52076Y7357D01*
X52022Y7287D01*
X51988Y7205D01*
X51977Y7117D01*
Y6606D01*
X51988Y6518D01*
X52022Y6436D01*
X52076Y6366D01*
X52146Y6312D01*
X52228Y6278D01*
X52316Y6266D01*
X52394Y6277D01*
X52467Y6204D01*
X52471Y6167D01*
X52502Y6094D01*
X52550Y6031D01*
X52778Y5803D01*
X52757Y5753D01*
X6753D01*
X6753Y51115D01*
X6803Y51119D01*
X6812Y51051D01*
X6869Y50914D01*
X6959Y50796D01*
X7076Y50706D01*
X7213Y50649D01*
X7360Y50630D01*
X7507Y50649D01*
X7644Y50706D01*
X7761Y50796D01*
X7851Y50914D01*
X7908Y51051D01*
X7927Y51198D01*
Y52142D01*
X7908Y52289D01*
X7851Y52426D01*
X7761Y52544D01*
X7644Y52634D01*
X7507Y52691D01*
X7360Y52710D01*
X7213Y52691D01*
X7076Y52634D01*
X6959Y52544D01*
X6869Y52426D01*
X6812Y52289D01*
X6803Y52221D01*
X6753Y52225D01*
Y55012D01*
X70016D01*
Y43324D01*
D02*
G37*
G36*
X67814Y43167D02*
X67812Y43156D01*
Y43018D01*
X67839Y42883D01*
X67892Y42756D01*
X67968Y42641D01*
X68066Y42544D01*
X68181Y42467D01*
X68308Y42414D01*
X68308Y42414D01*
Y38797D01*
X67661Y38149D01*
X67616Y38083D01*
X67601Y38005D01*
Y37412D01*
X67203D01*
X65454Y39160D01*
Y39550D01*
X65620D01*
Y40250D01*
X64880D01*
Y39550D01*
X65046D01*
Y39076D01*
X65062Y38998D01*
X65106Y38932D01*
X66914Y37123D01*
Y36188D01*
X67434D01*
X67453Y36142D01*
X65893Y34582D01*
X65849Y34516D01*
X65833Y34438D01*
Y34385D01*
X65787Y34366D01*
X65449Y34703D01*
Y36438D01*
X65533D01*
Y36214D01*
X65544Y36136D01*
X65574Y36063D01*
X65622Y36000D01*
X65812Y35810D01*
X65824Y35765D01*
X65870Y35685D01*
X65935Y35620D01*
X66015Y35574D01*
X66100Y35551D01*
Y35900D01*
X66150D01*
Y35950D01*
X66499D01*
X66476Y36035D01*
X66430Y36115D01*
X66365Y36180D01*
X66285Y36226D01*
X66240Y36238D01*
X66138Y36340D01*
Y36955D01*
X66138Y36955D01*
X66136Y36974D01*
Y37000D01*
X65741D01*
Y37050D01*
X65691D01*
Y37662D01*
X65345D01*
X65345Y37662D01*
Y37662D01*
X65304Y37683D01*
X65082Y37906D01*
X65016Y37950D01*
X64938Y37966D01*
X64181D01*
X64103Y37950D01*
X64037Y37906D01*
X63674Y37543D01*
X63630Y37477D01*
X63614Y37399D01*
Y36817D01*
X63372Y36575D01*
X63250Y36698D01*
Y37554D01*
X61933D01*
X61913Y37601D01*
X62264Y37951D01*
X62312Y38014D01*
X62343Y38087D01*
X62353Y38165D01*
X62353Y38165D01*
Y39146D01*
X63250D01*
Y39416D01*
X64148D01*
X64226Y39426D01*
X64299Y39456D01*
X64362Y39504D01*
X64408Y39550D01*
X64720D01*
Y40250D01*
X64408D01*
X64090Y40568D01*
Y42292D01*
X64137Y42311D01*
X65261Y41186D01*
X65324Y41138D01*
X65397Y41108D01*
X65436Y41103D01*
X65475Y41097D01*
X65475Y41097D01*
X66523D01*
X66601Y41108D01*
X66674Y41138D01*
X66737Y41186D01*
X67545Y41994D01*
X67545Y41994D01*
X67593Y42057D01*
X67623Y42130D01*
X67634Y42208D01*
Y43054D01*
X67770Y43190D01*
X67814Y43167D01*
D02*
G37*
G36*
X60114Y43117D02*
X60112Y43106D01*
Y42968D01*
X60139Y42833D01*
X60192Y42706D01*
X60268Y42591D01*
X60366Y42494D01*
X60481Y42417D01*
X60608Y42364D01*
X60608Y42364D01*
Y41950D01*
X60596Y41888D01*
Y41187D01*
X60612Y41109D01*
X60656Y41042D01*
X61046Y40653D01*
Y40272D01*
X59650D01*
Y40103D01*
X58620D01*
Y40200D01*
X58553D01*
Y40654D01*
X58562Y40661D01*
X59845Y41944D01*
X59893Y42007D01*
X59923Y42080D01*
X59934Y42158D01*
X59934Y42158D01*
Y43004D01*
X60070Y43140D01*
X60114Y43117D01*
D02*
G37*
G36*
X62216Y42873D02*
X62216Y42873D01*
X62279Y42825D01*
X62352Y42795D01*
X62430Y42785D01*
X62430Y42785D01*
X63155D01*
X63167Y42756D01*
X63244Y42641D01*
X63342Y42544D01*
X63456Y42467D01*
X63485Y42455D01*
Y40442D01*
X63496Y40364D01*
X63526Y40291D01*
X63574Y40228D01*
X63735Y40067D01*
X63716Y40021D01*
X63250D01*
Y40291D01*
X61750D01*
Y39465D01*
X61748Y39446D01*
Y38291D01*
X61401Y37943D01*
X61354Y37963D01*
Y38961D01*
X61394Y39001D01*
X61438Y39067D01*
X61454Y39145D01*
Y40737D01*
X61438Y40815D01*
X61394Y40881D01*
X61004Y41271D01*
Y41839D01*
X61016Y41901D01*
Y42364D01*
X61016Y42364D01*
X61144Y42417D01*
X61258Y42494D01*
X61356Y42591D01*
X61433Y42706D01*
X61485Y42833D01*
X61512Y42968D01*
Y43106D01*
X61485Y43242D01*
X61433Y43369D01*
X61356Y43484D01*
X61258Y43581D01*
X61250Y43587D01*
X61264Y43635D01*
X61455D01*
X62216Y42873D01*
D02*
G37*
G36*
X27350Y38171D02*
X27331Y38125D01*
X26900D01*
Y37979D01*
X26370D01*
Y38150D01*
X25814D01*
X25793Y38200D01*
X25830Y38237D01*
X25876Y38317D01*
X25900Y38406D01*
Y38498D01*
X25876Y38587D01*
X25840Y38649D01*
X25864Y38699D01*
X26822D01*
X27350Y38171D01*
D02*
G37*
G36*
X64164Y37391D02*
Y36438D01*
X64356D01*
Y35264D01*
X62096Y33005D01*
X62050Y33024D01*
Y33570D01*
X62003D01*
Y35393D01*
X61992Y35471D01*
X61962Y35544D01*
X61914Y35607D01*
X61853Y35668D01*
Y36409D01*
X62961D01*
X63145Y36226D01*
X63211Y36181D01*
X63289Y36166D01*
X63289Y36166D01*
X63455D01*
X63533Y36181D01*
X63599Y36226D01*
X63962Y36589D01*
X64007Y36655D01*
X64022Y36733D01*
Y37314D01*
X64118Y37410D01*
X64164Y37391D01*
D02*
G37*
G36*
X36666Y38845D02*
X36655Y38802D01*
Y38698D01*
X36682Y38597D01*
X36734Y38507D01*
X36807Y38434D01*
X36897Y38382D01*
X36921Y38375D01*
Y36187D01*
X36907Y36179D01*
X36816Y36087D01*
X36751Y35975D01*
X36744Y35948D01*
X36693D01*
X36686Y35975D01*
X36621Y36087D01*
X36530Y36179D01*
X36417Y36244D01*
X36329Y36268D01*
Y38470D01*
X36366Y38507D01*
X36418Y38597D01*
X36445Y38698D01*
Y38802D01*
X36418Y38903D01*
X36366Y38993D01*
X36293Y39066D01*
X36254Y39089D01*
Y39192D01*
X36300Y39211D01*
X36666Y38845D01*
D02*
G37*
G36*
X39703Y35594D02*
X39768Y35481D01*
X39860Y35389D01*
X39973Y35324D01*
X40098Y35291D01*
X40228D01*
X40354Y35324D01*
X40467Y35389D01*
X40558Y35481D01*
X40623Y35594D01*
X40631Y35620D01*
X40681D01*
X40688Y35594D01*
X40753Y35481D01*
X40844Y35389D01*
X40957Y35324D01*
X40983Y35317D01*
Y35267D01*
X40957Y35260D01*
X40844Y35195D01*
X40753Y35103D01*
X40688Y34991D01*
X40654Y34865D01*
Y34735D01*
X40688Y34609D01*
X40753Y34497D01*
X40844Y34405D01*
X40957Y34340D01*
X40983Y34333D01*
Y34283D01*
X40957Y34276D01*
X40844Y34211D01*
X40753Y34119D01*
X40688Y34006D01*
X40654Y33881D01*
Y33751D01*
X40688Y33625D01*
X40753Y33513D01*
X40844Y33421D01*
X40957Y33356D01*
X40983Y33349D01*
Y33299D01*
X40957Y33292D01*
X40844Y33227D01*
X40753Y33135D01*
X40752Y33134D01*
X34383D01*
X33488Y34030D01*
X32767Y34750D01*
X32788Y34800D01*
X32850D01*
X32942Y34838D01*
X33012Y34908D01*
X33050Y35000D01*
Y35100D01*
X33012Y35192D01*
X33004Y35200D01*
Y35274D01*
X32995Y35317D01*
X33040Y35349D01*
X33083Y35324D01*
X33209Y35291D01*
X33339D01*
X33464Y35324D01*
X33577Y35389D01*
X33669Y35481D01*
X33734Y35594D01*
X33741Y35620D01*
X33791D01*
X33798Y35594D01*
X33863Y35481D01*
X33955Y35389D01*
X34067Y35324D01*
X34193Y35291D01*
X34323D01*
X34448Y35324D01*
X34561Y35389D01*
X34653Y35481D01*
X34718Y35594D01*
X34725Y35620D01*
X34775D01*
X34782Y35594D01*
X34847Y35481D01*
X34939Y35389D01*
X35052Y35324D01*
X35177Y35291D01*
X35307D01*
X35433Y35324D01*
X35545Y35389D01*
X35637Y35481D01*
X35702Y35594D01*
X35709Y35620D01*
X35759D01*
X35766Y35594D01*
X35831Y35481D01*
X35923Y35389D01*
X36036Y35324D01*
X36161Y35291D01*
X36291D01*
X36417Y35324D01*
X36530Y35389D01*
X36621Y35481D01*
X36686Y35594D01*
X36693Y35620D01*
X36744D01*
X36751Y35594D01*
X36816Y35481D01*
X36907Y35389D01*
X37020Y35324D01*
X37146Y35291D01*
X37276D01*
X37401Y35324D01*
X37514Y35389D01*
X37606Y35481D01*
X37671Y35594D01*
X37678Y35620D01*
X37728D01*
X37735Y35594D01*
X37800Y35481D01*
X37892Y35389D01*
X38004Y35324D01*
X38130Y35291D01*
X38260D01*
X38385Y35324D01*
X38498Y35389D01*
X38590Y35481D01*
X38655Y35594D01*
X38662Y35620D01*
X38712D01*
X38719Y35594D01*
X38784Y35481D01*
X38876Y35389D01*
X38989Y35324D01*
X39114Y35291D01*
X39244D01*
X39370Y35324D01*
X39482Y35389D01*
X39574Y35481D01*
X39639Y35594D01*
X39646Y35620D01*
X39696D01*
X39703Y35594D01*
D02*
G37*
G36*
X42396Y33263D02*
Y33095D01*
X42205D01*
Y32449D01*
X42159Y32430D01*
X42100Y32488D01*
Y33067D01*
X42085Y33145D01*
X42040Y33211D01*
X41612Y33640D01*
X41641Y33751D01*
Y33881D01*
X41617Y33972D01*
X41662Y33997D01*
X42396Y33263D01*
D02*
G37*
G36*
X34044Y32618D02*
X34044Y32618D01*
X34107Y32569D01*
X34180Y32539D01*
X34258Y32529D01*
X34258Y32529D01*
X40752D01*
X40753Y32528D01*
X40844Y32436D01*
X40919Y32393D01*
Y32078D01*
X40929Y32000D01*
X40960Y31927D01*
X41008Y31864D01*
X42205Y30667D01*
Y30648D01*
X42232Y30547D01*
X42284Y30457D01*
X42311Y30430D01*
X42299Y30372D01*
X42251Y30339D01*
X42251Y30339D01*
X41994Y30083D01*
X41600D01*
X41543Y30182D01*
X41451Y30274D01*
X41338Y30339D01*
X41213Y30372D01*
X41083D01*
X40957Y30339D01*
X40844Y30274D01*
X40753Y30182D01*
X40688Y30069D01*
X40681Y30043D01*
X40631D01*
X40623Y30069D01*
X40558Y30182D01*
X40467Y30274D01*
X40354Y30339D01*
X40228Y30372D01*
X40098D01*
X39973Y30339D01*
X39860Y30274D01*
X39768Y30182D01*
X39703Y30069D01*
X39696Y30043D01*
X39646D01*
X39639Y30069D01*
X39574Y30182D01*
X39482Y30274D01*
X39370Y30339D01*
X39244Y30372D01*
X39114D01*
X38989Y30339D01*
X38876Y30274D01*
X38784Y30182D01*
X38719Y30069D01*
X38712Y30043D01*
X38662D01*
X38655Y30069D01*
X38590Y30182D01*
X38498Y30274D01*
X38385Y30339D01*
X38260Y30372D01*
X38130D01*
X38004Y30339D01*
X37892Y30274D01*
X37800Y30182D01*
X37735Y30069D01*
X37728Y30043D01*
X37678D01*
X37671Y30069D01*
X37606Y30182D01*
X37514Y30274D01*
X37401Y30339D01*
X37276Y30372D01*
X37146D01*
X37020Y30339D01*
X36907Y30274D01*
X36816Y30182D01*
X36751Y30069D01*
X36744Y30043D01*
X36693D01*
X36686Y30069D01*
X36621Y30182D01*
X36530Y30274D01*
X36417Y30339D01*
X36291Y30372D01*
X36161D01*
X36036Y30339D01*
X35923Y30274D01*
X35831Y30182D01*
X35766Y30069D01*
X35759Y30043D01*
X35709D01*
X35702Y30069D01*
X35637Y30182D01*
X35545Y30274D01*
X35433Y30339D01*
X35307Y30372D01*
X35177D01*
X35052Y30339D01*
X34939Y30274D01*
X34847Y30182D01*
X34782Y30069D01*
X34775Y30043D01*
X34725D01*
X34718Y30069D01*
X34653Y30182D01*
X34561Y30274D01*
X34448Y30339D01*
X34323Y30372D01*
X34193D01*
X34067Y30339D01*
X33955Y30274D01*
X33863Y30182D01*
X33798Y30069D01*
X33791Y30043D01*
X33741D01*
X33734Y30069D01*
X33669Y30182D01*
X33577Y30274D01*
X33576Y30274D01*
Y33020D01*
X33622Y33039D01*
X34044Y32618D01*
D02*
G37*
G36*
X30989Y30399D02*
Y30261D01*
X30910Y30182D01*
X30845Y30069D01*
X30838Y30043D01*
X30788D01*
X30781Y30069D01*
X30716Y30182D01*
X30624Y30274D01*
X30511Y30339D01*
X30412Y30365D01*
Y30483D01*
X30397Y30561D01*
X30353Y30627D01*
X29801Y31179D01*
X29830Y31290D01*
Y31420D01*
X29806Y31511D01*
X29851Y31537D01*
X30989Y30399D01*
D02*
G37*
G36*
X16950Y30732D02*
Y30280D01*
X17362D01*
X17475Y30166D01*
X17456Y30120D01*
X16950D01*
Y29990D01*
X16257D01*
X15563Y30684D01*
X15582Y30730D01*
X16100D01*
Y30896D01*
X16786D01*
X16950Y30732D01*
D02*
G37*
G36*
X32650Y29471D02*
X32647Y29450D01*
Y27606D01*
X32634Y27593D01*
X32582Y27503D01*
X32555Y27402D01*
Y27383D01*
X32370Y27198D01*
X32325Y27224D01*
X32345Y27298D01*
Y27402D01*
X32318Y27503D01*
X32306Y27524D01*
X32434Y27651D01*
X32478Y27717D01*
X32493Y27795D01*
X32493Y27795D01*
Y29426D01*
X32593Y29484D01*
X32603Y29494D01*
X32650Y29471D01*
D02*
G37*
G36*
X40688Y29688D02*
X40753Y29576D01*
X40844Y29484D01*
X40944Y29426D01*
Y27745D01*
X40555D01*
Y27099D01*
X40509Y27080D01*
X40334Y27255D01*
X40345Y27298D01*
Y27402D01*
X40318Y27503D01*
X40306Y27524D01*
X40308Y27525D01*
X40352Y27591D01*
X40367Y27669D01*
Y29426D01*
X40467Y29484D01*
X40558Y29576D01*
X40623Y29688D01*
X40631Y29715D01*
X40681D01*
X40688Y29688D01*
D02*
G37*
G36*
X39703D02*
X39768Y29576D01*
X39860Y29484D01*
X39959Y29426D01*
Y27754D01*
X39951Y27745D01*
X39898D01*
X39797Y27718D01*
X39707Y27666D01*
X39634Y27593D01*
X39582Y27503D01*
X39555Y27402D01*
Y27298D01*
X39582Y27197D01*
X39634Y27107D01*
X39707Y27034D01*
X39797Y26982D01*
X39898Y26955D01*
X40002D01*
X40045Y26966D01*
X40446Y26566D01*
Y25800D01*
X40280D01*
Y25100D01*
X41020D01*
Y25800D01*
X40854D01*
Y26650D01*
X40838Y26728D01*
X40794Y26794D01*
X40794Y26794D01*
X40680Y26909D01*
X40699Y26955D01*
X41345D01*
Y27516D01*
X41352Y27548D01*
Y29426D01*
X41451Y29484D01*
X41543Y29576D01*
X41600Y29675D01*
X42078D01*
X42155Y29690D01*
X42164Y29691D01*
X42205Y29664D01*
Y29648D01*
X42232Y29547D01*
X42284Y29457D01*
X42357Y29384D01*
X42447Y29332D01*
X42548Y29305D01*
X42652D01*
X42753Y29332D01*
X42843Y29384D01*
X42916Y29457D01*
X42939Y29496D01*
X45046D01*
X45530Y29012D01*
Y28600D01*
X46270D01*
Y29012D01*
X46384Y29125D01*
X46430Y29106D01*
Y28600D01*
X46742D01*
X47037Y28305D01*
X47100Y28257D01*
X47173Y28227D01*
X47238Y28218D01*
X47315Y28174D01*
X47404Y28150D01*
X47496D01*
X47585Y28174D01*
X47665Y28220D01*
X47730Y28285D01*
X47776Y28365D01*
X47800Y28454D01*
Y28546D01*
X47776Y28635D01*
X47730Y28715D01*
X47665Y28780D01*
X47585Y28826D01*
X47496Y28850D01*
X47404D01*
X47360Y28838D01*
X47170Y29028D01*
Y29300D01*
X46624D01*
X46605Y29346D01*
X46704Y29446D01*
X47566D01*
X47956Y29056D01*
X48022Y29012D01*
X48100Y28996D01*
X64000D01*
X64078Y29012D01*
X64144Y29056D01*
X64425Y29336D01*
X66450D01*
Y29250D01*
X66488Y29158D01*
X66558Y29088D01*
X66608Y29067D01*
X66620Y29008D01*
X64816Y27204D01*
X47700D01*
X47310Y27594D01*
X47244Y27638D01*
X47166Y27654D01*
X46397D01*
X46319Y27638D01*
X46253Y27594D01*
X46253Y27594D01*
X46136Y27477D01*
X46092Y27411D01*
X46081Y27356D01*
X46078Y27354D01*
X46000D01*
X45980Y27350D01*
X45480D01*
Y27204D01*
X44384D01*
X42984Y28605D01*
X42995Y28648D01*
Y28752D01*
X42968Y28853D01*
X42916Y28943D01*
X42843Y29016D01*
X42753Y29068D01*
X42652Y29095D01*
X42548D01*
X42447Y29068D01*
X42357Y29016D01*
X42284Y28943D01*
X42232Y28853D01*
X42205Y28752D01*
Y28648D01*
X42232Y28547D01*
X42284Y28457D01*
X42357Y28384D01*
X42447Y28332D01*
X42548Y28305D01*
X42652D01*
X42695Y28316D01*
X44156Y26856D01*
X44222Y26812D01*
X44300Y26796D01*
X45480D01*
Y26650D01*
X46220D01*
Y26957D01*
X46241Y26962D01*
X46307Y27006D01*
X46334Y27033D01*
X46380Y27013D01*
Y26650D01*
X46447D01*
Y25475D01*
X44625Y23653D01*
X44580Y23678D01*
X44599Y23750D01*
X44250D01*
Y23800D01*
X44200D01*
Y24149D01*
X44115Y24126D01*
X44035Y24080D01*
X43970Y24015D01*
X43924Y23935D01*
X43912Y23890D01*
X43296Y23274D01*
X43215D01*
X43210Y23279D01*
X43185Y23299D01*
X43153Y23354D01*
X43087Y23419D01*
X43008Y23465D01*
X42923Y23488D01*
Y23139D01*
X42873D01*
Y23089D01*
X42524D01*
X42546Y23004D01*
X42592Y22924D01*
X42603Y22914D01*
X42584Y22868D01*
X41378D01*
X41300Y22857D01*
X41227Y22827D01*
X41164Y22779D01*
X41110Y22725D01*
X40124D01*
Y22759D01*
X39801D01*
X39672Y22888D01*
Y22957D01*
X39676Y22965D01*
X39700Y23054D01*
Y23146D01*
X39676Y23235D01*
X39630Y23315D01*
X39565Y23380D01*
X39485Y23426D01*
X39396Y23450D01*
X39304D01*
X39215Y23426D01*
X39135Y23380D01*
X39070Y23315D01*
X39054Y23287D01*
X39004Y23301D01*
Y24500D01*
X39004Y24500D01*
X38988Y24578D01*
X38944Y24644D01*
X36334Y27255D01*
X36345Y27298D01*
Y27402D01*
X36318Y27503D01*
X36306Y27524D01*
X36371Y27588D01*
X36371Y27588D01*
X36415Y27654D01*
X36430Y27732D01*
X36430Y27732D01*
Y29426D01*
X36530Y29484D01*
X36621Y29576D01*
X36686Y29688D01*
X36693Y29715D01*
X36744D01*
X36751Y29688D01*
X36816Y29576D01*
X36907Y29484D01*
X37007Y29426D01*
Y27801D01*
X36951Y27745D01*
X36898D01*
X36797Y27718D01*
X36707Y27666D01*
X36634Y27593D01*
X36582Y27503D01*
X36555Y27402D01*
Y27298D01*
X36582Y27197D01*
X36634Y27107D01*
X36707Y27034D01*
X36797Y26982D01*
X36898Y26955D01*
X37002D01*
X37103Y26982D01*
X37193Y27034D01*
X37266Y27107D01*
X37318Y27197D01*
X37345Y27298D01*
Y27402D01*
X37318Y27503D01*
X37306Y27524D01*
X37355Y27572D01*
X37355Y27572D01*
X37399Y27638D01*
X37415Y27716D01*
Y29426D01*
X37514Y29484D01*
X37606Y29576D01*
X37671Y29688D01*
X37678Y29715D01*
X37728D01*
X37735Y29688D01*
X37800Y29576D01*
X37892Y29484D01*
X37991Y29426D01*
Y27785D01*
X37951Y27745D01*
X37898D01*
X37797Y27718D01*
X37707Y27666D01*
X37634Y27593D01*
X37582Y27503D01*
X37555Y27402D01*
Y27298D01*
X37582Y27197D01*
X37634Y27107D01*
X37707Y27034D01*
X37797Y26982D01*
X37898Y26955D01*
X38002D01*
X38103Y26982D01*
X38193Y27034D01*
X38266Y27107D01*
X38318Y27197D01*
X38345Y27298D01*
Y27402D01*
X38318Y27503D01*
X38306Y27524D01*
X38339Y27556D01*
X38339Y27556D01*
X38383Y27623D01*
X38399Y27701D01*
Y29426D01*
X38498Y29484D01*
X38590Y29576D01*
X38655Y29688D01*
X38662Y29715D01*
X38712D01*
X38719Y29688D01*
X38784Y29576D01*
X38876Y29484D01*
X38975Y29426D01*
Y27769D01*
X38951Y27745D01*
X38898D01*
X38797Y27718D01*
X38707Y27666D01*
X38634Y27593D01*
X38582Y27503D01*
X38555Y27402D01*
Y27298D01*
X38582Y27197D01*
X38634Y27107D01*
X38707Y27034D01*
X38797Y26982D01*
X38898Y26955D01*
X39002D01*
X39103Y26982D01*
X39193Y27034D01*
X39266Y27107D01*
X39318Y27197D01*
X39345Y27298D01*
Y27402D01*
X39318Y27503D01*
X39306Y27524D01*
X39323Y27541D01*
X39368Y27607D01*
X39383Y27685D01*
Y29426D01*
X39482Y29484D01*
X39574Y29576D01*
X39639Y29688D01*
X39646Y29715D01*
X39696D01*
X39703Y29688D01*
D02*
G37*
G36*
X31829D02*
X31894Y29576D01*
X31986Y29484D01*
X32085Y29426D01*
Y27880D01*
X31951Y27745D01*
X31898D01*
X31797Y27718D01*
X31707Y27666D01*
X31634Y27593D01*
X31582Y27503D01*
X31555Y27402D01*
Y27298D01*
X31582Y27197D01*
X31634Y27107D01*
X31707Y27034D01*
X31797Y26982D01*
X31898Y26955D01*
X32002D01*
X32076Y26975D01*
X32102Y26930D01*
X31329Y26157D01*
X31265Y26148D01*
X31192Y26118D01*
X31130Y26070D01*
X29784Y24724D01*
X29586D01*
X29572Y24755D01*
X29569Y24774D01*
X29630Y24835D01*
X29676Y24915D01*
X29700Y25004D01*
Y25096D01*
X29676Y25185D01*
X29630Y25265D01*
X29565Y25330D01*
X29485Y25376D01*
X29396Y25400D01*
X29359D01*
X29338Y25450D01*
X30855Y26966D01*
X30898Y26955D01*
X31002D01*
X31103Y26982D01*
X31193Y27034D01*
X31266Y27107D01*
X31318Y27197D01*
X31345Y27298D01*
Y27402D01*
X31318Y27503D01*
X31306Y27524D01*
X31449Y27667D01*
X31494Y27733D01*
X31509Y27811D01*
Y29426D01*
X31608Y29484D01*
X31700Y29576D01*
X31765Y29688D01*
X31772Y29715D01*
X31822D01*
X31829Y29688D01*
D02*
G37*
G36*
X30845D02*
X30910Y29576D01*
X31002Y29484D01*
X31101Y29426D01*
Y27895D01*
X30951Y27745D01*
X30898D01*
X30797Y27718D01*
X30707Y27666D01*
X30634Y27593D01*
X30582Y27503D01*
X30555Y27402D01*
Y27298D01*
X30566Y27255D01*
X24866Y21554D01*
X24544D01*
X24525Y21600D01*
X29149Y26224D01*
X29193Y26290D01*
X29196Y26308D01*
X29855Y26966D01*
X29898Y26955D01*
X30002D01*
X30103Y26982D01*
X30193Y27034D01*
X30266Y27107D01*
X30318Y27197D01*
X30345Y27298D01*
Y27402D01*
X30318Y27503D01*
X30308Y27520D01*
X30465Y27677D01*
X30509Y27743D01*
X30525Y27821D01*
Y29426D01*
X30624Y29484D01*
X30716Y29576D01*
X30781Y29688D01*
X30788Y29715D01*
X30838D01*
X30845Y29688D01*
D02*
G37*
G36*
X66979Y28720D02*
X66962Y28657D01*
Y28568D01*
X66985Y28482D01*
X67030Y28405D01*
X67093Y28342D01*
X67096Y28340D01*
Y25313D01*
X66468Y24685D01*
X66424Y24619D01*
X66408Y24541D01*
Y20700D01*
X66424Y20622D01*
X66468Y20556D01*
X67013Y20011D01*
X67012Y20007D01*
Y19918D01*
X67035Y19832D01*
X67080Y19755D01*
X67143Y19692D01*
X67220Y19648D01*
X67306Y19625D01*
X67394D01*
X67480Y19648D01*
X67557Y19692D01*
X67620Y19755D01*
X67665Y19832D01*
X67688Y19918D01*
Y20007D01*
X67665Y20093D01*
X67620Y20170D01*
X67557Y20233D01*
X67480Y20277D01*
X67394Y20300D01*
X67306D01*
X67302Y20299D01*
X67217Y20384D01*
X67243Y20429D01*
X67306Y20412D01*
X67394D01*
X67480Y20435D01*
X67557Y20480D01*
X67620Y20543D01*
X67665Y20620D01*
X67688Y20706D01*
Y20794D01*
X67665Y20880D01*
X67620Y20957D01*
X67557Y21020D01*
X67480Y21065D01*
X67394Y21088D01*
X67306D01*
X67302Y21087D01*
X67217Y21172D01*
X67243Y21216D01*
X67300Y21201D01*
Y21537D01*
X67400D01*
Y21201D01*
X67480Y21223D01*
X67501Y21235D01*
X68324D01*
Y21014D01*
X68497D01*
Y20676D01*
X68474Y20635D01*
X68451Y20550D01*
X69149D01*
X69126Y20635D01*
X69103Y20676D01*
Y21250D01*
X69103Y21250D01*
X69092Y21328D01*
X69076Y21369D01*
Y21686D01*
X68758D01*
X68741Y21712D01*
X68767Y21762D01*
X69076D01*
Y21795D01*
X69397D01*
Y20375D01*
X68889Y19867D01*
X68829Y19842D01*
X68766Y19794D01*
X65425Y16453D01*
X64050D01*
X63972Y16442D01*
X63899Y16412D01*
X63836Y16364D01*
X63836Y16364D01*
X63538Y16066D01*
X63490Y16003D01*
X63460Y15930D01*
X63449Y15852D01*
Y15126D01*
X63416D01*
Y15053D01*
X62200D01*
X62122Y15042D01*
X62049Y15012D01*
X61986Y14964D01*
X58886Y11864D01*
X58838Y11801D01*
X58808Y11728D01*
X58797Y11650D01*
Y7741D01*
X58747Y7720D01*
X58695Y7773D01*
X58585Y7836D01*
X58463Y7869D01*
X58445D01*
X58103Y8211D01*
Y9250D01*
X58170D01*
Y9950D01*
X57430D01*
Y9250D01*
X57497D01*
Y8086D01*
X57508Y8008D01*
X57538Y7935D01*
X57571Y7891D01*
X57542Y7848D01*
X57463Y7869D01*
X57450D01*
Y7389D01*
X57350D01*
Y7869D01*
X57337D01*
X57215Y7836D01*
X57131Y7787D01*
X57118Y7795D01*
X57091Y7822D01*
X57104Y7889D01*
Y9250D01*
X57270D01*
Y9950D01*
X56530D01*
Y9250D01*
X56696D01*
Y8093D01*
X54071D01*
X53993Y8077D01*
X53927Y8033D01*
X53348Y7454D01*
X53252D01*
X52992Y7714D01*
X52939Y7749D01*
X51904Y8784D01*
Y9697D01*
X51888Y9775D01*
X51844Y9842D01*
X40456Y21230D01*
X40389Y21274D01*
X40311Y21290D01*
X40161D01*
X40138Y21340D01*
X40156Y21368D01*
X40160Y21372D01*
X42047D01*
Y20950D01*
X42058Y20872D01*
X42088Y20799D01*
X42136Y20736D01*
X42512Y20360D01*
X42524Y20315D01*
X42570Y20235D01*
X42635Y20170D01*
X42715Y20124D01*
X42800Y20101D01*
Y20450D01*
X42850D01*
Y20500D01*
X43199D01*
X43176Y20585D01*
X43130Y20665D01*
X43065Y20730D01*
X42985Y20776D01*
X42940Y20788D01*
X42653Y21075D01*
Y21535D01*
X42765D01*
Y21900D01*
X42350D01*
Y22000D01*
X42765D01*
Y22096D01*
X42811Y22115D01*
X42935Y21991D01*
Y21895D01*
X42963Y21790D01*
X43018Y21695D01*
X43095Y21618D01*
X43190Y21563D01*
X43295Y21535D01*
X43405D01*
X43510Y21563D01*
X43605Y21618D01*
X43682Y21695D01*
X43737Y21790D01*
X43765Y21895D01*
Y21937D01*
X43902Y22074D01*
X43947Y22048D01*
X43935Y22005D01*
Y21895D01*
X43963Y21790D01*
X44018Y21695D01*
X44095Y21618D01*
X44190Y21563D01*
X44295Y21535D01*
X44405D01*
X44510Y21563D01*
X44605Y21618D01*
X44682Y21695D01*
X44737Y21790D01*
X44765Y21895D01*
Y22005D01*
X44737Y22110D01*
X44682Y22205D01*
X44605Y22282D01*
X44510Y22337D01*
X44405Y22365D01*
X44295D01*
X44252Y22353D01*
X44226Y22398D01*
X46964Y25136D01*
X47012Y25199D01*
X47042Y25272D01*
X47053Y25350D01*
Y26261D01*
X47094Y26289D01*
X47123Y26277D01*
X47201Y26267D01*
X47291D01*
X47365Y26224D01*
X47454Y26200D01*
X47546D01*
X47635Y26224D01*
X47715Y26270D01*
X47780Y26335D01*
X47826Y26415D01*
X47850Y26504D01*
Y26596D01*
X47826Y26685D01*
X47791Y26746D01*
X47815Y26796D01*
X64900D01*
X64978Y26812D01*
X65044Y26856D01*
X66934Y28746D01*
X66979Y28720D01*
D02*
G37*
G36*
X67396Y24971D02*
Y23758D01*
X66862Y23224D01*
X66816Y23243D01*
Y24457D01*
X67350Y24990D01*
X67396Y24971D01*
D02*
G37*
G36*
X29447Y22753D02*
X29034D01*
X29005Y22782D01*
X28910Y22837D01*
X28805Y22865D01*
X28800D01*
Y22450D01*
X28750D01*
Y22400D01*
X28335D01*
Y22395D01*
X28363Y22290D01*
X28418Y22195D01*
X28447Y22166D01*
Y19306D01*
X28458Y19228D01*
X28488Y19155D01*
X28536Y19092D01*
X28582Y19046D01*
Y16984D01*
X27815D01*
Y16954D01*
X26800D01*
Y17200D01*
X25800D01*
Y17180D01*
X25465D01*
X25415Y17230D01*
X25335Y17276D01*
X25246Y17300D01*
X25154D01*
X25065Y17276D01*
X24985Y17230D01*
X24920Y17165D01*
X24874Y17085D01*
X24850Y16996D01*
Y16904D01*
X24874Y16815D01*
X24910Y16753D01*
X24886Y16703D01*
X22850D01*
Y16820D01*
X22753D01*
Y17162D01*
X22753Y17162D01*
X22742Y17241D01*
X22712Y17314D01*
X22664Y17376D01*
X22664Y17376D01*
X20574Y19466D01*
Y19710D01*
X20249D01*
Y19374D01*
X20199D01*
Y19324D01*
X19823D01*
Y19038D01*
X19896D01*
Y18788D01*
X19850Y18769D01*
X18638Y19980D01*
X18637Y19986D01*
X18596Y20047D01*
X18614Y20097D01*
X19756D01*
X19823Y20031D01*
Y19786D01*
X20574D01*
Y19860D01*
X20620Y19866D01*
X20693Y19896D01*
X20755Y19945D01*
X21458Y20647D01*
X22187D01*
X22220Y20597D01*
X22217Y20581D01*
Y18707D01*
X22224Y18668D01*
X22246Y18635D01*
X22279Y18612D01*
X22318Y18605D01*
X24484D01*
X24523Y18612D01*
X24556Y18635D01*
X24578Y18668D01*
X24586Y18707D01*
Y20581D01*
X24582Y20597D01*
X24615Y20647D01*
X26250D01*
X26328Y20658D01*
X26401Y20688D01*
X26464Y20736D01*
X27763Y22035D01*
X28165D01*
Y22545D01*
X28168Y22565D01*
Y22921D01*
X29219Y23973D01*
X29447D01*
Y22753D01*
D02*
G37*
G36*
X39067Y22864D02*
Y22762D01*
X39077Y22684D01*
X39107Y22611D01*
X39155Y22548D01*
X39373Y22331D01*
Y22086D01*
X40124D01*
Y22120D01*
X41235D01*
X41314Y22130D01*
X41387Y22160D01*
X41449Y22208D01*
X41503Y22262D01*
X41935D01*
Y21977D01*
X40124D01*
Y22010D01*
X39799D01*
Y21674D01*
X39749D01*
Y21624D01*
X39373D01*
Y21338D01*
X39373D01*
X39368Y21290D01*
X39298D01*
X39004Y21584D01*
Y22853D01*
X39054Y22876D01*
X39067Y22864D01*
D02*
G37*
G36*
X15956Y21706D02*
X16022Y21662D01*
X16100Y21646D01*
X17600D01*
X17608Y21638D01*
X17700Y21600D01*
X17730D01*
X17751Y21550D01*
X16756Y20555D01*
X16730Y20516D01*
X16692Y20512D01*
X16600Y20550D01*
X16555D01*
X16509Y20581D01*
X16431Y20596D01*
X16332D01*
X16316Y20607D01*
X16230Y20624D01*
X15670D01*
X15606Y20612D01*
X15597D01*
X13855Y22354D01*
X13874Y22400D01*
X13992D01*
X14437Y21955D01*
X14493Y21912D01*
X14535Y21870D01*
X14615Y21824D01*
X14704Y21800D01*
X14796D01*
X14885Y21824D01*
X14965Y21870D01*
X15030Y21935D01*
X15076Y22015D01*
X15100Y22104D01*
Y22196D01*
X15076Y22285D01*
X15030Y22365D01*
X14965Y22430D01*
X14885Y22476D01*
X14796Y22500D01*
X14748D01*
X14420Y22828D01*
Y23100D01*
X14412D01*
Y23141D01*
X14406Y23185D01*
X14453Y23208D01*
X15956Y21706D01*
D02*
G37*
G36*
X28868Y24916D02*
X28871Y24912D01*
X28861Y24837D01*
Y24724D01*
X28791D01*
Y24401D01*
X27651Y23261D01*
X27603Y23198D01*
X27573Y23125D01*
X27562Y23047D01*
Y22865D01*
X27335D01*
Y22463D01*
X26125Y21253D01*
X25206D01*
X25187Y21299D01*
X28822Y24934D01*
X28868Y24916D01*
D02*
G37*
G36*
X21055Y21100D02*
X20416Y20461D01*
X20248D01*
X20096Y20614D01*
X20033Y20662D01*
X19960Y20692D01*
X19882Y20703D01*
X18727D01*
X18697Y20742D01*
X18700Y20754D01*
Y20846D01*
X18676Y20935D01*
X18630Y21015D01*
X18565Y21080D01*
X18537Y21096D01*
X18551Y21146D01*
X21036D01*
X21055Y21100D01*
D02*
G37*
G36*
X10859Y23281D02*
X10768Y23228D01*
X10693Y23153D01*
X10640Y23062D01*
X10613Y22960D01*
Y22854D01*
X10640Y22752D01*
X10693Y22661D01*
X10768Y22586D01*
X10859Y22533D01*
X10961Y22506D01*
X11067D01*
X11169Y22533D01*
X11261Y22586D01*
X11335Y22661D01*
X11360Y22703D01*
X12780D01*
Y22400D01*
X13232D01*
X15368Y20263D01*
X15434Y20219D01*
X15512Y20204D01*
X15568D01*
X15584Y20193D01*
X15670Y20176D01*
X16230D01*
X16294Y20188D01*
X16326D01*
X16338Y20158D01*
X16356Y20141D01*
X16324Y20102D01*
X16316Y20107D01*
X16230Y20124D01*
X15670D01*
X15584Y20107D01*
X15579Y20104D01*
X13106D01*
X10403Y22807D01*
X10415Y22854D01*
Y22960D01*
X10403Y23007D01*
X10726Y23330D01*
X10851D01*
X10859Y23281D01*
D02*
G37*
G36*
X17649Y18915D02*
X17646Y18900D01*
X17663Y18814D01*
X17711Y18741D01*
X17784Y18693D01*
X17817Y18686D01*
Y18509D01*
X17774Y18435D01*
X17751Y18350D01*
X18449D01*
X18426Y18435D01*
X18422Y18443D01*
Y18676D01*
X18430D01*
X18496Y18689D01*
X18546Y18657D01*
Y17304D01*
X17596Y16355D01*
X17550Y16374D01*
Y16920D01*
X17404D01*
Y18741D01*
X17603Y18940D01*
X17649Y18915D01*
D02*
G37*
G36*
X19595Y18447D02*
Y17651D01*
X19610Y17573D01*
X19654Y17507D01*
X19696Y17466D01*
Y16870D01*
X19550D01*
Y16130D01*
X19982D01*
X20095Y16016D01*
X20076Y15970D01*
X19550D01*
Y15829D01*
X17713D01*
X17694Y15875D01*
X18894Y17076D01*
X18938Y17142D01*
X18954Y17220D01*
Y19017D01*
X19004Y19038D01*
X19595Y18447D01*
D02*
G37*
G36*
X70016Y20098D02*
X70016Y5753D01*
X61545D01*
X61535Y5803D01*
X61545Y5807D01*
X61608Y5855D01*
X62030Y6277D01*
X62038Y6278D01*
X62120Y6312D01*
X62190Y6366D01*
X62244Y6436D01*
X62278Y6518D01*
X62289Y6606D01*
Y7117D01*
X62278Y7205D01*
X62244Y7287D01*
X62190Y7357D01*
X62120Y7411D01*
X62038Y7445D01*
X61950Y7456D01*
X61862Y7445D01*
X61780Y7411D01*
X61710Y7357D01*
X61656Y7287D01*
X61622Y7205D01*
X61611Y7117D01*
Y6714D01*
X61288Y6391D01*
X61250Y6424D01*
X61259Y6436D01*
X61293Y6518D01*
X61305Y6606D01*
Y6811D01*
X60966D01*
X60627D01*
Y6622D01*
X60580Y6598D01*
X60099Y7079D01*
X60036Y7127D01*
X59963Y7158D01*
X59885Y7168D01*
X59876D01*
Y7238D01*
X59592D01*
X59403Y7427D01*
Y10194D01*
X59450Y10200D01*
X59488Y10108D01*
X59558Y10038D01*
X59650Y10000D01*
X59692D01*
X59749Y9962D01*
X59827Y9946D01*
X60230D01*
Y9800D01*
X60396D01*
Y9452D01*
X60412Y9374D01*
X60456Y9307D01*
X61517Y8246D01*
X61500Y8209D01*
X61500Y8209D01*
Y7900D01*
X61809D01*
X61809Y7900D01*
X61846Y7917D01*
X62598Y7165D01*
Y6269D01*
X63270D01*
Y7454D01*
X62886D01*
X60804Y9536D01*
Y9800D01*
X60970D01*
Y10500D01*
X60230D01*
Y10354D01*
X59928D01*
X59912Y10392D01*
X59842Y10462D01*
X59750Y10500D01*
X59650D01*
X59558Y10462D01*
X59488Y10392D01*
X59450Y10300D01*
X59403Y10306D01*
Y11525D01*
X62325Y14447D01*
X63416D01*
Y14374D01*
X63449D01*
Y13177D01*
X63060Y12788D01*
X63015Y12776D01*
X62935Y12730D01*
X62870Y12665D01*
X62824Y12585D01*
X62800Y12496D01*
Y12404D01*
X62824Y12315D01*
X62870Y12235D01*
X62908Y12197D01*
X62887Y12147D01*
X62434D01*
X62356Y12132D01*
X62290Y12087D01*
X62290Y12087D01*
X62173Y11970D01*
X62128Y11904D01*
X62113Y11826D01*
Y11031D01*
X61582Y10500D01*
X61130D01*
Y9800D01*
X61870D01*
Y10212D01*
X62461Y10803D01*
X62505Y10869D01*
X62521Y10947D01*
Y11739D01*
X63172D01*
X63340Y11571D01*
X63338Y11553D01*
X63285Y11526D01*
X63284Y11526D01*
X63196Y11550D01*
X63104D01*
X63015Y11526D01*
X62935Y11480D01*
X62870Y11415D01*
X62824Y11335D01*
X62812Y11290D01*
X62736Y11214D01*
X62688Y11151D01*
X62658Y11078D01*
X62647Y11000D01*
Y9650D01*
X62580D01*
Y8950D01*
X63320D01*
Y9650D01*
X63253D01*
Y10865D01*
X63285Y10874D01*
X63322Y10895D01*
X63372Y10866D01*
Y10595D01*
X63551D01*
X64309Y9836D01*
X64309Y9836D01*
X64372Y9788D01*
X64445Y9758D01*
X64523Y9747D01*
X64523Y9747D01*
X64624D01*
X64665Y9724D01*
X64750Y9701D01*
Y10050D01*
Y10399D01*
X64665Y10376D01*
X64640Y10362D01*
X64044Y10957D01*
Y11129D01*
X63850D01*
X63790Y11154D01*
X63711Y11165D01*
X63708D01*
X63630Y11154D01*
X63569Y11129D01*
X63519D01*
X63500Y11154D01*
Y11246D01*
X63485Y11303D01*
X63521Y11353D01*
X64046D01*
Y11887D01*
X63601D01*
X63401Y12087D01*
X63364Y12112D01*
X63365Y12170D01*
X63430Y12235D01*
X63476Y12315D01*
X63488Y12360D01*
X63966Y12838D01*
X64014Y12901D01*
X64044Y12974D01*
X64055Y13052D01*
X64055Y13052D01*
Y14374D01*
X64088D01*
Y15126D01*
X64055D01*
Y15727D01*
X64175Y15847D01*
X65550D01*
X65628Y15858D01*
X65701Y15888D01*
X65764Y15936D01*
X69096Y19268D01*
X69157Y19293D01*
X69219Y19341D01*
X69914Y20036D01*
X69962Y20099D01*
X69966Y20108D01*
X70016Y20098D01*
D02*
G37*
G36*
X16850Y15826D02*
Y15280D01*
X16996D01*
Y10984D01*
X14144Y8132D01*
X14040Y8175D01*
X13914Y8200D01*
X13786D01*
X13660Y8175D01*
X13542Y8126D01*
X13436Y8055D01*
X13345Y7964D01*
X13274Y7858D01*
X13225Y7740D01*
X13200Y7614D01*
Y7486D01*
X13225Y7360D01*
X13268Y7256D01*
X12393Y6381D01*
X11350D01*
X11330Y6428D01*
X11335Y6432D01*
X11388Y6524D01*
X11415Y6626D01*
Y6732D01*
X11388Y6834D01*
X11335Y6925D01*
X11261Y7000D01*
X11218Y7024D01*
Y10260D01*
X16804Y15845D01*
X16850Y15826D01*
D02*
G37*
G36*
X59124Y6849D02*
Y6565D01*
X59517D01*
X59536Y6563D01*
X59748D01*
X59766Y6540D01*
X59742Y6490D01*
X59550D01*
Y6204D01*
X59876D01*
Y6381D01*
X59922Y6400D01*
X60467Y5855D01*
X60467Y5855D01*
X60529Y5807D01*
X60540Y5803D01*
X60530Y5753D01*
X59096D01*
X59074Y5803D01*
X59084Y5815D01*
X59450D01*
Y6154D01*
Y6490D01*
X59124D01*
Y6420D01*
X58996D01*
X58985Y6426D01*
X58900Y6449D01*
Y6100D01*
X58850D01*
Y6050D01*
X58501D01*
X58524Y5965D01*
X58570Y5885D01*
X58635Y5820D01*
X58665Y5803D01*
X58651Y5753D01*
X57237D01*
X57216Y5803D01*
X58325Y6912D01*
X58337Y6909D01*
X58463D01*
X58585Y6941D01*
X58695Y7004D01*
X58707Y7017D01*
X58957D01*
X59124Y6849D01*
D02*
G37*
G36*
X55988Y7635D02*
X55953Y7574D01*
X55920Y7452D01*
Y7325D01*
X55953Y7203D01*
X56016Y7094D01*
X56105Y7004D01*
X56215Y6941D01*
X56337Y6909D01*
X56463D01*
X56585Y6941D01*
X56695Y7004D01*
X56784Y7094D01*
X56847Y7203D01*
X56874Y7303D01*
X56926D01*
X56953Y7203D01*
X57016Y7094D01*
X57105Y7004D01*
X57215Y6941D01*
X57337Y6909D01*
X57395D01*
X57416Y6859D01*
X56860Y6303D01*
X53636D01*
Y7165D01*
X54156Y7685D01*
X55959D01*
X55988Y7635D01*
D02*
G37*
%LPC*%
G36*
X13764Y54650D02*
X13750D01*
Y54050D01*
X14350D01*
Y54064D01*
X14325Y54190D01*
X14276Y54308D01*
X14205Y54414D01*
X14114Y54505D01*
X14008Y54576D01*
X13890Y54625D01*
X13764Y54650D01*
D02*
G37*
G36*
X13650D02*
X13636D01*
X13510Y54625D01*
X13392Y54576D01*
X13286Y54505D01*
X13195Y54414D01*
X13124Y54308D01*
X13075Y54190D01*
X13050Y54064D01*
Y54050D01*
X13650D01*
Y54650D01*
D02*
G37*
G36*
X14350Y53950D02*
X13700D01*
X13050D01*
Y53936D01*
X13075Y53810D01*
X13124Y53692D01*
X13184Y53602D01*
X12835Y53253D01*
X10199D01*
X10124Y53351D01*
X10006Y53441D01*
X9869Y53498D01*
X9722Y53517D01*
X9300D01*
Y52950D01*
Y52383D01*
X9722D01*
X9869Y52402D01*
X10006Y52459D01*
X10124Y52549D01*
X10199Y52647D01*
X12961D01*
X13039Y52658D01*
X13112Y52688D01*
X13175Y52736D01*
X13795Y53356D01*
X13890Y53375D01*
X14008Y53424D01*
X14114Y53495D01*
X14205Y53586D01*
X14276Y53692D01*
X14325Y53810D01*
X14350Y53936D01*
Y53950D01*
D02*
G37*
G36*
X9200Y53517D02*
X8778D01*
X8631Y53498D01*
X8494Y53441D01*
X8376Y53351D01*
X8286Y53234D01*
X8229Y53097D01*
X8217Y53000D01*
X9200D01*
Y53517D01*
D02*
G37*
G36*
X23109Y52895D02*
X23100D01*
Y52500D01*
X23495D01*
Y52509D01*
X23465Y52622D01*
X23406Y52723D01*
X23323Y52806D01*
X23222Y52865D01*
X23109Y52895D01*
D02*
G37*
G36*
X23000D02*
X22991D01*
X22878Y52865D01*
X22777Y52806D01*
X22694Y52723D01*
X22635Y52622D01*
X22605Y52509D01*
Y52500D01*
X23000D01*
Y52895D01*
D02*
G37*
G36*
X9200Y52900D02*
X8217D01*
X8229Y52803D01*
X8286Y52666D01*
X8376Y52549D01*
X8494Y52459D01*
X8631Y52402D01*
X8778Y52383D01*
X9200D01*
Y52900D01*
D02*
G37*
G36*
X32452Y52395D02*
X32450D01*
Y52050D01*
X32795D01*
Y52052D01*
X32768Y52153D01*
X32716Y52243D01*
X32643Y52316D01*
X32553Y52368D01*
X32452Y52395D01*
D02*
G37*
G36*
X43545D02*
X43200D01*
Y52050D01*
X43545D01*
Y52395D01*
D02*
G37*
G36*
X32350D02*
X32348D01*
X32247Y52368D01*
X32157Y52316D01*
X32084Y52243D01*
X32032Y52153D01*
X32005Y52052D01*
Y52050D01*
X32350D01*
Y52395D01*
D02*
G37*
G36*
X32795Y51950D02*
X32400D01*
X32005D01*
Y51948D01*
X32032Y51847D01*
X32084Y51757D01*
X32097Y51744D01*
Y51290D01*
X31277D01*
Y51312D01*
X30951D01*
Y50976D01*
Y50640D01*
X31277D01*
Y50685D01*
X32156D01*
X32157Y50684D01*
X32247Y50632D01*
X32348Y50605D01*
X32350D01*
Y51000D01*
X32450D01*
Y50605D01*
X32452D01*
X32553Y50632D01*
X32643Y50684D01*
X32656Y50697D01*
X33857D01*
Y50469D01*
X34469D01*
Y50419D01*
X34518D01*
Y50102D01*
X35080D01*
Y50116D01*
X37115D01*
X37193Y50126D01*
X37266Y50156D01*
X37329Y50205D01*
X38027Y50903D01*
X39920D01*
Y50889D01*
X40482D01*
Y51206D01*
Y51522D01*
X39920D01*
Y51508D01*
X37902D01*
X37902Y51508D01*
X37824Y51498D01*
X37751Y51468D01*
X37688Y51420D01*
X37688Y51420D01*
X36989Y50721D01*
X35080D01*
Y50735D01*
X34791D01*
Y50889D01*
X35159D01*
Y51156D01*
X34508D01*
Y51206D01*
X34458D01*
Y51522D01*
X33857D01*
Y51317D01*
X33842Y51303D01*
X32703D01*
Y51744D01*
X32716Y51757D01*
X32768Y51847D01*
X32795Y51948D01*
Y51950D01*
D02*
G37*
G36*
X35159Y51522D02*
X34558D01*
Y51256D01*
X35159D01*
Y51522D01*
D02*
G37*
G36*
X15764Y54650D02*
X15636D01*
X15510Y54625D01*
X15392Y54576D01*
X15286Y54505D01*
X15195Y54414D01*
X15124Y54308D01*
X15075Y54190D01*
X15050Y54064D01*
Y53936D01*
X15075Y53810D01*
X15124Y53692D01*
X15195Y53586D01*
X15284Y53497D01*
Y53412D01*
X12665Y50793D01*
X10199D01*
X10124Y50891D01*
X10006Y50981D01*
X9869Y51038D01*
X9722Y51057D01*
X8778D01*
X8631Y51038D01*
X8494Y50981D01*
X8376Y50891D01*
X8286Y50774D01*
X8229Y50637D01*
X8210Y50490D01*
X8226Y50367D01*
X7486Y49626D01*
X7438Y49564D01*
X7408Y49491D01*
X7397Y49412D01*
Y48500D01*
X7200D01*
Y47400D01*
X8200D01*
Y48500D01*
X8003D01*
Y49287D01*
X8654Y49939D01*
X8778Y49923D01*
X9722D01*
X9869Y49942D01*
X10006Y49999D01*
X10124Y50089D01*
X10199Y50187D01*
X12790D01*
X12868Y50198D01*
X12941Y50228D01*
X13004Y50276D01*
X15801Y53073D01*
X15849Y53136D01*
X15879Y53209D01*
X15889Y53287D01*
Y53375D01*
X15890Y53375D01*
X16008Y53424D01*
X16114Y53495D01*
X16205Y53586D01*
X16276Y53692D01*
X16325Y53810D01*
X16350Y53936D01*
Y54064D01*
X16325Y54190D01*
X16276Y54308D01*
X16205Y54414D01*
X16114Y54505D01*
X16008Y54576D01*
X15890Y54625D01*
X15764Y54650D01*
D02*
G37*
G36*
X23528Y52400D02*
X23100D01*
Y51972D01*
X23897Y51175D01*
Y49075D01*
X23850D01*
Y48753D01*
X21642Y46544D01*
X21593Y46482D01*
X21563Y46409D01*
X21553Y46331D01*
Y42592D01*
X21559Y42548D01*
Y42019D01*
X21806D01*
Y42592D01*
X21906D01*
Y42019D01*
X22152D01*
Y42548D01*
X22158Y42592D01*
Y46205D01*
X24278Y48325D01*
X24550D01*
Y48650D01*
X24200D01*
Y48750D01*
X24550D01*
Y49075D01*
X24503D01*
Y50673D01*
X30526D01*
Y50640D01*
X30851D01*
Y50976D01*
Y51312D01*
X30526D01*
Y51278D01*
X24600D01*
X24487Y51391D01*
X24462Y51451D01*
X24414Y51514D01*
X24414Y51514D01*
X23528Y52400D01*
D02*
G37*
G36*
X23000D02*
X22572D01*
X20725Y50553D01*
X20100D01*
Y50775D01*
X19750D01*
Y50250D01*
Y49725D01*
X20100D01*
Y49947D01*
X20850D01*
X20928Y49958D01*
X21001Y49988D01*
X21064Y50036D01*
X23000Y51972D01*
Y52400D01*
D02*
G37*
G36*
X31277Y50564D02*
X30526D01*
Y50530D01*
X29992D01*
X29992Y50530D01*
X29953Y50525D01*
X29913Y50520D01*
X29840Y50490D01*
X29778Y50442D01*
X27875Y48539D01*
X27500D01*
Y48570D01*
X26994D01*
X26975Y48616D01*
X27088Y48730D01*
X27500D01*
Y49470D01*
X26800D01*
Y49018D01*
X26686Y48904D01*
X25450D01*
Y49075D01*
X24750D01*
Y48325D01*
X25450D01*
Y48496D01*
X26770D01*
X26800Y48471D01*
Y48258D01*
X24595Y46053D01*
X23880D01*
Y46100D01*
X23320D01*
Y45858D01*
X23308Y45828D01*
X23297Y45750D01*
X23308Y45672D01*
X23320Y45642D01*
Y45400D01*
X23880D01*
Y45447D01*
X24720D01*
X24798Y45458D01*
X24871Y45488D01*
X24934Y45536D01*
X27228Y47830D01*
X27500D01*
Y47933D01*
X28000D01*
X28078Y47944D01*
X28151Y47974D01*
X28214Y48022D01*
X30117Y49925D01*
X30526D01*
Y49892D01*
X31277D01*
Y49925D01*
X31995D01*
X32016Y49904D01*
X32032Y49847D01*
X32084Y49757D01*
X32157Y49684D01*
X32247Y49632D01*
X32348Y49605D01*
X32452D01*
X32553Y49632D01*
X32603Y49661D01*
X32915D01*
X33143Y49434D01*
X33205Y49386D01*
X33278Y49355D01*
X33357Y49345D01*
X33857D01*
Y49315D01*
X35080D01*
Y49948D01*
X34472D01*
X34452Y49950D01*
X33482D01*
X33255Y50177D01*
X33192Y50226D01*
X33119Y50256D01*
X33041Y50266D01*
X32693D01*
X32643Y50316D01*
X32553Y50368D01*
X32452Y50395D01*
X32381D01*
X32335Y50442D01*
X32272Y50490D01*
X32199Y50520D01*
X32121Y50530D01*
X31277D01*
Y50564D01*
D02*
G37*
G36*
X34418Y50368D02*
X33857D01*
Y50102D01*
X34418D01*
Y50368D01*
D02*
G37*
G36*
X23109Y51395D02*
X22991D01*
X22878Y51365D01*
X22777Y51306D01*
X22694Y51223D01*
X22635Y51122D01*
X22605Y51009D01*
Y50933D01*
X21075Y49403D01*
X20100D01*
Y49625D01*
X19569D01*
X19550Y49671D01*
X19601Y49723D01*
X19620Y49725D01*
X19650D01*
Y50250D01*
Y50775D01*
X19300D01*
Y50268D01*
X19262Y50239D01*
X18649Y49626D01*
X18600Y49563D01*
X18594Y49548D01*
X18396Y49350D01*
X18350Y49369D01*
Y50200D01*
X16750D01*
Y49700D01*
X16690Y49692D01*
X16617Y49662D01*
X16555Y49614D01*
X15836Y48895D01*
X15788Y48833D01*
X15765Y48777D01*
X15690Y48703D01*
X15400D01*
Y48770D01*
X14700D01*
Y48633D01*
X14483D01*
X14404Y48622D01*
X14331Y48592D01*
X14269Y48544D01*
X13977Y48253D01*
X13603D01*
Y48503D01*
X12925D01*
X12614Y48814D01*
X12551Y48862D01*
X12478Y48892D01*
X12400Y48903D01*
X11300D01*
Y49075D01*
X9900D01*
Y48125D01*
X11300D01*
Y48297D01*
X12275D01*
X12497Y48075D01*
Y47397D01*
X13603D01*
Y47647D01*
X14103D01*
X14181Y47658D01*
X14254Y47688D01*
X14317Y47736D01*
X14608Y48027D01*
X15000D01*
X15020Y48030D01*
X15400D01*
Y48097D01*
X15816D01*
X15894Y48108D01*
X15967Y48138D01*
X16030Y48186D01*
X16201Y48358D01*
X16247Y48338D01*
Y48275D01*
X15775Y47803D01*
X15400D01*
Y47870D01*
X15100D01*
Y47500D01*
X15000D01*
Y47870D01*
X14700D01*
Y47558D01*
X13876Y46734D01*
X13303D01*
X13283Y46731D01*
X13100D01*
Y46178D01*
Y45626D01*
X13175D01*
X13828Y44972D01*
X13828Y44972D01*
X13886Y44928D01*
X13908Y44906D01*
X13988Y44860D01*
X14073Y44837D01*
Y45186D01*
Y45584D01*
X13603Y46054D01*
Y46129D01*
X14001D01*
X14079Y46139D01*
X14152Y46169D01*
X14215Y46217D01*
X15128Y47130D01*
X15400D01*
Y47197D01*
X15900D01*
X15978Y47208D01*
X16051Y47238D01*
X16114Y47286D01*
X16704Y47876D01*
X16750Y47857D01*
Y47350D01*
X18350D01*
Y47847D01*
X18750D01*
X18828Y47858D01*
X18901Y47888D01*
X18964Y47936D01*
X19600Y48572D01*
X19620Y48575D01*
X20100D01*
Y48797D01*
X21200D01*
X21278Y48808D01*
X21351Y48838D01*
X21414Y48886D01*
X22701Y50173D01*
X22747Y50154D01*
Y48675D01*
X17412Y43340D01*
X17355Y43348D01*
X17276Y43338D01*
X17203Y43307D01*
X17141Y43259D01*
X17093Y43197D01*
X17062Y43124D01*
X17052Y43045D01*
X17062Y42967D01*
X17093Y42894D01*
X17108Y42874D01*
X17124Y42815D01*
X17170Y42735D01*
X17235Y42670D01*
X17315Y42624D01*
X17404Y42600D01*
X17496D01*
X17585Y42624D01*
X17665Y42670D01*
X17730Y42735D01*
X17776Y42815D01*
X17788Y42860D01*
X23264Y48336D01*
X23312Y48399D01*
X23342Y48472D01*
X23353Y48550D01*
Y50623D01*
X23406Y50677D01*
X23465Y50778D01*
X23495Y50891D01*
Y51009D01*
X23465Y51122D01*
X23406Y51223D01*
X23323Y51306D01*
X23222Y51365D01*
X23109Y51395D01*
D02*
G37*
G36*
X68099Y53442D02*
X67111D01*
Y52258D01*
X67810D01*
X68384Y51684D01*
Y48564D01*
X68384Y48564D01*
X68256Y48511D01*
X68142Y48434D01*
X68044Y48337D01*
X67967Y48222D01*
X67915Y48095D01*
X67888Y47959D01*
Y47822D01*
X67915Y47686D01*
X67967Y47559D01*
X68044Y47444D01*
X68142Y47347D01*
X68256Y47270D01*
X68384Y47217D01*
X68519Y47191D01*
X68657D01*
X68792Y47217D01*
X68919Y47270D01*
X69034Y47347D01*
X69132Y47444D01*
X69208Y47559D01*
X69261Y47686D01*
X69288Y47822D01*
Y47959D01*
X69261Y48095D01*
X69208Y48222D01*
X69132Y48337D01*
X69034Y48434D01*
X68919Y48511D01*
X68792Y48564D01*
X68792Y48564D01*
Y51769D01*
X68776Y51847D01*
X68732Y51913D01*
X68099Y52546D01*
Y53442D01*
D02*
G37*
G36*
X64094D02*
X63106D01*
Y52258D01*
X63584D01*
Y48564D01*
X63584Y48564D01*
X63456Y48511D01*
X63342Y48434D01*
X63244Y48337D01*
X63167Y48222D01*
X63115Y48095D01*
X63088Y47959D01*
Y47822D01*
X63115Y47686D01*
X63167Y47559D01*
X63244Y47444D01*
X63342Y47347D01*
X63456Y47270D01*
X63584Y47217D01*
X63719Y47191D01*
X63857D01*
X63992Y47217D01*
X64119Y47270D01*
X64234Y47347D01*
X64332Y47444D01*
X64408Y47559D01*
X64461Y47686D01*
X64488Y47822D01*
Y47959D01*
X64461Y48095D01*
X64408Y48222D01*
X64332Y48337D01*
X64234Y48434D01*
X64119Y48511D01*
X63992Y48564D01*
X63992Y48564D01*
Y52258D01*
X64094D01*
Y53442D01*
D02*
G37*
G36*
X60749Y53292D02*
X59761D01*
Y52108D01*
X60460D01*
X60684Y51884D01*
Y48514D01*
X60684Y48514D01*
X60556Y48461D01*
X60442Y48384D01*
X60344Y48287D01*
X60267Y48172D01*
X60215Y48045D01*
X60188Y47909D01*
Y47772D01*
X60215Y47636D01*
X60267Y47509D01*
X60344Y47394D01*
X60442Y47297D01*
X60556Y47220D01*
X60684Y47167D01*
X60819Y47141D01*
X60957D01*
X61092Y47167D01*
X61219Y47220D01*
X61334Y47297D01*
X61432Y47394D01*
X61508Y47509D01*
X61561Y47636D01*
X61588Y47772D01*
Y47909D01*
X61561Y48045D01*
X61508Y48172D01*
X61432Y48287D01*
X61334Y48384D01*
X61219Y48461D01*
X61092Y48514D01*
X61092Y48514D01*
Y51969D01*
X61076Y52047D01*
X61032Y52113D01*
X60749Y52396D01*
Y53292D01*
D02*
G37*
G36*
X56744D02*
X55756D01*
Y52108D01*
X55884D01*
Y48514D01*
X55884Y48514D01*
X55756Y48461D01*
X55642Y48384D01*
X55544Y48287D01*
X55467Y48172D01*
X55415Y48045D01*
X55388Y47909D01*
Y47772D01*
X55415Y47636D01*
X55467Y47509D01*
X55544Y47394D01*
X55642Y47297D01*
X55756Y47220D01*
X55884Y47167D01*
X56019Y47141D01*
X56157D01*
X56292Y47167D01*
X56419Y47220D01*
X56534Y47297D01*
X56632Y47394D01*
X56708Y47509D01*
X56761Y47636D01*
X56788Y47772D01*
Y47909D01*
X56761Y48045D01*
X56708Y48172D01*
X56632Y48287D01*
X56534Y48384D01*
X56419Y48461D01*
X56292Y48514D01*
X56292Y48514D01*
Y52108D01*
X56744D01*
Y53292D01*
D02*
G37*
G36*
X52899Y53592D02*
X51911D01*
Y52408D01*
X52201D01*
Y48381D01*
X52217Y48303D01*
X52261Y48237D01*
X52413Y48085D01*
X52380Y48035D01*
X52327Y47907D01*
X52300Y47772D01*
Y47634D01*
X52327Y47499D01*
X52380Y47372D01*
X52456Y47257D01*
X52554Y47159D01*
X52668Y47083D01*
X52796Y47030D01*
X52931Y47003D01*
X53069D01*
X53204Y47030D01*
X53332Y47083D01*
X53446Y47159D01*
X53544Y47257D01*
X53620Y47372D01*
X53673Y47499D01*
X53700Y47634D01*
Y47772D01*
X53673Y47907D01*
X53620Y48035D01*
X53544Y48149D01*
X53446Y48247D01*
X53332Y48323D01*
X53204Y48376D01*
X53069Y48403D01*
X52931D01*
X52796Y48376D01*
X52727Y48348D01*
X52609Y48465D01*
Y52408D01*
X52899D01*
Y53592D01*
D02*
G37*
G36*
X48894D02*
X47906D01*
Y52408D01*
X47996D01*
Y48376D01*
X47996Y48376D01*
X47868Y48323D01*
X47754Y48247D01*
X47656Y48149D01*
X47580Y48035D01*
X47527Y47907D01*
X47500Y47772D01*
Y47634D01*
X47527Y47499D01*
X47580Y47372D01*
X47656Y47257D01*
X47754Y47159D01*
X47868Y47083D01*
X47996Y47030D01*
X48131Y47003D01*
X48269D01*
X48404Y47030D01*
X48532Y47083D01*
X48646Y47159D01*
X48744Y47257D01*
X48820Y47372D01*
X48873Y47499D01*
X48900Y47634D01*
Y47772D01*
X48873Y47907D01*
X48820Y48035D01*
X48744Y48149D01*
X48646Y48247D01*
X48532Y48323D01*
X48404Y48376D01*
X48404Y48376D01*
Y52408D01*
X48894D01*
Y53592D01*
D02*
G37*
G36*
X41143Y47585D02*
X39920D01*
Y46952D01*
X41143D01*
Y47585D01*
D02*
G37*
G36*
X35080D02*
X33857D01*
Y46952D01*
X35080D01*
Y47585D01*
D02*
G37*
G36*
X43202Y47395D02*
X43098D01*
X42997Y47368D01*
X42907Y47316D01*
X42834Y47243D01*
X42782Y47153D01*
X42755Y47052D01*
Y46948D01*
X42782Y46847D01*
X42834Y46757D01*
X42907Y46684D01*
X42997Y46632D01*
X43098Y46605D01*
X43202D01*
X43303Y46632D01*
X43393Y46684D01*
X43466Y46757D01*
X43518Y46847D01*
X43545Y46948D01*
Y47052D01*
X43518Y47153D01*
X43466Y47243D01*
X43393Y47316D01*
X43303Y47368D01*
X43202Y47395D01*
D02*
G37*
G36*
X32452D02*
X32348D01*
X32247Y47368D01*
X32157Y47316D01*
X32084Y47243D01*
X32032Y47153D01*
X32005Y47052D01*
Y46948D01*
X32032Y46847D01*
X32084Y46757D01*
X32157Y46684D01*
X32247Y46632D01*
X32348Y46605D01*
X32452D01*
X32553Y46632D01*
X32643Y46684D01*
X32716Y46757D01*
X32768Y46847D01*
X32795Y46948D01*
Y47052D01*
X32768Y47153D01*
X32716Y47243D01*
X32643Y47316D01*
X32553Y47368D01*
X32452Y47395D01*
D02*
G37*
G36*
X13000Y46731D02*
X12497D01*
Y46228D01*
X13000D01*
Y46731D01*
D02*
G37*
G36*
X41143Y46798D02*
X39920D01*
Y46165D01*
X41143D01*
Y46798D01*
D02*
G37*
G36*
X35080D02*
X33857D01*
Y46165D01*
X35080D01*
Y46798D01*
D02*
G37*
G36*
X43202Y46395D02*
X43098D01*
X42997Y46368D01*
X42907Y46316D01*
X42834Y46243D01*
X42782Y46153D01*
X42755Y46052D01*
Y45948D01*
X42775Y45874D01*
X42730Y45848D01*
X42670Y45908D01*
X42607Y45956D01*
X42534Y45986D01*
X42456Y45997D01*
X41143D01*
Y46011D01*
X40581D01*
Y45694D01*
Y45378D01*
X41143D01*
Y45392D01*
X42331D01*
X42755Y44967D01*
Y44948D01*
X42782Y44847D01*
X42834Y44757D01*
X42907Y44684D01*
X42997Y44632D01*
X43098Y44605D01*
X43100D01*
Y45000D01*
X43150D01*
Y45050D01*
X43545D01*
Y45052D01*
X43518Y45153D01*
X43466Y45243D01*
X43393Y45316D01*
X43303Y45368D01*
X43202Y45395D01*
X43183D01*
X42998Y45580D01*
X43024Y45625D01*
X43098Y45605D01*
X43202D01*
X43303Y45632D01*
X43393Y45684D01*
X43466Y45757D01*
X43518Y45847D01*
X43545Y45948D01*
Y46052D01*
X43518Y46153D01*
X43466Y46243D01*
X43393Y46316D01*
X43303Y46368D01*
X43202Y46395D01*
D02*
G37*
G36*
X40482Y46011D02*
X39920D01*
Y45744D01*
X40482D01*
Y46011D01*
D02*
G37*
G36*
X13000Y46128D02*
X12497D01*
Y45626D01*
X13000D01*
Y46128D01*
D02*
G37*
G36*
X32452Y46395D02*
X32348D01*
X32247Y46368D01*
X32157Y46316D01*
X32084Y46243D01*
X32032Y46153D01*
X32005Y46052D01*
Y45948D01*
X32032Y45847D01*
X32084Y45757D01*
X32157Y45684D01*
X32247Y45632D01*
X32348Y45605D01*
X32452D01*
X32553Y45632D01*
X32643Y45684D01*
X32716Y45757D01*
X32768Y45847D01*
X32795Y45948D01*
Y46052D01*
X32768Y46153D01*
X32716Y46243D01*
X32643Y46316D01*
X32553Y46368D01*
X32452Y46395D01*
D02*
G37*
G36*
X40482Y45644D02*
X39920D01*
Y45378D01*
X40482D01*
Y45644D01*
D02*
G37*
G36*
X35080Y46011D02*
X33857D01*
Y45378D01*
X35080D01*
Y46011D01*
D02*
G37*
G36*
X14173Y45535D02*
Y45236D01*
X14472D01*
X14449Y45321D01*
X14403Y45401D01*
X14338Y45466D01*
X14258Y45512D01*
X14173Y45535D01*
D02*
G37*
G36*
X8200Y46800D02*
X7200D01*
Y45700D01*
X8200D01*
Y45947D01*
X9700D01*
X9900Y45747D01*
Y45225D01*
X11300D01*
Y46175D01*
X10328D01*
X10039Y46464D01*
X9976Y46512D01*
X9903Y46542D01*
X9825Y46553D01*
X8200D01*
Y46800D01*
D02*
G37*
G36*
X26700Y46370D02*
X26000D01*
Y46233D01*
X25930D01*
X25852Y46222D01*
X25779Y46192D01*
X25716Y46144D01*
X24660Y45088D01*
X24615Y45076D01*
X24574Y45053D01*
X24280D01*
Y45100D01*
X23720D01*
Y44858D01*
X23708Y44828D01*
X23697Y44750D01*
X23708Y44672D01*
X23720Y44642D01*
Y44504D01*
X23664D01*
X23480Y44688D01*
Y45100D01*
X22920D01*
Y44400D01*
X23192D01*
X23436Y44156D01*
X23502Y44112D01*
X23580Y44096D01*
X25570D01*
X25648Y44112D01*
X25714Y44156D01*
X26050Y44492D01*
X26096Y44472D01*
Y43170D01*
X25900D01*
Y42430D01*
X26600D01*
Y43170D01*
X26504D01*
Y44730D01*
X26700D01*
Y45470D01*
X26000D01*
Y45018D01*
X25486Y44504D01*
X25065D01*
X25041Y44554D01*
X25076Y44615D01*
X25088Y44660D01*
X26055Y45627D01*
X26300D01*
X26320Y45630D01*
X26700D01*
Y46370D01*
D02*
G37*
G36*
X14472Y45136D02*
X14173D01*
Y44837D01*
X14258Y44860D01*
X14338Y44906D01*
X14403Y44971D01*
X14449Y45051D01*
X14472Y45136D01*
D02*
G37*
G36*
X43545Y44950D02*
X43200D01*
Y44605D01*
X43202D01*
X43303Y44632D01*
X43393Y44684D01*
X43466Y44757D01*
X43518Y44847D01*
X43545Y44948D01*
Y44950D01*
D02*
G37*
G36*
X32795Y45395D02*
X32005D01*
Y44605D01*
X32795D01*
Y45395D01*
D02*
G37*
G36*
X7110Y42070D02*
X6810D01*
Y41750D01*
X7110D01*
Y42070D01*
D02*
G37*
G36*
X12170Y44250D02*
X11430D01*
Y43550D01*
X11596D01*
Y41903D01*
X11590Y41897D01*
X11548Y41888D01*
X11482Y41844D01*
X11306Y41668D01*
X11262Y41602D01*
X11246Y41524D01*
Y41412D01*
X11200Y41393D01*
X11124Y41468D01*
X11058Y41512D01*
X11030Y41518D01*
X11000Y41548D01*
X10991Y41554D01*
X10986Y41604D01*
X11056Y41674D01*
Y41691D01*
X11088Y41740D01*
X11104Y41818D01*
Y43550D01*
X11270D01*
Y44250D01*
X10530D01*
Y43550D01*
X10696D01*
Y41974D01*
X10556D01*
X10456Y41874D01*
Y41674D01*
X10476Y41654D01*
X10457Y41608D01*
X10135D01*
X9949Y41794D01*
X9883Y41838D01*
X9805Y41854D01*
X9400D01*
Y42020D01*
X9100D01*
Y41650D01*
Y41280D01*
X9400D01*
Y41446D01*
X9721D01*
X9907Y41260D01*
X9907Y41260D01*
X9973Y41216D01*
X10051Y41200D01*
X10476D01*
X10500Y41150D01*
X10468Y41102D01*
X10452Y41024D01*
X10468Y40946D01*
X10512Y40880D01*
X10552Y40853D01*
Y39910D01*
X9212Y38570D01*
X8800D01*
Y38404D01*
X7610D01*
Y38775D01*
X7364D01*
Y40430D01*
X7510D01*
Y40571D01*
X8700D01*
Y40380D01*
X9400D01*
Y41120D01*
X8700D01*
Y40979D01*
X7510D01*
Y41170D01*
X6810D01*
Y40430D01*
X6956D01*
Y38775D01*
X6810D01*
Y37725D01*
X7610D01*
Y37996D01*
X8800D01*
Y37830D01*
X9500D01*
Y38282D01*
X10896Y39678D01*
X10913Y39676D01*
X10946Y39661D01*
Y38550D01*
X10780D01*
Y38250D01*
X11520D01*
Y38550D01*
X11390D01*
X11383Y38575D01*
X11424Y38611D01*
X11450Y38600D01*
X11550D01*
X11642Y38638D01*
X11712Y38708D01*
X11750Y38800D01*
Y38900D01*
X11712Y38992D01*
X11704Y39000D01*
Y40520D01*
X13200D01*
Y39800D01*
X13316D01*
X13335Y39754D01*
X12132Y38550D01*
X11680D01*
Y37886D01*
X11630Y37865D01*
X11615Y37880D01*
X11535Y37926D01*
X11527Y37928D01*
X11523Y37932D01*
Y38150D01*
X11523Y38150D01*
X10780D01*
Y37850D01*
X10917D01*
Y37807D01*
X10928Y37729D01*
X10958Y37656D01*
X10994Y37609D01*
X10962Y37568D01*
X10903Y37592D01*
X10825Y37603D01*
X9500D01*
Y37670D01*
X8800D01*
Y37403D01*
X7610D01*
Y37625D01*
X6810D01*
Y36575D01*
X7610D01*
Y36797D01*
X8970D01*
X9048Y36808D01*
X9121Y36838D01*
X9184Y36886D01*
X9218Y36930D01*
X9500D01*
Y36997D01*
X10700D01*
X12150Y35547D01*
Y34925D01*
X12522D01*
X12576Y34871D01*
X12557Y34825D01*
X12150D01*
Y34353D01*
X11200D01*
Y34600D01*
X10750D01*
Y34050D01*
Y33500D01*
X11200D01*
Y33747D01*
X12425D01*
X12500Y33757D01*
Y34300D01*
X12600D01*
Y33775D01*
X12730D01*
X12750Y33771D01*
X12770Y33775D01*
X12950D01*
Y33955D01*
X12954Y33975D01*
X13000Y33997D01*
X13325D01*
X13811Y33511D01*
X13874Y33463D01*
X13947Y33433D01*
X14025Y33422D01*
X14025Y33422D01*
X14450D01*
Y32975D01*
X14547D01*
Y32735D01*
X14515Y32726D01*
X14435Y32680D01*
X14370Y32615D01*
X14324Y32535D01*
X14301Y32450D01*
X14650D01*
Y32400D01*
X14700D01*
Y32051D01*
X14785Y32074D01*
X14865Y32120D01*
X14930Y32185D01*
X14976Y32265D01*
X14988Y32310D01*
X15064Y32386D01*
X15112Y32449D01*
X15142Y32522D01*
X15153Y32600D01*
X15153Y32600D01*
Y32975D01*
X15250D01*
Y33450D01*
X14850D01*
Y33500D01*
X14800D01*
Y34025D01*
X14770D01*
X14750Y34028D01*
X14150D01*
X13727Y34451D01*
X13746Y34497D01*
X14450D01*
Y34125D01*
X15250D01*
Y34347D01*
X17000D01*
Y34080D01*
X17700D01*
Y34820D01*
X17428D01*
X17384Y34864D01*
X17321Y34912D01*
X17248Y34942D01*
X17170Y34953D01*
X15250D01*
Y35147D01*
X15394D01*
X15473Y35158D01*
X15546Y35188D01*
X15608Y35236D01*
X17618Y37246D01*
X18892D01*
Y37173D01*
X18961D01*
Y37086D01*
X18972Y37008D01*
X19002Y36935D01*
X19050Y36872D01*
X20512Y35410D01*
X20524Y35365D01*
X20570Y35285D01*
X20635Y35220D01*
X20715Y35174D01*
X20804Y35150D01*
X20816D01*
X20835Y35104D01*
X20056Y34324D01*
X20012Y34258D01*
X19996Y34180D01*
Y33754D01*
X17700D01*
Y33920D01*
X17000D01*
Y33180D01*
X17700D01*
Y33346D01*
X20236D01*
X20550Y33032D01*
Y32580D01*
X21250D01*
Y33320D01*
X20838D01*
X20725Y33434D01*
X20744Y33480D01*
X21250D01*
Y33610D01*
X22025D01*
X22050Y33600D01*
X22150D01*
X22242Y33638D01*
X22312Y33708D01*
X22350Y33800D01*
Y33900D01*
X22312Y33992D01*
X22242Y34062D01*
X22150Y34100D01*
X22050D01*
X22025Y34090D01*
X21250D01*
Y34220D01*
X20599D01*
X20578Y34270D01*
X21658Y35350D01*
X21930D01*
Y36050D01*
X21370D01*
Y35638D01*
X21246Y35515D01*
X21200Y35534D01*
Y35546D01*
X21176Y35635D01*
X21130Y35715D01*
X21065Y35780D01*
X20985Y35826D01*
X20940Y35838D01*
X19655Y37123D01*
X19676Y37173D01*
X19884D01*
X20167Y36890D01*
X20174Y36865D01*
X20220Y36785D01*
X20285Y36720D01*
X20365Y36674D01*
X20450Y36651D01*
Y37000D01*
X20500D01*
Y37050D01*
X20849D01*
X20826Y37135D01*
X20780Y37215D01*
X20715Y37280D01*
X20635Y37326D01*
X20569Y37344D01*
X20364Y37549D01*
X20564Y37748D01*
X20612Y37811D01*
X20642Y37884D01*
X20653Y37962D01*
Y38642D01*
X20710Y38699D01*
X22424D01*
Y38666D01*
X22750D01*
Y39002D01*
Y39338D01*
X22424D01*
Y39305D01*
X20584D01*
X20506Y39294D01*
X20433Y39264D01*
X20370Y39216D01*
X20370Y39216D01*
X20136Y38982D01*
X20088Y38919D01*
X20058Y38846D01*
X20047Y38768D01*
Y38088D01*
X19884Y37924D01*
X19640D01*
Y37599D01*
X19976D01*
Y37499D01*
X19640D01*
Y37238D01*
X19590Y37213D01*
X19567Y37231D01*
Y37512D01*
X19564Y37532D01*
Y37924D01*
X19530D01*
Y39581D01*
X19520Y39660D01*
X19490Y39733D01*
X19442Y39795D01*
X18693Y40543D01*
X20169Y42019D01*
X20341D01*
Y42279D01*
X20347Y42322D01*
X20347Y42322D01*
Y42592D01*
X20341Y42635D01*
Y43164D01*
X19748D01*
Y42635D01*
X19742Y42592D01*
Y42448D01*
X18266Y40971D01*
X18123Y41114D01*
X18060Y41162D01*
X17987Y41192D01*
X17909Y41203D01*
X16850D01*
Y42000D01*
X15350D01*
Y39800D01*
X16850D01*
Y40597D01*
X17784D01*
X18166Y40216D01*
X18166Y40216D01*
X18925Y39456D01*
Y37924D01*
X18892D01*
Y37851D01*
X17493D01*
X17415Y37841D01*
X17342Y37811D01*
X17279Y37763D01*
X17045Y37529D01*
X17001Y37553D01*
X17000Y37554D01*
Y37646D01*
X16976Y37735D01*
X16930Y37815D01*
X16865Y37880D01*
X16785Y37926D01*
X16696Y37950D01*
X16604D01*
X16515Y37926D01*
X16474Y37903D01*
X16050D01*
Y37970D01*
X15350D01*
Y37424D01*
X15304Y37405D01*
X14364Y38344D01*
X14298Y38388D01*
X14220Y38404D01*
X12628D01*
X12608Y38450D01*
X13654Y39496D01*
X14683D01*
X14761Y39512D01*
X14827Y39556D01*
X14944Y39673D01*
X14944Y39673D01*
X14988Y39739D01*
X15004Y39817D01*
Y41983D01*
X14988Y42061D01*
X14944Y42127D01*
X14944Y42127D01*
X14827Y42244D01*
X14761Y42288D01*
X14683Y42304D01*
X13217D01*
X13139Y42288D01*
X13073Y42244D01*
X12795Y41966D01*
X12751Y41900D01*
X12738Y41836D01*
X12707Y41811D01*
X12685Y41803D01*
X12639Y41822D01*
X12539D01*
X12448Y41784D01*
X12377Y41714D01*
X12350Y41649D01*
X12305Y41604D01*
X12143D01*
X12116Y41654D01*
X12144Y41696D01*
X12160Y41774D01*
X12144Y41852D01*
X12100Y41918D01*
X12034Y41962D01*
X12004Y41968D01*
Y43550D01*
X12170D01*
Y44250D01*
D02*
G37*
G36*
X7110Y41650D02*
X6810D01*
Y41330D01*
X7110D01*
Y41650D01*
D02*
G37*
G36*
X7510Y42070D02*
X7210D01*
Y41700D01*
Y41330D01*
X7510D01*
Y41372D01*
X8700D01*
Y41280D01*
X9000D01*
Y41650D01*
Y42020D01*
X8700D01*
Y41978D01*
X7510D01*
Y42070D01*
D02*
G37*
G36*
X57720Y40200D02*
X56980D01*
Y39904D01*
X56785D01*
X56785Y39904D01*
X56707Y39888D01*
X56641Y39844D01*
X56641Y39844D01*
X55273Y38476D01*
X54338D01*
Y37686D01*
X55562D01*
Y38188D01*
X56870Y39496D01*
X57200D01*
X57220Y39500D01*
X57720D01*
Y40200D01*
D02*
G37*
G36*
X21247Y43164D02*
X20653D01*
Y42635D01*
X20647Y42592D01*
Y40881D01*
X20200D01*
Y39736D01*
X21129D01*
X21177Y39716D01*
X21256Y39706D01*
X22377D01*
X22424Y39658D01*
Y39414D01*
X23176D01*
Y39707D01*
X23193Y39730D01*
X23223Y39803D01*
X23233Y39881D01*
Y40291D01*
X23276Y40365D01*
X23300Y40454D01*
Y40546D01*
X23276Y40635D01*
X23230Y40715D01*
X23165Y40780D01*
X23085Y40826D01*
X22996Y40850D01*
X22904D01*
X22815Y40826D01*
X22735Y40780D01*
X22670Y40715D01*
X22624Y40635D01*
X22600Y40546D01*
Y40454D01*
X22624Y40365D01*
X22628Y40357D01*
Y40326D01*
X22591Y40301D01*
X22578Y40301D01*
X22502Y40311D01*
X21700D01*
Y40881D01*
X21253D01*
Y42592D01*
X21247Y42635D01*
Y43164D01*
D02*
G37*
G36*
X31102Y39145D02*
X31100D01*
Y38800D01*
X31445D01*
Y38802D01*
X31418Y38903D01*
X31366Y38993D01*
X31293Y39066D01*
X31203Y39118D01*
X31102Y39145D01*
D02*
G37*
G36*
X31000D02*
X30998D01*
X30897Y39118D01*
X30807Y39066D01*
X30734Y38993D01*
X30682Y38903D01*
X30655Y38802D01*
Y38800D01*
X31000D01*
Y39145D01*
D02*
G37*
G36*
X45324Y38560D02*
X44999D01*
Y38274D01*
X45324D01*
Y38560D01*
D02*
G37*
G36*
X44899D02*
X44573D01*
Y38274D01*
X44899D01*
Y38560D01*
D02*
G37*
G36*
X69000Y37849D02*
Y37550D01*
X69299D01*
X69276Y37635D01*
X69230Y37715D01*
X69165Y37780D01*
X69085Y37826D01*
X69000Y37849D01*
D02*
G37*
G36*
X55562Y37295D02*
X55000D01*
Y36950D01*
X55562D01*
Y37295D01*
D02*
G37*
G36*
X54900D02*
X54338D01*
Y36950D01*
X54900D01*
Y37295D01*
D02*
G37*
G36*
X68900Y37849D02*
X68815Y37826D01*
X68735Y37780D01*
X68670Y37715D01*
X68624Y37635D01*
X68603Y37557D01*
X68458Y37412D01*
X68095D01*
Y36850D01*
X68886D01*
Y36984D01*
X69072Y37170D01*
X69085Y37174D01*
X69165Y37220D01*
X69230Y37285D01*
X69276Y37365D01*
X69299Y37450D01*
X68950D01*
Y37500D01*
X68900D01*
Y37849D01*
D02*
G37*
G36*
X20849Y36950D02*
X20550D01*
Y36651D01*
X20635Y36674D01*
X20715Y36720D01*
X20780Y36785D01*
X20826Y36865D01*
X20849Y36950D01*
D02*
G37*
G36*
X11200Y36300D02*
X10200D01*
Y35854D01*
X9900D01*
X9892Y35862D01*
X9800Y35900D01*
X9700D01*
X9608Y35862D01*
X9538Y35792D01*
X9500Y35700D01*
Y35600D01*
X9538Y35508D01*
X9608Y35438D01*
X9700Y35400D01*
X9800D01*
X9892Y35438D01*
X9900Y35446D01*
X10200D01*
Y35200D01*
X11200D01*
Y36300D01*
D02*
G37*
G36*
X30445Y39145D02*
X29655D01*
Y38355D01*
X29846D01*
Y37538D01*
X29862Y37460D01*
X29906Y37394D01*
X30117Y37183D01*
Y36237D01*
X30018Y36179D01*
X29926Y36087D01*
X29861Y35975D01*
X29827Y35849D01*
Y35719D01*
X29861Y35594D01*
X29926Y35481D01*
X30018Y35389D01*
X30053Y35369D01*
X30042Y35317D01*
X30010Y35313D01*
X29937Y35283D01*
X29880Y35239D01*
X29866Y35242D01*
X28843D01*
Y35227D01*
X28877Y35102D01*
X28942Y34989D01*
X29033Y34897D01*
X29034Y34897D01*
Y34703D01*
X29033Y34703D01*
X28942Y34611D01*
X28877Y34498D01*
X28843Y34373D01*
Y34358D01*
X29854D01*
X30214Y34718D01*
X30542D01*
X30620Y34728D01*
X30693Y34759D01*
X30755Y34807D01*
X31240Y35291D01*
X31240Y35291D01*
X31255D01*
Y35784D01*
Y36282D01*
X31254Y36283D01*
Y38411D01*
X31293Y38434D01*
X31366Y38507D01*
X31418Y38597D01*
X31445Y38698D01*
Y38700D01*
X30655D01*
Y38698D01*
X30682Y38597D01*
X30734Y38507D01*
X30807Y38434D01*
X30846Y38411D01*
Y36198D01*
X30862Y36120D01*
X30898Y36066D01*
X30845Y35975D01*
X30838Y35948D01*
X30788D01*
X30781Y35975D01*
X30716Y36087D01*
X30624Y36179D01*
X30525Y36237D01*
Y37267D01*
X30509Y37345D01*
X30465Y37412D01*
X30254Y37623D01*
Y38355D01*
X30445D01*
Y39145D01*
D02*
G37*
G36*
X47800Y38370D02*
X47100D01*
Y37630D01*
X47246D01*
Y35895D01*
X46538D01*
Y35207D01*
X46492Y35188D01*
X45251Y36429D01*
Y37888D01*
X45324D01*
Y38174D01*
X44949D01*
X44573D01*
Y37888D01*
X44646D01*
Y36304D01*
X44656Y36225D01*
X44687Y36152D01*
X44735Y36090D01*
X46538Y34286D01*
Y33924D01*
X47100D01*
Y34319D01*
Y34714D01*
X46966D01*
X46622Y35059D01*
X46641Y35105D01*
X47762D01*
Y35895D01*
X47654D01*
Y37630D01*
X47800D01*
Y38370D01*
D02*
G37*
G36*
X49650D02*
X48950D01*
Y37630D01*
X49096D01*
Y35786D01*
X48888D01*
Y34995D01*
X50112D01*
Y35786D01*
X49504D01*
Y37630D01*
X49650D01*
Y38370D01*
D02*
G37*
G36*
X50750Y34549D02*
Y34250D01*
X51049D01*
X51026Y34335D01*
X50980Y34415D01*
X50915Y34480D01*
X50835Y34526D01*
X50750Y34549D01*
D02*
G37*
G36*
X10650Y34600D02*
X10200D01*
Y34100D01*
X10650D01*
Y34600D01*
D02*
G37*
G36*
X55562Y36850D02*
X54950D01*
X54338D01*
Y36505D01*
X54647D01*
Y34326D01*
X54658Y34248D01*
X54688Y34175D01*
X54714Y34141D01*
Y34000D01*
X55109D01*
X55505D01*
Y34562D01*
X55253D01*
Y36505D01*
X55562D01*
Y36850D01*
D02*
G37*
G36*
X51049Y34150D02*
X50750D01*
Y33851D01*
X50835Y33874D01*
X50915Y33920D01*
X50980Y33985D01*
X51026Y34065D01*
X51049Y34150D01*
D02*
G37*
G36*
X50112Y34605D02*
X49550D01*
Y34209D01*
Y33814D01*
X50112D01*
Y33907D01*
X50508D01*
X50565Y33874D01*
X50650Y33851D01*
Y34200D01*
Y34549D01*
X50565Y34526D01*
X50540Y34512D01*
X50112D01*
Y34605D01*
D02*
G37*
G36*
X47762Y34714D02*
X47200D01*
Y34319D01*
Y33924D01*
X47762D01*
Y34016D01*
X48888D01*
Y33814D01*
X49450D01*
Y34209D01*
Y34605D01*
X49268D01*
X49252Y34611D01*
X49174Y34621D01*
X47762D01*
Y34714D01*
D02*
G37*
G36*
X55505Y33900D02*
X55109D01*
X54714D01*
Y33766D01*
X54659Y33710D01*
X53405D01*
Y33744D01*
X53188D01*
Y33408D01*
X53088D01*
Y33744D01*
X52871D01*
Y33549D01*
X52870Y33548D01*
X52858Y33517D01*
X52846Y33486D01*
X52845Y33480D01*
X52843Y33474D01*
X52840Y33441D01*
X52835Y33408D01*
X52836Y33401D01*
X52836Y33395D01*
X52841Y33362D01*
X52846Y33330D01*
X52848Y33323D01*
X52849Y33317D01*
X52863Y33287D01*
X52871Y33269D01*
Y33072D01*
X52993D01*
X53289Y32608D01*
Y32584D01*
X53270Y32565D01*
X53224Y32485D01*
X53201Y32400D01*
X53899D01*
X53884Y32457D01*
X53887Y32470D01*
X53889Y32503D01*
X53894Y32535D01*
Y32696D01*
X53893Y32702D01*
X53893Y32709D01*
X53888Y32741D01*
X53883Y32774D01*
X53881Y32780D01*
X53880Y32787D01*
X53866Y32817D01*
X53853Y32847D01*
X53849Y32852D01*
X53846Y32858D01*
X53717Y33061D01*
X53741Y33105D01*
X54784D01*
X54862Y33116D01*
X54935Y33146D01*
X54998Y33194D01*
X55142Y33338D01*
X55505D01*
Y33900D01*
D02*
G37*
G36*
X52647Y33746D02*
X52113D01*
Y33554D01*
X50535D01*
X50535Y33554D01*
X50457Y33538D01*
X50391Y33494D01*
X50391Y33494D01*
X49451Y32554D01*
X48120D01*
Y32700D01*
X47380D01*
Y32000D01*
X48120D01*
Y32146D01*
X49535D01*
X49613Y32162D01*
X49680Y32206D01*
X50620Y33146D01*
X52113D01*
Y33074D01*
X52647D01*
Y33746D01*
D02*
G37*
G36*
X15250Y34025D02*
X14900D01*
Y33550D01*
X15250D01*
Y34025D01*
D02*
G37*
G36*
X10650Y34000D02*
X10200D01*
Y33500D01*
X10650D01*
Y34000D01*
D02*
G37*
G36*
X57170Y37300D02*
X56430D01*
Y36888D01*
X56146Y36605D01*
X56102Y36539D01*
X56087Y36461D01*
Y34562D01*
X55895D01*
Y33338D01*
X56686D01*
Y34562D01*
X56494D01*
Y36376D01*
X56718Y36600D01*
X57170D01*
Y37300D01*
D02*
G37*
G36*
X59855Y33494D02*
X59638D01*
Y33158D01*
X59538D01*
Y33494D01*
X59321D01*
Y33296D01*
X59296Y33236D01*
X59285Y33158D01*
Y33154D01*
X59296Y33076D01*
X59321Y33016D01*
Y32822D01*
X59493D01*
X59900Y32414D01*
Y32404D01*
X59924Y32315D01*
X59970Y32235D01*
X60035Y32170D01*
X60115Y32124D01*
X60200Y32101D01*
Y32450D01*
X60250D01*
Y32500D01*
X60599D01*
X60576Y32585D01*
X60530Y32665D01*
X60465Y32730D01*
X60406Y32764D01*
X59855Y33315D01*
Y33494D01*
D02*
G37*
G36*
X66238Y33144D02*
X66021D01*
Y32858D01*
X66238D01*
Y33144D01*
D02*
G37*
G36*
Y32758D02*
X66021D01*
Y32472D01*
X66238D01*
Y32758D01*
D02*
G37*
G36*
X60599Y32400D02*
X60300D01*
Y32101D01*
X60385Y32124D01*
X60465Y32170D01*
X60530Y32235D01*
X60576Y32315D01*
X60599Y32400D01*
D02*
G37*
G36*
X23550Y32338D02*
X23224D01*
Y32052D01*
X23550D01*
Y32338D01*
D02*
G37*
G36*
X14600Y32350D02*
X14301D01*
X14324Y32265D01*
X14370Y32185D01*
X14435Y32120D01*
X14515Y32074D01*
X14600Y32051D01*
Y32350D01*
D02*
G37*
G36*
X53899Y32300D02*
X53600D01*
Y32001D01*
X53685Y32024D01*
X53765Y32070D01*
X53830Y32135D01*
X53876Y32215D01*
X53899Y32300D01*
D02*
G37*
G36*
X53500D02*
X53201D01*
X53224Y32215D01*
X53270Y32135D01*
X53335Y32070D01*
X53415Y32024D01*
X53500Y32001D01*
Y32300D01*
D02*
G37*
G36*
X68886Y36750D02*
X68095D01*
Y36188D01*
X68188D01*
Y35016D01*
X66338Y33166D01*
Y32808D01*
Y32472D01*
X66555D01*
Y32541D01*
X66818D01*
X68036Y31324D01*
X68017Y31277D01*
X67638D01*
Y31313D01*
X67350D01*
Y30975D01*
Y30637D01*
X67638D01*
Y30672D01*
X68711D01*
X68789Y30683D01*
X68806Y30690D01*
X69177D01*
Y30976D01*
X68801D01*
Y31076D01*
X69177D01*
Y31362D01*
X68854D01*
X67158Y33058D01*
X67147Y33066D01*
X67144Y33116D01*
X68705Y34677D01*
X68705Y34677D01*
X68753Y34739D01*
X68783Y34812D01*
X68793Y34891D01*
Y36188D01*
X68886D01*
Y36750D01*
D02*
G37*
G36*
X58700Y33514D02*
X58622Y33498D01*
X58619Y33496D01*
X58563D01*
Y33459D01*
X58556Y33454D01*
X58512Y33388D01*
X58496Y33310D01*
Y32364D01*
X58032Y31900D01*
X57580D01*
Y31200D01*
X58320D01*
Y31612D01*
X58844Y32136D01*
X58888Y32202D01*
X58904Y32280D01*
Y32824D01*
X59097D01*
Y33496D01*
X58781D01*
X58778Y33498D01*
X58700Y33514D01*
D02*
G37*
G36*
X67250Y31313D02*
X66962D01*
Y31025D01*
X67250D01*
Y31313D01*
D02*
G37*
G36*
X24899Y31100D02*
X24600D01*
Y30801D01*
X24685Y30824D01*
X24765Y30870D01*
X24830Y30935D01*
X24876Y31015D01*
X24899Y31100D01*
D02*
G37*
G36*
X23976Y32338D02*
X23650D01*
Y32002D01*
X23600D01*
Y31952D01*
X23224D01*
Y31666D01*
X23548D01*
X24258Y30955D01*
X24270Y30935D01*
X24335Y30870D01*
X24415Y30824D01*
X24500Y30801D01*
Y31150D01*
X24550D01*
Y31200D01*
X24899D01*
X24876Y31285D01*
X24830Y31365D01*
X24765Y31430D01*
X24685Y31476D01*
X24596Y31500D01*
X24569D01*
X23976Y32094D01*
Y32338D01*
D02*
G37*
G36*
X13730Y31000D02*
X13500D01*
Y30650D01*
X13400D01*
Y31000D01*
X13170D01*
Y30758D01*
X13158Y30728D01*
X13147Y30650D01*
Y28350D01*
X12929D01*
Y30300D01*
X12930D01*
Y31000D01*
X12370D01*
Y30300D01*
X12521D01*
Y28350D01*
X12430D01*
Y27650D01*
X12882D01*
X16226Y24306D01*
X16292Y24262D01*
X16370Y24246D01*
X18380D01*
Y24100D01*
X19120D01*
Y24800D01*
X18380D01*
Y24654D01*
X16454D01*
X13505Y27604D01*
X13524Y27650D01*
X13650D01*
Y28000D01*
X13750D01*
Y27650D01*
X14070D01*
Y27722D01*
X15725D01*
Y27700D01*
X16050D01*
Y28050D01*
Y28400D01*
X15725D01*
Y28328D01*
X14070D01*
Y28350D01*
X13758D01*
X13753Y28355D01*
Y30650D01*
X13742Y30728D01*
X13730Y30758D01*
Y31000D01*
D02*
G37*
G36*
X67250Y30925D02*
X66962D01*
Y30637D01*
X67250D01*
Y30925D01*
D02*
G37*
G36*
X65797Y33146D02*
X65263D01*
Y32762D01*
X65120Y32620D01*
X65076Y32554D01*
X65061Y32476D01*
Y32391D01*
X63224Y30554D01*
X62070D01*
Y30700D01*
X61330D01*
Y30000D01*
X62070D01*
Y30146D01*
X63308D01*
X63386Y30162D01*
X63452Y30206D01*
X65409Y32162D01*
X65453Y32228D01*
X65469Y32307D01*
Y32391D01*
X65551Y32474D01*
X65797D01*
Y33146D01*
D02*
G37*
G36*
X16900Y28749D02*
Y28450D01*
X17199D01*
X17176Y28535D01*
X17130Y28615D01*
X17065Y28680D01*
X16985Y28726D01*
X16900Y28749D01*
D02*
G37*
G36*
X16800D02*
X16715Y28726D01*
X16635Y28680D01*
X16570Y28615D01*
X16524Y28535D01*
X16500Y28446D01*
Y28428D01*
X16475Y28403D01*
X16150D01*
X16150Y28403D01*
D01*
Y28050D01*
Y27700D01*
X16475D01*
Y27797D01*
X16600D01*
X16678Y27808D01*
X16751Y27838D01*
X16814Y27886D01*
X17025Y28097D01*
X17065Y28120D01*
X17130Y28185D01*
X17176Y28265D01*
X17199Y28350D01*
X16850D01*
Y28400D01*
X16800D01*
Y28749D01*
D02*
G37*
G36*
X20020Y24800D02*
X19280D01*
Y24100D01*
X20020D01*
Y24246D01*
X20550D01*
X20570Y24250D01*
X20650D01*
X20742Y24288D01*
X20812Y24358D01*
X20850Y24450D01*
Y24550D01*
X20812Y24642D01*
X20742Y24712D01*
X20650Y24750D01*
X20550D01*
X20458Y24712D01*
X20400Y24654D01*
X20020D01*
Y24800D01*
D02*
G37*
G36*
X32805Y22865D02*
X32695D01*
X32590Y22837D01*
X32495Y22782D01*
X32418Y22705D01*
X32363Y22610D01*
X32335Y22505D01*
Y22395D01*
X32363Y22290D01*
X32418Y22195D01*
X32495Y22118D01*
X32590Y22063D01*
X32695Y22035D01*
X32805D01*
X32910Y22063D01*
X33005Y22118D01*
X33082Y22195D01*
X33137Y22290D01*
X33165Y22395D01*
Y22505D01*
X33137Y22610D01*
X33082Y22705D01*
X33005Y22782D01*
X32910Y22837D01*
X32805Y22865D01*
D02*
G37*
G36*
X31805D02*
X31695D01*
X31590Y22837D01*
X31495Y22782D01*
X31418Y22705D01*
X31363Y22610D01*
X31335Y22505D01*
Y22395D01*
X31363Y22290D01*
X31418Y22195D01*
X31495Y22118D01*
X31590Y22063D01*
X31695Y22035D01*
X31805D01*
X31910Y22063D01*
X32005Y22118D01*
X32082Y22195D01*
X32137Y22290D01*
X32165Y22395D01*
Y22505D01*
X32137Y22610D01*
X32082Y22705D01*
X32005Y22782D01*
X31910Y22837D01*
X31805Y22865D01*
D02*
G37*
G36*
X30165Y22400D02*
X29800D01*
Y22035D01*
X29805D01*
X29910Y22063D01*
X30005Y22118D01*
X30082Y22195D01*
X30137Y22290D01*
X30165Y22395D01*
Y22400D01*
D02*
G37*
G36*
X33933Y20683D02*
X31767D01*
X31728Y20675D01*
X31695Y20653D01*
X31673Y20620D01*
X31665Y20581D01*
Y18707D01*
X31673Y18668D01*
X31695Y18635D01*
X31728Y18612D01*
X31767Y18605D01*
X33933D01*
X33972Y18612D01*
X34005Y18635D01*
X34027Y18668D01*
X34035Y18707D01*
Y20581D01*
X34027Y20620D01*
X34005Y20653D01*
X33972Y20675D01*
X33933Y20683D01*
D02*
G37*
G36*
X22450Y16400D02*
X22150D01*
Y16080D01*
X22450D01*
Y16400D01*
D02*
G37*
G36*
X28685Y15200D02*
X28300D01*
Y14815D01*
X28685D01*
Y15200D01*
D02*
G37*
G36*
X19914Y8200D02*
X19900D01*
Y7600D01*
X20500D01*
Y7614D01*
X20475Y7740D01*
X20426Y7858D01*
X20355Y7964D01*
X20264Y8055D01*
X20158Y8126D01*
X20040Y8175D01*
X19914Y8200D01*
D02*
G37*
G36*
X19800D02*
X19786D01*
X19660Y8175D01*
X19542Y8126D01*
X19436Y8055D01*
X19345Y7964D01*
X19274Y7858D01*
X19225Y7740D01*
X19200Y7614D01*
Y7600D01*
X19800D01*
Y8200D01*
D02*
G37*
G36*
X51382Y7450D02*
Y6911D01*
X51671D01*
Y7117D01*
X51659Y7205D01*
X51625Y7287D01*
X51571Y7357D01*
X51501Y7411D01*
X51419Y7445D01*
X51382Y7450D01*
D02*
G37*
G36*
X51281D02*
X51244Y7445D01*
X51162Y7411D01*
X51092Y7357D01*
X51038Y7287D01*
X51004Y7205D01*
X50992Y7117D01*
Y6911D01*
X51281D01*
Y7450D01*
D02*
G37*
G36*
X20500Y7500D02*
X19900D01*
Y6900D01*
X19914D01*
X20040Y6925D01*
X20158Y6974D01*
X20264Y7045D01*
X20355Y7136D01*
X20426Y7242D01*
X20475Y7360D01*
X20500Y7486D01*
Y7500D01*
D02*
G37*
G36*
X19800D02*
X19200D01*
Y7486D01*
X19225Y7360D01*
X19274Y7242D01*
X19345Y7136D01*
X19436Y7045D01*
X19542Y6974D01*
X19660Y6925D01*
X19786Y6900D01*
X19800D01*
Y7500D01*
D02*
G37*
G36*
X8415Y7080D02*
X8064D01*
Y6729D01*
X8415D01*
Y7080D01*
D02*
G37*
G36*
X7964D02*
X7613D01*
Y6729D01*
X7964D01*
Y7080D01*
D02*
G37*
G36*
X8415Y6629D02*
X8064D01*
Y6278D01*
X8415D01*
Y6629D01*
D02*
G37*
G36*
X7964D02*
X7613D01*
Y6278D01*
X7964D01*
Y6629D01*
D02*
G37*
G36*
X51671Y6811D02*
X51382D01*
Y6273D01*
X51419Y6278D01*
X51501Y6312D01*
X51571Y6366D01*
X51625Y6436D01*
X51659Y6518D01*
X51671Y6606D01*
Y6811D01*
D02*
G37*
G36*
X51281D02*
X50992D01*
Y6606D01*
X51004Y6518D01*
X51038Y6436D01*
X51092Y6366D01*
X51162Y6312D01*
X51244Y6278D01*
X51281Y6273D01*
Y6811D01*
D02*
G37*
G36*
X33933Y8089D02*
X31767D01*
X31728Y8081D01*
X31695Y8059D01*
X31673Y8026D01*
X31665Y7987D01*
Y6113D01*
X31673Y6074D01*
X31695Y6041D01*
X31728Y6019D01*
X31767Y6011D01*
X33933D01*
X33972Y6019D01*
X34005Y6041D01*
X34027Y6074D01*
X34035Y6113D01*
Y7987D01*
X34027Y8026D01*
X34005Y8059D01*
X33972Y8081D01*
X33933Y8089D01*
D02*
G37*
G36*
X24484Y8084D02*
X22318D01*
X22279Y8076D01*
X22246Y8054D01*
X22224Y8021D01*
X22217Y7982D01*
Y6108D01*
X22224Y6069D01*
X22246Y6036D01*
X22279Y6014D01*
X22318Y6006D01*
X24484D01*
X24523Y6014D01*
X24556Y6036D01*
X24578Y6069D01*
X24586Y6108D01*
Y7982D01*
X24578Y8021D01*
X24556Y8054D01*
X24523Y8076D01*
X24484Y8084D01*
D02*
G37*
G36*
X50033Y8034D02*
X47867D01*
X47828Y8026D01*
X47795Y8004D01*
X47773Y7971D01*
X47765Y7932D01*
Y6058D01*
X47773Y6019D01*
X47795Y5986D01*
X47828Y5964D01*
X47867Y5956D01*
X50033D01*
X50072Y5964D01*
X50105Y5986D01*
X50127Y6019D01*
X50135Y6058D01*
Y7932D01*
X50127Y7971D01*
X50105Y8004D01*
X50072Y8026D01*
X50033Y8034D01*
D02*
G37*
G36*
X40584D02*
X38419D01*
X38379Y8026D01*
X38346Y8004D01*
X38324Y7971D01*
X38317Y7932D01*
Y6058D01*
X38324Y6019D01*
X38346Y5986D01*
X38379Y5964D01*
X38419Y5956D01*
X40584D01*
X40623Y5964D01*
X40656Y5986D01*
X40678Y6019D01*
X40686Y6058D01*
Y7932D01*
X40678Y7971D01*
X40656Y8004D01*
X40623Y8026D01*
X40584Y8034D01*
D02*
G37*
%LPD*%
G36*
X16515Y37274D02*
X16604Y37250D01*
X16696D01*
X16697Y37249D01*
X16721Y37205D01*
X16096Y36580D01*
X16050Y36599D01*
Y37070D01*
X15638D01*
X15525Y37184D01*
X15544Y37230D01*
X16050D01*
Y37297D01*
X16474D01*
X16515Y37274D01*
D02*
G37*
G36*
X15350Y36782D02*
Y36330D01*
X15781D01*
X15800Y36284D01*
X15269Y35753D01*
X12950D01*
Y35975D01*
X12578D01*
X11352Y37201D01*
X11374Y37250D01*
X11446D01*
X11535Y37274D01*
X11615Y37320D01*
X11680Y37385D01*
X11726Y37465D01*
X11749Y37550D01*
X11400D01*
Y37650D01*
X11749D01*
X11726Y37735D01*
X11689Y37800D01*
X11706Y37841D01*
X11716Y37850D01*
X12420D01*
Y37996D01*
X14136D01*
X15350Y36782D01*
D02*
G37*
%LPC*%
G36*
X66136Y37662D02*
X65791D01*
Y37100D01*
X66136D01*
Y37662D01*
D02*
G37*
G36*
X66499Y35850D02*
X66200D01*
Y35551D01*
X66285Y35574D01*
X66365Y35620D01*
X66430Y35685D01*
X66476Y35765D01*
X66499Y35850D01*
D02*
G37*
G36*
X34815Y35294D02*
X34685D01*
X34559Y35260D01*
X34447Y35195D01*
X34355Y35103D01*
X34290Y34991D01*
X34283Y34964D01*
X34233D01*
X34226Y34991D01*
X34161Y35103D01*
X34069Y35195D01*
X33956Y35260D01*
X33831Y35294D01*
X33701D01*
X33575Y35260D01*
X33463Y35195D01*
X33371Y35103D01*
X33306Y34991D01*
X33272Y34865D01*
Y34735D01*
X33306Y34609D01*
X33371Y34497D01*
X33463Y34405D01*
X33575Y34340D01*
X33701Y34306D01*
X33831D01*
X33956Y34340D01*
X34069Y34405D01*
X34161Y34497D01*
X34226Y34609D01*
X34233Y34636D01*
X34283D01*
X34290Y34609D01*
X34355Y34497D01*
X34447Y34405D01*
X34559Y34340D01*
X34685Y34306D01*
X34815D01*
X34941Y34340D01*
X35053Y34405D01*
X35145Y34497D01*
X35210Y34609D01*
X35244Y34735D01*
Y34865D01*
X35210Y34991D01*
X35145Y35103D01*
X35053Y35195D01*
X34941Y35260D01*
X34815Y35294D01*
D02*
G37*
G36*
X43600Y25625D02*
X43300D01*
Y25300D01*
X43600D01*
Y25625D01*
D02*
G37*
G36*
X44550Y25549D02*
Y25250D01*
X44849D01*
X44826Y25335D01*
X44780Y25415D01*
X44715Y25480D01*
X44635Y25526D01*
X44550Y25549D01*
D02*
G37*
G36*
X43600Y25200D02*
X43300D01*
Y24875D01*
X43600D01*
Y25200D01*
D02*
G37*
G36*
X41920Y25800D02*
X41180D01*
Y25100D01*
X41920D01*
Y25246D01*
X42400D01*
Y24875D01*
X43100D01*
Y25625D01*
X42673D01*
X42653Y25638D01*
X42575Y25654D01*
X41920D01*
Y25800D01*
D02*
G37*
G36*
X44849Y25150D02*
X44550D01*
Y24851D01*
X44635Y24874D01*
X44715Y24920D01*
X44780Y24985D01*
X44826Y25065D01*
X44849Y25150D01*
D02*
G37*
G36*
X44000Y25625D02*
X43700D01*
Y25250D01*
Y24875D01*
X44000D01*
Y24947D01*
X44258D01*
X44285Y24920D01*
X44365Y24874D01*
X44450Y24851D01*
Y25200D01*
Y25549D01*
X44443Y25547D01*
X44400Y25553D01*
X44000D01*
Y25625D01*
D02*
G37*
G36*
X44300Y24149D02*
Y23850D01*
X44599D01*
X44576Y23935D01*
X44530Y24015D01*
X44465Y24080D01*
X44385Y24126D01*
X44300Y24149D01*
D02*
G37*
G36*
X42823Y23488D02*
X42737Y23465D01*
X42658Y23419D01*
X42592Y23354D01*
X42546Y23274D01*
X42524Y23189D01*
X42823D01*
Y23488D01*
D02*
G37*
G36*
X69149Y20450D02*
X68850D01*
Y20151D01*
X68935Y20174D01*
X69015Y20220D01*
X69080Y20285D01*
X69126Y20365D01*
X69149Y20450D01*
D02*
G37*
G36*
X68750D02*
X68451D01*
X68474Y20365D01*
X68520Y20285D01*
X68585Y20220D01*
X68665Y20174D01*
X68750Y20151D01*
Y20450D01*
D02*
G37*
G36*
X43199Y20400D02*
X42900D01*
Y20101D01*
X42985Y20124D01*
X43065Y20170D01*
X43130Y20235D01*
X43176Y20315D01*
X43199Y20400D01*
D02*
G37*
G36*
X50033Y20633D02*
X47867D01*
X47828Y20625D01*
X47795Y20603D01*
X47773Y20570D01*
X47765Y20531D01*
Y18657D01*
X47773Y18618D01*
X47795Y18585D01*
X47828Y18562D01*
X47867Y18555D01*
X50033D01*
X50072Y18562D01*
X50105Y18585D01*
X50127Y18618D01*
X50135Y18657D01*
Y20531D01*
X50127Y20570D01*
X50105Y20603D01*
X50072Y20625D01*
X50033Y20633D01*
D02*
G37*
G36*
X28700Y22865D02*
X28695D01*
X28590Y22837D01*
X28495Y22782D01*
X28418Y22705D01*
X28363Y22610D01*
X28335Y22505D01*
Y22500D01*
X28700D01*
Y22865D01*
D02*
G37*
G36*
X20149Y19710D02*
X19823D01*
Y19424D01*
X20149D01*
Y19710D01*
D02*
G37*
G36*
X39699Y22010D02*
X39373D01*
Y21724D01*
X39699D01*
Y22010D01*
D02*
G37*
G36*
X18449Y18250D02*
X18150D01*
Y17951D01*
X18235Y17974D01*
X18315Y18020D01*
X18380Y18085D01*
X18426Y18165D01*
X18449Y18250D01*
D02*
G37*
G36*
X18050D02*
X17751D01*
X17774Y18165D01*
X17820Y18085D01*
X17885Y18020D01*
X17965Y17974D01*
X18050Y17951D01*
Y18250D01*
D02*
G37*
G36*
X64836Y15126D02*
X64550D01*
Y14800D01*
X64836D01*
Y15126D01*
D02*
G37*
G36*
X64450D02*
X64164D01*
Y14800D01*
X64450D01*
Y15126D01*
D02*
G37*
G36*
X65550Y12699D02*
Y12400D01*
X65849D01*
X65826Y12485D01*
X65780Y12565D01*
X65715Y12630D01*
X65635Y12676D01*
X65550Y12699D01*
D02*
G37*
G36*
X64836Y14700D02*
X64164D01*
Y14374D01*
X64197D01*
Y12652D01*
X64122Y12642D01*
X64049Y12612D01*
X63986Y12564D01*
X63938Y12501D01*
X63908Y12428D01*
X63897Y12350D01*
X63908Y12272D01*
X63938Y12199D01*
X63986Y12136D01*
X64049Y12088D01*
X64122Y12058D01*
X64200Y12047D01*
X65324D01*
X65365Y12024D01*
X65415Y12010D01*
X65422Y12008D01*
X65428Y12007D01*
X65454Y12000D01*
X65480D01*
X65500Y11997D01*
X65520Y12000D01*
X65546D01*
X65572Y12007D01*
X65578Y12008D01*
X65585Y12010D01*
X65635Y12024D01*
X65715Y12070D01*
X65780Y12135D01*
X65826Y12215D01*
X65849Y12300D01*
X65500D01*
Y12350D01*
X65450D01*
Y12699D01*
X65365Y12676D01*
X65324Y12653D01*
X64803D01*
Y14374D01*
X64836D01*
Y14700D01*
D02*
G37*
G36*
X64850Y10399D02*
Y10100D01*
X65149D01*
X65126Y10185D01*
X65080Y10265D01*
X65015Y10330D01*
X64935Y10376D01*
X64850Y10399D01*
D02*
G37*
G36*
X65149Y10000D02*
X64850D01*
Y9701D01*
X64935Y9724D01*
X65015Y9770D01*
X65080Y9835D01*
X65126Y9915D01*
X65149Y10000D01*
D02*
G37*
G36*
X61400Y8199D02*
X61315Y8176D01*
X61235Y8130D01*
X61170Y8065D01*
X61124Y7985D01*
X61101Y7900D01*
X61400D01*
Y8199D01*
D02*
G37*
G36*
X61799Y7800D02*
X61101D01*
X61122Y7721D01*
X60823Y7422D01*
X60796Y7411D01*
X60726Y7357D01*
X60672Y7287D01*
X60638Y7205D01*
X60627Y7117D01*
Y6911D01*
X60966D01*
X61305D01*
Y7048D01*
X61664Y7407D01*
X61712Y7470D01*
X61742Y7543D01*
X61753Y7621D01*
X61753Y7621D01*
Y7674D01*
X61776Y7715D01*
X61799Y7800D01*
D02*
G37*
G36*
X68713Y7000D02*
X68288D01*
X68075Y6787D01*
Y6779D01*
X67623D01*
X67590Y6836D01*
X67511Y6915D01*
X67414Y6971D01*
X67306Y7000D01*
X67194D01*
X67086Y6971D01*
X66989Y6915D01*
X66910Y6836D01*
X66854Y6739D01*
X66825Y6631D01*
Y6519D01*
X66854Y6411D01*
X66910Y6314D01*
X66989Y6235D01*
X67086Y6179D01*
X67194Y6150D01*
X67306D01*
X67414Y6179D01*
X67511Y6235D01*
X67590Y6314D01*
X67623Y6371D01*
X68075D01*
Y6362D01*
X68288Y6150D01*
X68713D01*
X68925Y6362D01*
Y6787D01*
X68713Y7000D01*
D02*
G37*
G36*
X66462D02*
X66038D01*
X65825Y6787D01*
Y6779D01*
X65773D01*
X65740Y6836D01*
X65661Y6915D01*
X65564Y6971D01*
X65456Y7000D01*
X65344D01*
X65236Y6971D01*
X65139Y6915D01*
X65060Y6836D01*
X65004Y6739D01*
X64975Y6631D01*
Y6519D01*
X65004Y6411D01*
X65060Y6314D01*
X65139Y6235D01*
X65236Y6179D01*
X65344Y6150D01*
X65456D01*
X65564Y6179D01*
X65661Y6235D01*
X65740Y6314D01*
X65773Y6371D01*
X65825D01*
Y6362D01*
X66038Y6150D01*
X66462D01*
X66675Y6362D01*
Y6787D01*
X66462Y7000D01*
D02*
G37*
G36*
X64762Y11517D02*
X64754Y11515D01*
X64356D01*
Y10981D01*
X64806D01*
X69092Y6694D01*
X69075Y6631D01*
Y6519D01*
X69104Y6411D01*
X69160Y6314D01*
X69239Y6235D01*
X69336Y6179D01*
X69444Y6150D01*
X69556D01*
X69664Y6179D01*
X69761Y6235D01*
X69840Y6314D01*
X69896Y6411D01*
X69925Y6519D01*
Y6631D01*
X69896Y6739D01*
X69840Y6836D01*
X69761Y6915D01*
X69664Y6971D01*
X69556Y7000D01*
X69444D01*
X69380Y6983D01*
X65028Y11335D01*
Y11515D01*
X64770D01*
X64762Y11517D01*
D02*
G37*
G36*
X64220Y9650D02*
X63480D01*
Y8950D01*
X63912D01*
X63996Y8866D01*
Y6879D01*
X64008Y6820D01*
X63975Y6787D01*
Y6362D01*
X64187Y6150D01*
X64612D01*
X64825Y6362D01*
Y6787D01*
X64612Y7000D01*
X64404D01*
Y8950D01*
X64388Y9028D01*
X64344Y9094D01*
X64344Y9094D01*
X64220Y9218D01*
Y9650D01*
D02*
G37*
G36*
X58800Y6449D02*
X58715Y6426D01*
X58635Y6380D01*
X58570Y6315D01*
X58524Y6235D01*
X58501Y6150D01*
X58800D01*
Y6449D01*
D02*
G37*
G36*
X59876Y6104D02*
X59550D01*
Y5817D01*
X59876D01*
Y6104D01*
D02*
G37*
%LPD*%
D14*
X68800Y20500D02*
Y20600D01*
X65500Y12300D02*
Y12350D01*
D20*
X68700Y22098D02*
D03*
Y21350D02*
D03*
X68801Y31026D02*
D03*
Y30278D02*
D03*
X20199Y19374D02*
D03*
Y20122D02*
D03*
X39749Y21674D02*
D03*
Y22422D02*
D03*
X59500Y6154D02*
D03*
Y6902D02*
D03*
X44949Y38972D02*
D03*
Y38224D02*
D03*
X30901Y50228D02*
D03*
Y50976D02*
D03*
X23600Y32750D02*
D03*
Y32002D02*
D03*
X22800Y39750D02*
D03*
Y39002D02*
D03*
D21*
X21856Y42592D02*
D03*
X20950D02*
D03*
X20044D02*
D03*
D22*
X20950Y40308D02*
D03*
D23*
X63708Y10862D02*
D03*
X63710Y11620D02*
D03*
X64692Y11248D02*
D03*
D24*
X59588Y33158D02*
D03*
X58830Y33160D02*
D03*
X59202Y34142D02*
D03*
X66288Y32808D02*
D03*
X65530Y32810D02*
D03*
X65902Y33792D02*
D03*
X53138Y33408D02*
D03*
X52380Y33410D02*
D03*
X52752Y34392D02*
D03*
D25*
X65250Y39900D02*
D03*
X64350D02*
D03*
X19650Y24450D02*
D03*
X18750D02*
D03*
X63850Y9300D02*
D03*
X62950D02*
D03*
X57350Y39850D02*
D03*
X58250D02*
D03*
X45850Y27000D02*
D03*
X46750D02*
D03*
X45900Y28950D02*
D03*
X46800D02*
D03*
X40650Y25450D02*
D03*
X41550D02*
D03*
X8700Y24950D02*
D03*
X9600D02*
D03*
X13150Y22750D02*
D03*
X14050D02*
D03*
X12800Y28000D02*
D03*
X13700D02*
D03*
X11800Y43900D02*
D03*
X10900D02*
D03*
X12050Y38200D02*
D03*
X11150D02*
D03*
X57700Y36950D02*
D03*
X56800D02*
D03*
X61500Y10150D02*
D03*
X60600D02*
D03*
X57950Y31550D02*
D03*
X57050D02*
D03*
X25100Y37800D02*
D03*
X26000D02*
D03*
X57800Y9600D02*
D03*
X56900D02*
D03*
X61700Y30350D02*
D03*
X60800D02*
D03*
X47750Y32350D02*
D03*
X46850D02*
D03*
D26*
X60400Y36964D02*
D03*
Y39700D02*
D03*
X62500Y39718D02*
D03*
Y36982D02*
D03*
X52700Y36414D02*
D03*
Y39150D02*
D03*
D27*
X49500Y35391D02*
D03*
Y34209D02*
D03*
X47150Y35500D02*
D03*
Y34319D02*
D03*
X54950Y36900D02*
D03*
Y38081D02*
D03*
D28*
X47450Y38000D02*
D03*
Y38900D02*
D03*
X22500Y16450D02*
D03*
Y15550D02*
D03*
X19900Y16500D02*
D03*
Y15600D02*
D03*
X17200Y16550D02*
D03*
Y15650D02*
D03*
X18600Y26450D02*
D03*
Y27350D02*
D03*
X15750Y32000D02*
D03*
Y31100D02*
D03*
X17300Y29750D02*
D03*
Y30650D02*
D03*
X49300Y38000D02*
D03*
Y38900D02*
D03*
X61700Y32300D02*
D03*
Y33200D02*
D03*
X11550Y24200D02*
D03*
Y25100D02*
D03*
X26250Y42800D02*
D03*
Y41900D02*
D03*
X15050Y47500D02*
D03*
Y48400D02*
D03*
X26350Y46000D02*
D03*
Y45100D02*
D03*
X15700Y36700D02*
D03*
Y37600D02*
D03*
X9150Y38200D02*
D03*
Y37300D02*
D03*
X7160Y40800D02*
D03*
Y41700D02*
D03*
X9050Y40750D02*
D03*
Y41650D02*
D03*
X20900Y32950D02*
D03*
Y33850D02*
D03*
X17350Y34450D02*
D03*
Y33550D02*
D03*
X27150Y48200D02*
D03*
Y49100D02*
D03*
D29*
X29876Y24349D02*
D03*
X29128D02*
D03*
X63752Y14750D02*
D03*
X64500D02*
D03*
X19228Y37549D02*
D03*
X19976D02*
D03*
D30*
X16100Y27150D02*
D03*
Y28050D02*
D03*
D31*
X21550Y30100D02*
D03*
D32*
X22450Y27600D02*
D03*
D33*
X23350Y30100D02*
D03*
D34*
X19700Y30550D02*
D03*
Y29200D02*
D03*
D35*
X28250Y16549D02*
D03*
Y15250D02*
D03*
D36*
X64559Y37050D02*
D03*
X65741D02*
D03*
X55109Y33950D02*
D03*
X56291D02*
D03*
X68491Y36800D02*
D03*
X67309D02*
D03*
D37*
X43650Y25250D02*
D03*
X42750D02*
D03*
X25100Y48700D02*
D03*
X24200D02*
D03*
X27250Y37750D02*
D03*
X28150D02*
D03*
D38*
X23600Y45750D02*
D03*
X24000Y44750D02*
D03*
X23200D02*
D03*
X13050Y31650D02*
D03*
X13450Y30650D02*
D03*
X12650D02*
D03*
X22050Y36700D02*
D03*
X22450Y35700D02*
D03*
X21650D02*
D03*
D39*
X15950Y20400D02*
D03*
Y19900D02*
D03*
Y19400D02*
D03*
Y18900D02*
D03*
X18150D02*
D03*
Y19400D02*
D03*
Y19900D02*
D03*
Y20400D02*
D03*
D40*
X26300Y16650D02*
D03*
Y14950D02*
D03*
X7700Y47950D02*
D03*
Y46250D02*
D03*
X10700Y34050D02*
D03*
Y35750D02*
D03*
D41*
X13050Y47950D02*
D03*
Y46178D02*
D03*
D42*
X19700Y50250D02*
D03*
Y49100D02*
D03*
X14850Y33500D02*
D03*
Y34650D02*
D03*
X12550Y34300D02*
D03*
Y35450D02*
D03*
X7210Y38250D02*
D03*
Y37100D02*
D03*
D43*
X17550Y49650D02*
D03*
Y47900D02*
D03*
D44*
X10600Y48600D02*
D03*
Y45700D02*
D03*
D45*
X16100Y40900D02*
D03*
X13950D02*
D03*
D46*
X11850Y41400D02*
D03*
X11856Y41024D02*
D03*
X10756D02*
D03*
X10756Y41404D02*
D03*
X11856Y41774D02*
D03*
D47*
X10756D02*
D03*
D48*
X34508Y51206D02*
D03*
D49*
X34469Y50419D02*
D03*
Y49631D02*
D03*
Y48844D02*
D03*
Y48056D02*
D03*
Y47269D02*
D03*
Y46481D02*
D03*
Y45694D02*
D03*
X40532D02*
D03*
Y46481D02*
D03*
Y47269D02*
D03*
Y48056D02*
D03*
Y48844D02*
D03*
Y49631D02*
D03*
Y50419D02*
D03*
Y51206D02*
D03*
D101*
X23401Y7045D02*
D03*
Y19644D02*
D03*
X32850D02*
D03*
Y7050D02*
D03*
X48950Y6995D02*
D03*
X39501D02*
D03*
Y19594D02*
D03*
X48950D02*
D03*
D105*
X13850Y7550D02*
X17200Y10900D01*
Y15650D01*
X9515Y6178D02*
X12478D01*
X13850Y7550D01*
X11014Y6679D02*
Y10344D01*
X17200Y16530D01*
X9014Y6679D02*
X9515Y6178D01*
X38800Y21500D02*
Y24500D01*
X53398Y6948D02*
Y7019D01*
X35950Y27350D02*
X38800Y24500D01*
Y21500D02*
X39214Y21086D01*
X67805Y38005D02*
X68512Y38712D01*
X66037Y34438D02*
X67805Y36205D01*
Y38005D01*
X68512Y38712D02*
Y43087D01*
X18443Y19887D02*
X19799Y18531D01*
X19900Y16480D02*
Y17550D01*
X19799Y17651D02*
Y18531D01*
Y17651D02*
X19900Y17550D01*
X45900Y28950D02*
X45920D01*
X46620Y29650D01*
X48100Y29200D02*
X64000D01*
X46620Y29650D02*
X47650D01*
X48100Y29200D01*
X66583Y29540D02*
X66700Y29423D01*
X64000Y29200D02*
X64340Y29540D01*
X66583D01*
X66700Y29300D02*
Y29423D01*
X66612Y20700D02*
Y24541D01*
X67300Y25229D01*
X66612Y20700D02*
X67350Y19963D01*
X67300Y25229D02*
Y28613D01*
X66912Y21188D02*
Y22986D01*
X67350Y20750D02*
Y20750D01*
X66912Y22986D02*
X67600Y23674D01*
X66912Y21188D02*
X67350Y20750D01*
X67600Y23674D02*
Y25397D01*
X67738Y25535D01*
Y28962D01*
X67300Y29400D02*
X67738Y28962D01*
X64900Y27000D02*
X67300Y29400D01*
X47616Y27000D02*
X64900D01*
X52830Y7570D02*
X52847D01*
X51700Y8700D02*
Y9697D01*
Y8700D02*
X52830Y7570D01*
X58506Y7282D02*
X59080D01*
X58469Y7320D02*
X58506Y7282D01*
X59080D02*
X59424Y6938D01*
X60600Y9452D02*
Y10150D01*
Y9452D02*
X62934Y7117D01*
Y6861D02*
Y7117D01*
X64279Y6758D02*
Y6800D01*
X64020Y9130D02*
Y9150D01*
X63870Y9300D02*
X64020Y9150D01*
X63850Y9300D02*
X63870D01*
X64200Y6679D02*
X64279Y6758D01*
X64200Y6879D02*
X64279Y6800D01*
X64200Y6879D02*
Y8950D01*
X64020Y9130D02*
X64200Y8950D01*
X65250Y6575D02*
X66250D01*
X53398Y7215D02*
X54071Y7889D01*
X56900D01*
X53398Y6948D02*
Y7215D01*
X52847Y7570D02*
X53398Y7019D01*
X11450Y41276D02*
Y41524D01*
X11456Y40900D02*
X11500Y40856D01*
X11632Y40724D01*
X11800Y41774D02*
Y43900D01*
Y41774D02*
X11856D01*
X11756D02*
X11800D01*
X10600Y35650D02*
X10700Y35750D01*
X9750Y35650D02*
X10600D01*
X11150Y38200D02*
Y39746D01*
X10756Y41404D02*
X10856D01*
X11156Y39752D02*
Y41148D01*
X11150Y39746D02*
X11156Y39752D01*
X10051Y41404D02*
X10756D01*
X11500Y38850D02*
Y40856D01*
X11456Y41148D02*
Y41270D01*
X11456Y41148D02*
X11456Y41148D01*
X11450Y41276D02*
X11456Y41270D01*
X11450Y41524D02*
X11626Y41700D01*
X11682D01*
X11756Y41774D01*
X11456Y40900D02*
Y41148D01*
X10980Y41324D02*
X11156Y41148D01*
X10756Y39826D02*
Y41024D01*
X9150Y38220D02*
X10756Y39826D01*
X12070Y38200D02*
X14220D01*
X12070D02*
X13570Y39700D01*
X12050Y38200D02*
X12070D01*
X11856Y41024D02*
X12536D01*
X12562Y41572D02*
X12589D01*
X11850Y41400D02*
X12390D01*
X12562Y41572D01*
X11632Y40724D02*
X13774D01*
X12536Y41024D02*
X12939Y41427D01*
Y41822D02*
X13217Y42100D01*
X12939Y41427D02*
Y41822D01*
X65530Y32741D02*
Y32810D01*
X65265Y32476D02*
X65530Y32741D01*
X65265Y32307D02*
Y32476D01*
X52700Y34392D02*
Y36414D01*
X64692Y11213D02*
X64762D01*
X63257Y11943D02*
X63600Y11600D01*
X62434Y11943D02*
X63257D01*
X62317Y10947D02*
Y11826D01*
X62434Y11943D01*
X42600Y28700D02*
X44300Y27000D01*
X45850D01*
X32800Y35050D02*
Y35274D01*
X32289Y35784D02*
X32800Y35274D01*
X61520Y10150D02*
X62317Y10947D01*
X61500Y10150D02*
X61520D01*
X58400Y7389D02*
X58469Y7320D01*
X23580Y44300D02*
X25570D01*
X26300Y45030D01*
X23200Y44680D02*
X23580Y44300D01*
X34488Y51186D02*
X34508Y51206D01*
X15050Y47480D02*
Y47500D01*
X10856Y41404D02*
X10936Y41324D01*
X10980D01*
X9050Y41650D02*
X9805D01*
X10051Y41404D01*
X13217Y42100D02*
X14683D01*
X28049Y16750D02*
X28250Y16549D01*
X26550Y16750D02*
X28049D01*
X26450Y16650D02*
X26550Y16750D01*
X10756Y41774D02*
X10856D01*
X10900Y41818D01*
Y43900D01*
X65900Y33800D02*
X65937Y33837D01*
Y33944D01*
X42950Y32350D02*
X46850D01*
X42600Y32700D02*
X42950Y32350D01*
X31193Y29991D02*
Y30483D01*
X29337Y32339D02*
X31193Y30483D01*
Y29991D02*
X31305Y29879D01*
X30208Y29991D02*
X30321Y29879D01*
X29337Y31355D02*
X30208Y30483D01*
Y29991D02*
Y30483D01*
X47166Y27450D02*
X47616Y27000D01*
X46397Y27450D02*
X47166D01*
X46163Y27150D02*
X46280Y27267D01*
Y27333D02*
X46397Y27450D01*
X45850Y27000D02*
X46000Y27150D01*
X46163D01*
X46280Y27267D02*
Y27333D01*
X66037Y33944D02*
Y34438D01*
X65600Y52752D02*
X66150Y52202D01*
Y42300D02*
Y52202D01*
X60800Y41187D02*
X61250Y40737D01*
Y39145D02*
Y40737D01*
X61150Y39046D02*
X61250Y39145D01*
X61150Y37537D02*
Y39046D01*
X60577Y36964D02*
X61150Y37537D01*
X61700Y32320D02*
X64559Y35179D01*
Y37050D01*
X60400Y36964D02*
X60577D01*
X60812Y41901D02*
Y43037D01*
X60800Y41888D02*
X60812Y41901D01*
X60800Y41187D02*
Y41888D01*
X50562Y42113D02*
Y52838D01*
X50400Y53000D02*
X50562Y52838D01*
X51850Y37086D02*
Y40075D01*
X52924Y41149D01*
X51850Y37086D02*
X52523Y36414D01*
X22450Y35700D02*
Y35770D01*
X24286Y21650D02*
X29004Y26368D01*
Y26404D01*
X18139Y21650D02*
X24286D01*
X29004Y26404D02*
X29950Y27350D01*
X13170Y22750D02*
X15512Y20408D01*
X13130Y22750D02*
X13150D01*
X15512Y20408D02*
X15942D01*
X13150Y22750D02*
X13170D01*
X17550Y20636D02*
X18264Y21350D01*
X17550Y20500D02*
Y20636D01*
X16900Y20155D02*
Y20411D01*
X18139Y21650D01*
X18264Y21350D02*
X24950D01*
X16100Y21850D02*
X17750D01*
X17198Y19972D02*
X17217Y19991D01*
Y20167D02*
X17550Y20500D01*
X17217Y19991D02*
Y20167D01*
X16523Y20300D02*
X16550D01*
X16431Y20392D02*
X16523Y20300D01*
X16848Y20103D02*
X16900Y20155D01*
X16243Y18913D02*
X16848Y19518D01*
X13800Y24150D02*
X16100Y21850D01*
X24950Y21350D02*
X30950Y27350D01*
X20200Y34180D02*
X21650Y35630D01*
X20200Y33550D02*
Y34180D01*
X21650Y35630D02*
Y35700D01*
X22050Y36770D02*
X22130Y36850D01*
X22050Y36700D02*
Y36770D01*
X42796Y30195D02*
X42950Y30350D01*
X41148Y29879D02*
X42078D01*
X42395Y30195D01*
X42796D01*
X42600Y29700D02*
X45130D01*
X42950Y30350D02*
X60800D01*
X45130Y29700D02*
X45880Y28950D01*
X45900D01*
X41896Y32404D02*
X42600Y31700D01*
X41148Y33816D02*
X41896Y33067D01*
Y32404D02*
Y33067D01*
X42600Y31700D02*
Y31700D01*
X41148Y34800D02*
X42600Y33348D01*
Y32700D02*
Y33348D01*
X59727Y10250D02*
X59827Y10150D01*
X60600D01*
X59700Y10250D02*
X59727D01*
X40311Y21086D02*
X51700Y9697D01*
X39214Y21086D02*
X40311D01*
X30750Y22450D02*
X34950Y26650D01*
Y27456D01*
X56400Y7389D02*
X56900Y7889D01*
Y9600D01*
X17200Y16550D02*
Y18826D01*
Y16530D02*
Y16550D01*
X29950Y27350D02*
Y27450D01*
X20550Y24450D02*
X20600Y24500D01*
X19650Y24450D02*
X20550D01*
X11550Y24180D02*
X11661Y24069D01*
X12231D01*
X12250Y24050D01*
X15958Y20392D02*
X16431D01*
X16848Y19518D02*
Y20103D01*
X17550Y20033D02*
X17917Y20400D01*
X17550Y19176D02*
Y20033D01*
X17917Y20400D02*
X18150D01*
X15942Y20408D02*
X15958Y20392D01*
X18163Y19887D02*
X18443D01*
X15963Y18913D02*
X16243D01*
X18150Y19900D02*
X18163Y19887D01*
X15950Y18900D02*
X15963Y18913D01*
X58250Y52700D02*
X58450Y52500D01*
Y42250D02*
Y52500D01*
X65600Y52752D02*
Y52850D01*
X42575Y25450D02*
X42750Y25275D01*
X41550Y25450D02*
X42575D01*
X42750Y25250D02*
Y25275D01*
X40650Y25450D02*
Y26650D01*
X39950Y27350D02*
X40650Y26650D01*
X39950Y27350D02*
Y27456D01*
X40163Y27669D01*
Y29879D01*
X40950Y27350D02*
X41148Y27548D01*
Y29879D01*
X58700Y32280D02*
Y33310D01*
X57970Y31550D02*
X58700Y32280D01*
X57950Y31550D02*
X57970D01*
X49535Y32350D02*
X50535Y33350D01*
X47750Y32350D02*
X49535D01*
X50535Y33350D02*
X52400D01*
X53000Y47703D02*
Y47786D01*
X52405Y48381D02*
Y53000D01*
Y48381D02*
X53000Y47786D01*
X48200Y52800D02*
X48400Y53000D01*
X48200Y47703D02*
Y52800D01*
X60255Y52602D02*
X60888Y51969D01*
Y47841D02*
Y51969D01*
X60255Y52602D02*
Y52700D01*
X56088Y52538D02*
X56250Y52700D01*
X56088Y47841D02*
Y52538D01*
X52523Y36414D02*
X52700D01*
X52924Y41149D02*
Y42900D01*
X59200Y34197D02*
X60400Y35397D01*
Y36964D01*
X49300Y35586D02*
X49495Y35391D01*
X49500D01*
X49300Y35586D02*
Y38000D01*
X56291Y33950D02*
Y36461D01*
X56780Y36950D01*
X56800D01*
X47450Y35695D02*
Y38000D01*
X47255Y35500D02*
X47450Y35695D01*
X47150Y35500D02*
X47255D01*
X57200Y39700D02*
X57350Y39850D01*
X56785Y39700D02*
X57200D01*
X55167Y38081D02*
X56785Y39700D01*
X54950Y38081D02*
X55167D01*
X42706Y31700D02*
X42856Y31550D01*
X57050D01*
X31950Y27350D02*
Y27456D01*
X32289Y27795D01*
Y29879D01*
X32050Y36183D02*
Y38750D01*
X32289Y35784D02*
Y35943D01*
X32050Y36183D02*
X32289Y35943D01*
X12820Y28000D02*
X16370Y24450D01*
X18750D01*
X12800Y28000D02*
X12820D01*
X12725Y28075D02*
Y30575D01*
X12650Y30650D02*
X12725Y30575D01*
Y28075D02*
X12800Y28000D01*
X63308Y30350D02*
X65265Y32307D01*
X61700Y30350D02*
X63308D01*
X64762Y11313D02*
X69500Y6575D01*
X67250D02*
X68500D01*
X18600Y26450D02*
Y26470D01*
X16100Y27150D02*
X17920D01*
X18600Y26470D01*
X25100Y48700D02*
X26770D01*
X27150Y49080D01*
Y49100D01*
X27225Y37775D02*
X27250Y37750D01*
X26000Y37800D02*
X26025Y37775D01*
X27225D01*
X38195Y27701D02*
Y29879D01*
X37950Y27456D02*
X38195Y27701D01*
X37950Y27350D02*
Y27456D01*
X34950D02*
X35242Y27748D01*
Y29879D01*
X36950Y27350D02*
Y27456D01*
X37211Y27716D02*
Y29879D01*
X36950Y27456D02*
X37211Y27716D01*
X36226Y27732D02*
Y29879D01*
X35950Y27456D02*
X36226Y27732D01*
X35950Y27350D02*
Y27456D01*
X30050Y37538D02*
Y38750D01*
Y37538D02*
X30321Y37267D01*
Y35784D02*
Y37267D01*
X17200Y18826D02*
X17550Y19176D01*
X57700Y36950D02*
X57731Y36919D01*
X34258Y35784D02*
Y35943D01*
X34050Y36151D02*
Y38750D01*
Y36151D02*
X34258Y35943D01*
X20200Y33550D02*
X20320D01*
X17350D02*
X20200D01*
X20900Y32950D02*
Y32970D01*
X20320Y33550D02*
X20900Y32970D01*
X67605Y52752D02*
X68588Y51769D01*
Y47891D02*
Y51769D01*
X67605Y52752D02*
Y52850D01*
X63788Y47891D02*
Y52662D01*
X63600Y52850D02*
X63788Y52662D01*
X61700Y32300D02*
Y32320D01*
X65830Y34034D02*
X65911D01*
X65245Y34619D02*
X65830Y34034D01*
X65245Y34619D02*
Y37454D01*
X64938Y37762D02*
X65245Y37454D01*
X63289Y36370D02*
X63455D01*
X63818Y36733D02*
Y37399D01*
X64181Y37762D02*
X64938D01*
X62677Y36982D02*
X63289Y36370D01*
X63455D02*
X63818Y36733D01*
Y37399D02*
X64181Y37762D01*
X62500Y36982D02*
X62677D01*
X65911Y34034D02*
X66000Y33944D01*
X67309Y36800D02*
Y37017D01*
X65250Y39076D02*
Y39900D01*
Y39076D02*
X67309Y37017D01*
X20967Y29200D02*
X21167Y29400D01*
X23350Y29780D02*
Y30100D01*
X19700Y29200D02*
X20967D01*
X21167Y29400D02*
X22970D01*
X23350Y29780D01*
X17300Y30630D02*
Y30650D01*
Y30630D02*
X18730Y29200D01*
X19700D01*
X16870Y31100D02*
X17300Y30670D01*
X15750Y31100D02*
X16870D01*
X17300Y30650D02*
Y30670D01*
X13570Y39700D02*
X14683D01*
X14800Y39817D01*
Y41983D01*
X14683Y42100D02*
X14800Y41983D01*
X14220Y38200D02*
X15700Y36720D01*
Y36700D02*
Y36720D01*
X13774Y40724D02*
X13950Y40900D01*
X7260Y38200D02*
X9130D01*
X9138Y38192D01*
X7210Y38250D02*
X7260Y38200D01*
X9150D02*
Y38220D01*
X7185Y40775D02*
X9025D01*
X9050Y40750D01*
X7160Y40800D02*
X7185Y40775D01*
X7160Y38300D02*
Y40800D01*
Y38300D02*
X7210Y38250D01*
X12021Y18900D02*
X15950D01*
X8014Y22907D02*
X12021Y18900D01*
X8014Y22907D02*
X8700Y23593D01*
Y24950D01*
X29950Y27450D02*
X30321Y27821D01*
Y29879D01*
X12973Y22907D02*
X13130Y22750D01*
X11014Y22907D02*
X12973D01*
X30950Y27350D02*
Y27456D01*
X31305Y27811D01*
Y29879D01*
X33950Y27456D02*
X34258Y27764D01*
Y29879D01*
X33950Y27350D02*
Y27456D01*
X15950Y19400D02*
Y19900D01*
X13021D02*
X15950D01*
X10014Y22907D02*
X13021Y19900D01*
X9014Y22907D02*
X10014D01*
X10641Y23534D02*
X10904D01*
X10014Y22907D02*
X10641Y23534D01*
X10904D02*
X11550Y24180D01*
X31000Y48450D02*
X31550Y49000D01*
X32400D01*
X36125Y35886D02*
X36226Y35784D01*
X36125Y35886D02*
Y38675D01*
X32506Y49000D02*
X32662Y48844D01*
X34469D01*
X32400Y49000D02*
X32506D01*
X31000Y44600D02*
Y48450D01*
X36050Y38750D02*
Y39550D01*
Y38750D02*
X36125Y38675D01*
X31000Y44600D02*
X36050Y39550D01*
X15850Y7550D02*
X20850Y12550D01*
X20050Y16330D02*
X20070D01*
X19900Y16480D02*
X20050Y16330D01*
X20850Y12550D02*
Y15550D01*
X22500D01*
X20070Y16330D02*
X20850Y15550D01*
X17200Y15650D02*
X17225Y15625D01*
X17200Y15650D02*
Y15670D01*
X17225Y15625D02*
X19875D01*
X19900Y15600D01*
X17200Y15670D02*
X18750Y17220D01*
X18430Y19400D02*
X18750Y19080D01*
Y17220D02*
Y19080D01*
X18150Y19400D02*
X18430D01*
X38950Y27350D02*
Y27456D01*
X39179Y27685D02*
Y29879D01*
X38950Y27456D02*
X39179Y27685D01*
X26300Y42850D02*
Y45030D01*
Y45050D01*
X23200Y44680D02*
Y44750D01*
X26300Y45050D02*
X26350Y45100D01*
X26250Y42800D02*
X26300Y42850D01*
X45283Y50000D02*
X45450Y49833D01*
Y44150D02*
Y49833D01*
X43150Y50000D02*
X45283D01*
X40050Y38750D02*
X45450Y44150D01*
X40107Y35841D02*
Y38693D01*
Y35841D02*
X40163Y35784D01*
X40050Y38750D02*
X40107Y38693D01*
X40532Y49631D02*
X42677D01*
X43046Y50000D01*
X43150D01*
Y49000D02*
X44533D01*
X44700Y48833D01*
Y44400D02*
Y48833D01*
X39050Y38750D02*
X44700Y44400D01*
X39115Y35849D02*
Y38685D01*
X39050Y38750D02*
X39115Y38685D01*
Y35849D02*
X39179Y35784D01*
X40532Y48844D02*
X42888D01*
X43044Y49000D01*
X43150D01*
X31500Y44600D02*
Y47700D01*
X31800Y48000D01*
X31500Y44600D02*
X36350Y39750D01*
X31800Y48000D02*
X32400D01*
X32428Y48028D01*
X34440D01*
X34469Y48056D01*
X37125Y35870D02*
Y38675D01*
X37050Y38750D02*
X37125Y38675D01*
Y35870D02*
X37211Y35784D01*
X34764Y48056D02*
X34880Y47940D01*
X34469Y48056D02*
X34764D01*
X36350Y39450D02*
X37050Y38750D01*
X36350Y39450D02*
Y39750D01*
X43725Y48075D02*
X43750Y48100D01*
X43150Y48000D02*
X43225Y48075D01*
X43725D01*
X43750Y48100D02*
X44000Y47850D01*
Y44700D02*
Y47850D01*
X38050Y38750D02*
X44000Y44700D01*
X38050Y38750D02*
X38122Y38678D01*
Y35857D02*
Y38678D01*
Y35857D02*
X38195Y35784D01*
X40532Y48056D02*
X40560Y48028D01*
X43122D01*
X43150Y48000D01*
X45800Y51000D02*
X46150Y50650D01*
X43150Y51000D02*
X45800D01*
X41050Y38750D02*
X46150Y43850D01*
Y50650D01*
X41099Y35833D02*
X41148Y35784D01*
X41050Y38750D02*
X41099Y38701D01*
Y35833D02*
Y38701D01*
X40532Y50419D02*
X42568D01*
X43150Y51000D01*
X35050Y36135D02*
X35242Y35943D01*
X35050Y36135D02*
Y38750D01*
X35242Y35784D02*
Y35943D01*
X31900Y41900D02*
X35050Y38750D01*
X26250Y41900D02*
X31900D01*
X33274Y35784D02*
Y35943D01*
X33050Y36167D02*
X33274Y35943D01*
X33050Y36167D02*
Y38750D01*
X12550Y34175D02*
X12750Y33975D01*
X31305Y35784D02*
Y35943D01*
X31050Y36198D02*
X31305Y35943D01*
X31050Y36198D02*
Y38750D01*
D106*
X20584Y39002D02*
X26947D01*
X65450Y12350D02*
X65500Y12300D01*
X55109Y33733D02*
Y34167D01*
X68491Y34891D02*
Y37017D01*
X41378Y22565D02*
X42789D01*
X42996Y23065D02*
X43090Y22971D01*
X42873Y23139D02*
X42947Y23065D01*
X43090Y22971D02*
X43421D01*
X42947Y23065D02*
X42996D01*
X42789Y22565D02*
X43350Y22004D01*
X43421Y22971D02*
X44250Y23800D01*
X43350Y21950D02*
X46750Y25350D01*
X41235Y22422D02*
X41378Y22565D01*
X43350Y21950D02*
Y22004D01*
X39709Y22422D02*
X39749D01*
X42350Y20950D02*
X42850Y20450D01*
X42074Y21674D02*
X42350Y21950D01*
X39369Y22762D02*
Y23081D01*
X39749Y21674D02*
X42074D01*
X42350Y20950D02*
Y21950D01*
X39369Y22762D02*
X39709Y22422D01*
X39350Y23100D02*
X39369Y23081D01*
X39749Y22422D02*
X41235D01*
X69700Y22050D02*
Y30100D01*
Y20250D02*
Y22050D01*
X68700Y22098D02*
X69652D01*
X69700Y22050D01*
X68950Y37476D02*
Y37500D01*
X68491Y37017D02*
X68950Y37476D01*
X19976Y37509D02*
X20485Y37000D01*
X20500D01*
X19976Y37509D02*
Y37549D01*
X11220Y37807D02*
X11400Y37627D01*
X11220Y37807D02*
Y38150D01*
X11400Y37600D02*
Y37627D01*
X9150Y37300D02*
X10825D01*
X12550Y35450D02*
Y35575D01*
X10825Y37300D02*
X12550Y35575D01*
X20199Y18651D02*
Y19374D01*
Y18651D02*
X20250Y18600D01*
X18119Y18869D02*
X18150Y18900D01*
X18119Y18319D02*
Y18869D01*
X18100Y18300D02*
X18119Y18319D01*
X60250Y32450D02*
Y32492D01*
X59588Y33154D02*
Y33158D01*
Y33154D02*
X60250Y32492D01*
X66444Y32844D02*
X68491Y34891D01*
X66444Y32844D02*
X66944D01*
X13050Y46178D02*
X14042Y45186D01*
X14123D01*
X67350Y21537D02*
X68473D01*
X68700Y21350D02*
X68739D01*
X68800Y20600D02*
Y21250D01*
X67350Y22325D02*
X68434D01*
X68739Y21350D02*
X68776Y21314D01*
X68661Y22098D02*
X68700D01*
X68776Y21274D02*
X68800Y21250D01*
X68776Y21274D02*
Y21314D01*
X68434Y22325D02*
X68661Y22098D01*
X65550Y16150D02*
X68980Y19580D01*
X69005Y19555D01*
X69700Y20250D01*
Y30100D02*
Y43172D01*
X64050Y16150D02*
X65550D01*
X67300Y30187D02*
X68672D01*
X68762Y30278D02*
X68801D01*
X68672Y30187D02*
X68762Y30278D01*
X68801D02*
X69522D01*
X67300Y30975D02*
X68711D01*
X68762Y31026D01*
X69522Y30278D02*
X69700Y30100D01*
X66944Y32844D02*
X68762Y31026D01*
X47450Y38900D02*
Y41953D01*
X52764Y6245D02*
X53009Y6000D01*
X52764Y6245D02*
Y6335D01*
X53009Y6000D02*
X56985D01*
X52507Y6592D02*
X52764Y6335D01*
X56985Y6000D02*
X58374Y7389D01*
X64523Y10050D02*
X64800D01*
X63708Y10862D02*
X63711D01*
X64523Y10050D01*
X58867Y6117D02*
X59464D01*
X58850Y6100D02*
X58867Y6117D01*
X59464D02*
X59500Y6154D01*
X59885Y6865D02*
X60681Y6069D01*
X59536Y6865D02*
X59885D01*
X60681Y6069D02*
X61394D01*
X59500Y6902D02*
X59536Y6865D01*
X61394Y6069D02*
X61950Y6625D01*
Y6861D01*
X61450Y7621D02*
Y7850D01*
X60966Y7137D02*
X61450Y7621D01*
X60966Y6861D02*
Y7137D01*
X52349Y6592D02*
X52507D01*
X44150Y39100D02*
X47250D01*
X29164Y24346D02*
Y24837D01*
X27865Y23047D02*
X29164Y24346D01*
X18270Y20400D02*
X19882D01*
X20350Y37962D02*
Y38768D01*
X19976Y37549D02*
X20012Y37585D01*
Y37624D01*
X20350Y37962D01*
Y38768D02*
X20584Y39002D01*
X21856Y42592D02*
Y46331D01*
X20950Y40314D02*
Y42592D01*
X17909Y40900D02*
X18379Y40429D01*
X20044Y42322D02*
Y42592D01*
X18379Y40429D02*
Y40657D01*
X20044Y42322D01*
X21856Y46331D02*
X24200Y48675D01*
Y48700D01*
X20950Y40314D02*
X21256Y40008D01*
X18379Y40429D02*
X19228Y39581D01*
X14750Y33725D02*
X14850Y33625D01*
X12850Y35025D02*
X12975D01*
X12550Y35325D02*
X12850Y35025D01*
X12975D02*
X13200Y34800D01*
X14750D02*
X14850Y34700D01*
X14025Y33725D02*
X14750D01*
X13200Y34800D02*
X14750D01*
X14850Y34650D02*
Y34700D01*
X12550Y34300D02*
X13450D01*
X14850Y33500D02*
Y33625D01*
X13450Y34300D02*
X14025Y33725D01*
X14850Y34650D02*
X17170D01*
X10700Y34050D02*
X12425D01*
X12550Y34175D01*
X53138Y33408D02*
X53174Y33352D01*
X53550Y32350D02*
X53591Y32535D01*
X53174Y33352D02*
X53591Y32696D01*
Y32535D02*
Y32696D01*
X53138Y33408D02*
X54784D01*
X55109Y33733D01*
X62950Y11000D02*
X63150Y11200D01*
X62950Y9300D02*
Y11000D01*
X15587Y53887D02*
X15700Y54000D01*
X12790Y50490D02*
X15587Y53287D01*
Y53887D01*
X13837Y53827D02*
Y53827D01*
X12961Y52950D02*
X13837Y53827D01*
X9250Y50490D02*
X12790D01*
X24000Y44750D02*
X24750D01*
X44400Y25250D02*
X44450Y25200D01*
X44500D01*
X43650Y25250D02*
X44400D01*
X33274Y33816D02*
X34258Y32831D01*
X41148D01*
X31305Y35784D02*
X33274Y33816D01*
Y29879D02*
Y33816D01*
X41222Y32078D02*
X42600Y30700D01*
X41148Y32831D02*
X41222Y32757D01*
Y32078D02*
Y32757D01*
X32950Y29450D02*
X33274Y29774D01*
Y29879D01*
X32950Y27350D02*
Y29450D01*
X29876Y24388D02*
X31344Y25856D01*
X31456D01*
X29876Y24349D02*
Y24388D01*
X31456Y25856D02*
X32950Y27350D01*
X29750Y24184D02*
X29876Y24309D01*
Y24349D01*
X29750Y22450D02*
Y24184D01*
X28750Y19306D02*
X28885Y19172D01*
Y15885D02*
Y19172D01*
X28250Y15250D02*
X28885Y15885D01*
X28750Y19306D02*
Y22450D01*
X29750D01*
X25250Y14950D02*
X26300D01*
X17850Y7550D02*
X25250Y14950D01*
X25770Y15700D02*
X26824D01*
X25070Y16400D02*
X25770Y15700D01*
X22550Y16400D02*
X25070D01*
X22500Y16450D02*
X22550Y16400D01*
X26824Y15700D02*
X27274Y15250D01*
X28250D01*
X20238Y19374D02*
X22450Y17162D01*
Y16500D02*
Y17162D01*
Y16500D02*
X22500Y16450D01*
X20199Y19374D02*
X20238D01*
X63150Y12450D02*
X63752Y13052D01*
Y14750D01*
X58374Y7389D02*
X58400D01*
Y7486D01*
X57800Y8086D02*
Y9600D01*
Y8086D02*
X58400Y7486D01*
X58469Y7320D02*
X59082D01*
X59100Y7302D01*
X59424Y6977D01*
Y6938D02*
X59461Y6902D01*
X59424Y6938D02*
Y6977D01*
X59461Y6902D02*
X59500D01*
X59100Y7302D02*
Y11650D01*
X62200Y14750D01*
X63752D01*
X64391Y12350D02*
X65450D01*
X64200D02*
X64391D01*
X64500Y12459D01*
Y14750D01*
X65836Y36214D02*
X66150Y35900D01*
X65741Y37050D02*
X65836Y36955D01*
Y36214D02*
Y36955D01*
X54950Y34326D02*
Y36900D01*
Y34326D02*
X55109Y34167D01*
X49500Y34209D02*
X50691D01*
X50700Y34200D01*
X49174Y34319D02*
X49283Y34209D01*
X49500D01*
X47150Y34319D02*
X49174D01*
X44949Y36304D02*
Y38224D01*
Y36304D02*
X46933Y34319D01*
X47150D01*
X40532Y45694D02*
X42456D01*
X43150Y45000D01*
X42356Y51206D02*
X43150Y52000D01*
X40532Y51206D02*
X42356D01*
X34472Y50419D02*
X37115D01*
X34469D02*
X34472D01*
X37115D02*
X37902Y51206D01*
X40532D01*
X33357Y49648D02*
X34452D01*
X34469Y49631D01*
X32400Y50000D02*
X32436Y49964D01*
X33041D01*
X33357Y49648D01*
X30901Y50228D02*
X32121D01*
X32348Y50000D01*
X32400D01*
X27186Y48236D02*
X28000D01*
X29992Y50228D01*
X30901D01*
X27150Y48200D02*
X27186Y48236D01*
X27150Y48180D02*
Y48200D01*
X23600Y45750D02*
X24720D01*
X27150Y48180D01*
X24750Y44750D02*
X25930Y45930D01*
X26300D01*
X26350Y45980D01*
X22502Y40008D02*
X22761Y39750D01*
X22800D01*
X21256Y40008D02*
X22502D01*
X22931Y39881D02*
Y40481D01*
X22950Y40500D01*
X22800Y39750D02*
X22839D01*
X22876Y39786D01*
Y39826D01*
X22931Y39881D01*
X26350Y45980D02*
Y46000D01*
X23639Y32002D02*
X24491Y31150D01*
X23600Y32002D02*
X23639D01*
X24491Y31150D02*
X24550D01*
X34488Y50435D02*
Y51186D01*
X34472Y50419D02*
X34488Y50435D01*
X34173Y51206D02*
X34508D01*
X32400Y51000D02*
X33967D01*
X34173Y51206D01*
X32388Y50988D02*
X32400Y51000D01*
X30901Y50976D02*
X30913Y50988D01*
X32388D01*
X32400Y51000D02*
Y52000D01*
X24200Y51250D02*
Y51300D01*
Y48700D02*
Y51250D01*
X24474Y50976D02*
X30901D01*
X24200Y51250D02*
X24474Y50976D01*
X23050Y52450D02*
X24200Y51300D01*
X9250Y52950D02*
X12961D01*
X20850Y50250D02*
X23050Y52450D01*
X19700Y50250D02*
X20850D01*
X17300Y49400D02*
X17550Y49650D01*
X16769Y49400D02*
X17300D01*
X19600Y50025D02*
X19700Y50125D01*
X19476Y50025D02*
X19600D01*
X16851Y48775D02*
X18249D01*
X19700Y50125D02*
Y50250D01*
X16550Y48474D02*
X16851Y48775D01*
X16550Y48150D02*
Y48474D01*
X15900Y47500D02*
X16550Y48150D01*
X15050Y47500D02*
X15900D01*
X18863Y49412D02*
X19476Y50025D01*
X16050Y48681D02*
X16769Y49400D01*
X18863Y49388D02*
Y49412D01*
X16050Y48634D02*
Y48681D01*
X15050Y48400D02*
X15816D01*
X16050Y48634D01*
X18249Y48775D02*
X18863Y49388D01*
X13303Y46431D02*
X14001D01*
X15050Y47480D01*
X13050Y46178D02*
X13303Y46431D01*
X11150Y38200D02*
X11170D01*
X11220Y38150D01*
X7185Y41675D02*
X9025D01*
X7160Y41700D02*
X7185Y41675D01*
X9025D02*
X9050Y41650D01*
X16850Y28350D02*
Y28400D01*
X16600Y28100D02*
X16850Y28350D01*
X16100Y28050D02*
X16150Y28100D01*
X16600D01*
X13725Y28025D02*
X16075D01*
X13700Y28000D02*
X13725Y28025D01*
X16075D02*
X16100Y28050D01*
X13450Y28230D02*
Y30650D01*
Y28230D02*
X13680Y28000D01*
X13700D01*
X14650Y32400D02*
X14850Y32600D01*
Y33500D01*
X30089Y35021D02*
X30542D01*
X31305Y35784D01*
X29337Y34308D02*
X29376D01*
X30089Y35021D01*
X29337Y35292D02*
Y36538D01*
Y34308D02*
Y35292D01*
X28150Y37725D02*
Y37750D01*
Y37725D02*
X29337Y36538D01*
X28100Y37800D02*
X28150Y37750D01*
X28100Y37800D02*
Y37849D01*
X26947Y39002D02*
X28100Y37849D01*
X25170Y38045D02*
X25550Y38425D01*
X25170Y37850D02*
Y38045D01*
X25550Y38425D02*
Y38452D01*
X17450Y42950D02*
X23050Y48550D01*
Y50950D01*
X17355Y43045D02*
X17450Y42950D01*
X25200Y16950D02*
X25227D01*
X26300Y16650D02*
Y16677D01*
X25227Y16950D02*
X25300Y16877D01*
X26100D01*
X26300Y16677D01*
X16100Y40900D02*
X17909D01*
X19228Y37549D02*
Y39581D01*
X18750Y48150D02*
X19475Y48875D01*
X17800Y48150D02*
X18750D01*
X17550Y47900D02*
X17800Y48150D01*
X19700Y48975D02*
Y49100D01*
X19600Y48875D02*
X19700Y48975D01*
X19475Y48875D02*
X19600D01*
X21200Y49100D02*
X23050Y50950D01*
X19700Y49100D02*
X21200D01*
X14103Y47950D02*
X14483Y48330D01*
X13050Y47950D02*
X14103D01*
X14483Y48330D02*
X15000D01*
X15050Y48380D01*
Y48400D01*
X10600Y48600D02*
X12400D01*
X13050Y47950D01*
X9825Y46250D02*
X10375Y45700D01*
X7700Y46250D02*
X9825D01*
X10375Y45700D02*
X10600D01*
X46800Y28950D02*
X46820D01*
X47251Y28519D01*
X47431D01*
X47450Y28500D01*
X46750Y27000D02*
X46770D01*
X47201Y26569D02*
X47481D01*
X47500Y26550D01*
X46770Y27000D02*
X47201Y26569D01*
X46750Y25350D02*
Y27000D01*
X63752Y14750D02*
Y15852D01*
X64050Y16150D01*
X67331Y43179D02*
X68210Y44058D01*
X68814D01*
X69700Y43172D01*
X66523Y41400D02*
X67331Y42208D01*
Y43179D01*
X65475Y41400D02*
X66523D01*
X63788Y43087D02*
X65475Y41400D01*
X58250Y40875D02*
X58348D01*
X59631Y42158D01*
Y43129D01*
X60439Y43937D01*
X62430Y43087D02*
X63788D01*
X61580Y43937D02*
X62430Y43087D01*
X60439Y43937D02*
X61580D01*
X58250Y39850D02*
Y40875D01*
X56088Y43037D02*
X58250Y40875D01*
X55916Y43037D02*
X56088D01*
X55153Y43800D02*
X55916Y43037D01*
X52552Y43800D02*
X55153D01*
X51743Y42992D02*
X52552Y43800D01*
X51743Y42021D02*
Y42992D01*
X50935Y41213D02*
X51743Y42021D01*
X49887Y41213D02*
X50935D01*
X48200Y42900D02*
X49887Y41213D01*
X61700Y33200D02*
Y35393D01*
X62323Y39718D02*
X62500D01*
X62050Y39446D02*
X62323Y39718D01*
X61550Y37665D02*
X62050Y38165D01*
X61550Y35543D02*
Y37665D01*
Y35543D02*
X61700Y35393D01*
X62050Y38165D02*
Y39446D01*
X62500Y39718D02*
X64148D01*
X64330Y39900D01*
X63788Y40442D02*
Y43087D01*
Y40442D02*
X64330Y39900D01*
X57720Y36950D02*
X58250Y37480D01*
Y39850D01*
X60300Y39800D02*
X60400Y39700D01*
X58250Y39850D02*
X58300Y39800D01*
X60300D01*
X47450Y41953D02*
X48200Y42703D01*
Y42900D01*
X52500Y38950D02*
X52700Y39150D01*
X52500Y38250D02*
Y38950D01*
X50900Y38900D02*
X51150Y39150D01*
X49300Y38900D02*
X50900D01*
X47450D02*
X49300D01*
X25100Y37800D02*
X25120D01*
X25170Y37850D01*
X22250Y34800D02*
X23600Y33450D01*
Y32750D02*
Y33450D01*
X22430Y35007D02*
Y35680D01*
X29164Y24837D02*
X29350Y25023D01*
Y25050D01*
X27150Y27300D02*
X28000Y26450D01*
Y26000D02*
Y26450D01*
X25277Y32750D02*
X25327Y32700D01*
X28608D01*
X29232Y33324D01*
X29337D01*
X23600Y32750D02*
X25277D01*
X25100Y34850D02*
Y37800D01*
Y34850D02*
X26700Y33250D01*
X27865Y22565D02*
Y23047D01*
X27750Y22450D02*
X27865Y22565D01*
X14059Y22750D02*
X14070D01*
X14050D02*
X14059D01*
X14651Y22169D02*
X14731D01*
X14750Y22150D01*
X14070Y22750D02*
X14651Y22169D01*
X18350Y20480D02*
Y20800D01*
X18150Y20400D02*
X18270D01*
X18350Y20480D01*
X19882Y20400D02*
X20159Y20122D01*
X20199D01*
X20235Y20159D01*
X20541D01*
X21333Y20950D02*
X26250D01*
X20541Y20159D02*
X21333Y20950D01*
X26250D02*
X27750Y22450D01*
X23980Y36700D02*
X25080Y37800D01*
X22050Y36700D02*
X23980D01*
X25080Y37800D02*
X25100D01*
X22430Y35680D02*
X22450Y35700D01*
X19264Y37086D02*
X20850Y35500D01*
X19228Y37549D02*
X19264Y37512D01*
Y37086D02*
Y37512D01*
X26300Y16650D02*
X26450D01*
X22450Y23650D02*
Y27600D01*
Y23650D02*
X24000Y22100D01*
X22200Y27350D02*
X22450Y27600D01*
X18600Y27350D02*
X22200D01*
X12220Y25030D02*
X14109Y23141D01*
X11550Y25080D02*
X11600Y25030D01*
X14109Y22800D02*
Y23141D01*
X11600Y25030D02*
X12220D01*
X14059Y22750D02*
X14109Y22800D01*
X9600Y24950D02*
X11420D01*
X11550Y25080D01*
Y25100D01*
X7700Y49412D02*
X8778Y50490D01*
X7700Y47950D02*
Y49412D01*
X8778Y50490D02*
X9250D01*
X15750Y32000D02*
Y32020D01*
Y32000D02*
X18250D01*
X16261Y32531D02*
X16431D01*
X15700Y37600D02*
X16650D01*
X15750Y32020D02*
X16261Y32531D01*
X16431D02*
X16450Y32550D01*
X18250Y32000D02*
X19700Y30550D01*
X21550Y30100D02*
Y30380D01*
X21380Y30550D02*
X21550Y30380D01*
X19700Y30550D02*
X21380D01*
X17350Y34450D02*
Y34470D01*
X17170Y34650D02*
X17350Y34470D01*
X7210Y37100D02*
X8970D01*
X12550Y35325D02*
Y35450D01*
X15394D01*
X17493Y37549D02*
X19228D01*
X15394Y35450D02*
X17493Y37549D01*
D107*
X20900Y33850D02*
X22100D01*
X16157Y29750D02*
X17300D01*
X14258Y31650D02*
X16157Y29750D01*
X13050Y31650D02*
X14258D01*
D108*
X13700Y54000D02*
D03*
X15700D02*
D03*
X13850Y7550D02*
D03*
X15850D02*
D03*
X17850D02*
D03*
X19850D02*
D03*
D109*
X67350Y19963D02*
D03*
Y20750D02*
D03*
Y21537D02*
D03*
X67300Y28613D02*
D03*
Y29400D02*
D03*
Y30187D02*
D03*
D110*
X67350Y22325D02*
D03*
X67300Y30975D02*
D03*
D111*
X60966Y6861D02*
D03*
X61950D02*
D03*
X51332D02*
D03*
X52316D02*
D03*
D112*
X62934D02*
D03*
X53300D02*
D03*
D113*
X67605Y52850D02*
D03*
X63600D02*
D03*
X65600D02*
D03*
X58250Y52700D02*
D03*
X56250D02*
D03*
X60255D02*
D03*
X52405Y53000D02*
D03*
X48400D02*
D03*
X50400D02*
D03*
D114*
X43350Y21950D02*
D03*
X44350D02*
D03*
X29750Y22450D02*
D03*
X28750D02*
D03*
X30750D02*
D03*
X31750D02*
D03*
X32750D02*
D03*
D115*
X42350Y21950D02*
D03*
X27750Y22450D02*
D03*
D116*
X9250Y50490D02*
D03*
Y52950D02*
D03*
D117*
X7360Y51670D02*
D03*
D118*
X52924Y42900D02*
D03*
X48200D02*
D03*
X53000Y47703D02*
D03*
X48200D02*
D03*
X50562Y42113D02*
D03*
X60812Y43037D02*
D03*
X56088D02*
D03*
X60888Y47841D02*
D03*
X56088D02*
D03*
X58450Y42250D02*
D03*
X68512Y43087D02*
D03*
X63788D02*
D03*
X68588Y47891D02*
D03*
X63788D02*
D03*
X66150Y42300D02*
D03*
D119*
X58400Y7389D02*
D03*
X57400D02*
D03*
X56400D02*
D03*
D120*
X9014Y6679D02*
D03*
X10014D02*
D03*
X11014D02*
D03*
X9014Y22907D02*
D03*
X10014D02*
D03*
X11014D02*
D03*
X8014D02*
D03*
D121*
Y6679D02*
D03*
D122*
X23050Y52450D02*
D03*
Y50950D02*
D03*
D123*
X30321Y35784D02*
D03*
Y29879D02*
D03*
X31305D02*
D03*
X32289D02*
D03*
X33274D02*
D03*
X34258D02*
D03*
X35242D02*
D03*
X36226D02*
D03*
X37211D02*
D03*
X38195D02*
D03*
X39179D02*
D03*
X40163D02*
D03*
X41148D02*
D03*
Y35784D02*
D03*
X40163D02*
D03*
X39179D02*
D03*
X38195D02*
D03*
X37211D02*
D03*
X36226D02*
D03*
X35242D02*
D03*
X34258D02*
D03*
X33274D02*
D03*
X32289D02*
D03*
X31305D02*
D03*
X41148Y34800D02*
D03*
Y33816D02*
D03*
Y32831D02*
D03*
X33766Y34800D02*
D03*
X34750D02*
D03*
X29337Y30371D02*
D03*
Y31355D02*
D03*
Y32339D02*
D03*
Y33324D02*
D03*
Y34308D02*
D03*
Y35292D02*
D03*
D124*
X29950Y27350D02*
D03*
X30950D02*
D03*
X31950D02*
D03*
X32950D02*
D03*
X33950D02*
D03*
X34950D02*
D03*
X35950D02*
D03*
X36950D02*
D03*
X37950D02*
D03*
X38950D02*
D03*
X39950D02*
D03*
X41050Y38750D02*
D03*
X40050D02*
D03*
X39050D02*
D03*
X38050D02*
D03*
X37050D02*
D03*
X36050D02*
D03*
X35050D02*
D03*
X34050D02*
D03*
X33050D02*
D03*
X32050D02*
D03*
X31050D02*
D03*
X42600Y28700D02*
D03*
Y29700D02*
D03*
Y30700D02*
D03*
Y31700D02*
D03*
X43150Y51000D02*
D03*
Y50000D02*
D03*
Y49000D02*
D03*
Y48000D02*
D03*
Y47000D02*
D03*
Y46000D02*
D03*
Y45000D02*
D03*
X32400Y52000D02*
D03*
Y51000D02*
D03*
Y50000D02*
D03*
Y49000D02*
D03*
Y48000D02*
D03*
Y47000D02*
D03*
Y46000D02*
D03*
D125*
X40950Y27350D02*
D03*
X30050Y38750D02*
D03*
D126*
X42600Y32700D02*
D03*
X43150Y52000D02*
D03*
X32400Y45000D02*
D03*
D127*
X65400Y6575D02*
D03*
X67250D02*
D03*
X69500D02*
D03*
D128*
X64400D02*
D03*
X66250D02*
D03*
X68500D02*
D03*
D129*
X42873Y23139D02*
D03*
X39350Y23100D02*
D03*
X44250Y23800D02*
D03*
X42850Y20450D02*
D03*
X68950Y37500D02*
D03*
X20500Y37000D02*
D03*
X11400Y37600D02*
D03*
X20250Y18600D02*
D03*
X60250Y32450D02*
D03*
X14123Y45186D02*
D03*
X68800Y20500D02*
D03*
X64800Y10050D02*
D03*
X58850Y6100D02*
D03*
X61450Y7850D02*
D03*
X63150Y11200D02*
D03*
X44500Y25200D02*
D03*
X18100Y18300D02*
D03*
X63150Y12450D02*
D03*
X65500Y12350D02*
D03*
X66150Y35900D02*
D03*
X53550Y32350D02*
D03*
X50700Y34200D02*
D03*
X22950Y40500D02*
D03*
X24750Y44750D02*
D03*
X24550Y31150D02*
D03*
X16850Y28400D02*
D03*
X14650Y32400D02*
D03*
X25550Y38452D02*
D03*
X17450Y42950D02*
D03*
X47450Y28500D02*
D03*
X47500Y26550D02*
D03*
X52500Y38250D02*
D03*
X51150Y39150D02*
D03*
X44150Y39100D02*
D03*
X22250Y34800D02*
D03*
X29350Y25050D02*
D03*
X28000Y26000D02*
D03*
X27150Y27300D02*
D03*
X26700Y33250D02*
D03*
X14750Y22150D02*
D03*
X18350Y20800D02*
D03*
X20850Y35500D02*
D03*
X25200Y16950D02*
D03*
X24000Y22100D02*
D03*
X16450Y32550D02*
D03*
X16650Y37600D02*
D03*
D130*
X66700Y29300D02*
D03*
X9750Y35650D02*
D03*
X11500Y38850D02*
D03*
X12589Y41572D02*
D03*
X32800Y35050D02*
D03*
X22100Y33850D02*
D03*
X17750Y21850D02*
D03*
X16550Y20300D02*
D03*
X59700Y10250D02*
D03*
X20600Y24500D02*
D03*
X12250Y24050D02*
D03*
X13800Y24150D02*
D03*
X17198Y19972D02*
D03*
M02*
