G04*
G04 #@! TF.GenerationSoftware,Altium Limited,Altium Designer,21.3.2 (30)*
G04*
G04 Layer_Color=8388736*
%FSLAX24Y24*%
%MOIN*%
G70*
G04*
G04 #@! TF.SameCoordinates,2D7B45D3-2C2D-4D38-8684-C2D637B247D8*
G04*
G04*
G04 #@! TF.FilePolarity,Negative*
G04*
G01*
G75*
%ADD48R,0.0631X0.0552*%
%ADD49R,0.0620X0.0580*%
%ADD50R,0.1379X0.1025*%
%ADD51R,0.1104X0.0671*%
%ADD52R,0.0580X0.0620*%
%ADD53R,0.0552X0.0631*%
%ADD54R,0.0630X0.0580*%
%ADD55O,0.0440X0.1080*%
%ADD56R,0.2680X0.3080*%
%ADD57R,0.0440X0.1080*%
%ADD58R,0.0680X0.0680*%
%ADD59R,0.0749X0.0749*%
%ADD60R,0.0671X0.1104*%
%ADD61R,0.0580X0.0630*%
%ADD62R,0.0440X0.0580*%
%ADD63O,0.0880X0.0320*%
%ADD64R,0.0880X0.0980*%
%ADD65R,0.0986X0.0986*%
%ADD66R,0.0680X0.0930*%
%ADD67R,0.1480X0.0980*%
%ADD68R,0.1280X0.0830*%
%ADD69R,0.0980X0.0880*%
%ADD70R,0.1380X0.2080*%
%ADD71O,0.0480X0.0280*%
G04:AMPARAMS|DCode=72|XSize=28mil|YSize=48mil|CornerRadius=0mil|HoleSize=0mil|Usage=FLASHONLY|Rotation=90.000|XOffset=0mil|YOffset=0mil|HoleType=Round|Shape=Octagon|*
%AMOCTAGOND72*
4,1,8,-0.0240,-0.0070,-0.0240,0.0070,-0.0170,0.0140,0.0170,0.0140,0.0240,0.0070,0.0240,-0.0070,0.0170,-0.0140,-0.0170,-0.0140,-0.0240,-0.0070,0.0*
%
%ADD72OCTAGOND72*%

%ADD73R,0.1182X0.0513*%
%ADD74R,0.1104X0.0513*%
%ADD75R,0.1360X0.0926*%
%ADD76R,0.0454X0.0926*%
%ADD77C,0.0678*%
%ADD78R,0.0867X0.1064*%
%ADD79C,0.0710*%
%ADD80R,0.0710X0.0710*%
%ADD81R,0.0678X0.0678*%
%ADD82O,0.1950X0.1005*%
%ADD83O,0.1005X0.1950*%
%ADD84C,0.1180*%
%ADD85C,0.1280*%
%ADD86C,0.0840*%
%ADD87C,0.0682*%
%ADD88R,0.0682X0.0682*%
%ADD89C,0.0770*%
%ADD90C,0.0867*%
%ADD91C,0.0671*%
%ADD92R,0.0671X0.0671*%
%ADD93R,0.0671X0.0671*%
%ADD94R,0.0678X0.0678*%
%ADD95C,0.0730*%
%ADD96P,0.0790X8X22.5*%
%ADD97O,0.0867X0.0474*%
%ADD98O,0.0867X0.0474*%
%ADD99O,0.0474X0.0867*%
%ADD100O,0.0474X0.0867*%
%ADD101C,0.1299*%
%ADD102C,0.1379*%
%ADD103C,0.0380*%
%ADD104C,0.0580*%
D48*
X61901Y14626D02*
D03*
Y13878D02*
D03*
X62399Y22224D02*
D03*
Y22972D02*
D03*
X13549Y13574D02*
D03*
Y14322D02*
D03*
X33099Y15874D02*
D03*
Y16622D02*
D03*
X52850Y354D02*
D03*
Y1102D02*
D03*
X38299Y33172D02*
D03*
Y32424D02*
D03*
X24251Y44428D02*
D03*
Y45176D02*
D03*
X16950Y26950D02*
D03*
Y26202D02*
D03*
X16150Y33950D02*
D03*
Y33202D02*
D03*
D49*
X58600Y34100D02*
D03*
X57700D02*
D03*
X13000Y18650D02*
D03*
X12100D02*
D03*
X57200Y3500D02*
D03*
X56300D02*
D03*
X50700Y34050D02*
D03*
X51600D02*
D03*
X39200Y21200D02*
D03*
X40100D02*
D03*
X39250Y23150D02*
D03*
X40150D02*
D03*
X34000Y19650D02*
D03*
X34900D02*
D03*
X2050Y19150D02*
D03*
X2950D02*
D03*
X6500Y16950D02*
D03*
X7400D02*
D03*
X6150Y22200D02*
D03*
X7050D02*
D03*
X5150Y38100D02*
D03*
X4250D02*
D03*
X5400Y32400D02*
D03*
X4500D02*
D03*
X51050Y31150D02*
D03*
X50150D02*
D03*
X54850Y4350D02*
D03*
X53950D02*
D03*
X51300Y25750D02*
D03*
X50400D02*
D03*
X18450Y32000D02*
D03*
X19350D02*
D03*
X51150Y3800D02*
D03*
X50250D02*
D03*
X55050Y24550D02*
D03*
X54150D02*
D03*
X41100Y26550D02*
D03*
X40200D02*
D03*
D50*
X53750Y31164D02*
D03*
Y33900D02*
D03*
X55850Y33918D02*
D03*
Y31182D02*
D03*
X46050Y30614D02*
D03*
Y33350D02*
D03*
D51*
X42850Y29591D02*
D03*
Y28409D02*
D03*
X40500Y29700D02*
D03*
Y28519D02*
D03*
X48300Y31100D02*
D03*
Y32281D02*
D03*
D52*
X40800Y32200D02*
D03*
Y33100D02*
D03*
X15850Y10650D02*
D03*
Y9750D02*
D03*
X13250Y10700D02*
D03*
Y9800D02*
D03*
X10550Y10750D02*
D03*
Y9850D02*
D03*
X11950Y20650D02*
D03*
Y21550D02*
D03*
X9100Y26200D02*
D03*
Y25300D02*
D03*
X10650Y23950D02*
D03*
Y24850D02*
D03*
X42650Y32200D02*
D03*
Y33100D02*
D03*
X55050Y26500D02*
D03*
Y27400D02*
D03*
X4900Y18400D02*
D03*
Y19300D02*
D03*
X19600Y37000D02*
D03*
Y36100D02*
D03*
X8400Y41700D02*
D03*
Y42600D02*
D03*
X19700Y40200D02*
D03*
Y39300D02*
D03*
X9050Y30900D02*
D03*
Y31800D02*
D03*
X2500Y32400D02*
D03*
Y31500D02*
D03*
X510Y35000D02*
D03*
Y35900D02*
D03*
X2400Y34950D02*
D03*
Y35850D02*
D03*
X14250Y27150D02*
D03*
Y28050D02*
D03*
X10700Y28650D02*
D03*
Y27750D02*
D03*
X20500Y42400D02*
D03*
Y43300D02*
D03*
D53*
X23226Y18549D02*
D03*
X22478D02*
D03*
X57102Y8950D02*
D03*
X57850D02*
D03*
X12578Y31749D02*
D03*
X13326D02*
D03*
D54*
X9450Y21350D02*
D03*
Y22250D02*
D03*
D55*
X14900Y24300D02*
D03*
D56*
X15800Y21800D02*
D03*
D57*
X16700Y24300D02*
D03*
D58*
X13050Y24750D02*
D03*
Y23400D02*
D03*
D59*
X21600Y10749D02*
D03*
Y9450D02*
D03*
D60*
X57909Y31250D02*
D03*
X59091D02*
D03*
X48459Y28150D02*
D03*
X49641D02*
D03*
X61841Y31000D02*
D03*
X60659D02*
D03*
D61*
X37000Y19450D02*
D03*
X36100D02*
D03*
X18450Y42900D02*
D03*
X17550D02*
D03*
X20600Y31950D02*
D03*
X21500D02*
D03*
D62*
X16950Y39950D02*
D03*
X17350Y38950D02*
D03*
X16550D02*
D03*
X6400Y25850D02*
D03*
X6800Y24850D02*
D03*
X6000D02*
D03*
X15400Y30900D02*
D03*
X15800Y29900D02*
D03*
X15000D02*
D03*
D63*
X9300Y14600D02*
D03*
Y14100D02*
D03*
Y13600D02*
D03*
Y13100D02*
D03*
X11500D02*
D03*
Y13600D02*
D03*
Y14100D02*
D03*
Y14600D02*
D03*
D64*
X19650Y10850D02*
D03*
Y9150D02*
D03*
X1050Y42150D02*
D03*
Y40450D02*
D03*
D65*
X6400Y42150D02*
D03*
Y40378D02*
D03*
D66*
X13050Y44450D02*
D03*
Y43300D02*
D03*
X8200Y27700D02*
D03*
Y28850D02*
D03*
X5900Y28500D02*
D03*
Y29650D02*
D03*
X560Y32450D02*
D03*
Y31300D02*
D03*
D67*
X10900Y43850D02*
D03*
Y42100D02*
D03*
D68*
X3950Y42800D02*
D03*
Y39900D02*
D03*
D69*
X8650Y38150D02*
D03*
X6950D02*
D03*
D70*
X9450Y35100D02*
D03*
X7300D02*
D03*
D71*
X5200Y35600D02*
D03*
X5206Y35224D02*
D03*
X4106D02*
D03*
X4106Y35604D02*
D03*
X5206Y35974D02*
D03*
D72*
X4106D02*
D03*
D73*
X27858Y45406D02*
D03*
D74*
X27819Y44619D02*
D03*
Y43831D02*
D03*
Y43044D02*
D03*
Y42256D02*
D03*
Y41469D02*
D03*
Y40682D02*
D03*
Y39894D02*
D03*
X33881D02*
D03*
Y40682D02*
D03*
Y41469D02*
D03*
Y42256D02*
D03*
Y43044D02*
D03*
Y43831D02*
D03*
Y44619D02*
D03*
Y45406D02*
D03*
D75*
X13700Y36492D02*
D03*
D76*
X14606Y34208D02*
D03*
X13700D02*
D03*
X12794D02*
D03*
D77*
X60950Y17650D02*
D03*
X56050Y539D02*
D03*
X55050D02*
D03*
X47050D02*
D03*
X46050D02*
D03*
X60950Y14650D02*
D03*
Y15650D02*
D03*
Y16650D02*
D03*
X61300Y23050D02*
D03*
Y24050D02*
D03*
Y25050D02*
D03*
D78*
X60955Y47050D02*
D03*
X56950D02*
D03*
X58950D02*
D03*
X51600Y46900D02*
D03*
X49600D02*
D03*
X53605D02*
D03*
X45755Y47200D02*
D03*
X41750D02*
D03*
X43750D02*
D03*
D79*
X36700Y16150D02*
D03*
X37700D02*
D03*
X23100Y16650D02*
D03*
X22100D02*
D03*
X24100D02*
D03*
X25100D02*
D03*
X26100D02*
D03*
D80*
X35700Y16150D02*
D03*
X21100Y16650D02*
D03*
D81*
X54050Y539D02*
D03*
X45050D02*
D03*
D82*
X2600Y44690D02*
D03*
Y47150D02*
D03*
D83*
X710Y45870D02*
D03*
D84*
X10800Y47450D02*
D03*
X6800D02*
D03*
X8800D02*
D03*
X7200Y1750D02*
D03*
X9200D02*
D03*
X11200D02*
D03*
X13200D02*
D03*
D85*
X46274Y37100D02*
D03*
X41550D02*
D03*
X46350Y41903D02*
D03*
X41550D02*
D03*
X43912Y36313D02*
D03*
X54162Y37237D02*
D03*
X49438D02*
D03*
X54238Y42041D02*
D03*
X49438D02*
D03*
X51800Y36450D02*
D03*
X61862Y37287D02*
D03*
X57138D02*
D03*
X61938Y42091D02*
D03*
X57138D02*
D03*
X59500Y36500D02*
D03*
D86*
X51750Y1589D02*
D03*
X50750D02*
D03*
X49750D02*
D03*
D87*
X2364Y879D02*
D03*
X3364D02*
D03*
X4364D02*
D03*
X2364Y17107D02*
D03*
X3364D02*
D03*
X4364D02*
D03*
X1364D02*
D03*
D88*
Y879D02*
D03*
D89*
X16400Y46650D02*
D03*
Y45150D02*
D03*
D90*
X23671Y29984D02*
D03*
Y24079D02*
D03*
X24655D02*
D03*
X25639D02*
D03*
X26624D02*
D03*
X27608D02*
D03*
X28592D02*
D03*
X29576D02*
D03*
X30561D02*
D03*
X31545D02*
D03*
X32529D02*
D03*
X33513D02*
D03*
X34498D02*
D03*
Y29984D02*
D03*
X33513D02*
D03*
X32529D02*
D03*
X31545D02*
D03*
X30561D02*
D03*
X29576D02*
D03*
X28592D02*
D03*
X27608D02*
D03*
X26624D02*
D03*
X25639D02*
D03*
X24655D02*
D03*
X34498Y29000D02*
D03*
Y28016D02*
D03*
Y27032D02*
D03*
X27116Y29000D02*
D03*
X28100D02*
D03*
X22687Y24571D02*
D03*
Y25555D02*
D03*
Y26539D02*
D03*
Y27524D02*
D03*
Y28508D02*
D03*
Y29492D02*
D03*
D91*
X23300Y21550D02*
D03*
X24300D02*
D03*
X25300D02*
D03*
X26300D02*
D03*
X27300D02*
D03*
X28300D02*
D03*
X29300D02*
D03*
X30300D02*
D03*
X31300D02*
D03*
X32300D02*
D03*
X33300D02*
D03*
X34400Y32950D02*
D03*
X33400D02*
D03*
X32400D02*
D03*
X31400D02*
D03*
X30400D02*
D03*
X29400D02*
D03*
X28400D02*
D03*
X27400D02*
D03*
X26400D02*
D03*
X25400D02*
D03*
X24400D02*
D03*
X35950Y22900D02*
D03*
Y23900D02*
D03*
Y24900D02*
D03*
Y25900D02*
D03*
X36500Y45200D02*
D03*
Y44200D02*
D03*
Y43200D02*
D03*
Y42200D02*
D03*
Y41200D02*
D03*
Y40200D02*
D03*
Y39200D02*
D03*
X25750Y46200D02*
D03*
Y45200D02*
D03*
Y44200D02*
D03*
Y43200D02*
D03*
Y42200D02*
D03*
Y41200D02*
D03*
Y40200D02*
D03*
D92*
X34300Y21550D02*
D03*
X23400Y32950D02*
D03*
D93*
X35950Y26900D02*
D03*
X36500Y46200D02*
D03*
X25750Y39200D02*
D03*
D94*
X60950Y13650D02*
D03*
X61300Y22050D02*
D03*
D95*
X58550Y775D02*
D03*
X60600D02*
D03*
X62850D02*
D03*
D96*
X57550D02*
D03*
X59600D02*
D03*
X61850D02*
D03*
D97*
X57550Y5550D02*
D03*
Y6550D02*
D03*
X45750Y28050D02*
D03*
Y27050D02*
D03*
D98*
X57550Y6050D02*
D03*
X45750Y27550D02*
D03*
D99*
X52550Y28200D02*
D03*
X51550D02*
D03*
X59350Y28000D02*
D03*
X60350D02*
D03*
D100*
X52050Y28200D02*
D03*
X59850Y28000D02*
D03*
D101*
X16751Y1245D02*
D03*
Y13844D02*
D03*
X26200D02*
D03*
Y1250D02*
D03*
X32851Y1195D02*
D03*
Y13794D02*
D03*
X42300D02*
D03*
D102*
Y1195D02*
D03*
D103*
X5939Y35772D02*
D03*
X37612Y20092D02*
D03*
X5950Y39400D02*
D03*
X26150Y29250D02*
D03*
X44800Y26700D02*
D03*
X14350Y13450D02*
D03*
X11650Y12650D02*
D03*
X8100Y26900D02*
D03*
X7300Y24500D02*
D03*
X5100Y28750D02*
D03*
X5000Y31550D02*
D03*
X58500Y6700D02*
D03*
X61100Y27750D02*
D03*
X59450Y30400D02*
D03*
X50950Y28500D02*
D03*
X39400Y28550D02*
D03*
X17550Y25700D02*
D03*
X15450Y28050D02*
D03*
X11100Y16050D02*
D03*
X9900Y14500D02*
D03*
X53050Y4450D02*
D03*
X56300Y4150D02*
D03*
X56700Y6400D02*
D03*
X13950Y18700D02*
D03*
X5600Y18250D02*
D03*
X7150Y18350D02*
D03*
X10548Y14172D02*
D03*
D104*
X10800Y37150D02*
D03*
X40800Y22700D02*
D03*
X40850Y20750D02*
D03*
X45850Y32450D02*
D03*
X44500Y33350D02*
D03*
X37500Y33300D02*
D03*
X18900Y32850D02*
D03*
X32700Y17300D02*
D03*
X15600Y29000D02*
D03*
X22700Y19250D02*
D03*
X21350Y20200D02*
D03*
X20500Y21500D02*
D03*
X20050Y27450D02*
D03*
X8100Y16350D02*
D03*
X11700Y15000D02*
D03*
X14200Y29700D02*
D03*
X18550Y11150D02*
D03*
X17350Y16300D02*
D03*
X9800Y26750D02*
D03*
X10000Y31800D02*
D03*
M02*
