M48
;Layer_Color=9474304
;FILE_FORMAT=2:4
INCH,LZ
;TYPE=PLATED
T1F00S00C0.0150
T3F00S00C0.0280
T4F00S00C0.0315
T5F00S00C0.0354
T6F00S00C0.0394
T7F00S00C0.0400
T8F00S00C0.0402
T9F00S00C0.0450
T10F00S00C0.0551
T11F00S00C0.0600
;TYPE=NON_PLATED
T12F00S00C0.1299
%
T01
X01165Y01265
X010548Y014172
X0099Y0145
X01435Y01345
X05305Y00445
X0563Y00415
X0567Y0064
X0585Y0067
X0611Y02775
X05945Y0304
X05095Y0285
X0448Y0267
X0394Y02855
X037612Y020092
X02615Y02925
X01755Y0257
X01545Y02805
X0081Y0269
X0073Y0245
X00715Y01835
X0056Y01825
X0111Y01605
X01395Y0187
X0051Y02875
X005Y03155
X005939Y035772
X00595Y0394
T03
X0117Y015
X01855Y01115
X0327Y0173
X04085Y02075
X0408Y0227
X0205Y0215
X02135Y0202
X0227Y01925
X01735Y0163
X02005Y02745
X0156Y029
X0142Y0297
X0098Y02675
X0081Y01635
X01Y0318
X0108Y03715
X0189Y03285
X0375Y0333
X0445Y03335
X04585Y03245
T04
X0357Y01615
X0367
X0377
X0261Y01665
X0251
X0241
X0231
X0221
X0211
T05
X05755Y00555
Y00605
Y00655
X05935Y028
X05985
X06035
X05255Y0282
X05205
X05155
X04575Y02805
Y02755
Y02705
X03595Y0269
Y0259
Y0249
Y0239
Y0229
X0343Y02155
X0333
X0323
X0313
X0303
X0293
X0283
X0273
X0263
X0253
X0243
X0233
X0234Y03295
X0244
X0254
X0264
X0274
X0284
X0294
X0304
X02575Y0392
Y0402
Y0412
Y0422
Y0432
Y0442
Y0452
Y0462
X0365
Y0452
Y0442
Y0432
Y0422
Y0412
Y0402
Y0392
X0344Y03295
X0334
X0324
X0314
T06
X04975Y001589
X05075
X05175
X034498Y024079
X033513
X032529
X031545
X034498Y027032
Y028016
Y029
Y029984
X033513
X032529
X031545
X030561
X029576
X028592
X027608
X026624
X025639
X024655
X023671
X022687Y029492
Y028508
Y027524
Y026539
Y025555
Y024571
X023671Y024079
X024655
X025639
X026624
X027608
X028592
X029576
X030561
X0281Y029
X027116
T07
X05755Y000775
X05855
X0596
X0606
X06185
X06285
X0164Y04515
Y04665
T08
X001364Y000879
X002364
X003364
X004364
X04505Y000539
X04605
X04705
X05405
X05505
X05605
X06095Y01365
Y01465
Y01565
Y01665
Y01765
X0613Y02205
Y02305
Y02405
Y02505
X004364Y017107
X003364
X002364
X001364
T09
X04155Y0371
X043912Y036313
X046274Y0371
X04635Y041903
X04155
X049438Y042041
X054238
X057138Y042091
X061938
X061862Y037287
X0595Y0365
X057138Y037287
X054162Y037237
X0518Y03645
X049438Y037237
T10
X0496Y0469
X0516
X053605
X05695Y04705
X05895
X060955
X045755Y0472
X04375
X04175
T11
X0072Y00175
X0092
X0112
X0132
X0108Y04745
X0088
X0068
T12
X016751Y001245
X0262Y00125
Y013844
X016751
X032851Y013794
X0423
Y001195
X032851
M30
