G04*
G04 #@! TF.GenerationSoftware,Altium Limited,Altium Designer,21.3.2 (30)*
G04*
G04 Layer_Color=2752767*
%FSLAX24Y24*%
%MOIN*%
G70*
G04*
G04 #@! TF.SameCoordinates,2D7B45D3-2C2D-4D38-8684-C2D637B247D8*
G04*
G04*
G04 #@! TF.FilePolarity,Positive*
G04*
G01*
G75*
%ADD136C,0.0020*%
%ADD137C,0.0027*%
%ADD138C,0.0013*%
D136*
X60870Y17570D02*
Y17730D01*
X61030D01*
Y17570D01*
X60870D01*
X36700Y16070D02*
X36620Y16230D01*
X36780D01*
X36700Y16070D01*
X35700D02*
X35620Y16230D01*
X35780D01*
X35700Y16070D01*
X37700D02*
X37620Y16230D01*
X37780D01*
X37700Y16070D01*
X55970Y459D02*
Y619D01*
X56130D01*
Y459D01*
X55970D01*
X54970D02*
Y619D01*
X55130D01*
Y459D01*
X54970D01*
X53970D02*
Y619D01*
X54130D01*
Y459D01*
X53970D01*
X2600Y44610D02*
X2640Y44650D01*
X2680D01*
X2640Y44690D01*
X2680Y44730D01*
X2640D01*
X2600Y44770D01*
X2560Y44730D01*
X2520D01*
X2560Y44690D01*
X2520Y44650D01*
X2560D01*
X2600Y44610D01*
Y47070D02*
X2640Y47110D01*
X2680D01*
X2640Y47150D01*
X2680Y47190D01*
X2640D01*
X2600Y47230D01*
X2560Y47190D01*
X2520D01*
X2560Y47150D01*
X2520Y47110D01*
X2560D01*
X2600Y47070D01*
X630Y45790D02*
X670Y45870D01*
X630Y45950D01*
X710Y45910D01*
X790Y45950D01*
X750Y45870D01*
X790Y45790D01*
X710Y45830D01*
X630Y45790D01*
X10760Y47410D02*
Y47370D01*
X10840D01*
Y47410D01*
X10880D01*
Y47490D01*
X10840D01*
Y47530D01*
X10760D01*
Y47490D01*
X10720D01*
Y47410D01*
X10760D01*
X6760D02*
Y47370D01*
X6840D01*
Y47410D01*
X6880D01*
Y47490D01*
X6840D01*
Y47530D01*
X6760D01*
Y47490D01*
X6720D01*
Y47410D01*
X6760D01*
X8760D02*
Y47370D01*
X8840D01*
Y47410D01*
X8880D01*
Y47490D01*
X8840D01*
Y47530D01*
X8760D01*
Y47490D01*
X8720D01*
Y47410D01*
X8760D01*
X46194Y37020D02*
X46234D01*
X46274Y37060D01*
X46314Y37020D01*
X46354D01*
Y37060D01*
X46314Y37100D01*
X46354Y37140D01*
Y37180D01*
X46314D01*
X46274Y37140D01*
X46234Y37180D01*
X46194D01*
Y37140D01*
X46234Y37100D01*
X46194Y37060D01*
Y37020D01*
X41470D02*
X41510D01*
X41550Y37060D01*
X41590Y37020D01*
X41630D01*
Y37060D01*
X41590Y37100D01*
X41630Y37140D01*
Y37180D01*
X41590D01*
X41550Y37140D01*
X41510Y37180D01*
X41470D01*
Y37140D01*
X41510Y37100D01*
X41470Y37060D01*
Y37020D01*
X46270Y41823D02*
X46310D01*
X46350Y41863D01*
X46390Y41823D01*
X46430D01*
Y41863D01*
X46390Y41903D01*
X46430Y41943D01*
Y41983D01*
X46390D01*
X46350Y41943D01*
X46310Y41983D01*
X46270D01*
Y41943D01*
X46310Y41903D01*
X46270Y41863D01*
Y41823D01*
X41470D02*
X41510D01*
X41550Y41863D01*
X41590Y41823D01*
X41630D01*
Y41863D01*
X41590Y41903D01*
X41630Y41943D01*
Y41983D01*
X41590D01*
X41550Y41943D01*
X41510Y41983D01*
X41470D01*
Y41943D01*
X41510Y41903D01*
X41470Y41863D01*
Y41823D01*
X43832Y36233D02*
X43872D01*
X43912Y36273D01*
X43952Y36233D01*
X43992D01*
Y36273D01*
X43952Y36313D01*
X43992Y36353D01*
Y36393D01*
X43952D01*
X43912Y36353D01*
X43872Y36393D01*
X43832D01*
Y36353D01*
X43872Y36313D01*
X43832Y36273D01*
Y36233D01*
X54082Y37157D02*
X54122D01*
X54162Y37197D01*
X54202Y37157D01*
X54242D01*
Y37197D01*
X54202Y37237D01*
X54242Y37277D01*
Y37317D01*
X54202D01*
X54162Y37277D01*
X54122Y37317D01*
X54082D01*
Y37277D01*
X54122Y37237D01*
X54082Y37197D01*
Y37157D01*
X49358D02*
X49398D01*
X49438Y37197D01*
X49478Y37157D01*
X49518D01*
Y37197D01*
X49478Y37237D01*
X49518Y37277D01*
Y37317D01*
X49478D01*
X49438Y37277D01*
X49398Y37317D01*
X49358D01*
Y37277D01*
X49398Y37237D01*
X49358Y37197D01*
Y37157D01*
X54158Y41961D02*
X54198D01*
X54238Y42001D01*
X54278Y41961D01*
X54318D01*
Y42001D01*
X54278Y42041D01*
X54318Y42081D01*
Y42121D01*
X54278D01*
X54238Y42081D01*
X54198Y42121D01*
X54158D01*
Y42081D01*
X54198Y42041D01*
X54158Y42001D01*
Y41961D01*
X49358D02*
X49398D01*
X49438Y42001D01*
X49478Y41961D01*
X49518D01*
Y42001D01*
X49478Y42041D01*
X49518Y42081D01*
Y42121D01*
X49478D01*
X49438Y42081D01*
X49398Y42121D01*
X49358D01*
Y42081D01*
X49398Y42041D01*
X49358Y42001D01*
Y41961D01*
X51720Y36370D02*
X51760D01*
X51800Y36410D01*
X51840Y36370D01*
X51880D01*
Y36410D01*
X51840Y36450D01*
X51880Y36490D01*
Y36530D01*
X51840D01*
X51800Y36490D01*
X51760Y36530D01*
X51720D01*
Y36490D01*
X51760Y36450D01*
X51720Y36410D01*
Y36370D01*
X61782Y37207D02*
X61822D01*
X61862Y37247D01*
X61902Y37207D01*
X61942D01*
Y37247D01*
X61902Y37287D01*
X61942Y37327D01*
Y37367D01*
X61902D01*
X61862Y37327D01*
X61822Y37367D01*
X61782D01*
Y37327D01*
X61822Y37287D01*
X61782Y37247D01*
Y37207D01*
X57058D02*
X57098D01*
X57138Y37247D01*
X57178Y37207D01*
X57218D01*
Y37247D01*
X57178Y37287D01*
X57218Y37327D01*
Y37367D01*
X57178D01*
X57138Y37327D01*
X57098Y37367D01*
X57058D01*
Y37327D01*
X57098Y37287D01*
X57058Y37247D01*
Y37207D01*
X61858Y42011D02*
X61898D01*
X61938Y42051D01*
X61978Y42011D01*
X62018D01*
Y42051D01*
X61978Y42091D01*
X62018Y42131D01*
Y42171D01*
X61978D01*
X61938Y42131D01*
X61898Y42171D01*
X61858D01*
Y42131D01*
X61898Y42091D01*
X61858Y42051D01*
Y42011D01*
X57058D02*
X57098D01*
X57138Y42051D01*
X57178Y42011D01*
X57218D01*
Y42051D01*
X57178Y42091D01*
X57218Y42131D01*
Y42171D01*
X57178D01*
X57138Y42131D01*
X57098Y42171D01*
X57058D01*
Y42131D01*
X57098Y42091D01*
X57058Y42051D01*
Y42011D01*
X59420Y36420D02*
X59460D01*
X59500Y36460D01*
X59540Y36420D01*
X59580D01*
Y36460D01*
X59540Y36500D01*
X59580Y36540D01*
Y36580D01*
X59540D01*
X59500Y36540D01*
X59460Y36580D01*
X59420D01*
Y36540D01*
X59460Y36500D01*
X59420Y36460D01*
Y36420D01*
X51670Y1589D02*
X51750Y1669D01*
X51830Y1589D01*
X51750Y1509D01*
X51670Y1589D01*
X50670D02*
X50750Y1669D01*
X50830Y1589D01*
X50750Y1509D01*
X50670Y1589D01*
X49670D02*
X49750Y1669D01*
X49830Y1589D01*
X49750Y1509D01*
X49670Y1589D01*
X46970Y459D02*
Y619D01*
X47130D01*
Y459D01*
X46970D01*
X45970D02*
Y619D01*
X46130D01*
Y459D01*
X45970D01*
X44970D02*
Y619D01*
X45130D01*
Y459D01*
X44970D01*
X2284Y799D02*
Y959D01*
X2444D01*
Y799D01*
X2284D01*
X3284D02*
Y959D01*
X3444D01*
Y799D01*
X3284D01*
X4284D02*
Y959D01*
X4444D01*
Y799D01*
X4284D01*
X1284D02*
Y959D01*
X1444D01*
Y799D01*
X1284D01*
X2284Y17027D02*
Y17187D01*
X2444D01*
Y17027D01*
X2284D01*
X3284D02*
Y17187D01*
X3444D01*
Y17027D01*
X3284D01*
X4284D02*
Y17187D01*
X4444D01*
Y17027D01*
X4284D01*
X1284D02*
Y17187D01*
X1444D01*
Y17027D01*
X1284D01*
X7160Y1710D02*
Y1670D01*
X7240D01*
Y1710D01*
X7280D01*
Y1790D01*
X7240D01*
Y1830D01*
X7160D01*
Y1790D01*
X7120D01*
Y1710D01*
X7160D01*
X9160D02*
Y1670D01*
X9240D01*
Y1710D01*
X9280D01*
Y1790D01*
X9240D01*
Y1830D01*
X9160D01*
Y1790D01*
X9120D01*
Y1710D01*
X9160D01*
X11160D02*
Y1670D01*
X11240D01*
Y1710D01*
X11280D01*
Y1790D01*
X11240D01*
Y1830D01*
X11160D01*
Y1790D01*
X11120D01*
Y1710D01*
X11160D01*
X13160D02*
Y1670D01*
X13240D01*
Y1710D01*
X13280D01*
Y1790D01*
X13240D01*
Y1830D01*
X13160D01*
Y1790D01*
X13120D01*
Y1710D01*
X13160D01*
X16320Y46570D02*
Y46730D01*
X16480D01*
Y46570D01*
X16320D01*
X16360Y46610D02*
Y46690D01*
X16440D01*
Y46610D01*
X16360D01*
X16320Y45070D02*
Y45230D01*
X16480D01*
Y45070D01*
X16320D01*
X16360Y45110D02*
Y45190D01*
X16440D01*
Y45110D01*
X16360D01*
X23591Y29984D02*
X23671Y30064D01*
X23751Y29984D01*
X23671Y29904D01*
X23591Y29984D01*
Y24079D02*
X23671Y24159D01*
X23751Y24079D01*
X23671Y23999D01*
X23591Y24079D01*
X24575D02*
X24655Y24159D01*
X24735Y24079D01*
X24655Y23999D01*
X24575Y24079D01*
X25559D02*
X25639Y24159D01*
X25719Y24079D01*
X25639Y23999D01*
X25559Y24079D01*
X26544D02*
X26624Y24159D01*
X26704Y24079D01*
X26624Y23999D01*
X26544Y24079D01*
X27528D02*
X27608Y24159D01*
X27688Y24079D01*
X27608Y23999D01*
X27528Y24079D01*
X28512D02*
X28592Y24159D01*
X28672Y24079D01*
X28592Y23999D01*
X28512Y24079D01*
X29496D02*
X29576Y24159D01*
X29656Y24079D01*
X29576Y23999D01*
X29496Y24079D01*
X30481D02*
X30561Y24159D01*
X30641Y24079D01*
X30561Y23999D01*
X30481Y24079D01*
X31465D02*
X31545Y24159D01*
X31625Y24079D01*
X31545Y23999D01*
X31465Y24079D01*
X32449D02*
X32529Y24159D01*
X32609Y24079D01*
X32529Y23999D01*
X32449Y24079D01*
X33433D02*
X33513Y24159D01*
X33593Y24079D01*
X33513Y23999D01*
X33433Y24079D01*
X34418D02*
X34498Y24159D01*
X34578Y24079D01*
X34498Y23999D01*
X34418Y24079D01*
Y29984D02*
X34498Y30064D01*
X34578Y29984D01*
X34498Y29904D01*
X34418Y29984D01*
X33433D02*
X33513Y30064D01*
X33593Y29984D01*
X33513Y29904D01*
X33433Y29984D01*
X32449D02*
X32529Y30064D01*
X32609Y29984D01*
X32529Y29904D01*
X32449Y29984D01*
X31465D02*
X31545Y30064D01*
X31625Y29984D01*
X31545Y29904D01*
X31465Y29984D01*
X30481D02*
X30561Y30064D01*
X30641Y29984D01*
X30561Y29904D01*
X30481Y29984D01*
X29496D02*
X29576Y30064D01*
X29656Y29984D01*
X29576Y29904D01*
X29496Y29984D01*
X28512D02*
X28592Y30064D01*
X28672Y29984D01*
X28592Y29904D01*
X28512Y29984D01*
X27528D02*
X27608Y30064D01*
X27688Y29984D01*
X27608Y29904D01*
X27528Y29984D01*
X26544D02*
X26624Y30064D01*
X26704Y29984D01*
X26624Y29904D01*
X26544Y29984D01*
X25559D02*
X25639Y30064D01*
X25719Y29984D01*
X25639Y29904D01*
X25559Y29984D01*
X24575D02*
X24655Y30064D01*
X24735Y29984D01*
X24655Y29904D01*
X24575Y29984D01*
X34418Y29000D02*
X34498Y29080D01*
X34578Y29000D01*
X34498Y28920D01*
X34418Y29000D01*
Y28016D02*
X34498Y28096D01*
X34578Y28016D01*
X34498Y27936D01*
X34418Y28016D01*
Y27032D02*
X34498Y27111D01*
X34578Y27032D01*
X34498Y26951D01*
X34418Y27032D01*
X27036Y29000D02*
X27116Y29080D01*
X27196Y29000D01*
X27116Y28920D01*
X27036Y29000D01*
X28020D02*
X28100Y29080D01*
X28180Y29000D01*
X28100Y28920D01*
X28020Y29000D01*
X22607Y24571D02*
X22687Y24651D01*
X22767Y24571D01*
X22687Y24491D01*
X22607Y24571D01*
Y25555D02*
X22687Y25635D01*
X22767Y25555D01*
X22687Y25475D01*
X22607Y25555D01*
Y26539D02*
X22687Y26619D01*
X22767Y26539D01*
X22687Y26459D01*
X22607Y26539D01*
Y27524D02*
X22687Y27604D01*
X22767Y27524D01*
X22687Y27444D01*
X22607Y27524D01*
Y28508D02*
X22687Y28588D01*
X22767Y28508D01*
X22687Y28428D01*
X22607Y28508D01*
Y29492D02*
X22687Y29572D01*
X22767Y29492D01*
X22687Y29412D01*
X22607Y29492D01*
X60870Y13570D02*
Y13730D01*
X61030D01*
Y13570D01*
X60870D01*
Y14570D02*
Y14730D01*
X61030D01*
Y14570D01*
X60870D01*
Y15570D02*
Y15730D01*
X61030D01*
Y15570D01*
X60870D01*
Y16570D02*
Y16730D01*
X61030D01*
Y16570D01*
X60870D01*
X58470Y695D02*
Y855D01*
X58630D01*
Y695D01*
X58470D01*
X58510Y735D02*
Y815D01*
X58590D01*
Y735D01*
X58510D01*
X57470Y695D02*
Y855D01*
X57630D01*
Y695D01*
X57470D01*
X57510Y735D02*
Y815D01*
X57590D01*
Y735D01*
X57510D01*
X60520Y695D02*
Y855D01*
X60680D01*
Y695D01*
X60520D01*
X60560Y735D02*
Y815D01*
X60640D01*
Y735D01*
X60560D01*
X59520Y695D02*
Y855D01*
X59680D01*
Y695D01*
X59520D01*
X59560Y735D02*
Y815D01*
X59640D01*
Y735D01*
X59560D01*
X23100Y16570D02*
X23020Y16730D01*
X23180D01*
X23100Y16570D01*
X21100D02*
X21020Y16730D01*
X21180D01*
X21100Y16570D01*
X22100D02*
X22020Y16730D01*
X22180D01*
X22100Y16570D01*
X24100D02*
X24020Y16730D01*
X24180D01*
X24100Y16570D01*
X25100D02*
X25020Y16730D01*
X25180D01*
X25100Y16570D01*
X26100D02*
X26020Y16730D01*
X26180D01*
X26100Y16570D01*
X62770Y695D02*
Y855D01*
X62930D01*
Y695D01*
X62770D01*
X62810Y735D02*
Y815D01*
X62890D01*
Y735D01*
X62810D01*
X61770Y695D02*
Y855D01*
X61930D01*
Y695D01*
X61770D01*
X61810Y735D02*
Y815D01*
X61890D01*
Y735D01*
X61810D01*
X61220Y21970D02*
Y22130D01*
X61380D01*
Y21970D01*
X61220D01*
Y22970D02*
Y23130D01*
X61380D01*
Y22970D01*
X61220D01*
Y23970D02*
Y24130D01*
X61380D01*
Y23970D01*
X61220D01*
Y24970D02*
Y25130D01*
X61380D01*
Y24970D01*
X61220D01*
X16751Y1165D02*
X16671Y1325D01*
X16831D01*
X16751Y1165D01*
Y1205D02*
X16711Y1285D01*
X16791D01*
X16751Y1205D01*
Y13764D02*
X16671Y13924D01*
X16831D01*
X16751Y13764D01*
Y13804D02*
X16711Y13884D01*
X16791D01*
X16751Y13804D01*
X26200Y13764D02*
X26120Y13924D01*
X26280D01*
X26200Y13764D01*
Y13804D02*
X26160Y13884D01*
X26240D01*
X26200Y13804D01*
Y1170D02*
X26120Y1330D01*
X26280D01*
X26200Y1170D01*
Y1210D02*
X26160Y1290D01*
X26240D01*
X26200Y1210D01*
X42300Y1115D02*
X42220Y1275D01*
X42380D01*
X42300Y1115D01*
Y1155D02*
X42260Y1235D01*
X42340D01*
X42300Y1155D01*
X32851Y1115D02*
X32771Y1275D01*
X32931D01*
X32851Y1115D01*
Y1155D02*
X32811Y1235D01*
X32891D01*
X32851Y1155D01*
Y13714D02*
X32771Y13874D01*
X32931D01*
X32851Y13714D01*
Y13754D02*
X32811Y13834D01*
X32891D01*
X32851Y13754D01*
X42300Y13714D02*
X42220Y13874D01*
X42380D01*
X42300Y13714D01*
Y13754D02*
X42260Y13834D01*
X42340D01*
X42300Y13754D01*
X5939Y35692D02*
X5979Y35732D01*
X6019D01*
X5979Y35772D01*
X6019Y35812D01*
X5979D01*
X5939Y35852D01*
X5899Y35812D01*
X5859D01*
X5899Y35772D01*
X5859Y35732D01*
X5899D01*
X5939Y35692D01*
Y35732D02*
X5959Y35752D01*
X5979D01*
X5959Y35772D01*
X5979Y35792D01*
X5959D01*
X5939Y35812D01*
X5919Y35792D01*
X5899D01*
X5919Y35772D01*
X5899Y35752D01*
X5919D01*
X5939Y35732D01*
X37612Y20012D02*
X37652Y20052D01*
X37692D01*
X37652Y20092D01*
X37692Y20132D01*
X37652D01*
X37612Y20172D01*
X37572Y20132D01*
X37532D01*
X37572Y20092D01*
X37532Y20052D01*
X37572D01*
X37612Y20012D01*
Y20052D02*
X37632Y20072D01*
X37652D01*
X37632Y20092D01*
X37652Y20112D01*
X37632D01*
X37612Y20132D01*
X37592Y20112D01*
X37572D01*
X37592Y20092D01*
X37572Y20072D01*
X37592D01*
X37612Y20052D01*
X5950Y39320D02*
X5990Y39360D01*
X6030D01*
X5990Y39400D01*
X6030Y39440D01*
X5990D01*
X5950Y39480D01*
X5910Y39440D01*
X5870D01*
X5910Y39400D01*
X5870Y39360D01*
X5910D01*
X5950Y39320D01*
Y39360D02*
X5970Y39380D01*
X5990D01*
X5970Y39400D01*
X5990Y39420D01*
X5970D01*
X5950Y39440D01*
X5930Y39420D01*
X5910D01*
X5930Y39400D01*
X5910Y39380D01*
X5930D01*
X5950Y39360D01*
X26150Y29170D02*
X26190Y29210D01*
X26230D01*
X26190Y29250D01*
X26230Y29290D01*
X26190D01*
X26150Y29330D01*
X26110Y29290D01*
X26070D01*
X26110Y29250D01*
X26070Y29210D01*
X26110D01*
X26150Y29170D01*
Y29210D02*
X26170Y29230D01*
X26190D01*
X26170Y29250D01*
X26190Y29270D01*
X26170D01*
X26150Y29290D01*
X26130Y29270D01*
X26110D01*
X26130Y29250D01*
X26110Y29230D01*
X26130D01*
X26150Y29210D01*
X44800Y26620D02*
X44840Y26660D01*
X44880D01*
X44840Y26700D01*
X44880Y26740D01*
X44840D01*
X44800Y26780D01*
X44760Y26740D01*
X44720D01*
X44760Y26700D01*
X44720Y26660D01*
X44760D01*
X44800Y26620D01*
Y26660D02*
X44820Y26680D01*
X44840D01*
X44820Y26700D01*
X44840Y26720D01*
X44820D01*
X44800Y26740D01*
X44780Y26720D01*
X44760D01*
X44780Y26700D01*
X44760Y26680D01*
X44780D01*
X44800Y26660D01*
X14350Y13370D02*
X14390Y13410D01*
X14430D01*
X14390Y13450D01*
X14430Y13490D01*
X14390D01*
X14350Y13530D01*
X14310Y13490D01*
X14270D01*
X14310Y13450D01*
X14270Y13410D01*
X14310D01*
X14350Y13370D01*
Y13410D02*
X14370Y13430D01*
X14390D01*
X14370Y13450D01*
X14390Y13470D01*
X14370D01*
X14350Y13490D01*
X14330Y13470D01*
X14310D01*
X14330Y13450D01*
X14310Y13430D01*
X14330D01*
X14350Y13410D01*
X11650Y12570D02*
X11690Y12610D01*
X11730D01*
X11690Y12650D01*
X11730Y12690D01*
X11690D01*
X11650Y12730D01*
X11610Y12690D01*
X11570D01*
X11610Y12650D01*
X11570Y12610D01*
X11610D01*
X11650Y12570D01*
Y12610D02*
X11670Y12630D01*
X11690D01*
X11670Y12650D01*
X11690Y12670D01*
X11670D01*
X11650Y12690D01*
X11630Y12670D01*
X11610D01*
X11630Y12650D01*
X11610Y12630D01*
X11630D01*
X11650Y12610D01*
X8100Y26820D02*
X8140Y26860D01*
X8180D01*
X8140Y26900D01*
X8180Y26940D01*
X8140D01*
X8100Y26980D01*
X8060Y26940D01*
X8020D01*
X8060Y26900D01*
X8020Y26860D01*
X8060D01*
X8100Y26820D01*
Y26860D02*
X8120Y26880D01*
X8140D01*
X8120Y26900D01*
X8140Y26920D01*
X8120D01*
X8100Y26940D01*
X8080Y26920D01*
X8060D01*
X8080Y26900D01*
X8060Y26880D01*
X8080D01*
X8100Y26860D01*
X7300Y24420D02*
X7340Y24460D01*
X7380D01*
X7340Y24500D01*
X7380Y24540D01*
X7340D01*
X7300Y24580D01*
X7260Y24540D01*
X7220D01*
X7260Y24500D01*
X7220Y24460D01*
X7260D01*
X7300Y24420D01*
Y24460D02*
X7320Y24480D01*
X7340D01*
X7320Y24500D01*
X7340Y24520D01*
X7320D01*
X7300Y24540D01*
X7280Y24520D01*
X7260D01*
X7280Y24500D01*
X7260Y24480D01*
X7280D01*
X7300Y24460D01*
X5100Y28670D02*
X5140Y28710D01*
X5180D01*
X5140Y28750D01*
X5180Y28790D01*
X5140D01*
X5100Y28830D01*
X5060Y28790D01*
X5020D01*
X5060Y28750D01*
X5020Y28710D01*
X5060D01*
X5100Y28670D01*
Y28710D02*
X5120Y28730D01*
X5140D01*
X5120Y28750D01*
X5140Y28770D01*
X5120D01*
X5100Y28790D01*
X5080Y28770D01*
X5060D01*
X5080Y28750D01*
X5060Y28730D01*
X5080D01*
X5100Y28710D01*
X5000Y31470D02*
X5040Y31510D01*
X5080D01*
X5040Y31550D01*
X5080Y31590D01*
X5040D01*
X5000Y31630D01*
X4960Y31590D01*
X4920D01*
X4960Y31550D01*
X4920Y31510D01*
X4960D01*
X5000Y31470D01*
Y31510D02*
X5020Y31530D01*
X5040D01*
X5020Y31550D01*
X5040Y31570D01*
X5020D01*
X5000Y31590D01*
X4980Y31570D01*
X4960D01*
X4980Y31550D01*
X4960Y31530D01*
X4980D01*
X5000Y31510D01*
X58500Y6620D02*
X58540Y6660D01*
X58580D01*
X58540Y6700D01*
X58580Y6740D01*
X58540D01*
X58500Y6780D01*
X58460Y6740D01*
X58420D01*
X58460Y6700D01*
X58420Y6660D01*
X58460D01*
X58500Y6620D01*
Y6660D02*
X58520Y6680D01*
X58540D01*
X58520Y6700D01*
X58540Y6720D01*
X58520D01*
X58500Y6740D01*
X58480Y6720D01*
X58460D01*
X58480Y6700D01*
X58460Y6680D01*
X58480D01*
X58500Y6660D01*
X61100Y27670D02*
X61140Y27710D01*
X61180D01*
X61140Y27750D01*
X61180Y27790D01*
X61140D01*
X61100Y27830D01*
X61060Y27790D01*
X61020D01*
X61060Y27750D01*
X61020Y27710D01*
X61060D01*
X61100Y27670D01*
Y27710D02*
X61120Y27730D01*
X61140D01*
X61120Y27750D01*
X61140Y27770D01*
X61120D01*
X61100Y27790D01*
X61080Y27770D01*
X61060D01*
X61080Y27750D01*
X61060Y27730D01*
X61080D01*
X61100Y27710D01*
X59450Y30320D02*
X59490Y30360D01*
X59530D01*
X59490Y30400D01*
X59530Y30440D01*
X59490D01*
X59450Y30480D01*
X59410Y30440D01*
X59370D01*
X59410Y30400D01*
X59370Y30360D01*
X59410D01*
X59450Y30320D01*
Y30360D02*
X59470Y30380D01*
X59490D01*
X59470Y30400D01*
X59490Y30420D01*
X59470D01*
X59450Y30440D01*
X59430Y30420D01*
X59410D01*
X59430Y30400D01*
X59410Y30380D01*
X59430D01*
X59450Y30360D01*
X50950Y28420D02*
X50990Y28460D01*
X51030D01*
X50990Y28500D01*
X51030Y28540D01*
X50990D01*
X50950Y28580D01*
X50910Y28540D01*
X50870D01*
X50910Y28500D01*
X50870Y28460D01*
X50910D01*
X50950Y28420D01*
Y28460D02*
X50970Y28480D01*
X50990D01*
X50970Y28500D01*
X50990Y28520D01*
X50970D01*
X50950Y28540D01*
X50930Y28520D01*
X50910D01*
X50930Y28500D01*
X50910Y28480D01*
X50930D01*
X50950Y28460D01*
X39400Y28470D02*
X39440Y28510D01*
X39480D01*
X39440Y28550D01*
X39480Y28590D01*
X39440D01*
X39400Y28630D01*
X39360Y28590D01*
X39320D01*
X39360Y28550D01*
X39320Y28510D01*
X39360D01*
X39400Y28470D01*
Y28510D02*
X39420Y28530D01*
X39440D01*
X39420Y28550D01*
X39440Y28570D01*
X39420D01*
X39400Y28590D01*
X39380Y28570D01*
X39360D01*
X39380Y28550D01*
X39360Y28530D01*
X39380D01*
X39400Y28510D01*
X17550Y25620D02*
X17590Y25660D01*
X17630D01*
X17590Y25700D01*
X17630Y25740D01*
X17590D01*
X17550Y25780D01*
X17510Y25740D01*
X17470D01*
X17510Y25700D01*
X17470Y25660D01*
X17510D01*
X17550Y25620D01*
Y25660D02*
X17570Y25680D01*
X17590D01*
X17570Y25700D01*
X17590Y25720D01*
X17570D01*
X17550Y25740D01*
X17530Y25720D01*
X17510D01*
X17530Y25700D01*
X17510Y25680D01*
X17530D01*
X17550Y25660D01*
X10720Y37070D02*
X10760Y37150D01*
X10720Y37230D01*
X10800Y37190D01*
X10880Y37230D01*
X10840Y37150D01*
X10880Y37070D01*
X10800Y37110D01*
X10720Y37070D01*
X10760Y37110D02*
X10780Y37150D01*
X10760Y37190D01*
X10800Y37170D01*
X10840Y37190D01*
X10820Y37150D01*
X10840Y37110D01*
X10800Y37130D01*
X10760Y37110D01*
X40720Y22620D02*
X40760Y22700D01*
X40720Y22780D01*
X40800Y22740D01*
X40880Y22780D01*
X40840Y22700D01*
X40880Y22620D01*
X40800Y22660D01*
X40720Y22620D01*
X40760Y22660D02*
X40780Y22700D01*
X40760Y22740D01*
X40800Y22720D01*
X40840Y22740D01*
X40820Y22700D01*
X40840Y22660D01*
X40800Y22680D01*
X40760Y22660D01*
X40770Y20670D02*
X40810Y20750D01*
X40770Y20830D01*
X40850Y20790D01*
X40930Y20830D01*
X40890Y20750D01*
X40930Y20670D01*
X40850Y20710D01*
X40770Y20670D01*
X40810Y20710D02*
X40830Y20750D01*
X40810Y20790D01*
X40850Y20770D01*
X40890Y20790D01*
X40870Y20750D01*
X40890Y20710D01*
X40850Y20730D01*
X40810Y20710D01*
X45770Y32370D02*
X45810Y32450D01*
X45770Y32530D01*
X45850Y32490D01*
X45930Y32530D01*
X45890Y32450D01*
X45930Y32370D01*
X45850Y32410D01*
X45770Y32370D01*
X45810Y32410D02*
X45830Y32450D01*
X45810Y32490D01*
X45850Y32470D01*
X45890Y32490D01*
X45870Y32450D01*
X45890Y32410D01*
X45850Y32430D01*
X45810Y32410D01*
X44420Y33270D02*
X44460Y33350D01*
X44420Y33430D01*
X44500Y33390D01*
X44580Y33430D01*
X44540Y33350D01*
X44580Y33270D01*
X44500Y33310D01*
X44420Y33270D01*
X44460Y33310D02*
X44480Y33350D01*
X44460Y33390D01*
X44500Y33370D01*
X44540Y33390D01*
X44520Y33350D01*
X44540Y33310D01*
X44500Y33330D01*
X44460Y33310D01*
X37420Y33220D02*
X37460Y33300D01*
X37420Y33380D01*
X37500Y33340D01*
X37580Y33380D01*
X37540Y33300D01*
X37580Y33220D01*
X37500Y33260D01*
X37420Y33220D01*
X37460Y33260D02*
X37480Y33300D01*
X37460Y33340D01*
X37500Y33320D01*
X37540Y33340D01*
X37520Y33300D01*
X37540Y33260D01*
X37500Y33280D01*
X37460Y33260D01*
X18820Y32770D02*
X18860Y32850D01*
X18820Y32930D01*
X18900Y32890D01*
X18980Y32930D01*
X18940Y32850D01*
X18980Y32770D01*
X18900Y32810D01*
X18820Y32770D01*
X18860Y32810D02*
X18880Y32850D01*
X18860Y32890D01*
X18900Y32870D01*
X18940Y32890D01*
X18920Y32850D01*
X18940Y32810D01*
X18900Y32830D01*
X18860Y32810D01*
X32620Y17220D02*
X32660Y17300D01*
X32620Y17380D01*
X32700Y17340D01*
X32780Y17380D01*
X32740Y17300D01*
X32780Y17220D01*
X32700Y17260D01*
X32620Y17220D01*
X32660Y17260D02*
X32680Y17300D01*
X32660Y17340D01*
X32700Y17320D01*
X32740Y17340D01*
X32720Y17300D01*
X32740Y17260D01*
X32700Y17280D01*
X32660Y17260D01*
X15450Y27970D02*
X15490Y28010D01*
X15530D01*
X15490Y28050D01*
X15530Y28090D01*
X15490D01*
X15450Y28130D01*
X15410Y28090D01*
X15370D01*
X15410Y28050D01*
X15370Y28010D01*
X15410D01*
X15450Y27970D01*
Y28010D02*
X15470Y28030D01*
X15490D01*
X15470Y28050D01*
X15490Y28070D01*
X15470D01*
X15450Y28090D01*
X15430Y28070D01*
X15410D01*
X15430Y28050D01*
X15410Y28030D01*
X15430D01*
X15450Y28010D01*
X15520Y28920D02*
X15560Y29000D01*
X15520Y29080D01*
X15600Y29040D01*
X15680Y29080D01*
X15640Y29000D01*
X15680Y28920D01*
X15600Y28960D01*
X15520Y28920D01*
X15560Y28960D02*
X15580Y29000D01*
X15560Y29040D01*
X15600Y29020D01*
X15640Y29040D01*
X15620Y29000D01*
X15640Y28960D01*
X15600Y28980D01*
X15560Y28960D01*
X22620Y19170D02*
X22660Y19250D01*
X22620Y19330D01*
X22700Y19290D01*
X22780Y19330D01*
X22740Y19250D01*
X22780Y19170D01*
X22700Y19210D01*
X22620Y19170D01*
X22660Y19210D02*
X22680Y19250D01*
X22660Y19290D01*
X22700Y19270D01*
X22740Y19290D01*
X22720Y19250D01*
X22740Y19210D01*
X22700Y19230D01*
X22660Y19210D01*
X21270Y20120D02*
X21310Y20200D01*
X21270Y20280D01*
X21350Y20240D01*
X21430Y20280D01*
X21390Y20200D01*
X21430Y20120D01*
X21350Y20160D01*
X21270Y20120D01*
X21310Y20160D02*
X21330Y20200D01*
X21310Y20240D01*
X21350Y20220D01*
X21390Y20240D01*
X21370Y20200D01*
X21390Y20160D01*
X21350Y20180D01*
X21310Y20160D01*
X20420Y21420D02*
X20460Y21500D01*
X20420Y21580D01*
X20500Y21540D01*
X20580Y21580D01*
X20540Y21500D01*
X20580Y21420D01*
X20500Y21460D01*
X20420Y21420D01*
X20460Y21460D02*
X20480Y21500D01*
X20460Y21540D01*
X20500Y21520D01*
X20540Y21540D01*
X20520Y21500D01*
X20540Y21460D01*
X20500Y21480D01*
X20460Y21460D01*
X19970Y27370D02*
X20010Y27450D01*
X19970Y27530D01*
X20050Y27490D01*
X20130Y27530D01*
X20090Y27450D01*
X20130Y27370D01*
X20050Y27410D01*
X19970Y27370D01*
X20010Y27410D02*
X20030Y27450D01*
X20010Y27490D01*
X20050Y27470D01*
X20090Y27490D01*
X20070Y27450D01*
X20090Y27410D01*
X20050Y27430D01*
X20010Y27410D01*
X8020Y16270D02*
X8060Y16350D01*
X8020Y16430D01*
X8100Y16390D01*
X8180Y16430D01*
X8140Y16350D01*
X8180Y16270D01*
X8100Y16310D01*
X8020Y16270D01*
X8060Y16310D02*
X8080Y16350D01*
X8060Y16390D01*
X8100Y16370D01*
X8140Y16390D01*
X8120Y16350D01*
X8140Y16310D01*
X8100Y16330D01*
X8060Y16310D01*
X11100Y15970D02*
X11140Y16010D01*
X11180D01*
X11140Y16050D01*
X11180Y16090D01*
X11140D01*
X11100Y16130D01*
X11060Y16090D01*
X11020D01*
X11060Y16050D01*
X11020Y16010D01*
X11060D01*
X11100Y15970D01*
Y16010D02*
X11120Y16030D01*
X11140D01*
X11120Y16050D01*
X11140Y16070D01*
X11120D01*
X11100Y16090D01*
X11080Y16070D01*
X11060D01*
X11080Y16050D01*
X11060Y16030D01*
X11080D01*
X11100Y16010D01*
X11620Y14920D02*
X11660Y15000D01*
X11620Y15080D01*
X11700Y15040D01*
X11780Y15080D01*
X11740Y15000D01*
X11780Y14920D01*
X11700Y14960D01*
X11620Y14920D01*
X11660Y14960D02*
X11680Y15000D01*
X11660Y15040D01*
X11700Y15020D01*
X11740Y15040D01*
X11720Y15000D01*
X11740Y14960D01*
X11700Y14980D01*
X11660Y14960D01*
X9900Y14420D02*
X9940Y14460D01*
X9980D01*
X9940Y14500D01*
X9980Y14540D01*
X9940D01*
X9900Y14580D01*
X9860Y14540D01*
X9820D01*
X9860Y14500D01*
X9820Y14460D01*
X9860D01*
X9900Y14420D01*
Y14460D02*
X9920Y14480D01*
X9940D01*
X9920Y14500D01*
X9940Y14520D01*
X9920D01*
X9900Y14540D01*
X9880Y14520D01*
X9860D01*
X9880Y14500D01*
X9860Y14480D01*
X9880D01*
X9900Y14460D01*
X14120Y29620D02*
X14160Y29700D01*
X14120Y29780D01*
X14200Y29740D01*
X14280Y29780D01*
X14240Y29700D01*
X14280Y29620D01*
X14200Y29660D01*
X14120Y29620D01*
X14160Y29660D02*
X14180Y29700D01*
X14160Y29740D01*
X14200Y29720D01*
X14240Y29740D01*
X14220Y29700D01*
X14240Y29660D01*
X14200Y29680D01*
X14160Y29660D01*
X53050Y4370D02*
X53090Y4410D01*
X53130D01*
X53090Y4450D01*
X53130Y4490D01*
X53090D01*
X53050Y4530D01*
X53010Y4490D01*
X52970D01*
X53010Y4450D01*
X52970Y4410D01*
X53010D01*
X53050Y4370D01*
Y4410D02*
X53070Y4430D01*
X53090D01*
X53070Y4450D01*
X53090Y4470D01*
X53070D01*
X53050Y4490D01*
X53030Y4470D01*
X53010D01*
X53030Y4450D01*
X53010Y4430D01*
X53030D01*
X53050Y4410D01*
X56300Y4070D02*
X56340Y4110D01*
X56380D01*
X56340Y4150D01*
X56380Y4190D01*
X56340D01*
X56300Y4230D01*
X56260Y4190D01*
X56220D01*
X56260Y4150D01*
X56220Y4110D01*
X56260D01*
X56300Y4070D01*
Y4110D02*
X56320Y4130D01*
X56340D01*
X56320Y4150D01*
X56340Y4170D01*
X56320D01*
X56300Y4190D01*
X56280Y4170D01*
X56260D01*
X56280Y4150D01*
X56260Y4130D01*
X56280D01*
X56300Y4110D01*
X56700Y6320D02*
X56740Y6360D01*
X56780D01*
X56740Y6400D01*
X56780Y6440D01*
X56740D01*
X56700Y6480D01*
X56660Y6440D01*
X56620D01*
X56660Y6400D01*
X56620Y6360D01*
X56660D01*
X56700Y6320D01*
Y6360D02*
X56720Y6380D01*
X56740D01*
X56720Y6400D01*
X56740Y6420D01*
X56720D01*
X56700Y6440D01*
X56680Y6420D01*
X56660D01*
X56680Y6400D01*
X56660Y6380D01*
X56680D01*
X56700Y6360D01*
X18470Y11070D02*
X18510Y11150D01*
X18470Y11230D01*
X18550Y11190D01*
X18630Y11230D01*
X18590Y11150D01*
X18630Y11070D01*
X18550Y11110D01*
X18470Y11070D01*
X18510Y11110D02*
X18530Y11150D01*
X18510Y11190D01*
X18550Y11170D01*
X18590Y11190D01*
X18570Y11150D01*
X18590Y11110D01*
X18550Y11130D01*
X18510Y11110D01*
X17270Y16220D02*
X17310Y16300D01*
X17270Y16380D01*
X17350Y16340D01*
X17430Y16380D01*
X17390Y16300D01*
X17430Y16220D01*
X17350Y16260D01*
X17270Y16220D01*
X17310Y16260D02*
X17330Y16300D01*
X17310Y16340D01*
X17350Y16320D01*
X17390Y16340D01*
X17370Y16300D01*
X17390Y16260D01*
X17350Y16280D01*
X17310Y16260D01*
X13950Y18620D02*
X13990Y18660D01*
X14030D01*
X13990Y18700D01*
X14030Y18740D01*
X13990D01*
X13950Y18780D01*
X13910Y18740D01*
X13870D01*
X13910Y18700D01*
X13870Y18660D01*
X13910D01*
X13950Y18620D01*
Y18660D02*
X13970Y18680D01*
X13990D01*
X13970Y18700D01*
X13990Y18720D01*
X13970D01*
X13950Y18740D01*
X13930Y18720D01*
X13910D01*
X13930Y18700D01*
X13910Y18680D01*
X13930D01*
X13950Y18660D01*
X5600Y18170D02*
X5640Y18210D01*
X5680D01*
X5640Y18250D01*
X5680Y18290D01*
X5640D01*
X5600Y18330D01*
X5560Y18290D01*
X5520D01*
X5560Y18250D01*
X5520Y18210D01*
X5560D01*
X5600Y18170D01*
Y18210D02*
X5620Y18230D01*
X5640D01*
X5620Y18250D01*
X5640Y18270D01*
X5620D01*
X5600Y18290D01*
X5580Y18270D01*
X5560D01*
X5580Y18250D01*
X5560Y18230D01*
X5580D01*
X5600Y18210D01*
X7150Y18270D02*
X7190Y18310D01*
X7230D01*
X7190Y18350D01*
X7230Y18390D01*
X7190D01*
X7150Y18430D01*
X7110Y18390D01*
X7070D01*
X7110Y18350D01*
X7070Y18310D01*
X7110D01*
X7150Y18270D01*
Y18310D02*
X7170Y18330D01*
X7190D01*
X7170Y18350D01*
X7190Y18370D01*
X7170D01*
X7150Y18390D01*
X7130Y18370D01*
X7110D01*
X7130Y18350D01*
X7110Y18330D01*
X7130D01*
X7150Y18310D01*
X10548Y14092D02*
X10588Y14132D01*
X10628D01*
X10588Y14172D01*
X10628Y14212D01*
X10588D01*
X10548Y14252D01*
X10508Y14212D01*
X10468D01*
X10508Y14172D01*
X10468Y14132D01*
X10508D01*
X10548Y14092D01*
Y14132D02*
X10568Y14152D01*
X10588D01*
X10568Y14172D01*
X10588Y14192D01*
X10568D01*
X10548Y14212D01*
X10528Y14192D01*
X10508D01*
X10528Y14172D01*
X10508Y14152D01*
X10528D01*
X10548Y14132D01*
X9720Y26670D02*
X9760Y26750D01*
X9720Y26830D01*
X9800Y26790D01*
X9880Y26830D01*
X9840Y26750D01*
X9880Y26670D01*
X9800Y26710D01*
X9720Y26670D01*
X9760Y26710D02*
X9780Y26750D01*
X9760Y26790D01*
X9800Y26770D01*
X9840Y26790D01*
X9820Y26750D01*
X9840Y26710D01*
X9800Y26730D01*
X9760Y26710D01*
X9920Y31720D02*
X9960Y31800D01*
X9920Y31880D01*
X10000Y31840D01*
X10080Y31880D01*
X10040Y31800D01*
X10080Y31720D01*
X10000Y31760D01*
X9920Y31720D01*
X9960Y31760D02*
X9980Y31800D01*
X9960Y31840D01*
X10000Y31820D01*
X10040Y31840D01*
X10020Y31800D01*
X10040Y31760D01*
X10000Y31780D01*
X9960Y31760D01*
D137*
X61035Y47050D02*
G03*
X61035Y47050I-80J0D01*
G01*
X57030D02*
G03*
X57030Y47050I-80J0D01*
G01*
X59030D02*
G03*
X59030Y47050I-80J0D01*
G01*
X51680Y46900D02*
G03*
X51680Y46900I-80J0D01*
G01*
X49680D02*
G03*
X49680Y46900I-80J0D01*
G01*
X53685D02*
G03*
X53685Y46900I-80J0D01*
G01*
X45835Y47200D02*
G03*
X45835Y47200I-80J0D01*
G01*
X41830D02*
G03*
X41830Y47200I-80J0D01*
G01*
X43830D02*
G03*
X43830Y47200I-80J0D01*
G01*
X23380Y21550D02*
G03*
X23380Y21550I-80J0D01*
G01*
X24380D02*
G03*
X24380Y21550I-80J0D01*
G01*
X25380D02*
G03*
X25380Y21550I-80J0D01*
G01*
X26380D02*
G03*
X26380Y21550I-80J0D01*
G01*
X27380D02*
G03*
X27380Y21550I-80J0D01*
G01*
X28380D02*
G03*
X28380Y21550I-80J0D01*
G01*
X29380D02*
G03*
X29380Y21550I-80J0D01*
G01*
X30380D02*
G03*
X30380Y21550I-80J0D01*
G01*
X31380D02*
G03*
X31380Y21550I-80J0D01*
G01*
X32380D02*
G03*
X32380Y21550I-80J0D01*
G01*
X33380D02*
G03*
X33380Y21550I-80J0D01*
G01*
X34380D02*
G03*
X34380Y21550I-80J0D01*
G01*
X34480Y32950D02*
G03*
X34480Y32950I-80J0D01*
G01*
X33480D02*
G03*
X33480Y32950I-80J0D01*
G01*
X32480D02*
G03*
X32480Y32950I-80J0D01*
G01*
X31480D02*
G03*
X31480Y32950I-80J0D01*
G01*
X30480D02*
G03*
X30480Y32950I-80J0D01*
G01*
X29480D02*
G03*
X29480Y32950I-80J0D01*
G01*
X28480D02*
G03*
X28480Y32950I-80J0D01*
G01*
X27480D02*
G03*
X27480Y32950I-80J0D01*
G01*
X26480D02*
G03*
X26480Y32950I-80J0D01*
G01*
X25480D02*
G03*
X25480Y32950I-80J0D01*
G01*
X24480D02*
G03*
X24480Y32950I-80J0D01*
G01*
X23480D02*
G03*
X23480Y32950I-80J0D01*
G01*
X36030Y22900D02*
G03*
X36030Y22900I-80J0D01*
G01*
Y23900D02*
G03*
X36030Y23900I-80J0D01*
G01*
Y24900D02*
G03*
X36030Y24900I-80J0D01*
G01*
Y25900D02*
G03*
X36030Y25900I-80J0D01*
G01*
Y26900D02*
G03*
X36030Y26900I-80J0D01*
G01*
X57630Y5550D02*
G03*
X57630Y5550I-80J0D01*
G01*
Y6050D02*
G03*
X57630Y6050I-80J0D01*
G01*
Y6550D02*
G03*
X57630Y6550I-80J0D01*
G01*
X52630Y28200D02*
G03*
X52630Y28200I-80J0D01*
G01*
X52130D02*
G03*
X52130Y28200I-80J0D01*
G01*
X51630D02*
G03*
X51630Y28200I-80J0D01*
G01*
X59430Y28000D02*
G03*
X59430Y28000I-80J0D01*
G01*
X59930D02*
G03*
X59930Y28000I-80J0D01*
G01*
X60430D02*
G03*
X60430Y28000I-80J0D01*
G01*
X45830Y28050D02*
G03*
X45830Y28050I-80J0D01*
G01*
Y27550D02*
G03*
X45830Y27550I-80J0D01*
G01*
Y27050D02*
G03*
X45830Y27050I-80J0D01*
G01*
X36580Y46200D02*
G03*
X36580Y46200I-80J0D01*
G01*
Y45200D02*
G03*
X36580Y45200I-80J0D01*
G01*
Y44200D02*
G03*
X36580Y44200I-80J0D01*
G01*
Y43200D02*
G03*
X36580Y43200I-80J0D01*
G01*
Y42200D02*
G03*
X36580Y42200I-80J0D01*
G01*
Y41200D02*
G03*
X36580Y41200I-80J0D01*
G01*
Y40200D02*
G03*
X36580Y40200I-80J0D01*
G01*
Y39200D02*
G03*
X36580Y39200I-80J0D01*
G01*
X25830Y46200D02*
G03*
X25830Y46200I-80J0D01*
G01*
Y45200D02*
G03*
X25830Y45200I-80J0D01*
G01*
Y44200D02*
G03*
X25830Y44200I-80J0D01*
G01*
Y43200D02*
G03*
X25830Y43200I-80J0D01*
G01*
Y42200D02*
G03*
X25830Y42200I-80J0D01*
G01*
Y41200D02*
G03*
X25830Y41200I-80J0D01*
G01*
Y40200D02*
G03*
X25830Y40200I-80J0D01*
G01*
Y39200D02*
G03*
X25830Y39200I-80J0D01*
G01*
D138*
X23340Y21550D02*
G03*
X23340Y21550I-40J0D01*
G01*
X24340D02*
G03*
X24340Y21550I-40J0D01*
G01*
X25340D02*
G03*
X25340Y21550I-40J0D01*
G01*
X26340D02*
G03*
X26340Y21550I-40J0D01*
G01*
X27340D02*
G03*
X27340Y21550I-40J0D01*
G01*
X28340D02*
G03*
X28340Y21550I-40J0D01*
G01*
X29340D02*
G03*
X29340Y21550I-40J0D01*
G01*
X30340D02*
G03*
X30340Y21550I-40J0D01*
G01*
X31340D02*
G03*
X31340Y21550I-40J0D01*
G01*
X32340D02*
G03*
X32340Y21550I-40J0D01*
G01*
X33340D02*
G03*
X33340Y21550I-40J0D01*
G01*
X34340D02*
G03*
X34340Y21550I-40J0D01*
G01*
X34440Y32950D02*
G03*
X34440Y32950I-40J0D01*
G01*
X33440D02*
G03*
X33440Y32950I-40J0D01*
G01*
X32440D02*
G03*
X32440Y32950I-40J0D01*
G01*
X31440D02*
G03*
X31440Y32950I-40J0D01*
G01*
X30440D02*
G03*
X30440Y32950I-40J0D01*
G01*
X29440D02*
G03*
X29440Y32950I-40J0D01*
G01*
X28440D02*
G03*
X28440Y32950I-40J0D01*
G01*
X27440D02*
G03*
X27440Y32950I-40J0D01*
G01*
X26440D02*
G03*
X26440Y32950I-40J0D01*
G01*
X25440D02*
G03*
X25440Y32950I-40J0D01*
G01*
X24440D02*
G03*
X24440Y32950I-40J0D01*
G01*
X23440D02*
G03*
X23440Y32950I-40J0D01*
G01*
X35990Y22900D02*
G03*
X35990Y22900I-40J0D01*
G01*
Y23900D02*
G03*
X35990Y23900I-40J0D01*
G01*
Y24900D02*
G03*
X35990Y24900I-40J0D01*
G01*
Y25900D02*
G03*
X35990Y25900I-40J0D01*
G01*
Y26900D02*
G03*
X35990Y26900I-40J0D01*
G01*
X57590Y5550D02*
G03*
X57590Y5550I-40J0D01*
G01*
Y6050D02*
G03*
X57590Y6050I-40J0D01*
G01*
Y6550D02*
G03*
X57590Y6550I-40J0D01*
G01*
X52590Y28200D02*
G03*
X52590Y28200I-40J0D01*
G01*
X52090D02*
G03*
X52090Y28200I-40J0D01*
G01*
X51590D02*
G03*
X51590Y28200I-40J0D01*
G01*
X59390Y28000D02*
G03*
X59390Y28000I-40J0D01*
G01*
X59890D02*
G03*
X59890Y28000I-40J0D01*
G01*
X60390D02*
G03*
X60390Y28000I-40J0D01*
G01*
X45790Y28050D02*
G03*
X45790Y28050I-40J0D01*
G01*
Y27550D02*
G03*
X45790Y27550I-40J0D01*
G01*
Y27050D02*
G03*
X45790Y27050I-40J0D01*
G01*
X36540Y46200D02*
G03*
X36540Y46200I-40J0D01*
G01*
Y45200D02*
G03*
X36540Y45200I-40J0D01*
G01*
Y44200D02*
G03*
X36540Y44200I-40J0D01*
G01*
Y43200D02*
G03*
X36540Y43200I-40J0D01*
G01*
Y42200D02*
G03*
X36540Y42200I-40J0D01*
G01*
Y41200D02*
G03*
X36540Y41200I-40J0D01*
G01*
Y40200D02*
G03*
X36540Y40200I-40J0D01*
G01*
Y39200D02*
G03*
X36540Y39200I-40J0D01*
G01*
X25790Y46200D02*
G03*
X25790Y46200I-40J0D01*
G01*
Y45200D02*
G03*
X25790Y45200I-40J0D01*
G01*
Y44200D02*
G03*
X25790Y44200I-40J0D01*
G01*
Y43200D02*
G03*
X25790Y43200I-40J0D01*
G01*
Y42200D02*
G03*
X25790Y42200I-40J0D01*
G01*
Y41200D02*
G03*
X25790Y41200I-40J0D01*
G01*
Y40200D02*
G03*
X25790Y40200I-40J0D01*
G01*
Y39200D02*
G03*
X25790Y39200I-40J0D01*
G01*
M02*
