G04*
G04 #@! TF.GenerationSoftware,Altium Limited,Altium Designer,21.3.2 (30)*
G04*
G04 Layer_Color=16711935*
%FSLAX24Y24*%
%MOIN*%
G70*
G04*
G04 #@! TF.SameCoordinates,2D7B45D3-2C2D-4D38-8684-C2D637B247D8*
G04*
G04*
G04 #@! TF.FilePolarity,Negative*
G04*
G01*
G75*
%ADD77C,0.0678*%
%ADD78R,0.0867X0.1064*%
%ADD79C,0.0710*%
%ADD80R,0.0710X0.0710*%
%ADD81R,0.0678X0.0678*%
%ADD82O,0.1950X0.1005*%
%ADD83O,0.1005X0.1950*%
%ADD84C,0.1180*%
%ADD85C,0.1280*%
%ADD86C,0.0840*%
%ADD87C,0.0682*%
%ADD88R,0.0682X0.0682*%
%ADD89C,0.0770*%
%ADD90C,0.0867*%
%ADD91C,0.0671*%
%ADD92R,0.0671X0.0671*%
%ADD93R,0.0671X0.0671*%
%ADD94R,0.0678X0.0678*%
%ADD95C,0.0730*%
%ADD96P,0.0790X8X22.5*%
%ADD97O,0.0867X0.0474*%
%ADD98O,0.0867X0.0474*%
%ADD99O,0.0474X0.0867*%
%ADD100O,0.0474X0.0867*%
%ADD101C,0.1299*%
%ADD102C,0.1379*%
%ADD103C,0.0380*%
%ADD104C,0.0580*%
D77*
X60950Y17650D02*
D03*
X56050Y539D02*
D03*
X55050D02*
D03*
X47050D02*
D03*
X46050D02*
D03*
X60950Y14650D02*
D03*
Y15650D02*
D03*
Y16650D02*
D03*
X61300Y23050D02*
D03*
Y24050D02*
D03*
Y25050D02*
D03*
D78*
X60955Y47050D02*
D03*
X56950D02*
D03*
X58950D02*
D03*
X51600Y46900D02*
D03*
X49600D02*
D03*
X53605D02*
D03*
X45755Y47200D02*
D03*
X41750D02*
D03*
X43750D02*
D03*
D79*
X36700Y16150D02*
D03*
X37700D02*
D03*
X23100Y16650D02*
D03*
X22100D02*
D03*
X24100D02*
D03*
X25100D02*
D03*
X26100D02*
D03*
D80*
X35700Y16150D02*
D03*
X21100Y16650D02*
D03*
D81*
X54050Y539D02*
D03*
X45050D02*
D03*
D82*
X2600Y44690D02*
D03*
Y47150D02*
D03*
D83*
X710Y45870D02*
D03*
D84*
X10800Y47450D02*
D03*
X6800D02*
D03*
X8800D02*
D03*
X7200Y1750D02*
D03*
X9200D02*
D03*
X11200D02*
D03*
X13200D02*
D03*
D85*
X46274Y37100D02*
D03*
X41550D02*
D03*
X46350Y41903D02*
D03*
X41550D02*
D03*
X43912Y36313D02*
D03*
X54162Y37237D02*
D03*
X49438D02*
D03*
X54238Y42041D02*
D03*
X49438D02*
D03*
X51800Y36450D02*
D03*
X61862Y37287D02*
D03*
X57138D02*
D03*
X61938Y42091D02*
D03*
X57138D02*
D03*
X59500Y36500D02*
D03*
D86*
X51750Y1589D02*
D03*
X50750D02*
D03*
X49750D02*
D03*
D87*
X2364Y879D02*
D03*
X3364D02*
D03*
X4364D02*
D03*
X2364Y17107D02*
D03*
X3364D02*
D03*
X4364D02*
D03*
X1364D02*
D03*
D88*
Y879D02*
D03*
D89*
X16400Y46650D02*
D03*
Y45150D02*
D03*
D90*
X23671Y29984D02*
D03*
Y24079D02*
D03*
X24655D02*
D03*
X25639D02*
D03*
X26624D02*
D03*
X27608D02*
D03*
X28592D02*
D03*
X29576D02*
D03*
X30561D02*
D03*
X31545D02*
D03*
X32529D02*
D03*
X33513D02*
D03*
X34498D02*
D03*
Y29984D02*
D03*
X33513D02*
D03*
X32529D02*
D03*
X31545D02*
D03*
X30561D02*
D03*
X29576D02*
D03*
X28592D02*
D03*
X27608D02*
D03*
X26624D02*
D03*
X25639D02*
D03*
X24655D02*
D03*
X34498Y29000D02*
D03*
Y28016D02*
D03*
Y27032D02*
D03*
X27116Y29000D02*
D03*
X28100D02*
D03*
X22687Y24571D02*
D03*
Y25555D02*
D03*
Y26539D02*
D03*
Y27524D02*
D03*
Y28508D02*
D03*
Y29492D02*
D03*
D91*
X23300Y21550D02*
D03*
X24300D02*
D03*
X25300D02*
D03*
X26300D02*
D03*
X27300D02*
D03*
X28300D02*
D03*
X29300D02*
D03*
X30300D02*
D03*
X31300D02*
D03*
X32300D02*
D03*
X33300D02*
D03*
X34400Y32950D02*
D03*
X33400D02*
D03*
X32400D02*
D03*
X31400D02*
D03*
X30400D02*
D03*
X29400D02*
D03*
X28400D02*
D03*
X27400D02*
D03*
X26400D02*
D03*
X25400D02*
D03*
X24400D02*
D03*
X35950Y22900D02*
D03*
Y23900D02*
D03*
Y24900D02*
D03*
Y25900D02*
D03*
X36500Y45200D02*
D03*
Y44200D02*
D03*
Y43200D02*
D03*
Y42200D02*
D03*
Y41200D02*
D03*
Y40200D02*
D03*
Y39200D02*
D03*
X25750Y46200D02*
D03*
Y45200D02*
D03*
Y44200D02*
D03*
Y43200D02*
D03*
Y42200D02*
D03*
Y41200D02*
D03*
Y40200D02*
D03*
D92*
X34300Y21550D02*
D03*
X23400Y32950D02*
D03*
D93*
X35950Y26900D02*
D03*
X36500Y46200D02*
D03*
X25750Y39200D02*
D03*
D94*
X60950Y13650D02*
D03*
X61300Y22050D02*
D03*
D95*
X58550Y775D02*
D03*
X60600D02*
D03*
X62850D02*
D03*
D96*
X57550D02*
D03*
X59600D02*
D03*
X61850D02*
D03*
D97*
X57550Y5550D02*
D03*
Y6550D02*
D03*
X45750Y28050D02*
D03*
Y27050D02*
D03*
D98*
X57550Y6050D02*
D03*
X45750Y27550D02*
D03*
D99*
X52550Y28200D02*
D03*
X51550D02*
D03*
X59350Y28000D02*
D03*
X60350D02*
D03*
D100*
X52050Y28200D02*
D03*
X59850Y28000D02*
D03*
D101*
X16751Y1245D02*
D03*
Y13844D02*
D03*
X26200D02*
D03*
Y1250D02*
D03*
X32851Y1195D02*
D03*
Y13794D02*
D03*
X42300D02*
D03*
D102*
Y1195D02*
D03*
D103*
X5939Y35772D02*
D03*
X37612Y20092D02*
D03*
X5950Y39400D02*
D03*
X26150Y29250D02*
D03*
X44800Y26700D02*
D03*
X14350Y13450D02*
D03*
X11650Y12650D02*
D03*
X8100Y26900D02*
D03*
X7300Y24500D02*
D03*
X5100Y28750D02*
D03*
X5000Y31550D02*
D03*
X58500Y6700D02*
D03*
X61100Y27750D02*
D03*
X59450Y30400D02*
D03*
X50950Y28500D02*
D03*
X39400Y28550D02*
D03*
X17550Y25700D02*
D03*
X15450Y28050D02*
D03*
X11100Y16050D02*
D03*
X9900Y14500D02*
D03*
X53050Y4450D02*
D03*
X56300Y4150D02*
D03*
X56700Y6400D02*
D03*
X13950Y18700D02*
D03*
X5600Y18250D02*
D03*
X7150Y18350D02*
D03*
X10548Y14172D02*
D03*
D104*
X10800Y37150D02*
D03*
X40800Y22700D02*
D03*
X40850Y20750D02*
D03*
X45850Y32450D02*
D03*
X44500Y33350D02*
D03*
X37500Y33300D02*
D03*
X18900Y32850D02*
D03*
X32700Y17300D02*
D03*
X15600Y29000D02*
D03*
X22700Y19250D02*
D03*
X21350Y20200D02*
D03*
X20500Y21500D02*
D03*
X20050Y27450D02*
D03*
X8100Y16350D02*
D03*
X11700Y15000D02*
D03*
X14200Y29700D02*
D03*
X18550Y11150D02*
D03*
X17350Y16300D02*
D03*
X9800Y26750D02*
D03*
X10000Y31800D02*
D03*
M02*
