G04*
G04 #@! TF.GenerationSoftware,Altium Limited,Altium Designer,21.3.2 (30)*
G04*
G04 Layer_Color=255*
%FSLAX24Y24*%
%MOIN*%
G70*
G04*
G04 #@! TF.SameCoordinates,2D7B45D3-2C2D-4D38-8684-C2D637B247D8*
G04*
G04*
G04 #@! TF.FilePolarity,Positive*
G04*
G01*
G75*
%ADD101C,0.1299*%
%ADD108C,0.0598*%
%ADD109R,0.0787X0.0984*%
%ADD110C,0.0630*%
%ADD111R,0.0630X0.0630*%
%ADD112R,0.0598X0.0598*%
%ADD113O,0.1870X0.0925*%
%ADD114O,0.0925X0.1870*%
%ADD115C,0.1100*%
%ADD116C,0.1200*%
%ADD117C,0.0760*%
%ADD118C,0.0602*%
%ADD119R,0.0602X0.0602*%
%ADD120C,0.0690*%
%ADD121C,0.0787*%
%ADD122C,0.0591*%
%ADD123R,0.0591X0.0591*%
%ADD124R,0.0591X0.0591*%
%ADD125R,0.0598X0.0598*%
%ADD126C,0.0650*%
%ADD127P,0.0704X8X22.5*%
%ADD128O,0.0787X0.0394*%
%ADD129O,0.0787X0.0394*%
%ADD130O,0.0394X0.0787*%
%ADD131O,0.0394X0.0787*%
D101*
X16751Y1245D02*
D03*
Y13844D02*
D03*
X26200D02*
D03*
Y1250D02*
D03*
X42300Y1195D02*
D03*
X32851D02*
D03*
Y13794D02*
D03*
X42300D02*
D03*
D108*
X60950Y17650D02*
D03*
X56050Y539D02*
D03*
X55050D02*
D03*
X47050D02*
D03*
X46050D02*
D03*
X60950Y14650D02*
D03*
Y15650D02*
D03*
Y16650D02*
D03*
X61300Y23050D02*
D03*
Y24050D02*
D03*
Y25050D02*
D03*
D109*
X60955Y47050D02*
D03*
X56950D02*
D03*
X58950D02*
D03*
X51600Y46900D02*
D03*
X49600D02*
D03*
X53605D02*
D03*
X45755Y47200D02*
D03*
X41750D02*
D03*
X43750D02*
D03*
D110*
X36700Y16150D02*
D03*
X37700D02*
D03*
X23100Y16650D02*
D03*
X22100D02*
D03*
X24100D02*
D03*
X25100D02*
D03*
X26100D02*
D03*
D111*
X35700Y16150D02*
D03*
X21100Y16650D02*
D03*
D112*
X54050Y539D02*
D03*
X45050D02*
D03*
D113*
X2600Y44690D02*
D03*
Y47150D02*
D03*
D114*
X710Y45870D02*
D03*
D115*
X10800Y47450D02*
D03*
X6800D02*
D03*
X8800D02*
D03*
X7200Y1750D02*
D03*
X9200D02*
D03*
X11200D02*
D03*
X13200D02*
D03*
D116*
X46274Y37100D02*
D03*
X41550D02*
D03*
X46350Y41903D02*
D03*
X41550D02*
D03*
X43912Y36313D02*
D03*
X54162Y37237D02*
D03*
X49438D02*
D03*
X54238Y42041D02*
D03*
X49438D02*
D03*
X51800Y36450D02*
D03*
X61862Y37287D02*
D03*
X57138D02*
D03*
X61938Y42091D02*
D03*
X57138D02*
D03*
X59500Y36500D02*
D03*
D117*
X51750Y1589D02*
D03*
X50750D02*
D03*
X49750D02*
D03*
D118*
X2364Y879D02*
D03*
X3364D02*
D03*
X4364D02*
D03*
X2364Y17107D02*
D03*
X3364D02*
D03*
X4364D02*
D03*
X1364D02*
D03*
D119*
Y879D02*
D03*
D120*
X16400Y46650D02*
D03*
Y45150D02*
D03*
D121*
X23671Y29984D02*
D03*
Y24079D02*
D03*
X24655D02*
D03*
X25639D02*
D03*
X26624D02*
D03*
X27608D02*
D03*
X28592D02*
D03*
X29576D02*
D03*
X30561D02*
D03*
X31545D02*
D03*
X32529D02*
D03*
X33513D02*
D03*
X34498D02*
D03*
Y29984D02*
D03*
X33513D02*
D03*
X32529D02*
D03*
X31545D02*
D03*
X30561D02*
D03*
X29576D02*
D03*
X28592D02*
D03*
X27608D02*
D03*
X26624D02*
D03*
X25639D02*
D03*
X24655D02*
D03*
X34498Y29000D02*
D03*
Y28016D02*
D03*
Y27032D02*
D03*
X27116Y29000D02*
D03*
X28100D02*
D03*
X22687Y24571D02*
D03*
Y25555D02*
D03*
Y26539D02*
D03*
Y27524D02*
D03*
Y28508D02*
D03*
Y29492D02*
D03*
D122*
X23300Y21550D02*
D03*
X24300D02*
D03*
X25300D02*
D03*
X26300D02*
D03*
X27300D02*
D03*
X28300D02*
D03*
X29300D02*
D03*
X30300D02*
D03*
X31300D02*
D03*
X32300D02*
D03*
X33300D02*
D03*
X34400Y32950D02*
D03*
X33400D02*
D03*
X32400D02*
D03*
X31400D02*
D03*
X30400D02*
D03*
X29400D02*
D03*
X28400D02*
D03*
X27400D02*
D03*
X26400D02*
D03*
X25400D02*
D03*
X24400D02*
D03*
X35950Y22900D02*
D03*
Y23900D02*
D03*
Y24900D02*
D03*
Y25900D02*
D03*
X36500Y45200D02*
D03*
Y44200D02*
D03*
Y43200D02*
D03*
Y42200D02*
D03*
Y41200D02*
D03*
Y40200D02*
D03*
Y39200D02*
D03*
X25750Y46200D02*
D03*
Y45200D02*
D03*
Y44200D02*
D03*
Y43200D02*
D03*
Y42200D02*
D03*
Y41200D02*
D03*
Y40200D02*
D03*
D123*
X34300Y21550D02*
D03*
X23400Y32950D02*
D03*
D124*
X35950Y26900D02*
D03*
X36500Y46200D02*
D03*
X25750Y39200D02*
D03*
D125*
X60950Y13650D02*
D03*
X61300Y22050D02*
D03*
D126*
X58550Y775D02*
D03*
X60600D02*
D03*
X62850D02*
D03*
D127*
X57550D02*
D03*
X59600D02*
D03*
X61850D02*
D03*
D128*
X57550Y5550D02*
D03*
Y6550D02*
D03*
X45750Y28050D02*
D03*
Y27050D02*
D03*
D129*
X57550Y6050D02*
D03*
X45750Y27550D02*
D03*
D130*
X52550Y28200D02*
D03*
X51550D02*
D03*
X59350Y28000D02*
D03*
X60350D02*
D03*
D131*
X52050Y28200D02*
D03*
X59850Y28000D02*
D03*
M02*
