G04*
G04 #@! TF.GenerationSoftware,Altium Limited,Altium Designer,21.3.2 (30)*
G04*
G04 Layer_Color=16711935*
%FSLAX24Y24*%
%MOIN*%
G70*
G04*
G04 #@! TF.SameCoordinates,2D7B45D3-2C2D-4D38-8684-C2D637B247D8*
G04*
G04*
G04 #@! TF.FilePolarity,Positive*
G04*
G01*
G75*
%ADD11C,0.0050*%
%ADD12C,0.0079*%
%ADD134C,0.0039*%
D11*
X108Y328D02*
Y17650D01*
X5620D01*
Y328D02*
Y17650D01*
X108Y328D02*
X5620D01*
X27700Y45996D02*
X34000D01*
Y39304D02*
Y45996D01*
X27700Y39304D02*
X34000D01*
X27700D02*
Y45996D01*
X14980Y34661D02*
Y36039D01*
X12420Y34661D02*
Y36039D01*
Y34661D02*
X14980D01*
X12420Y36039D02*
X14980D01*
D12*
X1352Y79D02*
G03*
X1352Y79I-39J0D01*
G01*
X27119Y45406D02*
G03*
X27119Y45406I-39J0D01*
G01*
X12834Y33539D02*
G03*
X12834Y33539I-39J0D01*
G01*
D134*
X56959Y5270D02*
G03*
X56959Y6830I591J780D01*
G01*
X52830Y27609D02*
G03*
X51270Y27609I-780J591D01*
G01*
X59070Y28591D02*
G03*
X60630Y28591I780J-591D01*
G01*
X46341Y28330D02*
G03*
X46341Y26770I-591J-780D01*
G01*
X56959Y5270D02*
Y6830D01*
X51270Y27609D02*
X52830D01*
X59070Y28591D02*
X60630D01*
X46341Y26770D02*
Y28330D01*
X16210Y308D02*
X17292D01*
X15669Y1245D02*
X16210Y308D01*
X15669Y1245D02*
X16210Y2182D01*
X17292D01*
X17833Y1245D01*
X17292Y308D02*
X17833Y1245D01*
X16210Y12907D02*
X17292D01*
X15669Y13844D02*
X16210Y12907D01*
X15669Y13844D02*
X16210Y14781D01*
X17292D01*
X17833Y13844D01*
X17292Y12907D02*
X17833Y13844D01*
X25659Y12907D02*
X26741D01*
X25118Y13844D02*
X25659Y12907D01*
X25118Y13844D02*
X25659Y14781D01*
X26741D01*
X27282Y13844D01*
X26741Y12907D02*
X27282Y13844D01*
X25659Y313D02*
X26741D01*
X25118Y1250D02*
X25659Y313D01*
X25118Y1250D02*
X25659Y2187D01*
X26741D01*
X27282Y1250D01*
X26741Y313D02*
X27282Y1250D01*
X32310Y258D02*
X33392D01*
X31769Y1195D02*
X32310Y258D01*
X31769Y1195D02*
X32310Y2132D01*
X33392D01*
X33933Y1195D01*
X33392Y258D02*
X33933Y1195D01*
X33392Y12857D02*
X33933Y13794D01*
X33392Y14731D02*
X33933Y13794D01*
X32310Y14731D02*
X33392D01*
X31769Y13794D02*
X32310Y14731D01*
X31769Y13794D02*
X32310Y12857D01*
X33392D01*
X42841Y258D02*
X43382Y1195D01*
X42841Y2132D02*
X43382Y1195D01*
X41759Y2132D02*
X42841D01*
X41218Y1195D02*
X41759Y2132D01*
X41218Y1195D02*
X41759Y258D01*
X42841D01*
Y12857D02*
X43382Y13794D01*
X42841Y14731D02*
X43382Y13794D01*
X41759Y14731D02*
X42841D01*
X41218Y13794D02*
X41759Y14731D01*
X41218Y13794D02*
X41759Y12857D01*
X42841D01*
M02*
