G04*
G04 #@! TF.GenerationSoftware,Altium Limited,Altium Designer,21.3.2 (30)*
G04*
G04 Layer_Color=2752767*
%FSLAX24Y24*%
%MOIN*%
G70*
G04*
G04 #@! TF.SameCoordinates,4918C4AF-473F-441A-9CD2-E68DF055B6D3*
G04*
G04*
G04 #@! TF.FilePolarity,Positive*
G04*
G01*
G75*
%ADD133C,0.0020*%
%ADD134C,0.0027*%
%ADD135C,0.0013*%
D133*
X13620Y53920D02*
Y54080D01*
X13780D01*
Y53920D01*
X13620D01*
X15620D02*
Y54080D01*
X15780D01*
Y53920D01*
X15620D01*
X60966Y6781D02*
X60886Y6941D01*
X61046D01*
X60966Y6781D01*
X61950D02*
X61870Y6941D01*
X62030D01*
X61950Y6781D01*
X62934D02*
X62854Y6941D01*
X63014D01*
X62934Y6781D01*
X51332D02*
X51252Y6941D01*
X51411D01*
X51332Y6781D01*
X52316D02*
X52236Y6941D01*
X52396D01*
X52316Y6781D01*
X53300D02*
X53220Y6941D01*
X53380D01*
X53300Y6781D01*
X67605Y52770D02*
X67645Y52810D01*
X67685D01*
X67645Y52850D01*
X67685Y52890D01*
X67645D01*
X67605Y52930D01*
X67565Y52890D01*
X67525D01*
X67565Y52850D01*
X67525Y52810D01*
X67565D01*
X67605Y52770D01*
X63600D02*
X63640Y52810D01*
X63680D01*
X63640Y52850D01*
X63680Y52890D01*
X63640D01*
X63600Y52930D01*
X63560Y52890D01*
X63520D01*
X63560Y52850D01*
X63520Y52810D01*
X63560D01*
X63600Y52770D01*
X65600D02*
X65640Y52810D01*
X65680D01*
X65640Y52850D01*
X65680Y52890D01*
X65640D01*
X65600Y52930D01*
X65560Y52890D01*
X65520D01*
X65560Y52850D01*
X65520Y52810D01*
X65560D01*
X65600Y52770D01*
X58250Y52620D02*
X58290Y52660D01*
X58330D01*
X58290Y52700D01*
X58330Y52740D01*
X58290D01*
X58250Y52780D01*
X58210Y52740D01*
X58170D01*
X58210Y52700D01*
X58170Y52660D01*
X58210D01*
X58250Y52620D01*
X56250D02*
X56290Y52660D01*
X56330D01*
X56290Y52700D01*
X56330Y52740D01*
X56290D01*
X56250Y52780D01*
X56210Y52740D01*
X56170D01*
X56210Y52700D01*
X56170Y52660D01*
X56210D01*
X56250Y52620D01*
X60255D02*
X60295Y52660D01*
X60335D01*
X60295Y52700D01*
X60335Y52740D01*
X60295D01*
X60255Y52780D01*
X60215Y52740D01*
X60175D01*
X60215Y52700D01*
X60175Y52660D01*
X60215D01*
X60255Y52620D01*
X52405Y52920D02*
X52445Y52960D01*
X52485D01*
X52445Y53000D01*
X52485Y53040D01*
X52445D01*
X52405Y53080D01*
X52365Y53040D01*
X52325D01*
X52365Y53000D01*
X52325Y52960D01*
X52365D01*
X52405Y52920D01*
X48400D02*
X48440Y52960D01*
X48480D01*
X48440Y53000D01*
X48480Y53040D01*
X48440D01*
X48400Y53080D01*
X48360Y53040D01*
X48320D01*
X48360Y53000D01*
X48320Y52960D01*
X48360D01*
X48400Y52920D01*
X50400D02*
X50440Y52960D01*
X50480D01*
X50440Y53000D01*
X50480Y53040D01*
X50440D01*
X50400Y53080D01*
X50360Y53040D01*
X50320D01*
X50360Y53000D01*
X50320Y52960D01*
X50360D01*
X50400Y52920D01*
X43350Y21870D02*
X43270Y22030D01*
X43430D01*
X43350Y21870D01*
X42350D02*
X42270Y22030D01*
X42430D01*
X42350Y21870D01*
X44350D02*
X44270Y22030D01*
X44430D01*
X44350Y21870D01*
X9170Y50410D02*
X9210Y50490D01*
X9170Y50570D01*
X9250Y50530D01*
X9330Y50570D01*
X9290Y50490D01*
X9330Y50410D01*
X9250Y50450D01*
X9170Y50410D01*
Y52870D02*
X9210Y52950D01*
X9170Y53030D01*
X9250Y52990D01*
X9330Y53030D01*
X9290Y52950D01*
X9330Y52870D01*
X9250Y52910D01*
X9170Y52870D01*
X7320Y51630D02*
Y51590D01*
X7400D01*
Y51630D01*
X7440D01*
Y51710D01*
X7400D01*
Y51750D01*
X7320D01*
Y51710D01*
X7280D01*
Y51630D01*
X7320D01*
X52844Y42820D02*
X52884D01*
X52924Y42860D01*
X52964Y42820D01*
X53004D01*
Y42860D01*
X52964Y42900D01*
X53004Y42940D01*
Y42980D01*
X52964D01*
X52924Y42940D01*
X52884Y42980D01*
X52844D01*
Y42940D01*
X52884Y42900D01*
X52844Y42860D01*
Y42820D01*
X48120D02*
X48160D01*
X48200Y42860D01*
X48240Y42820D01*
X48280D01*
Y42860D01*
X48240Y42900D01*
X48280Y42940D01*
Y42980D01*
X48240D01*
X48200Y42940D01*
X48160Y42980D01*
X48120D01*
Y42940D01*
X48160Y42900D01*
X48120Y42860D01*
Y42820D01*
X52920Y47623D02*
X52960D01*
X53000Y47663D01*
X53040Y47623D01*
X53080D01*
Y47663D01*
X53040Y47703D01*
X53080Y47743D01*
Y47783D01*
X53040D01*
X53000Y47743D01*
X52960Y47783D01*
X52920D01*
Y47743D01*
X52960Y47703D01*
X52920Y47663D01*
Y47623D01*
X48120D02*
X48160D01*
X48200Y47663D01*
X48240Y47623D01*
X48280D01*
Y47663D01*
X48240Y47703D01*
X48280Y47743D01*
Y47783D01*
X48240D01*
X48200Y47743D01*
X48160Y47783D01*
X48120D01*
Y47743D01*
X48160Y47703D01*
X48120Y47663D01*
Y47623D01*
X50482Y42033D02*
X50522D01*
X50562Y42073D01*
X50602Y42033D01*
X50642D01*
Y42073D01*
X50602Y42113D01*
X50642Y42153D01*
Y42193D01*
X50602D01*
X50562Y42153D01*
X50522Y42193D01*
X50482D01*
Y42153D01*
X50522Y42113D01*
X50482Y42073D01*
Y42033D01*
X60732Y42957D02*
X60772D01*
X60812Y42997D01*
X60852Y42957D01*
X60892D01*
Y42997D01*
X60852Y43037D01*
X60892Y43077D01*
Y43117D01*
X60852D01*
X60812Y43077D01*
X60772Y43117D01*
X60732D01*
Y43077D01*
X60772Y43037D01*
X60732Y42997D01*
Y42957D01*
X56008D02*
X56048D01*
X56088Y42997D01*
X56128Y42957D01*
X56168D01*
Y42997D01*
X56128Y43037D01*
X56168Y43077D01*
Y43117D01*
X56128D01*
X56088Y43077D01*
X56048Y43117D01*
X56008D01*
Y43077D01*
X56048Y43037D01*
X56008Y42997D01*
Y42957D01*
X60808Y47761D02*
X60848D01*
X60888Y47801D01*
X60928Y47761D01*
X60968D01*
Y47801D01*
X60928Y47841D01*
X60968Y47881D01*
Y47921D01*
X60928D01*
X60888Y47881D01*
X60848Y47921D01*
X60808D01*
Y47881D01*
X60848Y47841D01*
X60808Y47801D01*
Y47761D01*
X56008D02*
X56048D01*
X56088Y47801D01*
X56128Y47761D01*
X56168D01*
Y47801D01*
X56128Y47841D01*
X56168Y47881D01*
Y47921D01*
X56128D01*
X56088Y47881D01*
X56048Y47921D01*
X56008D01*
Y47881D01*
X56048Y47841D01*
X56008Y47801D01*
Y47761D01*
X58370Y42170D02*
X58410D01*
X58450Y42210D01*
X58490Y42170D01*
X58530D01*
Y42210D01*
X58490Y42250D01*
X58530Y42290D01*
Y42330D01*
X58490D01*
X58450Y42290D01*
X58410Y42330D01*
X58370D01*
Y42290D01*
X58410Y42250D01*
X58370Y42210D01*
Y42170D01*
X68432Y43007D02*
X68472D01*
X68512Y43047D01*
X68552Y43007D01*
X68592D01*
Y43047D01*
X68552Y43087D01*
X68592Y43127D01*
Y43167D01*
X68552D01*
X68512Y43127D01*
X68472Y43167D01*
X68432D01*
Y43127D01*
X68472Y43087D01*
X68432Y43047D01*
Y43007D01*
X63708D02*
X63748D01*
X63788Y43047D01*
X63828Y43007D01*
X63868D01*
Y43047D01*
X63828Y43087D01*
X63868Y43127D01*
Y43167D01*
X63828D01*
X63788Y43127D01*
X63748Y43167D01*
X63708D01*
Y43127D01*
X63748Y43087D01*
X63708Y43047D01*
Y43007D01*
X68508Y47811D02*
X68548D01*
X68588Y47851D01*
X68628Y47811D01*
X68668D01*
Y47851D01*
X68628Y47891D01*
X68668Y47931D01*
Y47971D01*
X68628D01*
X68588Y47931D01*
X68548Y47971D01*
X68508D01*
Y47931D01*
X68548Y47891D01*
X68508Y47851D01*
Y47811D01*
X63708D02*
X63748D01*
X63788Y47851D01*
X63828Y47811D01*
X63868D01*
Y47851D01*
X63828Y47891D01*
X63868Y47931D01*
Y47971D01*
X63828D01*
X63788Y47931D01*
X63748Y47971D01*
X63708D01*
Y47931D01*
X63748Y47891D01*
X63708Y47851D01*
Y47811D01*
X66070Y42220D02*
X66110D01*
X66150Y42260D01*
X66190Y42220D01*
X66230D01*
Y42260D01*
X66190Y42300D01*
X66230Y42340D01*
Y42380D01*
X66190D01*
X66150Y42340D01*
X66110Y42380D01*
X66070D01*
Y42340D01*
X66110Y42300D01*
X66070Y42260D01*
Y42220D01*
X58320Y7389D02*
X58400Y7469D01*
X58480Y7389D01*
X58400Y7309D01*
X58320Y7389D01*
X57320D02*
X57400Y7469D01*
X57480Y7389D01*
X57400Y7309D01*
X57320Y7389D01*
X56320D02*
X56400Y7469D01*
X56480Y7389D01*
X56400Y7309D01*
X56320Y7389D01*
X8934Y6599D02*
Y6759D01*
X9094D01*
Y6599D01*
X8934D01*
X8974Y6639D02*
Y6719D01*
X9054D01*
Y6639D01*
X8974D01*
X9934Y6599D02*
Y6759D01*
X10094D01*
Y6599D01*
X9934D01*
X9974Y6639D02*
Y6719D01*
X10054D01*
Y6639D01*
X9974D01*
X10934Y6599D02*
Y6759D01*
X11094D01*
Y6599D01*
X10934D01*
X10974Y6639D02*
Y6719D01*
X11054D01*
Y6639D01*
X10974D01*
X7934Y6599D02*
Y6759D01*
X8094D01*
Y6599D01*
X7934D01*
X7974Y6639D02*
Y6719D01*
X8054D01*
Y6639D01*
X7974D01*
X8934Y22827D02*
Y22987D01*
X9094D01*
Y22827D01*
X8934D01*
X8974Y22867D02*
Y22947D01*
X9054D01*
Y22867D01*
X8974D01*
X9934Y22827D02*
Y22987D01*
X10094D01*
Y22827D01*
X9934D01*
X9974Y22867D02*
Y22947D01*
X10054D01*
Y22867D01*
X9974D01*
X10934Y22827D02*
Y22987D01*
X11094D01*
Y22827D01*
X10934D01*
X10974Y22867D02*
Y22947D01*
X11054D01*
Y22867D01*
X10974D01*
X7934Y22827D02*
Y22987D01*
X8094D01*
Y22827D01*
X7934D01*
X7974Y22867D02*
Y22947D01*
X8054D01*
Y22867D01*
X7974D01*
X23050Y52370D02*
X22970Y52530D01*
X23130D01*
X23050Y52370D01*
Y52410D02*
X23010Y52490D01*
X23090D01*
X23050Y52410D01*
Y50870D02*
X22970Y51030D01*
X23130D01*
X23050Y50870D01*
Y50910D02*
X23010Y50990D01*
X23090D01*
X23050Y50910D01*
X30241Y35784D02*
X30321Y35864D01*
X30401Y35784D01*
X30321Y35704D01*
X30241Y35784D01*
Y29879D02*
X30321Y29959D01*
X30401Y29879D01*
X30321Y29799D01*
X30241Y29879D01*
X31225D02*
X31305Y29959D01*
X31385Y29879D01*
X31305Y29799D01*
X31225Y29879D01*
X32209D02*
X32289Y29959D01*
X32369Y29879D01*
X32289Y29799D01*
X32209Y29879D01*
X33194D02*
X33274Y29959D01*
X33354Y29879D01*
X33274Y29799D01*
X33194Y29879D01*
X34178D02*
X34258Y29959D01*
X34338Y29879D01*
X34258Y29799D01*
X34178Y29879D01*
X35162D02*
X35242Y29959D01*
X35322Y29879D01*
X35242Y29799D01*
X35162Y29879D01*
X36146D02*
X36226Y29959D01*
X36306Y29879D01*
X36226Y29799D01*
X36146Y29879D01*
X37131D02*
X37211Y29959D01*
X37291Y29879D01*
X37211Y29799D01*
X37131Y29879D01*
X38115D02*
X38195Y29959D01*
X38275Y29879D01*
X38195Y29799D01*
X38115Y29879D01*
X39099D02*
X39179Y29959D01*
X39259Y29879D01*
X39179Y29799D01*
X39099Y29879D01*
X40083D02*
X40163Y29959D01*
X40243Y29879D01*
X40163Y29799D01*
X40083Y29879D01*
X41068D02*
X41148Y29959D01*
X41228Y29879D01*
X41148Y29799D01*
X41068Y29879D01*
Y35784D02*
X41148Y35864D01*
X41228Y35784D01*
X41148Y35704D01*
X41068Y35784D01*
X40083D02*
X40163Y35864D01*
X40243Y35784D01*
X40163Y35704D01*
X40083Y35784D01*
X39099D02*
X39179Y35864D01*
X39259Y35784D01*
X39179Y35704D01*
X39099Y35784D01*
X38115D02*
X38195Y35864D01*
X38275Y35784D01*
X38195Y35704D01*
X38115Y35784D01*
X37131D02*
X37211Y35864D01*
X37291Y35784D01*
X37211Y35704D01*
X37131Y35784D01*
X36146D02*
X36226Y35864D01*
X36306Y35784D01*
X36226Y35704D01*
X36146Y35784D01*
X35162D02*
X35242Y35864D01*
X35322Y35784D01*
X35242Y35704D01*
X35162Y35784D01*
X34178D02*
X34258Y35864D01*
X34338Y35784D01*
X34258Y35704D01*
X34178Y35784D01*
X33194D02*
X33274Y35864D01*
X33354Y35784D01*
X33274Y35704D01*
X33194Y35784D01*
X32209D02*
X32289Y35864D01*
X32369Y35784D01*
X32289Y35704D01*
X32209Y35784D01*
X31225D02*
X31305Y35864D01*
X31385Y35784D01*
X31305Y35704D01*
X31225Y35784D01*
X41068Y34800D02*
X41148Y34880D01*
X41228Y34800D01*
X41148Y34720D01*
X41068Y34800D01*
Y33816D02*
X41148Y33896D01*
X41228Y33816D01*
X41148Y33736D01*
X41068Y33816D01*
Y32831D02*
X41148Y32912D01*
X41228Y32831D01*
X41148Y32752D01*
X41068Y32831D01*
X33686Y34800D02*
X33766Y34880D01*
X33846Y34800D01*
X33766Y34720D01*
X33686Y34800D01*
X34670D02*
X34750Y34880D01*
X34830Y34800D01*
X34750Y34720D01*
X34670Y34800D01*
X29257Y30371D02*
X29337Y30451D01*
X29417Y30371D01*
X29337Y30291D01*
X29257Y30371D01*
Y31355D02*
X29337Y31435D01*
X29417Y31355D01*
X29337Y31275D01*
X29257Y31355D01*
Y32339D02*
X29337Y32419D01*
X29417Y32339D01*
X29337Y32259D01*
X29257Y32339D01*
Y33324D02*
X29337Y33404D01*
X29417Y33324D01*
X29337Y33244D01*
X29257Y33324D01*
Y34308D02*
X29337Y34388D01*
X29417Y34308D01*
X29337Y34228D01*
X29257Y34308D01*
Y35292D02*
X29337Y35372D01*
X29417Y35292D01*
X29337Y35212D01*
X29257Y35292D01*
X29950Y27270D02*
X29990Y27310D01*
X30030D01*
X29990Y27350D01*
X30030Y27390D01*
X29990D01*
X29950Y27430D01*
X29910Y27390D01*
X29870D01*
X29910Y27350D01*
X29870Y27310D01*
X29910D01*
X29950Y27270D01*
Y27310D02*
X29970Y27330D01*
X29990D01*
X29970Y27350D01*
X29990Y27370D01*
X29970D01*
X29950Y27390D01*
X29930Y27370D01*
X29910D01*
X29930Y27350D01*
X29910Y27330D01*
X29930D01*
X29950Y27310D01*
X30950Y27270D02*
X30990Y27310D01*
X31030D01*
X30990Y27350D01*
X31030Y27390D01*
X30990D01*
X30950Y27430D01*
X30910Y27390D01*
X30870D01*
X30910Y27350D01*
X30870Y27310D01*
X30910D01*
X30950Y27270D01*
Y27310D02*
X30970Y27330D01*
X30990D01*
X30970Y27350D01*
X30990Y27370D01*
X30970D01*
X30950Y27390D01*
X30930Y27370D01*
X30910D01*
X30930Y27350D01*
X30910Y27330D01*
X30930D01*
X30950Y27310D01*
X31950Y27270D02*
X31990Y27310D01*
X32030D01*
X31990Y27350D01*
X32030Y27390D01*
X31990D01*
X31950Y27430D01*
X31910Y27390D01*
X31870D01*
X31910Y27350D01*
X31870Y27310D01*
X31910D01*
X31950Y27270D01*
Y27310D02*
X31970Y27330D01*
X31990D01*
X31970Y27350D01*
X31990Y27370D01*
X31970D01*
X31950Y27390D01*
X31930Y27370D01*
X31910D01*
X31930Y27350D01*
X31910Y27330D01*
X31930D01*
X31950Y27310D01*
X32950Y27270D02*
X32990Y27310D01*
X33030D01*
X32990Y27350D01*
X33030Y27390D01*
X32990D01*
X32950Y27430D01*
X32910Y27390D01*
X32870D01*
X32910Y27350D01*
X32870Y27310D01*
X32910D01*
X32950Y27270D01*
Y27310D02*
X32970Y27330D01*
X32990D01*
X32970Y27350D01*
X32990Y27370D01*
X32970D01*
X32950Y27390D01*
X32930Y27370D01*
X32910D01*
X32930Y27350D01*
X32910Y27330D01*
X32930D01*
X32950Y27310D01*
X33950Y27270D02*
X33990Y27310D01*
X34030D01*
X33990Y27350D01*
X34030Y27390D01*
X33990D01*
X33950Y27430D01*
X33910Y27390D01*
X33870D01*
X33910Y27350D01*
X33870Y27310D01*
X33910D01*
X33950Y27270D01*
Y27310D02*
X33970Y27330D01*
X33990D01*
X33970Y27350D01*
X33990Y27370D01*
X33970D01*
X33950Y27390D01*
X33930Y27370D01*
X33910D01*
X33930Y27350D01*
X33910Y27330D01*
X33930D01*
X33950Y27310D01*
X34950Y27270D02*
X34990Y27310D01*
X35030D01*
X34990Y27350D01*
X35030Y27390D01*
X34990D01*
X34950Y27430D01*
X34910Y27390D01*
X34870D01*
X34910Y27350D01*
X34870Y27310D01*
X34910D01*
X34950Y27270D01*
Y27310D02*
X34970Y27330D01*
X34990D01*
X34970Y27350D01*
X34990Y27370D01*
X34970D01*
X34950Y27390D01*
X34930Y27370D01*
X34910D01*
X34930Y27350D01*
X34910Y27330D01*
X34930D01*
X34950Y27310D01*
X35950Y27270D02*
X35990Y27310D01*
X36030D01*
X35990Y27350D01*
X36030Y27390D01*
X35990D01*
X35950Y27430D01*
X35910Y27390D01*
X35870D01*
X35910Y27350D01*
X35870Y27310D01*
X35910D01*
X35950Y27270D01*
Y27310D02*
X35970Y27330D01*
X35990D01*
X35970Y27350D01*
X35990Y27370D01*
X35970D01*
X35950Y27390D01*
X35930Y27370D01*
X35910D01*
X35930Y27350D01*
X35910Y27330D01*
X35930D01*
X35950Y27310D01*
X36950Y27270D02*
X36990Y27310D01*
X37030D01*
X36990Y27350D01*
X37030Y27390D01*
X36990D01*
X36950Y27430D01*
X36910Y27390D01*
X36870D01*
X36910Y27350D01*
X36870Y27310D01*
X36910D01*
X36950Y27270D01*
Y27310D02*
X36970Y27330D01*
X36990D01*
X36970Y27350D01*
X36990Y27370D01*
X36970D01*
X36950Y27390D01*
X36930Y27370D01*
X36910D01*
X36930Y27350D01*
X36910Y27330D01*
X36930D01*
X36950Y27310D01*
X37950Y27270D02*
X37990Y27310D01*
X38030D01*
X37990Y27350D01*
X38030Y27390D01*
X37990D01*
X37950Y27430D01*
X37910Y27390D01*
X37870D01*
X37910Y27350D01*
X37870Y27310D01*
X37910D01*
X37950Y27270D01*
Y27310D02*
X37970Y27330D01*
X37990D01*
X37970Y27350D01*
X37990Y27370D01*
X37970D01*
X37950Y27390D01*
X37930Y27370D01*
X37910D01*
X37930Y27350D01*
X37910Y27330D01*
X37930D01*
X37950Y27310D01*
X38950Y27270D02*
X38990Y27310D01*
X39030D01*
X38990Y27350D01*
X39030Y27390D01*
X38990D01*
X38950Y27430D01*
X38910Y27390D01*
X38870D01*
X38910Y27350D01*
X38870Y27310D01*
X38910D01*
X38950Y27270D01*
Y27310D02*
X38970Y27330D01*
X38990D01*
X38970Y27350D01*
X38990Y27370D01*
X38970D01*
X38950Y27390D01*
X38930Y27370D01*
X38910D01*
X38930Y27350D01*
X38910Y27330D01*
X38930D01*
X38950Y27310D01*
X39950Y27270D02*
X39990Y27310D01*
X40030D01*
X39990Y27350D01*
X40030Y27390D01*
X39990D01*
X39950Y27430D01*
X39910Y27390D01*
X39870D01*
X39910Y27350D01*
X39870Y27310D01*
X39910D01*
X39950Y27270D01*
Y27310D02*
X39970Y27330D01*
X39990D01*
X39970Y27350D01*
X39990Y27370D01*
X39970D01*
X39950Y27390D01*
X39930Y27370D01*
X39910D01*
X39930Y27350D01*
X39910Y27330D01*
X39930D01*
X39950Y27310D01*
X40950Y27270D02*
X40990Y27310D01*
X41030D01*
X40990Y27350D01*
X41030Y27390D01*
X40990D01*
X40950Y27430D01*
X40910Y27390D01*
X40870D01*
X40910Y27350D01*
X40870Y27310D01*
X40910D01*
X40950Y27270D01*
Y27310D02*
X40970Y27330D01*
X40990D01*
X40970Y27350D01*
X40990Y27370D01*
X40970D01*
X40950Y27390D01*
X40930Y27370D01*
X40910D01*
X40930Y27350D01*
X40910Y27330D01*
X40930D01*
X40950Y27310D01*
X41050Y38670D02*
X41090Y38710D01*
X41130D01*
X41090Y38750D01*
X41130Y38790D01*
X41090D01*
X41050Y38830D01*
X41010Y38790D01*
X40970D01*
X41010Y38750D01*
X40970Y38710D01*
X41010D01*
X41050Y38670D01*
Y38710D02*
X41070Y38730D01*
X41090D01*
X41070Y38750D01*
X41090Y38770D01*
X41070D01*
X41050Y38790D01*
X41030Y38770D01*
X41010D01*
X41030Y38750D01*
X41010Y38730D01*
X41030D01*
X41050Y38710D01*
X40050Y38670D02*
X40090Y38710D01*
X40130D01*
X40090Y38750D01*
X40130Y38790D01*
X40090D01*
X40050Y38830D01*
X40010Y38790D01*
X39970D01*
X40010Y38750D01*
X39970Y38710D01*
X40010D01*
X40050Y38670D01*
Y38710D02*
X40070Y38730D01*
X40090D01*
X40070Y38750D01*
X40090Y38770D01*
X40070D01*
X40050Y38790D01*
X40030Y38770D01*
X40010D01*
X40030Y38750D01*
X40010Y38730D01*
X40030D01*
X40050Y38710D01*
X39050Y38670D02*
X39090Y38710D01*
X39130D01*
X39090Y38750D01*
X39130Y38790D01*
X39090D01*
X39050Y38830D01*
X39010Y38790D01*
X38970D01*
X39010Y38750D01*
X38970Y38710D01*
X39010D01*
X39050Y38670D01*
Y38710D02*
X39070Y38730D01*
X39090D01*
X39070Y38750D01*
X39090Y38770D01*
X39070D01*
X39050Y38790D01*
X39030Y38770D01*
X39010D01*
X39030Y38750D01*
X39010Y38730D01*
X39030D01*
X39050Y38710D01*
X38050Y38670D02*
X38090Y38710D01*
X38130D01*
X38090Y38750D01*
X38130Y38790D01*
X38090D01*
X38050Y38830D01*
X38010Y38790D01*
X37970D01*
X38010Y38750D01*
X37970Y38710D01*
X38010D01*
X38050Y38670D01*
Y38710D02*
X38070Y38730D01*
X38090D01*
X38070Y38750D01*
X38090Y38770D01*
X38070D01*
X38050Y38790D01*
X38030Y38770D01*
X38010D01*
X38030Y38750D01*
X38010Y38730D01*
X38030D01*
X38050Y38710D01*
X37050Y38670D02*
X37090Y38710D01*
X37130D01*
X37090Y38750D01*
X37130Y38790D01*
X37090D01*
X37050Y38830D01*
X37010Y38790D01*
X36970D01*
X37010Y38750D01*
X36970Y38710D01*
X37010D01*
X37050Y38670D01*
Y38710D02*
X37070Y38730D01*
X37090D01*
X37070Y38750D01*
X37090Y38770D01*
X37070D01*
X37050Y38790D01*
X37030Y38770D01*
X37010D01*
X37030Y38750D01*
X37010Y38730D01*
X37030D01*
X37050Y38710D01*
X36050Y38670D02*
X36090Y38710D01*
X36130D01*
X36090Y38750D01*
X36130Y38790D01*
X36090D01*
X36050Y38830D01*
X36010Y38790D01*
X35970D01*
X36010Y38750D01*
X35970Y38710D01*
X36010D01*
X36050Y38670D01*
Y38710D02*
X36070Y38730D01*
X36090D01*
X36070Y38750D01*
X36090Y38770D01*
X36070D01*
X36050Y38790D01*
X36030Y38770D01*
X36010D01*
X36030Y38750D01*
X36010Y38730D01*
X36030D01*
X36050Y38710D01*
X35050Y38670D02*
X35090Y38710D01*
X35130D01*
X35090Y38750D01*
X35130Y38790D01*
X35090D01*
X35050Y38830D01*
X35010Y38790D01*
X34970D01*
X35010Y38750D01*
X34970Y38710D01*
X35010D01*
X35050Y38670D01*
Y38710D02*
X35070Y38730D01*
X35090D01*
X35070Y38750D01*
X35090Y38770D01*
X35070D01*
X35050Y38790D01*
X35030Y38770D01*
X35010D01*
X35030Y38750D01*
X35010Y38730D01*
X35030D01*
X35050Y38710D01*
X34050Y38670D02*
X34090Y38710D01*
X34130D01*
X34090Y38750D01*
X34130Y38790D01*
X34090D01*
X34050Y38830D01*
X34010Y38790D01*
X33970D01*
X34010Y38750D01*
X33970Y38710D01*
X34010D01*
X34050Y38670D01*
Y38710D02*
X34070Y38730D01*
X34090D01*
X34070Y38750D01*
X34090Y38770D01*
X34070D01*
X34050Y38790D01*
X34030Y38770D01*
X34010D01*
X34030Y38750D01*
X34010Y38730D01*
X34030D01*
X34050Y38710D01*
X33050Y38670D02*
X33090Y38710D01*
X33130D01*
X33090Y38750D01*
X33130Y38790D01*
X33090D01*
X33050Y38830D01*
X33010Y38790D01*
X32970D01*
X33010Y38750D01*
X32970Y38710D01*
X33010D01*
X33050Y38670D01*
Y38710D02*
X33070Y38730D01*
X33090D01*
X33070Y38750D01*
X33090Y38770D01*
X33070D01*
X33050Y38790D01*
X33030Y38770D01*
X33010D01*
X33030Y38750D01*
X33010Y38730D01*
X33030D01*
X33050Y38710D01*
X32050Y38670D02*
X32090Y38710D01*
X32130D01*
X32090Y38750D01*
X32130Y38790D01*
X32090D01*
X32050Y38830D01*
X32010Y38790D01*
X31970D01*
X32010Y38750D01*
X31970Y38710D01*
X32010D01*
X32050Y38670D01*
Y38710D02*
X32070Y38730D01*
X32090D01*
X32070Y38750D01*
X32090Y38770D01*
X32070D01*
X32050Y38790D01*
X32030Y38770D01*
X32010D01*
X32030Y38750D01*
X32010Y38730D01*
X32030D01*
X32050Y38710D01*
X31050Y38670D02*
X31090Y38710D01*
X31130D01*
X31090Y38750D01*
X31130Y38790D01*
X31090D01*
X31050Y38830D01*
X31010Y38790D01*
X30970D01*
X31010Y38750D01*
X30970Y38710D01*
X31010D01*
X31050Y38670D01*
Y38710D02*
X31070Y38730D01*
X31090D01*
X31070Y38750D01*
X31090Y38770D01*
X31070D01*
X31050Y38790D01*
X31030Y38770D01*
X31010D01*
X31030Y38750D01*
X31010Y38730D01*
X31030D01*
X31050Y38710D01*
X30050Y38670D02*
X30090Y38710D01*
X30130D01*
X30090Y38750D01*
X30130Y38790D01*
X30090D01*
X30050Y38830D01*
X30010Y38790D01*
X29970D01*
X30010Y38750D01*
X29970Y38710D01*
X30010D01*
X30050Y38670D01*
Y38710D02*
X30070Y38730D01*
X30090D01*
X30070Y38750D01*
X30090Y38770D01*
X30070D01*
X30050Y38790D01*
X30030Y38770D01*
X30010D01*
X30030Y38750D01*
X30010Y38730D01*
X30030D01*
X30050Y38710D01*
X42600Y28620D02*
X42640Y28660D01*
X42680D01*
X42640Y28700D01*
X42680Y28740D01*
X42640D01*
X42600Y28780D01*
X42560Y28740D01*
X42520D01*
X42560Y28700D01*
X42520Y28660D01*
X42560D01*
X42600Y28620D01*
Y28660D02*
X42620Y28680D01*
X42640D01*
X42620Y28700D01*
X42640Y28720D01*
X42620D01*
X42600Y28740D01*
X42580Y28720D01*
X42560D01*
X42580Y28700D01*
X42560Y28680D01*
X42580D01*
X42600Y28660D01*
Y29620D02*
X42640Y29660D01*
X42680D01*
X42640Y29700D01*
X42680Y29740D01*
X42640D01*
X42600Y29780D01*
X42560Y29740D01*
X42520D01*
X42560Y29700D01*
X42520Y29660D01*
X42560D01*
X42600Y29620D01*
Y29660D02*
X42620Y29680D01*
X42640D01*
X42620Y29700D01*
X42640Y29720D01*
X42620D01*
X42600Y29740D01*
X42580Y29720D01*
X42560D01*
X42580Y29700D01*
X42560Y29680D01*
X42580D01*
X42600Y29660D01*
Y30620D02*
X42640Y30660D01*
X42680D01*
X42640Y30700D01*
X42680Y30740D01*
X42640D01*
X42600Y30780D01*
X42560Y30740D01*
X42520D01*
X42560Y30700D01*
X42520Y30660D01*
X42560D01*
X42600Y30620D01*
Y30660D02*
X42620Y30680D01*
X42640D01*
X42620Y30700D01*
X42640Y30720D01*
X42620D01*
X42600Y30740D01*
X42580Y30720D01*
X42560D01*
X42580Y30700D01*
X42560Y30680D01*
X42580D01*
X42600Y30660D01*
Y31620D02*
X42640Y31660D01*
X42680D01*
X42640Y31700D01*
X42680Y31740D01*
X42640D01*
X42600Y31780D01*
X42560Y31740D01*
X42520D01*
X42560Y31700D01*
X42520Y31660D01*
X42560D01*
X42600Y31620D01*
Y31660D02*
X42620Y31680D01*
X42640D01*
X42620Y31700D01*
X42640Y31720D01*
X42620D01*
X42600Y31740D01*
X42580Y31720D01*
X42560D01*
X42580Y31700D01*
X42560Y31680D01*
X42580D01*
X42600Y31660D01*
Y32620D02*
X42640Y32660D01*
X42680D01*
X42640Y32700D01*
X42680Y32740D01*
X42640D01*
X42600Y32780D01*
X42560Y32740D01*
X42520D01*
X42560Y32700D01*
X42520Y32660D01*
X42560D01*
X42600Y32620D01*
Y32660D02*
X42620Y32680D01*
X42640D01*
X42620Y32700D01*
X42640Y32720D01*
X42620D01*
X42600Y32740D01*
X42580Y32720D01*
X42560D01*
X42580Y32700D01*
X42560Y32680D01*
X42580D01*
X42600Y32660D01*
X65400Y6495D02*
X65320Y6655D01*
X65480D01*
X65400Y6495D01*
Y6535D02*
X65360Y6615D01*
X65440D01*
X65400Y6535D01*
X64400Y6495D02*
X64320Y6655D01*
X64480D01*
X64400Y6495D01*
Y6535D02*
X64360Y6615D01*
X64440D01*
X64400Y6535D01*
X67250Y6495D02*
X67170Y6655D01*
X67330D01*
X67250Y6495D01*
Y6535D02*
X67210Y6615D01*
X67290D01*
X67250Y6535D01*
X66250Y6495D02*
X66170Y6655D01*
X66330D01*
X66250Y6495D01*
Y6535D02*
X66210Y6615D01*
X66290D01*
X66250Y6535D01*
X29750Y22370D02*
X29670Y22530D01*
X29830D01*
X29750Y22370D01*
X27750D02*
X27670Y22530D01*
X27830D01*
X27750Y22370D01*
X28750D02*
X28670Y22530D01*
X28830D01*
X28750Y22370D01*
X30750D02*
X30670Y22530D01*
X30830D01*
X30750Y22370D01*
X31750D02*
X31670Y22530D01*
X31830D01*
X31750Y22370D01*
X32750D02*
X32670Y22530D01*
X32830D01*
X32750Y22370D01*
X69500Y6495D02*
X69420Y6655D01*
X69580D01*
X69500Y6495D01*
Y6535D02*
X69460Y6615D01*
X69540D01*
X69500Y6535D01*
X68500Y6495D02*
X68420Y6655D01*
X68580D01*
X68500Y6495D01*
Y6535D02*
X68460Y6615D01*
X68540D01*
X68500Y6535D01*
X23321Y6965D02*
X23361Y7045D01*
X23321Y7125D01*
X23401Y7085D01*
X23481Y7125D01*
X23441Y7045D01*
X23481Y6965D01*
X23401Y7005D01*
X23321Y6965D01*
X23361Y7005D02*
X23381Y7045D01*
X23361Y7085D01*
X23401Y7065D01*
X23441Y7085D01*
X23421Y7045D01*
X23441Y7005D01*
X23401Y7025D01*
X23361Y7005D01*
X23321Y19564D02*
X23361Y19644D01*
X23321Y19724D01*
X23401Y19684D01*
X23481Y19724D01*
X23441Y19644D01*
X23481Y19564D01*
X23401Y19604D01*
X23321Y19564D01*
X23361Y19604D02*
X23381Y19644D01*
X23361Y19684D01*
X23401Y19664D01*
X23441Y19684D01*
X23421Y19644D01*
X23441Y19604D01*
X23401Y19624D01*
X23361Y19604D01*
X32770Y19564D02*
X32810Y19644D01*
X32770Y19724D01*
X32850Y19684D01*
X32930Y19724D01*
X32890Y19644D01*
X32930Y19564D01*
X32850Y19604D01*
X32770Y19564D01*
X32810Y19604D02*
X32830Y19644D01*
X32810Y19684D01*
X32850Y19664D01*
X32890Y19684D01*
X32870Y19644D01*
X32890Y19604D01*
X32850Y19624D01*
X32810Y19604D01*
X32770Y6970D02*
X32810Y7050D01*
X32770Y7130D01*
X32850Y7090D01*
X32930Y7130D01*
X32890Y7050D01*
X32930Y6970D01*
X32850Y7010D01*
X32770Y6970D01*
X32810Y7010D02*
X32830Y7050D01*
X32810Y7090D01*
X32850Y7070D01*
X32890Y7090D01*
X32870Y7050D01*
X32890Y7010D01*
X32850Y7030D01*
X32810Y7010D01*
X43150Y51920D02*
X43190Y51960D01*
X43230D01*
X43190Y52000D01*
X43230Y52040D01*
X43190D01*
X43150Y52080D01*
X43110Y52040D01*
X43070D01*
X43110Y52000D01*
X43070Y51960D01*
X43110D01*
X43150Y51920D01*
Y51960D02*
X43170Y51980D01*
X43190D01*
X43170Y52000D01*
X43190Y52020D01*
X43170D01*
X43150Y52040D01*
X43130Y52020D01*
X43110D01*
X43130Y52000D01*
X43110Y51980D01*
X43130D01*
X43150Y51960D01*
Y50920D02*
X43190Y50960D01*
X43230D01*
X43190Y51000D01*
X43230Y51040D01*
X43190D01*
X43150Y51080D01*
X43110Y51040D01*
X43070D01*
X43110Y51000D01*
X43070Y50960D01*
X43110D01*
X43150Y50920D01*
Y50960D02*
X43170Y50980D01*
X43190D01*
X43170Y51000D01*
X43190Y51020D01*
X43170D01*
X43150Y51040D01*
X43130Y51020D01*
X43110D01*
X43130Y51000D01*
X43110Y50980D01*
X43130D01*
X43150Y50960D01*
Y49920D02*
X43190Y49960D01*
X43230D01*
X43190Y50000D01*
X43230Y50040D01*
X43190D01*
X43150Y50080D01*
X43110Y50040D01*
X43070D01*
X43110Y50000D01*
X43070Y49960D01*
X43110D01*
X43150Y49920D01*
Y49960D02*
X43170Y49980D01*
X43190D01*
X43170Y50000D01*
X43190Y50020D01*
X43170D01*
X43150Y50040D01*
X43130Y50020D01*
X43110D01*
X43130Y50000D01*
X43110Y49980D01*
X43130D01*
X43150Y49960D01*
Y48920D02*
X43190Y48960D01*
X43230D01*
X43190Y49000D01*
X43230Y49040D01*
X43190D01*
X43150Y49080D01*
X43110Y49040D01*
X43070D01*
X43110Y49000D01*
X43070Y48960D01*
X43110D01*
X43150Y48920D01*
Y48960D02*
X43170Y48980D01*
X43190D01*
X43170Y49000D01*
X43190Y49020D01*
X43170D01*
X43150Y49040D01*
X43130Y49020D01*
X43110D01*
X43130Y49000D01*
X43110Y48980D01*
X43130D01*
X43150Y48960D01*
Y47920D02*
X43190Y47960D01*
X43230D01*
X43190Y48000D01*
X43230Y48040D01*
X43190D01*
X43150Y48080D01*
X43110Y48040D01*
X43070D01*
X43110Y48000D01*
X43070Y47960D01*
X43110D01*
X43150Y47920D01*
Y47960D02*
X43170Y47980D01*
X43190D01*
X43170Y48000D01*
X43190Y48020D01*
X43170D01*
X43150Y48040D01*
X43130Y48020D01*
X43110D01*
X43130Y48000D01*
X43110Y47980D01*
X43130D01*
X43150Y47960D01*
Y46920D02*
X43190Y46960D01*
X43230D01*
X43190Y47000D01*
X43230Y47040D01*
X43190D01*
X43150Y47080D01*
X43110Y47040D01*
X43070D01*
X43110Y47000D01*
X43070Y46960D01*
X43110D01*
X43150Y46920D01*
Y46960D02*
X43170Y46980D01*
X43190D01*
X43170Y47000D01*
X43190Y47020D01*
X43170D01*
X43150Y47040D01*
X43130Y47020D01*
X43110D01*
X43130Y47000D01*
X43110Y46980D01*
X43130D01*
X43150Y46960D01*
Y45920D02*
X43190Y45960D01*
X43230D01*
X43190Y46000D01*
X43230Y46040D01*
X43190D01*
X43150Y46080D01*
X43110Y46040D01*
X43070D01*
X43110Y46000D01*
X43070Y45960D01*
X43110D01*
X43150Y45920D01*
Y45960D02*
X43170Y45980D01*
X43190D01*
X43170Y46000D01*
X43190Y46020D01*
X43170D01*
X43150Y46040D01*
X43130Y46020D01*
X43110D01*
X43130Y46000D01*
X43110Y45980D01*
X43130D01*
X43150Y45960D01*
Y44920D02*
X43190Y44960D01*
X43230D01*
X43190Y45000D01*
X43230Y45040D01*
X43190D01*
X43150Y45080D01*
X43110Y45040D01*
X43070D01*
X43110Y45000D01*
X43070Y44960D01*
X43110D01*
X43150Y44920D01*
Y44960D02*
X43170Y44980D01*
X43190D01*
X43170Y45000D01*
X43190Y45020D01*
X43170D01*
X43150Y45040D01*
X43130Y45020D01*
X43110D01*
X43130Y45000D01*
X43110Y44980D01*
X43130D01*
X43150Y44960D01*
X32400Y51920D02*
X32440Y51960D01*
X32480D01*
X32440Y52000D01*
X32480Y52040D01*
X32440D01*
X32400Y52080D01*
X32360Y52040D01*
X32320D01*
X32360Y52000D01*
X32320Y51960D01*
X32360D01*
X32400Y51920D01*
Y51960D02*
X32420Y51980D01*
X32440D01*
X32420Y52000D01*
X32440Y52020D01*
X32420D01*
X32400Y52040D01*
X32380Y52020D01*
X32360D01*
X32380Y52000D01*
X32360Y51980D01*
X32380D01*
X32400Y51960D01*
Y50920D02*
X32440Y50960D01*
X32480D01*
X32440Y51000D01*
X32480Y51040D01*
X32440D01*
X32400Y51080D01*
X32360Y51040D01*
X32320D01*
X32360Y51000D01*
X32320Y50960D01*
X32360D01*
X32400Y50920D01*
Y50960D02*
X32420Y50980D01*
X32440D01*
X32420Y51000D01*
X32440Y51020D01*
X32420D01*
X32400Y51040D01*
X32380Y51020D01*
X32360D01*
X32380Y51000D01*
X32360Y50980D01*
X32380D01*
X32400Y50960D01*
Y49920D02*
X32440Y49960D01*
X32480D01*
X32440Y50000D01*
X32480Y50040D01*
X32440D01*
X32400Y50080D01*
X32360Y50040D01*
X32320D01*
X32360Y50000D01*
X32320Y49960D01*
X32360D01*
X32400Y49920D01*
Y49960D02*
X32420Y49980D01*
X32440D01*
X32420Y50000D01*
X32440Y50020D01*
X32420D01*
X32400Y50040D01*
X32380Y50020D01*
X32360D01*
X32380Y50000D01*
X32360Y49980D01*
X32380D01*
X32400Y49960D01*
Y48920D02*
X32440Y48960D01*
X32480D01*
X32440Y49000D01*
X32480Y49040D01*
X32440D01*
X32400Y49080D01*
X32360Y49040D01*
X32320D01*
X32360Y49000D01*
X32320Y48960D01*
X32360D01*
X32400Y48920D01*
Y48960D02*
X32420Y48980D01*
X32440D01*
X32420Y49000D01*
X32440Y49020D01*
X32420D01*
X32400Y49040D01*
X32380Y49020D01*
X32360D01*
X32380Y49000D01*
X32360Y48980D01*
X32380D01*
X32400Y48960D01*
Y47920D02*
X32440Y47960D01*
X32480D01*
X32440Y48000D01*
X32480Y48040D01*
X32440D01*
X32400Y48080D01*
X32360Y48040D01*
X32320D01*
X32360Y48000D01*
X32320Y47960D01*
X32360D01*
X32400Y47920D01*
Y47960D02*
X32420Y47980D01*
X32440D01*
X32420Y48000D01*
X32440Y48020D01*
X32420D01*
X32400Y48040D01*
X32380Y48020D01*
X32360D01*
X32380Y48000D01*
X32360Y47980D01*
X32380D01*
X32400Y47960D01*
Y46920D02*
X32440Y46960D01*
X32480D01*
X32440Y47000D01*
X32480Y47040D01*
X32440D01*
X32400Y47080D01*
X32360Y47040D01*
X32320D01*
X32360Y47000D01*
X32320Y46960D01*
X32360D01*
X32400Y46920D01*
Y46960D02*
X32420Y46980D01*
X32440D01*
X32420Y47000D01*
X32440Y47020D01*
X32420D01*
X32400Y47040D01*
X32380Y47020D01*
X32360D01*
X32380Y47000D01*
X32360Y46980D01*
X32380D01*
X32400Y46960D01*
Y45920D02*
X32440Y45960D01*
X32480D01*
X32440Y46000D01*
X32480Y46040D01*
X32440D01*
X32400Y46080D01*
X32360Y46040D01*
X32320D01*
X32360Y46000D01*
X32320Y45960D01*
X32360D01*
X32400Y45920D01*
Y45960D02*
X32420Y45980D01*
X32440D01*
X32420Y46000D01*
X32440Y46020D01*
X32420D01*
X32400Y46040D01*
X32380Y46020D01*
X32360D01*
X32380Y46000D01*
X32360Y45980D01*
X32380D01*
X32400Y45960D01*
Y44920D02*
X32440Y44960D01*
X32480D01*
X32440Y45000D01*
X32480Y45040D01*
X32440D01*
X32400Y45080D01*
X32360Y45040D01*
X32320D01*
X32360Y45000D01*
X32320Y44960D01*
X32360D01*
X32400Y44920D01*
Y44960D02*
X32420Y44980D01*
X32440D01*
X32420Y45000D01*
X32440Y45020D01*
X32420D01*
X32400Y45040D01*
X32380Y45020D01*
X32360D01*
X32380Y45000D01*
X32360Y44980D01*
X32380D01*
X32400Y44960D01*
X48870Y6915D02*
X48910Y6995D01*
X48870Y7075D01*
X48950Y7035D01*
X49030Y7075D01*
X48990Y6995D01*
X49030Y6915D01*
X48950Y6955D01*
X48870Y6915D01*
X48910Y6955D02*
X48930Y6995D01*
X48910Y7035D01*
X48950Y7015D01*
X48990Y7035D01*
X48970Y6995D01*
X48990Y6955D01*
X48950Y6975D01*
X48910Y6955D01*
X39421Y6915D02*
X39461Y6995D01*
X39421Y7075D01*
X39501Y7035D01*
X39581Y7075D01*
X39541Y6995D01*
X39581Y6915D01*
X39501Y6955D01*
X39421Y6915D01*
X39461Y6955D02*
X39481Y6995D01*
X39461Y7035D01*
X39501Y7015D01*
X39541Y7035D01*
X39521Y6995D01*
X39541Y6955D01*
X39501Y6975D01*
X39461Y6955D01*
X39421Y19514D02*
X39461Y19594D01*
X39421Y19674D01*
X39501Y19634D01*
X39581Y19674D01*
X39541Y19594D01*
X39581Y19514D01*
X39501Y19554D01*
X39421Y19514D01*
X39461Y19554D02*
X39481Y19594D01*
X39461Y19634D01*
X39501Y19614D01*
X39541Y19634D01*
X39521Y19594D01*
X39541Y19554D01*
X39501Y19574D01*
X39461Y19554D01*
X48870Y19514D02*
X48910Y19594D01*
X48870Y19674D01*
X48950Y19634D01*
X49030Y19674D01*
X48990Y19594D01*
X49030Y19514D01*
X48950Y19554D01*
X48870Y19514D01*
X48910Y19554D02*
X48930Y19594D01*
X48910Y19634D01*
X48950Y19614D01*
X48990Y19634D01*
X48970Y19594D01*
X48990Y19554D01*
X48950Y19574D01*
X48910Y19554D01*
X42833Y23099D02*
Y23059D01*
X42913D01*
Y23099D01*
X42953D01*
Y23179D01*
X42913D01*
Y23219D01*
X42833D01*
Y23179D01*
X42793D01*
Y23099D01*
X42833D01*
X42853Y23119D02*
Y23099D01*
X42893D01*
Y23119D01*
X42913D01*
Y23159D01*
X42893D01*
Y23179D01*
X42853D01*
Y23159D01*
X42833D01*
Y23119D01*
X42853D01*
X39310Y23060D02*
Y23020D01*
X39390D01*
Y23060D01*
X39430D01*
Y23140D01*
X39390D01*
Y23180D01*
X39310D01*
Y23140D01*
X39270D01*
Y23060D01*
X39310D01*
X39330Y23080D02*
Y23060D01*
X39370D01*
Y23080D01*
X39390D01*
Y23120D01*
X39370D01*
Y23140D01*
X39330D01*
Y23120D01*
X39310D01*
Y23080D01*
X39330D01*
X44210Y23760D02*
Y23720D01*
X44290D01*
Y23760D01*
X44330D01*
Y23840D01*
X44290D01*
Y23880D01*
X44210D01*
Y23840D01*
X44170D01*
Y23760D01*
X44210D01*
X44230Y23780D02*
Y23760D01*
X44270D01*
Y23780D01*
X44290D01*
Y23820D01*
X44270D01*
Y23840D01*
X44230D01*
Y23820D01*
X44210D01*
Y23780D01*
X44230D01*
X42810Y20410D02*
Y20370D01*
X42890D01*
Y20410D01*
X42930D01*
Y20490D01*
X42890D01*
Y20530D01*
X42810D01*
Y20490D01*
X42770D01*
Y20410D01*
X42810D01*
X42830Y20430D02*
Y20410D01*
X42870D01*
Y20430D01*
X42890D01*
Y20470D01*
X42870D01*
Y20490D01*
X42830D01*
Y20470D01*
X42810D01*
Y20430D01*
X42830D01*
X68910Y37460D02*
Y37420D01*
X68990D01*
Y37460D01*
X69030D01*
Y37540D01*
X68990D01*
Y37580D01*
X68910D01*
Y37540D01*
X68870D01*
Y37460D01*
X68910D01*
X68930Y37480D02*
Y37460D01*
X68970D01*
Y37480D01*
X68990D01*
Y37520D01*
X68970D01*
Y37540D01*
X68930D01*
Y37520D01*
X68910D01*
Y37480D01*
X68930D01*
X20460Y36960D02*
Y36920D01*
X20540D01*
Y36960D01*
X20580D01*
Y37040D01*
X20540D01*
Y37080D01*
X20460D01*
Y37040D01*
X20420D01*
Y36960D01*
X20460D01*
X20480Y36980D02*
Y36960D01*
X20520D01*
Y36980D01*
X20540D01*
Y37020D01*
X20520D01*
Y37040D01*
X20480D01*
Y37020D01*
X20460D01*
Y36980D01*
X20480D01*
X11360Y37560D02*
Y37520D01*
X11440D01*
Y37560D01*
X11480D01*
Y37640D01*
X11440D01*
Y37680D01*
X11360D01*
Y37640D01*
X11320D01*
Y37560D01*
X11360D01*
X11380Y37580D02*
Y37560D01*
X11420D01*
Y37580D01*
X11440D01*
Y37620D01*
X11420D01*
Y37640D01*
X11380D01*
Y37620D01*
X11360D01*
Y37580D01*
X11380D01*
X20210Y18560D02*
Y18520D01*
X20290D01*
Y18560D01*
X20330D01*
Y18640D01*
X20290D01*
Y18680D01*
X20210D01*
Y18640D01*
X20170D01*
Y18560D01*
X20210D01*
X20230Y18580D02*
Y18560D01*
X20270D01*
Y18580D01*
X20290D01*
Y18620D01*
X20270D01*
Y18640D01*
X20230D01*
Y18620D01*
X20210D01*
Y18580D01*
X20230D01*
X66620Y29220D02*
X66660D01*
X66700Y29260D01*
X66740Y29220D01*
X66780D01*
Y29260D01*
X66740Y29300D01*
X66780Y29340D01*
Y29380D01*
X66740D01*
X66700Y29340D01*
X66660Y29380D01*
X66620D01*
Y29340D01*
X66660Y29300D01*
X66620Y29260D01*
Y29220D01*
X66660Y29260D02*
X66680D01*
X66700Y29280D01*
X66720Y29260D01*
X66740D01*
Y29280D01*
X66720Y29300D01*
X66740Y29320D01*
Y29340D01*
X66720D01*
X66700Y29320D01*
X66680Y29340D01*
X66660D01*
Y29320D01*
X66680Y29300D01*
X66660Y29280D01*
Y29260D01*
X60210Y32410D02*
Y32370D01*
X60290D01*
Y32410D01*
X60330D01*
Y32490D01*
X60290D01*
Y32530D01*
X60210D01*
Y32490D01*
X60170D01*
Y32410D01*
X60210D01*
X60230Y32430D02*
Y32410D01*
X60270D01*
Y32430D01*
X60290D01*
Y32470D01*
X60270D01*
Y32490D01*
X60230D01*
Y32470D01*
X60210D01*
Y32430D01*
X60230D01*
X14083Y45146D02*
Y45106D01*
X14163D01*
Y45146D01*
X14203D01*
Y45226D01*
X14163D01*
Y45266D01*
X14083D01*
Y45226D01*
X14043D01*
Y45146D01*
X14083D01*
X14103Y45166D02*
Y45146D01*
X14143D01*
Y45166D01*
X14163D01*
Y45206D01*
X14143D01*
Y45226D01*
X14103D01*
Y45206D01*
X14083D01*
Y45166D01*
X14103D01*
X68760Y20460D02*
Y20420D01*
X68840D01*
Y20460D01*
X68880D01*
Y20540D01*
X68840D01*
Y20580D01*
X68760D01*
Y20540D01*
X68720D01*
Y20460D01*
X68760D01*
X68780Y20480D02*
Y20460D01*
X68820D01*
Y20480D01*
X68840D01*
Y20520D01*
X68820D01*
Y20540D01*
X68780D01*
Y20520D01*
X68760D01*
Y20480D01*
X68780D01*
X64760Y10010D02*
Y9970D01*
X64840D01*
Y10010D01*
X64880D01*
Y10090D01*
X64840D01*
Y10130D01*
X64760D01*
Y10090D01*
X64720D01*
Y10010D01*
X64760D01*
X64780Y10030D02*
Y10010D01*
X64820D01*
Y10030D01*
X64840D01*
Y10070D01*
X64820D01*
Y10090D01*
X64780D01*
Y10070D01*
X64760D01*
Y10030D01*
X64780D01*
X58810Y6060D02*
Y6020D01*
X58890D01*
Y6060D01*
X58930D01*
Y6140D01*
X58890D01*
Y6180D01*
X58810D01*
Y6140D01*
X58770D01*
Y6060D01*
X58810D01*
X58830Y6080D02*
Y6060D01*
X58870D01*
Y6080D01*
X58890D01*
Y6120D01*
X58870D01*
Y6140D01*
X58830D01*
Y6120D01*
X58810D01*
Y6080D01*
X58830D01*
X61410Y7810D02*
Y7770D01*
X61490D01*
Y7810D01*
X61530D01*
Y7890D01*
X61490D01*
Y7930D01*
X61410D01*
Y7890D01*
X61370D01*
Y7810D01*
X61410D01*
X61430Y7830D02*
Y7810D01*
X61470D01*
Y7830D01*
X61490D01*
Y7870D01*
X61470D01*
Y7890D01*
X61430D01*
Y7870D01*
X61410D01*
Y7830D01*
X61430D01*
X9670Y35570D02*
X9710D01*
X9750Y35610D01*
X9790Y35570D01*
X9830D01*
Y35610D01*
X9790Y35650D01*
X9830Y35690D01*
Y35730D01*
X9790D01*
X9750Y35690D01*
X9710Y35730D01*
X9670D01*
Y35690D01*
X9710Y35650D01*
X9670Y35610D01*
Y35570D01*
X9710Y35610D02*
X9730D01*
X9750Y35630D01*
X9770Y35610D01*
X9790D01*
Y35630D01*
X9770Y35650D01*
X9790Y35670D01*
Y35690D01*
X9770D01*
X9750Y35670D01*
X9730Y35690D01*
X9710D01*
Y35670D01*
X9730Y35650D01*
X9710Y35630D01*
Y35610D01*
X11420Y38770D02*
X11460D01*
X11500Y38810D01*
X11540Y38770D01*
X11580D01*
Y38810D01*
X11540Y38850D01*
X11580Y38890D01*
Y38930D01*
X11540D01*
X11500Y38890D01*
X11460Y38930D01*
X11420D01*
Y38890D01*
X11460Y38850D01*
X11420Y38810D01*
Y38770D01*
X11460Y38810D02*
X11480D01*
X11500Y38830D01*
X11520Y38810D01*
X11540D01*
Y38830D01*
X11520Y38850D01*
X11540Y38870D01*
Y38890D01*
X11520D01*
X11500Y38870D01*
X11480Y38890D01*
X11460D01*
Y38870D01*
X11480Y38850D01*
X11460Y38830D01*
Y38810D01*
X12509Y41492D02*
X12549D01*
X12589Y41532D01*
X12629Y41492D01*
X12669D01*
Y41532D01*
X12629Y41572D01*
X12669Y41612D01*
Y41652D01*
X12629D01*
X12589Y41612D01*
X12549Y41652D01*
X12509D01*
Y41612D01*
X12549Y41572D01*
X12509Y41532D01*
Y41492D01*
X12549Y41532D02*
X12569D01*
X12589Y41552D01*
X12609Y41532D01*
X12629D01*
Y41552D01*
X12609Y41572D01*
X12629Y41592D01*
Y41612D01*
X12609D01*
X12589Y41592D01*
X12569Y41612D01*
X12549D01*
Y41592D01*
X12569Y41572D01*
X12549Y41552D01*
Y41532D01*
X63110Y11160D02*
Y11120D01*
X63190D01*
Y11160D01*
X63230D01*
Y11240D01*
X63190D01*
Y11280D01*
X63110D01*
Y11240D01*
X63070D01*
Y11160D01*
X63110D01*
X63130Y11180D02*
Y11160D01*
X63170D01*
Y11180D01*
X63190D01*
Y11220D01*
X63170D01*
Y11240D01*
X63130D01*
Y11220D01*
X63110D01*
Y11180D01*
X63130D01*
X44460Y25160D02*
Y25120D01*
X44540D01*
Y25160D01*
X44580D01*
Y25240D01*
X44540D01*
Y25280D01*
X44460D01*
Y25240D01*
X44420D01*
Y25160D01*
X44460D01*
X44480Y25180D02*
Y25160D01*
X44520D01*
Y25180D01*
X44540D01*
Y25220D01*
X44520D01*
Y25240D01*
X44480D01*
Y25220D01*
X44460D01*
Y25180D01*
X44480D01*
X32720Y34970D02*
X32760D01*
X32800Y35010D01*
X32840Y34970D01*
X32880D01*
Y35010D01*
X32840Y35050D01*
X32880Y35090D01*
Y35130D01*
X32840D01*
X32800Y35090D01*
X32760Y35130D01*
X32720D01*
Y35090D01*
X32760Y35050D01*
X32720Y35010D01*
Y34970D01*
X32760Y35010D02*
X32780D01*
X32800Y35030D01*
X32820Y35010D01*
X32840D01*
Y35030D01*
X32820Y35050D01*
X32840Y35070D01*
Y35090D01*
X32820D01*
X32800Y35070D01*
X32780Y35090D01*
X32760D01*
Y35070D01*
X32780Y35050D01*
X32760Y35030D01*
Y35010D01*
X18060Y18260D02*
Y18220D01*
X18140D01*
Y18260D01*
X18180D01*
Y18340D01*
X18140D01*
Y18380D01*
X18060D01*
Y18340D01*
X18020D01*
Y18260D01*
X18060D01*
X18080Y18280D02*
Y18260D01*
X18120D01*
Y18280D01*
X18140D01*
Y18320D01*
X18120D01*
Y18340D01*
X18080D01*
Y18320D01*
X18060D01*
Y18280D01*
X18080D01*
X63110Y12410D02*
Y12370D01*
X63190D01*
Y12410D01*
X63230D01*
Y12490D01*
X63190D01*
Y12530D01*
X63110D01*
Y12490D01*
X63070D01*
Y12410D01*
X63110D01*
X63130Y12430D02*
Y12410D01*
X63170D01*
Y12430D01*
X63190D01*
Y12470D01*
X63170D01*
Y12490D01*
X63130D01*
Y12470D01*
X63110D01*
Y12430D01*
X63130D01*
X65460Y12310D02*
Y12270D01*
X65540D01*
Y12310D01*
X65580D01*
Y12390D01*
X65540D01*
Y12430D01*
X65460D01*
Y12390D01*
X65420D01*
Y12310D01*
X65460D01*
X65480Y12330D02*
Y12310D01*
X65520D01*
Y12330D01*
X65540D01*
Y12370D01*
X65520D01*
Y12390D01*
X65480D01*
Y12370D01*
X65460D01*
Y12330D01*
X65480D01*
X66110Y35860D02*
Y35820D01*
X66190D01*
Y35860D01*
X66230D01*
Y35940D01*
X66190D01*
Y35980D01*
X66110D01*
Y35940D01*
X66070D01*
Y35860D01*
X66110D01*
X66130Y35880D02*
Y35860D01*
X66170D01*
Y35880D01*
X66190D01*
Y35920D01*
X66170D01*
Y35940D01*
X66130D01*
Y35920D01*
X66110D01*
Y35880D01*
X66130D01*
X53510Y32310D02*
Y32270D01*
X53590D01*
Y32310D01*
X53630D01*
Y32390D01*
X53590D01*
Y32430D01*
X53510D01*
Y32390D01*
X53470D01*
Y32310D01*
X53510D01*
X53530Y32330D02*
Y32310D01*
X53570D01*
Y32330D01*
X53590D01*
Y32370D01*
X53570D01*
Y32390D01*
X53530D01*
Y32370D01*
X53510D01*
Y32330D01*
X53530D01*
X50660Y34160D02*
Y34120D01*
X50740D01*
Y34160D01*
X50780D01*
Y34240D01*
X50740D01*
Y34280D01*
X50660D01*
Y34240D01*
X50620D01*
Y34160D01*
X50660D01*
X50680Y34180D02*
Y34160D01*
X50720D01*
Y34180D01*
X50740D01*
Y34220D01*
X50720D01*
Y34240D01*
X50680D01*
Y34220D01*
X50660D01*
Y34180D01*
X50680D01*
X22910Y40460D02*
Y40420D01*
X22990D01*
Y40460D01*
X23030D01*
Y40540D01*
X22990D01*
Y40580D01*
X22910D01*
Y40540D01*
X22870D01*
Y40460D01*
X22910D01*
X22930Y40480D02*
Y40460D01*
X22970D01*
Y40480D01*
X22990D01*
Y40520D01*
X22970D01*
Y40540D01*
X22930D01*
Y40520D01*
X22910D01*
Y40480D01*
X22930D01*
X24710Y44710D02*
Y44670D01*
X24790D01*
Y44710D01*
X24830D01*
Y44790D01*
X24790D01*
Y44830D01*
X24710D01*
Y44790D01*
X24670D01*
Y44710D01*
X24710D01*
X24730Y44730D02*
Y44710D01*
X24770D01*
Y44730D01*
X24790D01*
Y44770D01*
X24770D01*
Y44790D01*
X24730D01*
Y44770D01*
X24710D01*
Y44730D01*
X24730D01*
X24510Y31110D02*
Y31070D01*
X24590D01*
Y31110D01*
X24630D01*
Y31190D01*
X24590D01*
Y31230D01*
X24510D01*
Y31190D01*
X24470D01*
Y31110D01*
X24510D01*
X24530Y31130D02*
Y31110D01*
X24570D01*
Y31130D01*
X24590D01*
Y31170D01*
X24570D01*
Y31190D01*
X24530D01*
Y31170D01*
X24510D01*
Y31130D01*
X24530D01*
X16810Y28360D02*
Y28320D01*
X16890D01*
Y28360D01*
X16930D01*
Y28440D01*
X16890D01*
Y28480D01*
X16810D01*
Y28440D01*
X16770D01*
Y28360D01*
X16810D01*
X16830Y28380D02*
Y28360D01*
X16870D01*
Y28380D01*
X16890D01*
Y28420D01*
X16870D01*
Y28440D01*
X16830D01*
Y28420D01*
X16810D01*
Y28380D01*
X16830D01*
X14610Y32360D02*
Y32320D01*
X14690D01*
Y32360D01*
X14730D01*
Y32440D01*
X14690D01*
Y32480D01*
X14610D01*
Y32440D01*
X14570D01*
Y32360D01*
X14610D01*
X14630Y32380D02*
Y32360D01*
X14670D01*
Y32380D01*
X14690D01*
Y32420D01*
X14670D01*
Y32440D01*
X14630D01*
Y32420D01*
X14610D01*
Y32380D01*
X14630D01*
X25510Y38412D02*
Y38372D01*
X25590D01*
Y38412D01*
X25630D01*
Y38492D01*
X25590D01*
Y38532D01*
X25510D01*
Y38492D01*
X25470D01*
Y38412D01*
X25510D01*
X25530Y38432D02*
Y38412D01*
X25570D01*
Y38432D01*
X25590D01*
Y38472D01*
X25570D01*
Y38492D01*
X25530D01*
Y38472D01*
X25510D01*
Y38432D01*
X25530D01*
X17410Y42910D02*
Y42870D01*
X17490D01*
Y42910D01*
X17530D01*
Y42990D01*
X17490D01*
Y43030D01*
X17410D01*
Y42990D01*
X17370D01*
Y42910D01*
X17410D01*
X17430Y42930D02*
Y42910D01*
X17470D01*
Y42930D01*
X17490D01*
Y42970D01*
X17470D01*
Y42990D01*
X17430D01*
Y42970D01*
X17410D01*
Y42930D01*
X17430D01*
X47410Y28460D02*
Y28420D01*
X47490D01*
Y28460D01*
X47530D01*
Y28540D01*
X47490D01*
Y28580D01*
X47410D01*
Y28540D01*
X47370D01*
Y28460D01*
X47410D01*
X47430Y28480D02*
Y28460D01*
X47470D01*
Y28480D01*
X47490D01*
Y28520D01*
X47470D01*
Y28540D01*
X47430D01*
Y28520D01*
X47410D01*
Y28480D01*
X47430D01*
X47460Y26510D02*
Y26470D01*
X47540D01*
Y26510D01*
X47580D01*
Y26590D01*
X47540D01*
Y26630D01*
X47460D01*
Y26590D01*
X47420D01*
Y26510D01*
X47460D01*
X47480Y26530D02*
Y26510D01*
X47520D01*
Y26530D01*
X47540D01*
Y26570D01*
X47520D01*
Y26590D01*
X47480D01*
Y26570D01*
X47460D01*
Y26530D01*
X47480D01*
X52460Y38210D02*
Y38170D01*
X52540D01*
Y38210D01*
X52580D01*
Y38290D01*
X52540D01*
Y38330D01*
X52460D01*
Y38290D01*
X52420D01*
Y38210D01*
X52460D01*
X52480Y38230D02*
Y38210D01*
X52520D01*
Y38230D01*
X52540D01*
Y38270D01*
X52520D01*
Y38290D01*
X52480D01*
Y38270D01*
X52460D01*
Y38230D01*
X52480D01*
X51110Y39110D02*
Y39070D01*
X51190D01*
Y39110D01*
X51230D01*
Y39190D01*
X51190D01*
Y39230D01*
X51110D01*
Y39190D01*
X51070D01*
Y39110D01*
X51110D01*
X51130Y39130D02*
Y39110D01*
X51170D01*
Y39130D01*
X51190D01*
Y39170D01*
X51170D01*
Y39190D01*
X51130D01*
Y39170D01*
X51110D01*
Y39130D01*
X51130D01*
X44110Y39060D02*
Y39020D01*
X44190D01*
Y39060D01*
X44230D01*
Y39140D01*
X44190D01*
Y39180D01*
X44110D01*
Y39140D01*
X44070D01*
Y39060D01*
X44110D01*
X44130Y39080D02*
Y39060D01*
X44170D01*
Y39080D01*
X44190D01*
Y39120D01*
X44170D01*
Y39140D01*
X44130D01*
Y39120D01*
X44110D01*
Y39080D01*
X44130D01*
X22020Y33770D02*
X22060D01*
X22100Y33810D01*
X22140Y33770D01*
X22180D01*
Y33810D01*
X22140Y33850D01*
X22180Y33890D01*
Y33930D01*
X22140D01*
X22100Y33890D01*
X22060Y33930D01*
X22020D01*
Y33890D01*
X22060Y33850D01*
X22020Y33810D01*
Y33770D01*
X22060Y33810D02*
X22080D01*
X22100Y33830D01*
X22120Y33810D01*
X22140D01*
Y33830D01*
X22120Y33850D01*
X22140Y33870D01*
Y33890D01*
X22120D01*
X22100Y33870D01*
X22080Y33890D01*
X22060D01*
Y33870D01*
X22080Y33850D01*
X22060Y33830D01*
Y33810D01*
X22210Y34760D02*
Y34720D01*
X22290D01*
Y34760D01*
X22330D01*
Y34840D01*
X22290D01*
Y34880D01*
X22210D01*
Y34840D01*
X22170D01*
Y34760D01*
X22210D01*
X22230Y34780D02*
Y34760D01*
X22270D01*
Y34780D01*
X22290D01*
Y34820D01*
X22270D01*
Y34840D01*
X22230D01*
Y34820D01*
X22210D01*
Y34780D01*
X22230D01*
X29310Y25010D02*
Y24970D01*
X29390D01*
Y25010D01*
X29430D01*
Y25090D01*
X29390D01*
Y25130D01*
X29310D01*
Y25090D01*
X29270D01*
Y25010D01*
X29310D01*
X29330Y25030D02*
Y25010D01*
X29370D01*
Y25030D01*
X29390D01*
Y25070D01*
X29370D01*
Y25090D01*
X29330D01*
Y25070D01*
X29310D01*
Y25030D01*
X29330D01*
X27960Y25960D02*
Y25920D01*
X28040D01*
Y25960D01*
X28080D01*
Y26040D01*
X28040D01*
Y26080D01*
X27960D01*
Y26040D01*
X27920D01*
Y25960D01*
X27960D01*
X27980Y25980D02*
Y25960D01*
X28020D01*
Y25980D01*
X28040D01*
Y26020D01*
X28020D01*
Y26040D01*
X27980D01*
Y26020D01*
X27960D01*
Y25980D01*
X27980D01*
X27110Y27260D02*
Y27220D01*
X27190D01*
Y27260D01*
X27230D01*
Y27340D01*
X27190D01*
Y27380D01*
X27110D01*
Y27340D01*
X27070D01*
Y27260D01*
X27110D01*
X27130Y27280D02*
Y27260D01*
X27170D01*
Y27280D01*
X27190D01*
Y27320D01*
X27170D01*
Y27340D01*
X27130D01*
Y27320D01*
X27110D01*
Y27280D01*
X27130D01*
X26660Y33210D02*
Y33170D01*
X26740D01*
Y33210D01*
X26780D01*
Y33290D01*
X26740D01*
Y33330D01*
X26660D01*
Y33290D01*
X26620D01*
Y33210D01*
X26660D01*
X26680Y33230D02*
Y33210D01*
X26720D01*
Y33230D01*
X26740D01*
Y33270D01*
X26720D01*
Y33290D01*
X26680D01*
Y33270D01*
X26660D01*
Y33230D01*
X26680D01*
X14710Y22110D02*
Y22070D01*
X14790D01*
Y22110D01*
X14830D01*
Y22190D01*
X14790D01*
Y22230D01*
X14710D01*
Y22190D01*
X14670D01*
Y22110D01*
X14710D01*
X14730Y22130D02*
Y22110D01*
X14770D01*
Y22130D01*
X14790D01*
Y22170D01*
X14770D01*
Y22190D01*
X14730D01*
Y22170D01*
X14710D01*
Y22130D01*
X14730D01*
X17670Y21770D02*
X17710D01*
X17750Y21810D01*
X17790Y21770D01*
X17830D01*
Y21810D01*
X17790Y21850D01*
X17830Y21890D01*
Y21930D01*
X17790D01*
X17750Y21890D01*
X17710Y21930D01*
X17670D01*
Y21890D01*
X17710Y21850D01*
X17670Y21810D01*
Y21770D01*
X17710Y21810D02*
X17730D01*
X17750Y21830D01*
X17770Y21810D01*
X17790D01*
Y21830D01*
X17770Y21850D01*
X17790Y21870D01*
Y21890D01*
X17770D01*
X17750Y21870D01*
X17730Y21890D01*
X17710D01*
Y21870D01*
X17730Y21850D01*
X17710Y21830D01*
Y21810D01*
X18310Y20760D02*
Y20720D01*
X18390D01*
Y20760D01*
X18430D01*
Y20840D01*
X18390D01*
Y20880D01*
X18310D01*
Y20840D01*
X18270D01*
Y20760D01*
X18310D01*
X18330Y20780D02*
Y20760D01*
X18370D01*
Y20780D01*
X18390D01*
Y20820D01*
X18370D01*
Y20840D01*
X18330D01*
Y20820D01*
X18310D01*
Y20780D01*
X18330D01*
X16470Y20220D02*
X16510D01*
X16550Y20260D01*
X16590Y20220D01*
X16630D01*
Y20260D01*
X16590Y20300D01*
X16630Y20340D01*
Y20380D01*
X16590D01*
X16550Y20340D01*
X16510Y20380D01*
X16470D01*
Y20340D01*
X16510Y20300D01*
X16470Y20260D01*
Y20220D01*
X16510Y20260D02*
X16530D01*
X16550Y20280D01*
X16570Y20260D01*
X16590D01*
Y20280D01*
X16570Y20300D01*
X16590Y20320D01*
Y20340D01*
X16570D01*
X16550Y20320D01*
X16530Y20340D01*
X16510D01*
Y20320D01*
X16530Y20300D01*
X16510Y20280D01*
Y20260D01*
X20810Y35460D02*
Y35420D01*
X20890D01*
Y35460D01*
X20930D01*
Y35540D01*
X20890D01*
Y35580D01*
X20810D01*
Y35540D01*
X20770D01*
Y35460D01*
X20810D01*
X20830Y35480D02*
Y35460D01*
X20870D01*
Y35480D01*
X20890D01*
Y35520D01*
X20870D01*
Y35540D01*
X20830D01*
Y35520D01*
X20810D01*
Y35480D01*
X20830D01*
X59620Y10170D02*
X59660D01*
X59700Y10210D01*
X59740Y10170D01*
X59780D01*
Y10210D01*
X59740Y10250D01*
X59780Y10290D01*
Y10330D01*
X59740D01*
X59700Y10290D01*
X59660Y10330D01*
X59620D01*
Y10290D01*
X59660Y10250D01*
X59620Y10210D01*
Y10170D01*
X59660Y10210D02*
X59680D01*
X59700Y10230D01*
X59720Y10210D01*
X59740D01*
Y10230D01*
X59720Y10250D01*
X59740Y10270D01*
Y10290D01*
X59720D01*
X59700Y10270D01*
X59680Y10290D01*
X59660D01*
Y10270D01*
X59680Y10250D01*
X59660Y10230D01*
Y10210D01*
X25160Y16910D02*
Y16870D01*
X25240D01*
Y16910D01*
X25280D01*
Y16990D01*
X25240D01*
Y17030D01*
X25160D01*
Y16990D01*
X25120D01*
Y16910D01*
X25160D01*
X25180Y16930D02*
Y16910D01*
X25220D01*
Y16930D01*
X25240D01*
Y16970D01*
X25220D01*
Y16990D01*
X25180D01*
Y16970D01*
X25160D01*
Y16930D01*
X25180D01*
X23960Y22060D02*
Y22020D01*
X24040D01*
Y22060D01*
X24080D01*
Y22140D01*
X24040D01*
Y22180D01*
X23960D01*
Y22140D01*
X23920D01*
Y22060D01*
X23960D01*
X23980Y22080D02*
Y22060D01*
X24020D01*
Y22080D01*
X24040D01*
Y22120D01*
X24020D01*
Y22140D01*
X23980D01*
Y22120D01*
X23960D01*
Y22080D01*
X23980D01*
X20520Y24420D02*
X20560D01*
X20600Y24460D01*
X20640Y24420D01*
X20680D01*
Y24460D01*
X20640Y24500D01*
X20680Y24540D01*
Y24580D01*
X20640D01*
X20600Y24540D01*
X20560Y24580D01*
X20520D01*
Y24540D01*
X20560Y24500D01*
X20520Y24460D01*
Y24420D01*
X20560Y24460D02*
X20580D01*
X20600Y24480D01*
X20620Y24460D01*
X20640D01*
Y24480D01*
X20620Y24500D01*
X20640Y24520D01*
Y24540D01*
X20620D01*
X20600Y24520D01*
X20580Y24540D01*
X20560D01*
Y24520D01*
X20580Y24500D01*
X20560Y24480D01*
Y24460D01*
X12170Y23970D02*
X12210D01*
X12250Y24010D01*
X12290Y23970D01*
X12330D01*
Y24010D01*
X12290Y24050D01*
X12330Y24090D01*
Y24130D01*
X12290D01*
X12250Y24090D01*
X12210Y24130D01*
X12170D01*
Y24090D01*
X12210Y24050D01*
X12170Y24010D01*
Y23970D01*
X12210Y24010D02*
X12230D01*
X12250Y24030D01*
X12270Y24010D01*
X12290D01*
Y24030D01*
X12270Y24050D01*
X12290Y24070D01*
Y24090D01*
X12270D01*
X12250Y24070D01*
X12230Y24090D01*
X12210D01*
Y24070D01*
X12230Y24050D01*
X12210Y24030D01*
Y24010D01*
X13720Y24070D02*
X13760D01*
X13800Y24110D01*
X13840Y24070D01*
X13880D01*
Y24110D01*
X13840Y24150D01*
X13880Y24190D01*
Y24230D01*
X13840D01*
X13800Y24190D01*
X13760Y24230D01*
X13720D01*
Y24190D01*
X13760Y24150D01*
X13720Y24110D01*
Y24070D01*
X13760Y24110D02*
X13780D01*
X13800Y24130D01*
X13820Y24110D01*
X13840D01*
Y24130D01*
X13820Y24150D01*
X13840Y24170D01*
Y24190D01*
X13820D01*
X13800Y24170D01*
X13780Y24190D01*
X13760D01*
Y24170D01*
X13780Y24150D01*
X13760Y24130D01*
Y24110D01*
X17118Y19892D02*
X17158D01*
X17198Y19932D01*
X17238Y19892D01*
X17278D01*
Y19932D01*
X17238Y19972D01*
X17278Y20012D01*
Y20052D01*
X17238D01*
X17198Y20012D01*
X17158Y20052D01*
X17118D01*
Y20012D01*
X17158Y19972D01*
X17118Y19932D01*
Y19892D01*
X17158Y19932D02*
X17178D01*
X17198Y19952D01*
X17218Y19932D01*
X17238D01*
Y19952D01*
X17218Y19972D01*
X17238Y19992D01*
Y20012D01*
X17218D01*
X17198Y19992D01*
X17178Y20012D01*
X17158D01*
Y19992D01*
X17178Y19972D01*
X17158Y19952D01*
Y19932D01*
X16410Y32510D02*
Y32470D01*
X16490D01*
Y32510D01*
X16530D01*
Y32590D01*
X16490D01*
Y32630D01*
X16410D01*
Y32590D01*
X16370D01*
Y32510D01*
X16410D01*
X16430Y32530D02*
Y32510D01*
X16470D01*
Y32530D01*
X16490D01*
Y32570D01*
X16470D01*
Y32590D01*
X16430D01*
Y32570D01*
X16410D01*
Y32530D01*
X16430D01*
X16610Y37560D02*
Y37520D01*
X16690D01*
Y37560D01*
X16730D01*
Y37640D01*
X16690D01*
Y37680D01*
X16610D01*
Y37640D01*
X16570D01*
Y37560D01*
X16610D01*
X16630Y37580D02*
Y37560D01*
X16670D01*
Y37580D01*
X16690D01*
Y37620D01*
X16670D01*
Y37640D01*
X16630D01*
Y37620D01*
X16610D01*
Y37580D01*
X16630D01*
D134*
X67430Y19963D02*
G03*
X67430Y19963I-80J0D01*
G01*
Y20750D02*
G03*
X67430Y20750I-80J0D01*
G01*
Y21537D02*
G03*
X67430Y21537I-80J0D01*
G01*
Y22325D02*
G03*
X67430Y22325I-80J0D01*
G01*
X67380Y28613D02*
G03*
X67380Y28613I-80J0D01*
G01*
Y29400D02*
G03*
X67380Y29400I-80J0D01*
G01*
Y30187D02*
G03*
X67380Y30187I-80J0D01*
G01*
Y30975D02*
G03*
X67380Y30975I-80J0D01*
G01*
X13930Y7550D02*
G03*
X13930Y7550I-80J0D01*
G01*
X15930D02*
G03*
X15930Y7550I-80J0D01*
G01*
X17930D02*
G03*
X17930Y7550I-80J0D01*
G01*
X19930D02*
G03*
X19930Y7550I-80J0D01*
G01*
D135*
X13890D02*
G03*
X13890Y7550I-40J0D01*
G01*
X15890D02*
G03*
X15890Y7550I-40J0D01*
G01*
X17890D02*
G03*
X17890Y7550I-40J0D01*
G01*
X19890D02*
G03*
X19890Y7550I-40J0D01*
G01*
M02*
