M48
;Layer_Color=9474304
;FILE_FORMAT=2:4
INCH,LZ
;TYPE=PLATED
T1F00S00C0.0150
T3F00S00C0.0276
T4F00S00C0.0280
T5F00S00C0.0315
T6F00S00C0.0354
T7F00S00C0.0394
T8F00S00C0.0400
T9F00S00C0.0402
T10F00S00C0.0450
T11F00S00C0.0500
T12F00S00C0.0551
T13F00S00C0.0600
;TYPE=NON_PLATED
T14F00S00C0.1299
%
T01
X0597Y01025
X0667Y0293
X0206Y0245
X01775Y02185
X017198Y019972
X01655Y0203
X0138Y02415
X01225Y02405
X00975Y03565
X0115Y03885
X012589Y041572
X0221Y03385
X0328Y03505
T03
X06735Y019963
Y02075
Y021537
Y022325
X0673Y028613
Y0294
Y030187
Y030975
T04
X05885Y0061
X06145Y00785
X06315Y0112
Y01245
X0655Y01235
X0648Y01005
X0688Y0205
X0475Y02655
X04745Y0285
X0445Y0252
X04425Y0238
X042873Y023139
X04285Y02045
X03935Y0231
X02935Y02505
X028Y026
X02715Y0273
X02455Y03115
X024Y0221
X0252Y01695
X02025Y0186
X0181Y0183
X01835Y0208
X01685Y0284
X01475Y02215
X01465Y0324
X0114Y0376
X014123Y045186
X01745Y04295
X01665Y0376
X0205Y037
X02085Y0355
X02225Y0348
X0267Y03325
X02555Y038452
X02295Y0405
X02475Y04475
X01645Y03255
X04415Y0391
X05115Y03915
X0525Y03825
X0507Y0342
X05355Y03235
X06025Y03245
X06615Y0359
X06895Y0375
T05
X051332Y006861
X052316
X0533
X060966
X06195
X062934
X04435Y02195
X04335
X04235
X03275Y02245
X03175
X03075
X02975
X02875
X02775
T06
X03195Y02735
X03295
X03395
X03495
X03595
X03695
X03795
X03895
X03995
X04095
X0426Y0287
Y0297
Y0307
X03095Y02735
X02995
X03005Y03875
X03105
X03205
X03305
X03405
X03505
X03605
X03705
X03805
X03905
X04005
X04105
X0426Y0327
Y0317
X04315Y045
Y046
X0324
Y045
Y047
Y048
Y049
Y05
Y051
Y052
X04315
Y051
Y05
Y049
Y048
Y047
T07
X0564Y007389
X0574
X0584
X041148Y029879
X040163
X039179
X038195
X037211
X036226
X035242
X034258
X033274
X032289
X031305
X030321
X029337Y030371
Y031355
Y032339
Y033324
Y034308
Y035292
X030321Y035784
X031305
X032289
X033274
X034258
X035242
X036226
X037211
X038195
X039179
X040163
X041148
Y0348
Y033816
Y032831
X03475Y0348
X033766
T08
X0644Y006575
X0654
X06625
X06725
X0685
X0695
X02305Y05095
Y05245
T09
X008014Y006679
X009014
X010014
X011014
Y022907
X010014
X009014
X008014
T10
X0482Y0429
X050562Y042113
X052924Y0429
X056088Y043037
X05845Y04225
X060812Y043037
X063788Y043087
X06615Y0423
X068512Y043087
X068588Y047891
X063788
X060888Y047841
X056088
X053Y047703
X0482
T11
X0157Y054
X0137
T12
X0636Y05285
X0656
X067605
X060255Y0527
X05825
X05625
X052405Y053
X0504
X0484
T13
X01385Y00755
X01585
X01785
X01985
T14
X023401Y007045
X03285Y00705
X039501Y006995
X04895
Y019594
X039501
X03285Y019644
X023401
M30
