G04*
G04 #@! TF.GenerationSoftware,Altium Limited,Altium Designer,21.3.2 (30)*
G04*
G04 Layer_Color=128*
%FSLAX24Y24*%
%MOIN*%
G70*
G04*
G04 #@! TF.SameCoordinates,4918C4AF-473F-441A-9CD2-E68DF055B6D3*
G04*
G04*
G04 #@! TF.FilePolarity,Positive*
G04*
G01*
G75*
%ADD133C,0.0020*%
D133*
X13450Y54000D02*
X13950D01*
X13700Y53750D02*
Y54250D01*
X15450Y54000D02*
X15950D01*
X15700Y53750D02*
Y54250D01*
X67212Y19963D02*
X67488D01*
X67350Y19825D02*
Y20100D01*
X67212Y20750D02*
X67488D01*
X67350Y20612D02*
Y20888D01*
X67212Y21537D02*
X67488D01*
X67350Y21400D02*
Y21675D01*
X67212Y22325D02*
X67488D01*
X67350Y22187D02*
Y22463D01*
X60808Y6861D02*
X61123D01*
X60966Y6704D02*
Y7019D01*
X61793Y6861D02*
X62107D01*
X61950Y6704D02*
Y7019D01*
X62777Y6861D02*
X63092D01*
X62934Y6704D02*
Y7019D01*
X51174Y6861D02*
X51489D01*
X51332Y6704D02*
Y7019D01*
X52158Y6861D02*
X52473D01*
X52316Y6704D02*
Y7019D01*
X53143Y6861D02*
X53457D01*
X53300Y6704D02*
Y7019D01*
X67162Y28613D02*
X67438D01*
X67300Y28475D02*
Y28750D01*
X67162Y29400D02*
X67438D01*
X67300Y29262D02*
Y29538D01*
X67162Y30187D02*
X67438D01*
X67300Y30050D02*
Y30325D01*
X67162Y30975D02*
X67438D01*
X67300Y30837D02*
Y31113D01*
X67329Y52850D02*
X67881D01*
X67605Y52574D02*
Y53126D01*
X63324Y52850D02*
X63876D01*
X63600Y52574D02*
Y53126D01*
X65324Y52850D02*
X65876D01*
X65600Y52574D02*
Y53126D01*
X57974Y52700D02*
X58526D01*
X58250Y52424D02*
Y52976D01*
X55974Y52700D02*
X56526D01*
X56250Y52424D02*
Y52976D01*
X59979Y52700D02*
X60531D01*
X60255Y52424D02*
Y52976D01*
X52129Y53000D02*
X52681D01*
X52405Y52724D02*
Y53276D01*
X48124Y53000D02*
X48676D01*
X48400Y52724D02*
Y53276D01*
X50124Y53000D02*
X50676D01*
X50400Y52724D02*
Y53276D01*
X43193Y21950D02*
X43507D01*
X43350Y21793D02*
Y22107D01*
X42193Y21950D02*
X42507D01*
X42350Y21793D02*
Y22107D01*
X44193Y21950D02*
X44507D01*
X44350Y21793D02*
Y22107D01*
X9152Y50490D02*
X9348D01*
X9250Y50392D02*
Y50588D01*
X9152Y52950D02*
X9348D01*
X9250Y52852D02*
Y53048D01*
X6819Y51670D02*
X7901D01*
X7360Y51129D02*
Y52211D01*
X52699Y42900D02*
X53149D01*
X52924Y42675D02*
Y43125D01*
X47975Y42900D02*
X48425D01*
X48200Y42675D02*
Y43125D01*
X52775Y47703D02*
X53225D01*
X53000Y47478D02*
Y47928D01*
X47975Y47703D02*
X48425D01*
X48200Y47478D02*
Y47928D01*
X50337Y42113D02*
X50787D01*
X50562Y41888D02*
Y42338D01*
X60587Y43037D02*
X61037D01*
X60812Y42812D02*
Y43262D01*
X55863Y43037D02*
X56313D01*
X56088Y42812D02*
Y43262D01*
X60663Y47841D02*
X61113D01*
X60888Y47616D02*
Y48066D01*
X55863Y47841D02*
X56313D01*
X56088Y47616D02*
Y48066D01*
X58225Y42250D02*
X58675D01*
X58450Y42025D02*
Y42475D01*
X68287Y43087D02*
X68737D01*
X68512Y42862D02*
Y43312D01*
X63563Y43087D02*
X64013D01*
X63788Y42862D02*
Y43312D01*
X68363Y47891D02*
X68813D01*
X68588Y47666D02*
Y48116D01*
X63563Y47891D02*
X64013D01*
X63788Y47666D02*
Y48116D01*
X65925Y42300D02*
X66375D01*
X66150Y42075D02*
Y42525D01*
X58203Y7389D02*
X58597D01*
X58400Y7192D02*
Y7585D01*
X57203Y7389D02*
X57597D01*
X57400Y7192D02*
Y7585D01*
X56203Y7389D02*
X56597D01*
X56400Y7192D02*
Y7585D01*
X8813Y6679D02*
X9215D01*
X9014Y6478D02*
Y6880D01*
X9813Y6679D02*
X10215D01*
X10014Y6478D02*
Y6880D01*
X10813Y6679D02*
X11215D01*
X11014Y6478D02*
Y6880D01*
X7813Y6679D02*
X8215D01*
X8014Y6478D02*
Y6880D01*
X8813Y22907D02*
X9215D01*
X9014Y22706D02*
Y23108D01*
X9813Y22907D02*
X10215D01*
X10014Y22706D02*
Y23108D01*
X10813Y22907D02*
X11215D01*
X11014Y22706D02*
Y23108D01*
X7813Y22907D02*
X8215D01*
X8014Y22706D02*
Y23108D01*
X13550Y7550D02*
X14150D01*
X13850Y7250D02*
Y7850D01*
X15550Y7550D02*
X16150D01*
X15850Y7250D02*
Y7850D01*
X17550Y7550D02*
X18150D01*
X17850Y7250D02*
Y7850D01*
X19550Y7550D02*
X20150D01*
X19850Y7250D02*
Y7850D01*
X22850Y52450D02*
X23250D01*
X23050Y52250D02*
Y52650D01*
X22850Y50950D02*
X23250D01*
X23050Y50750D02*
Y51150D01*
X30124Y35784D02*
X30518D01*
X30321Y35587D02*
Y35981D01*
X30124Y29879D02*
X30518D01*
X30321Y29682D02*
Y30076D01*
X31108Y29879D02*
X31502D01*
X31305Y29682D02*
Y30076D01*
X32093Y29879D02*
X32486D01*
X32289Y29682D02*
Y30076D01*
X33077Y29879D02*
X33470D01*
X33274Y29682D02*
Y30076D01*
X34061Y29879D02*
X34455D01*
X34258Y29682D02*
Y30076D01*
X35045Y29879D02*
X35439D01*
X35242Y29682D02*
Y30076D01*
X36030Y29879D02*
X36423D01*
X36226Y29682D02*
Y30076D01*
X37014Y29879D02*
X37407D01*
X37211Y29682D02*
Y30076D01*
X37998Y29879D02*
X38392D01*
X38195Y29682D02*
Y30076D01*
X38982Y29879D02*
X39376D01*
X39179Y29682D02*
Y30076D01*
X39967Y29879D02*
X40360D01*
X40163Y29682D02*
Y30076D01*
X40951Y29879D02*
X41344D01*
X41148Y29682D02*
Y30076D01*
X40951Y35784D02*
X41344D01*
X41148Y35587D02*
Y35981D01*
X39967Y35784D02*
X40360D01*
X40163Y35587D02*
Y35981D01*
X38982Y35784D02*
X39376D01*
X39179Y35587D02*
Y35981D01*
X37998Y35784D02*
X38392D01*
X38195Y35587D02*
Y35981D01*
X37014Y35784D02*
X37407D01*
X37211Y35587D02*
Y35981D01*
X36030Y35784D02*
X36423D01*
X36226Y35587D02*
Y35981D01*
X35045Y35784D02*
X35439D01*
X35242Y35587D02*
Y35981D01*
X34061Y35784D02*
X34455D01*
X34258Y35587D02*
Y35981D01*
X33077Y35784D02*
X33470D01*
X33274Y35587D02*
Y35981D01*
X32093Y35784D02*
X32486D01*
X32289Y35587D02*
Y35981D01*
X31108Y35784D02*
X31502D01*
X31305Y35587D02*
Y35981D01*
X40951Y34800D02*
X41344D01*
X41148Y34603D02*
Y34997D01*
X40951Y33816D02*
X41344D01*
X41148Y33619D02*
Y34013D01*
X40951Y32831D02*
X41344D01*
X41148Y32635D02*
Y33028D01*
X33569Y34800D02*
X33963D01*
X33766Y34603D02*
Y34997D01*
X34553Y34800D02*
X34947D01*
X34750Y34603D02*
Y34997D01*
X29140Y30371D02*
X29533D01*
X29337Y30174D02*
Y30568D01*
X29140Y31355D02*
X29533D01*
X29337Y31158D02*
Y31552D01*
X29140Y32339D02*
X29533D01*
X29337Y32143D02*
Y32536D01*
X29140Y33324D02*
X29533D01*
X29337Y33127D02*
Y33520D01*
X29140Y34308D02*
X29533D01*
X29337Y34111D02*
Y34505D01*
X29140Y35292D02*
X29533D01*
X29337Y35095D02*
Y35489D01*
X29773Y27350D02*
X30127D01*
X29950Y27173D02*
Y27527D01*
X30773Y27350D02*
X31127D01*
X30950Y27173D02*
Y27527D01*
X31773Y27350D02*
X32127D01*
X31950Y27173D02*
Y27527D01*
X32773Y27350D02*
X33127D01*
X32950Y27173D02*
Y27527D01*
X33773Y27350D02*
X34127D01*
X33950Y27173D02*
Y27527D01*
X34773Y27350D02*
X35127D01*
X34950Y27173D02*
Y27527D01*
X35773Y27350D02*
X36127D01*
X35950Y27173D02*
Y27527D01*
X36773Y27350D02*
X37127D01*
X36950Y27173D02*
Y27527D01*
X37773Y27350D02*
X38127D01*
X37950Y27173D02*
Y27527D01*
X38773Y27350D02*
X39127D01*
X38950Y27173D02*
Y27527D01*
X39773Y27350D02*
X40127D01*
X39950Y27173D02*
Y27527D01*
X40773Y27350D02*
X41127D01*
X40950Y27173D02*
Y27527D01*
X40873Y38750D02*
X41227D01*
X41050Y38573D02*
Y38927D01*
X39873Y38750D02*
X40227D01*
X40050Y38573D02*
Y38927D01*
X38873Y38750D02*
X39227D01*
X39050Y38573D02*
Y38927D01*
X37873Y38750D02*
X38227D01*
X38050Y38573D02*
Y38927D01*
X36873Y38750D02*
X37227D01*
X37050Y38573D02*
Y38927D01*
X35873Y38750D02*
X36227D01*
X36050Y38573D02*
Y38927D01*
X34873Y38750D02*
X35227D01*
X35050Y38573D02*
Y38927D01*
X33873Y38750D02*
X34227D01*
X34050Y38573D02*
Y38927D01*
X32873Y38750D02*
X33227D01*
X33050Y38573D02*
Y38927D01*
X31873Y38750D02*
X32227D01*
X32050Y38573D02*
Y38927D01*
X30873Y38750D02*
X31227D01*
X31050Y38573D02*
Y38927D01*
X29873Y38750D02*
X30227D01*
X30050Y38573D02*
Y38927D01*
X42423Y28700D02*
X42777D01*
X42600Y28523D02*
Y28877D01*
X42423Y29700D02*
X42777D01*
X42600Y29523D02*
Y29877D01*
X42423Y30700D02*
X42777D01*
X42600Y30523D02*
Y30877D01*
X42423Y31700D02*
X42777D01*
X42600Y31523D02*
Y31877D01*
X42423Y32700D02*
X42777D01*
X42600Y32523D02*
Y32877D01*
X65200Y6575D02*
X65600D01*
X65400Y6375D02*
Y6775D01*
X64200Y6575D02*
X64600D01*
X64400Y6375D02*
Y6775D01*
X67050Y6575D02*
X67450D01*
X67250Y6375D02*
Y6775D01*
X66050Y6575D02*
X66450D01*
X66250Y6375D02*
Y6775D01*
X29593Y22450D02*
X29907D01*
X29750Y22293D02*
Y22607D01*
X27593Y22450D02*
X27907D01*
X27750Y22293D02*
Y22607D01*
X28593Y22450D02*
X28907D01*
X28750Y22293D02*
Y22607D01*
X30593Y22450D02*
X30907D01*
X30750Y22293D02*
Y22607D01*
X31593Y22450D02*
X31907D01*
X31750Y22293D02*
Y22607D01*
X32593Y22450D02*
X32907D01*
X32750Y22293D02*
Y22607D01*
X69300Y6575D02*
X69700D01*
X69500Y6375D02*
Y6775D01*
X68300Y6575D02*
X68700D01*
X68500Y6375D02*
Y6775D01*
X22752Y7045D02*
X24051D01*
X23401Y6396D02*
Y7695D01*
X22752Y19644D02*
X24051D01*
X23401Y18994D02*
Y20293D01*
X32200Y19644D02*
X33500D01*
X32850Y18994D02*
Y20293D01*
X32200Y7050D02*
X33500D01*
X32850Y6400D02*
Y7700D01*
X42973Y52000D02*
X43327D01*
X43150Y51823D02*
Y52177D01*
X42973Y51000D02*
X43327D01*
X43150Y50823D02*
Y51177D01*
X42973Y50000D02*
X43327D01*
X43150Y49823D02*
Y50177D01*
X42973Y49000D02*
X43327D01*
X43150Y48823D02*
Y49177D01*
X42973Y48000D02*
X43327D01*
X43150Y47823D02*
Y48177D01*
X42973Y47000D02*
X43327D01*
X43150Y46823D02*
Y47177D01*
X42973Y46000D02*
X43327D01*
X43150Y45823D02*
Y46177D01*
X42973Y45000D02*
X43327D01*
X43150Y44823D02*
Y45177D01*
X32223Y52000D02*
X32577D01*
X32400Y51823D02*
Y52177D01*
X32223Y51000D02*
X32577D01*
X32400Y50823D02*
Y51177D01*
X32223Y50000D02*
X32577D01*
X32400Y49823D02*
Y50177D01*
X32223Y49000D02*
X32577D01*
X32400Y48823D02*
Y49177D01*
X32223Y48000D02*
X32577D01*
X32400Y47823D02*
Y48177D01*
X32223Y47000D02*
X32577D01*
X32400Y46823D02*
Y47177D01*
X32223Y46000D02*
X32577D01*
X32400Y45823D02*
Y46177D01*
X32223Y45000D02*
X32577D01*
X32400Y44823D02*
Y45177D01*
X48300Y6995D02*
X49600D01*
X48950Y6346D02*
Y7645D01*
X38852Y6995D02*
X40151D01*
X39501Y6346D02*
Y7645D01*
X38852Y19594D02*
X40151D01*
X39501Y18944D02*
Y20243D01*
X48300Y19594D02*
X49600D01*
X48950Y18944D02*
Y20243D01*
X42733Y23139D02*
X43013D01*
X42873Y22999D02*
Y23279D01*
X39210Y23100D02*
X39490D01*
X39350Y22960D02*
Y23240D01*
X44110Y23800D02*
X44390D01*
X44250Y23660D02*
Y23940D01*
X42710Y20450D02*
X42990D01*
X42850Y20310D02*
Y20590D01*
X68810Y37500D02*
X69090D01*
X68950Y37360D02*
Y37640D01*
X20360Y37000D02*
X20640D01*
X20500Y36860D02*
Y37140D01*
X11260Y37600D02*
X11540D01*
X11400Y37460D02*
Y37740D01*
X20110Y18600D02*
X20390D01*
X20250Y18460D02*
Y18740D01*
X66625Y29300D02*
X66775D01*
X66700Y29225D02*
Y29375D01*
X60110Y32450D02*
X60390D01*
X60250Y32310D02*
Y32590D01*
X13983Y45186D02*
X14263D01*
X14123Y45046D02*
Y45326D01*
X68660Y20500D02*
X68940D01*
X68800Y20360D02*
Y20640D01*
X64660Y10050D02*
X64940D01*
X64800Y9910D02*
Y10190D01*
X58710Y6100D02*
X58990D01*
X58850Y5960D02*
Y6240D01*
X61310Y7850D02*
X61590D01*
X61450Y7710D02*
Y7990D01*
X9675Y35650D02*
X9825D01*
X9750Y35575D02*
Y35725D01*
X11425Y38850D02*
X11575D01*
X11500Y38775D02*
Y38925D01*
X12514Y41572D02*
X12664D01*
X12589Y41497D02*
Y41647D01*
X63010Y11200D02*
X63290D01*
X63150Y11060D02*
Y11340D01*
X44360Y25200D02*
X44640D01*
X44500Y25060D02*
Y25340D01*
X32725Y35050D02*
X32875D01*
X32800Y34975D02*
Y35125D01*
X17960Y18300D02*
X18240D01*
X18100Y18160D02*
Y18440D01*
X63010Y12450D02*
X63290D01*
X63150Y12310D02*
Y12590D01*
X65360Y12350D02*
X65640D01*
X65500Y12210D02*
Y12490D01*
X66010Y35900D02*
X66290D01*
X66150Y35760D02*
Y36040D01*
X53410Y32350D02*
X53690D01*
X53550Y32210D02*
Y32490D01*
X50560Y34200D02*
X50840D01*
X50700Y34060D02*
Y34340D01*
X22810Y40500D02*
X23090D01*
X22950Y40360D02*
Y40640D01*
X24610Y44750D02*
X24890D01*
X24750Y44610D02*
Y44890D01*
X24410Y31150D02*
X24690D01*
X24550Y31010D02*
Y31290D01*
X16710Y28400D02*
X16990D01*
X16850Y28260D02*
Y28540D01*
X14510Y32400D02*
X14790D01*
X14650Y32260D02*
Y32540D01*
X25410Y38452D02*
X25690D01*
X25550Y38312D02*
Y38592D01*
X17310Y42950D02*
X17590D01*
X17450Y42810D02*
Y43090D01*
X47310Y28500D02*
X47590D01*
X47450Y28360D02*
Y28640D01*
X47360Y26550D02*
X47640D01*
X47500Y26410D02*
Y26690D01*
X52360Y38250D02*
X52640D01*
X52500Y38110D02*
Y38390D01*
X51010Y39150D02*
X51290D01*
X51150Y39010D02*
Y39290D01*
X44010Y39100D02*
X44290D01*
X44150Y38960D02*
Y39240D01*
X22025Y33850D02*
X22175D01*
X22100Y33775D02*
Y33925D01*
X22110Y34800D02*
X22390D01*
X22250Y34660D02*
Y34940D01*
X29210Y25050D02*
X29490D01*
X29350Y24910D02*
Y25190D01*
X27860Y26000D02*
X28140D01*
X28000Y25860D02*
Y26140D01*
X27010Y27300D02*
X27290D01*
X27150Y27160D02*
Y27440D01*
X26560Y33250D02*
X26840D01*
X26700Y33110D02*
Y33390D01*
X14610Y22150D02*
X14890D01*
X14750Y22010D02*
Y22290D01*
X17675Y21850D02*
X17825D01*
X17750Y21775D02*
Y21925D01*
X18210Y20800D02*
X18490D01*
X18350Y20660D02*
Y20940D01*
X16475Y20300D02*
X16625D01*
X16550Y20225D02*
Y20375D01*
X20710Y35500D02*
X20990D01*
X20850Y35360D02*
Y35640D01*
X59625Y10250D02*
X59775D01*
X59700Y10175D02*
Y10325D01*
X25060Y16950D02*
X25340D01*
X25200Y16810D02*
Y17090D01*
X23860Y22100D02*
X24140D01*
X24000Y21960D02*
Y22240D01*
X20525Y24500D02*
X20675D01*
X20600Y24425D02*
Y24575D01*
X12175Y24050D02*
X12325D01*
X12250Y23975D02*
Y24125D01*
X13725Y24150D02*
X13875D01*
X13800Y24075D02*
Y24225D01*
X17123Y19972D02*
X17273D01*
X17198Y19897D02*
Y20047D01*
X16310Y32550D02*
X16590D01*
X16450Y32410D02*
Y32690D01*
X16510Y37600D02*
X16790D01*
X16650Y37460D02*
Y37740D01*
M02*
