G04*
G04 #@! TF.GenerationSoftware,Altium Limited,Altium Designer,21.3.2 (30)*
G04*
G04 Layer_Color=8421504*
%FSLAX24Y24*%
%MOIN*%
G70*
G04*
G04 #@! TF.SameCoordinates,4918C4AF-473F-441A-9CD2-E68DF055B6D3*
G04*
G04*
G04 #@! TF.FilePolarity,Positive*
G04*
G01*
G75*
%ADD20R,0.0551X0.0472*%
%ADD21R,0.0394X0.0945*%
%ADD22R,0.1299X0.0945*%
%ADD23R,0.0472X0.0335*%
%ADD24R,0.0335X0.0472*%
%ADD25R,0.0540X0.0500*%
%ADD26R,0.1299X0.0945*%
%ADD27R,0.1024X0.0591*%
%ADD28R,0.0500X0.0540*%
%ADD29R,0.0472X0.0551*%
%ADD30R,0.0550X0.0500*%
%ADD31O,0.0360X0.1000*%
%ADD32R,0.2600X0.3000*%
%ADD33R,0.0360X0.1000*%
%ADD34R,0.0600X0.0600*%
%ADD35R,0.0669X0.0669*%
%ADD36R,0.0591X0.1024*%
%ADD37R,0.0500X0.0550*%
%ADD38R,0.0360X0.0500*%
%ADD39O,0.0800X0.0240*%
%ADD40R,0.0800X0.0900*%
%ADD41R,0.0906X0.0906*%
%ADD42R,0.0600X0.0850*%
%ADD43R,0.1400X0.0900*%
%ADD44R,0.1200X0.0750*%
%ADD45R,0.1300X0.2000*%
%ADD46O,0.0400X0.0200*%
G04:AMPARAMS|DCode=47|XSize=20mil|YSize=40mil|CornerRadius=0mil|HoleSize=0mil|Usage=FLASHONLY|Rotation=90.000|XOffset=0mil|YOffset=0mil|HoleType=Round|Shape=Octagon|*
%AMOCTAGOND47*
4,1,8,-0.0200,-0.0050,-0.0200,0.0050,-0.0150,0.0100,0.0150,0.0100,0.0200,0.0050,0.0200,-0.0050,0.0150,-0.0100,-0.0150,-0.0100,-0.0200,-0.0050,0.0*
%
%ADD47OCTAGOND47*%

%ADD48R,0.1102X0.0433*%
%ADD49R,0.1024X0.0433*%
D20*
X68700Y22098D02*
D03*
Y21350D02*
D03*
X68801Y31026D02*
D03*
Y30278D02*
D03*
X20199Y19374D02*
D03*
Y20122D02*
D03*
X39749Y21674D02*
D03*
Y22422D02*
D03*
X59500Y6154D02*
D03*
Y6902D02*
D03*
X44949Y38972D02*
D03*
Y38224D02*
D03*
X30901Y50228D02*
D03*
Y50976D02*
D03*
X23600Y32750D02*
D03*
Y32002D02*
D03*
X22800Y39750D02*
D03*
Y39002D02*
D03*
D21*
X21856Y42592D02*
D03*
X20950D02*
D03*
X20044D02*
D03*
D22*
X20950Y40308D02*
D03*
D23*
X63708Y10862D02*
D03*
X63710Y11620D02*
D03*
X64692Y11248D02*
D03*
D24*
X59588Y33158D02*
D03*
X58830Y33160D02*
D03*
X59202Y34142D02*
D03*
X66288Y32808D02*
D03*
X65530Y32810D02*
D03*
X65902Y33792D02*
D03*
X53138Y33408D02*
D03*
X52380Y33410D02*
D03*
X52752Y34392D02*
D03*
D25*
X65250Y39900D02*
D03*
X64350D02*
D03*
X19650Y24450D02*
D03*
X18750D02*
D03*
X63850Y9300D02*
D03*
X62950D02*
D03*
X57350Y39850D02*
D03*
X58250D02*
D03*
X45850Y27000D02*
D03*
X46750D02*
D03*
X45900Y28950D02*
D03*
X46800D02*
D03*
X40650Y25450D02*
D03*
X41550D02*
D03*
X8700Y24950D02*
D03*
X9600D02*
D03*
X13150Y22750D02*
D03*
X14050D02*
D03*
X12800Y28000D02*
D03*
X13700D02*
D03*
X11800Y43900D02*
D03*
X10900D02*
D03*
X12050Y38200D02*
D03*
X11150D02*
D03*
X57700Y36950D02*
D03*
X56800D02*
D03*
X61500Y10150D02*
D03*
X60600D02*
D03*
X57950Y31550D02*
D03*
X57050D02*
D03*
X25100Y37800D02*
D03*
X26000D02*
D03*
X57800Y9600D02*
D03*
X56900D02*
D03*
X61700Y30350D02*
D03*
X60800D02*
D03*
X47750Y32350D02*
D03*
X46850D02*
D03*
D26*
X60400Y36964D02*
D03*
Y39700D02*
D03*
X62500Y39718D02*
D03*
Y36982D02*
D03*
X52700Y36414D02*
D03*
Y39150D02*
D03*
D27*
X49500Y35391D02*
D03*
Y34209D02*
D03*
X47150Y35500D02*
D03*
Y34319D02*
D03*
X54950Y36900D02*
D03*
Y38081D02*
D03*
D28*
X47450Y38000D02*
D03*
Y38900D02*
D03*
X22500Y16450D02*
D03*
Y15550D02*
D03*
X19900Y16500D02*
D03*
Y15600D02*
D03*
X17200Y16550D02*
D03*
Y15650D02*
D03*
X18600Y26450D02*
D03*
Y27350D02*
D03*
X15750Y32000D02*
D03*
Y31100D02*
D03*
X17300Y29750D02*
D03*
Y30650D02*
D03*
X49300Y38000D02*
D03*
Y38900D02*
D03*
X61700Y32300D02*
D03*
Y33200D02*
D03*
X11550Y24200D02*
D03*
Y25100D02*
D03*
X26250Y42800D02*
D03*
Y41900D02*
D03*
X15050Y47500D02*
D03*
Y48400D02*
D03*
X26350Y46000D02*
D03*
Y45100D02*
D03*
X15700Y36700D02*
D03*
Y37600D02*
D03*
X9150Y38200D02*
D03*
Y37300D02*
D03*
X7160Y40800D02*
D03*
Y41700D02*
D03*
X9050Y40750D02*
D03*
Y41650D02*
D03*
X20900Y32950D02*
D03*
Y33850D02*
D03*
X17350Y34450D02*
D03*
Y33550D02*
D03*
X27150Y48200D02*
D03*
Y49100D02*
D03*
D29*
X29876Y24349D02*
D03*
X29128D02*
D03*
X63752Y14750D02*
D03*
X64500D02*
D03*
X19228Y37549D02*
D03*
X19976D02*
D03*
D30*
X16100Y27150D02*
D03*
Y28050D02*
D03*
D31*
X21550Y30100D02*
D03*
D32*
X22450Y27600D02*
D03*
D33*
X23350Y30100D02*
D03*
D34*
X19700Y30550D02*
D03*
Y29200D02*
D03*
D35*
X28250Y16549D02*
D03*
Y15250D02*
D03*
D36*
X64559Y37050D02*
D03*
X65741D02*
D03*
X55109Y33950D02*
D03*
X56291D02*
D03*
X68491Y36800D02*
D03*
X67309D02*
D03*
D37*
X43650Y25250D02*
D03*
X42750D02*
D03*
X25100Y48700D02*
D03*
X24200D02*
D03*
X27250Y37750D02*
D03*
X28150D02*
D03*
D38*
X23600Y45750D02*
D03*
X24000Y44750D02*
D03*
X23200D02*
D03*
X13050Y31650D02*
D03*
X13450Y30650D02*
D03*
X12650D02*
D03*
X22050Y36700D02*
D03*
X22450Y35700D02*
D03*
X21650D02*
D03*
D39*
X15950Y20400D02*
D03*
Y19900D02*
D03*
Y19400D02*
D03*
Y18900D02*
D03*
X18150D02*
D03*
Y19400D02*
D03*
Y19900D02*
D03*
Y20400D02*
D03*
D40*
X26300Y16650D02*
D03*
Y14950D02*
D03*
X7700Y47950D02*
D03*
Y46250D02*
D03*
X10700Y34050D02*
D03*
Y35750D02*
D03*
D41*
X13050Y47950D02*
D03*
Y46178D02*
D03*
D42*
X19700Y50250D02*
D03*
Y49100D02*
D03*
X14850Y33500D02*
D03*
Y34650D02*
D03*
X12550Y34300D02*
D03*
Y35450D02*
D03*
X7210Y38250D02*
D03*
Y37100D02*
D03*
D43*
X17550Y49650D02*
D03*
Y47900D02*
D03*
D44*
X10600Y48600D02*
D03*
Y45700D02*
D03*
D45*
X16100Y40900D02*
D03*
X13950D02*
D03*
D46*
X11850Y41400D02*
D03*
X11856Y41024D02*
D03*
X10756D02*
D03*
X10756Y41404D02*
D03*
X11856Y41774D02*
D03*
D47*
X10756D02*
D03*
D48*
X34508Y51206D02*
D03*
D49*
X34469Y50419D02*
D03*
Y49631D02*
D03*
Y48844D02*
D03*
Y48056D02*
D03*
Y47269D02*
D03*
Y46481D02*
D03*
Y45694D02*
D03*
X40532D02*
D03*
Y46481D02*
D03*
Y47269D02*
D03*
Y48056D02*
D03*
Y48844D02*
D03*
Y49631D02*
D03*
Y50419D02*
D03*
Y51206D02*
D03*
M02*
