G04*
G04 #@! TF.GenerationSoftware,Altium Limited,Altium Designer,21.3.2 (30)*
G04*
G04 Layer_Color=255*
%FSLAX24Y24*%
%MOIN*%
G70*
G04*
G04 #@! TF.SameCoordinates,2D7B45D3-2C2D-4D38-8684-C2D637B247D8*
G04*
G04*
G04 #@! TF.FilePolarity,Positive*
G04*
G01*
G75*
%ADD19R,0.0551X0.0472*%
%ADD20R,0.0540X0.0500*%
%ADD21R,0.1299X0.0945*%
%ADD22R,0.1024X0.0591*%
%ADD23R,0.0500X0.0540*%
%ADD24R,0.0472X0.0551*%
%ADD25R,0.0550X0.0500*%
%ADD26O,0.0360X0.1000*%
%ADD27R,0.2600X0.3000*%
%ADD28R,0.0360X0.1000*%
%ADD29R,0.0600X0.0600*%
%ADD30R,0.0669X0.0669*%
%ADD31R,0.0591X0.1024*%
%ADD32R,0.0500X0.0550*%
%ADD33R,0.0360X0.0500*%
%ADD34O,0.0800X0.0240*%
%ADD35R,0.0800X0.0900*%
%ADD36R,0.0906X0.0906*%
%ADD37R,0.0600X0.0850*%
%ADD38R,0.1400X0.0900*%
%ADD39R,0.1200X0.0750*%
%ADD40R,0.0900X0.0800*%
%ADD41R,0.1300X0.2000*%
%ADD42O,0.0400X0.0200*%
G04:AMPARAMS|DCode=43|XSize=20mil|YSize=40mil|CornerRadius=0mil|HoleSize=0mil|Usage=FLASHONLY|Rotation=90.000|XOffset=0mil|YOffset=0mil|HoleType=Round|Shape=Octagon|*
%AMOCTAGOND43*
4,1,8,-0.0200,-0.0050,-0.0200,0.0050,-0.0150,0.0100,0.0150,0.0100,0.0200,0.0050,0.0200,-0.0050,0.0150,-0.0100,-0.0150,-0.0100,-0.0200,-0.0050,0.0*
%
%ADD43OCTAGOND43*%

%ADD44R,0.1102X0.0433*%
%ADD45R,0.1024X0.0433*%
%ADD46R,0.1280X0.0846*%
%ADD47R,0.0374X0.0846*%
%ADD101C,0.1299*%
%ADD108C,0.0598*%
%ADD109R,0.0787X0.0984*%
%ADD110C,0.0630*%
%ADD111R,0.0630X0.0630*%
%ADD112R,0.0598X0.0598*%
%ADD113O,0.1870X0.0925*%
%ADD114O,0.0925X0.1870*%
%ADD115C,0.1100*%
%ADD116C,0.1200*%
%ADD117C,0.0760*%
%ADD118C,0.0602*%
%ADD119R,0.0602X0.0602*%
%ADD120C,0.0690*%
%ADD121C,0.0787*%
%ADD122C,0.0591*%
%ADD123R,0.0591X0.0591*%
%ADD124R,0.0591X0.0591*%
%ADD125R,0.0598X0.0598*%
%ADD126C,0.0650*%
%ADD127P,0.0704X8X22.5*%
%ADD128O,0.0787X0.0394*%
%ADD129O,0.0787X0.0394*%
%ADD130O,0.0394X0.0787*%
%ADD131O,0.0394X0.0787*%
D19*
X61901Y14626D02*
D03*
Y13878D02*
D03*
X62399Y22224D02*
D03*
Y22972D02*
D03*
X13549Y13574D02*
D03*
Y14322D02*
D03*
X33099Y15874D02*
D03*
Y16622D02*
D03*
X52850Y354D02*
D03*
Y1102D02*
D03*
X38299Y33172D02*
D03*
Y32424D02*
D03*
X24251Y44428D02*
D03*
Y45176D02*
D03*
X16950Y26950D02*
D03*
Y26202D02*
D03*
X16150Y33950D02*
D03*
Y33202D02*
D03*
D20*
X58600Y34100D02*
D03*
X57700D02*
D03*
X13000Y18650D02*
D03*
X12100D02*
D03*
X57200Y3500D02*
D03*
X56300D02*
D03*
X50700Y34050D02*
D03*
X51600D02*
D03*
X39200Y21200D02*
D03*
X40100D02*
D03*
X39250Y23150D02*
D03*
X40150D02*
D03*
X34000Y19650D02*
D03*
X34900D02*
D03*
X2050Y19150D02*
D03*
X2950D02*
D03*
X6500Y16950D02*
D03*
X7400D02*
D03*
X6150Y22200D02*
D03*
X7050D02*
D03*
X5150Y38100D02*
D03*
X4250D02*
D03*
X5400Y32400D02*
D03*
X4500D02*
D03*
X51050Y31150D02*
D03*
X50150D02*
D03*
X54850Y4350D02*
D03*
X53950D02*
D03*
X51300Y25750D02*
D03*
X50400D02*
D03*
X18450Y32000D02*
D03*
X19350D02*
D03*
X51150Y3800D02*
D03*
X50250D02*
D03*
X55050Y24550D02*
D03*
X54150D02*
D03*
X41100Y26550D02*
D03*
X40200D02*
D03*
D21*
X53750Y31164D02*
D03*
Y33900D02*
D03*
X55850Y33918D02*
D03*
Y31182D02*
D03*
X46050Y30614D02*
D03*
Y33350D02*
D03*
D22*
X42850Y29591D02*
D03*
Y28409D02*
D03*
X40500Y29700D02*
D03*
Y28519D02*
D03*
X48300Y31100D02*
D03*
Y32281D02*
D03*
D23*
X40800Y32200D02*
D03*
Y33100D02*
D03*
X15850Y10650D02*
D03*
Y9750D02*
D03*
X13250Y10700D02*
D03*
Y9800D02*
D03*
X10550Y10750D02*
D03*
Y9850D02*
D03*
X11950Y20650D02*
D03*
Y21550D02*
D03*
X9100Y26200D02*
D03*
Y25300D02*
D03*
X10650Y23950D02*
D03*
Y24850D02*
D03*
X42650Y32200D02*
D03*
Y33100D02*
D03*
X55050Y26500D02*
D03*
Y27400D02*
D03*
X4900Y18400D02*
D03*
Y19300D02*
D03*
X19600Y37000D02*
D03*
Y36100D02*
D03*
X8400Y41700D02*
D03*
Y42600D02*
D03*
X19700Y40200D02*
D03*
Y39300D02*
D03*
X9050Y30900D02*
D03*
Y31800D02*
D03*
X2500Y32400D02*
D03*
Y31500D02*
D03*
X510Y35000D02*
D03*
Y35900D02*
D03*
X2400Y34950D02*
D03*
Y35850D02*
D03*
X14250Y27150D02*
D03*
Y28050D02*
D03*
X10700Y28650D02*
D03*
Y27750D02*
D03*
X20500Y42400D02*
D03*
Y43300D02*
D03*
D24*
X23226Y18549D02*
D03*
X22478D02*
D03*
X57102Y8950D02*
D03*
X57850D02*
D03*
X12578Y31749D02*
D03*
X13326D02*
D03*
D25*
X9450Y21350D02*
D03*
Y22250D02*
D03*
D26*
X14900Y24300D02*
D03*
D27*
X15800Y21800D02*
D03*
D28*
X16700Y24300D02*
D03*
D29*
X13050Y24750D02*
D03*
Y23400D02*
D03*
D30*
X21600Y10749D02*
D03*
Y9450D02*
D03*
D31*
X57909Y31250D02*
D03*
X59091D02*
D03*
X48459Y28150D02*
D03*
X49641D02*
D03*
X61841Y31000D02*
D03*
X60659D02*
D03*
D32*
X37000Y19450D02*
D03*
X36100D02*
D03*
X18450Y42900D02*
D03*
X17550D02*
D03*
X20600Y31950D02*
D03*
X21500D02*
D03*
D33*
X16950Y39950D02*
D03*
X17350Y38950D02*
D03*
X16550D02*
D03*
X6400Y25850D02*
D03*
X6800Y24850D02*
D03*
X6000D02*
D03*
X15400Y30900D02*
D03*
X15800Y29900D02*
D03*
X15000D02*
D03*
D34*
X9300Y14600D02*
D03*
Y14100D02*
D03*
Y13600D02*
D03*
Y13100D02*
D03*
X11500D02*
D03*
Y13600D02*
D03*
Y14100D02*
D03*
Y14600D02*
D03*
D35*
X19650Y10850D02*
D03*
Y9150D02*
D03*
X1050Y42150D02*
D03*
Y40450D02*
D03*
D36*
X6400Y42150D02*
D03*
Y40378D02*
D03*
D37*
X13050Y44450D02*
D03*
Y43300D02*
D03*
X8200Y27700D02*
D03*
Y28850D02*
D03*
X5900Y28500D02*
D03*
Y29650D02*
D03*
X560Y32450D02*
D03*
Y31300D02*
D03*
D38*
X10900Y43850D02*
D03*
Y42100D02*
D03*
D39*
X3950Y42800D02*
D03*
Y39900D02*
D03*
D40*
X8650Y38150D02*
D03*
X6950D02*
D03*
D41*
X9450Y35100D02*
D03*
X7300D02*
D03*
D42*
X5200Y35600D02*
D03*
X5206Y35224D02*
D03*
X4106D02*
D03*
X4106Y35604D02*
D03*
X5206Y35974D02*
D03*
D43*
X4106D02*
D03*
D44*
X27858Y45406D02*
D03*
D45*
X27819Y44619D02*
D03*
Y43831D02*
D03*
Y43044D02*
D03*
Y42256D02*
D03*
Y41469D02*
D03*
Y40682D02*
D03*
Y39894D02*
D03*
X33881D02*
D03*
Y40682D02*
D03*
Y41469D02*
D03*
Y42256D02*
D03*
Y43044D02*
D03*
Y43831D02*
D03*
Y44619D02*
D03*
Y45406D02*
D03*
D46*
X13700Y36492D02*
D03*
D47*
X14606Y34208D02*
D03*
X13700D02*
D03*
X12794D02*
D03*
D101*
X16751Y1245D02*
D03*
Y13844D02*
D03*
X26200D02*
D03*
Y1250D02*
D03*
X42300Y1195D02*
D03*
X32851D02*
D03*
Y13794D02*
D03*
X42300D02*
D03*
D108*
X60950Y17650D02*
D03*
X56050Y539D02*
D03*
X55050D02*
D03*
X47050D02*
D03*
X46050D02*
D03*
X60950Y14650D02*
D03*
Y15650D02*
D03*
Y16650D02*
D03*
X61300Y23050D02*
D03*
Y24050D02*
D03*
Y25050D02*
D03*
D109*
X60955Y47050D02*
D03*
X56950D02*
D03*
X58950D02*
D03*
X51600Y46900D02*
D03*
X49600D02*
D03*
X53605D02*
D03*
X45755Y47200D02*
D03*
X41750D02*
D03*
X43750D02*
D03*
D110*
X36700Y16150D02*
D03*
X37700D02*
D03*
X23100Y16650D02*
D03*
X22100D02*
D03*
X24100D02*
D03*
X25100D02*
D03*
X26100D02*
D03*
D111*
X35700Y16150D02*
D03*
X21100Y16650D02*
D03*
D112*
X54050Y539D02*
D03*
X45050D02*
D03*
D113*
X2600Y44690D02*
D03*
Y47150D02*
D03*
D114*
X710Y45870D02*
D03*
D115*
X10800Y47450D02*
D03*
X6800D02*
D03*
X8800D02*
D03*
X7200Y1750D02*
D03*
X9200D02*
D03*
X11200D02*
D03*
X13200D02*
D03*
D116*
X46274Y37100D02*
D03*
X41550D02*
D03*
X46350Y41903D02*
D03*
X41550D02*
D03*
X43912Y36313D02*
D03*
X54162Y37237D02*
D03*
X49438D02*
D03*
X54238Y42041D02*
D03*
X49438D02*
D03*
X51800Y36450D02*
D03*
X61862Y37287D02*
D03*
X57138D02*
D03*
X61938Y42091D02*
D03*
X57138D02*
D03*
X59500Y36500D02*
D03*
D117*
X51750Y1589D02*
D03*
X50750D02*
D03*
X49750D02*
D03*
D118*
X2364Y879D02*
D03*
X3364D02*
D03*
X4364D02*
D03*
X2364Y17107D02*
D03*
X3364D02*
D03*
X4364D02*
D03*
X1364D02*
D03*
D119*
Y879D02*
D03*
D120*
X16400Y46650D02*
D03*
Y45150D02*
D03*
D121*
X23671Y29984D02*
D03*
Y24079D02*
D03*
X24655D02*
D03*
X25639D02*
D03*
X26624D02*
D03*
X27608D02*
D03*
X28592D02*
D03*
X29576D02*
D03*
X30561D02*
D03*
X31545D02*
D03*
X32529D02*
D03*
X33513D02*
D03*
X34498D02*
D03*
Y29984D02*
D03*
X33513D02*
D03*
X32529D02*
D03*
X31545D02*
D03*
X30561D02*
D03*
X29576D02*
D03*
X28592D02*
D03*
X27608D02*
D03*
X26624D02*
D03*
X25639D02*
D03*
X24655D02*
D03*
X34498Y29000D02*
D03*
Y28016D02*
D03*
Y27032D02*
D03*
X27116Y29000D02*
D03*
X28100D02*
D03*
X22687Y24571D02*
D03*
Y25555D02*
D03*
Y26539D02*
D03*
Y27524D02*
D03*
Y28508D02*
D03*
Y29492D02*
D03*
D122*
X23300Y21550D02*
D03*
X24300D02*
D03*
X25300D02*
D03*
X26300D02*
D03*
X27300D02*
D03*
X28300D02*
D03*
X29300D02*
D03*
X30300D02*
D03*
X31300D02*
D03*
X32300D02*
D03*
X33300D02*
D03*
X34400Y32950D02*
D03*
X33400D02*
D03*
X32400D02*
D03*
X31400D02*
D03*
X30400D02*
D03*
X29400D02*
D03*
X28400D02*
D03*
X27400D02*
D03*
X26400D02*
D03*
X25400D02*
D03*
X24400D02*
D03*
X35950Y22900D02*
D03*
Y23900D02*
D03*
Y24900D02*
D03*
Y25900D02*
D03*
X36500Y45200D02*
D03*
Y44200D02*
D03*
Y43200D02*
D03*
Y42200D02*
D03*
Y41200D02*
D03*
Y40200D02*
D03*
Y39200D02*
D03*
X25750Y46200D02*
D03*
Y45200D02*
D03*
Y44200D02*
D03*
Y43200D02*
D03*
Y42200D02*
D03*
Y41200D02*
D03*
Y40200D02*
D03*
D123*
X34300Y21550D02*
D03*
X23400Y32950D02*
D03*
D124*
X35950Y26900D02*
D03*
X36500Y46200D02*
D03*
X25750Y39200D02*
D03*
D125*
X60950Y13650D02*
D03*
X61300Y22050D02*
D03*
D126*
X58550Y775D02*
D03*
X60600D02*
D03*
X62850D02*
D03*
D127*
X57550D02*
D03*
X59600D02*
D03*
X61850D02*
D03*
D128*
X57550Y5550D02*
D03*
Y6550D02*
D03*
X45750Y28050D02*
D03*
Y27050D02*
D03*
D129*
X57550Y6050D02*
D03*
X45750Y27550D02*
D03*
D130*
X52550Y28200D02*
D03*
X51550D02*
D03*
X59350Y28000D02*
D03*
X60350D02*
D03*
D131*
X52050Y28200D02*
D03*
X59850Y28000D02*
D03*
M02*
