G04*
G04 #@! TF.GenerationSoftware,Altium Limited,Altium Designer,21.3.2 (30)*
G04*
G04 Layer_Color=32768*
%FSLAX24Y24*%
%MOIN*%
G70*
G04*
G04 #@! TF.SameCoordinates,2D7B45D3-2C2D-4D38-8684-C2D637B247D8*
G04*
G04*
G04 #@! TF.FilePolarity,Positive*
G04*
G01*
G75*
%ADD134C,0.0039*%
%ADD135C,0.0020*%
D134*
X57353Y6050D02*
X57747D01*
X57550Y5853D02*
Y6247D01*
X52050Y28003D02*
Y28397D01*
X51853Y28200D02*
X52247D01*
X59850Y27803D02*
Y28197D01*
X59653Y28000D02*
X60047D01*
X45553Y27550D02*
X45947D01*
X45750Y27353D02*
Y27747D01*
D135*
X10Y229D02*
Y17749D01*
Y229D02*
X5719D01*
Y17749D01*
X10D02*
X5719D01*
X27208Y46095D02*
X34492D01*
Y39205D02*
Y46095D01*
X27208Y39205D02*
X34492D01*
X27208D02*
Y46095D01*
X12962Y37013D02*
X14438D01*
Y36137D02*
Y37013D01*
Y36137D02*
X15078D01*
Y34563D02*
Y36137D01*
X14891Y34563D02*
X15078D01*
X14891Y33687D02*
Y34563D01*
X12509Y33687D02*
X14891D01*
X12509D02*
Y34563D01*
X12322D02*
X12509D01*
X12322D02*
Y36137D01*
X12962D01*
Y37013D01*
X15570Y210D02*
Y2281D01*
Y210D02*
X17932D01*
Y2281D01*
X15570D02*
X17932D01*
X15570Y12808D02*
Y14879D01*
Y12808D02*
X17932D01*
Y14879D01*
X15570D02*
X17932D01*
X25019Y12808D02*
Y14879D01*
Y12808D02*
X27381D01*
Y14879D01*
X25019D02*
X27381D01*
X25019Y215D02*
Y2285D01*
Y215D02*
X27381D01*
Y2285D01*
X25019D02*
X27381D01*
X31670Y160D02*
Y2231D01*
Y160D02*
X34032D01*
Y2231D01*
X31670D02*
X34032D01*
X31670Y14829D02*
X34032D01*
Y12758D02*
Y14829D01*
X31670Y12758D02*
X34032D01*
X31670D02*
Y14829D01*
X41119Y2231D02*
X43481D01*
Y160D02*
Y2231D01*
X41119Y160D02*
X43481D01*
X41119D02*
Y2231D01*
Y14829D02*
X43481D01*
Y12758D02*
Y14829D01*
X41119Y12758D02*
X43481D01*
X41119D02*
Y14829D01*
M02*
