G04*
G04 #@! TF.GenerationSoftware,Altium Limited,Altium Designer,21.3.2 (30)*
G04*
G04 Layer_Color=65535*
%FSLAX24Y24*%
%MOIN*%
G70*
G04*
G04 #@! TF.SameCoordinates,2D7B45D3-2C2D-4D38-8684-C2D637B247D8*
G04*
G04*
G04 #@! TF.FilePolarity,Positive*
G04*
G01*
G75*
%ADD10C,0.0070*%
%ADD11C,0.0050*%
%ADD12C,0.0079*%
%ADD13C,0.0100*%
%ADD14C,0.0040*%
%ADD15C,0.0098*%
%ADD16C,0.0120*%
%ADD17C,0.0250*%
%ADD18R,0.0300X0.0197*%
G36*
X4130Y44386D02*
X3750D01*
X3750Y44466D01*
X3930Y44646D01*
X4130Y44386D01*
D02*
G37*
D10*
X43462Y41231D02*
G03*
X43462Y41231I-178J0D01*
G01*
X44972Y41221D02*
G03*
X44972Y41221I-178J0D01*
G01*
X44079Y38907D02*
G03*
X44079Y38907I-178J0D01*
G01*
X44491Y36955D02*
G03*
X43331Y36965I-585J-575D01*
G01*
X51350Y41368D02*
G03*
X51350Y41368I-178J0D01*
G01*
X52860Y41358D02*
G03*
X52860Y41358I-178J0D01*
G01*
X51967Y39044D02*
G03*
X51967Y39044I-178J0D01*
G01*
X52379Y37092D02*
G03*
X51219Y37102I-585J-575D01*
G01*
X59050Y41418D02*
G03*
X59050Y41418I-178J0D01*
G01*
X60560Y41408D02*
G03*
X60560Y41408I-178J0D01*
G01*
X59667Y39094D02*
G03*
X59667Y39094I-178J0D01*
G01*
X60079Y37142D02*
G03*
X58919Y37152I-585J-575D01*
G01*
X61631Y14162D02*
Y14342D01*
X62171Y14162D02*
Y14342D01*
X62669Y22508D02*
Y22688D01*
X62129Y22508D02*
Y22688D01*
X22762Y18819D02*
X22942D01*
X22762Y18279D02*
X22942D01*
X13819Y13858D02*
Y14038D01*
X13279Y13858D02*
Y14038D01*
X33369Y16158D02*
Y16338D01*
X32829Y16158D02*
Y16338D01*
X53120Y638D02*
Y818D01*
X52580Y638D02*
Y818D01*
X43512Y41139D02*
X43902Y40749D01*
X44794Y41399D02*
X45064Y41669D01*
X45724D01*
X42964D02*
X43224Y41409D01*
X42204Y41669D02*
X42964D01*
X43911Y36662D02*
Y38705D01*
X43901Y39105D02*
Y40749D01*
X44501Y36945D02*
X45631D01*
X42181Y36955D02*
X43321D01*
X40812Y35679D02*
Y43313D01*
X47018Y35679D02*
Y43313D01*
X40812Y35679D02*
X47018D01*
X40812Y43313D02*
X47018D01*
X51400Y41276D02*
X51790Y40886D01*
X52682Y41536D02*
X52952Y41806D01*
X53612D01*
X50852D02*
X51112Y41546D01*
X50092Y41806D02*
X50852D01*
X51799Y36800D02*
Y38842D01*
X51789Y39242D02*
Y40886D01*
X52389Y37082D02*
X53519D01*
X50069Y37092D02*
X51209D01*
X48700Y35816D02*
Y43450D01*
X54906Y35816D02*
Y43450D01*
X48700Y35816D02*
X54906D01*
X48700Y43450D02*
X54906D01*
X59100Y41326D02*
X59490Y40936D01*
X60382Y41586D02*
X60652Y41856D01*
X61312D01*
X58552D02*
X58812Y41596D01*
X57792Y41856D02*
X58552D01*
X59499Y36850D02*
Y38892D01*
X59489Y39292D02*
Y40936D01*
X60089Y37132D02*
X61219D01*
X57769Y37142D02*
X58909D01*
X56400Y35866D02*
Y43500D01*
X62606Y35866D02*
Y43500D01*
X56400Y35866D02*
X62606D01*
X56400Y43500D02*
X62606D01*
X38029Y32708D02*
Y32888D01*
X38569Y32708D02*
Y32888D01*
X57386Y8680D02*
X57566D01*
X57386Y9220D02*
X57566D01*
X24521Y44712D02*
Y44892D01*
X23981Y44712D02*
Y44892D01*
X16680Y26486D02*
Y26666D01*
X17220Y26486D02*
Y26666D01*
X15880Y33486D02*
Y33666D01*
X16420Y33486D02*
Y33666D01*
X12862Y31479D02*
X13042D01*
X12862Y32019D02*
X13042D01*
D11*
X49750Y1089D02*
G03*
X51750Y1089I1000J249D01*
G01*
X17900Y45900D02*
G03*
X17900Y45900I-1500J0D01*
G01*
X3932Y44666D02*
X4150Y44376D01*
X3703Y44371D02*
X3932Y44666D01*
X49750Y1089D02*
X51750D01*
X49250Y2089D02*
X52250D01*
Y1089D02*
Y2089D01*
X51750Y1089D02*
X52250D01*
X49250D02*
X49750D01*
X49250D02*
Y2089D01*
X108Y328D02*
Y17650D01*
X5620D01*
Y328D02*
Y17650D01*
X108Y328D02*
X5620D01*
X16400Y46075D02*
Y46475D01*
X16200Y46275D02*
X16600D01*
X3807Y34974D02*
X5507D01*
X3807D02*
Y36224D01*
X5507D01*
Y34974D02*
Y36224D01*
X3807Y36124D02*
Y36224D01*
X3957D01*
X3947D02*
X3967D01*
X3807Y36084D02*
Y36094D01*
X27700Y45996D02*
X34000D01*
X27700Y39304D02*
X34000D01*
X14980Y34661D02*
Y36039D01*
X14491D02*
X14980D01*
X12420Y34661D02*
Y36039D01*
X12909D01*
D12*
X1352Y79D02*
G03*
X1352Y79I-39J0D01*
G01*
X27119Y45406D02*
G03*
X27119Y45406I-39J0D01*
G01*
X12834Y33539D02*
G03*
X12834Y33539I-39J0D01*
G01*
X56959Y5270D02*
G03*
X56959Y6830I591J780D01*
G01*
X52830Y27609D02*
G03*
X51270Y27609I-780J591D01*
G01*
X59070Y28591D02*
G03*
X60630Y28591I780J-591D01*
G01*
X46341Y28330D02*
G03*
X46341Y26770I-591J-780D01*
G01*
X61550Y14411D02*
Y14940D01*
Y13560D02*
Y14106D01*
X62250Y13560D02*
Y14106D01*
Y14411D02*
Y14940D01*
X61550Y13560D02*
X62250D01*
X61550Y14940D02*
X62250D01*
X62750Y21910D02*
Y22439D01*
Y22744D02*
Y23290D01*
X62050Y22744D02*
Y23290D01*
Y21910D02*
Y22439D01*
Y23290D02*
X62750D01*
X62050Y21910D02*
X62750D01*
X52943Y33467D02*
Y34491D01*
X53120Y34668D02*
X54380D01*
X52943Y30534D02*
X54557D01*
Y31597D01*
X52943Y30534D02*
Y31597D01*
X52941Y34491D02*
X53120Y34668D01*
X54380D02*
X54557Y34491D01*
Y33467D02*
Y34491D01*
X43519Y28035D02*
Y28705D01*
X42181Y28035D02*
X42338Y27839D01*
X43362Y27839D02*
X43519Y28035D01*
X42181Y28035D02*
Y28705D01*
X42338Y27839D02*
X43362D01*
X42181Y30043D02*
X43519D01*
Y29295D02*
Y30043D01*
X42181Y29295D02*
Y30043D01*
X41169Y28145D02*
Y28814D01*
X39831Y28145D02*
X39988Y27948D01*
X41012Y27948D02*
X41169Y28145D01*
X39831Y28145D02*
Y28814D01*
X39988Y27948D02*
X41012D01*
X39831Y30153D02*
X41169D01*
Y29405D02*
Y30153D01*
X39831Y29405D02*
Y30153D01*
X23011Y18900D02*
X23540D01*
X22160D02*
X22706D01*
X22160Y18200D02*
X22706D01*
X23011D02*
X23540D01*
X22160D02*
Y18900D01*
X23540Y18200D02*
Y18900D01*
X13900Y13260D02*
Y13789D01*
Y14094D02*
Y14640D01*
X13200Y14094D02*
Y14640D01*
Y13260D02*
Y13789D01*
Y14640D02*
X13900D01*
X13200Y13260D02*
X13900D01*
X56657Y33485D02*
Y34509D01*
X56480Y34686D02*
X56657Y34509D01*
X55041D02*
X55220Y34686D01*
X55043Y30552D02*
Y31615D01*
X56657Y30552D02*
Y31615D01*
X55043Y30552D02*
X56657D01*
X55220Y34686D02*
X56480D01*
X55043Y33485D02*
Y34509D01*
X33450Y15560D02*
Y16089D01*
Y16394D02*
Y16940D01*
X32750Y16394D02*
Y16940D01*
Y15560D02*
Y16089D01*
Y16940D02*
X33450D01*
X32750Y15560D02*
X33450D01*
X54550Y39D02*
Y1039D01*
X53452Y39D02*
Y1039D01*
X56648D01*
Y39D02*
Y1039D01*
X53452Y39D02*
X56648D01*
X53201D02*
Y569D01*
Y874D02*
Y1419D01*
X52501Y874D02*
Y1419D01*
Y39D02*
Y569D01*
Y1419D02*
X53201D01*
X52501Y39D02*
X53201D01*
X21410Y9050D02*
X22000D01*
Y11150D01*
X21200D02*
X22000D01*
X21200Y9050D02*
Y11150D01*
Y9050D02*
X21410D01*
X58795Y31919D02*
X59465D01*
Y30581D02*
X59661Y30738D01*
X59465Y31919D02*
X59661Y31762D01*
X58795Y30581D02*
X59465D01*
X59661Y30738D02*
Y31762D01*
X57457Y30581D02*
Y31919D01*
X58205D01*
X57457Y30581D02*
X58205D01*
X45550Y39D02*
Y1039D01*
X44452Y39D02*
Y1039D01*
X47648D01*
Y39D02*
Y1039D01*
X44452Y39D02*
X47648D01*
X7010Y41737D02*
Y42701D01*
X5790Y41737D02*
Y42701D01*
Y39768D02*
Y40792D01*
X7010Y39768D02*
Y40792D01*
X5967Y42878D02*
X6833D01*
X5790Y42701D02*
X5967Y42878D01*
X6833D02*
X7010Y42701D01*
X5790Y39768D02*
X7010D01*
X22800Y21050D02*
X34050D01*
X34800D01*
Y22050D01*
X22800D02*
X34800D01*
X22800Y21050D02*
Y22050D01*
X23650Y33450D02*
X34900D01*
X22900D02*
X23650D01*
X22900Y32450D02*
Y33450D01*
Y32450D02*
X34900D01*
Y33450D01*
X35450Y27400D02*
X36450D01*
Y22400D02*
Y27400D01*
X35450Y22400D02*
Y27400D01*
Y22400D02*
X36450D01*
X37950Y32110D02*
X38650D01*
X37950Y33490D02*
X38650D01*
X37950Y32110D02*
Y32639D01*
Y32944D02*
Y33490D01*
X38650Y32944D02*
Y33490D01*
Y32110D02*
Y32639D01*
X58164Y8601D02*
Y9301D01*
X56784Y8601D02*
Y9301D01*
X57635Y8601D02*
X58164D01*
X56784D02*
X57330D01*
X56784Y9301D02*
X57330D01*
X57635D02*
X58164D01*
X23900Y45490D02*
X24600D01*
X23900Y44110D02*
X24600D01*
Y44961D02*
Y45490D01*
Y44110D02*
Y44656D01*
X23900Y44110D02*
Y44656D01*
Y44961D02*
Y45490D01*
X16601Y25888D02*
X17301D01*
X16601Y27268D02*
X17301D01*
X16601Y25888D02*
Y26417D01*
Y26722D02*
Y27268D01*
X17301Y26722D02*
Y27268D01*
Y25888D02*
Y26417D01*
X15801Y32888D02*
X16501D01*
X15801Y34268D02*
X16501D01*
X15801Y32888D02*
Y33417D01*
Y33722D02*
Y34268D01*
X16501Y33722D02*
Y34268D01*
Y32888D02*
Y33417D01*
X13640Y31400D02*
Y32100D01*
X12260Y31400D02*
Y32100D01*
X13111Y31400D02*
X13640D01*
X12260D02*
X12806D01*
X12260Y32100D02*
X12806D01*
X13111D02*
X13640D01*
X60450Y14150D02*
X61450D01*
X60450Y18248D02*
X61450D01*
Y13052D02*
Y18248D01*
X60450Y13052D02*
Y18248D01*
Y13052D02*
X61450D01*
X49345Y28819D02*
X50093D01*
X49345Y27481D02*
X50093D01*
Y28819D01*
X47889Y27638D02*
Y28662D01*
X48085Y28819D02*
X48755D01*
X47889Y27638D02*
X48085Y27481D01*
X47889Y28662D02*
X48085Y28819D01*
Y27481D02*
X48755D01*
X56959Y5270D02*
Y6830D01*
X47631Y31986D02*
Y32734D01*
X48969Y31986D02*
Y32734D01*
X47631D02*
X48969D01*
X47788Y30529D02*
X48812D01*
X47631Y30726D02*
Y31395D01*
X48812Y30529D02*
X48969Y30726D01*
X47631Y30726D02*
X47788Y30529D01*
X48969Y30726D02*
Y31395D01*
X51270Y27609D02*
X52830D01*
X60800Y25649D02*
X61800D01*
Y21452D02*
Y25649D01*
X60800Y21452D02*
Y25649D01*
Y21452D02*
X61800D01*
X60800Y22550D02*
X61800D01*
X60207Y30331D02*
X60955D01*
X60207Y31669D02*
X60955D01*
X60207Y30331D02*
Y31669D01*
X62411Y30488D02*
Y31512D01*
X61545Y30331D02*
X62215D01*
X62215Y31669D02*
X62411Y31512D01*
X62215Y30331D02*
X62411Y30488D01*
X61545Y31669D02*
X62215D01*
X59070Y28591D02*
X60630D01*
X45243Y32917D02*
Y33941D01*
X45420Y34118D02*
X46680D01*
X45243Y29984D02*
X46857D01*
Y31047D01*
X45243Y29984D02*
Y31047D01*
X45241Y33941D02*
X45420Y34118D01*
X46680D02*
X46857Y33941D01*
Y32917D02*
Y33941D01*
X46341Y26770D02*
Y28330D01*
X16210Y308D02*
X17292D01*
X15669Y1245D02*
X16210Y308D01*
X15669Y1245D02*
X16210Y2182D01*
X17292D01*
X17833Y1245D01*
X17292Y308D02*
X17833Y1245D01*
X16210Y12907D02*
X17292D01*
X15669Y13844D02*
X16210Y12907D01*
X15669Y13844D02*
X16210Y14781D01*
X17292D01*
X17833Y13844D01*
X17292Y12907D02*
X17833Y13844D01*
X25659Y12907D02*
X26741D01*
X25118Y13844D02*
X25659Y12907D01*
X25118Y13844D02*
X25659Y14781D01*
X26741D01*
X27282Y13844D01*
X26741Y12907D02*
X27282Y13844D01*
X25659Y313D02*
X26741D01*
X25118Y1250D02*
X25659Y313D01*
X25118Y1250D02*
X25659Y2187D01*
X26741D01*
X27282Y1250D01*
X26741Y313D02*
X27282Y1250D01*
X36000Y38700D02*
X37000D01*
X36000D02*
Y46700D01*
X37000D01*
Y38700D02*
Y46700D01*
X25250Y38700D02*
Y46700D01*
Y38700D02*
X26250D01*
Y46700D01*
X25250D02*
X26250D01*
X32310Y258D02*
X33392D01*
X31769Y1195D02*
X32310Y258D01*
X31769Y1195D02*
X32310Y2132D01*
X33392D01*
X33933Y1195D01*
X33392Y258D02*
X33933Y1195D01*
X33392Y12857D02*
X33933Y13794D01*
X33392Y14731D02*
X33933Y13794D01*
X32310Y14731D02*
X33392D01*
X31769Y13794D02*
X32310Y14731D01*
X31769Y13794D02*
X32310Y12857D01*
X33392D01*
X42841Y258D02*
X43382Y1195D01*
X42841Y2132D02*
X43382Y1195D01*
X41759Y2132D02*
X42841D01*
X41218Y1195D02*
X41759Y2132D01*
X41218Y1195D02*
X41759Y258D01*
X42841D01*
Y12857D02*
X43382Y13794D01*
X42841Y14731D02*
X43382Y13794D01*
X41759Y14731D02*
X42841D01*
X41218Y13794D02*
X41759Y14731D01*
X41218Y13794D02*
X41759Y12857D01*
X42841D01*
D13*
X10150Y14850D02*
G03*
X10650Y14850I250J0D01*
G01*
X55950Y51050D02*
X61955D01*
X55950Y46250D02*
X61955D01*
X55950Y46300D02*
Y51050D01*
X61955Y46250D02*
Y51050D01*
X54605Y46100D02*
Y50900D01*
X48600Y46150D02*
Y50900D01*
Y46100D02*
X54605D01*
X48600Y50900D02*
X54605D01*
X40750Y51200D02*
X46755D01*
X40750Y46400D02*
X46755D01*
X40750Y46450D02*
Y51200D01*
X46755Y46400D02*
Y51200D01*
X21443Y9981D02*
X21797D01*
X21443Y10218D02*
X21797D01*
X120Y50586D02*
X160D01*
X161Y50587D01*
X4450D01*
X900Y44390D02*
X1700D01*
X3500D02*
X4450D01*
Y50040D01*
X900D02*
X4450D01*
X120Y50036D02*
X920D01*
X120Y44386D02*
Y50036D01*
Y44386D02*
X920D01*
Y44936D01*
Y46786D02*
Y49986D01*
X4450Y50040D02*
Y50587D01*
X120Y50036D02*
Y50560D01*
X3700Y50059D02*
Y50526D01*
X3695Y50064D02*
X3931Y50300D01*
X3498Y50261D02*
X3700Y50059D01*
X1580Y50112D02*
Y50516D01*
Y50112D02*
X1738Y50270D01*
X1423Y50270D02*
X1580Y50112D01*
X6050Y49150D02*
X11600D01*
Y45700D02*
Y49150D01*
X6050Y45700D02*
X11600D01*
X6050D02*
Y49150D01*
X41544Y41892D02*
X41587Y41849D01*
X49432Y42029D02*
X49475Y41986D01*
X57132Y42079D02*
X57175Y42036D01*
X9900Y14850D02*
X10150D01*
X10650D02*
X10900D01*
Y12850D02*
Y14850D01*
X9900Y12850D02*
X10900D01*
X9900D02*
Y14850D01*
X13950Y50D02*
Y3500D01*
X6350D02*
X13950D01*
X6350Y50D02*
Y3500D01*
Y50D02*
X13950D01*
X11600Y44400D02*
X11900Y44100D01*
Y41850D02*
Y44100D01*
X11600Y41550D02*
X11900Y41850D01*
X10200Y41550D02*
X11600D01*
X9900Y41850D02*
X10200Y41550D01*
X9900Y41850D02*
Y44100D01*
X10200Y44400D01*
X11600D01*
X6800Y34200D02*
Y36050D01*
Y34200D02*
X7250Y33750D01*
X9500D01*
X10000Y34250D01*
Y36000D01*
X9550Y36450D02*
X10000Y36000D01*
X7200Y36450D02*
X9550D01*
X6800Y36050D02*
X7200Y36450D01*
X100Y18560D02*
Y18143D01*
X183Y18060D01*
X350D01*
X433Y18143D01*
Y18560D01*
X933Y18060D02*
X600D01*
X933Y18393D01*
Y18477D01*
X850Y18560D01*
X683D01*
X600Y18477D01*
X1100Y18060D02*
Y18560D01*
X1266Y18393D01*
X1433Y18560D01*
Y18060D01*
X1600Y18560D02*
Y18060D01*
X1849D01*
X1933Y18143D01*
Y18227D01*
Y18310D01*
X1849Y18393D01*
X1600D01*
X33540Y20460D02*
Y20960D01*
X33790D01*
X33873Y20877D01*
Y20710D01*
X33790Y20627D01*
X33540D01*
X33707D02*
X33873Y20460D01*
X34040Y20960D02*
Y20460D01*
X34373D01*
X34873Y20960D02*
X34540D01*
Y20460D01*
X34873D01*
X34540Y20710D02*
X34706D01*
X35040Y20960D02*
Y20460D01*
X35289D01*
X35373Y20543D01*
Y20877D01*
X35289Y20960D01*
X35040D01*
X35910Y20620D02*
Y20120D01*
X36243D01*
X36743Y20620D02*
X36410D01*
Y20120D01*
X36743D01*
X36410Y20370D02*
X36576D01*
X36910Y20620D02*
Y20120D01*
X37160D01*
X37243Y20203D01*
Y20537D01*
X37160Y20620D01*
X36910D01*
X12410Y37820D02*
Y37487D01*
X12577Y37320D01*
X12743Y37487D01*
Y37820D01*
X12910Y37320D02*
Y37820D01*
X13160D01*
X13243Y37737D01*
Y37570D01*
X13160Y37487D01*
X12910D01*
X13076D02*
X13243Y37320D01*
X13410D02*
X13576D01*
X13493D01*
Y37820D01*
X13410Y37737D01*
X3880Y37050D02*
Y36633D01*
X3963Y36550D01*
X4130D01*
X4213Y36633D01*
Y37050D01*
X4380Y36550D02*
Y36883D01*
X4630D01*
X4713Y36800D01*
Y36550D01*
X4880D02*
X5046D01*
X4963D01*
Y37050D01*
X4880Y36967D01*
X27100Y46900D02*
Y46483D01*
X27183Y46400D01*
X27350D01*
X27433Y46483D01*
Y46900D01*
X27600Y46400D02*
X27766D01*
X27683D01*
Y46900D01*
X27600D01*
X28016Y46733D02*
Y46400D01*
Y46567D01*
X28100Y46650D01*
X28183Y46733D01*
X28266D01*
X8960Y15700D02*
Y15283D01*
X9043Y15200D01*
X9210D01*
X9293Y15283D01*
Y15700D01*
X9460Y15200D02*
X9626D01*
X9543D01*
Y15700D01*
X9460Y15617D01*
X9876Y15200D02*
Y15700D01*
X10043Y15533D01*
X10210Y15700D01*
Y15200D01*
X10376Y15700D02*
Y15200D01*
X10626D01*
X10709Y15283D01*
Y15367D01*
Y15450D01*
X10626Y15533D01*
X10376D01*
X17334Y23950D02*
X17667D01*
X17500D01*
Y23450D01*
X17833D02*
Y23783D01*
X18083D01*
X18167Y23700D01*
Y23450D01*
X18583D02*
Y23950D01*
X18333Y23700D01*
X18666D01*
X14840Y31990D02*
X15173D01*
X15007D01*
Y31490D01*
X15340D02*
Y31823D01*
X15590D01*
X15673Y31740D01*
Y31490D01*
X15840Y31907D02*
X15923Y31990D01*
X16090D01*
X16173Y31907D01*
Y31823D01*
X16090Y31740D01*
X16006D01*
X16090D01*
X16173Y31657D01*
Y31573D01*
X16090Y31490D01*
X15923D01*
X15840Y31573D01*
X5840Y26940D02*
X6173D01*
X6007D01*
Y26440D01*
X6340D02*
Y26773D01*
X6590D01*
X6673Y26690D01*
Y26440D01*
X7173D02*
X6840D01*
X7173Y26773D01*
Y26857D01*
X7090Y26940D01*
X6923D01*
X6840Y26857D01*
X16390Y41040D02*
X16723D01*
X16557D01*
Y40540D01*
X16890D02*
Y40873D01*
X17140D01*
X17223Y40790D01*
Y40540D01*
X17390D02*
X17556D01*
X17473D01*
Y41040D01*
X17390Y40957D01*
X38790Y23960D02*
Y24460D01*
X39040D01*
X39123Y24377D01*
Y24210D01*
X39040Y24127D01*
X38790D01*
X38957D02*
X39123Y23960D01*
X39290D02*
X39540D01*
X39623Y24043D01*
X39540Y24127D01*
X39373D01*
X39290Y24210D01*
X39373Y24293D01*
X39623D01*
X40123Y24460D02*
Y23960D01*
X39873D01*
X39790Y24043D01*
Y24210D01*
X39873Y24293D01*
X40123D01*
X40373D02*
X40539D01*
X40623Y24210D01*
Y23960D01*
X40373D01*
X40290Y24043D01*
X40373Y24127D01*
X40623D01*
X38740Y22010D02*
Y22510D01*
X38990D01*
X39073Y22427D01*
Y22260D01*
X38990Y22177D01*
X38740D01*
X38907D02*
X39073Y22010D01*
X39240D02*
X39490D01*
X39573Y22093D01*
X39490Y22177D01*
X39323D01*
X39240Y22260D01*
X39323Y22343D01*
X39573D01*
X40073D02*
X39823D01*
X39740Y22260D01*
Y22093D01*
X39823Y22010D01*
X40073D01*
X40240D02*
X40406D01*
X40323D01*
Y22510D01*
X40240D01*
X49790Y4610D02*
Y5110D01*
X50040D01*
X50123Y5027D01*
Y4860D01*
X50040Y4777D01*
X49790D01*
X49957D02*
X50123Y4610D01*
X50290Y4943D02*
Y4610D01*
Y4777D01*
X50373Y4860D01*
X50456Y4943D01*
X50540D01*
X51040Y4610D02*
X50873D01*
X50790Y4693D01*
Y4860D01*
X50873Y4943D01*
X51040D01*
X51123Y4860D01*
Y4777D01*
X50790D01*
X51290Y4943D02*
X51456Y4610D01*
X51623Y4943D01*
X55840Y4310D02*
Y4810D01*
X56090D01*
X56173Y4727D01*
Y4560D01*
X56090Y4477D01*
X55840D01*
X56007D02*
X56173Y4310D01*
X56340Y4643D02*
Y4310D01*
Y4477D01*
X56423Y4560D01*
X56506Y4643D01*
X56590D01*
X57090Y4310D02*
X56923D01*
X56840Y4393D01*
Y4560D01*
X56923Y4643D01*
X57090D01*
X57173Y4560D01*
Y4477D01*
X56840D01*
X57673Y4310D02*
X57340D01*
X57673Y4643D01*
Y4727D01*
X57589Y4810D01*
X57423D01*
X57340Y4727D01*
X53490Y5160D02*
Y5660D01*
X53740D01*
X53823Y5577D01*
Y5410D01*
X53740Y5327D01*
X53490D01*
X53657D02*
X53823Y5160D01*
X53990Y5493D02*
Y5160D01*
Y5327D01*
X54073Y5410D01*
X54156Y5493D01*
X54240D01*
X54740Y5160D02*
X54573D01*
X54490Y5243D01*
Y5410D01*
X54573Y5493D01*
X54740D01*
X54823Y5410D01*
Y5327D01*
X54490D01*
X54990Y5160D02*
X55156D01*
X55073D01*
Y5660D01*
X54990Y5577D01*
X2090Y33260D02*
Y33760D01*
X2340D01*
X2423Y33677D01*
Y33510D01*
X2340Y33427D01*
X2090D01*
X2257D02*
X2423Y33260D01*
X2590D02*
Y33593D01*
X2840D01*
X2923Y33510D01*
Y33260D01*
X3423Y33760D02*
X3090D01*
Y33510D01*
X3256Y33593D01*
X3340D01*
X3423Y33510D01*
Y33343D01*
X3340Y33260D01*
X3173D01*
X3090Y33343D01*
X100Y36760D02*
Y37260D01*
X350D01*
X433Y37177D01*
Y37010D01*
X350Y36927D01*
X100D01*
X267D02*
X433Y36760D01*
X600D02*
Y37093D01*
X850D01*
X933Y37010D01*
Y36760D01*
X1350D02*
Y37260D01*
X1100Y37010D01*
X1433D01*
X1990Y36710D02*
Y37210D01*
X2240D01*
X2323Y37127D01*
Y36960D01*
X2240Y36877D01*
X1990D01*
X2157D02*
X2323Y36710D01*
X2490D02*
Y37043D01*
X2740D01*
X2823Y36960D01*
Y36710D01*
X2990Y37127D02*
X3073Y37210D01*
X3240D01*
X3323Y37127D01*
Y37043D01*
X3240Y36960D01*
X3156D01*
X3240D01*
X3323Y36877D01*
Y36793D01*
X3240Y36710D01*
X3073D01*
X2990Y36793D01*
X8640Y32660D02*
Y33160D01*
X8890D01*
X8973Y33077D01*
Y32910D01*
X8890Y32827D01*
X8640D01*
X8807D02*
X8973Y32660D01*
X9140D02*
Y32993D01*
X9390D01*
X9473Y32910D01*
Y32660D01*
X9973D02*
X9640D01*
X9973Y32993D01*
Y33077D01*
X9890Y33160D01*
X9723D01*
X9640Y33077D01*
X4040Y33210D02*
Y33710D01*
X4290D01*
X4373Y33627D01*
Y33460D01*
X4290Y33377D01*
X4040D01*
X4207D02*
X4373Y33210D01*
X4540D02*
Y33543D01*
X4790D01*
X4873Y33460D01*
Y33210D01*
X5040D02*
X5206D01*
X5123D01*
Y33710D01*
X5040Y33627D01*
X10984Y19600D02*
Y20100D01*
X11234D01*
X11317Y20017D01*
Y19850D01*
X11234Y19767D01*
X10984D01*
X11150D02*
X11317Y19600D01*
X11484Y20100D02*
Y19600D01*
X11817D01*
X11983D02*
Y19933D01*
X12233D01*
X12317Y19850D01*
Y19600D01*
X12483D02*
Y20100D01*
X12650Y19933D01*
X12816Y20100D01*
Y19600D01*
X12983Y20100D02*
Y19600D01*
X13233D01*
X13316Y19683D01*
Y19767D01*
Y19850D01*
X13233Y19933D01*
X12983D01*
X20090Y44160D02*
Y44660D01*
X20340D01*
X20423Y44577D01*
Y44410D01*
X20340Y44327D01*
X20090D01*
X20257D02*
X20423Y44160D01*
X20590D02*
X20756D01*
X20673D01*
Y44660D01*
X20590D01*
X21006Y44160D02*
Y44493D01*
X21256D01*
X21340Y44410D01*
Y44160D01*
X21506Y44660D02*
Y44160D01*
X21839D01*
X22006Y44493D02*
Y44160D01*
Y44327D01*
X22089Y44410D01*
X22173Y44493D01*
X22256D01*
X17990Y32890D02*
Y33390D01*
X18240D01*
X18323Y33307D01*
Y33140D01*
X18240Y33057D01*
X17990D01*
X18157D02*
X18323Y32890D01*
X18490D02*
X18656D01*
X18573D01*
Y33390D01*
X18490D01*
X18906Y32890D02*
Y33223D01*
X19156D01*
X19240Y33140D01*
Y32890D01*
X19406Y32807D02*
X19739D01*
X20239Y33390D02*
X19906D01*
Y33140D01*
X20073Y33223D01*
X20156D01*
X20239Y33140D01*
Y32973D01*
X20156Y32890D01*
X19989D01*
X19906Y32973D01*
X20406Y33390D02*
Y33057D01*
X20573Y32890D01*
X20739Y33057D01*
Y33390D01*
X40880Y43650D02*
Y44150D01*
X41130D01*
X41213Y44067D01*
Y43900D01*
X41130Y43817D01*
X40880D01*
X41047D02*
X41213Y43650D01*
X41380Y44150D02*
Y43650D01*
X41713D01*
X41880Y44067D02*
X41963Y44150D01*
X42130D01*
X42213Y44067D01*
Y43983D01*
X42130Y43900D01*
X42046D01*
X42130D01*
X42213Y43817D01*
Y43733D01*
X42130Y43650D01*
X41963D01*
X41880Y43733D01*
X48760Y43780D02*
Y44280D01*
X49010D01*
X49093Y44197D01*
Y44030D01*
X49010Y43947D01*
X48760D01*
X48927D02*
X49093Y43780D01*
X49260Y44280D02*
Y43780D01*
X49593D01*
X50093D02*
X49760D01*
X50093Y44113D01*
Y44197D01*
X50010Y44280D01*
X49843D01*
X49760Y44197D01*
X56460Y43840D02*
Y44340D01*
X56710D01*
X56793Y44257D01*
Y44090D01*
X56710Y44007D01*
X56460D01*
X56627D02*
X56793Y43840D01*
X56960Y44340D02*
Y43840D01*
X57293D01*
X57460D02*
X57626D01*
X57543D01*
Y44340D01*
X57460Y44257D01*
X10290Y29510D02*
Y30010D01*
X10540D01*
X10623Y29927D01*
Y29760D01*
X10540Y29677D01*
X10290D01*
X10457D02*
X10623Y29510D01*
X11040D02*
X10873D01*
X10790Y29593D01*
Y29760D01*
X10873Y29843D01*
X11040D01*
X11123Y29760D01*
Y29677D01*
X10790D01*
X11290Y29510D02*
Y29843D01*
X11540D01*
X11623Y29760D01*
Y29510D01*
X12123D02*
X11790D01*
X12123Y29843D01*
Y29927D01*
X12039Y30010D01*
X11873D01*
X11790Y29927D01*
X13840Y28910D02*
Y29410D01*
X14090D01*
X14173Y29327D01*
Y29160D01*
X14090Y29077D01*
X13840D01*
X14007D02*
X14173Y28910D01*
X14590D02*
X14423D01*
X14340Y28993D01*
Y29160D01*
X14423Y29243D01*
X14590D01*
X14673Y29160D01*
Y29077D01*
X14340D01*
X14840Y28910D02*
Y29243D01*
X15090D01*
X15173Y29160D01*
Y28910D01*
X15340D02*
X15506D01*
X15423D01*
Y29410D01*
X15340Y29327D01*
X12684Y25700D02*
Y26200D01*
X12934D01*
X13017Y26117D01*
Y25950D01*
X12934Y25867D01*
X12684D01*
X12850D02*
X13017Y25700D01*
X13433D02*
X13267D01*
X13184Y25783D01*
Y25950D01*
X13267Y26033D01*
X13433D01*
X13517Y25950D01*
Y25867D01*
X13184D01*
X14017Y26200D02*
X13683D01*
Y25950D01*
X13850Y26033D01*
X13933D01*
X14017Y25950D01*
Y25783D01*
X13933Y25700D01*
X13767D01*
X13683Y25783D01*
X14183Y25700D02*
Y26200D01*
X14350Y26033D01*
X14516Y26200D01*
Y25700D01*
X14683Y26200D02*
Y25700D01*
X14933D01*
X15016Y25783D01*
Y25867D01*
Y25950D01*
X14933Y26033D01*
X14683D01*
X7584Y23950D02*
Y24450D01*
X7834D01*
X7917Y24367D01*
Y24200D01*
X7834Y24117D01*
X7584D01*
X7750D02*
X7917Y23950D01*
X8333D02*
X8167D01*
X8084Y24033D01*
Y24200D01*
X8167Y24283D01*
X8333D01*
X8417Y24200D01*
Y24117D01*
X8084D01*
X8833Y23950D02*
Y24450D01*
X8583Y24200D01*
X8917D01*
X9083Y23950D02*
Y24450D01*
X9250Y24283D01*
X9416Y24450D01*
Y23950D01*
X9583Y24450D02*
Y23950D01*
X9833D01*
X9916Y24033D01*
Y24117D01*
Y24200D01*
X9833Y24283D01*
X9583D01*
X10034Y25700D02*
Y26200D01*
X10284D01*
X10367Y26117D01*
Y25950D01*
X10284Y25867D01*
X10034D01*
X10200D02*
X10367Y25700D01*
X10783D02*
X10617D01*
X10534Y25783D01*
Y25950D01*
X10617Y26033D01*
X10783D01*
X10867Y25950D01*
Y25867D01*
X10534D01*
X11033Y26117D02*
X11117Y26200D01*
X11283D01*
X11367Y26117D01*
Y26033D01*
X11283Y25950D01*
X11200D01*
X11283D01*
X11367Y25867D01*
Y25783D01*
X11283Y25700D01*
X11117D01*
X11033Y25783D01*
X11533Y25700D02*
Y26200D01*
X11700Y26033D01*
X11866Y26200D01*
Y25700D01*
X12033Y26200D02*
Y25700D01*
X12283D01*
X12366Y25783D01*
Y25867D01*
Y25950D01*
X12283Y26033D01*
X12033D01*
X5690Y23010D02*
Y23510D01*
X5940D01*
X6023Y23427D01*
Y23260D01*
X5940Y23177D01*
X5690D01*
X5857D02*
X6023Y23010D01*
X6440D02*
X6273D01*
X6190Y23093D01*
Y23260D01*
X6273Y23343D01*
X6440D01*
X6523Y23260D01*
Y23177D01*
X6190D01*
X7023Y23010D02*
X6690D01*
X7023Y23343D01*
Y23427D01*
X6940Y23510D01*
X6773D01*
X6690Y23427D01*
X7190Y23010D02*
Y23510D01*
X7356Y23343D01*
X7523Y23510D01*
Y23010D01*
X7689Y23510D02*
Y23010D01*
X7939D01*
X8023Y23093D01*
Y23177D01*
Y23260D01*
X7939Y23343D01*
X7689D01*
X19290Y41060D02*
Y41560D01*
X19540D01*
X19623Y41477D01*
Y41310D01*
X19540Y41227D01*
X19290D01*
X19457D02*
X19623Y41060D01*
X20040D02*
X19873D01*
X19790Y41143D01*
Y41310D01*
X19873Y41393D01*
X20040D01*
X20123Y41310D01*
Y41227D01*
X19790D01*
X20623Y41060D02*
X20290D01*
X20623Y41393D01*
Y41477D01*
X20540Y41560D01*
X20373D01*
X20290Y41477D01*
X20790Y41560D02*
Y41060D01*
X21123D01*
X21289Y41393D02*
Y41060D01*
Y41227D01*
X21373Y41310D01*
X21456Y41393D01*
X21539D01*
X11525Y16800D02*
Y17300D01*
X11775D01*
X11859Y17217D01*
Y17050D01*
X11775Y16967D01*
X11525D01*
X11692D02*
X11859Y16800D01*
X12275D02*
X12109D01*
X12025Y16883D01*
Y17050D01*
X12109Y17133D01*
X12275D01*
X12358Y17050D01*
Y16967D01*
X12025D01*
X12525Y16800D02*
X12692D01*
X12608D01*
Y17300D01*
X12525Y17217D01*
X12942Y16800D02*
Y17300D01*
X13108Y17133D01*
X13275Y17300D01*
Y16800D01*
X13441Y17300D02*
Y16800D01*
X13691D01*
X13775Y16883D01*
Y16967D01*
Y17050D01*
X13691Y17133D01*
X13441D01*
X19190Y37860D02*
Y38360D01*
X19440D01*
X19523Y38277D01*
Y38110D01*
X19440Y38027D01*
X19190D01*
X19357D02*
X19523Y37860D01*
X19940D02*
X19773D01*
X19690Y37943D01*
Y38110D01*
X19773Y38193D01*
X19940D01*
X20023Y38110D01*
Y38027D01*
X19690D01*
X20190Y37860D02*
X20356D01*
X20273D01*
Y38360D01*
X20190Y38277D01*
X20606Y38360D02*
Y37860D01*
X20939D01*
X21106Y38193D02*
Y37860D01*
Y38027D01*
X21189Y38110D01*
X21273Y38193D01*
X21356D01*
X11984Y11600D02*
Y12100D01*
X12234D01*
X12317Y12017D01*
Y11850D01*
X12234Y11767D01*
X11984D01*
X12150D02*
X12317Y11600D01*
X12817Y12100D02*
X12650Y12017D01*
X12484Y11850D01*
Y11683D01*
X12567Y11600D01*
X12733D01*
X12817Y11683D01*
Y11767D01*
X12733Y11850D01*
X12484D01*
X12983Y11600D02*
Y12100D01*
X13150Y11933D01*
X13317Y12100D01*
Y11600D01*
X13483Y12100D02*
Y11600D01*
X13733D01*
X13816Y11683D01*
Y11767D01*
Y11850D01*
X13733Y11933D01*
X13483D01*
X14316Y11600D02*
X13983D01*
X14316Y11933D01*
Y12017D01*
X14233Y12100D01*
X14066D01*
X13983Y12017D01*
X15034Y11500D02*
Y12000D01*
X15284D01*
X15367Y11917D01*
Y11750D01*
X15284Y11667D01*
X15034D01*
X15200D02*
X15367Y11500D01*
X15867Y12000D02*
X15534D01*
Y11750D01*
X15700Y11833D01*
X15783D01*
X15867Y11750D01*
Y11583D01*
X15783Y11500D01*
X15617D01*
X15534Y11583D01*
X16033Y11500D02*
Y12000D01*
X16200Y11833D01*
X16367Y12000D01*
Y11500D01*
X16533Y12000D02*
Y11500D01*
X16783D01*
X16866Y11583D01*
Y11667D01*
Y11750D01*
X16783Y11833D01*
X16533D01*
X17366Y11500D02*
X17033D01*
X17366Y11833D01*
Y11917D01*
X17283Y12000D01*
X17116D01*
X17033Y11917D01*
X9084Y11600D02*
Y12100D01*
X9334D01*
X9417Y12017D01*
Y11850D01*
X9334Y11767D01*
X9084D01*
X9250D02*
X9417Y11600D01*
X9833D02*
Y12100D01*
X9584Y11850D01*
X9917D01*
X10083Y11600D02*
Y12100D01*
X10250Y11933D01*
X10417Y12100D01*
Y11600D01*
X10583Y12100D02*
Y11600D01*
X10833D01*
X10916Y11683D01*
Y11767D01*
Y11850D01*
X10833Y11933D01*
X10583D01*
X11416Y11600D02*
X11083D01*
X11416Y11933D01*
Y12017D01*
X11333Y12100D01*
X11166D01*
X11083Y12017D01*
X42125Y34600D02*
Y35100D01*
X42375D01*
X42459Y35017D01*
Y34850D01*
X42375Y34767D01*
X42125D01*
X42292D02*
X42459Y34600D01*
X42625Y35017D02*
X42709Y35100D01*
X42875D01*
X42958Y35017D01*
Y34933D01*
X42875Y34850D01*
X42792D01*
X42875D01*
X42958Y34767D01*
Y34683D01*
X42875Y34600D01*
X42709D01*
X42625Y34683D01*
X43125Y34933D02*
Y34600D01*
Y34767D01*
X43208Y34850D01*
X43292Y34933D01*
X43375D01*
X43625Y34600D02*
X43791D01*
X43708D01*
Y35100D01*
X43625D01*
X44041Y35017D02*
X44125Y35100D01*
X44291D01*
X44375Y35017D01*
Y34933D01*
X44291Y34850D01*
X44208D01*
X44291D01*
X44375Y34767D01*
Y34683D01*
X44291Y34600D01*
X44125D01*
X44041Y34683D01*
X49690Y31960D02*
Y32460D01*
X49940D01*
X50023Y32377D01*
Y32210D01*
X49940Y32127D01*
X49690D01*
X49857D02*
X50023Y31960D01*
X50190Y32377D02*
X50273Y32460D01*
X50440D01*
X50523Y32377D01*
Y32293D01*
X50440Y32210D01*
X50356D01*
X50440D01*
X50523Y32127D01*
Y32043D01*
X50440Y31960D01*
X50273D01*
X50190Y32043D01*
X50690Y32293D02*
Y31960D01*
Y32127D01*
X50773Y32210D01*
X50856Y32293D01*
X50940D01*
X51190Y31960D02*
X51356D01*
X51273D01*
Y32460D01*
X51190D01*
X51939Y31960D02*
X51606D01*
X51939Y32293D01*
Y32377D01*
X51856Y32460D01*
X51689D01*
X51606Y32377D01*
X58109Y35000D02*
Y35500D01*
X58359D01*
X58442Y35417D01*
Y35250D01*
X58359Y35167D01*
X58109D01*
X58275D02*
X58442Y35000D01*
X58609Y35417D02*
X58692Y35500D01*
X58858D01*
X58942Y35417D01*
Y35333D01*
X58858Y35250D01*
X58775D01*
X58858D01*
X58942Y35167D01*
Y35083D01*
X58858Y35000D01*
X58692D01*
X58609Y35083D01*
X59108Y35333D02*
Y35000D01*
Y35167D01*
X59192Y35250D01*
X59275Y35333D01*
X59358D01*
X59608Y35000D02*
X59775D01*
X59691D01*
Y35500D01*
X59608D01*
X60025Y35000D02*
X60191D01*
X60108D01*
Y35500D01*
X60025Y35417D01*
X4490Y20160D02*
Y20660D01*
X4740D01*
X4823Y20577D01*
Y20410D01*
X4740Y20327D01*
X4490D01*
X4657D02*
X4823Y20160D01*
X4990Y20577D02*
X5073Y20660D01*
X5240D01*
X5323Y20577D01*
Y20493D01*
X5240Y20410D01*
X5156D01*
X5240D01*
X5323Y20327D01*
Y20243D01*
X5240Y20160D01*
X5073D01*
X4990Y20243D01*
X5490Y20160D02*
Y20660D01*
X5656Y20493D01*
X5823Y20660D01*
Y20160D01*
X5990Y20660D02*
Y20160D01*
X6239D01*
X6323Y20243D01*
Y20327D01*
Y20410D01*
X6239Y20493D01*
X5990D01*
X6823Y20160D02*
X6489D01*
X6823Y20493D01*
Y20577D01*
X6739Y20660D01*
X6573D01*
X6489Y20577D01*
X40125Y33950D02*
Y34450D01*
X40375D01*
X40459Y34367D01*
Y34200D01*
X40375Y34117D01*
X40125D01*
X40292D02*
X40459Y33950D01*
X40958D02*
X40625D01*
X40958Y34283D01*
Y34367D01*
X40875Y34450D01*
X40709D01*
X40625Y34367D01*
X41125Y34283D02*
Y33950D01*
Y34117D01*
X41208Y34200D01*
X41292Y34283D01*
X41375D01*
X41625Y33950D02*
X41791D01*
X41708D01*
Y34450D01*
X41625D01*
X42041Y34367D02*
X42125Y34450D01*
X42291D01*
X42375Y34367D01*
Y34283D01*
X42291Y34200D01*
X42208D01*
X42291D01*
X42375Y34117D01*
Y34033D01*
X42291Y33950D01*
X42125D01*
X42041Y34033D01*
X50240Y34860D02*
Y35360D01*
X50490D01*
X50573Y35277D01*
Y35110D01*
X50490Y35027D01*
X50240D01*
X50407D02*
X50573Y34860D01*
X51073D02*
X50740D01*
X51073Y35193D01*
Y35277D01*
X50990Y35360D01*
X50823D01*
X50740Y35277D01*
X51240Y35193D02*
Y34860D01*
Y35027D01*
X51323Y35110D01*
X51406Y35193D01*
X51490D01*
X51740Y34860D02*
X51906D01*
X51823D01*
Y35360D01*
X51740D01*
X52489Y34860D02*
X52156D01*
X52489Y35193D01*
Y35277D01*
X52406Y35360D01*
X52239D01*
X52156Y35277D01*
X54640Y28260D02*
Y28760D01*
X54890D01*
X54973Y28677D01*
Y28510D01*
X54890Y28427D01*
X54640D01*
X54807D02*
X54973Y28260D01*
X55473D02*
X55140D01*
X55473Y28593D01*
Y28677D01*
X55390Y28760D01*
X55223D01*
X55140Y28677D01*
X55640Y28593D02*
Y28260D01*
Y28427D01*
X55723Y28510D01*
X55806Y28593D01*
X55890D01*
X56140Y28260D02*
X56306D01*
X56223D01*
Y28760D01*
X56140D01*
X56556Y28260D02*
X56723D01*
X56639D01*
Y28760D01*
X56556Y28677D01*
X1590Y19960D02*
Y20460D01*
X1840D01*
X1923Y20377D01*
Y20210D01*
X1840Y20127D01*
X1590D01*
X1757D02*
X1923Y19960D01*
X2423D02*
X2090D01*
X2423Y20293D01*
Y20377D01*
X2340Y20460D01*
X2173D01*
X2090Y20377D01*
X2590Y19960D02*
Y20460D01*
X2756Y20293D01*
X2923Y20460D01*
Y19960D01*
X3090Y20460D02*
Y19960D01*
X3339D01*
X3423Y20043D01*
Y20127D01*
Y20210D01*
X3339Y20293D01*
X3090D01*
X3923Y19960D02*
X3589D01*
X3923Y20293D01*
Y20377D01*
X3839Y20460D01*
X3673D01*
X3589Y20377D01*
X39740Y27360D02*
Y27860D01*
X39990D01*
X40073Y27777D01*
Y27610D01*
X39990Y27527D01*
X39740D01*
X39907D02*
X40073Y27360D01*
X40240D02*
X40406D01*
X40323D01*
Y27860D01*
X40240Y27777D01*
X40656Y27693D02*
Y27360D01*
Y27527D01*
X40740Y27610D01*
X40823Y27693D01*
X40906D01*
X41156Y27360D02*
X41323D01*
X41240D01*
Y27860D01*
X41156D01*
X41573Y27777D02*
X41656Y27860D01*
X41823D01*
X41906Y27777D01*
Y27693D01*
X41823Y27610D01*
X41739D01*
X41823D01*
X41906Y27527D01*
Y27443D01*
X41823Y27360D01*
X41656D01*
X41573Y27443D01*
X49940Y26560D02*
Y27060D01*
X50190D01*
X50273Y26977D01*
Y26810D01*
X50190Y26727D01*
X49940D01*
X50107D02*
X50273Y26560D01*
X50440D02*
X50606D01*
X50523D01*
Y27060D01*
X50440Y26977D01*
X50856Y26893D02*
Y26560D01*
Y26727D01*
X50940Y26810D01*
X51023Y26893D01*
X51106D01*
X51356Y26560D02*
X51523D01*
X51440D01*
Y27060D01*
X51356D01*
X52106Y26560D02*
X51773D01*
X52106Y26893D01*
Y26977D01*
X52023Y27060D01*
X51856D01*
X51773Y26977D01*
X53690Y25360D02*
Y25860D01*
X53940D01*
X54023Y25777D01*
Y25610D01*
X53940Y25527D01*
X53690D01*
X53857D02*
X54023Y25360D01*
X54190D02*
X54356D01*
X54273D01*
Y25860D01*
X54190Y25777D01*
X54606Y25693D02*
Y25360D01*
Y25527D01*
X54690Y25610D01*
X54773Y25693D01*
X54856D01*
X55106Y25360D02*
X55273D01*
X55190D01*
Y25860D01*
X55106D01*
X55523Y25360D02*
X55689D01*
X55606D01*
Y25860D01*
X55523Y25777D01*
X6040Y17760D02*
Y18260D01*
X6290D01*
X6373Y18177D01*
Y18010D01*
X6290Y17927D01*
X6040D01*
X6207D02*
X6373Y17760D01*
X6540D02*
X6706D01*
X6623D01*
Y18260D01*
X6540Y18177D01*
X6956Y17760D02*
Y18260D01*
X7123Y18093D01*
X7290Y18260D01*
Y17760D01*
X7456Y18260D02*
Y17760D01*
X7706D01*
X7789Y17843D01*
Y17927D01*
Y18010D01*
X7706Y18093D01*
X7456D01*
X8289Y17760D02*
X7956D01*
X8289Y18093D01*
Y18177D01*
X8206Y18260D01*
X8039D01*
X7956Y18177D01*
X51273Y29603D02*
Y29937D01*
X51190Y30020D01*
X51023D01*
X50940Y29937D01*
Y29603D01*
X51023Y29520D01*
X51190D01*
X51107Y29687D02*
X51273Y29520D01*
X51190D02*
X51273Y29603D01*
X51690Y29520D02*
Y30020D01*
X51440Y29770D01*
X51773D01*
X45163Y28953D02*
Y29287D01*
X45080Y29370D01*
X44913D01*
X44830Y29287D01*
Y28953D01*
X44913Y28870D01*
X45080D01*
X44997Y29037D02*
X45163Y28870D01*
X45080D02*
X45163Y28953D01*
X45330Y29287D02*
X45413Y29370D01*
X45580D01*
X45663Y29287D01*
Y29203D01*
X45580Y29120D01*
X45496D01*
X45580D01*
X45663Y29037D01*
Y28953D01*
X45580Y28870D01*
X45413D01*
X45330Y28953D01*
X59263Y29013D02*
Y29347D01*
X59180Y29430D01*
X59013D01*
X58930Y29347D01*
Y29013D01*
X59013Y28930D01*
X59180D01*
X59097Y29097D02*
X59263Y28930D01*
X59180D02*
X59263Y29013D01*
X59763Y28930D02*
X59430D01*
X59763Y29263D01*
Y29347D01*
X59680Y29430D01*
X59513D01*
X59430Y29347D01*
X57353Y7643D02*
Y7977D01*
X57270Y8060D01*
X57103D01*
X57020Y7977D01*
Y7643D01*
X57103Y7560D01*
X57270D01*
X57187Y7727D02*
X57353Y7560D01*
X57270D02*
X57353Y7643D01*
X57520Y7560D02*
X57686D01*
X57603D01*
Y8060D01*
X57520Y7977D01*
X6400Y3850D02*
Y4350D01*
X6650D01*
X6733Y4267D01*
Y4100D01*
X6650Y4017D01*
X6400D01*
X6983Y4267D02*
Y4183D01*
X6900D01*
X7066D01*
X6983D01*
Y3933D01*
X7066Y3850D01*
X7316Y4183D02*
Y3850D01*
Y4017D01*
X7400Y4100D01*
X7483Y4183D01*
X7566D01*
X7816Y3850D02*
X7983D01*
X7900D01*
Y4350D01*
X7816Y4267D01*
X39175Y45900D02*
Y46400D01*
X39425D01*
X39509Y46317D01*
Y46150D01*
X39425Y46067D01*
X39175D01*
X39675Y46233D02*
Y45900D01*
Y46067D01*
X39758Y46150D01*
X39842Y46233D01*
X39925D01*
X40175Y45900D02*
X40342D01*
X40258D01*
Y46400D01*
X40175D01*
X40591Y46317D02*
X40675Y46400D01*
X40841D01*
X40925Y46317D01*
Y46233D01*
X40841Y46150D01*
X40758D01*
X40841D01*
X40925Y46067D01*
Y45983D01*
X40841Y45900D01*
X40675D01*
X40591Y45983D01*
X46725Y45700D02*
Y46200D01*
X46975D01*
X47059Y46117D01*
Y45950D01*
X46975Y45867D01*
X46725D01*
X47225Y46033D02*
Y45700D01*
Y45867D01*
X47308Y45950D01*
X47392Y46033D01*
X47475D01*
X47725Y45700D02*
X47892D01*
X47808D01*
Y46200D01*
X47725D01*
X48475Y45700D02*
X48141D01*
X48475Y46033D01*
Y46117D01*
X48391Y46200D01*
X48225D01*
X48141Y46117D01*
X55109Y45350D02*
Y45850D01*
X55359D01*
X55442Y45767D01*
Y45600D01*
X55359Y45517D01*
X55109D01*
X55608Y45683D02*
Y45350D01*
Y45517D01*
X55692Y45600D01*
X55775Y45683D01*
X55858D01*
X56108Y45350D02*
X56275D01*
X56192D01*
Y45850D01*
X56108D01*
X56525Y45350D02*
X56691D01*
X56608D01*
Y45850D01*
X56525Y45767D01*
X35510Y27740D02*
Y28240D01*
X35760D01*
X35843Y28157D01*
Y27990D01*
X35760Y27907D01*
X35510D01*
X36260Y27740D02*
Y28240D01*
X36010Y27990D01*
X36343D01*
X22860Y22390D02*
Y22890D01*
X23110D01*
X23193Y22807D01*
Y22640D01*
X23110Y22557D01*
X22860D01*
X23693Y22390D02*
X23360D01*
X23693Y22723D01*
Y22807D01*
X23610Y22890D01*
X23443D01*
X23360Y22807D01*
X22960Y33790D02*
Y34290D01*
X23210D01*
X23293Y34207D01*
Y34040D01*
X23210Y33957D01*
X22960D01*
X23460Y33790D02*
X23626D01*
X23543D01*
Y34290D01*
X23460Y34207D01*
X61580Y2370D02*
Y1870D01*
X61913D01*
X62163Y2287D02*
Y2203D01*
X62080D01*
X62246D01*
X62163D01*
Y1953D01*
X62246Y1870D01*
X62496Y2203D02*
Y1870D01*
Y2037D01*
X62580Y2120D01*
X62663Y2203D01*
X62746D01*
X62996Y2287D02*
X63080Y2370D01*
X63246D01*
X63329Y2287D01*
Y2203D01*
X63246Y2120D01*
X63163D01*
X63246D01*
X63329Y2037D01*
Y1953D01*
X63246Y1870D01*
X63080D01*
X62996Y1953D01*
X59340Y2370D02*
Y1870D01*
X59673D01*
X59923Y2287D02*
Y2203D01*
X59840D01*
X60006D01*
X59923D01*
Y1953D01*
X60006Y1870D01*
X60256Y2203D02*
Y1870D01*
Y2037D01*
X60340Y2120D01*
X60423Y2203D01*
X60506D01*
X61089Y1870D02*
X60756D01*
X61089Y2203D01*
Y2287D01*
X61006Y2370D01*
X60840D01*
X60756Y2287D01*
X57280Y2370D02*
Y1870D01*
X57613D01*
X57863Y2287D02*
Y2203D01*
X57780D01*
X57946D01*
X57863D01*
Y1953D01*
X57946Y1870D01*
X58196Y2203D02*
Y1870D01*
Y2037D01*
X58280Y2120D01*
X58363Y2203D01*
X58446D01*
X58696Y1870D02*
X58863D01*
X58780D01*
Y2370D01*
X58696Y2287D01*
X8184Y20600D02*
Y20100D01*
X8517D01*
X8683D02*
Y20433D01*
X8933D01*
X9017Y20350D01*
Y20100D01*
X9183D02*
Y20600D01*
X9350Y20433D01*
X9517Y20600D01*
Y20100D01*
X9683Y20600D02*
Y20100D01*
X9933D01*
X10016Y20183D01*
Y20267D01*
Y20350D01*
X9933Y20433D01*
X9683D01*
X17360Y44070D02*
Y43570D01*
X17693D01*
X17860D02*
Y43903D01*
X18110D01*
X18193Y43820D01*
Y43570D01*
X18360Y44070D02*
Y43570D01*
X18693D01*
X18860Y43903D02*
Y43570D01*
Y43737D01*
X18943Y43820D01*
X19026Y43903D01*
X19109D01*
X20410Y33200D02*
Y32700D01*
X20743D01*
X20910D02*
Y33033D01*
X21160D01*
X21243Y32950D01*
Y32700D01*
X21410Y32617D02*
X21743D01*
X22243Y33200D02*
X21910D01*
Y32950D01*
X22076Y33033D01*
X22159D01*
X22243Y32950D01*
Y32783D01*
X22159Y32700D01*
X21993D01*
X21910Y32783D01*
X22409Y33200D02*
Y32867D01*
X22576Y32700D01*
X22743Y32867D01*
Y33200D01*
X6710Y37300D02*
Y36800D01*
X7043D01*
X7210D02*
Y37133D01*
X7460D01*
X7543Y37050D01*
Y36800D01*
X7710D02*
X7876D01*
X7793D01*
Y37300D01*
X7710Y37217D01*
X9950Y45250D02*
Y44750D01*
X10283D01*
X10450Y45250D02*
Y44750D01*
X10700D01*
X10783Y44833D01*
Y44917D01*
Y45000D01*
X10700Y45083D01*
X10450D01*
X10950D02*
X11116Y44750D01*
X11283Y45083D01*
X11450Y44750D02*
X11616D01*
X11533D01*
Y45250D01*
X11450Y45167D01*
X54450Y2000D02*
X54283D01*
X54367D01*
Y1583D01*
X54283Y1500D01*
X54200D01*
X54117Y1583D01*
X54700Y1917D02*
Y1833D01*
X54617D01*
X54783D01*
X54700D01*
Y1583D01*
X54783Y1500D01*
X55033Y1833D02*
Y1500D01*
Y1667D01*
X55117Y1750D01*
X55200Y1833D01*
X55283D01*
X49653Y2998D02*
X49487D01*
X49570D01*
Y2582D01*
X49487Y2499D01*
X49403D01*
X49320Y2582D01*
X49820Y2832D02*
Y2499D01*
Y2665D01*
X49903Y2749D01*
X49986Y2832D01*
X50070D01*
X50570Y2499D02*
X50403D01*
X50320Y2582D01*
Y2749D01*
X50403Y2832D01*
X50570D01*
X50653Y2749D01*
Y2665D01*
X50320D01*
X61193Y26490D02*
X61027D01*
X61110D01*
Y26073D01*
X61027Y25990D01*
X60943D01*
X60860Y26073D01*
X61360Y25990D02*
Y26490D01*
X61610D01*
X61693Y26407D01*
Y26240D01*
X61610Y26157D01*
X61360D01*
X61860Y25990D02*
X62110D01*
X62193Y26073D01*
X62110Y26157D01*
X61943D01*
X61860Y26240D01*
X61943Y26323D01*
X62193D01*
X62693D02*
X62443D01*
X62360Y26240D01*
Y26073D01*
X62443Y25990D01*
X62693D01*
X63193Y26490D02*
Y25990D01*
X62943D01*
X62859Y26073D01*
Y26240D01*
X62943Y26323D01*
X63193D01*
X44843Y1879D02*
X44677D01*
X44760D01*
Y1463D01*
X44677Y1379D01*
X44593D01*
X44510Y1463D01*
X45010Y1379D02*
Y1879D01*
X45260D01*
X45343Y1796D01*
Y1629D01*
X45260Y1546D01*
X45010D01*
X45510Y1713D02*
Y1379D01*
Y1546D01*
X45593Y1629D01*
X45676Y1713D01*
X45760D01*
X46259Y1379D02*
X46093D01*
X46010Y1463D01*
Y1629D01*
X46093Y1713D01*
X46259D01*
X46343Y1629D01*
Y1546D01*
X46010D01*
X46509Y1713D02*
X46676Y1379D01*
X46843Y1713D01*
X60843Y19090D02*
X60677D01*
X60760D01*
Y18673D01*
X60677Y18590D01*
X60593D01*
X60510Y18673D01*
X61010Y18590D02*
Y19090D01*
X61260D01*
X61343Y19007D01*
Y18840D01*
X61260Y18757D01*
X61010D01*
X61593Y18923D02*
X61760D01*
X61843Y18840D01*
Y18590D01*
X61593D01*
X61510Y18673D01*
X61593Y18757D01*
X61843D01*
X62010Y18590D02*
X62259D01*
X62343Y18673D01*
X62259Y18757D01*
X62093D01*
X62010Y18840D01*
X62093Y18923D01*
X62343D01*
X5117Y48450D02*
X4950D01*
X5033D01*
Y48033D01*
X4950Y47950D01*
X4867D01*
X4783Y48033D01*
X5283Y47950D02*
Y48283D01*
X5533D01*
X5617Y48200D01*
Y47950D01*
X12550Y48500D02*
X12383D01*
X12467D01*
Y48083D01*
X12383Y48000D01*
X12300D01*
X12217Y48083D01*
X12717Y48000D02*
Y48333D01*
X12967D01*
X13050Y48250D01*
Y48000D01*
X13217D02*
X13383D01*
X13300D01*
Y48500D01*
X13217Y48417D01*
X35575Y18450D02*
Y17950D01*
Y18200D01*
X35909D01*
Y18450D01*
Y17950D01*
X36158Y18367D02*
Y18283D01*
X36075D01*
X36242D01*
X36158D01*
Y18033D01*
X36242Y17950D01*
X36825Y18450D02*
Y17950D01*
X36575D01*
X36492Y18033D01*
Y18200D01*
X36575Y18283D01*
X36825D01*
X36991Y17950D02*
X37241D01*
X37325Y18033D01*
X37241Y18117D01*
X37075D01*
X36991Y18200D01*
X37075Y18283D01*
X37325D01*
X20100Y19100D02*
Y18600D01*
Y18850D01*
X20433D01*
Y19100D01*
Y18600D01*
X20600Y18433D02*
Y18933D01*
X20850D01*
X20933Y18850D01*
Y18683D01*
X20850Y18600D01*
X20600D01*
X21100Y19100D02*
Y18600D01*
Y18850D01*
X21183Y18933D01*
X21350D01*
X21433Y18850D01*
Y18600D01*
X3223Y44020D02*
X2890D01*
Y43770D01*
X3057D01*
X2890D01*
Y43520D01*
X3390Y44020D02*
Y43520D01*
X3640D01*
X3723Y43603D01*
Y43687D01*
Y43770D01*
X3640Y43853D01*
X3390D01*
X3890D02*
X4056Y43520D01*
X4223Y43853D01*
X6540Y39610D02*
Y39110D01*
X6790D01*
X6873Y39193D01*
Y39527D01*
X6790Y39610D01*
X6540D01*
X7040Y39110D02*
Y39443D01*
X7290D01*
X7373Y39360D01*
Y39110D01*
X19090Y12160D02*
Y11660D01*
X19340D01*
X19423Y11743D01*
Y12077D01*
X19340Y12160D01*
X19090D01*
X19590Y11660D02*
Y11993D01*
X19840D01*
X19923Y11910D01*
Y11660D01*
X20090D02*
X20256D01*
X20173D01*
Y12160D01*
X20090Y12077D01*
X490Y43460D02*
Y42960D01*
X740D01*
X823Y43043D01*
Y43377D01*
X740Y43460D01*
X490D01*
X990D02*
Y42960D01*
X1240D01*
X1323Y43043D01*
Y43127D01*
Y43210D01*
X1240Y43293D01*
X990D01*
X1490D02*
X1656Y42960D01*
X1823Y43293D01*
X2323Y42960D02*
X1990D01*
X2323Y43293D01*
Y43377D01*
X2239Y43460D01*
X2073D01*
X1990Y43377D01*
X5850Y43720D02*
Y43220D01*
X6100D01*
X6183Y43303D01*
Y43637D01*
X6100Y43720D01*
X5850D01*
X6350D02*
Y43220D01*
X6600D01*
X6683Y43303D01*
Y43387D01*
Y43470D01*
X6600Y43553D01*
X6350D01*
X6850D02*
X7016Y43220D01*
X7183Y43553D01*
X7350Y43220D02*
X7516D01*
X7433D01*
Y43720D01*
X7350Y43637D01*
X45300Y34960D02*
Y34460D01*
X45550D01*
X45633Y34543D01*
Y34877D01*
X45550Y34960D01*
X45300D01*
X45800Y34877D02*
X45883Y34960D01*
X46050D01*
X46133Y34877D01*
Y34793D01*
X46050Y34710D01*
X45966D01*
X46050D01*
X46133Y34627D01*
Y34543D01*
X46050Y34460D01*
X45883D01*
X45800Y34543D01*
X46300Y34793D02*
Y34460D01*
Y34627D01*
X46383Y34710D01*
X46466Y34793D01*
X46550D01*
X46800Y34460D02*
X46966D01*
X46883D01*
Y34960D01*
X46800D01*
X47216Y34877D02*
X47299Y34960D01*
X47466D01*
X47549Y34877D01*
Y34793D01*
X47466Y34710D01*
X47383D01*
X47466D01*
X47549Y34627D01*
Y34543D01*
X47466Y34460D01*
X47299D01*
X47216Y34543D01*
X52525Y35550D02*
Y35050D01*
X52775D01*
X52859Y35133D01*
Y35467D01*
X52775Y35550D01*
X52525D01*
X53025Y35467D02*
X53109Y35550D01*
X53275D01*
X53358Y35467D01*
Y35383D01*
X53275Y35300D01*
X53192D01*
X53275D01*
X53358Y35217D01*
Y35133D01*
X53275Y35050D01*
X53109D01*
X53025Y35133D01*
X53525Y35383D02*
Y35050D01*
Y35217D01*
X53608Y35300D01*
X53692Y35383D01*
X53775D01*
X54025Y35050D02*
X54191D01*
X54108D01*
Y35550D01*
X54025D01*
X54775Y35050D02*
X54441D01*
X54775Y35383D01*
Y35467D01*
X54691Y35550D01*
X54525D01*
X54441Y35467D01*
X55309Y35650D02*
Y35150D01*
X55559D01*
X55642Y35233D01*
Y35567D01*
X55559Y35650D01*
X55309D01*
X55809Y35567D02*
X55892Y35650D01*
X56058D01*
X56142Y35567D01*
Y35483D01*
X56058Y35400D01*
X55975D01*
X56058D01*
X56142Y35317D01*
Y35233D01*
X56058Y35150D01*
X55892D01*
X55809Y35233D01*
X56308Y35483D02*
Y35150D01*
Y35317D01*
X56392Y35400D01*
X56475Y35483D01*
X56558D01*
X56808Y35150D02*
X56975D01*
X56891D01*
Y35650D01*
X56808D01*
X57225Y35150D02*
X57391D01*
X57308D01*
Y35650D01*
X57225Y35567D01*
X41875Y30900D02*
Y30400D01*
X42125D01*
X42209Y30483D01*
Y30817D01*
X42125Y30900D01*
X41875D01*
X42708Y30400D02*
X42375D01*
X42708Y30733D01*
Y30817D01*
X42625Y30900D01*
X42459D01*
X42375Y30817D01*
X42875Y30733D02*
Y30400D01*
Y30567D01*
X42958Y30650D01*
X43042Y30733D01*
X43125D01*
X43375Y30400D02*
X43541D01*
X43458D01*
Y30900D01*
X43375D01*
X43791Y30817D02*
X43875Y30900D01*
X44041D01*
X44125Y30817D01*
Y30733D01*
X44041Y30650D01*
X43958D01*
X44041D01*
X44125Y30567D01*
Y30483D01*
X44041Y30400D01*
X43875D01*
X43791Y30483D01*
X47950Y29660D02*
Y29160D01*
X48200D01*
X48283Y29243D01*
Y29577D01*
X48200Y29660D01*
X47950D01*
X48783Y29160D02*
X48450D01*
X48783Y29493D01*
Y29577D01*
X48700Y29660D01*
X48533D01*
X48450Y29577D01*
X48950Y29493D02*
Y29160D01*
Y29327D01*
X49033Y29410D01*
X49116Y29493D01*
X49200D01*
X49450Y29160D02*
X49616D01*
X49533D01*
Y29660D01*
X49450D01*
X50199Y29160D02*
X49866D01*
X50199Y29493D01*
Y29577D01*
X50116Y29660D01*
X49949D01*
X49866Y29577D01*
X60270Y32510D02*
Y32010D01*
X60520D01*
X60603Y32093D01*
Y32427D01*
X60520Y32510D01*
X60270D01*
X61103Y32010D02*
X60770D01*
X61103Y32343D01*
Y32427D01*
X61020Y32510D01*
X60853D01*
X60770Y32427D01*
X61270Y32343D02*
Y32010D01*
Y32177D01*
X61353Y32260D01*
X61436Y32343D01*
X61520D01*
X61770Y32010D02*
X61936D01*
X61853D01*
Y32510D01*
X61770D01*
X62186Y32010D02*
X62353D01*
X62269D01*
Y32510D01*
X62186Y32427D01*
X38717Y30950D02*
Y30450D01*
X38967D01*
X39050Y30533D01*
Y30867D01*
X38967Y30950D01*
X38717D01*
X39217Y30450D02*
X39383D01*
X39300D01*
Y30950D01*
X39217Y30867D01*
X39633Y30783D02*
Y30450D01*
Y30617D01*
X39717Y30700D01*
X39800Y30783D01*
X39883D01*
X40133Y30450D02*
X40300D01*
X40217D01*
Y30950D01*
X40133D01*
X40550Y30867D02*
X40633Y30950D01*
X40800D01*
X40883Y30867D01*
Y30783D01*
X40800Y30700D01*
X40716D01*
X40800D01*
X40883Y30617D01*
Y30533D01*
X40800Y30450D01*
X40633D01*
X40550Y30533D01*
X47690Y33570D02*
Y33070D01*
X47940D01*
X48023Y33153D01*
Y33487D01*
X47940Y33570D01*
X47690D01*
X48190Y33070D02*
X48356D01*
X48273D01*
Y33570D01*
X48190Y33487D01*
X48606Y33403D02*
Y33070D01*
Y33237D01*
X48690Y33320D01*
X48773Y33403D01*
X48856D01*
X49106Y33070D02*
X49273D01*
X49190D01*
Y33570D01*
X49106D01*
X49856Y33070D02*
X49523D01*
X49856Y33403D01*
Y33487D01*
X49773Y33570D01*
X49606D01*
X49523Y33487D01*
X57520Y32760D02*
Y32260D01*
X57770D01*
X57853Y32343D01*
Y32677D01*
X57770Y32760D01*
X57520D01*
X58020Y32260D02*
X58186D01*
X58103D01*
Y32760D01*
X58020Y32677D01*
X58436Y32593D02*
Y32260D01*
Y32427D01*
X58520Y32510D01*
X58603Y32593D01*
X58686D01*
X58936Y32260D02*
X59103D01*
X59020D01*
Y32760D01*
X58936D01*
X59353Y32260D02*
X59519D01*
X59436D01*
Y32760D01*
X59353Y32677D01*
X57173Y10057D02*
X57090Y10140D01*
X56923D01*
X56840Y10057D01*
Y9723D01*
X56923Y9640D01*
X57090D01*
X57173Y9723D01*
X57340Y9640D02*
Y9973D01*
X57590D01*
X57673Y9890D01*
Y9640D01*
X57840Y10140D02*
X58173D01*
X58006D01*
Y9640D01*
X58340Y9973D02*
Y9640D01*
Y9807D01*
X58423Y9890D01*
X58506Y9973D01*
X58589D01*
X31867Y18167D02*
X31784Y18250D01*
X31617D01*
X31534Y18167D01*
Y17833D01*
X31617Y17750D01*
X31784D01*
X31867Y17833D01*
X32034Y17750D02*
Y18083D01*
X32283D01*
X32367Y18000D01*
Y17750D01*
X32533Y18250D02*
X32867D01*
X32700D01*
Y17750D01*
X33033Y18250D02*
Y17750D01*
X33283D01*
X33366Y17833D01*
Y18167D01*
X33283Y18250D01*
X33033D01*
X33866Y18167D02*
X33783Y18250D01*
X33616D01*
X33533Y18167D01*
Y18083D01*
X33616Y18000D01*
X33783D01*
X33866Y17917D01*
Y17833D01*
X33783Y17750D01*
X33616D01*
X33533Y17833D01*
X61417Y20867D02*
X61334Y20950D01*
X61167D01*
X61084Y20867D01*
Y20533D01*
X61167Y20450D01*
X61334D01*
X61417Y20533D01*
X61584Y20450D02*
Y20783D01*
X61833D01*
X61917Y20700D01*
Y20450D01*
X62417Y20867D02*
X62333Y20950D01*
X62167D01*
X62083Y20867D01*
Y20783D01*
X62167Y20700D01*
X62333D01*
X62417Y20617D01*
Y20533D01*
X62333Y20450D01*
X62167D01*
X62083Y20533D01*
X62916Y20867D02*
X62833Y20950D01*
X62667D01*
X62583Y20867D01*
Y20533D01*
X62667Y20450D01*
X62833D01*
X62916Y20533D01*
X63083Y20950D02*
Y20450D01*
X63333D01*
X63416Y20533D01*
Y20867D01*
X63333Y20950D01*
X63083D01*
X38343Y34247D02*
X38260Y34330D01*
X38093D01*
X38010Y34247D01*
Y33913D01*
X38093Y33830D01*
X38260D01*
X38343Y33913D01*
X38510Y33830D02*
Y34163D01*
X38760D01*
X38843Y34080D01*
Y33830D01*
X39010D02*
Y34330D01*
X39260D01*
X39343Y34247D01*
Y34080D01*
X39260Y33997D01*
X39010D01*
X39176D02*
X39343Y33830D01*
X39510D02*
X39676D01*
X39593D01*
Y34330D01*
X39510D01*
X52217Y2667D02*
X52134Y2750D01*
X51967D01*
X51884Y2667D01*
Y2333D01*
X51967Y2250D01*
X52134D01*
X52217Y2333D01*
X52383Y2250D02*
Y2583D01*
X52633D01*
X52717Y2500D01*
Y2250D01*
X52883D02*
Y2750D01*
X53133D01*
X53217Y2667D01*
Y2500D01*
X53133Y2417D01*
X52883D01*
X53050D02*
X53217Y2250D01*
X53633D02*
X53466D01*
X53383Y2333D01*
Y2500D01*
X53466Y2583D01*
X53633D01*
X53716Y2500D01*
Y2417D01*
X53383D01*
X22567Y20067D02*
X22484Y20150D01*
X22317D01*
X22234Y20067D01*
Y19733D01*
X22317Y19650D01*
X22484D01*
X22567Y19733D01*
X22733Y19650D02*
Y19983D01*
X22983D01*
X23067Y19900D01*
Y19650D01*
X23233D02*
Y20150D01*
X23483D01*
X23567Y20067D01*
Y19900D01*
X23483Y19817D01*
X23233D01*
X23733Y20150D02*
Y19650D01*
Y19900D01*
X24066D01*
Y20150D01*
Y19650D01*
X21593Y11907D02*
X21510Y11990D01*
X21343D01*
X21260Y11907D01*
Y11573D01*
X21343Y11490D01*
X21510D01*
X21593Y11573D01*
X21760Y11490D02*
Y11823D01*
X22010D01*
X22093Y11740D01*
Y11490D01*
X22260D02*
Y11990D01*
X22426Y11823D01*
X22593Y11990D01*
Y11490D01*
X22760Y11990D02*
Y11490D01*
X23009D01*
X23093Y11573D01*
Y11657D01*
Y11740D01*
X23009Y11823D01*
X22760D01*
X12500Y15417D02*
X12417Y15500D01*
X12250D01*
X12167Y15417D01*
Y15083D01*
X12250Y15000D01*
X12417D01*
X12500Y15083D01*
X12667Y15000D02*
Y15333D01*
X12917D01*
X13000Y15250D01*
Y15000D01*
X13167D02*
Y15500D01*
X13333Y15333D01*
X13500Y15500D01*
Y15000D01*
X13667Y15500D02*
Y15000D01*
X13916D01*
X14000Y15083D01*
Y15167D01*
Y15250D01*
X13916Y15333D01*
X13667D01*
X14166Y15000D02*
X14333D01*
X14250D01*
Y15500D01*
X14166Y15417D01*
X24293Y46247D02*
X24210Y46330D01*
X24043D01*
X23960Y46247D01*
Y45913D01*
X24043Y45830D01*
X24210D01*
X24293Y45913D01*
X24460Y45830D02*
Y46163D01*
X24710D01*
X24793Y46080D01*
Y45830D01*
X24960Y46330D02*
Y45830D01*
X25293D01*
X25460Y46163D02*
Y45830D01*
Y45997D01*
X25543Y46080D01*
X25626Y46163D01*
X25709D01*
X61467Y12317D02*
X61384Y12400D01*
X61217D01*
X61134Y12317D01*
Y11983D01*
X61217Y11900D01*
X61384D01*
X61467Y11983D01*
X61633Y11900D02*
Y12233D01*
X61883D01*
X61967Y12150D01*
Y11900D01*
X62133D02*
Y12233D01*
X62300Y12400D01*
X62467Y12233D01*
Y11900D01*
Y12150D01*
X62133D01*
X62633Y11900D02*
X62883D01*
X62966Y11983D01*
X62883Y12067D01*
X62716D01*
X62633Y12150D01*
X62716Y12233D01*
X62966D01*
X16993Y28027D02*
X16910Y28110D01*
X16743D01*
X16660Y28027D01*
Y27693D01*
X16743Y27610D01*
X16910D01*
X16993Y27693D01*
X17160Y27610D02*
Y27943D01*
X17410D01*
X17493Y27860D01*
Y27610D01*
X17660D02*
Y27943D01*
X17826Y28110D01*
X17993Y27943D01*
Y27610D01*
Y27860D01*
X17660D01*
X18160Y27943D02*
Y27610D01*
Y27777D01*
X18243Y27860D01*
X18326Y27943D01*
X18409D01*
X8073Y30227D02*
X7990Y30310D01*
X7823D01*
X7740Y30227D01*
Y29893D01*
X7823Y29810D01*
X7990D01*
X8073Y29893D01*
X8240Y29810D02*
Y30143D01*
X8490D01*
X8573Y30060D01*
Y29810D01*
X8990D02*
Y30310D01*
X8740Y30060D01*
X9073D01*
X5773Y31027D02*
X5690Y31110D01*
X5523D01*
X5440Y31027D01*
Y30693D01*
X5523Y30610D01*
X5690D01*
X5773Y30693D01*
X5940Y30610D02*
Y30943D01*
X6190D01*
X6273Y30860D01*
Y30610D01*
X6440Y31027D02*
X6523Y31110D01*
X6690D01*
X6773Y31027D01*
Y30943D01*
X6690Y30860D01*
X6606D01*
X6690D01*
X6773Y30777D01*
Y30693D01*
X6690Y30610D01*
X6523D01*
X6440Y30693D01*
X433Y33827D02*
X350Y33910D01*
X183D01*
X100Y33827D01*
Y33493D01*
X183Y33410D01*
X350D01*
X433Y33493D01*
X600Y33410D02*
Y33743D01*
X850D01*
X933Y33660D01*
Y33410D01*
X1433D02*
X1100D01*
X1433Y33743D01*
Y33827D01*
X1350Y33910D01*
X1183D01*
X1100Y33827D01*
X4123Y39327D02*
X4040Y39410D01*
X3873D01*
X3790Y39327D01*
Y38993D01*
X3873Y38910D01*
X4040D01*
X4123Y38993D01*
X4290Y38910D02*
Y39243D01*
X4540D01*
X4623Y39160D01*
Y38910D01*
X4790D02*
X4956D01*
X4873D01*
Y39410D01*
X4790Y39327D01*
X16193Y35027D02*
X16110Y35110D01*
X15943D01*
X15860Y35027D01*
Y34693D01*
X15943Y34610D01*
X16110D01*
X16193Y34693D01*
X16360Y35110D02*
Y34610D01*
Y34860D01*
X16443Y34943D01*
X16610D01*
X16693Y34860D01*
Y34610D01*
X16943Y34943D02*
X17110D01*
X17193Y34860D01*
Y34610D01*
X16943D01*
X16860Y34693D01*
X16943Y34777D01*
X17193D01*
X17693Y34610D02*
X17360D01*
X17693Y34943D01*
Y35027D01*
X17609Y35110D01*
X17443D01*
X17360Y35027D01*
X12653Y32857D02*
X12570Y32940D01*
X12403D01*
X12320Y32857D01*
Y32523D01*
X12403Y32440D01*
X12570D01*
X12653Y32523D01*
X12820Y32940D02*
Y32440D01*
Y32690D01*
X12903Y32773D01*
X13070D01*
X13153Y32690D01*
Y32440D01*
X13403Y32773D02*
X13570D01*
X13653Y32690D01*
Y32440D01*
X13403D01*
X13320Y32523D01*
X13403Y32607D01*
X13653D01*
X13820Y32440D02*
X13986D01*
X13903D01*
Y32940D01*
X13820Y32857D01*
X15313Y48137D02*
X15230Y48220D01*
X15063D01*
X14980Y48137D01*
Y47803D01*
X15063Y47720D01*
X15230D01*
X15313Y47803D01*
X15480Y48220D02*
Y47720D01*
X15730D01*
X15813Y47803D01*
Y47887D01*
Y47970D01*
X15730Y48053D01*
X15480D01*
X15980D02*
X16146Y47720D01*
X16313Y48053D01*
X16480Y48137D02*
X16563Y48220D01*
X16729D01*
X16813Y48137D01*
Y48053D01*
X16729Y47970D01*
X16646D01*
X16729D01*
X16813Y47887D01*
Y47803D01*
X16729Y47720D01*
X16563D01*
X16480Y47803D01*
X12923Y45827D02*
X12840Y45910D01*
X12673D01*
X12590Y45827D01*
Y45493D01*
X12673Y45410D01*
X12840D01*
X12923Y45493D01*
X13090Y45910D02*
Y45410D01*
X13340D01*
X13423Y45493D01*
Y45577D01*
Y45660D01*
X13340Y45743D01*
X13090D01*
X13590D02*
X13756Y45410D01*
X13923Y45743D01*
X14423Y45410D02*
X14090D01*
X14423Y45743D01*
Y45827D01*
X14339Y45910D01*
X14173D01*
X14090Y45827D01*
X8323Y43877D02*
X8240Y43960D01*
X8073D01*
X7990Y43877D01*
Y43543D01*
X8073Y43460D01*
X8240D01*
X8323Y43543D01*
X8490Y43960D02*
Y43460D01*
X8740D01*
X8823Y43543D01*
Y43627D01*
Y43710D01*
X8740Y43793D01*
X8490D01*
X8990D02*
X9156Y43460D01*
X9323Y43793D01*
X9490Y43460D02*
X9656D01*
X9573D01*
Y43960D01*
X9490Y43877D01*
X22350Y30800D02*
Y31133D01*
X22517Y31300D01*
X22683Y31133D01*
Y30800D01*
Y31050D01*
X22350D01*
X22850Y30800D02*
Y31300D01*
X23100D01*
X23183Y31217D01*
Y31050D01*
X23100Y30967D01*
X22850D01*
X23016D02*
X23183Y30800D01*
X23350Y31300D02*
Y30800D01*
X23600D01*
X23683Y30883D01*
Y31217D01*
X23600Y31300D01*
X23350D01*
X23850D02*
Y30883D01*
X23933Y30800D01*
X24099D01*
X24183Y30883D01*
Y31300D01*
X24349D02*
X24516D01*
X24433D01*
Y30800D01*
X24349D01*
X24516D01*
X24766D02*
Y31300D01*
X25099Y30800D01*
Y31300D01*
X25516D02*
X25349D01*
X25266Y31217D01*
Y30883D01*
X25349Y30800D01*
X25516D01*
X25599Y30883D01*
Y31217D01*
X25516Y31300D01*
X25766Y30717D02*
X26099D01*
X26265Y30800D02*
Y31300D01*
X26432Y31133D01*
X26599Y31300D01*
Y30800D01*
X26765Y31300D02*
X26932D01*
X26849D01*
Y30800D01*
X26765D01*
X26932D01*
X27182D02*
Y31300D01*
X27515Y30800D01*
Y31300D01*
X27682D02*
X27848D01*
X27765D01*
Y30800D01*
X27682D01*
X27848D01*
X28098Y30717D02*
X28431D01*
X28598Y30800D02*
Y31300D01*
X28848D01*
X28931Y31217D01*
Y31050D01*
X28848Y30967D01*
X28598D01*
X29098Y30800D02*
Y31300D01*
X29348D01*
X29431Y31217D01*
Y31050D01*
X29348Y30967D01*
X29098D01*
X29264D02*
X29431Y30800D01*
X29848Y31300D02*
X29681D01*
X29598Y31217D01*
Y30883D01*
X29681Y30800D01*
X29848D01*
X29931Y30883D01*
Y31217D01*
X29848Y31300D01*
X15993Y3090D02*
X15827D01*
X15910D01*
Y2673D01*
X15827Y2590D01*
X15743D01*
X15660Y2673D01*
X16160Y3007D02*
X16243Y3090D01*
X16410D01*
X16493Y3007D01*
Y2923D01*
X16410Y2840D01*
X16493Y2757D01*
Y2673D01*
X16410Y2590D01*
X16243D01*
X16160Y2673D01*
Y2757D01*
X16243Y2840D01*
X16160Y2923D01*
Y3007D01*
X16243Y2840D02*
X16410D01*
X15993Y15690D02*
X15827D01*
X15910D01*
Y15273D01*
X15827Y15190D01*
X15743D01*
X15660Y15273D01*
X16493Y15690D02*
X16326Y15607D01*
X16160Y15440D01*
Y15273D01*
X16243Y15190D01*
X16410D01*
X16493Y15273D01*
Y15357D01*
X16410Y15440D01*
X16160D01*
X25443Y15690D02*
X25277D01*
X25360D01*
Y15273D01*
X25277Y15190D01*
X25193D01*
X25110Y15273D01*
X25860Y15190D02*
Y15690D01*
X25610Y15440D01*
X25943D01*
X25443Y3100D02*
X25277D01*
X25360D01*
Y2683D01*
X25277Y2600D01*
X25193D01*
X25110Y2683D01*
X25610Y2600D02*
X25776D01*
X25693D01*
Y3100D01*
X25610Y3017D01*
X35475Y47250D02*
Y47750D01*
X35725D01*
X35809Y47667D01*
Y47500D01*
X35725Y47417D01*
X35475D01*
X35975Y47583D02*
Y47333D01*
X36059Y47250D01*
X36308D01*
Y47583D01*
X36475Y47250D02*
X36642D01*
X36558D01*
Y47750D01*
X36475D01*
X36892Y47583D02*
Y47250D01*
Y47417D01*
X36975Y47500D01*
X37058Y47583D01*
X37141D01*
X37725Y47250D02*
X37391D01*
X37725Y47583D01*
Y47667D01*
X37641Y47750D01*
X37475D01*
X37391Y47667D01*
X24559Y47600D02*
Y48100D01*
X24809D01*
X24892Y48017D01*
Y47850D01*
X24809Y47767D01*
X24559D01*
X25059Y47933D02*
Y47683D01*
X25142Y47600D01*
X25392D01*
Y47933D01*
X25558Y47600D02*
X25725D01*
X25642D01*
Y48100D01*
X25558D01*
X25975Y47933D02*
Y47600D01*
Y47767D01*
X26058Y47850D01*
X26141Y47933D01*
X26225D01*
X26475Y47600D02*
X26641D01*
X26558D01*
Y48100D01*
X26475Y48017D01*
X32093Y3040D02*
X31927D01*
X32010D01*
Y2623D01*
X31927Y2540D01*
X31843D01*
X31760Y2623D01*
X32260Y3040D02*
X32593D01*
Y2957D01*
X32260Y2623D01*
Y2540D01*
X32093Y15640D02*
X31927D01*
X32010D01*
Y15223D01*
X31927Y15140D01*
X31843D01*
X31760Y15223D01*
X32593Y15640D02*
X32260D01*
Y15390D01*
X32426Y15473D01*
X32510D01*
X32593Y15390D01*
Y15223D01*
X32510Y15140D01*
X32343D01*
X32260Y15223D01*
X41543Y3040D02*
X41377D01*
X41460D01*
Y2623D01*
X41377Y2540D01*
X41293D01*
X41210Y2623D01*
X41710Y2957D02*
X41793Y3040D01*
X41960D01*
X42043Y2957D01*
Y2873D01*
X41960Y2790D01*
X41876D01*
X41960D01*
X42043Y2707D01*
Y2623D01*
X41960Y2540D01*
X41793D01*
X41710Y2623D01*
X41543Y15640D02*
X41377D01*
X41460D01*
Y15223D01*
X41377Y15140D01*
X41293D01*
X41210Y15223D01*
X42043Y15140D02*
X41710D01*
X42043Y15473D01*
Y15557D01*
X41960Y15640D01*
X41793D01*
X41710Y15557D01*
D14*
X58641Y775D02*
G03*
X58641Y775I-591J0D01*
G01*
X60691D02*
G03*
X60691Y775I-591J0D01*
G01*
X62941D02*
G03*
X62941Y775I-591J0D01*
G01*
X9100Y22250D02*
X9150D01*
X9100Y21350D02*
Y22250D01*
Y21350D02*
X9150D01*
X9750Y22250D02*
X9800D01*
Y21350D02*
Y22250D01*
X9750Y21350D02*
X9800D01*
X36100Y19100D02*
Y19150D01*
Y19100D02*
X37000D01*
Y19150D01*
X36100Y19750D02*
Y19800D01*
X37000D01*
Y19750D02*
Y19800D01*
X57850Y275D02*
Y1275D01*
Y275D02*
X58250Y775D01*
Y275D02*
Y775D01*
X57850Y1275D02*
X58250Y775D01*
Y1275D01*
X59900Y275D02*
Y1275D01*
Y275D02*
X60300Y775D01*
Y275D02*
Y775D01*
X59900Y1275D02*
X60300Y775D01*
Y1275D01*
X62150Y275D02*
Y1275D01*
Y275D02*
X62550Y775D01*
Y275D02*
Y775D01*
X62150Y1275D02*
X62550Y775D01*
Y1275D01*
X17550Y42550D02*
Y42600D01*
Y42550D02*
X18450D01*
Y42600D01*
X17550Y43200D02*
Y43250D01*
X18450D01*
Y43200D02*
Y43250D01*
X21500Y32250D02*
Y32300D01*
X20600D02*
X21500D01*
X20600Y32250D02*
Y32300D01*
X21500Y31600D02*
Y31650D01*
X20600Y31600D02*
X21500D01*
X20600D02*
Y31650D01*
D15*
X57068Y7164D02*
G03*
X57068Y7164I-49J0D01*
G01*
X50985Y27668D02*
G03*
X50985Y27668I-49J0D01*
G01*
X61013Y28531D02*
G03*
X61013Y28531I-49J0D01*
G01*
X46331Y26436D02*
G03*
X46331Y26436I-49J0D01*
G01*
D16*
X58350Y33650D02*
X59100D01*
X58350Y34550D02*
X59100D01*
X57200D02*
X57950D01*
X57200Y33650D02*
X57950D01*
X59100D02*
Y34550D01*
X57200Y33650D02*
Y34550D01*
X40350Y31700D02*
Y32450D01*
X41250Y31700D02*
Y32450D01*
Y32850D02*
Y33600D01*
X40350Y32850D02*
Y33600D01*
Y31700D02*
X41250D01*
X40350Y33600D02*
X41250D01*
X16300Y10400D02*
Y11150D01*
X15400Y10400D02*
Y11150D01*
Y9250D02*
Y10000D01*
X16300Y9250D02*
Y10000D01*
X15400Y11150D02*
X16300D01*
X15400Y9250D02*
X16300D01*
X13700Y10450D02*
Y11200D01*
X12800Y10450D02*
Y11200D01*
Y9300D02*
Y10050D01*
X13700Y9300D02*
Y10050D01*
X12800Y11200D02*
X13700D01*
X12800Y9300D02*
X13700D01*
X11000Y10500D02*
Y11250D01*
X10100Y10500D02*
Y11250D01*
Y9350D02*
Y10100D01*
X11000Y9350D02*
Y10100D01*
X10100Y11250D02*
X11000D01*
X10100Y9350D02*
X11000D01*
X12750Y18200D02*
X13500D01*
X12750Y19100D02*
X13500D01*
X11600D02*
X12350D01*
X11600Y18200D02*
X12350D01*
X13500D02*
Y19100D01*
X11600Y18200D02*
Y19100D01*
X11500Y20150D02*
Y20900D01*
X12400Y20150D02*
Y20900D01*
Y21300D02*
Y22050D01*
X11500Y21300D02*
Y22050D01*
Y20150D02*
X12400D01*
X11500Y22050D02*
X12400D01*
X13550Y24500D02*
Y25250D01*
X12550Y24500D02*
Y25250D01*
Y22900D02*
Y23650D01*
X13550Y22900D02*
Y23650D01*
X12550Y25250D02*
X13550D01*
X12550Y22900D02*
X13550D01*
X9550Y25950D02*
Y26700D01*
X8650Y25950D02*
Y26700D01*
Y24800D02*
Y25550D01*
X9550Y24800D02*
Y25550D01*
X8650Y26700D02*
X9550D01*
X8650Y24800D02*
X9550D01*
X10200Y23450D02*
Y24200D01*
X11100Y23450D02*
Y24200D01*
Y24600D02*
Y25350D01*
X10200Y24600D02*
Y25350D01*
Y23450D02*
X11100D01*
X10200Y25350D02*
X11100D01*
X42200Y31700D02*
Y32450D01*
X43100Y31700D02*
Y32450D01*
Y32850D02*
Y33600D01*
X42200Y32850D02*
Y33600D01*
Y31700D02*
X43100D01*
X42200Y33600D02*
X43100D01*
X56950Y3050D02*
X57700D01*
X56950Y3950D02*
X57700D01*
X55800D02*
X56550D01*
X55800Y3050D02*
X56550D01*
X57700D02*
Y3950D01*
X55800Y3050D02*
Y3950D01*
X54600Y26000D02*
Y26750D01*
X55500Y26000D02*
Y26750D01*
Y27150D02*
Y27900D01*
X54600Y27150D02*
Y27900D01*
Y26000D02*
X55500D01*
X54600Y27900D02*
X55500D01*
X50200Y34500D02*
X50950D01*
X50200Y33600D02*
X50950D01*
X51350D02*
X52100D01*
X51350Y34500D02*
X52100D01*
X50200Y33600D02*
Y34500D01*
X52100Y33600D02*
Y34500D01*
X38700Y21650D02*
X39450D01*
X38700Y20750D02*
X39450D01*
X39850D02*
X40600D01*
X39850Y21650D02*
X40600D01*
X38700Y20750D02*
Y21650D01*
X40600Y20750D02*
Y21650D01*
X38750Y23600D02*
X39500D01*
X38750Y22700D02*
X39500D01*
X39900D02*
X40650D01*
X39900Y23600D02*
X40650D01*
X38750Y22700D02*
Y23600D01*
X40650Y22700D02*
Y23600D01*
X33500Y19200D02*
Y20100D01*
X35400Y19200D02*
Y20100D01*
X33500Y19200D02*
X34250D01*
X33500Y20100D02*
X34250D01*
X34650D02*
X35400D01*
X34650Y19200D02*
X35400D01*
X17500Y39350D02*
Y39800D01*
X16350Y39350D02*
Y39800D01*
X17300D02*
X17500D01*
X16900Y38900D02*
X16950D01*
X16350Y39800D02*
X16550D01*
X1550Y18700D02*
Y19600D01*
X3450Y18700D02*
Y19600D01*
X1550Y18700D02*
X2300D01*
X1550Y19600D02*
X2300D01*
X2700D02*
X3450D01*
X2700Y18700D02*
X3450D01*
X6000Y16500D02*
Y17400D01*
X7900Y16500D02*
Y17400D01*
X6000Y16500D02*
X6750D01*
X6000Y17400D02*
X6750D01*
X7150D02*
X7900D01*
X7150Y16500D02*
X7900D01*
X4450Y17900D02*
X5350D01*
X4450Y19800D02*
X5350D01*
Y17900D02*
Y18650D01*
X4450Y17900D02*
Y18650D01*
Y19050D02*
Y19800D01*
X5350Y19050D02*
Y19800D01*
X19150Y37500D02*
X20050D01*
X19150Y35600D02*
X20050D01*
X19150Y36750D02*
Y37500D01*
X20050Y36750D02*
Y37500D01*
Y35600D02*
Y36350D01*
X19150Y35600D02*
Y36350D01*
X20250Y10350D02*
Y11300D01*
X19050Y10350D02*
Y11300D01*
Y8700D02*
Y9650D01*
X20250Y8700D02*
Y9650D01*
X19050Y11300D02*
X20250D01*
X19050Y8700D02*
X20250D01*
X12550Y45050D02*
X13550D01*
X12550Y42700D02*
X13550D01*
X12550Y44300D02*
Y45050D01*
X13550Y44300D02*
Y45050D01*
Y42700D02*
Y43450D01*
X12550Y42700D02*
Y43450D01*
X7950Y41200D02*
X8850D01*
X7950Y43100D02*
X8850D01*
Y41200D02*
Y41950D01*
X7950Y41200D02*
Y41950D01*
Y42350D02*
Y43100D01*
X8850Y42350D02*
Y43100D01*
X19250Y40700D02*
X20150D01*
X19250Y38800D02*
X20150D01*
X19250Y39950D02*
Y40700D01*
X20150Y39950D02*
Y40700D01*
Y38800D02*
Y39550D01*
X19250Y38800D02*
Y39550D01*
X2850Y43000D02*
X5050D01*
X2850Y39800D02*
X5050D01*
X2850Y42450D02*
Y43000D01*
X5050Y42450D02*
Y43000D01*
Y39800D02*
Y40350D01*
X2850Y39800D02*
Y40350D01*
X6950Y25250D02*
Y25700D01*
X5800Y25250D02*
Y25700D01*
X6750D02*
X6950D01*
X6350Y24800D02*
X6400D01*
X5800Y25700D02*
X6000D01*
X1650Y41650D02*
Y42600D01*
X450Y41650D02*
Y42600D01*
Y40000D02*
Y40950D01*
X1650Y40000D02*
Y40950D01*
X450Y42600D02*
X1650D01*
X450Y40000D02*
X1650D01*
X5650Y21750D02*
Y22650D01*
X7550Y21750D02*
Y22650D01*
X5650Y21750D02*
X6400D01*
X5650Y22650D02*
X6400D01*
X6800D02*
X7550D01*
X6800Y21750D02*
X7550D01*
X8150Y37550D02*
X9100D01*
X8150Y38750D02*
X9100D01*
X6500D02*
X7450D01*
X6500Y37550D02*
X7450D01*
X9100D02*
Y38750D01*
X6500Y37550D02*
Y38750D01*
X5650Y37650D02*
Y38550D01*
X3750Y37650D02*
Y38550D01*
X4900D02*
X5650D01*
X4900Y37650D02*
X5650D01*
X3750D02*
X4500D01*
X3750Y38550D02*
X4500D01*
X7700Y27100D02*
X8700D01*
X7700Y29450D02*
X8700D01*
Y27100D02*
Y27850D01*
X7700Y27100D02*
Y27850D01*
Y28700D02*
Y29450D01*
X8700Y28700D02*
Y29450D01*
X5400Y27900D02*
X6400D01*
X5400Y30250D02*
X6400D01*
Y27900D02*
Y28650D01*
X5400Y27900D02*
Y28650D01*
Y29500D02*
Y30250D01*
X6400Y29500D02*
Y30250D01*
X8600Y30400D02*
X9500D01*
X8600Y32300D02*
X9500D01*
Y30400D02*
Y31150D01*
X8600Y30400D02*
Y31150D01*
Y31550D02*
Y32300D01*
X9500Y31550D02*
Y32300D01*
X60Y33050D02*
X1060D01*
X60Y30700D02*
X1060D01*
X60Y32300D02*
Y33050D01*
X1060Y32300D02*
Y33050D01*
Y30700D02*
Y31450D01*
X60Y30700D02*
Y31450D01*
X2050Y32900D02*
X2950D01*
X2050Y31000D02*
X2950D01*
X2050Y32150D02*
Y32900D01*
X2950Y32150D02*
Y32900D01*
Y31000D02*
Y31750D01*
X2050Y31000D02*
Y31750D01*
X5900Y31950D02*
Y32850D01*
X4000Y31950D02*
Y32850D01*
X5150D02*
X5900D01*
X5150Y31950D02*
X5900D01*
X4000D02*
X4750D01*
X4000Y32850D02*
X4750D01*
X60Y34500D02*
X960D01*
X60Y36400D02*
X960D01*
Y34500D02*
Y35250D01*
X60Y34500D02*
Y35250D01*
Y35650D02*
Y36400D01*
X960Y35650D02*
Y36400D01*
X1950Y34450D02*
X2850D01*
X1950Y36350D02*
X2850D01*
Y34450D02*
Y35200D01*
X1950Y34450D02*
Y35200D01*
Y35600D02*
Y36350D01*
X2850Y35600D02*
Y36350D01*
X15950Y30300D02*
Y30750D01*
X14800Y30300D02*
Y30750D01*
X15750D02*
X15950D01*
X15350Y29850D02*
X15400D01*
X14800Y30750D02*
X15000D01*
X13800Y26650D02*
X14700D01*
X13800Y28550D02*
X14700D01*
Y26650D02*
Y27400D01*
X13800Y26650D02*
Y27400D01*
Y27800D02*
Y28550D01*
X14700Y27800D02*
Y28550D01*
X10250Y29150D02*
X11150D01*
X10250Y27250D02*
X11150D01*
X10250Y28400D02*
Y29150D01*
X11150Y28400D02*
Y29150D01*
Y27250D02*
Y28000D01*
X10250Y27250D02*
Y28000D01*
X51550Y30700D02*
Y31600D01*
X49650Y30700D02*
Y31600D01*
X50800D02*
X51550D01*
X50800Y30700D02*
X51550D01*
X49650D02*
X50400D01*
X49650Y31600D02*
X50400D01*
X55350Y3900D02*
Y4800D01*
X53450Y3900D02*
Y4800D01*
X54600D02*
X55350D01*
X54600Y3900D02*
X55350D01*
X53450D02*
X54200D01*
X53450Y4800D02*
X54200D01*
X51800Y25300D02*
Y26200D01*
X49900Y25300D02*
Y26200D01*
X51050D02*
X51800D01*
X51050Y25300D02*
X51800D01*
X49900D02*
X50650D01*
X49900Y26200D02*
X50650D01*
X20050Y41900D02*
X20950D01*
X20050Y43800D02*
X20950D01*
Y41900D02*
Y42650D01*
X20050Y41900D02*
Y42650D01*
Y43050D02*
Y43800D01*
X20950Y43050D02*
Y43800D01*
X17950Y31550D02*
Y32450D01*
X19850Y31550D02*
Y32450D01*
X17950Y31550D02*
X18700D01*
X17950Y32450D02*
X18700D01*
X19100D02*
X19850D01*
X19100Y31550D02*
X19850D01*
X51650Y3350D02*
Y4250D01*
X49750Y3350D02*
Y4250D01*
X50900D02*
X51650D01*
X50900Y3350D02*
X51650D01*
X49750D02*
X50500D01*
X49750Y4250D02*
X50500D01*
X55550Y24100D02*
Y25000D01*
X53650Y24100D02*
Y25000D01*
X54800D02*
X55550D01*
X54800Y24100D02*
X55550D01*
X53650D02*
X54400D01*
X53650Y25000D02*
X54400D01*
X41600Y26100D02*
Y27000D01*
X39700Y26100D02*
Y27000D01*
X40850D02*
X41600D01*
X40850Y26100D02*
X41600D01*
X39700D02*
X40450D01*
X39700Y27000D02*
X40450D01*
D17*
X34724Y15260D02*
X38676D01*
Y17512D01*
X34724D02*
X38676D01*
X34724Y15260D02*
Y17512D01*
X20124Y15760D02*
Y18012D01*
X27076D01*
Y15760D02*
Y18012D01*
X20124Y15760D02*
X27076D01*
D18*
X4656Y36112D02*
D03*
M02*
