G04*
G04 #@! TF.GenerationSoftware,Altium Limited,Altium Designer,21.3.2 (30)*
G04*
G04 Layer_Physical_Order=2*
G04 Layer_Color=16711680*
%FSLAX25Y25*%
%MOIN*%
G70*
G04*
G04 #@! TF.SameCoordinates,10CE30CE-E8E0-4787-B949-24FF183F481C*
G04*
G04*
G04 #@! TF.FilePolarity,Positive*
G04*
G01*
G75*
%ADD80C,0.12992*%
%ADD91C,0.02000*%
%ADD95C,0.11000*%
%ADD96C,0.05906*%
%ADD97R,0.05906X0.05906*%
%ADD98C,0.07600*%
%ADD99C,0.05984*%
%ADD100R,0.05984X0.05984*%
%ADD101O,0.18701X0.09252*%
%ADD102O,0.09252X0.18701*%
%ADD103C,0.06900*%
%ADD104C,0.07874*%
%ADD105R,0.05984X0.05984*%
%ADD106R,0.05906X0.05906*%
%ADD107C,0.06500*%
%ADD108P,0.07036X8X22.5*%
%ADD109C,0.12000*%
%ADD110R,0.09843X0.07874*%
%ADD111C,0.06299*%
%ADD112R,0.06299X0.06299*%
%ADD113C,0.03000*%
G36*
X630000Y490146D02*
Y1500D01*
X629000Y500D01*
X25500D01*
Y487500D01*
X27500Y489500D01*
X629646Y490499D01*
X630000Y490146D01*
D02*
G37*
%LPC*%
G36*
X522520Y481453D02*
X521480D01*
X520474Y481183D01*
X519573Y480663D01*
X518837Y479927D01*
X518317Y479026D01*
X518047Y478020D01*
Y476980D01*
X518317Y475974D01*
X518837Y475073D01*
X519573Y474337D01*
X520474Y473817D01*
X521480Y473547D01*
X522520D01*
X523526Y473817D01*
X524427Y474337D01*
X525163Y475073D01*
X525683Y475974D01*
X525953Y476980D01*
Y478020D01*
X525683Y479026D01*
X525163Y479927D01*
X524427Y480663D01*
X523526Y481183D01*
X522520Y481453D01*
D02*
G37*
G36*
X512520D02*
X511480D01*
X510474Y481183D01*
X509573Y480663D01*
X508837Y479927D01*
X508317Y479026D01*
X508047Y478020D01*
Y476980D01*
X508317Y475974D01*
X508837Y475073D01*
X509573Y474337D01*
X510474Y473817D01*
X511480Y473547D01*
X512520D01*
X513526Y473817D01*
X514427Y474337D01*
X515163Y475073D01*
X515683Y475974D01*
X515953Y476980D01*
Y478020D01*
X515683Y479026D01*
X515163Y479927D01*
X514427Y480663D01*
X513526Y481183D01*
X512520Y481453D01*
D02*
G37*
G36*
X502520D02*
X501480D01*
X500474Y481183D01*
X499573Y480663D01*
X498837Y479927D01*
X498317Y479026D01*
X498047Y478020D01*
Y476980D01*
X498317Y475974D01*
X498837Y475073D01*
X499573Y474337D01*
X500474Y473817D01*
X501480Y473547D01*
X502520D01*
X503526Y473817D01*
X504427Y474337D01*
X505163Y475073D01*
X505683Y475974D01*
X505953Y476980D01*
Y478020D01*
X505683Y479026D01*
X505163Y479927D01*
X504427Y480663D01*
X503526Y481183D01*
X502520Y481453D01*
D02*
G37*
G36*
X492520D02*
X491480D01*
X490474Y481183D01*
X489573Y480663D01*
X488837Y479927D01*
X488317Y479026D01*
X488047Y478020D01*
Y476980D01*
X488317Y475974D01*
X488837Y475073D01*
X489573Y474337D01*
X490474Y473817D01*
X491480Y473547D01*
X492520D01*
X493526Y473817D01*
X494427Y474337D01*
X495163Y475073D01*
X495683Y475974D01*
X495953Y476980D01*
Y478020D01*
X495683Y479026D01*
X495163Y479927D01*
X494427Y480663D01*
X493526Y481183D01*
X492520Y481453D01*
D02*
G37*
G36*
X482520D02*
X481480D01*
X480474Y481183D01*
X479573Y480663D01*
X478837Y479927D01*
X478317Y479026D01*
X478047Y478020D01*
Y476980D01*
X478317Y475974D01*
X478837Y475073D01*
X479573Y474337D01*
X480474Y473817D01*
X481480Y473547D01*
X482520D01*
X483526Y473817D01*
X484427Y474337D01*
X485163Y475073D01*
X485683Y475974D01*
X485953Y476980D01*
Y478020D01*
X485683Y479026D01*
X485163Y479927D01*
X484427Y480663D01*
X483526Y481183D01*
X482520Y481453D01*
D02*
G37*
G36*
X472520D02*
X471480D01*
X470474Y481183D01*
X469573Y480663D01*
X468837Y479927D01*
X468317Y479026D01*
X468047Y478020D01*
Y476980D01*
X468317Y475974D01*
X468837Y475073D01*
X469573Y474337D01*
X470474Y473817D01*
X471480Y473547D01*
X472520D01*
X473526Y473817D01*
X474427Y474337D01*
X475163Y475073D01*
X475683Y475974D01*
X475953Y476980D01*
Y478020D01*
X475683Y479026D01*
X475163Y479927D01*
X474427Y480663D01*
X473526Y481183D01*
X472520Y481453D01*
D02*
G37*
G36*
X462520D02*
X461480D01*
X460474Y481183D01*
X459573Y480663D01*
X458837Y479927D01*
X458317Y479026D01*
X458047Y478020D01*
Y476980D01*
X458317Y475974D01*
X458837Y475073D01*
X459573Y474337D01*
X460474Y473817D01*
X461480Y473547D01*
X462520D01*
X463526Y473817D01*
X464427Y474337D01*
X465163Y475073D01*
X465683Y475974D01*
X465953Y476980D01*
Y478020D01*
X465683Y479026D01*
X465163Y479927D01*
X464427Y480663D01*
X463526Y481183D01*
X462520Y481453D01*
D02*
G37*
G36*
X455953D02*
X448047D01*
Y473547D01*
X455953D01*
Y481453D01*
D02*
G37*
G36*
X131140Y483500D02*
X129860D01*
X128604Y483250D01*
X127421Y482760D01*
X126356Y482049D01*
X125451Y481144D01*
X124740Y480079D01*
X124250Y478896D01*
X124000Y477640D01*
Y476360D01*
X124250Y475104D01*
X124740Y473921D01*
X125451Y472857D01*
X126356Y471951D01*
X127421Y471240D01*
X128604Y470750D01*
X129860Y470500D01*
X131140D01*
X132396Y470750D01*
X133579Y471240D01*
X134643Y471951D01*
X135549Y472857D01*
X136260Y473921D01*
X136750Y475104D01*
X137000Y476360D01*
Y477640D01*
X136750Y478896D01*
X136260Y480079D01*
X135549Y481144D01*
X134643Y482049D01*
X133579Y482760D01*
X132396Y483250D01*
X131140Y483500D01*
D02*
G37*
G36*
X111140D02*
X109860D01*
X108604Y483250D01*
X107421Y482760D01*
X106357Y482049D01*
X105451Y481144D01*
X104740Y480079D01*
X104250Y478896D01*
X104000Y477640D01*
Y476360D01*
X104250Y475104D01*
X104740Y473921D01*
X105451Y472857D01*
X106357Y471951D01*
X107421Y471240D01*
X108604Y470750D01*
X109860Y470500D01*
X111140D01*
X112396Y470750D01*
X113579Y471240D01*
X114644Y471951D01*
X115549Y472857D01*
X116260Y473921D01*
X116750Y475104D01*
X117000Y476360D01*
Y477640D01*
X116750Y478896D01*
X116260Y480079D01*
X115549Y481144D01*
X114644Y482049D01*
X113579Y482760D01*
X112396Y483250D01*
X111140Y483500D01*
D02*
G37*
G36*
X91140D02*
X89860D01*
X88604Y483250D01*
X87421Y482760D01*
X86357Y482049D01*
X85451Y481144D01*
X84740Y480079D01*
X84250Y478896D01*
X84000Y477640D01*
Y476360D01*
X84250Y475104D01*
X84740Y473921D01*
X85451Y472857D01*
X86357Y471951D01*
X87421Y471240D01*
X88604Y470750D01*
X89860Y470500D01*
X91140D01*
X92396Y470750D01*
X93579Y471240D01*
X94643Y471951D01*
X95549Y472857D01*
X96260Y473921D01*
X96750Y475104D01*
X97000Y476360D01*
Y477640D01*
X96750Y478896D01*
X96260Y480079D01*
X95549Y481144D01*
X94643Y482049D01*
X93579Y482760D01*
X92396Y483250D01*
X91140Y483500D01*
D02*
G37*
G36*
X61724Y470175D02*
X52276D01*
X50807Y469981D01*
X49438Y469414D01*
X48263Y468512D01*
X47361Y467337D01*
X46794Y465969D01*
X46601Y464500D01*
X46794Y463031D01*
X47361Y461663D01*
X48263Y460488D01*
X49438Y459586D01*
X50807Y459019D01*
X52276Y458825D01*
X61724D01*
X63193Y459019D01*
X64562Y459586D01*
X65737Y460488D01*
X66639Y461663D01*
X67206Y463031D01*
X67399Y464500D01*
X67206Y465969D01*
X66639Y467337D01*
X65737Y468512D01*
X64562Y469414D01*
X63193Y469981D01*
X61724Y470175D01*
D02*
G37*
G36*
X38100Y462099D02*
X36631Y461906D01*
X35263Y461339D01*
X34087Y460437D01*
X33186Y459262D01*
X32619Y457893D01*
X32425Y456424D01*
Y446976D01*
X32619Y445507D01*
X33186Y444138D01*
X34087Y442963D01*
X35263Y442061D01*
X36631Y441494D01*
X38100Y441301D01*
X39569Y441494D01*
X40937Y442061D01*
X42112Y442963D01*
X43014Y444138D01*
X43581Y445507D01*
X43775Y446976D01*
Y456424D01*
X43581Y457893D01*
X43014Y459262D01*
X42112Y460437D01*
X40937Y461339D01*
X39569Y461906D01*
X38100Y462099D01*
D02*
G37*
G36*
X416520Y442953D02*
X415480D01*
X414474Y442683D01*
X413573Y442163D01*
X412837Y441427D01*
X412317Y440526D01*
X412047Y439520D01*
Y438480D01*
X412317Y437474D01*
X412837Y436573D01*
X413573Y435837D01*
X414474Y435317D01*
X415480Y435047D01*
X416520D01*
X417526Y435317D01*
X418427Y435837D01*
X419163Y436573D01*
X419683Y437474D01*
X419953Y438480D01*
Y439520D01*
X419683Y440526D01*
X419163Y441427D01*
X418427Y442163D01*
X417526Y442683D01*
X416520Y442953D01*
D02*
G37*
G36*
X409953D02*
X402047D01*
Y435047D01*
X409953D01*
Y442953D01*
D02*
G37*
G36*
X61724Y445575D02*
X52276D01*
X50807Y445381D01*
X49438Y444814D01*
X48263Y443913D01*
X47361Y442737D01*
X46794Y441369D01*
X46601Y439900D01*
X46794Y438431D01*
X47361Y437063D01*
X48263Y435887D01*
X49438Y434986D01*
X50807Y434419D01*
X52276Y434226D01*
X61724D01*
X63193Y434419D01*
X64562Y434986D01*
X65737Y435887D01*
X66639Y437063D01*
X67206Y438431D01*
X67399Y439900D01*
X67206Y441369D01*
X66639Y442737D01*
X65737Y443913D01*
X64562Y444814D01*
X63193Y445381D01*
X61724Y445575D01*
D02*
G37*
G36*
X416520Y432953D02*
X415480D01*
X414474Y432683D01*
X413573Y432163D01*
X412837Y431427D01*
X412317Y430526D01*
X412047Y429520D01*
Y428480D01*
X412317Y427474D01*
X412837Y426573D01*
X412956Y426454D01*
X412765Y425992D01*
X409235D01*
X409044Y426454D01*
X409163Y426573D01*
X409683Y427474D01*
X409953Y428480D01*
Y429520D01*
X409683Y430526D01*
X409163Y431427D01*
X408427Y432163D01*
X407526Y432683D01*
X406520Y432953D01*
X405480D01*
X404474Y432683D01*
X403573Y432163D01*
X402837Y431427D01*
X402613Y431039D01*
X399000D01*
X398220Y430884D01*
X397558Y430442D01*
X394058Y426942D01*
X393616Y426280D01*
X393461Y425500D01*
Y415845D01*
X392886Y415270D01*
X392444Y414609D01*
X392289Y413828D01*
Y413016D01*
X391058Y411785D01*
X390616Y411124D01*
X390461Y410343D01*
Y377345D01*
X347953Y334837D01*
X347520Y334953D01*
X346480D01*
X345474Y334683D01*
X344573Y334163D01*
X343837Y333427D01*
X343317Y332526D01*
X343047Y331520D01*
Y330480D01*
X343317Y329474D01*
X343837Y328573D01*
X344573Y327837D01*
X345474Y327317D01*
X346480Y327047D01*
X347520D01*
X348526Y327317D01*
X349427Y327837D01*
X350163Y328573D01*
X350683Y329474D01*
X350953Y330480D01*
Y331520D01*
X350837Y331953D01*
X393942Y375058D01*
X394384Y375720D01*
X394539Y376500D01*
Y408424D01*
X395001Y408615D01*
X408077Y395539D01*
X407870Y395039D01*
X401500D01*
X400720Y394884D01*
X400058Y394442D01*
X399616Y393780D01*
X399461Y393000D01*
X399511Y392750D01*
X399461Y392500D01*
Y376345D01*
X357953Y334837D01*
X357520Y334953D01*
X356480D01*
X355474Y334683D01*
X354573Y334163D01*
X353837Y333427D01*
X353317Y332526D01*
X353047Y331520D01*
Y330480D01*
X353317Y329474D01*
X353837Y328573D01*
X354573Y327837D01*
X355474Y327317D01*
X356480Y327047D01*
X357520D01*
X358526Y327317D01*
X359427Y327837D01*
X360163Y328573D01*
X360683Y329474D01*
X360953Y330480D01*
Y331520D01*
X360837Y331953D01*
X402942Y374058D01*
X403384Y374720D01*
X403539Y375500D01*
Y387718D01*
X404039Y387925D01*
X404584Y387381D01*
X405503Y387000D01*
X406497D01*
X407416Y387381D01*
X407496Y387461D01*
X423450D01*
X424230Y387616D01*
X424892Y388058D01*
X429999Y393165D01*
X430461Y392974D01*
Y367845D01*
X397559Y334943D01*
X397520Y334953D01*
X396480D01*
X395474Y334683D01*
X394573Y334163D01*
X393837Y333427D01*
X393317Y332526D01*
X393047Y331520D01*
Y330480D01*
X393317Y329474D01*
X393837Y328573D01*
X394573Y327837D01*
X395474Y327317D01*
X396480Y327047D01*
X397520D01*
X398526Y327317D01*
X399427Y327837D01*
X400163Y328573D01*
X400683Y329474D01*
X400953Y330480D01*
Y331520D01*
X400731Y332347D01*
X433942Y365558D01*
X434384Y366220D01*
X434539Y367000D01*
Y420450D01*
X434384Y421230D01*
X433942Y421892D01*
X425392Y430442D01*
X424730Y430884D01*
X423950Y431039D01*
X419387D01*
X419163Y431427D01*
X418427Y432163D01*
X417526Y432683D01*
X416520Y432953D01*
D02*
G37*
G36*
X137086Y411450D02*
X135914D01*
X134782Y411147D01*
X133768Y410561D01*
X132939Y409732D01*
X132353Y408718D01*
X132050Y407586D01*
Y406414D01*
X132353Y405282D01*
X132939Y404268D01*
X133768Y403439D01*
X134782Y402853D01*
X135914Y402550D01*
X137086D01*
X138218Y402853D01*
X139232Y403439D01*
X140061Y404268D01*
X140647Y405282D01*
X140950Y406414D01*
Y407586D01*
X140647Y408718D01*
X140061Y409732D01*
X139232Y410561D01*
X138218Y411147D01*
X137086Y411450D01*
D02*
G37*
G36*
Y396450D02*
X135914D01*
X134782Y396147D01*
X133768Y395561D01*
X132939Y394732D01*
X132353Y393718D01*
X132050Y392586D01*
Y391414D01*
X132353Y390282D01*
X132939Y389268D01*
X133768Y388439D01*
X134782Y387853D01*
X135914Y387550D01*
X137086D01*
X138218Y387853D01*
X139232Y388439D01*
X140061Y389268D01*
X140647Y390282D01*
X140950Y391414D01*
Y392586D01*
X140647Y393718D01*
X140061Y394732D01*
X139232Y395561D01*
X138218Y396147D01*
X137086Y396450D01*
D02*
G37*
G36*
X598526Y387992D02*
X597474D01*
X596459Y387720D01*
X595549Y387194D01*
X594805Y386451D01*
X594280Y385541D01*
X594008Y384526D01*
Y383474D01*
X594280Y382459D01*
X594805Y381549D01*
X595549Y380805D01*
X596459Y380280D01*
X597474Y380008D01*
X598526D01*
X599541Y380280D01*
X600451Y380805D01*
X601194Y381549D01*
X601720Y382459D01*
X601992Y383474D01*
Y384526D01*
X601720Y385541D01*
X601194Y386451D01*
X600451Y387194D01*
X599541Y387720D01*
X598526Y387992D01*
D02*
G37*
G36*
X588526D02*
X587474D01*
X586459Y387720D01*
X585549Y387194D01*
X584805Y386451D01*
X584280Y385541D01*
X584008Y384526D01*
Y383474D01*
X584280Y382459D01*
X584805Y381549D01*
X585549Y380805D01*
X586459Y380280D01*
X587474Y380008D01*
X588526D01*
X589541Y380280D01*
X590451Y380805D01*
X591194Y381549D01*
X591720Y382459D01*
X591992Y383474D01*
Y384526D01*
X591720Y385541D01*
X591194Y386451D01*
X590451Y387194D01*
X589541Y387720D01*
X588526Y387992D01*
D02*
G37*
G36*
X578526D02*
X577474D01*
X576459Y387720D01*
X575549Y387194D01*
X574805Y386451D01*
X574280Y385541D01*
X574008Y384526D01*
Y383474D01*
X574280Y382459D01*
X574805Y381549D01*
X575549Y380805D01*
X576459Y380280D01*
X577474Y380008D01*
X578526D01*
X579541Y380280D01*
X580451Y380805D01*
X581194Y381549D01*
X581720Y382459D01*
X581992Y383474D01*
Y384526D01*
X581720Y385541D01*
X581194Y386451D01*
X580451Y387194D01*
X579541Y387720D01*
X578526Y387992D01*
D02*
G37*
G36*
X568526D02*
X567474D01*
X566459Y387720D01*
X565549Y387194D01*
X564806Y386451D01*
X564280Y385541D01*
X564008Y384526D01*
Y383474D01*
X564280Y382459D01*
X564806Y381549D01*
X565549Y380805D01*
X566459Y380280D01*
X567474Y380008D01*
X568526D01*
X569541Y380280D01*
X570451Y380805D01*
X571195Y381549D01*
X571720Y382459D01*
X571992Y383474D01*
Y384526D01*
X571720Y385541D01*
X571195Y386451D01*
X570451Y387194D01*
X569541Y387720D01*
X568526Y387992D01*
D02*
G37*
G36*
X561992D02*
X554008D01*
Y380008D01*
X561992D01*
Y387992D01*
D02*
G37*
G36*
X525953Y373953D02*
X518047D01*
Y366047D01*
X525953D01*
Y373953D01*
D02*
G37*
G36*
X512520D02*
X511480D01*
X510474Y373683D01*
X509573Y373163D01*
X508837Y372427D01*
X508317Y371526D01*
X508047Y370520D01*
Y369480D01*
X508317Y368474D01*
X508837Y367573D01*
X509573Y366837D01*
X510474Y366317D01*
X511480Y366047D01*
X512520D01*
X513526Y366317D01*
X514427Y366837D01*
X515163Y367573D01*
X515683Y368474D01*
X515953Y369480D01*
Y370520D01*
X515683Y371526D01*
X515163Y372427D01*
X514427Y373163D01*
X513526Y373683D01*
X512520Y373953D01*
D02*
G37*
G36*
X502520D02*
X501480D01*
X500474Y373683D01*
X499573Y373163D01*
X498837Y372427D01*
X498317Y371526D01*
X498047Y370520D01*
Y369480D01*
X498317Y368474D01*
X498837Y367573D01*
X499573Y366837D01*
X500474Y366317D01*
X501480Y366047D01*
X502520D01*
X503526Y366317D01*
X504427Y366837D01*
X505163Y367573D01*
X505683Y368474D01*
X505953Y369480D01*
Y370520D01*
X505683Y371526D01*
X505163Y372427D01*
X504427Y373163D01*
X503526Y373683D01*
X502520Y373953D01*
D02*
G37*
G36*
X492520D02*
X491480D01*
X490474Y373683D01*
X489573Y373163D01*
X488837Y372427D01*
X488317Y371526D01*
X488047Y370520D01*
Y369480D01*
X488317Y368474D01*
X488837Y367573D01*
X489573Y366837D01*
X490474Y366317D01*
X491480Y366047D01*
X492520D01*
X493526Y366317D01*
X494427Y366837D01*
X495163Y367573D01*
X495683Y368474D01*
X495953Y369480D01*
Y370520D01*
X495683Y371526D01*
X495163Y372427D01*
X494427Y373163D01*
X493526Y373683D01*
X492520Y373953D01*
D02*
G37*
G36*
X482520D02*
X481480D01*
X480474Y373683D01*
X479573Y373163D01*
X478837Y372427D01*
X478317Y371526D01*
X478047Y370520D01*
Y369480D01*
X478317Y368474D01*
X478837Y367573D01*
X479573Y366837D01*
X480474Y366317D01*
X481480Y366047D01*
X482520D01*
X483526Y366317D01*
X484427Y366837D01*
X485163Y367573D01*
X485683Y368474D01*
X485953Y369480D01*
Y370520D01*
X485683Y371526D01*
X485163Y372427D01*
X484427Y373163D01*
X483526Y373683D01*
X482520Y373953D01*
D02*
G37*
G36*
X472520D02*
X471480D01*
X470474Y373683D01*
X469573Y373163D01*
X468837Y372427D01*
X468317Y371526D01*
X468047Y370520D01*
Y369480D01*
X468317Y368474D01*
X468837Y367573D01*
X469573Y366837D01*
X470474Y366317D01*
X471480Y366047D01*
X472520D01*
X473526Y366317D01*
X474427Y366837D01*
X475163Y367573D01*
X475683Y368474D01*
X475953Y369480D01*
Y370520D01*
X475683Y371526D01*
X475163Y372427D01*
X474427Y373163D01*
X473526Y373683D01*
X472520Y373953D01*
D02*
G37*
G36*
X462520D02*
X461480D01*
X460474Y373683D01*
X459573Y373163D01*
X458837Y372427D01*
X458317Y371526D01*
X458047Y370520D01*
Y369480D01*
X458317Y368474D01*
X458837Y367573D01*
X459573Y366837D01*
X460474Y366317D01*
X461480Y366047D01*
X462520D01*
X463526Y366317D01*
X464427Y366837D01*
X465163Y367573D01*
X465683Y368474D01*
X465953Y369480D01*
Y370520D01*
X465683Y371526D01*
X465163Y372427D01*
X464427Y373163D01*
X463526Y373683D01*
X462520Y373953D01*
D02*
G37*
G36*
X452520D02*
X451480D01*
X450474Y373683D01*
X449573Y373163D01*
X448837Y372427D01*
X448317Y371526D01*
X448047Y370520D01*
Y369480D01*
X448317Y368474D01*
X448837Y367573D01*
X449573Y366837D01*
X450474Y366317D01*
X451480Y366047D01*
X452520D01*
X453526Y366317D01*
X454427Y366837D01*
X455163Y367573D01*
X455683Y368474D01*
X455953Y369480D01*
Y370520D01*
X455683Y371526D01*
X455163Y372427D01*
X454427Y373163D01*
X453526Y373683D01*
X452520Y373953D01*
D02*
G37*
G36*
X387520Y334953D02*
X386480D01*
X385474Y334683D01*
X384573Y334163D01*
X383837Y333427D01*
X383317Y332526D01*
X383047Y331520D01*
Y330480D01*
X383317Y329474D01*
X383837Y328573D01*
X384573Y327837D01*
X385474Y327317D01*
X386480Y327047D01*
X387520D01*
X388526Y327317D01*
X389427Y327837D01*
X390163Y328573D01*
X390683Y329474D01*
X390953Y330480D01*
Y331520D01*
X390683Y332526D01*
X390163Y333427D01*
X389427Y334163D01*
X388526Y334683D01*
X387520Y334953D01*
D02*
G37*
G36*
X377520D02*
X376480D01*
X375474Y334683D01*
X374573Y334163D01*
X373837Y333427D01*
X373317Y332526D01*
X373047Y331520D01*
Y330480D01*
X373317Y329474D01*
X373837Y328573D01*
X374573Y327837D01*
X375474Y327317D01*
X376480Y327047D01*
X377520D01*
X378526Y327317D01*
X379427Y327837D01*
X380163Y328573D01*
X380683Y329474D01*
X380953Y330480D01*
Y331520D01*
X380683Y332526D01*
X380163Y333427D01*
X379427Y334163D01*
X378526Y334683D01*
X377520Y334953D01*
D02*
G37*
G36*
X367520D02*
X366480D01*
X365474Y334683D01*
X364573Y334163D01*
X363837Y333427D01*
X363317Y332526D01*
X363047Y331520D01*
Y330480D01*
X363317Y329474D01*
X363837Y328573D01*
X364573Y327837D01*
X365474Y327317D01*
X366480Y327047D01*
X367520D01*
X368526Y327317D01*
X369427Y327837D01*
X370163Y328573D01*
X370683Y329474D01*
X370953Y330480D01*
Y331520D01*
X370683Y332526D01*
X370163Y333427D01*
X369427Y334163D01*
X368526Y334683D01*
X367520Y334953D01*
D02*
G37*
G36*
X307520D02*
X306480D01*
X305474Y334683D01*
X304573Y334163D01*
X303837Y333427D01*
X303317Y332526D01*
X303047Y331520D01*
Y330480D01*
X303317Y329474D01*
X303837Y328573D01*
X304573Y327837D01*
X305474Y327317D01*
X306480Y327047D01*
X307520D01*
X308526Y327317D01*
X309427Y327837D01*
X310163Y328573D01*
X310683Y329474D01*
X310953Y330480D01*
Y331520D01*
X310683Y332526D01*
X310163Y333427D01*
X309427Y334163D01*
X308526Y334683D01*
X307520Y334953D01*
D02*
G37*
G36*
X297520D02*
X296480D01*
X295474Y334683D01*
X294573Y334163D01*
X293837Y333427D01*
X293317Y332526D01*
X293047Y331520D01*
Y330480D01*
X293317Y329474D01*
X293837Y328573D01*
X294573Y327837D01*
X295474Y327317D01*
X296480Y327047D01*
X297520D01*
X298526Y327317D01*
X299427Y327837D01*
X300163Y328573D01*
X300683Y329474D01*
X300953Y330480D01*
Y331520D01*
X300683Y332526D01*
X300163Y333427D01*
X299427Y334163D01*
X298526Y334683D01*
X297520Y334953D01*
D02*
G37*
G36*
X290953D02*
X283047D01*
Y327047D01*
X290953D01*
Y334953D01*
D02*
G37*
G36*
X557492Y333492D02*
X549508D01*
Y325508D01*
X557492D01*
Y333492D01*
D02*
G37*
G36*
X276997Y381000D02*
X276003D01*
X275084Y380619D01*
X274381Y379916D01*
X274000Y378997D01*
Y378003D01*
X274381Y377084D01*
X275084Y376381D01*
X276003Y376000D01*
X276116D01*
X316702Y335415D01*
X316510Y334953D01*
X316480D01*
X315474Y334683D01*
X314573Y334163D01*
X313837Y333427D01*
X313317Y332526D01*
X313047Y331520D01*
Y330480D01*
X313317Y329474D01*
X313837Y328573D01*
X314573Y327837D01*
X315474Y327317D01*
X316480Y327047D01*
X317520D01*
X318526Y327317D01*
X319427Y327837D01*
X320163Y328573D01*
X320683Y329474D01*
X320953Y330480D01*
Y331520D01*
X320683Y332526D01*
X320163Y333427D01*
X320138Y333452D01*
X320330Y333914D01*
X323670D01*
X323862Y333452D01*
X323837Y333427D01*
X323317Y332526D01*
X323047Y331520D01*
Y330480D01*
X323269Y329653D01*
X314155Y320539D01*
X276845D01*
X265942Y331442D01*
X265280Y331884D01*
X264500Y332039D01*
X248000D01*
X248000Y332039D01*
X247220Y331884D01*
X246558Y331442D01*
X233116Y318000D01*
X233003D01*
X232084Y317619D01*
X231381Y316916D01*
X231000Y315997D01*
Y315003D01*
X231381Y314084D01*
X232084Y313381D01*
X233003Y313000D01*
X233997D01*
X234916Y313381D01*
X235619Y314084D01*
X236000Y315003D01*
Y315116D01*
X248845Y327961D01*
X263655D01*
X274558Y317058D01*
X275220Y316616D01*
X276000Y316461D01*
X276000Y316461D01*
X315000D01*
X315780Y316616D01*
X316442Y317058D01*
X326441Y327058D01*
X326480Y327047D01*
X327326D01*
X327600Y326917D01*
X327791Y326602D01*
Y325169D01*
X327947Y324389D01*
X328389Y323727D01*
X343058Y309058D01*
X343058Y309058D01*
X343720Y308616D01*
X344500Y308461D01*
X344500Y308461D01*
X395579D01*
X396535Y307505D01*
X396343Y307043D01*
X395960D01*
X394705Y306707D01*
X393579Y306057D01*
X392660Y305138D01*
X392010Y304012D01*
X391939Y303748D01*
X391439D01*
X391368Y304012D01*
X390718Y305138D01*
X389799Y306057D01*
X388673Y306707D01*
X387418Y307043D01*
X386118D01*
X384862Y306707D01*
X383736Y306057D01*
X382817Y305138D01*
X382167Y304012D01*
X382097Y303748D01*
X381596D01*
X381526Y304012D01*
X380876Y305138D01*
X379957Y306057D01*
X378831Y306707D01*
X377575Y307043D01*
X376275D01*
X375020Y306707D01*
X373894Y306057D01*
X372975Y305138D01*
X372325Y304012D01*
X372254Y303748D01*
X371754D01*
X371683Y304012D01*
X371033Y305138D01*
X370114Y306057D01*
X368988Y306707D01*
X367733Y307043D01*
X366433D01*
X365177Y306707D01*
X364051Y306057D01*
X363132Y305138D01*
X362482Y304012D01*
X362411Y303748D01*
X361911D01*
X361841Y304012D01*
X361191Y305138D01*
X360272Y306057D01*
X359146Y306707D01*
X357890Y307043D01*
X356590D01*
X355334Y306707D01*
X354209Y306057D01*
X353290Y305138D01*
X352640Y304012D01*
X352569Y303748D01*
X352069D01*
X351998Y304012D01*
X351348Y305138D01*
X350429Y306057D01*
X349303Y306707D01*
X348048Y307043D01*
X346748D01*
X345492Y306707D01*
X344366Y306057D01*
X343447Y305138D01*
X342797Y304012D01*
X342726Y303748D01*
X342226D01*
X342156Y304012D01*
X341506Y305138D01*
X340586Y306057D01*
X339461Y306707D01*
X338205Y307043D01*
X336905D01*
X335649Y306707D01*
X334524Y306057D01*
X333605Y305138D01*
X332955Y304012D01*
X332884Y303748D01*
X332384D01*
X332313Y304012D01*
X331663Y305138D01*
X330744Y306057D01*
X329618Y306707D01*
X328363Y307043D01*
X327063D01*
X325807Y306707D01*
X324681Y306057D01*
X323762Y305138D01*
X323112Y304012D01*
X323041Y303748D01*
X322541D01*
X322471Y304012D01*
X321821Y305138D01*
X320901Y306057D01*
X319776Y306707D01*
X318520Y307043D01*
X317220D01*
X315965Y306707D01*
X314839Y306057D01*
X313919Y305138D01*
X313269Y304012D01*
X313199Y303748D01*
X312699D01*
X312628Y304012D01*
X311978Y305138D01*
X311059Y306057D01*
X309933Y306707D01*
X308678Y307043D01*
X307378D01*
X306122Y306707D01*
X304996Y306057D01*
X304077Y305138D01*
X303427Y304012D01*
X303356Y303748D01*
X302856D01*
X302786Y304012D01*
X302136Y305138D01*
X301216Y306057D01*
X300091Y306707D01*
X298835Y307043D01*
X297535D01*
X296279Y306707D01*
X295154Y306057D01*
X294234Y305138D01*
X293584Y304012D01*
X293514Y303748D01*
X293014D01*
X292943Y304012D01*
X292293Y305138D01*
X291374Y306057D01*
X290248Y306707D01*
X288993Y307043D01*
X287692D01*
X286437Y306707D01*
X285311Y306057D01*
X284392Y305138D01*
X283742Y304012D01*
X283405Y302756D01*
Y301456D01*
X283742Y300201D01*
X284392Y299075D01*
X285311Y298156D01*
X286437Y297506D01*
X287692Y297169D01*
X288993D01*
X290248Y297506D01*
X291374Y298156D01*
X292293Y299075D01*
X292943Y300201D01*
X293014Y300465D01*
X293514D01*
X293584Y300201D01*
X294234Y299075D01*
X295154Y298156D01*
X296279Y297506D01*
X297535Y297169D01*
X298835D01*
X300091Y297506D01*
X301216Y298156D01*
X302136Y299075D01*
X302786Y300201D01*
X302856Y300465D01*
X303356D01*
X303427Y300201D01*
X304077Y299075D01*
X304996Y298156D01*
X306122Y297506D01*
X307378Y297169D01*
X308678D01*
X309933Y297506D01*
X311059Y298156D01*
X311978Y299075D01*
X312628Y300201D01*
X312699Y300465D01*
X313199D01*
X313269Y300201D01*
X313919Y299075D01*
X314839Y298156D01*
X315965Y297506D01*
X317220Y297169D01*
X318520D01*
X319776Y297506D01*
X320901Y298156D01*
X321821Y299075D01*
X322471Y300201D01*
X322541Y300465D01*
X323041D01*
X323112Y300201D01*
X323762Y299075D01*
X324681Y298156D01*
X325807Y297506D01*
X327063Y297169D01*
X328363D01*
X329618Y297506D01*
X330744Y298156D01*
X331663Y299075D01*
X332313Y300201D01*
X332384Y300465D01*
X332884D01*
X332955Y300201D01*
X333605Y299075D01*
X334524Y298156D01*
X335649Y297506D01*
X336905Y297169D01*
X338205D01*
X339461Y297506D01*
X340586Y298156D01*
X341506Y299075D01*
X342156Y300201D01*
X342226Y300465D01*
X342726D01*
X342797Y300201D01*
X343447Y299075D01*
X344366Y298156D01*
X345492Y297506D01*
X346748Y297169D01*
X348048D01*
X349303Y297506D01*
X350429Y298156D01*
X351348Y299075D01*
X351998Y300201D01*
X352069Y300465D01*
X352569D01*
X352640Y300201D01*
X353290Y299075D01*
X354209Y298156D01*
X355334Y297506D01*
X356590Y297169D01*
X357890D01*
X359146Y297506D01*
X360272Y298156D01*
X361191Y299075D01*
X361841Y300201D01*
X361911Y300465D01*
X362411D01*
X362482Y300201D01*
X363132Y299075D01*
X364051Y298156D01*
X365177Y297506D01*
X366433Y297169D01*
X367733D01*
X368988Y297506D01*
X370114Y298156D01*
X371033Y299075D01*
X371683Y300201D01*
X371754Y300465D01*
X372254D01*
X372325Y300201D01*
X372975Y299075D01*
X373894Y298156D01*
X375020Y297506D01*
X376275Y297169D01*
X377575D01*
X378831Y297506D01*
X379957Y298156D01*
X380876Y299075D01*
X381526Y300201D01*
X381596Y300465D01*
X382097D01*
X382167Y300201D01*
X382817Y299075D01*
X383736Y298156D01*
X384862Y297506D01*
X386118Y297169D01*
X387418D01*
X388673Y297506D01*
X389799Y298156D01*
X390718Y299075D01*
X391368Y300201D01*
X391439Y300465D01*
X391939D01*
X392010Y300201D01*
X392660Y299075D01*
X393579Y298156D01*
X394705Y297506D01*
X394969Y297435D01*
Y296935D01*
X394705Y296864D01*
X393579Y296214D01*
X392660Y295295D01*
X392010Y294169D01*
X391673Y292914D01*
Y291614D01*
X392010Y290358D01*
X392660Y289232D01*
X393579Y288313D01*
X394705Y287663D01*
X394969Y287593D01*
Y287092D01*
X394705Y287022D01*
X393579Y286372D01*
X392660Y285453D01*
X392010Y284327D01*
X391673Y283071D01*
Y281771D01*
X391970Y280665D01*
X389231Y277926D01*
X388789Y277265D01*
X388634Y276484D01*
Y263752D01*
X388789Y262972D01*
X389231Y262310D01*
X400508Y251033D01*
Y246789D01*
X400046Y246597D01*
X399642Y247002D01*
X398516Y247652D01*
X397260Y247988D01*
X395960D01*
X394705Y247652D01*
X393579Y247002D01*
X392660Y246083D01*
X392010Y244957D01*
X391939Y244693D01*
X391439D01*
X391368Y244957D01*
X390718Y246083D01*
X389799Y247002D01*
X388673Y247652D01*
X387418Y247988D01*
X386118D01*
X384862Y247652D01*
X383736Y247002D01*
X382817Y246083D01*
X382167Y244957D01*
X382097Y244693D01*
X381596D01*
X381526Y244957D01*
X380876Y246083D01*
X379957Y247002D01*
X378831Y247652D01*
X377575Y247988D01*
X376275D01*
X375020Y247652D01*
X373894Y247002D01*
X372975Y246083D01*
X372325Y244957D01*
X372254Y244693D01*
X371754D01*
X371683Y244957D01*
X371033Y246083D01*
X370114Y247002D01*
X368988Y247652D01*
X367733Y247988D01*
X366433D01*
X365177Y247652D01*
X364051Y247002D01*
X363132Y246083D01*
X362482Y244957D01*
X362411Y244693D01*
X361911D01*
X361841Y244957D01*
X361191Y246083D01*
X360272Y247002D01*
X359146Y247652D01*
X357890Y247988D01*
X356590D01*
X355334Y247652D01*
X354209Y247002D01*
X353290Y246083D01*
X352640Y244957D01*
X352569Y244693D01*
X352069D01*
X351998Y244957D01*
X351348Y246083D01*
X350429Y247002D01*
X349303Y247652D01*
X348048Y247988D01*
X346748D01*
X345492Y247652D01*
X344366Y247002D01*
X343447Y246083D01*
X342797Y244957D01*
X342726Y244693D01*
X342226D01*
X342156Y244957D01*
X341506Y246083D01*
X340586Y247002D01*
X339461Y247652D01*
X338205Y247988D01*
X336905D01*
X335649Y247652D01*
X334524Y247002D01*
X333605Y246083D01*
X332955Y244957D01*
X332884Y244693D01*
X332384D01*
X332313Y244957D01*
X331663Y246083D01*
X330744Y247002D01*
X329618Y247652D01*
X328363Y247988D01*
X327063D01*
X325807Y247652D01*
X324681Y247002D01*
X323762Y246083D01*
X323112Y244957D01*
X323041Y244693D01*
X322541D01*
X322471Y244957D01*
X321821Y246083D01*
X320901Y247002D01*
X319776Y247652D01*
X318520Y247988D01*
X317220D01*
X315965Y247652D01*
X314839Y247002D01*
X313919Y246083D01*
X313269Y244957D01*
X313199Y244693D01*
X312699D01*
X312628Y244957D01*
X311978Y246083D01*
X311059Y247002D01*
X309933Y247652D01*
X308678Y247988D01*
X307378D01*
X306122Y247652D01*
X304996Y247002D01*
X304077Y246083D01*
X303427Y244957D01*
X303356Y244693D01*
X302856D01*
X302786Y244957D01*
X302136Y246083D01*
X301216Y247002D01*
X300091Y247652D01*
X298835Y247988D01*
X297535D01*
X296279Y247652D01*
X295154Y247002D01*
X294234Y246083D01*
X293584Y244957D01*
X293514Y244693D01*
X293014D01*
X292943Y244957D01*
X292293Y246083D01*
X291374Y247002D01*
X290248Y247652D01*
X288993Y247988D01*
X287692D01*
X286437Y247652D01*
X285311Y247002D01*
X284392Y246083D01*
X283742Y244957D01*
X283405Y243701D01*
Y242401D01*
X283742Y241146D01*
X284392Y240020D01*
X284796Y239615D01*
X284605Y239153D01*
X270730D01*
X266942Y242942D01*
X266280Y243384D01*
X265500Y243539D01*
X243432D01*
X243195Y243951D01*
X242451Y244694D01*
X241541Y245220D01*
X240526Y245492D01*
X239474D01*
X238940Y245349D01*
X238681Y245797D01*
X239955Y247071D01*
X240247Y247508D01*
X240526D01*
X241541Y247780D01*
X242451Y248306D01*
X243195Y249049D01*
X243720Y249959D01*
X243992Y250974D01*
Y252026D01*
X243720Y253041D01*
X243195Y253951D01*
X242451Y254695D01*
X241541Y255220D01*
X240526Y255492D01*
X239474D01*
X238459Y255220D01*
X237549Y254695D01*
X236806Y253951D01*
X236280Y253041D01*
X236008Y252026D01*
Y250974D01*
X236280Y249959D01*
X236571Y249455D01*
X201058Y213942D01*
X200616Y213280D01*
X200461Y212500D01*
Y185845D01*
X183116Y168500D01*
X183003D01*
X182084Y168119D01*
X181381Y167416D01*
X181000Y166497D01*
Y165503D01*
X181381Y164584D01*
X182084Y163881D01*
X183003Y163500D01*
X183997D01*
X184916Y163881D01*
X185619Y164584D01*
X186000Y165503D01*
Y165616D01*
X203942Y183558D01*
X204384Y184220D01*
X204539Y185000D01*
Y211655D01*
X235703Y242819D01*
X236151Y242560D01*
X236008Y242026D01*
Y240974D01*
X236131Y240515D01*
X206058Y210442D01*
X205616Y209780D01*
X205461Y209000D01*
Y147345D01*
X197155Y139039D01*
X180000D01*
X179220Y138884D01*
X178645Y138500D01*
X178503D01*
X177584Y138119D01*
X176881Y137416D01*
X176500Y136497D01*
Y135503D01*
X176881Y134584D01*
X177584Y133881D01*
X178503Y133500D01*
X179497D01*
X180416Y133881D01*
X181119Y134584D01*
X181275Y134961D01*
X198000D01*
X198780Y135116D01*
X199442Y135558D01*
X208942Y145058D01*
X209384Y145720D01*
X209499Y146298D01*
X210021Y146443D01*
X210584Y145881D01*
X211503Y145500D01*
X212497D01*
X213416Y145881D01*
X214119Y146584D01*
X214500Y147503D01*
Y148497D01*
X214119Y149416D01*
X214039Y149496D01*
Y202589D01*
X235911Y224461D01*
X262000D01*
X262780Y224616D01*
X263442Y225058D01*
X267192Y228808D01*
X267634Y229470D01*
X267704Y229820D01*
X269959Y232075D01*
X396069D01*
X396850Y232230D01*
X397511Y232672D01*
X403989Y239150D01*
X404431Y239812D01*
X404586Y240592D01*
Y251878D01*
X404431Y252658D01*
X403989Y253320D01*
X392712Y264597D01*
Y268841D01*
X393174Y269033D01*
X393579Y268628D01*
X394705Y267978D01*
X395960Y267642D01*
X397260D01*
X398516Y267978D01*
X399642Y268628D01*
X400561Y269547D01*
X401211Y270673D01*
X401547Y271929D01*
Y273229D01*
X401211Y274484D01*
X400561Y275610D01*
X399642Y276529D01*
X398516Y277179D01*
X398252Y277250D01*
Y277750D01*
X398516Y277821D01*
X399642Y278471D01*
X400561Y279390D01*
X401211Y280516D01*
X401547Y281771D01*
Y283071D01*
X401211Y284327D01*
X400561Y285453D01*
X399642Y286372D01*
X398516Y287022D01*
X398252Y287092D01*
Y287593D01*
X398516Y287663D01*
X399642Y288313D01*
X400561Y289232D01*
X401211Y290358D01*
X401547Y291614D01*
Y292914D01*
X401361Y293609D01*
X404879Y297126D01*
X404879Y297127D01*
X405321Y297788D01*
X405476Y298568D01*
X405476Y298568D01*
Y303487D01*
X405321Y304267D01*
X404879Y304929D01*
X404879Y304929D01*
X404370Y305438D01*
X403989Y306007D01*
X400511Y309485D01*
X399942Y309866D01*
X397866Y311942D01*
X397204Y312384D01*
X396424Y312539D01*
X345345D01*
X331886Y325998D01*
X333395Y327507D01*
X333716Y327987D01*
X334297Y328113D01*
X334573Y327837D01*
X335474Y327317D01*
X336480Y327047D01*
X337520D01*
X338526Y327317D01*
X339427Y327837D01*
X340163Y328573D01*
X340683Y329474D01*
X340953Y330480D01*
Y331520D01*
X340683Y332526D01*
X340163Y333427D01*
X339539Y334051D01*
Y362655D01*
X343384Y366500D01*
X343497D01*
X344416Y366881D01*
X345119Y367584D01*
X345500Y368503D01*
Y369497D01*
X345119Y370416D01*
X344416Y371119D01*
X343497Y371500D01*
X342503D01*
X341584Y371119D01*
X340881Y370416D01*
X340500Y369497D01*
Y369384D01*
X336058Y364942D01*
X335616Y364280D01*
X335461Y363500D01*
Y334676D01*
X334573Y334163D01*
X334297Y333887D01*
X333716Y334013D01*
X333395Y334493D01*
X330493Y337395D01*
X329832Y337837D01*
X329051Y337992D01*
X319892D01*
X279000Y378884D01*
Y378997D01*
X278619Y379916D01*
X277916Y380619D01*
X276997Y381000D01*
D02*
G37*
G36*
X554026Y323492D02*
X552974D01*
X551959Y323220D01*
X551049Y322694D01*
X550306Y321951D01*
X549780Y321041D01*
X549508Y320026D01*
Y318974D01*
X549780Y317959D01*
X550306Y317049D01*
X551049Y316305D01*
X551959Y315780D01*
X552974Y315508D01*
X554026D01*
X555041Y315780D01*
X555951Y316305D01*
X556695Y317049D01*
X557220Y317959D01*
X557492Y318974D01*
Y320026D01*
X557220Y321041D01*
X556695Y321951D01*
X555951Y322694D01*
X555041Y323220D01*
X554026Y323492D01*
D02*
G37*
G36*
Y313492D02*
X552974D01*
X551959Y313220D01*
X551049Y312695D01*
X550306Y311951D01*
X549780Y311041D01*
X549508Y310026D01*
Y308974D01*
X549780Y307959D01*
X550306Y307049D01*
X551049Y306306D01*
X551959Y305780D01*
X552974Y305508D01*
X554026D01*
X555041Y305780D01*
X555951Y306306D01*
X556695Y307049D01*
X557220Y307959D01*
X557492Y308974D01*
Y310026D01*
X557220Y311041D01*
X556695Y311951D01*
X555951Y312695D01*
X555041Y313220D01*
X554026Y313492D01*
D02*
G37*
G36*
Y303492D02*
X552974D01*
X551959Y303220D01*
X551049Y302695D01*
X550306Y301951D01*
X549780Y301041D01*
X549508Y300026D01*
Y298974D01*
X549780Y297959D01*
X550306Y297049D01*
X551049Y296305D01*
X551959Y295780D01*
X552974Y295508D01*
X554026D01*
X555041Y295780D01*
X555951Y296305D01*
X556695Y297049D01*
X557220Y297959D01*
X557492Y298974D01*
Y300026D01*
X557220Y301041D01*
X556695Y301951D01*
X555951Y302695D01*
X555041Y303220D01*
X554026Y303492D01*
D02*
G37*
G36*
X333284Y297201D02*
X331984D01*
X330728Y296864D01*
X329603Y296214D01*
X328683Y295295D01*
X328033Y294169D01*
X327963Y293905D01*
X327463D01*
X327392Y294169D01*
X326742Y295295D01*
X325823Y296214D01*
X324697Y296864D01*
X323441Y297201D01*
X322141D01*
X320886Y296864D01*
X319760Y296214D01*
X318841Y295295D01*
X318191Y294169D01*
X317854Y292914D01*
Y291614D01*
X318191Y290358D01*
X318841Y289232D01*
X319760Y288313D01*
X320886Y287663D01*
X322141Y287327D01*
X323441D01*
X324697Y287663D01*
X325823Y288313D01*
X326742Y289232D01*
X327392Y290358D01*
X327463Y290622D01*
X327963D01*
X328033Y290358D01*
X328683Y289232D01*
X329603Y288313D01*
X330728Y287663D01*
X331984Y287327D01*
X333284D01*
X334540Y287663D01*
X335665Y288313D01*
X336584Y289232D01*
X337234Y290358D01*
X337571Y291614D01*
Y292914D01*
X337234Y294169D01*
X336584Y295295D01*
X335665Y296214D01*
X334540Y296864D01*
X333284Y297201D01*
D02*
G37*
G36*
X450453Y300453D02*
X442547D01*
Y292547D01*
X450453D01*
Y300453D01*
D02*
G37*
G36*
X447020Y290453D02*
X445980D01*
X444974Y290183D01*
X444073Y289663D01*
X443337Y288927D01*
X442817Y288026D01*
X442547Y287020D01*
Y285980D01*
X442817Y284974D01*
X443337Y284073D01*
X444073Y283337D01*
X444974Y282817D01*
X445980Y282547D01*
X447020D01*
X448026Y282817D01*
X448927Y283337D01*
X449663Y284073D01*
X450183Y284974D01*
X450453Y285980D01*
Y287020D01*
X450183Y288026D01*
X449663Y288927D01*
X448927Y289663D01*
X448026Y290183D01*
X447020Y290453D01*
D02*
G37*
G36*
X513526Y290492D02*
X512474D01*
X511459Y290220D01*
X510549Y289694D01*
X509805Y288951D01*
X509280Y288041D01*
X509008Y287026D01*
Y285974D01*
X509280Y284959D01*
X509805Y284049D01*
X510549Y283306D01*
X511459Y282780D01*
X512474Y282508D01*
X513526D01*
X514541Y282780D01*
X515451Y283306D01*
X516194Y284049D01*
X516720Y284959D01*
X516992Y285974D01*
Y287026D01*
X516720Y288041D01*
X516194Y288951D01*
X515451Y289694D01*
X514541Y290220D01*
X513526Y290492D01*
D02*
G37*
G36*
X447020Y280453D02*
X445980D01*
X444974Y280183D01*
X444073Y279663D01*
X443337Y278927D01*
X442817Y278026D01*
X442547Y277020D01*
Y275980D01*
X442817Y274974D01*
X443337Y274073D01*
X444073Y273337D01*
X444974Y272817D01*
X445980Y272547D01*
X447020D01*
X448026Y272817D01*
X448927Y273337D01*
X449663Y274073D01*
X450183Y274974D01*
X450453Y275980D01*
Y277020D01*
X450183Y278026D01*
X449663Y278927D01*
X448927Y279663D01*
X448026Y280183D01*
X447020Y280453D01*
D02*
G37*
G36*
X513526Y280492D02*
X512474D01*
X511459Y280220D01*
X510549Y279695D01*
X509805Y278951D01*
X509280Y278041D01*
X509008Y277026D01*
Y275974D01*
X509280Y274959D01*
X509805Y274049D01*
X510549Y273306D01*
X511459Y272780D01*
X512474Y272508D01*
X513526D01*
X514541Y272780D01*
X515451Y273306D01*
X516194Y274049D01*
X516720Y274959D01*
X516992Y275974D01*
Y277026D01*
X516720Y278041D01*
X516194Y278951D01*
X515451Y279695D01*
X514541Y280220D01*
X513526Y280492D01*
D02*
G37*
G36*
X447020Y270453D02*
X445980D01*
X444974Y270183D01*
X444073Y269663D01*
X443337Y268927D01*
X442817Y268026D01*
X442547Y267020D01*
Y265980D01*
X442817Y264974D01*
X443337Y264073D01*
X444073Y263337D01*
X444974Y262817D01*
X445980Y262547D01*
X447020D01*
X448026Y262817D01*
X448927Y263337D01*
X449663Y264073D01*
X450183Y264974D01*
X450453Y265980D01*
Y267020D01*
X450183Y268026D01*
X449663Y268927D01*
X448927Y269663D01*
X448026Y270183D01*
X447020Y270453D01*
D02*
G37*
G36*
X516992Y270492D02*
X509008D01*
Y262508D01*
X516992D01*
Y270492D01*
D02*
G37*
G36*
X469997Y274500D02*
X469003D01*
X468084Y274119D01*
X467381Y273416D01*
X467000Y272497D01*
Y272384D01*
X453155Y258539D01*
X449887D01*
X449663Y258927D01*
X448927Y259663D01*
X448026Y260183D01*
X447020Y260453D01*
X445980D01*
X444974Y260183D01*
X444073Y259663D01*
X443337Y258927D01*
X442817Y258026D01*
X442547Y257020D01*
Y255980D01*
X442817Y254974D01*
X443337Y254073D01*
X444073Y253337D01*
X444974Y252817D01*
X445980Y252547D01*
X447020D01*
X448026Y252817D01*
X448927Y253337D01*
X449663Y254073D01*
X449887Y254461D01*
X454000D01*
X454780Y254616D01*
X455442Y255058D01*
X469884Y269500D01*
X469997D01*
X470916Y269881D01*
X471619Y270584D01*
X472000Y271503D01*
Y272497D01*
X471619Y273416D01*
X470916Y274119D01*
X469997Y274500D01*
D02*
G37*
G36*
X243992Y265492D02*
X236008D01*
Y257508D01*
X243992D01*
Y265492D01*
D02*
G37*
G36*
X527997Y312000D02*
X527003D01*
X526084Y311619D01*
X525381Y310916D01*
X525000Y309997D01*
Y309003D01*
X525381Y308084D01*
X525461Y308004D01*
Y273496D01*
X524881Y272916D01*
X524500Y271997D01*
Y271197D01*
X524461Y271000D01*
X524616Y270220D01*
X524961Y269704D01*
Y260775D01*
X524584Y260619D01*
X523881Y259916D01*
X523500Y258997D01*
Y258003D01*
X523881Y257084D01*
X524584Y256381D01*
X525503Y256000D01*
X526497D01*
X527416Y256381D01*
X528119Y257084D01*
X528500Y258003D01*
Y258145D01*
X528884Y258720D01*
X529039Y259500D01*
Y270004D01*
X529119Y270084D01*
X529500Y271003D01*
Y271803D01*
X529539Y272000D01*
X529539Y272000D01*
Y308004D01*
X529619Y308084D01*
X530000Y309003D01*
Y309997D01*
X529619Y310916D01*
X528916Y311619D01*
X527997Y312000D01*
D02*
G37*
G36*
X606632Y284800D02*
X605368D01*
X604147Y284473D01*
X603053Y283841D01*
X602159Y282947D01*
X601527Y281853D01*
X601200Y280632D01*
Y279368D01*
X601527Y278147D01*
X602159Y277053D01*
X603053Y276159D01*
X604147Y275527D01*
X605149Y275259D01*
Y274741D01*
X604147Y274473D01*
X603053Y273841D01*
X602159Y272947D01*
X601527Y271853D01*
X601200Y270632D01*
Y269368D01*
X601527Y268147D01*
X602159Y267053D01*
X603053Y266159D01*
X604147Y265527D01*
X605149Y265259D01*
Y264741D01*
X604147Y264473D01*
X603053Y263841D01*
X602159Y262947D01*
X601527Y261853D01*
X601200Y260632D01*
Y259368D01*
X601527Y258147D01*
X602159Y257053D01*
X603053Y256159D01*
X604147Y255527D01*
X605368Y255200D01*
X606632D01*
X607853Y255527D01*
X608947Y256159D01*
X609841Y257053D01*
X610473Y258147D01*
X610800Y259368D01*
Y260632D01*
X610473Y261853D01*
X609841Y262947D01*
X608947Y263841D01*
X607853Y264473D01*
X606851Y264741D01*
Y265259D01*
X607853Y265527D01*
X608947Y266159D01*
X609841Y267053D01*
X610473Y268147D01*
X610800Y269368D01*
Y270632D01*
X610473Y271853D01*
X609841Y272947D01*
X608947Y273841D01*
X607853Y274473D01*
X606851Y274741D01*
Y275259D01*
X607853Y275527D01*
X608947Y276159D01*
X609841Y277053D01*
X610473Y278147D01*
X610800Y279368D01*
Y280632D01*
X610473Y281853D01*
X609841Y282947D01*
X608947Y283841D01*
X607853Y284473D01*
X606632Y284800D01*
D02*
G37*
G36*
X245997Y303000D02*
X245003D01*
X244084Y302619D01*
X243381Y301916D01*
X243000Y300997D01*
Y300003D01*
X243381Y299084D01*
X244084Y298381D01*
X245003Y298000D01*
X245116D01*
X267058Y276058D01*
X267720Y275616D01*
X268500Y275461D01*
X273977D01*
X274549Y274469D01*
X275469Y273549D01*
X276594Y272899D01*
X276858Y272829D01*
Y272329D01*
X276594Y272258D01*
X275469Y271608D01*
X274549Y270689D01*
X273899Y269563D01*
X273563Y268307D01*
Y267007D01*
X273899Y265752D01*
X274549Y264626D01*
X275469Y263707D01*
X276594Y263057D01*
X276858Y262986D01*
Y262486D01*
X276594Y262416D01*
X275469Y261766D01*
X274549Y260846D01*
X273899Y259721D01*
X273563Y258465D01*
Y257165D01*
X273899Y255909D01*
X274549Y254784D01*
X275469Y253864D01*
X276594Y253214D01*
X276858Y253144D01*
Y252644D01*
X276594Y252573D01*
X275469Y251923D01*
X274549Y251004D01*
X273899Y249878D01*
X273563Y248622D01*
Y247323D01*
X273899Y246067D01*
X274549Y244941D01*
X275469Y244022D01*
X276594Y243372D01*
X277850Y243035D01*
X279150D01*
X280406Y243372D01*
X281531Y244022D01*
X282451Y244941D01*
X283101Y246067D01*
X283437Y247323D01*
Y248622D01*
X283101Y249878D01*
X282451Y251004D01*
X281531Y251923D01*
X280406Y252573D01*
X280142Y252644D01*
Y253144D01*
X280406Y253214D01*
X281531Y253864D01*
X282451Y254784D01*
X283101Y255909D01*
X283437Y257165D01*
Y258465D01*
X283101Y259721D01*
X282451Y260846D01*
X281531Y261766D01*
X280406Y262416D01*
X280142Y262486D01*
Y262986D01*
X280406Y263057D01*
X281531Y263707D01*
X282451Y264626D01*
X283101Y265752D01*
X283437Y267007D01*
Y268307D01*
X283101Y269563D01*
X282451Y270689D01*
X281531Y271608D01*
X280406Y272258D01*
X280142Y272329D01*
Y272829D01*
X280406Y272899D01*
X281531Y273549D01*
X282451Y274469D01*
X283101Y275594D01*
X283437Y276850D01*
Y278150D01*
X283101Y279406D01*
X282451Y280531D01*
X281531Y281451D01*
X280406Y282101D01*
X280142Y282171D01*
Y282671D01*
X280406Y282742D01*
X281531Y283392D01*
X282451Y284311D01*
X283101Y285437D01*
X283437Y286693D01*
Y287993D01*
X283101Y289248D01*
X282451Y290374D01*
X281531Y291293D01*
X280406Y291943D01*
X280142Y292014D01*
Y292514D01*
X280406Y292584D01*
X281531Y293234D01*
X282451Y294154D01*
X283101Y295279D01*
X283437Y296535D01*
Y297835D01*
X283101Y299091D01*
X282451Y300216D01*
X281531Y301136D01*
X280406Y301786D01*
X279150Y302122D01*
X277850D01*
X276594Y301786D01*
X275469Y301136D01*
X274549Y300216D01*
X273899Y299091D01*
X273563Y297835D01*
Y296535D01*
X273899Y295279D01*
X274549Y294154D01*
X275469Y293234D01*
X276594Y292584D01*
X276858Y292514D01*
Y292014D01*
X276594Y291943D01*
X275469Y291293D01*
X274549Y290374D01*
X273899Y289248D01*
X273563Y287993D01*
Y286693D01*
X273899Y285437D01*
X274549Y284311D01*
X275469Y283392D01*
X276594Y282742D01*
X276858Y282671D01*
Y282171D01*
X276594Y282101D01*
X275469Y281451D01*
X274549Y280531D01*
X273977Y279539D01*
X269345D01*
X248000Y300884D01*
Y300997D01*
X247619Y301916D01*
X246916Y302619D01*
X245997Y303000D01*
D02*
G37*
G36*
X395453Y229453D02*
X387547D01*
Y221547D01*
X395453D01*
Y229453D01*
D02*
G37*
G36*
X372020D02*
X370980D01*
X369974Y229183D01*
X369073Y228663D01*
X368337Y227927D01*
X367817Y227026D01*
X367547Y226020D01*
Y224980D01*
X367817Y223974D01*
X368337Y223073D01*
X369073Y222337D01*
X369974Y221817D01*
X370980Y221547D01*
X372020D01*
X373026Y221817D01*
X373927Y222337D01*
X374663Y223073D01*
X375183Y223974D01*
X375453Y224980D01*
Y226020D01*
X375183Y227026D01*
X374663Y227927D01*
X373927Y228663D01*
X373026Y229183D01*
X372020Y229453D01*
D02*
G37*
G36*
X362020D02*
X360980D01*
X359974Y229183D01*
X359073Y228663D01*
X358337Y227927D01*
X357817Y227026D01*
X357547Y226020D01*
Y224980D01*
X357817Y223974D01*
X358337Y223073D01*
X359073Y222337D01*
X359974Y221817D01*
X360980Y221547D01*
X362020D01*
X363026Y221817D01*
X363927Y222337D01*
X364663Y223073D01*
X365183Y223974D01*
X365453Y224980D01*
Y226020D01*
X365183Y227026D01*
X364663Y227927D01*
X363927Y228663D01*
X363026Y229183D01*
X362020Y229453D01*
D02*
G37*
G36*
X352020D02*
X350980D01*
X349974Y229183D01*
X349073Y228663D01*
X348337Y227927D01*
X347817Y227026D01*
X347547Y226020D01*
Y224980D01*
X347817Y223974D01*
X348337Y223073D01*
X349073Y222337D01*
X349974Y221817D01*
X350980Y221547D01*
X352020D01*
X353026Y221817D01*
X353927Y222337D01*
X354663Y223073D01*
X355183Y223974D01*
X355453Y224980D01*
Y226020D01*
X355183Y227026D01*
X354663Y227927D01*
X353927Y228663D01*
X353026Y229183D01*
X352020Y229453D01*
D02*
G37*
G36*
X312020D02*
X310980D01*
X309974Y229183D01*
X309073Y228663D01*
X308337Y227927D01*
X307817Y227026D01*
X307547Y226020D01*
Y224980D01*
X307817Y223974D01*
X308337Y223073D01*
X309073Y222337D01*
X309974Y221817D01*
X310980Y221547D01*
X312020D01*
X313026Y221817D01*
X313927Y222337D01*
X314663Y223073D01*
X315183Y223974D01*
X315453Y224980D01*
Y226020D01*
X315183Y227026D01*
X314663Y227927D01*
X313927Y228663D01*
X313026Y229183D01*
X312020Y229453D01*
D02*
G37*
G36*
X302020D02*
X300980D01*
X299974Y229183D01*
X299073Y228663D01*
X298337Y227927D01*
X297817Y227026D01*
X297547Y226020D01*
Y224980D01*
X297817Y223974D01*
X298337Y223073D01*
X299073Y222337D01*
X299974Y221817D01*
X300980Y221547D01*
X302020D01*
X303026Y221817D01*
X303927Y222337D01*
X304663Y223073D01*
X305183Y223974D01*
X305453Y224980D01*
Y226020D01*
X305183Y227026D01*
X304663Y227927D01*
X303927Y228663D01*
X303026Y229183D01*
X302020Y229453D01*
D02*
G37*
G36*
X292020D02*
X290980D01*
X289974Y229183D01*
X289073Y228663D01*
X288337Y227927D01*
X287817Y227026D01*
X287547Y226020D01*
Y224980D01*
X287817Y223974D01*
X288337Y223073D01*
X289073Y222337D01*
X289974Y221817D01*
X290980Y221547D01*
X292020D01*
X293026Y221817D01*
X293927Y222337D01*
X294663Y223073D01*
X295183Y223974D01*
X295453Y224980D01*
Y226020D01*
X295183Y227026D01*
X294663Y227927D01*
X293927Y228663D01*
X293026Y229183D01*
X292020Y229453D01*
D02*
G37*
G36*
X282020D02*
X280980D01*
X279974Y229183D01*
X279073Y228663D01*
X278337Y227927D01*
X277817Y227026D01*
X277547Y226020D01*
Y224980D01*
X277817Y223974D01*
X278337Y223073D01*
X279073Y222337D01*
X279974Y221817D01*
X280980Y221547D01*
X282020D01*
X283026Y221817D01*
X283927Y222337D01*
X284663Y223073D01*
X285183Y223974D01*
X285453Y224980D01*
Y226020D01*
X285183Y227026D01*
X284663Y227927D01*
X283927Y228663D01*
X283026Y229183D01*
X282020Y229453D01*
D02*
G37*
G36*
X514026Y211992D02*
X512974D01*
X511959Y211720D01*
X511049Y211194D01*
X510306Y210451D01*
X509780Y209541D01*
X509508Y208526D01*
Y207474D01*
X509780Y206459D01*
X510306Y205549D01*
X511049Y204805D01*
X511959Y204280D01*
X512974Y204008D01*
X514026D01*
X515041Y204280D01*
X515951Y204805D01*
X516694Y205549D01*
X517220Y206459D01*
X517492Y207474D01*
Y208526D01*
X517220Y209541D01*
X516694Y210451D01*
X515951Y211194D01*
X515041Y211720D01*
X514026Y211992D01*
D02*
G37*
G36*
X589560Y205750D02*
X588441D01*
X587360Y205460D01*
X586390Y204901D01*
X585599Y204110D01*
X585040Y203140D01*
X584750Y202060D01*
Y200940D01*
X585040Y199860D01*
X585599Y198890D01*
X586390Y198099D01*
X587360Y197540D01*
X588441Y197250D01*
X589560D01*
X590640Y197540D01*
X591610Y198099D01*
X592401Y198890D01*
X592960Y199860D01*
X593250Y200940D01*
Y202060D01*
X592960Y203140D01*
X592401Y204110D01*
X591610Y204901D01*
X590640Y205460D01*
X589560Y205750D01*
D02*
G37*
G36*
X581125D02*
X576875D01*
X574750Y203625D01*
Y199375D01*
X576875Y197250D01*
X581125D01*
X583250Y199375D01*
Y203625D01*
X581125Y205750D01*
D02*
G37*
G36*
X332020Y229453D02*
X330980D01*
X329974Y229183D01*
X329073Y228663D01*
X328337Y227927D01*
X327817Y227026D01*
X327547Y226020D01*
Y224980D01*
X327817Y223974D01*
X328337Y223073D01*
X329073Y222337D01*
X329461Y222113D01*
Y190602D01*
X324001Y185142D01*
X323539Y185334D01*
Y222113D01*
X323927Y222337D01*
X324663Y223073D01*
X325183Y223974D01*
X325453Y224980D01*
Y226020D01*
X325183Y227026D01*
X324663Y227927D01*
X323927Y228663D01*
X323026Y229183D01*
X322020Y229453D01*
X320980D01*
X319974Y229183D01*
X319073Y228663D01*
X318337Y227927D01*
X317817Y227026D01*
X317547Y226020D01*
Y224980D01*
X317817Y223974D01*
X318337Y223073D01*
X319073Y222337D01*
X319461Y222113D01*
Y184845D01*
X315650Y181033D01*
X315150Y181241D01*
Y182046D01*
X314867Y183102D01*
X314320Y184048D01*
X313548Y184820D01*
X312602Y185367D01*
X311546Y185650D01*
X310454D01*
X309398Y185367D01*
X308452Y184820D01*
X307680Y184048D01*
X307133Y183102D01*
X306850Y182046D01*
Y180954D01*
X307133Y179898D01*
X307680Y178952D01*
X308452Y178180D01*
X309398Y177633D01*
X310454Y177350D01*
X311260D01*
X311467Y176850D01*
X202843Y68227D01*
X202584Y68119D01*
X201881Y67416D01*
X201500Y66497D01*
Y65503D01*
X201881Y64584D01*
X202584Y63881D01*
X203503Y63500D01*
X204497D01*
X205416Y63881D01*
X205961Y64425D01*
X206461Y64218D01*
Y53845D01*
X194616Y42000D01*
X194003D01*
X193084Y41619D01*
X192381Y40916D01*
X192000Y39997D01*
Y39003D01*
X192381Y38084D01*
X193084Y37381D01*
X194003Y37000D01*
X194997D01*
X195916Y37381D01*
X196619Y38084D01*
X196727Y38343D01*
X209942Y51558D01*
X210384Y52220D01*
X210539Y53000D01*
Y65913D01*
X332942Y188315D01*
X333384Y188977D01*
X333539Y189757D01*
Y222113D01*
X333927Y222337D01*
X334663Y223073D01*
X335183Y223974D01*
X335453Y224980D01*
Y226020D01*
X335183Y227026D01*
X334663Y227927D01*
X333927Y228663D01*
X333026Y229183D01*
X332020Y229453D01*
D02*
G37*
G36*
X301546Y185650D02*
X300454D01*
X299398Y185367D01*
X298452Y184820D01*
X297679Y184048D01*
X297133Y183102D01*
X296850Y182046D01*
Y180954D01*
X297133Y179898D01*
X297679Y178952D01*
X298452Y178180D01*
X299398Y177633D01*
X300454Y177350D01*
X301546D01*
X302602Y177633D01*
X303548Y178180D01*
X304321Y178952D01*
X304867Y179898D01*
X305150Y180954D01*
Y182046D01*
X304867Y183102D01*
X304321Y184048D01*
X303548Y184820D01*
X302602Y185367D01*
X301546Y185650D01*
D02*
G37*
G36*
X291546D02*
X290454D01*
X289398Y185367D01*
X288452Y184820D01*
X287680Y184048D01*
X287133Y183102D01*
X286850Y182046D01*
Y180954D01*
X287133Y179898D01*
X287680Y178952D01*
X288452Y178180D01*
X289398Y177633D01*
X290454Y177350D01*
X291546D01*
X292602Y177633D01*
X293548Y178180D01*
X294321Y178952D01*
X294867Y179898D01*
X295150Y180954D01*
Y182046D01*
X294867Y183102D01*
X294321Y184048D01*
X293548Y184820D01*
X292602Y185367D01*
X291546Y185650D01*
D02*
G37*
G36*
X281546D02*
X280454D01*
X279398Y185367D01*
X278452Y184820D01*
X277679Y184048D01*
X277133Y183102D01*
X276850Y182046D01*
Y180954D01*
X277133Y179898D01*
X277679Y178952D01*
X278452Y178180D01*
X279398Y177633D01*
X280454Y177350D01*
X281546D01*
X282602Y177633D01*
X283548Y178180D01*
X284320Y178952D01*
X284867Y179898D01*
X285150Y180954D01*
Y182046D01*
X284867Y183102D01*
X284320Y184048D01*
X283548Y184820D01*
X282602Y185367D01*
X281546Y185650D01*
D02*
G37*
G36*
X271546D02*
X270454D01*
X269398Y185367D01*
X268452Y184820D01*
X267680Y184048D01*
X267133Y183102D01*
X266850Y182046D01*
Y180954D01*
X267133Y179898D01*
X267680Y178952D01*
X268452Y178180D01*
X269398Y177633D01*
X270454Y177350D01*
X271546D01*
X272602Y177633D01*
X273548Y178180D01*
X274321Y178952D01*
X274867Y179898D01*
X275150Y180954D01*
Y182046D01*
X274867Y183102D01*
X274321Y184048D01*
X273548Y184820D01*
X272602Y185367D01*
X271546Y185650D01*
D02*
G37*
G36*
X265150D02*
X256850D01*
Y177350D01*
X265150D01*
Y185650D01*
D02*
G37*
G36*
X436046Y182150D02*
X434954D01*
X433898Y181867D01*
X432952Y181321D01*
X432179Y180548D01*
X431633Y179602D01*
X431350Y178546D01*
Y177454D01*
X431633Y176398D01*
X432179Y175452D01*
X432952Y174680D01*
X433898Y174133D01*
X434954Y173850D01*
X436046D01*
X437102Y174133D01*
X438048Y174680D01*
X438821Y175452D01*
X439367Y176398D01*
X439650Y177454D01*
Y178546D01*
X439367Y179602D01*
X438821Y180548D01*
X438048Y181321D01*
X437102Y181867D01*
X436046Y182150D01*
D02*
G37*
G36*
X426046D02*
X424954D01*
X423898Y181867D01*
X422952Y181321D01*
X422180Y180548D01*
X421633Y179602D01*
X421350Y178546D01*
Y177454D01*
X421633Y176398D01*
X422180Y175452D01*
X422952Y174680D01*
X423898Y174133D01*
X424954Y173850D01*
X426046D01*
X427102Y174133D01*
X428048Y174680D01*
X428821Y175452D01*
X429367Y176398D01*
X429650Y177454D01*
Y178546D01*
X429367Y179602D01*
X428821Y180548D01*
X428048Y181321D01*
X427102Y181867D01*
X426046Y182150D01*
D02*
G37*
G36*
X419650D02*
X411350D01*
Y173850D01*
X419650D01*
Y182150D01*
D02*
G37*
G36*
X43640Y182500D02*
X42360D01*
X41104Y182250D01*
X39921Y181760D01*
X38857Y181049D01*
X37951Y180143D01*
X37240Y179079D01*
X36750Y177896D01*
X36500Y176640D01*
Y175360D01*
X36750Y174104D01*
X37240Y172921D01*
X37951Y171856D01*
X38857Y170951D01*
X39921Y170240D01*
X41104Y169750D01*
X42360Y169500D01*
X43640D01*
X44896Y169750D01*
X46079Y170240D01*
X47144Y170951D01*
X48049Y171856D01*
X48760Y172921D01*
X49250Y174104D01*
X49500Y175360D01*
Y176640D01*
X49250Y177896D01*
X48760Y179079D01*
X48049Y180143D01*
X47144Y181049D01*
X46079Y181760D01*
X44896Y182250D01*
X43640Y182500D01*
D02*
G37*
G36*
Y162500D02*
X42360D01*
X41104Y162250D01*
X39921Y161760D01*
X38857Y161049D01*
X37951Y160143D01*
X37240Y159079D01*
X36750Y157896D01*
X36500Y156640D01*
Y155360D01*
X36750Y154104D01*
X37240Y152921D01*
X37951Y151857D01*
X38857Y150951D01*
X39921Y150240D01*
X41104Y149750D01*
X42360Y149500D01*
X43640D01*
X44896Y149750D01*
X46079Y150240D01*
X47144Y150951D01*
X48049Y151857D01*
X48760Y152921D01*
X49250Y154104D01*
X49500Y155360D01*
Y156640D01*
X49250Y157896D01*
X48760Y159079D01*
X48049Y160143D01*
X47144Y161049D01*
X46079Y161760D01*
X44896Y162250D01*
X43640Y162500D01*
D02*
G37*
G36*
X132500Y153539D02*
X131720Y153384D01*
X131058Y152942D01*
X130616Y152280D01*
X130461Y151500D01*
X130616Y150720D01*
X131058Y150058D01*
X131273Y149843D01*
X131381Y149584D01*
X132084Y148881D01*
X132461Y148724D01*
Y139996D01*
X132381Y139916D01*
X132000Y138997D01*
Y138003D01*
X132381Y137084D01*
X133084Y136381D01*
X134003Y136000D01*
X134997D01*
X135916Y136381D01*
X136619Y137084D01*
X137000Y138003D01*
Y138997D01*
X136619Y139916D01*
X136539Y139996D01*
Y150000D01*
X136384Y150780D01*
X136000Y151355D01*
Y151497D01*
X135619Y152416D01*
X134916Y153119D01*
X133997Y153500D01*
X133003D01*
X132904Y153459D01*
X132500Y153539D01*
D02*
G37*
G36*
X349327Y156327D02*
X327673D01*
X327283Y156249D01*
X326952Y156028D01*
X326731Y155697D01*
X326654Y155307D01*
Y136567D01*
X326731Y136177D01*
X326952Y135846D01*
X327283Y135625D01*
X327673Y135547D01*
X349327D01*
X349717Y135625D01*
X350048Y135846D01*
X350269Y136177D01*
X350346Y136567D01*
Y155307D01*
X350269Y155697D01*
X350048Y156028D01*
X349717Y156249D01*
X349327Y156327D01*
D02*
G37*
G36*
X254839D02*
X233185D01*
X232795Y156249D01*
X232464Y156028D01*
X232243Y155697D01*
X232166Y155307D01*
Y136567D01*
X232243Y136177D01*
X232464Y135846D01*
X232795Y135625D01*
X233185Y135547D01*
X254839D01*
X255229Y135625D01*
X255559Y135846D01*
X255781Y136177D01*
X255858Y136567D01*
Y155307D01*
X255781Y155697D01*
X255559Y156028D01*
X255229Y156249D01*
X254839Y156327D01*
D02*
G37*
G36*
X492327Y153827D02*
X470673D01*
X470283Y153749D01*
X469952Y153528D01*
X469731Y153197D01*
X469654Y152807D01*
Y134067D01*
X469731Y133677D01*
X469952Y133346D01*
X470283Y133125D01*
X470673Y133047D01*
X492327D01*
X492717Y133125D01*
X493048Y133346D01*
X493269Y133677D01*
X493346Y134067D01*
Y152807D01*
X493269Y153197D01*
X493048Y153528D01*
X492717Y153749D01*
X492327Y153827D01*
D02*
G37*
G36*
X43640Y142500D02*
X42360D01*
X41104Y142250D01*
X39921Y141760D01*
X38857Y141049D01*
X37951Y140144D01*
X37240Y139079D01*
X36750Y137896D01*
X36500Y136640D01*
Y135360D01*
X36750Y134104D01*
X37240Y132921D01*
X37951Y131857D01*
X38857Y130951D01*
X39921Y130240D01*
X41104Y129750D01*
X42360Y129500D01*
X43640D01*
X44896Y129750D01*
X46079Y130240D01*
X47144Y130951D01*
X48049Y131857D01*
X48760Y132921D01*
X49250Y134104D01*
X49500Y135360D01*
Y136640D01*
X49250Y137896D01*
X48760Y139079D01*
X48049Y140144D01*
X47144Y141049D01*
X46079Y141760D01*
X44896Y142250D01*
X43640Y142500D01*
D02*
G37*
G36*
X382020Y229453D02*
X380980D01*
X379974Y229183D01*
X379073Y228663D01*
X378337Y227927D01*
X377817Y227026D01*
X377547Y226020D01*
Y224980D01*
X377817Y223974D01*
X378337Y223073D01*
X379073Y222337D01*
X379461Y222113D01*
Y183343D01*
X372743Y176625D01*
X372301Y175964D01*
X372146Y175183D01*
Y117315D01*
X372301Y116535D01*
X372743Y115873D01*
X375500Y113116D01*
Y113003D01*
X375881Y112084D01*
X376584Y111381D01*
X377503Y111000D01*
X378497D01*
X379416Y111381D01*
X380119Y112084D01*
X380500Y113003D01*
Y113997D01*
X380119Y114916D01*
X379416Y115619D01*
X378497Y116000D01*
X378384D01*
X376224Y118160D01*
Y133047D01*
X397839D01*
X398229Y133125D01*
X398559Y133346D01*
X398781Y133677D01*
X398858Y134067D01*
Y152807D01*
X398781Y153197D01*
X398559Y153528D01*
X398229Y153749D01*
X397839Y153827D01*
X376224D01*
Y174339D01*
X382942Y181056D01*
X382942Y181056D01*
X383384Y181718D01*
X383539Y182498D01*
X383539Y182498D01*
Y222113D01*
X383927Y222337D01*
X384663Y223073D01*
X385183Y223974D01*
X385453Y224980D01*
Y226020D01*
X385183Y227026D01*
X384663Y227927D01*
X383927Y228663D01*
X383026Y229183D01*
X382020Y229453D01*
D02*
G37*
G36*
X514026Y201992D02*
X512974D01*
X511959Y201720D01*
X511049Y201195D01*
X510306Y200451D01*
X509780Y199541D01*
X509508Y198526D01*
Y197474D01*
X509780Y196459D01*
X510306Y195549D01*
X511049Y194806D01*
X511959Y194280D01*
X512974Y194008D01*
X514026D01*
X514485Y194131D01*
X516162Y192454D01*
X515971Y191992D01*
X509508D01*
Y184008D01*
X517492D01*
Y190471D01*
X517954Y190662D01*
X519461Y189155D01*
Y114276D01*
X519084Y114119D01*
X518381Y113416D01*
X518000Y112497D01*
Y111503D01*
X518381Y110584D01*
X519084Y109881D01*
X520003Y109500D01*
X520997D01*
X521916Y109881D01*
X522619Y110584D01*
X523000Y111503D01*
Y111645D01*
X523384Y112220D01*
X523539Y113000D01*
Y190000D01*
X523384Y190780D01*
X522942Y191442D01*
X517369Y197015D01*
X517492Y197474D01*
Y198526D01*
X517220Y199541D01*
X516694Y200451D01*
X515951Y201195D01*
X515041Y201720D01*
X514026Y201992D01*
D02*
G37*
G36*
X43640Y122500D02*
X42360D01*
X41104Y122250D01*
X39921Y121760D01*
X38857Y121049D01*
X37951Y120143D01*
X37240Y119079D01*
X36750Y117896D01*
X36500Y116640D01*
Y115360D01*
X36750Y114104D01*
X37240Y112921D01*
X37951Y111856D01*
X38857Y110951D01*
X39921Y110240D01*
X41104Y109750D01*
X42360Y109500D01*
X43640D01*
X44896Y109750D01*
X46079Y110240D01*
X47144Y110951D01*
X48049Y111856D01*
X48760Y112921D01*
X49250Y114104D01*
X49500Y115360D01*
Y116640D01*
X49250Y117896D01*
X48760Y119079D01*
X48049Y120143D01*
X47144Y121049D01*
X46079Y121760D01*
X44896Y122250D01*
X43640Y122500D01*
D02*
G37*
G36*
X402997Y114000D02*
X402003D01*
X401084Y113619D01*
X400381Y112916D01*
X400000Y111997D01*
Y111003D01*
X400381Y110084D01*
X401084Y109381D01*
X402003Y109000D01*
X402997D01*
X403916Y109381D01*
X404619Y110084D01*
X405000Y111003D01*
Y111997D01*
X404619Y112916D01*
X403916Y113619D01*
X402997Y114000D01*
D02*
G37*
G36*
X50140Y78500D02*
X48860D01*
X47604Y78250D01*
X46421Y77760D01*
X45357Y77049D01*
X44451Y76143D01*
X43740Y75079D01*
X43250Y73896D01*
X43000Y72640D01*
Y71360D01*
X43250Y70104D01*
X43740Y68921D01*
X44451Y67857D01*
X45357Y66951D01*
X46421Y66240D01*
X47604Y65750D01*
X48860Y65500D01*
X50140D01*
X51396Y65750D01*
X52579Y66240D01*
X53644Y66951D01*
X54549Y67857D01*
X55260Y68921D01*
X55750Y70104D01*
X56000Y71360D01*
Y72640D01*
X55750Y73896D01*
X55260Y75079D01*
X54549Y76143D01*
X53644Y77049D01*
X52579Y77760D01*
X51396Y78250D01*
X50140Y78500D01*
D02*
G37*
G36*
X579721Y78244D02*
X578342D01*
X576990Y77975D01*
X575716Y77447D01*
X574569Y76681D01*
X573594Y75706D01*
X572828Y74560D01*
X572300Y73286D01*
X572031Y71934D01*
Y70555D01*
X572300Y69202D01*
X572828Y67928D01*
X573594Y66782D01*
X574569Y65807D01*
X575716Y65041D01*
X576990Y64513D01*
X578342Y64244D01*
X579721D01*
X581073Y64513D01*
X582347Y65041D01*
X583494Y65807D01*
X584469Y66782D01*
X585235Y67928D01*
X585763Y69202D01*
X586031Y70555D01*
Y71934D01*
X585763Y73286D01*
X585235Y74560D01*
X584469Y75706D01*
X583494Y76681D01*
X582347Y77447D01*
X581073Y77975D01*
X579721Y78244D01*
D02*
G37*
G36*
X531689D02*
X530311D01*
X528958Y77975D01*
X527684Y77447D01*
X526538Y76681D01*
X525563Y75706D01*
X524797Y74560D01*
X524269Y73286D01*
X524000Y71934D01*
Y70555D01*
X524269Y69202D01*
X524797Y67928D01*
X525563Y66782D01*
X526538Y65807D01*
X527684Y65041D01*
X528958Y64513D01*
X530311Y64244D01*
X531689D01*
X533042Y64513D01*
X534316Y65041D01*
X535462Y65807D01*
X536437Y66782D01*
X537203Y67928D01*
X537731Y69202D01*
X538000Y70555D01*
Y71934D01*
X537731Y73286D01*
X537203Y74560D01*
X536437Y75706D01*
X535462Y76681D01*
X534316Y77447D01*
X533042Y77975D01*
X531689Y78244D01*
D02*
G37*
G36*
X342020Y229453D02*
X340980D01*
X339974Y229183D01*
X339073Y228663D01*
X338337Y227927D01*
X337817Y227026D01*
X337547Y226020D01*
Y224980D01*
X337817Y223974D01*
X338337Y223073D01*
X339073Y222337D01*
X339461Y222113D01*
Y190845D01*
X243558Y94942D01*
X243116Y94280D01*
X242961Y93500D01*
Y79845D01*
X230116Y67000D01*
X230003D01*
X229084Y66619D01*
X228381Y65916D01*
X228000Y64997D01*
Y64003D01*
X228381Y63084D01*
X229084Y62381D01*
X230003Y62000D01*
X230997D01*
X231916Y62381D01*
X232619Y63084D01*
X233000Y64003D01*
Y64116D01*
X246442Y77558D01*
X246884Y78220D01*
X247039Y79000D01*
X247039Y79000D01*
Y92655D01*
X342942Y188558D01*
X343384Y189220D01*
X343539Y190000D01*
Y222113D01*
X343927Y222337D01*
X344663Y223073D01*
X345183Y223974D01*
X345453Y224980D01*
Y226020D01*
X345183Y227026D01*
X344663Y227927D01*
X343927Y228663D01*
X343026Y229183D01*
X342020Y229453D01*
D02*
G37*
G36*
X614921Y67437D02*
X603079D01*
Y57563D01*
X614921D01*
Y67437D01*
D02*
G37*
G36*
X50140Y58500D02*
X48860D01*
X47604Y58250D01*
X46421Y57760D01*
X45357Y57049D01*
X44451Y56143D01*
X43740Y55079D01*
X43250Y53896D01*
X43000Y52640D01*
Y51360D01*
X43250Y50104D01*
X43740Y48921D01*
X44451Y47857D01*
X45357Y46951D01*
X46421Y46240D01*
X47604Y45750D01*
X48860Y45500D01*
X50140D01*
X51396Y45750D01*
X52579Y46240D01*
X53644Y46951D01*
X54549Y47857D01*
X55260Y48921D01*
X55750Y50104D01*
X56000Y51360D01*
Y52640D01*
X55750Y53896D01*
X55260Y55079D01*
X54549Y56143D01*
X53644Y57049D01*
X52579Y57760D01*
X51396Y58250D01*
X50140Y58500D01*
D02*
G37*
G36*
X523815Y54622D02*
X522437D01*
X521084Y54353D01*
X519810Y53825D01*
X518664Y53059D01*
X517689Y52084D01*
X516923Y50938D01*
X516395Y49664D01*
X516126Y48311D01*
Y46933D01*
X516395Y45580D01*
X516923Y44306D01*
X517689Y43160D01*
X518664Y42185D01*
X519810Y41419D01*
X521084Y40891D01*
X522437Y40622D01*
X523815D01*
X525168Y40891D01*
X526442Y41419D01*
X527588Y42185D01*
X528563Y43160D01*
X529329Y44306D01*
X529857Y45580D01*
X530126Y46933D01*
Y48311D01*
X529857Y49664D01*
X529329Y50938D01*
X528563Y52084D01*
X527588Y53059D01*
X526442Y53825D01*
X525168Y54353D01*
X523815Y54622D01*
D02*
G37*
G36*
X614921Y47437D02*
X603079D01*
Y37563D01*
X614921D01*
Y47437D01*
D02*
G37*
G36*
X50140Y38500D02*
X48860D01*
X47604Y38250D01*
X46421Y37760D01*
X45357Y37049D01*
X44451Y36143D01*
X43740Y35079D01*
X43250Y33896D01*
X43000Y32640D01*
Y31360D01*
X43250Y30104D01*
X43740Y28921D01*
X44451Y27856D01*
X45357Y26951D01*
X46421Y26240D01*
X47604Y25750D01*
X48860Y25500D01*
X50140D01*
X51396Y25750D01*
X52579Y26240D01*
X53644Y26951D01*
X54549Y27856D01*
X55260Y28921D01*
X55750Y30104D01*
X56000Y31360D01*
Y32640D01*
X55750Y33896D01*
X55260Y35079D01*
X54549Y36143D01*
X53644Y37049D01*
X52579Y37760D01*
X51396Y38250D01*
X50140Y38500D01*
D02*
G37*
G36*
X614921Y27387D02*
X603079D01*
Y17513D01*
X614921D01*
Y27387D01*
D02*
G37*
G36*
X531689Y31000D02*
X530311D01*
X528958Y30731D01*
X527684Y30203D01*
X526538Y29437D01*
X525563Y28462D01*
X524797Y27316D01*
X524269Y26042D01*
X524000Y24689D01*
Y23311D01*
X524269Y21958D01*
X524797Y20684D01*
X525563Y19538D01*
X526538Y18563D01*
X527684Y17797D01*
X528958Y17269D01*
X530311Y17000D01*
X531689D01*
X533042Y17269D01*
X534316Y17797D01*
X535462Y18563D01*
X536437Y19538D01*
X537203Y20684D01*
X537731Y21958D01*
X538000Y23311D01*
Y24689D01*
X537731Y26042D01*
X537203Y27316D01*
X536437Y28462D01*
X535462Y29437D01*
X534316Y30203D01*
X533042Y30731D01*
X531689Y31000D01*
D02*
G37*
G36*
X579721Y30244D02*
X578342D01*
X576990Y29975D01*
X575716Y29447D01*
X574569Y28681D01*
X573594Y27706D01*
X572828Y26560D01*
X572300Y25286D01*
X572031Y23934D01*
Y22555D01*
X572300Y21202D01*
X572828Y19928D01*
X573594Y18782D01*
X574569Y17807D01*
X575716Y17041D01*
X576990Y16513D01*
X578342Y16244D01*
X579721D01*
X581073Y16513D01*
X582347Y17041D01*
X583494Y17807D01*
X584469Y18782D01*
X585235Y19928D01*
X585763Y21202D01*
X586031Y22555D01*
Y23934D01*
X585763Y25286D01*
X585235Y26560D01*
X584469Y27706D01*
X583494Y28681D01*
X582347Y29447D01*
X581073Y29975D01*
X579721Y30244D01*
D02*
G37*
G36*
X349327Y30390D02*
X327673D01*
X327283Y30312D01*
X326952Y30091D01*
X326731Y29760D01*
X326654Y29370D01*
Y10630D01*
X326731Y10240D01*
X326952Y9909D01*
X327283Y9688D01*
X327673Y9610D01*
X349327D01*
X349717Y9688D01*
X350048Y9909D01*
X350269Y10240D01*
X350346Y10630D01*
Y29370D01*
X350269Y29760D01*
X350048Y30091D01*
X349717Y30312D01*
X349327Y30390D01*
D02*
G37*
G36*
X254839Y30342D02*
X233185D01*
X232795Y30265D01*
X232464Y30044D01*
X232243Y29713D01*
X232166Y29323D01*
Y10583D01*
X232243Y10193D01*
X232464Y9862D01*
X232795Y9641D01*
X233185Y9563D01*
X254839D01*
X255229Y9641D01*
X255559Y9862D01*
X255781Y10193D01*
X255858Y10583D01*
Y29323D01*
X255781Y29713D01*
X255559Y30044D01*
X255229Y30265D01*
X254839Y30342D01*
D02*
G37*
G36*
X492327Y27842D02*
X470673D01*
X470283Y27765D01*
X469952Y27544D01*
X469731Y27213D01*
X469654Y26823D01*
Y8083D01*
X469731Y7693D01*
X469952Y7362D01*
X470283Y7141D01*
X470673Y7063D01*
X492327D01*
X492717Y7141D01*
X493048Y7362D01*
X493269Y7693D01*
X493346Y8083D01*
Y26823D01*
X493269Y27213D01*
X493048Y27544D01*
X492717Y27765D01*
X492327Y27842D01*
D02*
G37*
G36*
X397839D02*
X376185D01*
X375795Y27765D01*
X375464Y27544D01*
X375243Y27213D01*
X375166Y26823D01*
Y8083D01*
X375243Y7693D01*
X375464Y7362D01*
X375795Y7141D01*
X376185Y7063D01*
X397839D01*
X398229Y7141D01*
X398559Y7362D01*
X398781Y7693D01*
X398858Y8083D01*
Y26823D01*
X398781Y27213D01*
X398559Y27544D01*
X398229Y27765D01*
X397839Y27842D01*
D02*
G37*
G36*
X50140Y18500D02*
X48860D01*
X47604Y18250D01*
X46421Y17760D01*
X45357Y17049D01*
X44451Y16143D01*
X43740Y15079D01*
X43250Y13896D01*
X43000Y12640D01*
Y11360D01*
X43250Y10104D01*
X43740Y8921D01*
X44451Y7857D01*
X45357Y6951D01*
X46421Y6240D01*
X47604Y5750D01*
X48860Y5500D01*
X50140D01*
X51396Y5750D01*
X52579Y6240D01*
X53644Y6951D01*
X54549Y7857D01*
X55260Y8921D01*
X55750Y10104D01*
X56000Y11360D01*
Y12640D01*
X55750Y13896D01*
X55260Y15079D01*
X54549Y16143D01*
X53644Y17049D01*
X52579Y17760D01*
X51396Y18250D01*
X50140Y18500D01*
D02*
G37*
%LPD*%
G36*
X427461Y410413D02*
Y399642D01*
X426961Y399308D01*
X426497Y399500D01*
X425503D01*
X424584Y399119D01*
X424312Y398848D01*
X423679D01*
X423401Y399264D01*
X423500Y399503D01*
Y400497D01*
X423119Y401416D01*
X423039Y401496D01*
Y404000D01*
X422884Y404780D01*
X422442Y405442D01*
X419837Y408047D01*
X419953Y408480D01*
Y409520D01*
X419783Y410152D01*
X420167Y410652D01*
X421620D01*
X421891Y410381D01*
X422810Y410000D01*
X423805D01*
X424724Y410381D01*
X425427Y411084D01*
X425619Y411547D01*
X426209Y411665D01*
X427461Y410413D01*
D02*
G37*
G36*
X402047Y418514D02*
Y418480D01*
X402317Y417474D01*
X402837Y416573D01*
X403573Y415837D01*
X404474Y415317D01*
X405480Y415047D01*
X406520D01*
X406953Y415163D01*
X409511Y412605D01*
X410172Y412163D01*
X410953Y412008D01*
X412765D01*
X412956Y411546D01*
X412837Y411427D01*
X412317Y410526D01*
X412047Y409520D01*
Y408480D01*
X412317Y407474D01*
X412837Y406573D01*
X413573Y405837D01*
X414474Y405317D01*
X415480Y405047D01*
X416520D01*
X416953Y405163D01*
X418961Y403155D01*
Y401496D01*
X418881Y401416D01*
X418500Y400497D01*
Y399503D01*
X418692Y399039D01*
X418358Y398539D01*
X410845D01*
X404625Y404759D01*
X404884Y405207D01*
X405480Y405047D01*
X406520D01*
X407526Y405317D01*
X408427Y405837D01*
X409163Y406573D01*
X409683Y407474D01*
X409953Y408480D01*
Y409520D01*
X409683Y410526D01*
X409163Y411427D01*
X408427Y412163D01*
X407526Y412683D01*
X406520Y412953D01*
X405480D01*
X404474Y412683D01*
X403573Y412163D01*
X403196Y411787D01*
X401840D01*
X401039Y412587D01*
Y418160D01*
X401585Y418706D01*
X402047Y418514D01*
D02*
G37*
G36*
X382167Y241146D02*
X382817Y240020D01*
X383736Y239101D01*
X384862Y238451D01*
X386118Y238114D01*
X387418D01*
X388673Y238451D01*
X389799Y239101D01*
X390718Y240020D01*
X391368Y241146D01*
X391439Y241409D01*
X391939D01*
X392010Y241146D01*
X392660Y240020D01*
X393579Y239101D01*
X394705Y238451D01*
X395960Y238114D01*
X396532D01*
X396724Y237652D01*
X395225Y236153D01*
X293378D01*
X293187Y236615D01*
X295482Y238911D01*
X296279Y238451D01*
X297535Y238114D01*
X298835D01*
X300091Y238451D01*
X301216Y239101D01*
X302136Y240020D01*
X302786Y241146D01*
X302856Y241409D01*
X303356D01*
X303427Y241146D01*
X304077Y240020D01*
X304996Y239101D01*
X306122Y238451D01*
X307378Y238114D01*
X308678D01*
X309933Y238451D01*
X311059Y239101D01*
X311978Y240020D01*
X312628Y241146D01*
X312699Y241409D01*
X313199D01*
X313269Y241146D01*
X313919Y240020D01*
X314839Y239101D01*
X315965Y238451D01*
X317220Y238114D01*
X318520D01*
X319776Y238451D01*
X320901Y239101D01*
X321821Y240020D01*
X322471Y241146D01*
X322541Y241409D01*
X323041D01*
X323112Y241146D01*
X323762Y240020D01*
X324681Y239101D01*
X325807Y238451D01*
X327063Y238114D01*
X328363D01*
X329618Y238451D01*
X330744Y239101D01*
X331663Y240020D01*
X332313Y241146D01*
X332384Y241409D01*
X332884D01*
X332955Y241146D01*
X333605Y240020D01*
X334524Y239101D01*
X335649Y238451D01*
X336905Y238114D01*
X338205D01*
X339461Y238451D01*
X340586Y239101D01*
X341506Y240020D01*
X342156Y241146D01*
X342226Y241409D01*
X342726D01*
X342797Y241146D01*
X343447Y240020D01*
X344366Y239101D01*
X345492Y238451D01*
X346748Y238114D01*
X348048D01*
X349303Y238451D01*
X350429Y239101D01*
X351348Y240020D01*
X351998Y241146D01*
X352069Y241409D01*
X352569D01*
X352640Y241146D01*
X353290Y240020D01*
X354209Y239101D01*
X355334Y238451D01*
X356590Y238114D01*
X357890D01*
X359146Y238451D01*
X360272Y239101D01*
X361191Y240020D01*
X361841Y241146D01*
X361911Y241409D01*
X362411D01*
X362482Y241146D01*
X363132Y240020D01*
X364051Y239101D01*
X365177Y238451D01*
X366433Y238114D01*
X367733D01*
X368988Y238451D01*
X370114Y239101D01*
X371033Y240020D01*
X371683Y241146D01*
X371754Y241409D01*
X372254D01*
X372325Y241146D01*
X372975Y240020D01*
X373894Y239101D01*
X375020Y238451D01*
X376275Y238114D01*
X377575D01*
X378831Y238451D01*
X379957Y239101D01*
X380876Y240020D01*
X381526Y241146D01*
X381596Y241409D01*
X382097D01*
X382167Y241146D01*
D02*
G37*
G36*
X267926Y236190D02*
X267902Y235954D01*
X267781Y235629D01*
X267672Y235556D01*
X263558Y231442D01*
X263116Y230780D01*
X263046Y230430D01*
X261155Y228539D01*
X243338D01*
X243147Y229001D01*
X243195Y229049D01*
X243720Y229959D01*
X243992Y230974D01*
Y232026D01*
X243720Y233041D01*
X243195Y233951D01*
X242451Y234695D01*
X241541Y235220D01*
X240526Y235492D01*
X239474D01*
X238459Y235220D01*
X237549Y234695D01*
X236806Y233951D01*
X236280Y233041D01*
X236008Y232026D01*
Y230974D01*
X236280Y229959D01*
X236806Y229049D01*
X236853Y229001D01*
X236662Y228539D01*
X235067D01*
X234286Y228384D01*
X233625Y227942D01*
X210558Y204875D01*
X210116Y204214D01*
X210039Y203827D01*
X209539Y203876D01*
Y208155D01*
X239015Y237631D01*
X239474Y237508D01*
X240526D01*
X241541Y237780D01*
X242451Y238305D01*
X243195Y239049D01*
X243432Y239461D01*
X264655D01*
X267926Y236190D01*
D02*
G37*
D80*
X244012Y19953D02*
D03*
X338500Y20000D02*
D03*
Y145937D02*
D03*
X244012D02*
D03*
X387012Y17453D02*
D03*
Y143437D02*
D03*
X481500Y17453D02*
D03*
Y143437D02*
D03*
D91*
X262000Y226500D02*
X265750Y230250D01*
X265000Y230000D02*
X269114Y234114D01*
X396069D01*
X402547Y240592D01*
Y251878D01*
X390673Y263752D02*
X402547Y251878D01*
X390673Y263752D02*
Y276484D01*
X396610Y282421D01*
X240000Y241500D02*
X265500D01*
X269886Y237114D02*
X290802D01*
X298144Y241856D02*
X299000Y241000D01*
X290802Y237114D02*
X295543Y241856D01*
X265500Y241500D02*
X269886Y237114D01*
X295543Y241856D02*
X298144D01*
X235067Y226500D02*
X262000D01*
X381500Y182498D02*
Y225500D01*
X341500Y190000D02*
Y225500D01*
X331500Y189757D02*
Y225500D01*
X321500Y184000D02*
Y225500D01*
X276000Y318500D02*
X315000D01*
X327215Y330715D01*
X264500Y330000D02*
X276000Y318500D01*
X268500Y277500D02*
X276000D01*
X245500Y300500D02*
X268500Y277500D01*
X276000D02*
X277000Y276500D01*
X402547Y304377D02*
X403437Y303487D01*
X402547Y304377D02*
Y304566D01*
X329831Y325169D02*
X344500Y310500D01*
X399069Y308043D02*
X402547Y304566D01*
X344500Y310500D02*
X396424D01*
X398880Y308043D01*
X399069D01*
X527000Y259500D02*
Y271500D01*
X527500Y272000D01*
X526500Y271000D02*
X527000Y271500D01*
X527500Y272000D02*
Y309500D01*
X398695Y293827D02*
X403437Y298568D01*
X398695Y292731D02*
Y293827D01*
X403437Y298568D02*
Y303487D01*
X329831Y326826D02*
X331953Y328948D01*
X319047Y335953D02*
X329051D01*
X331953Y333051D01*
X329831Y325169D02*
Y326826D01*
X331953Y328948D02*
Y333051D01*
X276500Y378500D02*
X319047Y335953D01*
X337500Y330051D02*
Y363500D01*
X343000Y369000D01*
X212000Y203433D02*
X235067Y226500D01*
X238513Y248935D02*
X240000Y250422D01*
X202500Y185000D02*
Y212500D01*
X240000Y250422D02*
Y251500D01*
X238513Y248513D02*
Y248935D01*
X202500Y212500D02*
X238513Y248513D01*
X183500Y166000D02*
X202500Y185000D01*
X180000Y137000D02*
X198000D01*
X207500Y146500D01*
Y209000D01*
X240000Y241500D01*
X212000Y148000D02*
Y203433D01*
X179000Y136000D02*
X180000Y137000D01*
X204000Y66500D02*
X321500Y184000D01*
X204000Y66000D02*
Y66500D01*
X245000Y93500D02*
X341500Y190000D01*
X208500Y53000D02*
Y66757D01*
X331500Y189757D01*
X245000Y79000D02*
Y93500D01*
X230500Y64500D02*
X245000Y79000D01*
X195000Y39500D02*
X208500Y53000D01*
X194500Y39500D02*
X195000D01*
X521500Y113000D02*
Y190000D01*
X520500Y112000D02*
X521500Y113000D01*
X513500Y198000D02*
X521500Y190000D01*
X374185Y117315D02*
Y175183D01*
Y117315D02*
X378000Y113500D01*
X374185Y175183D02*
X381500Y182498D01*
X396500Y331000D02*
X432500Y367000D01*
X446500Y256500D02*
X454000D01*
X446000D02*
X446500D01*
X454000D02*
X469500Y272000D01*
X248000Y330000D02*
X264500D01*
X233500Y315500D02*
X248000Y330000D01*
X432500Y367000D02*
Y420450D01*
X422257Y418500D02*
X429500Y411257D01*
X416000Y418500D02*
X422257D01*
X423450Y389500D02*
X429500Y395550D01*
X410953Y414047D02*
X417957D01*
X406000Y389500D02*
X423450D01*
X423116Y412691D02*
X423308Y412500D01*
X419313Y412691D02*
X423116D01*
X429500Y395550D02*
Y411257D01*
X423950Y429000D02*
X432500Y420450D01*
X417957Y414047D02*
X419313Y412691D01*
X416000Y429000D02*
X423950D01*
X407276Y417724D02*
X410953Y414047D01*
X416000Y409000D02*
X421000Y404000D01*
X425809Y396809D02*
X426000Y397000D01*
X420504Y421500D02*
X426500D01*
X421000Y400000D02*
Y404000D01*
X418051Y423953D02*
X420504Y421500D01*
X422758Y396809D02*
X425809D01*
X403948Y423953D02*
X418051D01*
X401500Y393000D02*
X414547D01*
X422450Y396500D02*
X422758Y396809D01*
X410000Y396500D02*
X422450D01*
X394328Y412172D02*
X410000Y396500D01*
X357000Y331000D02*
X401500Y375500D01*
Y392500D01*
X404253Y409747D02*
X405500Y408500D01*
X348000Y332000D02*
X392500Y376500D01*
Y410343D01*
X394328Y412172D01*
Y413828D01*
X395500Y415000D01*
Y425500D01*
X399000Y411743D02*
X400995Y409747D01*
X399000Y419004D02*
X403948Y423953D01*
X399000Y411743D02*
Y419004D01*
X400995Y409747D02*
X404253D01*
X395500Y425500D02*
X399000Y429000D01*
X405500D01*
X406224Y417724D02*
X407276D01*
X526000Y258500D02*
X527000Y259500D01*
X132500Y151500D02*
X133000Y151000D01*
X133500D01*
X134500Y150000D01*
Y138500D02*
Y150000D01*
D95*
X49500Y12000D02*
D03*
Y32000D02*
D03*
Y52000D02*
D03*
Y72000D02*
D03*
X130500Y477000D02*
D03*
X90500D02*
D03*
X110500D02*
D03*
X43000Y116000D02*
D03*
Y136000D02*
D03*
Y156000D02*
D03*
Y176000D02*
D03*
D96*
X281500Y225500D02*
D03*
X291500D02*
D03*
X301500D02*
D03*
X311500D02*
D03*
X321500D02*
D03*
X331500D02*
D03*
X341500D02*
D03*
X351500D02*
D03*
X361500D02*
D03*
X371500D02*
D03*
X381500D02*
D03*
X452000Y370000D02*
D03*
X462000D02*
D03*
X472000D02*
D03*
X482000D02*
D03*
X492000D02*
D03*
X502000D02*
D03*
X512000D02*
D03*
X462000Y477500D02*
D03*
X472000D02*
D03*
X482000D02*
D03*
X492000D02*
D03*
X502000D02*
D03*
X512000D02*
D03*
X522000D02*
D03*
X297000Y331000D02*
D03*
X307000D02*
D03*
X317000D02*
D03*
X327000D02*
D03*
X337000D02*
D03*
X347000D02*
D03*
X357000D02*
D03*
X367000D02*
D03*
X377000D02*
D03*
X387000D02*
D03*
X397000D02*
D03*
X446500Y266500D02*
D03*
Y256500D02*
D03*
Y276500D02*
D03*
Y286500D02*
D03*
X416000Y409000D02*
D03*
X406000D02*
D03*
X416000Y419000D02*
D03*
X406000D02*
D03*
X416000Y429000D02*
D03*
X406000D02*
D03*
X416000Y439000D02*
D03*
D97*
X391500Y225500D02*
D03*
X522000Y370000D02*
D03*
X452000Y477500D02*
D03*
X287000Y331000D02*
D03*
D98*
X606000Y280000D02*
D03*
Y270000D02*
D03*
Y260000D02*
D03*
D99*
X598000Y384000D02*
D03*
X588000D02*
D03*
X578000D02*
D03*
X568000D02*
D03*
X240000Y251500D02*
D03*
Y241500D02*
D03*
Y231500D02*
D03*
X513500Y198000D02*
D03*
Y208000D02*
D03*
X513000Y276500D02*
D03*
Y286500D02*
D03*
X553500Y319500D02*
D03*
Y309500D02*
D03*
Y299500D02*
D03*
D100*
X558000Y384000D02*
D03*
D101*
X57000Y439900D02*
D03*
Y464500D02*
D03*
D102*
X38100Y451700D02*
D03*
D103*
X136500Y392000D02*
D03*
Y407000D02*
D03*
D104*
X278500Y297185D02*
D03*
Y287343D02*
D03*
X396610Y272579D02*
D03*
X298185Y302106D02*
D03*
X317870Y243051D02*
D03*
X308028Y302106D02*
D03*
Y243051D02*
D03*
X278500Y277500D02*
D03*
X317870Y302106D02*
D03*
X288342D02*
D03*
Y243051D02*
D03*
X298185D02*
D03*
X327713D02*
D03*
X337555D02*
D03*
X347398D02*
D03*
X357240D02*
D03*
X367083D02*
D03*
X376925D02*
D03*
X386768D02*
D03*
X396610D02*
D03*
Y302106D02*
D03*
X386768D02*
D03*
X376925D02*
D03*
X367083D02*
D03*
X357240D02*
D03*
X347398D02*
D03*
X337555D02*
D03*
X327713D02*
D03*
X396610Y292264D02*
D03*
Y282421D02*
D03*
X322791Y292264D02*
D03*
X332634D02*
D03*
X278500Y247972D02*
D03*
Y257815D02*
D03*
Y267657D02*
D03*
D105*
X240000Y261500D02*
D03*
X513500Y188000D02*
D03*
X513000Y266500D02*
D03*
X553500Y329500D02*
D03*
D106*
X446500Y296500D02*
D03*
X406000Y439000D02*
D03*
D107*
X589000Y201500D02*
D03*
D108*
X579000D02*
D03*
D109*
X523126Y47622D02*
D03*
X579032Y71244D02*
D03*
Y23244D02*
D03*
X531000Y71244D02*
D03*
Y24000D02*
D03*
D110*
X609000Y22450D02*
D03*
Y62500D02*
D03*
Y42500D02*
D03*
D111*
X281000Y181500D02*
D03*
X271000D02*
D03*
X291000D02*
D03*
X301000D02*
D03*
X311000D02*
D03*
X435500Y178000D02*
D03*
X425500D02*
D03*
D112*
X261000Y181500D02*
D03*
X415500Y178000D02*
D03*
D113*
X402500Y111500D02*
D03*
X527500Y309500D02*
D03*
X245500Y300500D02*
D03*
X212000Y148000D02*
D03*
X183500Y166000D02*
D03*
X179000Y136000D02*
D03*
X204000Y66000D02*
D03*
X194500Y39500D02*
D03*
X230500Y64500D02*
D03*
X520500Y112000D02*
D03*
X378000Y113500D02*
D03*
X469500Y272000D02*
D03*
X233500Y315500D02*
D03*
X343000Y369000D02*
D03*
X276500Y378500D02*
D03*
X423308Y412500D02*
D03*
X426500Y421500D02*
D03*
X421000Y400000D02*
D03*
X426000Y397000D02*
D03*
X406000Y389500D02*
D03*
X414547Y393000D02*
D03*
X526000Y258500D02*
D03*
X527000Y271500D02*
D03*
X133500Y151000D02*
D03*
X134500Y138500D02*
D03*
M02*
