G04*
G04 #@! TF.GenerationSoftware,Altium Limited,Altium Designer,21.3.2 (30)*
G04*
G04 Layer_Color=128*
%FSLAX25Y25*%
%MOIN*%
G70*
G04*
G04 #@! TF.SameCoordinates,10CE30CE-E8E0-4787-B949-24FF183F481C*
G04*
G04*
G04 #@! TF.FilePolarity,Positive*
G04*
G01*
G75*
%ADD116C,0.00200*%
D116*
X46500Y12000D02*
X52500D01*
X49500Y9000D02*
Y15000D01*
X46500Y32000D02*
X52500D01*
X49500Y29000D02*
Y35000D01*
X46500Y52000D02*
X52500D01*
X49500Y49000D02*
Y55000D01*
X46500Y72000D02*
X52500D01*
X49500Y69000D02*
Y75000D01*
X279728Y225500D02*
X283272D01*
X281500Y223728D02*
Y227272D01*
X289728Y225500D02*
X293272D01*
X291500Y223728D02*
Y227272D01*
X299728Y225500D02*
X303272D01*
X301500Y223728D02*
Y227272D01*
X309728Y225500D02*
X313272D01*
X311500Y223728D02*
Y227272D01*
X319728Y225500D02*
X323272D01*
X321500Y223728D02*
Y227272D01*
X329728Y225500D02*
X333272D01*
X331500Y223728D02*
Y227272D01*
X339728Y225500D02*
X343272D01*
X341500Y223728D02*
Y227272D01*
X349728Y225500D02*
X353272D01*
X351500Y223728D02*
Y227272D01*
X359728Y225500D02*
X363272D01*
X361500Y223728D02*
Y227272D01*
X369728Y225500D02*
X373272D01*
X371500Y223728D02*
Y227272D01*
X379728Y225500D02*
X383272D01*
X381500Y223728D02*
Y227272D01*
X389728Y225500D02*
X393272D01*
X391500Y223728D02*
Y227272D01*
X450228Y370000D02*
X453772D01*
X452000Y368228D02*
Y371772D01*
X460228Y370000D02*
X463772D01*
X462000Y368228D02*
Y371772D01*
X470228Y370000D02*
X473772D01*
X472000Y368228D02*
Y371772D01*
X480228Y370000D02*
X483772D01*
X482000Y368228D02*
Y371772D01*
X490228Y370000D02*
X493772D01*
X492000Y368228D02*
Y371772D01*
X500228Y370000D02*
X503772D01*
X502000Y368228D02*
Y371772D01*
X510228Y370000D02*
X513772D01*
X512000Y368228D02*
Y371772D01*
X520228Y370000D02*
X523772D01*
X522000Y368228D02*
Y371772D01*
X450228Y477500D02*
X453772D01*
X452000Y475728D02*
Y479272D01*
X460228Y477500D02*
X463772D01*
X462000Y475728D02*
Y479272D01*
X470228Y477500D02*
X473772D01*
X472000Y475728D02*
Y479272D01*
X480228Y477500D02*
X483772D01*
X482000Y475728D02*
Y479272D01*
X490228Y477500D02*
X493772D01*
X492000Y475728D02*
Y479272D01*
X500228Y477500D02*
X503772D01*
X502000Y475728D02*
Y479272D01*
X510228Y477500D02*
X513772D01*
X512000Y475728D02*
Y479272D01*
X520228Y477500D02*
X523772D01*
X522000Y475728D02*
Y479272D01*
X604032Y280000D02*
X607969D01*
X606000Y278031D02*
Y281968D01*
X604032Y270000D02*
X607969D01*
X606000Y268032D02*
Y271969D01*
X604032Y260000D02*
X607969D01*
X606000Y258032D02*
Y261968D01*
X595992Y384000D02*
X600008D01*
X598000Y381992D02*
Y386008D01*
X585992Y384000D02*
X590008D01*
X588000Y381992D02*
Y386008D01*
X575992Y384000D02*
X580008D01*
X578000Y381992D02*
Y386008D01*
X565992Y384000D02*
X570008D01*
X568000Y381992D02*
Y386008D01*
X555992Y384000D02*
X560008D01*
X558000Y381992D02*
Y386008D01*
X56016Y439900D02*
X57984D01*
X57000Y438916D02*
Y440884D01*
X56016Y464500D02*
X57984D01*
X57000Y463516D02*
Y465484D01*
X32687Y451700D02*
X43513D01*
X38100Y446287D02*
Y457113D01*
X127500Y477000D02*
X133500D01*
X130500Y474000D02*
Y480000D01*
X87500Y477000D02*
X93500D01*
X90500Y474000D02*
Y480000D01*
X107500Y477000D02*
X113500D01*
X110500Y474000D02*
Y480000D01*
X134500Y392000D02*
X138500D01*
X136500Y390000D02*
Y394000D01*
X134500Y407000D02*
X138500D01*
X136500Y405000D02*
Y409000D01*
X285228Y331000D02*
X288772D01*
X287000Y329228D02*
Y332772D01*
X295228Y331000D02*
X298772D01*
X297000Y329228D02*
Y332772D01*
X305228Y331000D02*
X308772D01*
X307000Y329228D02*
Y332772D01*
X315228Y331000D02*
X318772D01*
X317000Y329228D02*
Y332772D01*
X325228Y331000D02*
X328772D01*
X327000Y329228D02*
Y332772D01*
X335228Y331000D02*
X338772D01*
X337000Y329228D02*
Y332772D01*
X345228Y331000D02*
X348772D01*
X347000Y329228D02*
Y332772D01*
X355228Y331000D02*
X358772D01*
X357000Y329228D02*
Y332772D01*
X365228Y331000D02*
X368772D01*
X367000Y329228D02*
Y332772D01*
X375228Y331000D02*
X378772D01*
X377000Y329228D02*
Y332772D01*
X385228Y331000D02*
X388772D01*
X387000Y329228D02*
Y332772D01*
X395228Y331000D02*
X398772D01*
X397000Y329228D02*
Y332772D01*
X237516Y19953D02*
X250508D01*
X244012Y13457D02*
Y26449D01*
X332004Y20000D02*
X344996D01*
X338500Y13504D02*
Y26496D01*
X332004Y145937D02*
X344996D01*
X338500Y139441D02*
Y152433D01*
X237516Y145937D02*
X250508D01*
X244012Y139441D02*
Y152433D01*
X380516Y17453D02*
X393508D01*
X387012Y10957D02*
Y23949D01*
X276532Y297185D02*
X280469D01*
X278500Y295217D02*
Y299153D01*
X276532Y287343D02*
X280469D01*
X278500Y285374D02*
Y289311D01*
X394642Y272579D02*
X398579D01*
X396610Y270610D02*
Y274547D01*
X296217Y302106D02*
X300153D01*
X298185Y300138D02*
Y304075D01*
X315902Y243051D02*
X319839D01*
X317870Y241083D02*
Y245020D01*
X306059Y302106D02*
X309996D01*
X308028Y300138D02*
Y304075D01*
X306059Y243051D02*
X309996D01*
X308028Y241083D02*
Y245020D01*
X276532Y277500D02*
X280469D01*
X278500Y275532D02*
Y279468D01*
X315902Y302106D02*
X319839D01*
X317870Y300138D02*
Y304075D01*
X286374Y302106D02*
X290311D01*
X288342Y300138D02*
Y304075D01*
X286374Y243051D02*
X290311D01*
X288342Y241083D02*
Y245020D01*
X296217Y243051D02*
X300153D01*
X298185Y241083D02*
Y245020D01*
X325744Y243051D02*
X329681D01*
X327713Y241083D02*
Y245020D01*
X335587Y243051D02*
X339524D01*
X337555Y241083D02*
Y245020D01*
X345429Y243051D02*
X349366D01*
X347398Y241083D02*
Y245020D01*
X355272Y243051D02*
X359209D01*
X357240Y241083D02*
Y245020D01*
X365114Y243051D02*
X369051D01*
X367083Y241083D02*
Y245020D01*
X374957Y243051D02*
X378894D01*
X376925Y241083D02*
Y245020D01*
X384799Y243051D02*
X388736D01*
X386768Y241083D02*
Y245020D01*
X394642Y243051D02*
X398579D01*
X396610Y241083D02*
Y245020D01*
X394642Y302106D02*
X398579D01*
X396610Y300138D02*
Y304075D01*
X384799Y302106D02*
X388736D01*
X386768Y300138D02*
Y304075D01*
X374957Y302106D02*
X378894D01*
X376925Y300138D02*
Y304075D01*
X365114Y302106D02*
X369051D01*
X367083Y300138D02*
Y304075D01*
X355272Y302106D02*
X359209D01*
X357240Y300138D02*
Y304075D01*
X345429Y302106D02*
X349366D01*
X347398Y300138D02*
Y304075D01*
X335587Y302106D02*
X339524D01*
X337555Y300138D02*
Y304075D01*
X325744Y302106D02*
X329681D01*
X327713Y300138D02*
Y304075D01*
X394642Y292264D02*
X398579D01*
X396610Y290295D02*
Y294232D01*
X394642Y282421D02*
X398579D01*
X396610Y280453D02*
Y284390D01*
X320823Y292264D02*
X324760D01*
X322791Y290295D02*
Y294232D01*
X330665Y292264D02*
X334602D01*
X332634Y290295D02*
Y294232D01*
X276532Y247972D02*
X280469D01*
X278500Y246004D02*
Y249941D01*
X276532Y257815D02*
X280469D01*
X278500Y255847D02*
Y259784D01*
X276532Y267657D02*
X280469D01*
X278500Y265689D02*
Y269626D01*
X237992Y261500D02*
X242008D01*
X240000Y259492D02*
Y263508D01*
X237992Y251500D02*
X242008D01*
X240000Y249492D02*
Y253508D01*
X237992Y241500D02*
X242008D01*
X240000Y239492D02*
Y243508D01*
X237992Y231500D02*
X242008D01*
X240000Y229492D02*
Y233508D01*
X444728Y266500D02*
X448272D01*
X446500Y264728D02*
Y268272D01*
X444728Y256500D02*
X448272D01*
X446500Y254728D02*
Y258272D01*
X444728Y276500D02*
X448272D01*
X446500Y274728D02*
Y278272D01*
X444728Y286500D02*
X448272D01*
X446500Y284728D02*
Y288272D01*
X444728Y296500D02*
X448272D01*
X446500Y294728D02*
Y298272D01*
X40000Y116000D02*
X46000D01*
X43000Y113000D02*
Y119000D01*
X40000Y136000D02*
X46000D01*
X43000Y133000D02*
Y139000D01*
X40000Y156000D02*
X46000D01*
X43000Y153000D02*
Y159000D01*
X40000Y176000D02*
X46000D01*
X43000Y173000D02*
Y179000D01*
X511492Y188000D02*
X515508D01*
X513500Y185992D02*
Y190008D01*
X511492Y198000D02*
X515508D01*
X513500Y195992D02*
Y200008D01*
X511492Y208000D02*
X515508D01*
X513500Y205992D02*
Y210008D01*
X587000Y201500D02*
X591000D01*
X589000Y199500D02*
Y203500D01*
X577000Y201500D02*
X581000D01*
X579000Y199500D02*
Y203500D01*
X414228Y409000D02*
X417772D01*
X416000Y407228D02*
Y410772D01*
X404228Y409000D02*
X407772D01*
X406000Y407228D02*
Y410772D01*
X414228Y419000D02*
X417772D01*
X416000Y417228D02*
Y420772D01*
X404228Y419000D02*
X407772D01*
X406000Y417228D02*
Y420772D01*
X414228Y429000D02*
X417772D01*
X416000Y427228D02*
Y430772D01*
X404228Y429000D02*
X407772D01*
X406000Y427228D02*
Y430772D01*
X414228Y439000D02*
X417772D01*
X416000Y437228D02*
Y440772D01*
X404228Y439000D02*
X407772D01*
X406000Y437228D02*
Y440772D01*
X520876Y47622D02*
X525376D01*
X523126Y45372D02*
Y49872D01*
X576782Y71244D02*
X581282D01*
X579032Y68994D02*
Y73494D01*
X576782Y23244D02*
X581282D01*
X579032Y20994D02*
Y25494D01*
X528750Y71244D02*
X533250D01*
X531000Y68994D02*
Y73494D01*
X528750Y24000D02*
X533250D01*
X531000Y21750D02*
Y26250D01*
X606244Y22450D02*
X611756D01*
X609000Y19694D02*
Y25206D01*
X606244Y62500D02*
X611756D01*
X609000Y59744D02*
Y65256D01*
X606244Y42500D02*
X611756D01*
X609000Y39744D02*
Y45256D01*
X510992Y266500D02*
X515008D01*
X513000Y264492D02*
Y268508D01*
X510992Y276500D02*
X515008D01*
X513000Y274492D02*
Y278508D01*
X510992Y286500D02*
X515008D01*
X513000Y284492D02*
Y288508D01*
X279425Y181500D02*
X282575D01*
X281000Y179925D02*
Y183075D01*
X259425Y181500D02*
X262575D01*
X261000Y179925D02*
Y183075D01*
X269425Y181500D02*
X272575D01*
X271000Y179925D02*
Y183075D01*
X289425Y181500D02*
X292575D01*
X291000Y179925D02*
Y183075D01*
X299425Y181500D02*
X302575D01*
X301000Y179925D02*
Y183075D01*
X309425Y181500D02*
X312575D01*
X311000Y179925D02*
Y183075D01*
X551492Y329500D02*
X555508D01*
X553500Y327492D02*
Y331508D01*
X551492Y319500D02*
X555508D01*
X553500Y317492D02*
Y321508D01*
X551492Y309500D02*
X555508D01*
X553500Y307492D02*
Y311508D01*
X551492Y299500D02*
X555508D01*
X553500Y297492D02*
Y301508D01*
X433925Y178000D02*
X437075D01*
X435500Y176425D02*
Y179575D01*
X413925Y178000D02*
X417075D01*
X415500Y176425D02*
Y179575D01*
X423925Y178000D02*
X427075D01*
X425500Y176425D02*
Y179575D01*
X380516Y143437D02*
X393508D01*
X387012Y136941D02*
Y149933D01*
X475004Y17453D02*
X487996D01*
X481500Y10957D02*
Y23949D01*
X475004Y143437D02*
X487996D01*
X481500Y136941D02*
Y149933D01*
X401750Y111500D02*
X403250D01*
X402500Y110750D02*
Y112250D01*
X526750Y309500D02*
X528250D01*
X527500Y308750D02*
Y310250D01*
X244750Y300500D02*
X246250D01*
X245500Y299750D02*
Y301250D01*
X211250Y148000D02*
X212750D01*
X212000Y147250D02*
Y148750D01*
X182750Y166000D02*
X184250D01*
X183500Y165250D02*
Y166750D01*
X178250Y136000D02*
X179750D01*
X179000Y135250D02*
Y136750D01*
X203250Y66000D02*
X204750D01*
X204000Y65250D02*
Y66750D01*
X193750Y39500D02*
X195250D01*
X194500Y38750D02*
Y40250D01*
X229750Y64500D02*
X231250D01*
X230500Y63750D02*
Y65250D01*
X519750Y112000D02*
X521250D01*
X520500Y111250D02*
Y112750D01*
X377250Y113500D02*
X378750D01*
X378000Y112750D02*
Y114250D01*
X468750Y272000D02*
X470250D01*
X469500Y271250D02*
Y272750D01*
X232750Y315500D02*
X234250D01*
X233500Y314750D02*
Y316250D01*
X342250Y369000D02*
X343750D01*
X343000Y368250D02*
Y369750D01*
X275750Y378500D02*
X277250D01*
X276500Y377750D02*
Y379250D01*
X422558Y412500D02*
X424058D01*
X423308Y411750D02*
Y413250D01*
X425750Y421500D02*
X427250D01*
X426500Y420750D02*
Y422250D01*
X420250Y400000D02*
X421750D01*
X421000Y399250D02*
Y400750D01*
X425250Y397000D02*
X426750D01*
X426000Y396250D02*
Y397750D01*
X405250Y389500D02*
X406750D01*
X406000Y388750D02*
Y390250D01*
X413797Y393000D02*
X415297D01*
X414547Y392250D02*
Y393750D01*
X525250Y258500D02*
X526750D01*
X526000Y257750D02*
Y259250D01*
X526250Y271500D02*
X527750D01*
X527000Y270750D02*
Y272250D01*
X132750Y151000D02*
X134250D01*
X133500Y150250D02*
Y151750D01*
X133750Y138500D02*
X135250D01*
X134500Y137750D02*
Y139250D01*
M02*
