G04*
G04 #@! TF.GenerationSoftware,Altium Limited,Altium Designer,21.3.2 (30)*
G04*
G04 Layer_Color=65535*
%FSLAX25Y25*%
%MOIN*%
G70*
G04*
G04 #@! TF.SameCoordinates,10CE30CE-E8E0-4787-B949-24FF183F481C*
G04*
G04*
G04 #@! TF.FilePolarity,Positive*
G04*
G01*
G75*
%ADD10C,0.01000*%
%ADD11C,0.00500*%
%ADD12C,0.00400*%
%ADD13C,0.00700*%
%ADD14C,0.00787*%
%ADD15C,0.01200*%
%ADD16C,0.02500*%
%ADD17C,0.00800*%
%ADD18R,0.01968X0.03000*%
G36*
X72297Y436858D02*
X68497D01*
X68497Y437658D01*
X70297Y439458D01*
X72297Y436858D01*
D02*
G37*
D10*
X159500Y134500D02*
G03*
X154500Y134500I-2500J0D01*
G01*
X178500Y24000D02*
G03*
X173500Y24000I-2500J0D01*
G01*
X32500Y4500D02*
Y80500D01*
X67000D01*
Y4500D02*
Y80500D01*
X32500Y4500D02*
X67000D01*
X162000Y134500D02*
Y154500D01*
X152000D02*
X162000D01*
X152000Y134500D02*
Y154500D01*
Y134500D02*
X154500D01*
X159500D02*
X162000D01*
X32197Y498858D02*
X32596D01*
X32608Y498870D01*
X75500D01*
X40000Y436900D02*
X48000D01*
X66000D02*
X75500D01*
Y493400D01*
X40000D02*
X75500D01*
X32197Y493358D02*
X40196D01*
X32197Y436858D02*
Y493358D01*
Y436858D02*
X40196D01*
Y442358D01*
Y460858D02*
Y492858D01*
X75500Y493400D02*
Y498870D01*
X32197Y493358D02*
Y498602D01*
X67997Y493593D02*
Y498258D01*
X67949Y493640D02*
X70311Y496002D01*
X65981Y495609D02*
X67997Y493593D01*
X46802Y494121D02*
Y498158D01*
Y494121D02*
X48377Y495696D01*
X45227Y495696D02*
X46802Y494121D01*
X83000Y494000D02*
X138500D01*
Y459500D02*
Y494000D01*
X83000Y459500D02*
X138500D01*
X83000D02*
Y494000D01*
X76000Y372000D02*
X79000Y375000D01*
X101500D01*
X104500Y372000D01*
Y358000D02*
Y372000D01*
X101500Y355000D02*
X104500Y358000D01*
X79000Y355000D02*
X101500D01*
X76000Y358000D02*
X79000Y355000D01*
X76000Y358000D02*
Y372000D01*
X25500Y183500D02*
X60000D01*
X25500Y107500D02*
Y183500D01*
Y107500D02*
X60000D01*
Y183500D01*
X178500Y24000D02*
X181000D01*
X171000D02*
X173500D01*
X171000D02*
Y44000D01*
X181000D01*
Y24000D02*
Y44000D01*
X578486Y70872D02*
X578917Y71302D01*
X649000Y12450D02*
Y72500D01*
X601000Y12450D02*
Y72500D01*
X601500D02*
X649000D01*
X601000Y12450D02*
X649000D01*
X63181Y221532D02*
Y225075D01*
X60819Y221532D02*
Y225075D01*
X203000Y389000D02*
Y407500D01*
Y389000D02*
X207500Y384500D01*
X230000D01*
X235000Y389500D01*
Y407000D01*
X230500Y411500D02*
X235000Y407000D01*
X207000Y411500D02*
X230500D01*
X203000Y407500D02*
X207000Y411500D01*
X208001Y172499D02*
X207001Y173499D01*
X205002D01*
X204002Y172499D01*
Y168501D01*
X205002Y167501D01*
X207001D01*
X208001Y168501D01*
X211000Y171500D02*
X212999D01*
X213999Y170500D01*
Y167501D01*
X211000D01*
X210000Y168501D01*
X211000Y169500D01*
X213999D01*
X215998Y167501D02*
X217998D01*
X216998D01*
Y173499D01*
X215998Y172499D01*
X33000Y84000D02*
Y89998D01*
X35999D01*
X36999Y88998D01*
Y86999D01*
X35999Y85999D01*
X33000D01*
X39998Y88998D02*
Y87999D01*
X38998D01*
X40997D01*
X39998D01*
Y85000D01*
X40997Y84000D01*
X43996Y87999D02*
Y84000D01*
Y85999D01*
X44996Y86999D01*
X45996Y87999D01*
X46995D01*
X53993Y84000D02*
X49995D01*
X53993Y87999D01*
Y88998D01*
X52994Y89998D01*
X50994D01*
X49995Y88998D01*
X258502Y221501D02*
Y227499D01*
X261501D01*
X262500Y226499D01*
Y224500D01*
X261501Y223500D01*
X258502D01*
X268498Y221501D02*
X264500D01*
X268498Y225500D01*
Y226499D01*
X267499Y227499D01*
X265499D01*
X264500Y226499D01*
X412004Y367001D02*
Y372999D01*
X415003D01*
X416003Y371999D01*
Y370000D01*
X415003Y369000D01*
X412004D01*
X418002Y371000D02*
Y368001D01*
X419002Y367001D01*
X422001D01*
Y371000D01*
X424000Y367001D02*
X425999D01*
X425000D01*
Y372999D01*
X424000D01*
X428999Y371000D02*
Y367001D01*
Y369000D01*
X429998Y370000D01*
X430998Y371000D01*
X431998D01*
X434997Y367001D02*
X436996D01*
X435996D01*
Y372999D01*
X434997Y371999D01*
X537004Y474501D02*
Y480499D01*
X540003D01*
X541003Y479499D01*
Y477500D01*
X540003Y476500D01*
X537004D01*
X543002Y478500D02*
Y475501D01*
X544002Y474501D01*
X547001D01*
Y478500D01*
X549001Y474501D02*
X551000D01*
X550000D01*
Y480499D01*
X549001D01*
X553999Y478500D02*
Y474501D01*
Y476500D01*
X554998Y477500D01*
X555998Y478500D01*
X556998D01*
X563996Y474501D02*
X559997D01*
X563996Y478500D01*
Y479499D01*
X562996Y480499D01*
X560997D01*
X559997Y479499D01*
X45500Y337499D02*
X41502D01*
Y334500D01*
X43501D01*
X41502D01*
Y331501D01*
X51498D02*
X47500D01*
X51498Y335500D01*
Y336499D01*
X50499Y337499D01*
X48499D01*
X47500Y336499D01*
X179003Y149499D02*
Y144501D01*
X180003Y143501D01*
X182002D01*
X183002Y144501D01*
Y149499D01*
X186001Y148499D02*
Y147500D01*
X185001D01*
X187001D01*
X186001D01*
Y144501D01*
X187001Y143501D01*
X189999Y147500D02*
Y143501D01*
Y145500D01*
X190999Y146500D01*
X191999Y147500D01*
X192999D01*
X195998Y143501D02*
X197997D01*
X196997D01*
Y149499D01*
X195998Y148499D01*
X96004Y162001D02*
Y167999D01*
X99003D01*
X100003Y166999D01*
Y165000D01*
X99003Y164000D01*
X96004D01*
X98004D02*
X100003Y162001D01*
X102002Y160001D02*
Y165999D01*
X105001D01*
X106001Y165000D01*
Y163000D01*
X105001Y162001D01*
X102002D01*
X109000Y166999D02*
Y165999D01*
X108001D01*
X110000D01*
X109000D01*
Y163000D01*
X110000Y162001D01*
X112999Y165999D02*
Y162001D01*
Y164000D01*
X113999Y165000D01*
X114998Y165999D01*
X115998D01*
X122996Y162001D02*
X118997D01*
X122996Y165999D01*
Y166999D01*
X121996Y167999D01*
X119997D01*
X118997Y166999D01*
X150004Y12501D02*
Y18499D01*
X153003D01*
X154003Y17499D01*
Y15500D01*
X153003Y14500D01*
X150004D01*
X152004D02*
X154003Y12501D01*
X156002Y10501D02*
Y16499D01*
X159002D01*
X160001Y15500D01*
Y13500D01*
X159002Y12501D01*
X156002D01*
X163000Y17499D02*
Y16499D01*
X162001D01*
X164000D01*
X163000D01*
Y13500D01*
X164000Y12501D01*
X166999Y16499D02*
Y12501D01*
Y14500D01*
X167999Y15500D01*
X168998Y16499D01*
X169998D01*
X175996Y12501D02*
Y18499D01*
X172997Y15500D01*
X176996D01*
X447003Y55499D02*
X451001D01*
X449002D01*
Y49501D01*
X453001D02*
Y53500D01*
X456000D01*
X456999Y52500D01*
Y49501D01*
X462997Y55499D02*
X458999D01*
Y52500D01*
X460998Y53500D01*
X461998D01*
X462997Y52500D01*
Y50501D01*
X461998Y49501D01*
X459998D01*
X458999Y50501D01*
X467504Y91499D02*
Y85501D01*
X471502D01*
X477500Y91499D02*
X473502D01*
Y85501D01*
X477500D01*
X473502Y88500D02*
X475501D01*
X479500Y91499D02*
Y85501D01*
X482499D01*
X483498Y86501D01*
Y90499D01*
X482499Y91499D01*
X479500D01*
X485498Y90499D02*
X486497Y91499D01*
X488497D01*
X489497Y90499D01*
Y89500D01*
X488497Y88500D01*
X487497D01*
X488497D01*
X489497Y87500D01*
Y86501D01*
X488497Y85501D01*
X486497D01*
X485498Y86501D01*
X414503Y82499D02*
Y76501D01*
X417502D01*
X418502Y77501D01*
Y81499D01*
X417502Y82499D01*
X414503D01*
X420502Y80500D02*
Y76501D01*
Y78500D01*
X421501Y79500D01*
X422501Y80500D01*
X423500D01*
X426500Y76501D02*
X428499D01*
X427499D01*
Y82499D01*
X426500D01*
X435497Y76501D02*
X431498D01*
X435497Y80500D01*
Y81499D01*
X434497Y82499D01*
X432498D01*
X431498Y81499D01*
X478003Y123999D02*
Y118001D01*
X481002D01*
X482002Y119001D01*
Y122999D01*
X481002Y123999D01*
X478003D01*
X484001Y122000D02*
Y118001D01*
Y120000D01*
X485001Y121000D01*
X486000Y122000D01*
X487000D01*
X489999Y118001D02*
X491998D01*
X490999D01*
Y123999D01*
X489999D01*
X494998Y118001D02*
X496997D01*
X495997D01*
Y123999D01*
X494998Y122999D01*
X443003Y133001D02*
Y138999D01*
X446002D01*
X447002Y137999D01*
Y136000D01*
X446002Y135000D01*
X443003D01*
X445003D02*
X447002Y133001D01*
X449002Y137000D02*
Y133001D01*
Y135000D01*
X450001Y136000D01*
X451001Y137000D01*
X452001D01*
X454999Y133001D02*
X456999D01*
X455999D01*
Y138999D01*
X454999D01*
X459998Y137999D02*
X460998Y138999D01*
X462997D01*
X463997Y137999D01*
Y137000D01*
X462997Y136000D01*
X461997D01*
X462997D01*
X463997Y135000D01*
Y134001D01*
X462997Y133001D01*
X460998D01*
X459998Y134001D01*
X417003Y136001D02*
Y141999D01*
X420002D01*
X421002Y140999D01*
Y139000D01*
X420002Y138000D01*
X417003D01*
X419003D02*
X421002Y136001D01*
X423001Y140000D02*
Y136001D01*
Y138000D01*
X424001Y139000D01*
X425001Y140000D01*
X426000D01*
X429000Y136001D02*
X430999D01*
X429999D01*
Y141999D01*
X429000D01*
X437997Y136001D02*
X433998D01*
X437997Y140000D01*
Y140999D01*
X436997Y141999D01*
X434998D01*
X433998Y140999D01*
X390501Y123999D02*
X389502Y124999D01*
X387502D01*
X386503Y123999D01*
Y120001D01*
X387502Y119001D01*
X389502D01*
X390501Y120001D01*
X393500Y123000D02*
X395500D01*
X396499Y122000D01*
Y119001D01*
X393500D01*
X392501Y120001D01*
X393500Y121000D01*
X396499D01*
X398499Y123999D02*
X399498Y124999D01*
X401498D01*
X402497Y123999D01*
Y123000D01*
X401498Y122000D01*
X400498D01*
X401498D01*
X402497Y121000D01*
Y120001D01*
X401498Y119001D01*
X399498D01*
X398499Y120001D01*
X506503Y144001D02*
Y149999D01*
X509502D01*
X510502Y148999D01*
Y147000D01*
X509502Y146000D01*
X506503D01*
X508502D02*
X510502Y144001D01*
X513501Y148999D02*
Y148000D01*
X512501D01*
X514501D01*
X513501D01*
Y145001D01*
X514501Y144001D01*
X517499Y148000D02*
Y144001D01*
Y146000D01*
X518499Y147000D01*
X519499Y148000D01*
X520499D01*
X523498Y144001D02*
X525497D01*
X524497D01*
Y149999D01*
X523498Y148999D01*
X510001Y245499D02*
X509002Y246499D01*
X507002D01*
X506003Y245499D01*
Y241501D01*
X507002Y240501D01*
X509002D01*
X510001Y241501D01*
X513000Y244500D02*
X515000D01*
X515999Y243500D01*
Y240501D01*
X513000D01*
X512001Y241501D01*
X513000Y242500D01*
X515999D01*
X520998Y240501D02*
Y246499D01*
X517999Y243500D01*
X521997D01*
X601001Y248499D02*
X599002D01*
X600002D01*
Y243501D01*
X599002Y242501D01*
X598002D01*
X597003Y243501D01*
X603001Y246500D02*
Y242501D01*
Y244500D01*
X604000Y245500D01*
X605000Y246500D01*
X606000D01*
X611998Y242501D02*
X609998D01*
X608999Y243501D01*
Y245500D01*
X609998Y246500D01*
X611998D01*
X612997Y245500D01*
Y244500D01*
X608999D01*
X547501Y375999D02*
X546502Y376999D01*
X544502D01*
X543503Y375999D01*
Y372001D01*
X544502Y371001D01*
X546502D01*
X547501Y372001D01*
X550500Y375000D02*
X552500D01*
X553499Y374000D01*
Y371001D01*
X550500D01*
X549501Y372001D01*
X550500Y373000D01*
X553499D01*
X555499Y376999D02*
X559497D01*
Y375999D01*
X555499Y372001D01*
Y371001D01*
X574002Y405499D02*
X572003D01*
X573003D01*
Y400501D01*
X572003Y399501D01*
X571003D01*
X570004Y400501D01*
X576002Y399501D02*
Y405499D01*
X579001D01*
X580000Y404499D01*
Y402500D01*
X579001Y401500D01*
X576002D01*
X582999Y403500D02*
X584999D01*
X585998Y402500D01*
Y399501D01*
X582999D01*
X582000Y400501D01*
X582999Y401500D01*
X585998D01*
X587998Y399501D02*
X590997D01*
X591996Y400501D01*
X590997Y401500D01*
X588997D01*
X587998Y402500D01*
X588997Y403500D01*
X591996D01*
X524001Y339999D02*
X523002Y340999D01*
X521002D01*
X520003Y339999D01*
Y336001D01*
X521002Y335001D01*
X523002D01*
X524001Y336001D01*
X527000Y339000D02*
X529000D01*
X529999Y338000D01*
Y335001D01*
X527000D01*
X526001Y336001D01*
X527000Y337000D01*
X529999D01*
X535997Y340999D02*
X531999D01*
Y338000D01*
X533998Y339000D01*
X534998D01*
X535997Y338000D01*
Y336001D01*
X534998Y335001D01*
X532998D01*
X531999Y336001D01*
X453501Y341499D02*
X452502Y342499D01*
X450502D01*
X449503Y341499D01*
Y337501D01*
X450502Y336501D01*
X452502D01*
X453501Y337501D01*
X456500Y340500D02*
X458500D01*
X459499Y339500D01*
Y336501D01*
X456500D01*
X455501Y337501D01*
X456500Y338500D01*
X459499D01*
X465497Y342499D02*
X463498Y341499D01*
X461499Y339500D01*
Y337501D01*
X462498Y336501D01*
X464498D01*
X465497Y337501D01*
Y338500D01*
X464498Y339500D01*
X461499D01*
X344003Y400001D02*
Y405999D01*
X347002D01*
X348001Y404999D01*
Y403000D01*
X347002Y402000D01*
X344003D01*
X346002D02*
X348001Y400001D01*
X350001D02*
Y404000D01*
X353000D01*
X353999Y403000D01*
Y400001D01*
X359997Y405999D02*
X355999D01*
Y403000D01*
X357998Y404000D01*
X358998D01*
X359997Y403000D01*
Y401001D01*
X358998Y400001D01*
X356998D01*
X355999Y401001D01*
X303002Y362499D02*
X302003Y363499D01*
X300003D01*
X299004Y362499D01*
Y358501D01*
X300003Y357501D01*
X302003D01*
X303002Y358501D01*
X305002Y363499D02*
Y357501D01*
Y360500D01*
X306001Y361500D01*
X308001D01*
X309000Y360500D01*
Y357501D01*
X311999Y361500D02*
X313999D01*
X314998Y360500D01*
Y357501D01*
X311999D01*
X311000Y358501D01*
X311999Y359500D01*
X314998D01*
X320996Y357501D02*
X316998D01*
X320996Y361500D01*
Y362499D01*
X319997Y363499D01*
X317997D01*
X316998Y362499D01*
X261503Y390001D02*
Y395999D01*
X264502D01*
X265501Y394999D01*
Y393000D01*
X264502Y392000D01*
X261503D01*
X263502D02*
X265501Y390001D01*
X267501D02*
Y394000D01*
X270500D01*
X271499Y393000D01*
Y390001D01*
X273499Y394999D02*
X274498Y395999D01*
X276498D01*
X277497Y394999D01*
Y394000D01*
X276498Y393000D01*
X277497Y392000D01*
Y391001D01*
X276498Y390001D01*
X274498D01*
X273499Y391001D01*
Y392000D01*
X274498Y393000D01*
X273499Y394000D01*
Y394999D01*
X274498Y393000D02*
X276498D01*
X242503Y383501D02*
Y389499D01*
X245502D01*
X246501Y388499D01*
Y386500D01*
X245502Y385500D01*
X242503D01*
X244502D02*
X246501Y383501D01*
X248501D02*
Y387500D01*
X251500D01*
X252499Y386500D01*
Y383501D01*
X254499Y384501D02*
X255498Y383501D01*
X257498D01*
X258497Y384501D01*
Y388499D01*
X257498Y389499D01*
X255498D01*
X254499Y388499D01*
Y387500D01*
X255498Y386500D01*
X258497D01*
X186502Y425499D02*
Y420501D01*
X187502Y419501D01*
X189501D01*
X190501Y420501D01*
Y425499D01*
X192500Y419501D02*
Y423500D01*
X195499D01*
X196499Y422500D01*
Y419501D01*
X198498D02*
X200498D01*
X199498D01*
Y425499D01*
X198498Y424499D01*
X229003Y428499D02*
X228003Y429499D01*
X226004D01*
X225004Y428499D01*
Y424501D01*
X226004Y423501D01*
X228003D01*
X229003Y424501D01*
X231002Y429499D02*
Y423501D01*
X234001D01*
X235001Y424501D01*
Y425500D01*
Y426500D01*
X234001Y427500D01*
X231002D01*
X237000Y423501D02*
X239999D01*
X240999Y424501D01*
X239999Y425500D01*
X238000D01*
X237000Y426500D01*
X238000Y427500D01*
X240999D01*
X243998Y428499D02*
Y427500D01*
X242998D01*
X244998D01*
X243998D01*
Y424501D01*
X244998Y423501D01*
X247997D02*
X249996D01*
X248996D01*
Y429499D01*
X247997Y428499D01*
X219501Y379999D02*
X218502Y380999D01*
X216502D01*
X215503Y379999D01*
Y376001D01*
X216502Y375001D01*
X218502D01*
X219501Y376001D01*
X221501Y375001D02*
Y379000D01*
X224500D01*
X225499Y378000D01*
Y375001D01*
X227499Y379999D02*
X228498Y380999D01*
X230498D01*
X231497Y379999D01*
Y379000D01*
X230498Y378000D01*
X231497Y377000D01*
Y376001D01*
X230498Y375001D01*
X228498D01*
X227499Y376001D01*
Y377000D01*
X228498Y378000D01*
X227499Y379000D01*
Y379999D01*
X228498Y378000D02*
X230498D01*
X181001Y367499D02*
X180002Y368499D01*
X178002D01*
X177003Y367499D01*
Y363501D01*
X178002Y362501D01*
X180002D01*
X181001Y363501D01*
X183001Y362501D02*
Y366500D01*
X186000D01*
X186999Y365500D01*
Y362501D01*
X188999Y368499D02*
X192997D01*
Y367499D01*
X188999Y363501D01*
Y362501D01*
X146502Y315499D02*
X150501D01*
X148502D01*
Y309501D01*
X152500D02*
Y313500D01*
X155499D01*
X156499Y312500D01*
Y309501D01*
X158498D02*
X160498D01*
X159498D01*
Y315499D01*
X158498Y314499D01*
X85500Y450499D02*
X83501D01*
X84501D01*
Y445501D01*
X83501Y444501D01*
X82501D01*
X81502Y445501D01*
X87500Y444501D02*
Y448500D01*
X90499D01*
X91498Y447500D01*
Y444501D01*
X153501Y480499D02*
X151502D01*
X152501D01*
Y475501D01*
X151502Y474501D01*
X150502D01*
X149502Y475501D01*
X155500Y474501D02*
Y478500D01*
X158499D01*
X159499Y477500D01*
Y474501D01*
X161498D02*
X163498D01*
X162498D01*
Y480499D01*
X161498Y479499D01*
X171002Y392501D02*
Y398499D01*
X174001D01*
X175000Y397499D01*
Y395500D01*
X174001Y394500D01*
X171002D01*
X173001D02*
X175000Y392501D01*
X180998Y398499D02*
X177000D01*
Y395500D01*
X178999Y396500D01*
X179999D01*
X180998Y395500D01*
Y393501D01*
X179999Y392501D01*
X177999D01*
X177000Y393501D01*
X159002Y412501D02*
Y418499D01*
X162001D01*
X163000Y417499D01*
Y415500D01*
X162001Y414500D01*
X159002D01*
X161001D02*
X163000Y412501D01*
X165000Y418499D02*
X168998D01*
Y417499D01*
X165000Y413501D01*
Y412501D01*
X133501Y422999D02*
X132502Y423999D01*
X130502D01*
X129503Y422999D01*
Y419001D01*
X130502Y418001D01*
X132502D01*
X133501Y419001D01*
X135501Y418001D02*
Y422000D01*
X138500D01*
X139499Y421000D01*
Y418001D01*
X145497Y423999D02*
X143498Y422999D01*
X141499Y421000D01*
Y419001D01*
X142498Y418001D01*
X144498D01*
X145497Y419001D01*
Y420000D01*
X144498Y421000D01*
X141499D01*
X56003Y425999D02*
Y420001D01*
X59002D01*
X60002Y421001D01*
Y424999D01*
X59002Y425999D01*
X56003D01*
X62001D02*
Y420001D01*
X65000D01*
X66000Y421001D01*
Y422000D01*
Y423000D01*
X65000Y424000D01*
X62001D01*
X67999D02*
X69999Y420001D01*
X71998Y424000D01*
X73997Y420001D02*
X75997D01*
X74997D01*
Y425999D01*
X73997Y424999D01*
X33003Y426499D02*
Y420501D01*
X36002D01*
X37001Y421501D01*
Y425499D01*
X36002Y426499D01*
X33003D01*
X39001Y420501D02*
Y426499D01*
X42999Y420501D01*
Y426499D01*
X44999Y425499D02*
X45998Y426499D01*
X47998D01*
X48997Y425499D01*
Y424500D01*
X47998Y423500D01*
X46998D01*
X47998D01*
X48997Y422500D01*
Y421501D01*
X47998Y420501D01*
X45998D01*
X44999Y421501D01*
X282600Y339400D02*
Y345398D01*
X285599D01*
X286599Y344398D01*
Y342399D01*
X285599Y341399D01*
X282600D01*
X288598Y339400D02*
X290597D01*
X289598D01*
Y345398D01*
X288598Y344398D01*
X275200Y310400D02*
Y314399D01*
X277199Y316398D01*
X279199Y314399D01*
Y310400D01*
Y313399D01*
X275200D01*
X281198Y310400D02*
Y316398D01*
X284197D01*
X285197Y315398D01*
Y313399D01*
X284197Y312399D01*
X281198D01*
X283197D02*
X285197Y310400D01*
X287196Y316398D02*
Y310400D01*
X290195D01*
X291195Y311400D01*
Y315398D01*
X290195Y316398D01*
X287196D01*
X293194D02*
Y311400D01*
X294194Y310400D01*
X296193D01*
X297193Y311400D01*
Y316398D01*
X299192D02*
X301192D01*
X300192D01*
Y310400D01*
X299192D01*
X301192D01*
X304191D02*
Y316398D01*
X308189Y310400D01*
Y316398D01*
X313188D02*
X311188D01*
X310189Y315398D01*
Y311400D01*
X311188Y310400D01*
X313188D01*
X314187Y311400D01*
Y315398D01*
X313188Y316398D01*
X316187Y309400D02*
X320185D01*
X322185Y310400D02*
Y316398D01*
X324184Y314399D01*
X326184Y316398D01*
Y310400D01*
X328183Y316398D02*
X330182D01*
X329183D01*
Y310400D01*
X328183D01*
X330182D01*
X333181D02*
Y316398D01*
X337180Y310400D01*
Y316398D01*
X339179D02*
X341179D01*
X340179D01*
Y310400D01*
X339179D01*
X341179D01*
X344178Y309400D02*
X348176D01*
X350176Y310400D02*
Y316398D01*
X353175D01*
X354174Y315398D01*
Y313399D01*
X353175Y312399D01*
X350176D01*
X356174Y310400D02*
Y316398D01*
X359173D01*
X360173Y315398D01*
Y313399D01*
X359173Y312399D01*
X356174D01*
X358173D02*
X360173Y310400D01*
X365171Y316398D02*
X363172D01*
X362172Y315398D01*
Y311400D01*
X363172Y310400D01*
X365171D01*
X366171Y311400D01*
Y315398D01*
X365171Y316398D01*
X239599Y276898D02*
X237599D01*
X238599D01*
Y271900D01*
X237599Y270900D01*
X236600D01*
X235600Y271900D01*
X241598Y270900D02*
Y276898D01*
X244597D01*
X245597Y275898D01*
Y273899D01*
X244597Y272899D01*
X241598D01*
X247596Y270900D02*
X250595D01*
X251595Y271900D01*
X250595Y272899D01*
X248596D01*
X247596Y273899D01*
X248596Y274899D01*
X251595D01*
X257593D02*
X254594D01*
X253594Y273899D01*
Y271900D01*
X254594Y270900D01*
X257593D01*
X262591D02*
Y276898D01*
X259592Y273899D01*
X263591D01*
X288500Y419898D02*
Y415899D01*
X290499Y413900D01*
X292499Y415899D01*
Y419898D01*
X294498Y413900D02*
Y419898D01*
X297497D01*
X298497Y418898D01*
Y416899D01*
X297497Y415899D01*
X294498D01*
X296497D02*
X298497Y413900D01*
X300496D02*
X302496D01*
X301496D01*
Y419898D01*
X300496Y418898D01*
X161600Y53498D02*
Y48500D01*
X162600Y47500D01*
X164599D01*
X165599Y48500D01*
Y53498D01*
X168598Y52498D02*
Y51499D01*
X167598D01*
X169597D01*
X168598D01*
Y48500D01*
X169597Y47500D01*
X172596Y51499D02*
Y47500D01*
Y49499D01*
X173596Y50499D01*
X174596Y51499D01*
X175595D01*
X182593Y47500D02*
X178595D01*
X182593Y51499D01*
Y52498D01*
X181594Y53498D01*
X179594D01*
X178595Y52498D01*
X450000Y470998D02*
Y466000D01*
X451000Y465000D01*
X452999D01*
X453999Y466000D01*
Y470998D01*
X455998Y465000D02*
X457997D01*
X456998D01*
Y470998D01*
X455998D01*
X460996Y468999D02*
Y465000D01*
Y466999D01*
X461996Y467999D01*
X462996Y468999D01*
X463996D01*
X247800Y367398D02*
X251799D01*
X249799D01*
Y361400D01*
X253798D02*
Y365399D01*
X256797D01*
X257797Y364399D01*
Y361400D01*
X259796Y367398D02*
X263795D01*
Y366398D01*
X259796Y362400D01*
Y361400D01*
X579300Y193898D02*
X583299D01*
X581299D01*
Y187900D01*
X585298D02*
Y191899D01*
X588297D01*
X589297Y190899D01*
Y187900D01*
X595295Y193898D02*
X593295Y192898D01*
X591296Y190899D01*
Y188900D01*
X592296Y187900D01*
X594295D01*
X595295Y188900D01*
Y189899D01*
X594295Y190899D01*
X591296D01*
X367900Y433398D02*
X371899D01*
X369899D01*
Y427400D01*
X373898D02*
Y431399D01*
X376897D01*
X377897Y430399D01*
Y427400D01*
X382895D02*
Y433398D01*
X379896Y430399D01*
X383895D01*
X54100Y297398D02*
X58099D01*
X56099D01*
Y291400D01*
X60098D02*
Y295399D01*
X63097D01*
X64097Y294399D01*
Y291400D01*
X70095D02*
X66096D01*
X70095Y295399D01*
Y296398D01*
X69095Y297398D01*
X67096D01*
X66096Y296398D01*
X362900Y121600D02*
Y127598D01*
X365899D01*
X366899Y126598D01*
Y124599D01*
X365899Y123599D01*
X362900D01*
X364899D02*
X366899Y121600D01*
X368898Y125599D02*
Y121600D01*
Y123599D01*
X369898Y124599D01*
X370897Y125599D01*
X371897D01*
X374896Y121600D02*
X376895D01*
X375896D01*
Y127598D01*
X374896D01*
X379894Y121600D02*
X381894D01*
X380894D01*
Y127598D01*
X379894Y126598D01*
X544900Y255100D02*
Y261098D01*
X547899D01*
X548899Y260098D01*
Y258099D01*
X547899Y257099D01*
X544900D01*
X546899D02*
X548899Y255100D01*
X550898Y259099D02*
Y255100D01*
Y257099D01*
X551898Y258099D01*
X552897Y259099D01*
X553897D01*
X559895Y255100D02*
X557896D01*
X556896Y256100D01*
Y258099D01*
X557896Y259099D01*
X559895D01*
X560895Y258099D01*
Y257099D01*
X556896D01*
X562894Y259099D02*
X564893Y255100D01*
X566893Y259099D01*
X537900Y210100D02*
Y216098D01*
X540899D01*
X541899Y215098D01*
Y213099D01*
X540899Y212099D01*
X537900D01*
X539899D02*
X541899Y210100D01*
X543898Y214099D02*
Y210100D01*
Y212099D01*
X544898Y213099D01*
X545897Y214099D01*
X546897D01*
X552895Y210100D02*
X550896D01*
X549896Y211100D01*
Y213099D01*
X550896Y214099D01*
X552895D01*
X553895Y213099D01*
Y212099D01*
X549896D01*
X96505Y48501D02*
Y54499D01*
X99504D01*
X100504Y53499D01*
Y51500D01*
X99504Y50500D01*
X96505D01*
X98505D02*
X100504Y48501D01*
X102503Y46501D02*
Y52499D01*
X105502D01*
X106502Y51500D01*
Y49500D01*
X105502Y48501D01*
X102503D01*
X109501Y53499D02*
Y52499D01*
X108501D01*
X110501D01*
X109501D01*
Y49500D01*
X110501Y48501D01*
X113500Y52499D02*
Y48501D01*
Y50500D01*
X114499Y51500D01*
X115499Y52499D01*
X116499D01*
X119498Y48501D02*
X121497D01*
X120497D01*
Y54499D01*
X119498Y53499D01*
X127495Y48501D02*
Y54499D01*
X124496Y51500D01*
X128495D01*
X74005Y101001D02*
Y106999D01*
X77004D01*
X78004Y105999D01*
Y104000D01*
X77004Y103000D01*
X74005D01*
X76004D02*
X78004Y101001D01*
X80003Y99001D02*
Y104999D01*
X83002D01*
X84002Y104000D01*
Y102000D01*
X83002Y101001D01*
X80003D01*
X87001Y105999D02*
Y104999D01*
X86001D01*
X88001D01*
X87001D01*
Y102000D01*
X88001Y101001D01*
X91000Y104999D02*
Y101001D01*
Y103000D01*
X91999Y104000D01*
X92999Y104999D01*
X93999D01*
X96998Y101001D02*
X98997D01*
X97997D01*
Y106999D01*
X96998Y105999D01*
X101996D02*
X102996Y106999D01*
X104995D01*
X105995Y105999D01*
Y104999D01*
X104995Y104000D01*
X103996D01*
X104995D01*
X105995Y103000D01*
Y102000D01*
X104995Y101001D01*
X102996D01*
X101996Y102000D01*
X124505Y86501D02*
Y92499D01*
X127504D01*
X128504Y91499D01*
Y89500D01*
X127504Y88500D01*
X124505D01*
X126505D02*
X128504Y86501D01*
X130503Y84501D02*
Y90499D01*
X133502D01*
X134502Y89500D01*
Y87500D01*
X133502Y86501D01*
X130503D01*
X137501Y91499D02*
Y90499D01*
X136501D01*
X138501D01*
X137501D01*
Y87500D01*
X138501Y86501D01*
X141500Y90499D02*
Y86501D01*
Y88500D01*
X142499Y89500D01*
X143499Y90499D01*
X144499D01*
X147498Y86501D02*
X149497D01*
X148497D01*
Y92499D01*
X147498Y91499D01*
X156495Y86501D02*
X152496D01*
X156495Y90499D01*
Y91499D01*
X155495Y92499D01*
X153496D01*
X152496Y91499D01*
X163505Y92501D02*
Y98499D01*
X166504D01*
X167504Y97499D01*
Y95500D01*
X166504Y94500D01*
X163505D01*
X165504D02*
X167504Y92501D01*
X169503Y90501D02*
Y96499D01*
X172502D01*
X173502Y95500D01*
Y93500D01*
X172502Y92501D01*
X169503D01*
X176501Y97499D02*
Y96499D01*
X175501D01*
X177500D01*
X176501D01*
Y93500D01*
X177500Y92501D01*
X180499Y96499D02*
Y92501D01*
Y94500D01*
X181499Y95500D01*
X182499Y96499D01*
X183498D01*
X186497Y92501D02*
X188497D01*
X187497D01*
Y98499D01*
X186497Y97499D01*
X191496Y92501D02*
X193495D01*
X192496D01*
Y98499D01*
X191496Y97499D01*
X186505Y84501D02*
Y90499D01*
X189504D01*
X190504Y89499D01*
Y87500D01*
X189504Y86500D01*
X186505D01*
X188505D02*
X190504Y84501D01*
X192503Y82501D02*
Y88499D01*
X195502D01*
X196502Y87500D01*
Y85500D01*
X195502Y84501D01*
X192503D01*
X199501Y89499D02*
Y88499D01*
X198501D01*
X200501D01*
X199501D01*
Y85500D01*
X200501Y84501D01*
X203500Y88499D02*
Y84501D01*
Y86500D01*
X204499Y87500D01*
X205499Y88499D01*
X206499D01*
X209498Y84501D02*
X211497D01*
X210497D01*
Y90499D01*
X209498Y89499D01*
X214496D02*
X215496Y90499D01*
X217495D01*
X218495Y89499D01*
Y85500D01*
X217495Y84501D01*
X215496D01*
X214496Y85500D01*
Y89499D01*
X235504Y66001D02*
Y71999D01*
X238503D01*
X239503Y70999D01*
Y69000D01*
X238503Y68000D01*
X235504D01*
X237504D02*
X239503Y66001D01*
X241502Y64001D02*
Y69999D01*
X244501D01*
X245501Y69000D01*
Y67000D01*
X244501Y66001D01*
X241502D01*
X248500Y70999D02*
Y69999D01*
X247500D01*
X249500D01*
X248500D01*
Y67000D01*
X249500Y66001D01*
X252499Y69999D02*
Y66001D01*
Y68000D01*
X253499Y69000D01*
X254498Y69999D01*
X255498D01*
X258497Y67000D02*
X259497Y66001D01*
X261496D01*
X262496Y67000D01*
Y70999D01*
X261496Y71999D01*
X259497D01*
X258497Y70999D01*
Y69999D01*
X259497Y69000D01*
X262496D01*
X144004Y187001D02*
Y192999D01*
X147003D01*
X148003Y191999D01*
Y190000D01*
X147003Y189000D01*
X144004D01*
X146004D02*
X148003Y187001D01*
X150002Y185001D02*
Y190999D01*
X153001D01*
X154001Y190000D01*
Y188000D01*
X153001Y187001D01*
X150002D01*
X157000Y191999D02*
Y190999D01*
X156000D01*
X158000D01*
X157000D01*
Y188000D01*
X158000Y187001D01*
X160999Y190999D02*
Y187001D01*
Y189000D01*
X161999Y190000D01*
X162998Y190999D01*
X163998D01*
X166997Y191999D02*
X167997Y192999D01*
X169996D01*
X170996Y191999D01*
Y190999D01*
X169996Y190000D01*
X170996Y189000D01*
Y188000D01*
X169996Y187001D01*
X167997D01*
X166997Y188000D01*
Y189000D01*
X167997Y190000D01*
X166997Y190999D01*
Y191999D01*
X167997Y190000D02*
X169996D01*
X113504Y178001D02*
Y183999D01*
X116503D01*
X117503Y182999D01*
Y181000D01*
X116503Y180000D01*
X113504D01*
X115504D02*
X117503Y178001D01*
X119502Y176001D02*
Y181999D01*
X122502D01*
X123501Y181000D01*
Y179000D01*
X122502Y178001D01*
X119502D01*
X126500Y182999D02*
Y181999D01*
X125501D01*
X127500D01*
X126500D01*
Y179000D01*
X127500Y178001D01*
X130499Y181999D02*
Y178001D01*
Y180000D01*
X131499Y181000D01*
X132498Y181999D01*
X133498D01*
X136497Y183999D02*
X140496D01*
Y182999D01*
X136497Y179000D01*
Y178001D01*
X176004Y187001D02*
Y192999D01*
X179003D01*
X180003Y191999D01*
Y190000D01*
X179003Y189000D01*
X176004D01*
X178004D02*
X180003Y187001D01*
X182002Y185001D02*
Y190999D01*
X185002D01*
X186001Y190000D01*
Y188000D01*
X185002Y187001D01*
X182002D01*
X189000Y191999D02*
Y190999D01*
X188001D01*
X190000D01*
X189000D01*
Y188000D01*
X190000Y187001D01*
X192999Y190999D02*
Y187001D01*
Y189000D01*
X193999Y190000D01*
X194998Y190999D01*
X195998D01*
X202996Y192999D02*
X200996Y191999D01*
X198997Y190000D01*
Y188000D01*
X199997Y187001D01*
X201996D01*
X202996Y188000D01*
Y189000D01*
X201996Y190000D01*
X198997D01*
X150504Y109001D02*
Y114999D01*
X153503D01*
X154503Y113999D01*
Y112000D01*
X153503Y111000D01*
X150504D01*
X152504D02*
X154503Y109001D01*
X156502Y107001D02*
Y112999D01*
X159502D01*
X160501Y112000D01*
Y110000D01*
X159502Y109001D01*
X156502D01*
X163500Y113999D02*
Y112999D01*
X162501D01*
X164500D01*
X163500D01*
Y110000D01*
X164500Y109001D01*
X167499Y112999D02*
Y109001D01*
Y111000D01*
X168499Y112000D01*
X169498Y112999D01*
X170498D01*
X177496Y114999D02*
X173497D01*
Y112000D01*
X175496Y112999D01*
X176496D01*
X177496Y112000D01*
Y110000D01*
X176496Y109001D01*
X174497D01*
X173497Y110000D01*
X135400Y59600D02*
Y65598D01*
X138399D01*
X139399Y64598D01*
Y62599D01*
X138399Y61599D01*
X135400D01*
X137399D02*
X139399Y59600D01*
X141398Y57601D02*
Y63599D01*
X144397D01*
X145397Y62599D01*
Y60600D01*
X144397Y59600D01*
X141398D01*
X148396Y64598D02*
Y63599D01*
X147396D01*
X149396D01*
X148396D01*
Y60600D01*
X149396Y59600D01*
X152394Y63599D02*
Y59600D01*
Y61599D01*
X153394Y62599D01*
X154394Y63599D01*
X155394D01*
X158393Y64598D02*
X159392Y65598D01*
X161392D01*
X162391Y64598D01*
Y63599D01*
X161392Y62599D01*
X160392D01*
X161392D01*
X162391Y61599D01*
Y60600D01*
X161392Y59600D01*
X159392D01*
X158393Y60600D01*
X112504Y102501D02*
Y108499D01*
X115503D01*
X116503Y107499D01*
Y105500D01*
X115503Y104500D01*
X112504D01*
X114503D02*
X116503Y102501D01*
X118502Y100501D02*
Y106499D01*
X121501D01*
X122501Y105500D01*
Y103500D01*
X121501Y102501D01*
X118502D01*
X125500Y107499D02*
Y106499D01*
X124500D01*
X126499D01*
X125500D01*
Y103500D01*
X126499Y102501D01*
X129499Y106499D02*
Y102501D01*
Y104500D01*
X130498Y105500D01*
X131498Y106499D01*
X132498D01*
X135497Y102501D02*
X137496D01*
X136496D01*
Y108499D01*
X135497Y107499D01*
X111900Y298100D02*
Y304098D01*
X114899D01*
X115899Y303098D01*
Y301099D01*
X114899Y300099D01*
X111900D01*
X113899D02*
X115899Y298100D01*
X117898D02*
Y302099D01*
X120897D01*
X121897Y301099D01*
Y298100D01*
X123896Y304098D02*
X127895D01*
Y303098D01*
X123896Y299100D01*
Y298100D01*
X137400Y294600D02*
Y300598D01*
X140399D01*
X141399Y299598D01*
Y297599D01*
X140399Y296599D01*
X137400D01*
X139399D02*
X141399Y294600D01*
X143398D02*
Y298599D01*
X146397D01*
X147397Y297599D01*
Y294600D01*
X153395Y300598D02*
X151395Y299598D01*
X149396Y297599D01*
Y295600D01*
X150396Y294600D01*
X152395D01*
X153395Y295600D01*
Y296599D01*
X152395Y297599D01*
X149396D01*
X163900Y291100D02*
Y297098D01*
X166899D01*
X167899Y296098D01*
Y294099D01*
X166899Y293099D01*
X163900D01*
X165899D02*
X167899Y291100D01*
X169898D02*
Y295099D01*
X172897D01*
X173897Y294099D01*
Y291100D01*
X178895D02*
Y297098D01*
X175896Y294099D01*
X179895D01*
X372400Y393600D02*
Y399598D01*
X375399D01*
X376399Y398598D01*
Y396599D01*
X375399Y395599D01*
X372400D01*
X374399D02*
X376399Y393600D01*
X378398D02*
Y397599D01*
X381397D01*
X382397Y396599D01*
Y393600D01*
X384396Y398598D02*
X385396Y399598D01*
X387395D01*
X388395Y398598D01*
Y397599D01*
X387395Y396599D01*
X386396D01*
X387395D01*
X388395Y395599D01*
Y394600D01*
X387395Y393600D01*
X385396D01*
X384396Y394600D01*
X200400Y325100D02*
Y331098D01*
X203399D01*
X204399Y330098D01*
Y328099D01*
X203399Y327099D01*
X200400D01*
X202399D02*
X204399Y325100D01*
X206398D02*
Y329099D01*
X209397D01*
X210397Y328099D01*
Y325100D01*
X216395D02*
X212396D01*
X216395Y329099D01*
Y330098D01*
X215395Y331098D01*
X213396D01*
X212396Y330098D01*
X165400Y345100D02*
Y351098D01*
X168399D01*
X169399Y350098D01*
Y348099D01*
X168399Y347099D01*
X165400D01*
X167399D02*
X169399Y345100D01*
X171398D02*
Y349099D01*
X174397D01*
X175397Y348099D01*
Y345100D01*
X177396D02*
X179395D01*
X178396D01*
Y351098D01*
X177396Y350098D01*
X517400Y82000D02*
Y87998D01*
X520399D01*
X521399Y86998D01*
Y84999D01*
X520399Y83999D01*
X517400D01*
X519399D02*
X521399Y82000D01*
X523398Y87998D02*
Y82000D01*
X527397D01*
X529396D02*
X531395D01*
X530396D01*
Y87998D01*
X529396Y86998D01*
X172900Y466100D02*
Y472098D01*
X175899D01*
X176899Y471098D01*
Y469099D01*
X175899Y468099D01*
X172900D01*
X174899D02*
X176899Y466100D01*
X178898Y467100D02*
X179898Y466100D01*
X181897D01*
X182897Y467100D01*
Y471098D01*
X181897Y472098D01*
X179898D01*
X178898Y471098D01*
Y470099D01*
X179898Y469099D01*
X182897D01*
X172400Y437600D02*
Y443598D01*
X175399D01*
X176399Y442598D01*
Y440599D01*
X175399Y439599D01*
X172400D01*
X174399D02*
X176399Y437600D01*
X178398Y442598D02*
X179398Y443598D01*
X181397D01*
X182397Y442598D01*
Y441599D01*
X181397Y440599D01*
X182397Y439599D01*
Y438600D01*
X181397Y437600D01*
X179398D01*
X178398Y438600D01*
Y439599D01*
X179398Y440599D01*
X178398Y441599D01*
Y442598D01*
X179398Y440599D02*
X181397D01*
X268400Y461100D02*
Y467098D01*
X271399D01*
X272399Y466098D01*
Y464099D01*
X271399Y463099D01*
X268400D01*
X270399D02*
X272399Y461100D01*
X278397Y467098D02*
X276397Y466098D01*
X274398Y464099D01*
Y462100D01*
X275398Y461100D01*
X277397D01*
X278397Y462100D01*
Y463099D01*
X277397Y464099D01*
X274398D01*
X26000Y187000D02*
Y192998D01*
X28999D01*
X29999Y191998D01*
Y189999D01*
X28999Y188999D01*
X26000D01*
X32998Y191998D02*
Y190999D01*
X31998D01*
X33997D01*
X32998D01*
Y188000D01*
X33997Y187000D01*
X36996Y190999D02*
Y187000D01*
Y188999D01*
X37996Y189999D01*
X38996Y190999D01*
X39996D01*
X42994Y187000D02*
X44994D01*
X43994D01*
Y192998D01*
X42994Y191998D01*
X601500Y76000D02*
Y81998D01*
X604499D01*
X605499Y80998D01*
Y78999D01*
X604499Y77999D01*
X601500D01*
X607498Y79999D02*
Y76000D01*
Y77999D01*
X608498Y78999D01*
X609497Y79999D01*
X610497D01*
X613496Y76000D02*
X615495D01*
X614496D01*
Y81998D01*
X613496D01*
X618495Y76000D02*
X620494D01*
X619494D01*
Y81998D01*
X618495Y80998D01*
X401600Y452800D02*
Y458798D01*
X404599D01*
X405599Y457798D01*
Y455799D01*
X404599Y454799D01*
X401600D01*
X410597Y452800D02*
X408598D01*
X407598Y453800D01*
Y455799D01*
X408598Y456799D01*
X410597D01*
X411597Y455799D01*
Y454799D01*
X407598D01*
X413596Y456799D02*
X417595Y452800D01*
X415595Y454799D01*
X417595Y456799D01*
X413596Y452800D01*
X419594D02*
X421594D01*
X420594D01*
Y458798D01*
X419594D01*
X424593Y456799D02*
Y452800D01*
Y454799D01*
X425592Y455799D01*
X426592Y456799D01*
X427592D01*
X442100Y304900D02*
Y310898D01*
X445099D01*
X446099Y309898D01*
Y307899D01*
X445099Y306899D01*
X442100D01*
X451097Y304900D02*
Y310898D01*
X448098Y307899D01*
X452097D01*
X576400Y218498D02*
Y212500D01*
X580399D01*
X583398Y217498D02*
Y216499D01*
X582398D01*
X584397D01*
X583398D01*
Y213500D01*
X584397Y212500D01*
X587396Y216499D02*
Y212500D01*
Y214499D01*
X588396Y215499D01*
X589396Y216499D01*
X590395D01*
X593395Y212500D02*
X595394D01*
X594394D01*
Y218498D01*
X593395Y217498D01*
X76500Y384498D02*
Y378500D01*
X80499D01*
X86497Y382499D02*
X83498D01*
X82498Y381499D01*
Y379500D01*
X83498Y378500D01*
X86497D01*
X88496Y384498D02*
Y378500D01*
Y381499D01*
X89496Y382499D01*
X91495D01*
X92495Y381499D01*
Y378500D01*
X94494D02*
X96494D01*
X95494D01*
Y384498D01*
X94494Y383498D01*
X202100Y420998D02*
Y415000D01*
X206099D01*
X208098D02*
X210097D01*
X209098D01*
Y420998D01*
X208098Y419998D01*
X513099Y223398D02*
X511099D01*
X512099D01*
Y218400D01*
X511099Y217400D01*
X510100D01*
X509100Y218400D01*
X515098Y217400D02*
Y223398D01*
X518097D01*
X519097Y222398D01*
Y220399D01*
X518097Y219399D01*
X515098D01*
X522096Y222398D02*
Y221399D01*
X521096D01*
X523096D01*
X522096D01*
Y218400D01*
X523096Y217400D01*
X526094Y221399D02*
Y217400D01*
Y219399D01*
X527094Y220399D01*
X528094Y221399D01*
X529094D01*
X553099Y344898D02*
X551099D01*
X552099D01*
Y339900D01*
X551099Y338900D01*
X550100D01*
X549100Y339900D01*
X555098Y338900D02*
Y344898D01*
X558097D01*
X559097Y343898D01*
Y341899D01*
X558097Y340899D01*
X555098D01*
X561096Y338900D02*
X564095D01*
X565095Y339900D01*
X564095Y340899D01*
X562096D01*
X561096Y341899D01*
X562096Y342899D01*
X565095D01*
X571093D02*
X568094D01*
X567094Y341899D01*
Y339900D01*
X568094Y338900D01*
X571093D01*
X512599Y301898D02*
X510599D01*
X511599D01*
Y296900D01*
X510599Y295900D01*
X509600D01*
X508600Y296900D01*
X514598Y295900D02*
Y301898D01*
X517597D01*
X518597Y300898D01*
Y298899D01*
X517597Y297899D01*
X514598D01*
X520596Y299899D02*
Y295900D01*
Y297899D01*
X521596Y298899D01*
X522596Y299899D01*
X523595D01*
X529593Y295900D02*
X527594D01*
X526594Y296900D01*
Y298899D01*
X527594Y299899D01*
X529593D01*
X530593Y298899D01*
Y297899D01*
X526594D01*
X532592Y299899D02*
X534592Y295900D01*
X536591Y299899D01*
X251000Y205398D02*
Y199400D01*
Y202399D01*
X254999D01*
Y205398D01*
Y199400D01*
X260997D02*
X256998D01*
X260997Y203399D01*
Y204398D01*
X259997Y205398D01*
X257998D01*
X256998Y204398D01*
X405500Y201898D02*
Y195900D01*
Y198899D01*
X409499D01*
Y201898D01*
Y195900D01*
X411498D02*
X413497D01*
X412498D01*
Y201898D01*
X411498Y200898D01*
X199400Y460598D02*
Y454600D01*
X202399D01*
X203399Y455600D01*
Y459598D01*
X202399Y460598D01*
X199400D01*
X205398Y454600D02*
Y458599D01*
X208397D01*
X209397Y457599D01*
Y454600D01*
X211396Y460598D02*
Y454600D01*
X214395D01*
X215395Y455600D01*
Y456599D01*
Y457599D01*
X214395Y458599D01*
X211396D01*
X217394Y454600D02*
X219393D01*
X218394D01*
Y460598D01*
X217394Y459598D01*
X70900Y41598D02*
Y35600D01*
X73899D01*
X74899Y36600D01*
Y40598D01*
X73899Y41598D01*
X70900D01*
X76898Y35600D02*
Y39599D01*
X79897D01*
X80897Y38599D01*
Y35600D01*
X86895D02*
X82896D01*
X86895Y39599D01*
Y40598D01*
X85895Y41598D01*
X83896D01*
X82896Y40598D01*
X63400Y162598D02*
Y156600D01*
X66399D01*
X67399Y157600D01*
Y161598D01*
X66399Y162598D01*
X63400D01*
X69398Y156600D02*
Y160599D01*
X72397D01*
X73397Y159599D01*
Y156600D01*
X75396D02*
X77395D01*
X76396D01*
Y162598D01*
X75396Y161598D01*
X107399Y418099D02*
X104400D01*
X103400Y417099D01*
Y415100D01*
X104400Y414100D01*
X107399D01*
X109398D02*
Y418099D01*
X112397D01*
X113397Y417099D01*
Y414100D01*
X119395Y420098D02*
X115396D01*
Y417099D01*
X117395Y418099D01*
X118395D01*
X119395Y417099D01*
Y415100D01*
X118395Y414100D01*
X116396D01*
X115396Y415100D01*
X86899Y418098D02*
X85899Y419098D01*
X83900D01*
X82900Y418098D01*
Y414100D01*
X83900Y413100D01*
X85899D01*
X86899Y414100D01*
X88898Y413100D02*
Y417099D01*
X91897D01*
X92897Y416099D01*
Y413100D01*
X97895D02*
Y419098D01*
X94896Y416099D01*
X98895D01*
X56099Y235898D02*
X55099Y236898D01*
X53100D01*
X52100Y235898D01*
Y231900D01*
X53100Y230900D01*
X55099D01*
X56099Y231900D01*
X58098Y230900D02*
Y234899D01*
X61097D01*
X62097Y233899D01*
Y230900D01*
X64096Y235898D02*
X65096Y236898D01*
X67095D01*
X68095Y235898D01*
Y234899D01*
X67095Y233899D01*
X66096D01*
X67095D01*
X68095Y232899D01*
Y231900D01*
X67095Y230900D01*
X65096D01*
X64096Y231900D01*
X207599Y124798D02*
X206599Y125798D01*
X204600D01*
X203600Y124798D01*
Y120800D01*
X204600Y119800D01*
X206599D01*
X207599Y120800D01*
X209598Y119800D02*
Y123799D01*
X212597D01*
X213597Y122799D01*
Y119800D01*
X219595D02*
X215596D01*
X219595Y123799D01*
Y124798D01*
X218595Y125798D01*
X216596D01*
X215596Y124798D01*
X252399Y335598D02*
X251399Y336598D01*
X249400D01*
X248400Y335598D01*
Y331600D01*
X249400Y330600D01*
X251399D01*
X252399Y331600D01*
X254398Y330600D02*
Y334599D01*
X257397D01*
X258397Y333599D01*
Y330600D01*
X260396D02*
X262396D01*
X261396D01*
Y336598D01*
X260396Y335598D01*
X302199Y444898D02*
X301199Y445898D01*
X299200D01*
X298200Y444898D01*
Y440900D01*
X299200Y439900D01*
X301199D01*
X302199Y440900D01*
X304198Y445898D02*
Y439900D01*
Y442899D01*
X305198Y443899D01*
X307197D01*
X308197Y442899D01*
Y439900D01*
X311196Y443899D02*
X313195D01*
X314195Y442899D01*
Y439900D01*
X311196D01*
X310196Y440900D01*
X311196Y441899D01*
X314195D01*
X316194Y439900D02*
X318194D01*
X317194D01*
Y445898D01*
X316194Y444898D01*
X344099Y122298D02*
X343099Y123298D01*
X341100D01*
X340100Y122298D01*
Y118300D01*
X341100Y117300D01*
X343099D01*
X344099Y118300D01*
X347098Y121299D02*
X349097D01*
X350097Y120299D01*
Y117300D01*
X347098D01*
X346098Y118300D01*
X347098Y119299D01*
X350097D01*
X352096Y118300D02*
X353096Y117300D01*
X355095D01*
X356095Y118300D01*
Y122298D01*
X355095Y123298D01*
X353096D01*
X352096Y122298D01*
Y121299D01*
X353096Y120299D01*
X356095D01*
X233099Y124598D02*
X232099Y125598D01*
X230100D01*
X229100Y124598D01*
Y120600D01*
X230100Y119600D01*
X232099D01*
X233099Y120600D01*
X236098Y123599D02*
X238097D01*
X239097Y122599D01*
Y119600D01*
X236098D01*
X235098Y120600D01*
X236098Y121599D01*
X239097D01*
X241096Y124598D02*
X242096Y125598D01*
X244095D01*
X245095Y124598D01*
Y123599D01*
X244095Y122599D01*
X245095Y121599D01*
Y120600D01*
X244095Y119600D01*
X242096D01*
X241096Y120600D01*
Y121599D01*
X242096Y122599D01*
X241096Y123599D01*
Y124598D01*
X242096Y122599D02*
X244095D01*
X545199Y188898D02*
X544199Y189898D01*
X542200D01*
X541200Y188898D01*
Y184900D01*
X542200Y183900D01*
X544199D01*
X545199Y184900D01*
X548198Y187899D02*
X550197D01*
X551197Y186899D01*
Y183900D01*
X548198D01*
X547198Y184900D01*
X548198Y185899D01*
X551197D01*
X557195Y183900D02*
X553196D01*
X557195Y187899D01*
Y188898D01*
X556195Y189898D01*
X554196D01*
X553196Y188898D01*
X243899Y469598D02*
X242899Y470598D01*
X240900D01*
X239900Y469598D01*
Y465600D01*
X240900Y464600D01*
X242899D01*
X243899Y465600D01*
X245898Y464600D02*
X247897D01*
X246898D01*
Y470598D01*
X245898Y469598D01*
X237099Y39398D02*
X235099D01*
X236099D01*
Y34400D01*
X235099Y33400D01*
X234100D01*
X233100Y34400D01*
X239098Y38398D02*
X240098Y39398D01*
X242097D01*
X243097Y38398D01*
Y37399D01*
X242097Y36399D01*
X243097Y35399D01*
Y34400D01*
X242097Y33400D01*
X240098D01*
X239098Y34400D01*
Y35399D01*
X240098Y36399D01*
X239098Y37399D01*
Y38398D01*
X240098Y36399D02*
X242097D01*
X380099Y36898D02*
X378099D01*
X379099D01*
Y31900D01*
X378099Y30900D01*
X377100D01*
X376100Y31900D01*
X382098Y36898D02*
X386097D01*
Y35898D01*
X382098Y31900D01*
Y30900D01*
X237099Y165398D02*
X235099D01*
X236099D01*
Y160400D01*
X235099Y159400D01*
X234100D01*
X233100Y160400D01*
X243097Y165398D02*
X241097Y164398D01*
X239098Y162399D01*
Y160400D01*
X240098Y159400D01*
X242097D01*
X243097Y160400D01*
Y161399D01*
X242097Y162399D01*
X239098D01*
X380099Y162898D02*
X378099D01*
X379099D01*
Y157900D01*
X378099Y156900D01*
X377100D01*
X376100Y157900D01*
X386097Y162898D02*
X382098D01*
Y159899D01*
X384097Y160899D01*
X385097D01*
X386097Y159899D01*
Y157900D01*
X385097Y156900D01*
X383098D01*
X382098Y157900D01*
X331599Y165398D02*
X329599D01*
X330599D01*
Y160400D01*
X329599Y159400D01*
X328600D01*
X327600Y160400D01*
X336597Y159400D02*
Y165398D01*
X333598Y162399D01*
X337597D01*
X474599Y36898D02*
X472599D01*
X473599D01*
Y31900D01*
X472599Y30900D01*
X471600D01*
X470600Y31900D01*
X476598Y35898D02*
X477598Y36898D01*
X479597D01*
X480597Y35898D01*
Y34899D01*
X479597Y33899D01*
X478597D01*
X479597D01*
X480597Y32899D01*
Y31900D01*
X479597Y30900D01*
X477598D01*
X476598Y31900D01*
X474599Y162898D02*
X472599D01*
X473599D01*
Y157900D01*
X472599Y156900D01*
X471600D01*
X470600Y157900D01*
X480597Y156900D02*
X476598D01*
X480597Y160899D01*
Y161898D01*
X479597Y162898D01*
X477598D01*
X476598Y161898D01*
X331599Y39498D02*
X329599D01*
X330599D01*
Y34500D01*
X329599Y33500D01*
X328600D01*
X327600Y34500D01*
X333598Y33500D02*
X335597D01*
X334598D01*
Y39498D01*
X333598Y38498D01*
D11*
X610994Y259998D02*
G03*
X610994Y280002I-2494J10002D01*
G01*
X151500Y399500D02*
G03*
X151500Y399500I-15000J0D01*
G01*
X611000Y260000D02*
Y280000D01*
X601000Y255000D02*
Y285000D01*
X611000D01*
Y280000D02*
Y285000D01*
Y255000D02*
Y260000D01*
X601000Y255000D02*
X611000D01*
X181742Y400429D02*
Y417429D01*
X194242D01*
Y400429D02*
Y417429D01*
X181742Y400429D02*
X194242D01*
X193242Y417429D02*
X194242D01*
Y415929D02*
Y417429D01*
Y415829D02*
Y416029D01*
X192842Y417429D02*
X192942D01*
X70320Y439660D02*
X72496Y436758D01*
X68027Y436712D02*
X70320Y439660D01*
X134500Y403250D02*
X138500D01*
X136500Y401250D02*
Y405250D01*
X299528Y384205D02*
X313307D01*
Y389087D01*
X299528Y409795D02*
X313307D01*
Y404913D02*
Y409795D01*
X450035Y394004D02*
Y456996D01*
X516965Y394004D02*
Y456996D01*
D12*
X589906Y201500D02*
G03*
X589906Y201500I-5906J0D01*
G01*
X582000Y196500D02*
Y206500D01*
Y196500D02*
X586000Y201500D01*
Y196500D02*
Y201500D01*
X582000Y206500D02*
X586000Y201500D01*
Y206500D01*
D13*
X529548Y41834D02*
G03*
X529648Y53434I-5750J5850D01*
G01*
X550848Y47734D02*
G03*
X550848Y47734I-1781J0D01*
G01*
X573985Y38804D02*
G03*
X573985Y38804I-1781J0D01*
G01*
X574086Y53904D02*
G03*
X574086Y53904I-1781J0D01*
G01*
X189813Y168616D02*
Y170416D01*
X195213Y168616D02*
Y170416D01*
X413187Y122083D02*
Y123883D01*
X407787Y122083D02*
Y123883D01*
X531187Y243583D02*
Y245384D01*
X525787Y243583D02*
Y245384D01*
X550687Y359583D02*
Y361384D01*
X545287Y359583D02*
Y361384D01*
X526313Y323617D02*
Y325416D01*
X531713Y323617D02*
Y325416D01*
X455583Y347313D02*
X457383D01*
X455583Y352713D02*
X457383D01*
X309616Y374187D02*
X311417D01*
X309616Y368787D02*
X311417D01*
X203787Y108583D02*
Y110383D01*
X209187Y108583D02*
Y110383D01*
X546584Y179713D02*
X548384D01*
X546584Y174313D02*
X548384D01*
X593126Y16562D02*
Y78622D01*
X516786Y16562D02*
Y78622D01*
Y16562D02*
X593126D01*
X516786Y78622D02*
X593126D01*
X529548Y53534D02*
Y64934D01*
X529448Y30434D02*
Y41734D01*
X551048Y47734D02*
X567486D01*
X526623Y47634D02*
X547048D01*
X576685Y57104D02*
Y64704D01*
X574086Y54504D02*
X576685Y57104D01*
Y29504D02*
Y36104D01*
X573985Y38804D02*
X576685Y36104D01*
X567486Y47724D02*
X571385Y51624D01*
X303616Y430287D02*
X305416D01*
X303616Y435687D02*
X305416D01*
X229300Y108361D02*
Y110161D01*
X234700Y108361D02*
Y110161D01*
X340287Y106084D02*
Y107884D01*
X345687Y106084D02*
Y107884D01*
D14*
X288701Y406055D02*
G03*
X288701Y406055I-394J0D01*
G01*
X456335Y387799D02*
G03*
X456335Y387799I-394J0D01*
G01*
X189000Y171107D02*
Y176400D01*
Y162600D02*
Y168056D01*
X196000Y162600D02*
Y168056D01*
Y171107D02*
Y176400D01*
X189000Y162600D02*
X196000D01*
X189000Y176400D02*
X196000D01*
X276500Y220500D02*
X389000D01*
X396500D01*
Y230500D01*
X276500D02*
X396500D01*
X276500Y220500D02*
Y230500D01*
X447000Y365000D02*
X527000D01*
Y375000D01*
X447000D02*
X527000D01*
X447000Y365000D02*
Y375000D01*
X527000Y472500D02*
Y482500D01*
X447000Y472500D02*
X527000D01*
X447000D02*
Y482500D01*
X527000D01*
X440854Y86807D02*
X447547D01*
X438886Y98618D02*
X440854Y100193D01*
X438886Y88382D02*
X440854Y86807D01*
X440854Y100193D02*
X447547D01*
X438886Y88382D02*
Y98618D01*
X460933Y86807D02*
Y100193D01*
X453453Y86807D02*
X460933D01*
X453453Y100193D02*
X460933D01*
X413354Y86807D02*
X420047D01*
X411386Y98618D02*
X413354Y100193D01*
X411386Y88382D02*
X413354Y86807D01*
X413354Y100193D02*
X420047D01*
X411386Y88382D02*
Y98618D01*
X433433Y86807D02*
Y100193D01*
X425953Y86807D02*
X433433D01*
X425953Y100193D02*
X433433D01*
X495669Y98929D02*
X505905D01*
X507677Y100701D01*
X505905Y115091D02*
X507677Y113299D01*
X466339Y115071D02*
X476968D01*
X466339Y98929D02*
X476968D01*
X466339D02*
Y115071D01*
X507677Y100701D02*
Y113299D01*
X495669Y115071D02*
X505905D01*
X414000Y116100D02*
Y121393D01*
Y124444D02*
Y129900D01*
X407000Y124444D02*
Y129900D01*
Y116100D02*
Y121393D01*
Y129900D02*
X414000D01*
X407000Y116100D02*
X414000D01*
X532000Y237600D02*
Y242893D01*
Y245944D02*
Y251400D01*
X525000Y245944D02*
Y251400D01*
Y237600D02*
Y242893D01*
Y251400D02*
X532000D01*
X525000Y237600D02*
X532000D01*
X551500Y353600D02*
Y358893D01*
Y361944D02*
Y367400D01*
X544500Y361944D02*
Y367400D01*
Y353600D02*
Y358893D01*
Y367400D02*
X551500D01*
X544500Y353600D02*
X551500D01*
X552016Y379000D02*
Y389000D01*
X603985D01*
X552016Y379000D02*
X603985D01*
Y389000D01*
X563000Y379000D02*
Y389000D01*
X525500Y326107D02*
Y331400D01*
Y317600D02*
Y323056D01*
X532500Y317600D02*
Y323056D01*
Y326107D02*
Y331400D01*
X525500Y317600D02*
X532500D01*
X525500Y331400D02*
X532500D01*
X449600Y346500D02*
X454893D01*
X457944D02*
X463400D01*
X457944Y353500D02*
X463400D01*
X449600D02*
X454893D01*
X463400Y346500D02*
Y353500D01*
X449600Y346500D02*
Y353500D01*
X312107Y375000D02*
X317400D01*
X303600D02*
X309056D01*
X303600Y368000D02*
X309056D01*
X312107D02*
X317400D01*
X303600D02*
Y375000D01*
X317400Y368000D02*
Y375000D01*
X62398Y415461D02*
X74602D01*
X62398Y386130D02*
X64169Y384358D01*
X72831D02*
X74602Y386130D01*
X64169Y384358D02*
X72831D01*
X62398Y405224D02*
Y415461D01*
X74602Y405224D02*
Y415461D01*
Y386130D02*
Y395776D01*
X62398Y386130D02*
Y395776D01*
X402000Y326000D02*
Y336000D01*
X282000Y326000D02*
X402000D01*
X282000D02*
Y336000D01*
X289500D01*
X402000D01*
X238602Y10583D02*
X249422D01*
X233192Y19953D02*
X238602Y10583D01*
X233192Y19953D02*
X238602Y29323D01*
X249422D01*
X254832Y19953D01*
X249422Y10583D02*
X254832Y19953D01*
X333090Y10630D02*
X343910D01*
X327680Y20000D02*
X333090Y10630D01*
X327680Y20000D02*
X333090Y29370D01*
X343910D01*
X349320Y20000D01*
X343910Y10630D02*
X349320Y20000D01*
X333090Y136567D02*
X343910D01*
X327680Y145937D02*
X333090Y136567D01*
X327680Y145937D02*
X333090Y155307D01*
X343910D01*
X349320Y145937D01*
X343910Y136567D02*
X349320Y145937D01*
X238602Y136567D02*
X249422D01*
X233192Y145937D02*
X238602Y136567D01*
X233192Y145937D02*
X238602Y155307D01*
X249422D01*
X254832Y145937D01*
X249422Y136567D02*
X254832Y145937D01*
X381602Y8083D02*
X392422D01*
X376192Y17453D02*
X381602Y8083D01*
X376192Y17453D02*
X381602Y26823D01*
X392422D01*
X397832Y17453D01*
X392422Y8083D02*
X397832Y17453D01*
X235000Y225515D02*
X245000D01*
X235000D02*
Y267484D01*
X245000Y225515D02*
Y267484D01*
X235000D02*
X245000D01*
X235000Y256500D02*
X245000D01*
X441500Y301500D02*
X451500D01*
Y251500D02*
Y301500D01*
X441500Y251500D02*
Y301500D01*
Y251500D02*
X451500D01*
X203000Y102600D02*
X210000D01*
X203000Y116400D02*
X210000D01*
X203000Y102600D02*
Y107893D01*
Y110944D02*
Y116400D01*
X210000Y110944D02*
Y116400D01*
Y102600D02*
Y107893D01*
X518500Y182016D02*
Y213985D01*
X508500D02*
X518500D01*
X508500Y182016D02*
Y213985D01*
Y182016D02*
X518500D01*
X508500Y193000D02*
X518500D01*
X540600Y173500D02*
Y180500D01*
X554400Y173500D02*
Y180500D01*
X540600D02*
X545893D01*
X548944D02*
X554400D01*
X548944Y173500D02*
X554400D01*
X540600D02*
X545893D01*
X401000Y404000D02*
Y444000D01*
X421000Y404000D02*
Y444000D01*
X401000D02*
X421000D01*
X401000Y404000D02*
X421000D01*
X51500Y225400D02*
Y227500D01*
X72500D01*
Y219500D02*
Y227500D01*
X51500Y219500D02*
X72500D01*
X51500D02*
Y225400D01*
X518000Y260516D02*
Y292485D01*
X508000D02*
X518000D01*
X508000Y260516D02*
Y292485D01*
Y260516D02*
X518000D01*
X508000Y271500D02*
X518000D01*
X311400Y429500D02*
Y436500D01*
X297600Y429500D02*
Y436500D01*
X306107Y429500D02*
X311400D01*
X297600D02*
X303056D01*
X297600Y436500D02*
X303056D01*
X306107D02*
X311400D01*
X548500Y293515D02*
X558500D01*
X548500D02*
Y335484D01*
X558500Y293515D02*
Y335484D01*
X548500D02*
X558500D01*
X548500Y324500D02*
X558500D01*
X228513Y102377D02*
X235513D01*
X228513Y116177D02*
X235513D01*
X228513Y102377D02*
Y107670D01*
Y110721D02*
Y116177D01*
X235513Y110721D02*
Y116177D01*
Y102377D02*
Y107670D01*
X339500Y100100D02*
X346500D01*
X339500Y113900D02*
X346500D01*
X339500Y100100D02*
Y105393D01*
Y108444D02*
Y113900D01*
X346500Y108444D02*
Y113900D01*
Y100100D02*
Y105393D01*
X392422Y134067D02*
X397832Y143437D01*
X392422Y152807D02*
X397832Y143437D01*
X381602Y152807D02*
X392422D01*
X376192Y143437D02*
X381602Y152807D01*
X376192Y143437D02*
X381602Y134067D01*
X392422D01*
X486910Y8083D02*
X492320Y17453D01*
X486910Y26823D02*
X492320Y17453D01*
X476090Y26823D02*
X486910D01*
X470680Y17453D02*
X476090Y26823D01*
X470680Y17453D02*
X476090Y8083D01*
X486910D01*
Y134067D02*
X492320Y143437D01*
X486910Y152807D02*
X492320Y143437D01*
X476090Y152807D02*
X486910D01*
X470680Y143437D02*
X476090Y152807D01*
X470680Y143437D02*
X476090Y134067D01*
X486910D01*
D15*
X61000Y370000D02*
Y375500D01*
X39000Y370000D02*
Y375500D01*
Y343500D02*
Y349000D01*
X61000Y343500D02*
Y349000D01*
X39000Y375500D02*
X61000D01*
X39000Y343500D02*
X61000D01*
X120000Y152500D02*
Y160000D01*
X111000Y152500D02*
Y160000D01*
Y141000D02*
Y148500D01*
X120000Y141000D02*
Y148500D01*
X111000Y160000D02*
X120000D01*
X111000Y141000D02*
X120000D01*
X138500Y6500D02*
Y14000D01*
X147500Y6500D02*
Y14000D01*
Y18000D02*
Y25500D01*
X138500Y18000D02*
Y25500D01*
Y6500D02*
X147500D01*
X138500Y25500D02*
X147500D01*
X448000Y74000D02*
X450000D01*
X453500Y65000D02*
X454000D01*
X457500Y74000D02*
X459500D01*
X448000Y69500D02*
Y74000D01*
X459500Y69500D02*
Y74000D01*
X448500Y111000D02*
Y118500D01*
X457500Y111000D02*
Y118500D01*
Y122500D02*
Y130000D01*
X448500Y122500D02*
Y130000D01*
Y111000D02*
X457500D01*
X448500Y130000D02*
X457500D01*
X429000Y112500D02*
Y120000D01*
X438000Y112500D02*
Y120000D01*
Y124000D02*
Y131500D01*
X429000Y124000D02*
Y131500D01*
Y112500D02*
X438000D01*
X429000Y131500D02*
X438000D01*
X509000Y154500D02*
Y162000D01*
X518000Y154500D02*
Y162000D01*
Y166000D02*
Y173500D01*
X509000Y166000D02*
Y173500D01*
Y154500D02*
X518000D01*
X509000Y173500D02*
X518000D01*
X348000Y376000D02*
Y383500D01*
X357000Y376000D02*
Y383500D01*
Y387500D02*
Y395000D01*
X348000Y387500D02*
Y395000D01*
Y376000D02*
X357000D01*
X348000Y395000D02*
X357000D01*
X274000Y379000D02*
Y386500D01*
X265000Y379000D02*
Y386500D01*
Y367500D02*
Y375000D01*
X274000Y367500D02*
Y375000D01*
X265000Y386500D02*
X274000D01*
X265000Y367500D02*
X274000D01*
X235500Y362500D02*
Y370000D01*
X244500Y362500D02*
Y370000D01*
Y374000D02*
Y381500D01*
X235500Y374000D02*
Y381500D01*
Y362500D02*
X244500D01*
X235500Y381500D02*
X244500D01*
X218000Y427500D02*
Y435000D01*
X209000Y427500D02*
Y435000D01*
Y416000D02*
Y423500D01*
X218000Y416000D02*
Y423500D01*
X209000Y435000D02*
X218000D01*
X209000Y416000D02*
X218000D01*
X230500Y364500D02*
Y372000D01*
X220500Y364500D02*
Y372000D01*
Y348500D02*
Y356000D01*
X230500Y348500D02*
Y356000D01*
X220500Y372000D02*
X230500D01*
X220500Y348500D02*
X230500D01*
X205000Y367500D02*
Y375000D01*
X195000Y367500D02*
Y375000D01*
Y351500D02*
Y359000D01*
X205000Y351500D02*
Y359000D01*
X195000Y375000D02*
X205000D01*
X195000Y351500D02*
X205000D01*
X176000Y305500D02*
X178000D01*
X172000Y314500D02*
X172500D01*
X166500Y305500D02*
X168500D01*
X178000D02*
Y310000D01*
X166500Y305500D02*
Y310000D01*
X179000Y381000D02*
X186500D01*
X179000Y390000D02*
X186500D01*
X167500D02*
X175000D01*
X167500Y381000D02*
X175000D01*
X186500D02*
Y390000D01*
X167500Y381000D02*
Y390000D01*
X155000Y408500D02*
X162500D01*
X155000Y399500D02*
X162500D01*
X166500D02*
X174000D01*
X166500Y408500D02*
X174000D01*
X155000Y399500D02*
Y408500D01*
X174000Y399500D02*
Y408500D01*
X43000Y388500D02*
X55000D01*
X43000Y414500D02*
X55000D01*
Y388500D02*
Y398000D01*
X43000Y388500D02*
Y398000D01*
Y405000D02*
Y414500D01*
X55000Y405000D02*
Y414500D01*
X115000Y42500D02*
X124000D01*
X115000Y23500D02*
X124000D01*
X115000Y35000D02*
Y42500D01*
X124000Y35000D02*
Y42500D01*
Y23500D02*
Y31000D01*
X115000Y23500D02*
Y31000D01*
X217500Y60500D02*
X226500D01*
X217500Y79500D02*
X226500D01*
Y60500D02*
Y68000D01*
X217500Y60500D02*
Y68000D01*
Y72000D02*
Y79500D01*
X226500Y72000D02*
Y79500D01*
X170000Y62500D02*
X179000D01*
X170000Y81500D02*
X179000D01*
Y62500D02*
Y70000D01*
X170000Y62500D02*
Y70000D01*
Y74000D02*
Y81500D01*
X179000Y74000D02*
Y81500D01*
X147500Y63500D02*
X156500D01*
X147500Y82500D02*
X156500D01*
Y63500D02*
Y71000D01*
X147500Y63500D02*
Y71000D01*
Y75000D02*
Y82500D01*
X156500Y75000D02*
Y82500D01*
X192500Y61000D02*
X201500D01*
X192500Y80000D02*
X201500D01*
Y61000D02*
Y68500D01*
X192500Y61000D02*
Y68500D01*
Y72500D02*
Y80000D01*
X201500Y72500D02*
Y80000D01*
X83500Y116000D02*
X92500D01*
X83500Y135000D02*
X92500D01*
Y116000D02*
Y123500D01*
X83500Y116000D02*
Y123500D01*
Y127500D02*
Y135000D01*
X92500Y127500D02*
Y135000D01*
X122000Y134000D02*
X131000D01*
X122000Y115000D02*
X131000D01*
X122000Y126500D02*
Y134000D01*
X131000Y126500D02*
Y134000D01*
Y115000D02*
Y122500D01*
X122000Y115000D02*
Y122500D01*
X166500Y117500D02*
Y126500D01*
X147500Y117500D02*
Y126500D01*
X159000D02*
X166500D01*
X159000Y117500D02*
X166500D01*
X147500D02*
X155000D01*
X147500Y126500D02*
X155000D01*
X172000Y162500D02*
X181000D01*
X172000Y181500D02*
X181000D01*
Y162500D02*
Y170000D01*
X172000Y162500D02*
Y170000D01*
Y174000D02*
Y181500D01*
X181000Y174000D02*
Y181500D01*
X157500Y161000D02*
X166500D01*
X157500Y180000D02*
X166500D01*
Y161000D02*
Y168500D01*
X157500Y161000D02*
Y168500D01*
Y172500D02*
Y180000D01*
X166500Y172500D02*
Y180000D01*
X139000Y164500D02*
X148000D01*
X139000Y183500D02*
X148000D01*
Y164500D02*
Y172000D01*
X139000Y164500D02*
Y172000D01*
Y176000D02*
Y183500D01*
X148000Y176000D02*
Y183500D01*
X103000Y410500D02*
X113000D01*
X103000Y387000D02*
X113000D01*
X103000Y403000D02*
Y410500D01*
X113000Y403000D02*
Y410500D01*
Y387000D02*
Y394500D01*
X103000Y387000D02*
Y394500D01*
X248000Y327000D02*
X257000D01*
X248000Y308000D02*
X257000D01*
X248000Y319500D02*
Y327000D01*
X257000Y319500D02*
Y327000D01*
Y308000D02*
Y315500D01*
X248000Y308000D02*
Y315500D01*
X63000Y127000D02*
Y136500D01*
X75000Y127000D02*
Y136500D01*
Y143500D02*
Y153000D01*
X63000Y143500D02*
Y153000D01*
Y127000D02*
X75000D01*
X63000Y153000D02*
X75000D01*
X135000Y45000D02*
Y54000D01*
X154000Y45000D02*
Y54000D01*
X135000Y45000D02*
X142500D01*
X135000Y54000D02*
X142500D01*
X146500D02*
X154000D01*
X146500Y45000D02*
X154000D01*
X70500Y6000D02*
Y15500D01*
X82500Y6000D02*
Y15500D01*
Y22500D02*
Y32000D01*
X70500Y22500D02*
Y32000D01*
Y6000D02*
X82500D01*
X70500Y32000D02*
X82500D01*
X537500Y197500D02*
Y206500D01*
X556500Y197500D02*
Y206500D01*
X537500Y197500D02*
X545000D01*
X537500Y206500D02*
X545000D01*
X549000D02*
X556500D01*
X549000Y197500D02*
X556500D01*
X579000Y173500D02*
Y178000D01*
X590500Y173500D02*
Y178000D01*
X579000Y173500D02*
X581000D01*
X584500Y182500D02*
X585000D01*
X588500Y173500D02*
X590500D01*
X165000Y332500D02*
Y341500D01*
X184000Y332500D02*
Y341500D01*
X165000Y332500D02*
X172500D01*
X165000Y341500D02*
X172500D01*
X176500D02*
X184000D01*
X176500Y332500D02*
X184000D01*
X391000Y381000D02*
Y390000D01*
X372000Y381000D02*
Y390000D01*
X383500D02*
X391000D01*
X383500Y381000D02*
X391000D01*
X372000D02*
X379500D01*
X372000Y390000D02*
X379500D01*
X200000Y312500D02*
Y321500D01*
X219000Y312500D02*
Y321500D01*
X200000Y312500D02*
X207500D01*
X200000Y321500D02*
X207500D01*
X211500D02*
X219000D01*
X211500Y312500D02*
X219000D01*
X163500Y268500D02*
X172500D01*
X163500Y287500D02*
X172500D01*
Y268500D02*
Y276000D01*
X163500Y268500D02*
Y276000D01*
Y280000D02*
Y287500D01*
X172500Y280000D02*
Y287500D01*
X379000Y415500D02*
Y420000D01*
X367500Y415500D02*
Y420000D01*
X377000D02*
X379000D01*
X373000Y411000D02*
X373500D01*
X367500Y420000D02*
X369500D01*
X111500Y271000D02*
X121500D01*
X111500Y294500D02*
X121500D01*
Y271000D02*
Y278500D01*
X111500Y271000D02*
Y278500D01*
Y287000D02*
Y294500D01*
X121500Y287000D02*
Y294500D01*
X137000Y272000D02*
X146000D01*
X137000Y291000D02*
X146000D01*
Y272000D02*
Y279500D01*
X137000Y272000D02*
Y279500D01*
Y283500D02*
Y291000D01*
X146000Y283500D02*
Y291000D01*
X362500Y99000D02*
X371500D01*
X362500Y118000D02*
X371500D01*
Y99000D02*
Y106500D01*
X362500Y99000D02*
Y106500D01*
Y110500D02*
Y118000D01*
X371500Y110500D02*
Y118000D01*
X247500Y347000D02*
Y351500D01*
X259000Y347000D02*
Y351500D01*
X247500Y347000D02*
X249500D01*
X253000Y356000D02*
X253500D01*
X257000Y347000D02*
X259000D01*
X82500Y409500D02*
X91500D01*
X82500Y390500D02*
X91500D01*
X82500Y402000D02*
Y409500D01*
X91500Y402000D02*
Y409500D01*
Y390500D02*
Y398000D01*
X82500Y390500D02*
Y398000D01*
X544500Y232500D02*
X553500D01*
X544500Y251500D02*
X553500D01*
Y232500D02*
Y240000D01*
X544500Y232500D02*
Y240000D01*
Y244000D02*
Y251500D01*
X553500Y244000D02*
Y251500D01*
X199000Y451000D02*
X208500D01*
X199000Y439000D02*
X208500D01*
X215500D02*
X225000D01*
X215500Y451000D02*
X225000D01*
X199000Y439000D02*
Y451000D01*
X225000Y439000D02*
Y451000D01*
X239500Y461000D02*
X249500D01*
X239500Y437500D02*
X249500D01*
X239500Y453500D02*
Y461000D01*
X249500Y453500D02*
Y461000D01*
Y437500D02*
Y445000D01*
X239500Y437500D02*
Y445000D01*
X268000Y457500D02*
X277000D01*
X268000Y438500D02*
X277000D01*
X268000Y450000D02*
Y457500D01*
X277000Y450000D02*
Y457500D01*
Y438500D02*
Y446000D01*
X268000Y438500D02*
Y446000D01*
X172500Y453500D02*
Y462500D01*
X191500Y453500D02*
Y462500D01*
X172500Y453500D02*
X180000D01*
X172500Y462500D02*
X180000D01*
X184000D02*
X191500D01*
X184000Y453500D02*
X191500D01*
X172000Y425000D02*
Y434000D01*
X191000Y425000D02*
Y434000D01*
X172000Y425000D02*
X179500D01*
X172000Y434000D02*
X179500D01*
X183500D02*
X191000D01*
X183500Y425000D02*
X191000D01*
D16*
X251236Y172602D02*
Y195122D01*
X320764D01*
Y172602D02*
Y195122D01*
X251236Y172602D02*
X320764D01*
X405736Y169102D02*
Y191622D01*
X445264D01*
Y169102D02*
Y191622D01*
X405736Y169102D02*
X445264D01*
D17*
X414000Y445668D02*
Y449000D01*
X417332Y445668D01*
X418165D01*
X418998Y446501D01*
Y448167D01*
X418165Y449000D01*
X404000Y447000D02*
Y445334D01*
Y446167D01*
X408998D01*
X408165Y447000D01*
X408998Y403000D02*
Y399668D01*
X408165D01*
X404833Y403000D01*
X404000D01*
X418165D02*
X418998Y402167D01*
Y400501D01*
X418165Y399668D01*
X417332D01*
X416499Y400501D01*
X415666Y399668D01*
X414833D01*
X414000Y400501D01*
Y402167D01*
X414833Y403000D01*
X415666D01*
X416499Y402167D01*
X417332Y403000D01*
X418165D01*
X416499Y402167D02*
Y400501D01*
D18*
X193116Y408937D02*
D03*
M02*
