M48
;Layer_Color=9474304
;FILE_FORMAT=2:4
INCH,LZ
;TYPE=PLATED
T1F00S00C0.0150
T3F00S00C0.0315
T4F00S00C0.0354
T5F00S00C0.0394
T6F00S00C0.0400
T7F00S00C0.0402
T8F00S00C0.0450
T9F00S00C0.0551
T10F00S00C0.0600
;TYPE=NON_PLATED
T11F00S00C0.1299
%
T01
X01345Y01385
X01335Y0151
X0179Y0136
X0212Y0148
X0204Y0066
X02305Y00645
X01945Y00395
X0378Y01135
X04025Y01115
X05205Y0112
X0526Y02585
X0527Y02715
X05275Y03095
X04695Y0272
X02455Y03005
X01835Y0166
X02335Y03155
X02765Y03785
X0343Y0369
X0406Y03895
X041455Y0393
X0421Y04
X0426Y0397
X042331Y04125
X04265Y04215
T03
X04155Y0178
X04255
X04355
X0311Y01815
X0301
X0291
X0281
X0271
X0261
T04
X03215Y02255
X03315
X03415
X03515
X03615
X03715
X03815
X03915
X04465Y02565
Y02665
Y02765
Y02865
Y02965
X03115Y02255
X03015
X02915
X02815
X0287Y0331
X0297
X0307
X0317
X0327
X0337
X0347
X0357
X0367
X0377
X0387
X0397
X0406Y0409
X0416
Y0419
X0406
Y0429
X0416
Y0439
X0406
X0452Y037
X0462
X0472
X0482
X0492
X0502
X0512
X0522
Y04775
X0512
X0502
X0492
X0482
X0472
X0462
X0452
T05
X0606Y026
Y027
Y028
X039661Y028242
Y027258
Y029226
Y030211
X038677
X037693
X036708
X035724
X03474
X033756
X032771
X031787
X032279Y029226
X033263
X032771Y024305
X031787
X033756
X03474
X035724
X036708
X037693
X038677
X039661
X030803
X029818
X028834
X02785Y024797
Y025782
Y026766
Y02775
Y028734
Y029719
X028834Y030211
X029818
X030803
T06
X0579Y02015
X0589
X01365Y0392
Y0407
T07
X05135Y0188
Y0198
Y0208
X0513Y02665
Y02765
Y02865
X05535Y02995
Y03095
X024Y02615
Y02515
Y02415
Y02315
X05535Y03195
Y03295
X0558Y0384
X0568
X0578
X0588
X0598
T08
X0531Y0024
X052313Y004762
X0531Y007124
X057903
Y002324
T09
X0609Y002245
Y00425
Y00625
T10
X00495Y0012
Y0032
Y0052
Y0072
X0043Y0116
Y0136
Y0156
Y0176
X00905Y0477
X01105
X01305
T11
X024401Y001995
Y014594
X03385
X038701Y014344
Y001745
X03385Y002
X04815Y001745
Y014344
M30
