G04*
G04 #@! TF.GenerationSoftware,Altium Limited,Altium Designer,21.3.2 (30)*
G04*
G04 Layer_Color=255*
%FSLAX25Y25*%
%MOIN*%
G70*
G04*
G04 #@! TF.SameCoordinates,10CE30CE-E8E0-4787-B949-24FF183F481C*
G04*
G04*
G04 #@! TF.FilePolarity,Positive*
G04*
G01*
G75*
%ADD80C,0.12992*%
%ADD95C,0.11000*%
%ADD96C,0.05906*%
%ADD97R,0.05906X0.05906*%
%ADD98C,0.07600*%
%ADD99C,0.05984*%
%ADD100R,0.05984X0.05984*%
%ADD101O,0.18701X0.09252*%
%ADD102O,0.09252X0.18701*%
%ADD103C,0.06900*%
%ADD104C,0.07874*%
%ADD105R,0.05984X0.05984*%
%ADD106R,0.05906X0.05906*%
%ADD107C,0.06500*%
%ADD108P,0.07036X8X22.5*%
%ADD109C,0.12000*%
%ADD110R,0.09843X0.07874*%
%ADD111C,0.06299*%
%ADD112R,0.06299X0.06299*%
D80*
X244012Y19953D02*
D03*
X338500Y20000D02*
D03*
Y145937D02*
D03*
X244012D02*
D03*
X387012Y17453D02*
D03*
Y143437D02*
D03*
X481500Y17453D02*
D03*
Y143437D02*
D03*
D95*
X49500Y12000D02*
D03*
Y32000D02*
D03*
Y52000D02*
D03*
Y72000D02*
D03*
X130500Y477000D02*
D03*
X90500D02*
D03*
X110500D02*
D03*
X43000Y116000D02*
D03*
Y136000D02*
D03*
Y156000D02*
D03*
Y176000D02*
D03*
D96*
X281500Y225500D02*
D03*
X291500D02*
D03*
X301500D02*
D03*
X311500D02*
D03*
X321500D02*
D03*
X331500D02*
D03*
X341500D02*
D03*
X351500D02*
D03*
X361500D02*
D03*
X371500D02*
D03*
X381500D02*
D03*
X452000Y370000D02*
D03*
X462000D02*
D03*
X472000D02*
D03*
X482000D02*
D03*
X492000D02*
D03*
X502000D02*
D03*
X512000D02*
D03*
X462000Y477500D02*
D03*
X472000D02*
D03*
X482000D02*
D03*
X492000D02*
D03*
X502000D02*
D03*
X512000D02*
D03*
X522000D02*
D03*
X297000Y331000D02*
D03*
X307000D02*
D03*
X317000D02*
D03*
X327000D02*
D03*
X337000D02*
D03*
X347000D02*
D03*
X357000D02*
D03*
X367000D02*
D03*
X377000D02*
D03*
X387000D02*
D03*
X397000D02*
D03*
X446500Y266500D02*
D03*
Y256500D02*
D03*
Y276500D02*
D03*
Y286500D02*
D03*
X416000Y409000D02*
D03*
X406000D02*
D03*
X416000Y419000D02*
D03*
X406000D02*
D03*
X416000Y429000D02*
D03*
X406000D02*
D03*
X416000Y439000D02*
D03*
D97*
X391500Y225500D02*
D03*
X522000Y370000D02*
D03*
X452000Y477500D02*
D03*
X287000Y331000D02*
D03*
D98*
X606000Y280000D02*
D03*
Y270000D02*
D03*
Y260000D02*
D03*
D99*
X598000Y384000D02*
D03*
X588000D02*
D03*
X578000D02*
D03*
X568000D02*
D03*
X240000Y251500D02*
D03*
Y241500D02*
D03*
Y231500D02*
D03*
X513500Y198000D02*
D03*
Y208000D02*
D03*
X513000Y276500D02*
D03*
Y286500D02*
D03*
X553500Y319500D02*
D03*
Y309500D02*
D03*
Y299500D02*
D03*
D100*
X558000Y384000D02*
D03*
D101*
X57000Y439900D02*
D03*
Y464500D02*
D03*
D102*
X38100Y451700D02*
D03*
D103*
X136500Y392000D02*
D03*
Y407000D02*
D03*
D104*
X278500Y297185D02*
D03*
Y287343D02*
D03*
X396610Y272579D02*
D03*
X298185Y302106D02*
D03*
X317870Y243051D02*
D03*
X308028Y302106D02*
D03*
Y243051D02*
D03*
X278500Y277500D02*
D03*
X317870Y302106D02*
D03*
X288342D02*
D03*
Y243051D02*
D03*
X298185D02*
D03*
X327713D02*
D03*
X337555D02*
D03*
X347398D02*
D03*
X357240D02*
D03*
X367083D02*
D03*
X376925D02*
D03*
X386768D02*
D03*
X396610D02*
D03*
Y302106D02*
D03*
X386768D02*
D03*
X376925D02*
D03*
X367083D02*
D03*
X357240D02*
D03*
X347398D02*
D03*
X337555D02*
D03*
X327713D02*
D03*
X396610Y292264D02*
D03*
Y282421D02*
D03*
X322791Y292264D02*
D03*
X332634D02*
D03*
X278500Y247972D02*
D03*
Y257815D02*
D03*
Y267657D02*
D03*
D105*
X240000Y261500D02*
D03*
X513500Y188000D02*
D03*
X513000Y266500D02*
D03*
X553500Y329500D02*
D03*
D106*
X446500Y296500D02*
D03*
X406000Y439000D02*
D03*
D107*
X589000Y201500D02*
D03*
D108*
X579000D02*
D03*
D109*
X523126Y47622D02*
D03*
X579032Y71244D02*
D03*
Y23244D02*
D03*
X531000Y71244D02*
D03*
Y24000D02*
D03*
D110*
X609000Y22450D02*
D03*
Y62500D02*
D03*
Y42500D02*
D03*
D111*
X281000Y181500D02*
D03*
X271000D02*
D03*
X291000D02*
D03*
X301000D02*
D03*
X311000D02*
D03*
X435500Y178000D02*
D03*
X425500D02*
D03*
D112*
X261000Y181500D02*
D03*
X415500Y178000D02*
D03*
M02*
