G04*
G04 #@! TF.GenerationSoftware,Altium Limited,Altium Designer,21.3.2 (30)*
G04*
G04 Layer_Color=2752767*
%FSLAX25Y25*%
%MOIN*%
G70*
G04*
G04 #@! TF.SameCoordinates,10CE30CE-E8E0-4787-B949-24FF183F481C*
G04*
G04*
G04 #@! TF.FilePolarity,Positive*
G04*
G01*
G75*
%ADD116C,0.00200*%
%ADD117C,0.00267*%
%ADD118C,0.00133*%
D116*
X48700Y11200D02*
Y12800D01*
X50300D01*
Y11200D01*
X48700D01*
Y31200D02*
Y32800D01*
X50300D01*
Y31200D01*
X48700D01*
Y51200D02*
Y52800D01*
X50300D01*
Y51200D01*
X48700D01*
Y71200D02*
Y72800D01*
X50300D01*
Y71200D01*
X48700D01*
X606000Y279200D02*
X605200Y280800D01*
X606800D01*
X606000Y279200D01*
Y269200D02*
X605200Y270800D01*
X606800D01*
X606000Y269200D01*
Y259200D02*
X605200Y260800D01*
X606800D01*
X606000Y259200D01*
X598000Y383200D02*
X598400Y383600D01*
X598800D01*
X598400Y384000D01*
X598800Y384400D01*
X598400D01*
X598000Y384800D01*
X597600Y384400D01*
X597200D01*
X597600Y384000D01*
X597200Y383600D01*
X597600D01*
X598000Y383200D01*
X588000D02*
X588400Y383600D01*
X588800D01*
X588400Y384000D01*
X588800Y384400D01*
X588400D01*
X588000Y384800D01*
X587600Y384400D01*
X587200D01*
X587600Y384000D01*
X587200Y383600D01*
X587600D01*
X588000Y383200D01*
X578000D02*
X578400Y383600D01*
X578800D01*
X578400Y384000D01*
X578800Y384400D01*
X578400D01*
X578000Y384800D01*
X577600Y384400D01*
X577200D01*
X577600Y384000D01*
X577200Y383600D01*
X577600D01*
X578000Y383200D01*
X568000D02*
X568400Y383600D01*
X568800D01*
X568400Y384000D01*
X568800Y384400D01*
X568400D01*
X568000Y384800D01*
X567600Y384400D01*
X567200D01*
X567600Y384000D01*
X567200Y383600D01*
X567600D01*
X568000Y383200D01*
X558000D02*
X558400Y383600D01*
X558800D01*
X558400Y384000D01*
X558800Y384400D01*
X558400D01*
X558000Y384800D01*
X557600Y384400D01*
X557200D01*
X557600Y384000D01*
X557200Y383600D01*
X557600D01*
X558000Y383200D01*
X56200Y439100D02*
X56600Y439900D01*
X56200Y440700D01*
X57000Y440300D01*
X57800Y440700D01*
X57400Y439900D01*
X57800Y439100D01*
X57000Y439500D01*
X56200Y439100D01*
Y463700D02*
X56600Y464500D01*
X56200Y465300D01*
X57000Y464900D01*
X57800Y465300D01*
X57400Y464500D01*
X57800Y463700D01*
X57000Y464100D01*
X56200Y463700D01*
X37700Y451300D02*
Y450900D01*
X38500D01*
Y451300D01*
X38900D01*
Y452100D01*
X38500D01*
Y452500D01*
X37700D01*
Y452100D01*
X37300D01*
Y451300D01*
X37700D01*
X129700Y476200D02*
Y477800D01*
X131300D01*
Y476200D01*
X129700D01*
X89700D02*
Y477800D01*
X91300D01*
Y476200D01*
X89700D01*
X109700D02*
Y477800D01*
X111300D01*
Y476200D01*
X109700D01*
X135700Y391200D02*
X136100D01*
X136500Y391600D01*
X136900Y391200D01*
X137300D01*
Y391600D01*
X136900Y392000D01*
X137300Y392400D01*
Y392800D01*
X136900D01*
X136500Y392400D01*
X136100Y392800D01*
X135700D01*
Y392400D01*
X136100Y392000D01*
X135700Y391600D01*
Y391200D01*
Y406200D02*
X136100D01*
X136500Y406600D01*
X136900Y406200D01*
X137300D01*
Y406600D01*
X136900Y407000D01*
X137300Y407400D01*
Y407800D01*
X136900D01*
X136500Y407400D01*
X136100Y407800D01*
X135700D01*
Y407400D01*
X136100Y407000D01*
X135700Y406600D01*
Y406200D01*
X243212Y19953D02*
X244012Y20753D01*
X244812Y19953D01*
X244012Y19153D01*
X243212Y19953D01*
X337700Y20000D02*
X338500Y20800D01*
X339300Y20000D01*
X338500Y19200D01*
X337700Y20000D01*
Y145937D02*
X338500Y146737D01*
X339300Y145937D01*
X338500Y145137D01*
X337700Y145937D01*
X243212D02*
X244012Y146737D01*
X244812Y145937D01*
X244012Y145137D01*
X243212Y145937D01*
X386212Y17453D02*
X387012Y18253D01*
X387812Y17453D01*
X387012Y16653D01*
X386212Y17453D01*
X278500Y296385D02*
X277700Y297985D01*
X279300D01*
X278500Y296385D01*
Y286543D02*
X277700Y288142D01*
X279300D01*
X278500Y286543D01*
X396610Y271779D02*
X395810Y273379D01*
X397410D01*
X396610Y271779D01*
X298185Y301306D02*
X297385Y302906D01*
X298985D01*
X298185Y301306D01*
X317870Y242251D02*
X317070Y243851D01*
X318670D01*
X317870Y242251D01*
X308028Y301306D02*
X307228Y302906D01*
X308828D01*
X308028Y301306D01*
Y242251D02*
X307228Y243851D01*
X308828D01*
X308028Y242251D01*
X278500Y276700D02*
X277700Y278300D01*
X279300D01*
X278500Y276700D01*
X317870Y301306D02*
X317070Y302906D01*
X318670D01*
X317870Y301306D01*
X288342D02*
X287543Y302906D01*
X289142D01*
X288342Y301306D01*
Y242251D02*
X287543Y243851D01*
X289142D01*
X288342Y242251D01*
X298185D02*
X297385Y243851D01*
X298985D01*
X298185Y242251D01*
X327713D02*
X326913Y243851D01*
X328513D01*
X327713Y242251D01*
X337555D02*
X336755Y243851D01*
X338355D01*
X337555Y242251D01*
X347398D02*
X346598Y243851D01*
X348198D01*
X347398Y242251D01*
X357240D02*
X356440Y243851D01*
X358040D01*
X357240Y242251D01*
X367083D02*
X366283Y243851D01*
X367883D01*
X367083Y242251D01*
X376925D02*
X376125Y243851D01*
X377725D01*
X376925Y242251D01*
X386768D02*
X385968Y243851D01*
X387568D01*
X386768Y242251D01*
X396610D02*
X395810Y243851D01*
X397410D01*
X396610Y242251D01*
Y301306D02*
X395810Y302906D01*
X397410D01*
X396610Y301306D01*
X386768D02*
X385968Y302906D01*
X387568D01*
X386768Y301306D01*
X376925D02*
X376125Y302906D01*
X377725D01*
X376925Y301306D01*
X367083D02*
X366283Y302906D01*
X367883D01*
X367083Y301306D01*
X357240D02*
X356440Y302906D01*
X358040D01*
X357240Y301306D01*
X347398D02*
X346598Y302906D01*
X348198D01*
X347398Y301306D01*
X337555D02*
X336755Y302906D01*
X338355D01*
X337555Y301306D01*
X327713D02*
X326913Y302906D01*
X328513D01*
X327713Y301306D01*
X396610Y291464D02*
X395810Y293064D01*
X397410D01*
X396610Y291464D01*
Y281621D02*
X395810Y283221D01*
X397410D01*
X396610Y281621D01*
X322791Y291464D02*
X321991Y293064D01*
X323591D01*
X322791Y291464D01*
X332634D02*
X331834Y293064D01*
X333434D01*
X332634Y291464D01*
X278500Y247172D02*
X277700Y248772D01*
X279300D01*
X278500Y247172D01*
Y257015D02*
X277700Y258615D01*
X279300D01*
X278500Y257015D01*
Y266858D02*
X277700Y268458D01*
X279300D01*
X278500Y266858D01*
X240000Y260700D02*
X240400Y261100D01*
X240800D01*
X240400Y261500D01*
X240800Y261900D01*
X240400D01*
X240000Y262300D01*
X239600Y261900D01*
X239200D01*
X239600Y261500D01*
X239200Y261100D01*
X239600D01*
X240000Y260700D01*
Y250700D02*
X240400Y251100D01*
X240800D01*
X240400Y251500D01*
X240800Y251900D01*
X240400D01*
X240000Y252300D01*
X239600Y251900D01*
X239200D01*
X239600Y251500D01*
X239200Y251100D01*
X239600D01*
X240000Y250700D01*
Y240700D02*
X240400Y241100D01*
X240800D01*
X240400Y241500D01*
X240800Y241900D01*
X240400D01*
X240000Y242300D01*
X239600Y241900D01*
X239200D01*
X239600Y241500D01*
X239200Y241100D01*
X239600D01*
X240000Y240700D01*
Y230700D02*
X240400Y231100D01*
X240800D01*
X240400Y231500D01*
X240800Y231900D01*
X240400D01*
X240000Y232300D01*
X239600Y231900D01*
X239200D01*
X239600Y231500D01*
X239200Y231100D01*
X239600D01*
X240000Y230700D01*
X42200Y115200D02*
Y116800D01*
X43800D01*
Y115200D01*
X42200D01*
Y135200D02*
Y136800D01*
X43800D01*
Y135200D01*
X42200D01*
Y155200D02*
Y156800D01*
X43800D01*
Y155200D01*
X42200D01*
Y175200D02*
Y176800D01*
X43800D01*
Y175200D01*
X42200D01*
X513500Y187200D02*
X513900Y187600D01*
X514300D01*
X513900Y188000D01*
X514300Y188400D01*
X513900D01*
X513500Y188800D01*
X513100Y188400D01*
X512700D01*
X513100Y188000D01*
X512700Y187600D01*
X513100D01*
X513500Y187200D01*
Y197200D02*
X513900Y197600D01*
X514300D01*
X513900Y198000D01*
X514300Y198400D01*
X513900D01*
X513500Y198800D01*
X513100Y198400D01*
X512700D01*
X513100Y198000D01*
X512700Y197600D01*
X513100D01*
X513500Y197200D01*
Y207200D02*
X513900Y207600D01*
X514300D01*
X513900Y208000D01*
X514300Y208400D01*
X513900D01*
X513500Y208800D01*
X513100Y208400D01*
X512700D01*
X513100Y208000D01*
X512700Y207600D01*
X513100D01*
X513500Y207200D01*
X588200Y200700D02*
X588600D01*
X589000Y201100D01*
X589400Y200700D01*
X589800D01*
Y201100D01*
X589400Y201500D01*
X589800Y201900D01*
Y202300D01*
X589400D01*
X589000Y201900D01*
X588600Y202300D01*
X588200D01*
Y201900D01*
X588600Y201500D01*
X588200Y201100D01*
Y200700D01*
X578200D02*
X578600D01*
X579000Y201100D01*
X579400Y200700D01*
X579800D01*
Y201100D01*
X579400Y201500D01*
X579800Y201900D01*
Y202300D01*
X579400D01*
X579000Y201900D01*
X578600Y202300D01*
X578200D01*
Y201900D01*
X578600Y201500D01*
X578200Y201100D01*
Y200700D01*
X522326Y46822D02*
Y48422D01*
X523926D01*
Y46822D01*
X522326D01*
X522726Y47222D02*
Y48022D01*
X523526D01*
Y47222D01*
X522726D01*
X578231Y70444D02*
Y72044D01*
X579832D01*
Y70444D01*
X578231D01*
X578631Y70844D02*
Y71644D01*
X579431D01*
Y70844D01*
X578631D01*
X578231Y22444D02*
Y24044D01*
X579832D01*
Y22444D01*
X578231D01*
X578631Y22844D02*
Y23644D01*
X579431D01*
Y22844D01*
X578631D01*
X530200Y70444D02*
Y72044D01*
X531800D01*
Y70444D01*
X530200D01*
X530600Y70844D02*
Y71644D01*
X531400D01*
Y70844D01*
X530600D01*
X530200Y23200D02*
Y24800D01*
X531800D01*
Y23200D01*
X530200D01*
X530600Y23600D02*
Y24400D01*
X531400D01*
Y23600D01*
X530600D01*
X513000Y265700D02*
X513400Y266100D01*
X513800D01*
X513400Y266500D01*
X513800Y266900D01*
X513400D01*
X513000Y267300D01*
X512600Y266900D01*
X512200D01*
X512600Y266500D01*
X512200Y266100D01*
X512600D01*
X513000Y265700D01*
Y275700D02*
X513400Y276100D01*
X513800D01*
X513400Y276500D01*
X513800Y276900D01*
X513400D01*
X513000Y277300D01*
X512600Y276900D01*
X512200D01*
X512600Y276500D01*
X512200Y276100D01*
X512600D01*
X513000Y275700D01*
Y285700D02*
X513400Y286100D01*
X513800D01*
X513400Y286500D01*
X513800Y286900D01*
X513400D01*
X513000Y287300D01*
X512600Y286900D01*
X512200D01*
X512600Y286500D01*
X512200Y286100D01*
X512600D01*
X513000Y285700D01*
X281000Y180700D02*
X280200Y182300D01*
X281800D01*
X281000Y180700D01*
Y181100D02*
X280600Y181900D01*
X281400D01*
X281000Y181100D01*
X261000Y180700D02*
X260200Y182300D01*
X261800D01*
X261000Y180700D01*
Y181100D02*
X260600Y181900D01*
X261400D01*
X261000Y181100D01*
X271000Y180700D02*
X270200Y182300D01*
X271800D01*
X271000Y180700D01*
Y181100D02*
X270600Y181900D01*
X271400D01*
X271000Y181100D01*
X291000Y180700D02*
X290200Y182300D01*
X291800D01*
X291000Y180700D01*
Y181100D02*
X290600Y181900D01*
X291400D01*
X291000Y181100D01*
X301000Y180700D02*
X300200Y182300D01*
X301800D01*
X301000Y180700D01*
Y181100D02*
X300600Y181900D01*
X301400D01*
X301000Y181100D01*
X311000Y180700D02*
X310200Y182300D01*
X311800D01*
X311000Y180700D01*
Y181100D02*
X310600Y181900D01*
X311400D01*
X311000Y181100D01*
X553500Y328700D02*
X553900Y329100D01*
X554300D01*
X553900Y329500D01*
X554300Y329900D01*
X553900D01*
X553500Y330300D01*
X553100Y329900D01*
X552700D01*
X553100Y329500D01*
X552700Y329100D01*
X553100D01*
X553500Y328700D01*
Y318700D02*
X553900Y319100D01*
X554300D01*
X553900Y319500D01*
X554300Y319900D01*
X553900D01*
X553500Y320300D01*
X553100Y319900D01*
X552700D01*
X553100Y319500D01*
X552700Y319100D01*
X553100D01*
X553500Y318700D01*
Y308700D02*
X553900Y309100D01*
X554300D01*
X553900Y309500D01*
X554300Y309900D01*
X553900D01*
X553500Y310300D01*
X553100Y309900D01*
X552700D01*
X553100Y309500D01*
X552700Y309100D01*
X553100D01*
X553500Y308700D01*
Y298700D02*
X553900Y299100D01*
X554300D01*
X553900Y299500D01*
X554300Y299900D01*
X553900D01*
X553500Y300300D01*
X553100Y299900D01*
X552700D01*
X553100Y299500D01*
X552700Y299100D01*
X553100D01*
X553500Y298700D01*
X435500Y177200D02*
X434700Y178800D01*
X436300D01*
X435500Y177200D01*
Y177600D02*
X435100Y178400D01*
X435900D01*
X435500Y177600D01*
X415500Y177200D02*
X414700Y178800D01*
X416300D01*
X415500Y177200D01*
Y177600D02*
X415100Y178400D01*
X415900D01*
X415500Y177600D01*
X425500Y177200D02*
X424700Y178800D01*
X426300D01*
X425500Y177200D01*
Y177600D02*
X425100Y178400D01*
X425900D01*
X425500Y177600D01*
X386212Y143437D02*
X387012Y144237D01*
X387812Y143437D01*
X387012Y142637D01*
X386212Y143437D01*
X480700Y17453D02*
X481500Y18253D01*
X482300Y17453D01*
X481500Y16653D01*
X480700Y17453D01*
Y143437D02*
X481500Y144237D01*
X482300Y143437D01*
X481500Y142637D01*
X480700Y143437D01*
X402500Y110700D02*
X402900Y111100D01*
X403300D01*
X402900Y111500D01*
X403300Y111900D01*
X402900D01*
X402500Y112300D01*
X402100Y111900D01*
X401700D01*
X402100Y111500D01*
X401700Y111100D01*
X402100D01*
X402500Y110700D01*
Y111100D02*
X402700Y111300D01*
X402900D01*
X402700Y111500D01*
X402900Y111700D01*
X402700D01*
X402500Y111900D01*
X402300Y111700D01*
X402100D01*
X402300Y111500D01*
X402100Y111300D01*
X402300D01*
X402500Y111100D01*
X527500Y308700D02*
X527900Y309100D01*
X528300D01*
X527900Y309500D01*
X528300Y309900D01*
X527900D01*
X527500Y310300D01*
X527100Y309900D01*
X526700D01*
X527100Y309500D01*
X526700Y309100D01*
X527100D01*
X527500Y308700D01*
Y309100D02*
X527700Y309300D01*
X527900D01*
X527700Y309500D01*
X527900Y309700D01*
X527700D01*
X527500Y309900D01*
X527300Y309700D01*
X527100D01*
X527300Y309500D01*
X527100Y309300D01*
X527300D01*
X527500Y309100D01*
X245500Y299700D02*
X245900Y300100D01*
X246300D01*
X245900Y300500D01*
X246300Y300900D01*
X245900D01*
X245500Y301300D01*
X245100Y300900D01*
X244700D01*
X245100Y300500D01*
X244700Y300100D01*
X245100D01*
X245500Y299700D01*
Y300100D02*
X245700Y300300D01*
X245900D01*
X245700Y300500D01*
X245900Y300700D01*
X245700D01*
X245500Y300900D01*
X245300Y300700D01*
X245100D01*
X245300Y300500D01*
X245100Y300300D01*
X245300D01*
X245500Y300100D01*
X212000Y147200D02*
X212400Y147600D01*
X212800D01*
X212400Y148000D01*
X212800Y148400D01*
X212400D01*
X212000Y148800D01*
X211600Y148400D01*
X211200D01*
X211600Y148000D01*
X211200Y147600D01*
X211600D01*
X212000Y147200D01*
Y147600D02*
X212200Y147800D01*
X212400D01*
X212200Y148000D01*
X212400Y148200D01*
X212200D01*
X212000Y148400D01*
X211800Y148200D01*
X211600D01*
X211800Y148000D01*
X211600Y147800D01*
X211800D01*
X212000Y147600D01*
X183500Y165200D02*
X183900Y165600D01*
X184300D01*
X183900Y166000D01*
X184300Y166400D01*
X183900D01*
X183500Y166800D01*
X183100Y166400D01*
X182700D01*
X183100Y166000D01*
X182700Y165600D01*
X183100D01*
X183500Y165200D01*
Y165600D02*
X183700Y165800D01*
X183900D01*
X183700Y166000D01*
X183900Y166200D01*
X183700D01*
X183500Y166400D01*
X183300Y166200D01*
X183100D01*
X183300Y166000D01*
X183100Y165800D01*
X183300D01*
X183500Y165600D01*
X179000Y135200D02*
X179400Y135600D01*
X179800D01*
X179400Y136000D01*
X179800Y136400D01*
X179400D01*
X179000Y136800D01*
X178600Y136400D01*
X178200D01*
X178600Y136000D01*
X178200Y135600D01*
X178600D01*
X179000Y135200D01*
Y135600D02*
X179200Y135800D01*
X179400D01*
X179200Y136000D01*
X179400Y136200D01*
X179200D01*
X179000Y136400D01*
X178800Y136200D01*
X178600D01*
X178800Y136000D01*
X178600Y135800D01*
X178800D01*
X179000Y135600D01*
X204000Y65200D02*
X204400Y65600D01*
X204800D01*
X204400Y66000D01*
X204800Y66400D01*
X204400D01*
X204000Y66800D01*
X203600Y66400D01*
X203200D01*
X203600Y66000D01*
X203200Y65600D01*
X203600D01*
X204000Y65200D01*
Y65600D02*
X204200Y65800D01*
X204400D01*
X204200Y66000D01*
X204400Y66200D01*
X204200D01*
X204000Y66400D01*
X203800Y66200D01*
X203600D01*
X203800Y66000D01*
X203600Y65800D01*
X203800D01*
X204000Y65600D01*
X194500Y38700D02*
X194900Y39100D01*
X195300D01*
X194900Y39500D01*
X195300Y39900D01*
X194900D01*
X194500Y40300D01*
X194100Y39900D01*
X193700D01*
X194100Y39500D01*
X193700Y39100D01*
X194100D01*
X194500Y38700D01*
Y39100D02*
X194700Y39300D01*
X194900D01*
X194700Y39500D01*
X194900Y39700D01*
X194700D01*
X194500Y39900D01*
X194300Y39700D01*
X194100D01*
X194300Y39500D01*
X194100Y39300D01*
X194300D01*
X194500Y39100D01*
X230500Y63700D02*
X230900Y64100D01*
X231300D01*
X230900Y64500D01*
X231300Y64900D01*
X230900D01*
X230500Y65300D01*
X230100Y64900D01*
X229700D01*
X230100Y64500D01*
X229700Y64100D01*
X230100D01*
X230500Y63700D01*
Y64100D02*
X230700Y64300D01*
X230900D01*
X230700Y64500D01*
X230900Y64700D01*
X230700D01*
X230500Y64900D01*
X230300Y64700D01*
X230100D01*
X230300Y64500D01*
X230100Y64300D01*
X230300D01*
X230500Y64100D01*
X520500Y111200D02*
X520900Y111600D01*
X521300D01*
X520900Y112000D01*
X521300Y112400D01*
X520900D01*
X520500Y112800D01*
X520100Y112400D01*
X519700D01*
X520100Y112000D01*
X519700Y111600D01*
X520100D01*
X520500Y111200D01*
Y111600D02*
X520700Y111800D01*
X520900D01*
X520700Y112000D01*
X520900Y112200D01*
X520700D01*
X520500Y112400D01*
X520300Y112200D01*
X520100D01*
X520300Y112000D01*
X520100Y111800D01*
X520300D01*
X520500Y111600D01*
X378000Y112700D02*
X378400Y113100D01*
X378800D01*
X378400Y113500D01*
X378800Y113900D01*
X378400D01*
X378000Y114300D01*
X377600Y113900D01*
X377200D01*
X377600Y113500D01*
X377200Y113100D01*
X377600D01*
X378000Y112700D01*
Y113100D02*
X378200Y113300D01*
X378400D01*
X378200Y113500D01*
X378400Y113700D01*
X378200D01*
X378000Y113900D01*
X377800Y113700D01*
X377600D01*
X377800Y113500D01*
X377600Y113300D01*
X377800D01*
X378000Y113100D01*
X469500Y271200D02*
X469900Y271600D01*
X470300D01*
X469900Y272000D01*
X470300Y272400D01*
X469900D01*
X469500Y272800D01*
X469100Y272400D01*
X468700D01*
X469100Y272000D01*
X468700Y271600D01*
X469100D01*
X469500Y271200D01*
Y271600D02*
X469700Y271800D01*
X469900D01*
X469700Y272000D01*
X469900Y272200D01*
X469700D01*
X469500Y272400D01*
X469300Y272200D01*
X469100D01*
X469300Y272000D01*
X469100Y271800D01*
X469300D01*
X469500Y271600D01*
X233500Y314700D02*
X233900Y315100D01*
X234300D01*
X233900Y315500D01*
X234300Y315900D01*
X233900D01*
X233500Y316300D01*
X233100Y315900D01*
X232700D01*
X233100Y315500D01*
X232700Y315100D01*
X233100D01*
X233500Y314700D01*
Y315100D02*
X233700Y315300D01*
X233900D01*
X233700Y315500D01*
X233900Y315700D01*
X233700D01*
X233500Y315900D01*
X233300Y315700D01*
X233100D01*
X233300Y315500D01*
X233100Y315300D01*
X233300D01*
X233500Y315100D01*
X343000Y368200D02*
X343400Y368600D01*
X343800D01*
X343400Y369000D01*
X343800Y369400D01*
X343400D01*
X343000Y369800D01*
X342600Y369400D01*
X342200D01*
X342600Y369000D01*
X342200Y368600D01*
X342600D01*
X343000Y368200D01*
Y368600D02*
X343200Y368800D01*
X343400D01*
X343200Y369000D01*
X343400Y369200D01*
X343200D01*
X343000Y369400D01*
X342800Y369200D01*
X342600D01*
X342800Y369000D01*
X342600Y368800D01*
X342800D01*
X343000Y368600D01*
X276500Y377700D02*
X276900Y378100D01*
X277300D01*
X276900Y378500D01*
X277300Y378900D01*
X276900D01*
X276500Y379300D01*
X276100Y378900D01*
X275700D01*
X276100Y378500D01*
X275700Y378100D01*
X276100D01*
X276500Y377700D01*
Y378100D02*
X276700Y378300D01*
X276900D01*
X276700Y378500D01*
X276900Y378700D01*
X276700D01*
X276500Y378900D01*
X276300Y378700D01*
X276100D01*
X276300Y378500D01*
X276100Y378300D01*
X276300D01*
X276500Y378100D01*
X423308Y411700D02*
X423708Y412100D01*
X424108D01*
X423708Y412500D01*
X424108Y412900D01*
X423708D01*
X423308Y413300D01*
X422908Y412900D01*
X422508D01*
X422908Y412500D01*
X422508Y412100D01*
X422908D01*
X423308Y411700D01*
Y412100D02*
X423508Y412300D01*
X423708D01*
X423508Y412500D01*
X423708Y412700D01*
X423508D01*
X423308Y412900D01*
X423108Y412700D01*
X422908D01*
X423108Y412500D01*
X422908Y412300D01*
X423108D01*
X423308Y412100D01*
X426500Y420700D02*
X426900Y421100D01*
X427300D01*
X426900Y421500D01*
X427300Y421900D01*
X426900D01*
X426500Y422300D01*
X426100Y421900D01*
X425700D01*
X426100Y421500D01*
X425700Y421100D01*
X426100D01*
X426500Y420700D01*
Y421100D02*
X426700Y421300D01*
X426900D01*
X426700Y421500D01*
X426900Y421700D01*
X426700D01*
X426500Y421900D01*
X426300Y421700D01*
X426100D01*
X426300Y421500D01*
X426100Y421300D01*
X426300D01*
X426500Y421100D01*
X421000Y399200D02*
X421400Y399600D01*
X421800D01*
X421400Y400000D01*
X421800Y400400D01*
X421400D01*
X421000Y400800D01*
X420600Y400400D01*
X420200D01*
X420600Y400000D01*
X420200Y399600D01*
X420600D01*
X421000Y399200D01*
Y399600D02*
X421200Y399800D01*
X421400D01*
X421200Y400000D01*
X421400Y400200D01*
X421200D01*
X421000Y400400D01*
X420800Y400200D01*
X420600D01*
X420800Y400000D01*
X420600Y399800D01*
X420800D01*
X421000Y399600D01*
X426000Y396200D02*
X426400Y396600D01*
X426800D01*
X426400Y397000D01*
X426800Y397400D01*
X426400D01*
X426000Y397800D01*
X425600Y397400D01*
X425200D01*
X425600Y397000D01*
X425200Y396600D01*
X425600D01*
X426000Y396200D01*
Y396600D02*
X426200Y396800D01*
X426400D01*
X426200Y397000D01*
X426400Y397200D01*
X426200D01*
X426000Y397400D01*
X425800Y397200D01*
X425600D01*
X425800Y397000D01*
X425600Y396800D01*
X425800D01*
X426000Y396600D01*
X406000Y388700D02*
X406400Y389100D01*
X406800D01*
X406400Y389500D01*
X406800Y389900D01*
X406400D01*
X406000Y390300D01*
X405600Y389900D01*
X405200D01*
X405600Y389500D01*
X405200Y389100D01*
X405600D01*
X406000Y388700D01*
Y389100D02*
X406200Y389300D01*
X406400D01*
X406200Y389500D01*
X406400Y389700D01*
X406200D01*
X406000Y389900D01*
X405800Y389700D01*
X405600D01*
X405800Y389500D01*
X405600Y389300D01*
X405800D01*
X406000Y389100D01*
X414547Y392200D02*
X414947Y392600D01*
X415347D01*
X414947Y393000D01*
X415347Y393400D01*
X414947D01*
X414547Y393800D01*
X414147Y393400D01*
X413747D01*
X414147Y393000D01*
X413747Y392600D01*
X414147D01*
X414547Y392200D01*
Y392600D02*
X414747Y392800D01*
X414947D01*
X414747Y393000D01*
X414947Y393200D01*
X414747D01*
X414547Y393400D01*
X414347Y393200D01*
X414147D01*
X414347Y393000D01*
X414147Y392800D01*
X414347D01*
X414547Y392600D01*
X526000Y257700D02*
X526400Y258100D01*
X526800D01*
X526400Y258500D01*
X526800Y258900D01*
X526400D01*
X526000Y259300D01*
X525600Y258900D01*
X525200D01*
X525600Y258500D01*
X525200Y258100D01*
X525600D01*
X526000Y257700D01*
Y258100D02*
X526200Y258300D01*
X526400D01*
X526200Y258500D01*
X526400Y258700D01*
X526200D01*
X526000Y258900D01*
X525800Y258700D01*
X525600D01*
X525800Y258500D01*
X525600Y258300D01*
X525800D01*
X526000Y258100D01*
X527000Y270700D02*
X527400Y271100D01*
X527800D01*
X527400Y271500D01*
X527800Y271900D01*
X527400D01*
X527000Y272300D01*
X526600Y271900D01*
X526200D01*
X526600Y271500D01*
X526200Y271100D01*
X526600D01*
X527000Y270700D01*
Y271100D02*
X527200Y271300D01*
X527400D01*
X527200Y271500D01*
X527400Y271700D01*
X527200D01*
X527000Y271900D01*
X526800Y271700D01*
X526600D01*
X526800Y271500D01*
X526600Y271300D01*
X526800D01*
X527000Y271100D01*
X133500Y150200D02*
X133900Y150600D01*
X134300D01*
X133900Y151000D01*
X134300Y151400D01*
X133900D01*
X133500Y151800D01*
X133100Y151400D01*
X132700D01*
X133100Y151000D01*
X132700Y150600D01*
X133100D01*
X133500Y150200D01*
Y150600D02*
X133700Y150800D01*
X133900D01*
X133700Y151000D01*
X133900Y151200D01*
X133700D01*
X133500Y151400D01*
X133300Y151200D01*
X133100D01*
X133300Y151000D01*
X133100Y150800D01*
X133300D01*
X133500Y150600D01*
X134500Y137700D02*
X134900Y138100D01*
X135300D01*
X134900Y138500D01*
X135300Y138900D01*
X134900D01*
X134500Y139300D01*
X134100Y138900D01*
X133700D01*
X134100Y138500D01*
X133700Y138100D01*
X134100D01*
X134500Y137700D01*
Y138100D02*
X134700Y138300D01*
X134900D01*
X134700Y138500D01*
X134900Y138700D01*
X134700D01*
X134500Y138900D01*
X134300Y138700D01*
X134100D01*
X134300Y138500D01*
X134100Y138300D01*
X134300D01*
X134500Y138100D01*
D117*
X282300Y225500D02*
G03*
X282300Y225500I-800J0D01*
G01*
X292300D02*
G03*
X292300Y225500I-800J0D01*
G01*
X302300D02*
G03*
X302300Y225500I-800J0D01*
G01*
X312300D02*
G03*
X312300Y225500I-800J0D01*
G01*
X322300D02*
G03*
X322300Y225500I-800J0D01*
G01*
X332300D02*
G03*
X332300Y225500I-800J0D01*
G01*
X342300D02*
G03*
X342300Y225500I-800J0D01*
G01*
X352300D02*
G03*
X352300Y225500I-800J0D01*
G01*
X362300D02*
G03*
X362300Y225500I-800J0D01*
G01*
X372300D02*
G03*
X372300Y225500I-800J0D01*
G01*
X382300D02*
G03*
X382300Y225500I-800J0D01*
G01*
X392300D02*
G03*
X392300Y225500I-800J0D01*
G01*
X452800Y370000D02*
G03*
X452800Y370000I-800J0D01*
G01*
X462800D02*
G03*
X462800Y370000I-800J0D01*
G01*
X472800D02*
G03*
X472800Y370000I-800J0D01*
G01*
X482800D02*
G03*
X482800Y370000I-800J0D01*
G01*
X492800D02*
G03*
X492800Y370000I-800J0D01*
G01*
X502800D02*
G03*
X502800Y370000I-800J0D01*
G01*
X512800D02*
G03*
X512800Y370000I-800J0D01*
G01*
X522800D02*
G03*
X522800Y370000I-800J0D01*
G01*
X452800Y477500D02*
G03*
X452800Y477500I-800J0D01*
G01*
X462800D02*
G03*
X462800Y477500I-800J0D01*
G01*
X472800D02*
G03*
X472800Y477500I-800J0D01*
G01*
X482800D02*
G03*
X482800Y477500I-800J0D01*
G01*
X492800D02*
G03*
X492800Y477500I-800J0D01*
G01*
X502800D02*
G03*
X502800Y477500I-800J0D01*
G01*
X512800D02*
G03*
X512800Y477500I-800J0D01*
G01*
X522800D02*
G03*
X522800Y477500I-800J0D01*
G01*
X287800Y331000D02*
G03*
X287800Y331000I-800J0D01*
G01*
X297800D02*
G03*
X297800Y331000I-800J0D01*
G01*
X307800D02*
G03*
X307800Y331000I-800J0D01*
G01*
X317800D02*
G03*
X317800Y331000I-800J0D01*
G01*
X327800D02*
G03*
X327800Y331000I-800J0D01*
G01*
X337800D02*
G03*
X337800Y331000I-800J0D01*
G01*
X347800D02*
G03*
X347800Y331000I-800J0D01*
G01*
X357800D02*
G03*
X357800Y331000I-800J0D01*
G01*
X367800D02*
G03*
X367800Y331000I-800J0D01*
G01*
X377800D02*
G03*
X377800Y331000I-800J0D01*
G01*
X387800D02*
G03*
X387800Y331000I-800J0D01*
G01*
X397800D02*
G03*
X397800Y331000I-800J0D01*
G01*
X447300Y266500D02*
G03*
X447300Y266500I-800J0D01*
G01*
Y256500D02*
G03*
X447300Y256500I-800J0D01*
G01*
Y276500D02*
G03*
X447300Y276500I-800J0D01*
G01*
Y286500D02*
G03*
X447300Y286500I-800J0D01*
G01*
Y296500D02*
G03*
X447300Y296500I-800J0D01*
G01*
X416800Y409000D02*
G03*
X416800Y409000I-800J0D01*
G01*
X406800D02*
G03*
X406800Y409000I-800J0D01*
G01*
X416800Y419000D02*
G03*
X416800Y419000I-800J0D01*
G01*
X406800D02*
G03*
X406800Y419000I-800J0D01*
G01*
X416800Y429000D02*
G03*
X416800Y429000I-800J0D01*
G01*
X406800D02*
G03*
X406800Y429000I-800J0D01*
G01*
X416800Y439000D02*
G03*
X416800Y439000I-800J0D01*
G01*
X406800D02*
G03*
X406800Y439000I-800J0D01*
G01*
X609800Y22450D02*
G03*
X609800Y22450I-800J0D01*
G01*
Y62500D02*
G03*
X609800Y62500I-800J0D01*
G01*
Y42500D02*
G03*
X609800Y42500I-800J0D01*
G01*
D118*
X609400Y22450D02*
G03*
X609400Y22450I-400J0D01*
G01*
Y62500D02*
G03*
X609400Y62500I-400J0D01*
G01*
Y42500D02*
G03*
X609400Y42500I-400J0D01*
G01*
M02*
