G04*
G04 #@! TF.GenerationSoftware,Altium Limited,Altium Designer,21.3.2 (30)*
G04*
G04 Layer_Color=16711935*
%FSLAX25Y25*%
%MOIN*%
G70*
G04*
G04 #@! TF.SameCoordinates,10CE30CE-E8E0-4787-B949-24FF183F481C*
G04*
G04*
G04 #@! TF.FilePolarity,Negative*
G04*
G01*
G75*
%ADD71C,0.11800*%
%ADD72C,0.06706*%
%ADD73R,0.06706X0.06706*%
%ADD74C,0.08400*%
%ADD75C,0.06784*%
%ADD76R,0.06784X0.06784*%
%ADD77O,0.19501X0.10052*%
%ADD78O,0.10052X0.19501*%
%ADD79C,0.07700*%
%ADD80C,0.12992*%
%ADD81C,0.08674*%
%ADD82R,0.06784X0.06784*%
%ADD83R,0.06706X0.06706*%
%ADD84C,0.07300*%
%ADD85P,0.07902X8X22.5*%
%ADD86C,0.12800*%
%ADD87R,0.10642X0.08674*%
%ADD88C,0.07099*%
%ADD89R,0.07099X0.07099*%
%ADD90C,0.03800*%
D71*
X49500Y12000D02*
D03*
Y32000D02*
D03*
Y52000D02*
D03*
Y72000D02*
D03*
X130500Y477000D02*
D03*
X90500D02*
D03*
X110500D02*
D03*
X43000Y116000D02*
D03*
Y136000D02*
D03*
Y156000D02*
D03*
Y176000D02*
D03*
D72*
X281500Y225500D02*
D03*
X291500D02*
D03*
X301500D02*
D03*
X311500D02*
D03*
X321500D02*
D03*
X331500D02*
D03*
X341500D02*
D03*
X351500D02*
D03*
X361500D02*
D03*
X371500D02*
D03*
X381500D02*
D03*
X452000Y370000D02*
D03*
X462000D02*
D03*
X472000D02*
D03*
X482000D02*
D03*
X492000D02*
D03*
X502000D02*
D03*
X512000D02*
D03*
X462000Y477500D02*
D03*
X472000D02*
D03*
X482000D02*
D03*
X492000D02*
D03*
X502000D02*
D03*
X512000D02*
D03*
X522000D02*
D03*
X297000Y331000D02*
D03*
X307000D02*
D03*
X317000D02*
D03*
X327000D02*
D03*
X337000D02*
D03*
X347000D02*
D03*
X357000D02*
D03*
X367000D02*
D03*
X377000D02*
D03*
X387000D02*
D03*
X397000D02*
D03*
X446500Y266500D02*
D03*
Y256500D02*
D03*
Y276500D02*
D03*
Y286500D02*
D03*
X416000Y409000D02*
D03*
X406000D02*
D03*
X416000Y419000D02*
D03*
X406000D02*
D03*
X416000Y429000D02*
D03*
X406000D02*
D03*
X416000Y439000D02*
D03*
D73*
X391500Y225500D02*
D03*
X522000Y370000D02*
D03*
X452000Y477500D02*
D03*
X287000Y331000D02*
D03*
D74*
X606000Y280000D02*
D03*
Y270000D02*
D03*
Y260000D02*
D03*
D75*
X598000Y384000D02*
D03*
X588000D02*
D03*
X578000D02*
D03*
X568000D02*
D03*
X240000Y251500D02*
D03*
Y241500D02*
D03*
Y231500D02*
D03*
X513500Y198000D02*
D03*
Y208000D02*
D03*
X513000Y276500D02*
D03*
Y286500D02*
D03*
X553500Y319500D02*
D03*
Y309500D02*
D03*
Y299500D02*
D03*
D76*
X558000Y384000D02*
D03*
D77*
X57000Y439900D02*
D03*
Y464500D02*
D03*
D78*
X38100Y451700D02*
D03*
D79*
X136500Y392000D02*
D03*
Y407000D02*
D03*
D80*
X244012Y19953D02*
D03*
X338500Y20000D02*
D03*
Y145937D02*
D03*
X244012D02*
D03*
X387012Y17453D02*
D03*
Y143437D02*
D03*
X481500Y17453D02*
D03*
Y143437D02*
D03*
D81*
X278500Y297185D02*
D03*
Y287343D02*
D03*
X396610Y272579D02*
D03*
X298185Y302106D02*
D03*
X317870Y243051D02*
D03*
X308028Y302106D02*
D03*
Y243051D02*
D03*
X278500Y277500D02*
D03*
X317870Y302106D02*
D03*
X288342D02*
D03*
Y243051D02*
D03*
X298185D02*
D03*
X327713D02*
D03*
X337555D02*
D03*
X347398D02*
D03*
X357240D02*
D03*
X367083D02*
D03*
X376925D02*
D03*
X386768D02*
D03*
X396610D02*
D03*
Y302106D02*
D03*
X386768D02*
D03*
X376925D02*
D03*
X367083D02*
D03*
X357240D02*
D03*
X347398D02*
D03*
X337555D02*
D03*
X327713D02*
D03*
X396610Y292264D02*
D03*
Y282421D02*
D03*
X322791Y292264D02*
D03*
X332634D02*
D03*
X278500Y247972D02*
D03*
Y257815D02*
D03*
Y267657D02*
D03*
D82*
X240000Y261500D02*
D03*
X513500Y188000D02*
D03*
X513000Y266500D02*
D03*
X553500Y329500D02*
D03*
D83*
X446500Y296500D02*
D03*
X406000Y439000D02*
D03*
D84*
X589000Y201500D02*
D03*
D85*
X579000D02*
D03*
D86*
X523126Y47622D02*
D03*
X579032Y71244D02*
D03*
Y23244D02*
D03*
X531000Y71244D02*
D03*
Y24000D02*
D03*
D87*
X609000Y22450D02*
D03*
Y62500D02*
D03*
Y42500D02*
D03*
D88*
X281000Y181500D02*
D03*
X271000D02*
D03*
X291000D02*
D03*
X301000D02*
D03*
X311000D02*
D03*
X435500Y178000D02*
D03*
X425500D02*
D03*
D89*
X261000Y181500D02*
D03*
X415500Y178000D02*
D03*
D90*
X402500Y111500D02*
D03*
X527500Y309500D02*
D03*
X245500Y300500D02*
D03*
X212000Y148000D02*
D03*
X183500Y166000D02*
D03*
X179000Y136000D02*
D03*
X204000Y66000D02*
D03*
X194500Y39500D02*
D03*
X230500Y64500D02*
D03*
X520500Y112000D02*
D03*
X378000Y113500D02*
D03*
X469500Y272000D02*
D03*
X233500Y315500D02*
D03*
X343000Y369000D02*
D03*
X276500Y378500D02*
D03*
X423308Y412500D02*
D03*
X426500Y421500D02*
D03*
X421000Y400000D02*
D03*
X426000Y397000D02*
D03*
X406000Y389500D02*
D03*
X414547Y393000D02*
D03*
X526000Y258500D02*
D03*
X527000Y271500D02*
D03*
X133500Y151000D02*
D03*
X134500Y138500D02*
D03*
M02*
