G04*
G04 #@! TF.GenerationSoftware,Altium Limited,Altium Designer,21.3.2 (30)*
G04*
G04 Layer_Color=32768*
%FSLAX25Y25*%
%MOIN*%
G70*
G04*
G04 #@! TF.SameCoordinates,10CE30CE-E8E0-4787-B949-24FF183F481C*
G04*
G04*
G04 #@! TF.FilePolarity,Positive*
G04*
G01*
G75*
%ADD115C,0.00197*%
D115*
X232201Y9598D02*
Y30307D01*
Y9598D02*
X255823D01*
Y30307D01*
X232201D02*
X255823D01*
X326689Y9646D02*
Y30354D01*
Y9646D02*
X350311D01*
Y30354D01*
X326689D02*
X350311D01*
X326689Y135583D02*
Y156291D01*
Y135583D02*
X350311D01*
Y156291D01*
X326689D02*
X350311D01*
X232201Y135583D02*
Y156291D01*
Y135583D02*
X255823D01*
Y156291D01*
X232201D02*
X255823D01*
X375201Y7098D02*
Y27807D01*
Y7098D02*
X398823D01*
Y27807D01*
X375201D02*
X398823D01*
X323051Y389618D02*
Y404382D01*
X314291Y389618D02*
X323051D01*
X314291Y383221D02*
Y389618D01*
X298543Y383221D02*
X314291D01*
X298543D02*
Y385090D01*
X289784D02*
X298543D01*
X289784D02*
Y408910D01*
X298543D01*
Y410779D01*
X314291D01*
Y404382D02*
Y410779D01*
Y404382D02*
X323051D01*
X449051Y389083D02*
Y461917D01*
X517949D01*
Y389083D02*
Y461917D01*
X449051Y389083D02*
X517949D01*
X375201Y153791D02*
X398823D01*
Y133083D02*
Y153791D01*
X375201Y133083D02*
X398823D01*
X375201D02*
Y153791D01*
X469689Y27807D02*
X493311D01*
Y7098D02*
Y27807D01*
X469689Y7098D02*
X493311D01*
X469689D02*
Y27807D01*
Y153791D02*
X493311D01*
Y133083D02*
Y153791D01*
X469689Y133083D02*
X493311D01*
X469689D02*
Y153791D01*
M02*
