G04*
G04 #@! TF.GenerationSoftware,Altium Limited,Altium Designer,21.3.2 (30)*
G04*
G04 Layer_Color=8421504*
%FSLAX25Y25*%
%MOIN*%
G70*
G04*
G04 #@! TF.SameCoordinates,10CE30CE-E8E0-4787-B949-24FF183F481C*
G04*
G04*
G04 #@! TF.FilePolarity,Positive*
G04*
G01*
G75*
%ADD19R,0.05512X0.04724*%
%ADD20R,0.12000X0.07500*%
%ADD21O,0.08000X0.02400*%
%ADD22R,0.05000X0.05400*%
%ADD23R,0.03600X0.05000*%
%ADD24R,0.05906X0.10236*%
%ADD25R,0.09449X0.12992*%
%ADD26R,0.04724X0.05512*%
%ADD27O,0.02000X0.04000*%
G04:AMPARAMS|DCode=28|XSize=20mil|YSize=40mil|CornerRadius=0mil|HoleSize=0mil|Usage=FLASHONLY|Rotation=0.000|XOffset=0mil|YOffset=0mil|HoleType=Round|Shape=Octagon|*
%AMOCTAGOND28*
4,1,8,-0.00500,0.02000,0.00500,0.02000,0.01000,0.01500,0.01000,-0.01500,0.00500,-0.02000,-0.00500,-0.02000,-0.01000,-0.01500,-0.01000,0.01500,-0.00500,0.02000,0.0*
%
%ADD28OCTAGOND28*%

%ADD29R,0.06000X0.08500*%
%ADD30R,0.05400X0.05000*%
%ADD31R,0.09055X0.09055*%
%ADD32R,0.08000X0.09000*%
%ADD33R,0.09000X0.14000*%
%ADD34R,0.10000X0.03600*%
%ADD35R,0.30000X0.26000*%
%ADD36O,0.10000X0.03600*%
%ADD37R,0.06693X0.06693*%
%ADD38R,0.06000X0.06000*%
%ADD39R,0.08465X0.12795*%
%ADD40R,0.08465X0.03740*%
%ADD41R,0.04331X0.11024*%
%ADD42R,0.04331X0.10236*%
%ADD43R,0.09000X0.08000*%
%ADD44R,0.13000X0.20000*%
D19*
X192513Y173258D02*
D03*
Y165777D02*
D03*
X410487Y119243D02*
D03*
Y126723D02*
D03*
X528487Y240742D02*
D03*
Y248223D02*
D03*
X547987Y356743D02*
D03*
Y364223D02*
D03*
X529013Y328257D02*
D03*
Y320777D02*
D03*
X206487Y113223D02*
D03*
Y105743D02*
D03*
X232000Y113000D02*
D03*
Y105520D02*
D03*
X342987Y110723D02*
D03*
Y103243D02*
D03*
D20*
X50000Y374500D02*
D03*
Y345500D02*
D03*
D21*
X146000Y137000D02*
D03*
Y142000D02*
D03*
Y147000D02*
D03*
Y152000D02*
D03*
X168000D02*
D03*
Y147000D02*
D03*
Y142000D02*
D03*
Y137000D02*
D03*
X187000Y26500D02*
D03*
Y31500D02*
D03*
Y36500D02*
D03*
Y41500D02*
D03*
X165000D02*
D03*
Y36500D02*
D03*
Y31500D02*
D03*
Y26500D02*
D03*
D22*
X115500Y155000D02*
D03*
Y146000D02*
D03*
X143000Y11500D02*
D03*
Y20500D02*
D03*
X453000Y116000D02*
D03*
Y125000D02*
D03*
X433500Y117500D02*
D03*
Y126500D02*
D03*
X513500Y159500D02*
D03*
Y168500D02*
D03*
X352500Y381000D02*
D03*
Y390000D02*
D03*
X269500Y381500D02*
D03*
Y372500D02*
D03*
X240000Y367500D02*
D03*
Y376500D02*
D03*
X213500Y430000D02*
D03*
Y421000D02*
D03*
X119500Y37500D02*
D03*
Y28500D02*
D03*
X222000Y65500D02*
D03*
Y74500D02*
D03*
X174500Y67500D02*
D03*
Y76500D02*
D03*
X152000Y68500D02*
D03*
Y77500D02*
D03*
X197000Y66000D02*
D03*
Y75000D02*
D03*
X88000Y121000D02*
D03*
Y130000D02*
D03*
X126500Y129000D02*
D03*
Y120000D02*
D03*
X176500Y167500D02*
D03*
Y176500D02*
D03*
X162000Y166000D02*
D03*
Y175000D02*
D03*
X143500Y169500D02*
D03*
Y178500D02*
D03*
X252500Y322000D02*
D03*
Y313000D02*
D03*
X168000Y273500D02*
D03*
Y282500D02*
D03*
X141500Y277000D02*
D03*
Y286000D02*
D03*
X367000Y104000D02*
D03*
Y113000D02*
D03*
X87000Y404500D02*
D03*
Y395500D02*
D03*
X549000Y237500D02*
D03*
Y246500D02*
D03*
X272500Y452500D02*
D03*
Y443500D02*
D03*
D23*
X450000Y65500D02*
D03*
X458000D02*
D03*
X454000Y75500D02*
D03*
X176000Y314000D02*
D03*
X168000D02*
D03*
X172000Y304000D02*
D03*
X584500Y172000D02*
D03*
X580500Y182000D02*
D03*
X588500D02*
D03*
X373500Y421500D02*
D03*
X377500Y411500D02*
D03*
X369500D02*
D03*
X253000Y345500D02*
D03*
X249000Y355500D02*
D03*
X257000D02*
D03*
D24*
X456405Y93500D02*
D03*
X444594D02*
D03*
X428905D02*
D03*
X417095D02*
D03*
D25*
X500000Y107000D02*
D03*
X472638D02*
D03*
D26*
X452742Y350013D02*
D03*
X460223D02*
D03*
X314258Y371487D02*
D03*
X306777D02*
D03*
X551223Y177013D02*
D03*
X543743D02*
D03*
X300777Y432987D02*
D03*
X308258D02*
D03*
D27*
X188000Y403500D02*
D03*
X184240Y403441D02*
D03*
Y414441D02*
D03*
X188040Y414441D02*
D03*
X191740Y403441D02*
D03*
D28*
Y414441D02*
D03*
D29*
X225500Y366000D02*
D03*
Y354500D02*
D03*
X200000Y369000D02*
D03*
Y357500D02*
D03*
X108000Y404500D02*
D03*
Y393000D02*
D03*
X244500Y455000D02*
D03*
Y443500D02*
D03*
D30*
X181500Y385500D02*
D03*
X172500D02*
D03*
X160000Y404000D02*
D03*
X169000D02*
D03*
X161500Y122000D02*
D03*
X152500D02*
D03*
X140000Y49500D02*
D03*
X149000D02*
D03*
X542500Y202000D02*
D03*
X551500D02*
D03*
X170000Y337000D02*
D03*
X179000D02*
D03*
X386000Y385500D02*
D03*
X377000D02*
D03*
X205000Y317000D02*
D03*
X214000D02*
D03*
X177500Y458000D02*
D03*
X186500D02*
D03*
X177000Y429500D02*
D03*
X186000D02*
D03*
D31*
X68500Y409358D02*
D03*
Y391642D02*
D03*
D32*
X49000Y393000D02*
D03*
Y410000D02*
D03*
X69000Y131500D02*
D03*
Y148500D02*
D03*
X76500Y10500D02*
D03*
Y27500D02*
D03*
D33*
X81500Y365000D02*
D03*
X99000D02*
D03*
D34*
X93500Y266000D02*
D03*
D35*
X68500Y275000D02*
D03*
D36*
X93500Y284000D02*
D03*
D37*
X55504Y223500D02*
D03*
X68496D02*
D03*
D38*
X116500Y276000D02*
D03*
Y289500D02*
D03*
D39*
X317835Y397000D02*
D03*
D40*
X295000Y387945D02*
D03*
Y397000D02*
D03*
Y406055D02*
D03*
D41*
X455941Y395579D02*
D03*
D42*
X463815Y395185D02*
D03*
X471689D02*
D03*
X479563D02*
D03*
X487437D02*
D03*
X495311D02*
D03*
X503185D02*
D03*
X511059D02*
D03*
Y455815D02*
D03*
X503185D02*
D03*
X495311D02*
D03*
X487437D02*
D03*
X479563D02*
D03*
X471689D02*
D03*
X463815D02*
D03*
X455941D02*
D03*
D43*
X203500Y445000D02*
D03*
X220500D02*
D03*
D44*
X229500Y398000D02*
D03*
X208000D02*
D03*
M02*
